<svg id="Capa_1" enable-background="new 0 0 512 512" height="512" viewBox="0 0 512 512" width="512" xmlns="http://www.w3.org/2000/svg"><g><g><g><path d="m228.553 43.488c-22.803 34.081-88.018 58.815-165.257 59.376v139.973c0 59.657 27.575 115.964 74.703 152.541l80.472 62.456c5.933 4.604 14.231 4.604 20.164 0l80.472-62.456c47.128-36.577 74.703-92.884 74.703-152.541v-139.973c-77.239-.561-142.454-25.294-165.257-59.376z" fill="#f9f6f6"/></g><g><g><path d="m297.967 88.235v123.872c0 59.657-27.575 115.964-74.703 152.541l-62.43 48.453 57.637 44.733c5.933 4.604 14.231 4.604 20.164 0l80.472-62.456c47.128-36.577 74.703-92.884 74.703-152.541v-139.973c-35.465-.258-68.39-5.614-95.843-14.629z" fill="#eedfda"/></g></g><g><g><path d="m228.552 496.997c-11.282 0-22.559-3.651-31.973-10.957l-80.472-62.456c-27.399-21.266-49.945-48.971-65.199-80.119s-23.317-65.945-23.317-100.629v-164.434c0-6.08 4.905-11.02 10.984-11.065l24.461-.178c69.655-.506 113.118-20.803 135.841-43.526 5.309-5.309 9.758-10.559 13.457-15.487 8.154-10.861 24.451-10.873 32.553.027 3.705 4.984 8.124 10.244 13.339 15.459 21.789 21.789 66.187 43.021 135.842 43.527l24.461.178c6.079.044 10.984 4.985 10.984 11.065v164.434c0 34.684-8.063 69.481-23.317 100.629-15.254 31.149-37.8 58.854-65.2 80.119l-80.472 62.455c-9.411 7.305-20.693 10.958-31.972 10.958zm-136.38-372.986c-3.55.401-6.227 3.416-6.227 6.989v110.466c0 53.92 24.43 103.805 67.026 136.865l71.264 55.309c2.54 1.972 6.094 1.972 8.634 0l71.264-55.31c42.596-33.059 67.026-82.944 67.026-136.864v-110.466c0-3.573-2.677-6.588-6.227-6.989-29.13-3.288-56.714-9.546-81.369-18.544-16.756-6.114-31.791-13.376-44.871-21.619-6.208-3.913-14.07-3.913-20.279 0-13.08 8.244-28.116 15.505-44.872 21.619-24.654 8.998-52.239 15.256-81.369 18.544z" fill="#c9beb9"/></g></g><g><g><path d="m418.53 67.338-24.461-.178c-21.738-.158-41.016-2.335-57.915-5.917v58.449c9.385 1.766 18.992 3.214 28.778 4.319 3.55.401 6.227 3.416 6.227 6.989v110.466c0 53.92-24.43 103.805-67.026 136.864l-71.264 55.31c-2.54 1.972-6.094 1.972-8.634 0l-17.471-13.559-46.703 36.247c-.297.231-.602.447-.903.671l37.421 29.044c9.413 7.306 20.691 10.957 31.973 10.957 11.279 0 22.561-3.653 31.974-10.958l80.472-62.455c27.4-21.266 49.945-48.97 65.2-80.12 15.253-31.148 23.317-65.945 23.317-100.629v-164.436c-.001-6.079-4.906-11.02-10.985-11.064z" fill="#9e9595"/></g></g><g><circle cx="228.552" cy="463.245" fill="#eedfda" r="10.342"/></g><g><circle cx="228.552" cy="43.488" fill="#f9f6f6" r="10.342"/></g><g><circle cx="394.588" cy="104.421" fill="#eedfda" r="10.342"/></g><g><circle cx="61.284" cy="104.421" fill="#f9f6f6" r="10.342"/></g></g><g><g><path d="m455.921 309.545v-45.975h-122.666v45.975c0 28.723 19.746 60.401 46.403 67.068 1.51.378 1.51 2.546 0 2.924-26.657 6.667-46.403 38.345-46.403 67.068v46.981h122.666v-46.981c0-28.723-19.746-60.401-46.403-67.068-1.51-.378-1.51-2.546 0-2.924 26.656-6.667 46.403-38.345 46.403-67.068z" fill="#bed8fb"/></g><g><path d="m409.518 376.613c26.657-6.667 46.403-38.345 46.403-67.068v-45.975h-24.767v45.975c0 28.723-19.746 60.401-46.403 67.068-1.51.378-1.51 2.546 0 2.923 26.657 6.667 46.403 38.345 46.403 67.068v46.981h24.767v-46.981c0-28.723-19.746-60.401-46.403-67.068-1.51-.378-1.51-2.546 0-2.923z" fill="#6bbef6"/></g><g><path d="m469.452 501.129c-4.167 0-7.544-3.377-7.544-7.544v-230.016c0-4.167 3.378-7.544 7.544-7.544s7.544 3.377 7.544 7.544v230.015c0 4.168-3.378 7.545-7.544 7.545z" fill="#8f4e24"/></g><g><path d="m319.825 501.129c-4.167 0-7.544-3.377-7.544-7.544v-230.016c0-4.167 3.378-7.544 7.544-7.544s7.544 3.377 7.544 7.544v230.015c0 4.168-3.378 7.545-7.544 7.545z" fill="#8f4e24"/></g><g><path d="m466.102 281.985h-143.028c-10.111 0-18.307-8.196-18.307-18.307v-.216c0-10.111 8.196-18.307 18.307-18.307h143.028c10.111 0 18.307 8.196 18.307 18.307v.216c0 10.111-8.196 18.307-18.307 18.307z" fill="#c56e37"/></g><g><path d="m465.994 245.154h-2.688c-1.223 8.985-8.905 15.916-18.226 15.916h-140.124c-.111.819-.189 1.649-.189 2.499 0 10.17 8.245 18.415 18.415 18.415h142.812c10.17 0 18.415-8.245 18.415-18.415s-8.244-18.415-18.415-18.415z" fill="#8f4e24"/></g><g><path d="m466.102 512h-143.028c-10.111 0-18.307-8.196-18.307-18.307v-.216c0-10.111 8.196-18.307 18.307-18.307h143.028c10.111 0 18.307 8.196 18.307 18.307v.216c0 10.111-8.196 18.307-18.307 18.307z" fill="#c56e37"/></g><g><path d="m465.994 475.169h-2.688c-1.223 8.985-8.905 15.916-18.226 15.916h-140.124c-.111.819-.189 1.649-.189 2.499 0 10.17 8.245 18.415 18.415 18.415h142.812c10.17 0 18.415-8.245 18.415-18.415s-8.244-18.415-18.415-18.415z" fill="#8f4e24"/></g></g><g><g><g><path d="m194.092 304.058c-.034 0-.07 0-.104 0-4.659-.032-9.042-2.215-11.875-5.915l-52.882-69.052c-5.067-6.616-3.81-16.086 2.806-21.153 6.616-5.064 16.087-3.811 21.153 2.806l41.073 53.632 83.345-105.765c5.157-6.546 14.644-7.669 21.19-2.512 6.545 5.157 7.67 14.644 2.512 21.19l-95.366 121.021c-2.862 3.63-7.231 5.748-11.852 5.748z" fill="#9bd069"/></g></g><g><g><path d="m298.797 156.098c-1.822-1.436-3.875-2.367-5.997-2.848.967 4.284.07 8.95-2.861 12.669l-95.365 121.021c-2.861 3.632-7.23 5.75-11.851 5.75-.034 0-.07 0-.104 0-1.926-.013-3.797-.413-5.539-1.117l5.032 6.571c2.833 3.699 7.216 5.882 11.875 5.915h.104c4.621 0 8.989-2.118 11.851-5.75l95.366-121.021c5.159-6.545 4.034-16.033-2.511-21.19z" fill="#69af81"/></g></g></g></g></svg>