<svg xmlns="http://www.w3.org/2000/svg" viewBox="0 0 145.36 145.95"><defs><style>.cls-1{fill:#7e6052;}.cls-2{fill:#e1bf9c;}.cls-3{fill:#f2d1ac;}.cls-4,.cls-6{fill:#c09a80;}.cls-4{opacity:0.7;}.cls-5{fill:#d3a789;}.cls-7{fill:#e0b89b;}.cls-8{fill:#0f0f0f;}.cls-9{fill:#dedddd;}.cls-10{fill:#fff;}.cls-11{fill:#c52026;}</style></defs><title>Asset 204</title><g id="Layer_2" data-name="Layer 2"><g id="Layer_1-2" data-name="Layer 1"><rect class="cls-1" width="145.36" height="145.95"/><path class="cls-2" d="M63.93,91.93v53.7H34.74l-.72-.31c0-28.8,17.87-30.95,17.87-30.95,1.78,0,2.93-2.3,3.69-5.78.12-.53.22-1.08.31-1.68.16-1,.3-2,.4-3.11.06-.66.12-1.31.19-2,.27-3.3.34-6.88.34-10.28C56.82,91.54,60.75,91.93,63.93,91.93Z"/><path class="cls-3" d="M93.94,145.32s-.26.1-.69.31H63.93V91.93H64c3.17,0,7.13-.39,7.13-.39,0,3.38.07,6.92.34,10.19.06.66.13,1.31.19,2,.12,1.12.24,2.19.4,3.19v0c.07.45.15.86.23,1.27.76,3.71,2,6.21,3.79,6.21C76.07,114.37,93.94,116.52,93.94,145.32Z"/><path class="cls-4" d="M72.05,106.87v0a9.41,9.41,0,0,1-8.08,4.4h0a10.13,10.13,0,0,1-8-4.38c.16-1,.3-2,.4-3.11.06-.66.12-1.31.19-2a32.18,32.18,0,0,0,7.36,1h.09a30,30,0,0,0,7.53-1c.06.66.13,1.31.19,2C71.77,104.8,71.89,105.87,72.05,106.87Z"/><path class="cls-5" d="M64,30.34c-30.92,0-31.1,25.89-29.72,42.83-2.12-4-8.4-2.78-7.88,3.54.49,6.1,9.36,9.25,9.23,8.54,2.54,14,17.09,22,28.37,22h.24V30.34Z"/><path class="cls-6" d="M28.38,74a2.93,2.93,0,0,1,4.47-.85A2.57,2.57,0,0,1,33.57,76c-.22.81-1.07.88-.86,2.11A2.16,2.16,0,0,0,34,79.9,2.9,2.9,0,0,1,35,81a3.1,3.1,0,0,1,.14,1.74c-.24,1-1.69.21-2.67-.23a18.42,18.42,0,0,1-3.2-2.6C28,78.49,27.36,75.67,28.38,74Z"/><path class="cls-7" d="M64.16,30.34c30.93,0,31.11,25.89,29.73,42.83,2.12-4,8.4-2.78,7.88,3.54-.5,6.1-9.36,9.25-9.24,8.54-2.53,14-17.08,22-28.37,22h-.23V30.34Z"/><path class="cls-6" d="M99.8,74a2.93,2.93,0,0,0-4.47-.85A2.55,2.55,0,0,0,94.61,76c.21.81,1.07.88.86,2.11a2.16,2.16,0,0,1-1.24,1.79,2.83,2.83,0,0,0-1,1.14,3.1,3.1,0,0,0-.14,1.74c.24,1,1.69.21,2.67-.23a18.42,18.42,0,0,0,3.2-2.6C100.22,78.49,100.82,75.67,99.8,74Z"/><path class="cls-2" d="M63.75,37.63c-10.18,0-17.63,3-22.14,8.8-6.29,8.14-6,20.59-3.73,29.51C38.59,78.67,39,86,39.45,88.73c2.19,12.09,15.52,18.52,24.3,18.52H64V37.64Z"/><path class="cls-3" d="M85.83,46.44C81.35,40.64,74,37.69,64,37.64v69.6c10-.11,22-7.16,24.06-18.51.49-2.69.85-10.06,1.56-12.79C91.92,67,92.15,54.61,85.83,46.44Z"/><path class="cls-8" d="M35.88,78.07c-.62,0,0-3.3-2-5.57s-5.21-9.92-5.21-17.56,2.69-14.43,9.71-21.65S55.69,22.56,55.69,22.56L51,26.89s2.55-3.51,11.74-6.33c7.25-2.21,11.94.26,11.94.26s-4.78-.17-6.23,1.91a7.62,7.62,0,0,1-1.7,1.33s2.22-5,12.54-.85S89.37,34.74,96.55,37c7.34,2.33,9.47-.65,9.47-.65s-3.19,5.23-8.85,5.24a5.7,5.7,0,0,1-1,0,47.69,47.69,0,0,1,2.53,9.79c.42,4.27-.88,7.19-1.28,15.18-.35,6.83-2.21,3.33-4.43,8.36a10.48,10.48,0,0,0-.78,3.59c-.82.2-3-4.1-1.43-11.57,1-4.84-4-23.21-16-19.63-7.35,2.19-9.21,6.65-14.71,2.69-4.74-3.42-11.38-5.38-16.33-2.68S36,56.08,36.84,65.78C37.94,78.16,35.88,78.07,35.88,78.07Z"/><path class="cls-9" d="M94,145.32s-.27.11-.7.33H34.74l-.72-.33C34,124,43.56,117,48.7,114.86a13.42,13.42,0,0,1,2.91-.92c4.28.41,12.22,3.68,12.22,3.68a13.55,13.55,0,0,0,8.23-3.27c.19-.18,3.77.65,3.91.49a10.64,10.64,0,0,0,.86-.82h0a15.68,15.68,0,0,1,2.23.72s0,0,0,0,.33.14.52.22a20.13,20.13,0,0,1,3.52,2.11,4.91,4.91,0,0,1,.51.39C88.54,121.31,94,129.23,94,145.32Z"/><path d="M88.67,122.91a20.73,20.73,0,0,0-9.3-8L64.2,140.62l-.16.28-.17-.28L48.7,114.86a20.72,20.72,0,0,0-9.29,8,12.42,12.42,0,0,1,2.42,4.93c1.92,6.9.81,15.32.42,17.81H85.83c-.39-2.49-1.5-10.91.42-17.81A12.42,12.42,0,0,1,88.67,122.91Z"/><path class="cls-10" d="M79.21,115.14c0,1.65-.23,3.34-.23,3.34a7.24,7.24,0,0,0-.61-1.9,2.33,2.33,0,0,0-1-1.11c-1.14-.63-3.58-1-4.54-.4s-5.51.67-6.35,1.37-1.65,6-1.65,6.36v16.67l-.68,1.15-.16.28-.17-.28L62.93,139,63,122.94l.13-8.06,10-9.11s-.46-2.33-.53-2.64.62.74.86,1,5,6.92,5.51,8.43A8.41,8.41,0,0,1,79.21,115.14Z"/><path class="cls-10" d="M54.23,104.59c-.26.24-4.92,6.82-5.44,8.33s0,5.94,0,5.94.39-2.38,1.54-3a9.34,9.34,0,0,1,4.22-1c2.31.17,5.84,1.27,6.68,2s3.65,7.11,3.65,7.11l-.77-9-9.47-8.79s.64-2.41.62-2.6S54.48,104.35,54.23,104.59Z"/><path class="cls-11" d="M65.25,116.61a1.43,1.43,0,1,1-2.85,0,1.43,1.43,0,0,1,2.85,0Z"/><path class="cls-11" d="M56.86,116.61s-.88-3.52,0-4,7,3,7,4-6.09,4.52-7,4S56.86,116.61,56.86,116.61Z"/><path class="cls-11" d="M70.79,116.61s.87-3.52,0-4-7,3-7,4,6.09,4.52,7,4S70.79,116.61,70.79,116.61Z"/><path class="cls-8" d="M75.38,94.76c-.19,6.46-7.12,7.38-10.8,7.56-.22,0-.42,0-.63,0s-.42,0-.64,0c-3.67-.18-10.6-1.1-10.79-7.56,0-.89-1.8,2-1.18,7.17.59,4.93,9.53,7.91,12.59,8.55h0c3.06-.64,12-3.62,12.58-8.55C77.17,96.75,75.41,93.87,75.38,94.76Z"/></g></g></svg>