<svg xmlns="http://www.w3.org/2000/svg" xmlns:xlink="http://www.w3.org/1999/xlink" viewBox="0 0 145.36 145.95"><defs><style>.cls-1{fill:none;}.cls-2{fill:#965458;}.cls-3{fill:#231f20;}.cls-4{fill:#e2bf9c;}.cls-5{fill:#f2d1ac;}.cls-6{clip-path:url(#clip-path);}.cls-7{fill:#c09a80;}.cls-8{fill:#d3a789;}.cls-9{fill:#e0b89b;}.cls-10{fill:#c7696e;}.cls-11{fill:#d87373;}.cls-12{fill:#434b68;}.cls-13{fill:#d7878e;}.cls-14{fill:#e0e0e0;}</style><clipPath id="clip-path"><rect class="cls-1" x="67.45" y="98.39" width="17.56" height="10.36"/></clipPath></defs><title>Asset 141</title><g id="Layer_2" data-name="Layer 2"><g id="Layer_1-2" data-name="Layer 1"><rect class="cls-2" width="145.36" height="145.95"/><path class="cls-3" d="M109.1,84.89c-4.69,17.94-15.16,21.71-33.89,21.71S41.33,96.88,41.33,84.89s15.17-21.7,33.88-21.7,36.92,10.1,33.89,21.7"/><path class="cls-4" d="M76.19,87.74V146H44.48l-.77-.34c0-25.69,13.16-31.82,17.8-33.17a10.12,10.12,0,0,1,1.61-.38h.16a3.28,3.28,0,0,0,.41-.08c1.6-.44,2.69-2.8,3.43-6.18.12-.57.24-1.17.33-1.82.18-1.06.32-2.2.45-3.37.06-.71.12-1.42.19-2.15.29-3.57.38-7.46.38-11.14,0,0,4.27.42,7.72.42"/><path class="cls-5" d="M108.77,145.61s-.29.11-.76.34H76.19V87.74h.06c3.44,0,7.74-.42,7.74-.42,0,3.66.09,7.5.37,11.06.07.71.14,1.41.2,2.11.14,1.22.26,2.37.44,3.45v0c.07.49.16.94.25,1.38.67,3.26,1.64,5.65,3.07,6.45a1.28,1.28,0,0,0,.34.14,1.83,1.83,0,0,0,.71.13,11,11,0,0,1,1.5.33c4.56,1.31,17.9,7.35,17.9,33.22"/><g class="cls-6"><path class="cls-7" d="M85,104v0a10.25,10.25,0,0,1-8.78,4.78h0A11,11,0,0,1,67.45,104c.17-1.06.32-2.21.44-3.38.07-.71.13-1.42.2-2.14a34.7,34.7,0,0,0,8,1h.1a33,33,0,0,0,8.18-1.12c.07.71.14,1.42.2,2.1.13,1.22.26,2.38.44,3.46"/></g><path class="cls-8" d="M76.15,25.21C43.07,25.15,42.88,51.68,44.36,69c-2.27-4.06-9-2.54-8.43,4,.53,6.23,10,9.06,9.87,8.37,2.71,14.1,18.3,21.93,30.35,23h.25V25.22h-.25"/><path class="cls-7" d="M37.59,70.19a3.29,3.29,0,0,1,4.85-.88,2.54,2.54,0,0,1,.78,2.89c-.23.84-1.17.89-.94,2.17a2.28,2.28,0,0,0,1.35,1.85c.39.32.89.56,1.14,1.17a3.3,3.3,0,0,1,.15,1.8c-.26,1-1.85.21-2.9-.25a19.85,19.85,0,0,1-3.48-2.68c-1.4-1.5-2.06-4.4-.95-6.07"/><path class="cls-9" d="M76.32,25.21c33.08-.06,33.26,26.47,31.79,43.77,2.28-4.06,9-2.54,8.44,4-.53,6.23-10,9.06-9.88,8.37-2.71,14.1-18.29,21.93-30.35,23h-.26V25.22h.26"/><path class="cls-7" d="M115.12,70.19a3.29,3.29,0,0,0-4.85-.88,2.57,2.57,0,0,0-.79,2.89c.24.84,1.17.89.94,2.17a2.29,2.29,0,0,1-1.34,1.85c-.39.32-.89.56-1.13,1.17a3,3,0,0,0-.15,1.8c.26,1,1.83.21,2.89-.25a19.42,19.42,0,0,0,3.47-2.68c1.42-1.5,2.07-4.4,1-6.07"/><path class="cls-4" d="M76,32.72c-11,0-19.12,3-24,9C45.12,50.15,45.38,63,47.9,72.14c.77,2.82,1.16,10.39,1.7,13.16C52,97.74,66.45,104.36,76,104.36h.25V32.73H76"/><path class="cls-5" d="M100,41.77c-4.85-6-12.84-9-23.72-9v71.62c10.89-.12,23.89-7.36,26.13-19,.53-2.77.93-10.34,1.69-13.16,2.51-9.16,2.76-22-4.1-30.37"/><path class="cls-10" d="M81.79,93.13s-2.48,2.66-5.57,2.66-5.43-2.61-5.43-2.61a35.91,35.91,0,0,1,5.43-.4,44.43,44.43,0,0,1,5.57.35"/><path class="cls-11" d="M77.8,91.9a1.44,1.44,0,0,0-1.58,1.21,1.43,1.43,0,0,0-1.57-1.21,22.11,22.11,0,0,0-4,1.23s3,.31,3.92.31,1.64.34,1.65-.3c0,.64.65.39,1.52.39s4.05-.4,4.05-.4a22.22,22.22,0,0,0-4-1.23"/><path class="cls-12" d="M109.1,145.61s-.3.11-.77.34H44.16l-.78-.34c0-12.36,3-20.22,6.67-25.24v0a24.27,24.27,0,0,1,4.94-5c.25-.2.54-.38.84-.58,0,0,.06-.07.09-.07.27-.18.53-.36.8-.52a84.29,84.29,0,0,1,9.08-4.25l-2,5.4c-.12,2.2,6,12.93,12.26,12.82C82.61,128,89.37,117,89.18,114.67c.68-1-3.14-4.09-2.6-4.84,2.45.72,11.9,5,16,10.73,3.59,5,6.51,12.88,6.51,25.05"/><path class="cls-3" d="M48.24,105.87S6.85,77.69,43.71,27.63C53,15.05,64,13.47,70.79,13.39a22.52,22.52,0,0,1,12.45,3.7s26.59,2.59,30.56,20.16c3.16,13.9,6.56,19.51,4.83,31.75-3.8,26.79-13.75,35.84-13.75,35.84l-7.6,5.74s5.24-14.29,6.58-23.06.38-11.89-1.14-18-5.56-11-12.48-16.09S84.09,36.4,84.09,36.4,49.9,51.32,50.47,89.71c.12,8,6.59,21.71,6.59,21.71Z"/><polygon class="cls-13" points="76.14 145.64 73.71 136.92 71.27 128.18 76.14 128.18 81.03 128.18 78.58 136.92 76.14 145.64"/><path class="cls-14" d="M90.42,115.7c-.56-1.33-1.92-2.59-2.42-3.65-.81-1.75-1.57-3.3-1.57-3.3-.18,1.68-3,9.14-3,9.14s-8.58,10.61-7.2,10.88S83.92,130,85.8,132s1.57,3.9,2.06,1.18,4.06-13.87,2.56-17.44"/><path class="cls-14" d="M69,117.89s-2.82-7.46-3-9.14l-1.57,3.3c-.5,1.06-1.85,2.32-2.42,3.65-1.5,3.57,2.08,14.7,2.57,17.44s.18.84,2-1.18,8.21-2.91,9.59-3.19S69,117.89,69,117.89"/><path class="cls-3" d="M118.65,57s2.78,23.54.45,37.31c0,0-6.11-52.47-10.58-37.31S106,35.67,118.65,57Z"/><path class="cls-3" d="M113.19,35.14S127,51,129.26,64.78c0,0-17.46-33.82-18.22-14.65S113.19,35.14,113.19,35.14Z"/><path class="cls-3" d="M30.25,54.14s-9,22-3,33.22c0,0-1.71-27.27,9.77-24.17"/><path class="cls-3" d="M52.35,19.17S30.51,28.6,27,40.79c0,0,17.87-20.67,23.9-10.41"/><path class="cls-3" d="M43.33,33.51S24,47.42,23.2,60.09c0,0,13-24,21.09-15.32"/><path class="cls-3" d="M77.06,32.48s2.29,23.67,12.81,30.79c0,0-14.2-23.34-2.59-25.94"/></g></g></svg>