<svg xmlns="http://www.w3.org/2000/svg" viewBox="0 0 145.36 145.95"><defs><style>.cls-1{fill:#d7878e;}.cls-2{fill:#d65641;}.cls-3{fill:#e1bf9c;}.cls-4{fill:#f2d1ac;}.cls-5,.cls-7{fill:#c09a80;}.cls-5{opacity:0.7;}.cls-6{fill:#d3a789;}.cls-8{fill:#e0b89b;}.cls-9{fill:#c6696e;}.cls-10{fill:#d87373;}.cls-11{fill:#d04d30;}.cls-12{fill:#d69cc6;}.cls-13{fill:#202028;}.cls-14{fill:#484748;}.cls-15{fill:#070808;opacity:0.8;}.cls-16{fill:#fec20f;}</style></defs><title>Asset 176</title><g id="Layer_2" data-name="Layer 2"><g id="Layer_1-2" data-name="Layer 1"><rect class="cls-1" width="145.36" height="145.95"/><path class="cls-2" d="M63.43,27.84c1.73-10.94,5.86-13.13,13.19-15,20.53-5.15,38.05,11.76,43,40.3A50,50,0,0,1,122,62.25a70.88,70.88,0,0,1,.76,11,91.73,91.73,0,0,1-.72,11.64c-3.59,22.11-13.36,18.82-13.36,18.82s7.33-.77,8.29-14.38c.18-2.55,0-11.61-.31-8C113,112.12,103,126.33,103,126.33s2.71-7.29,3.09-11.45,1.79-5.46-1.66-18.32c-.73-2.74,2.7-15.18,2.49-12.22C104.54,118.45,92,137.66,92,137.66s2.8-3.8,2.63-14.7c-.21-14.86-3.45-10.31-3.44-29.29,0-10.09,2.8-16.7-1.68-29-1-2.21-2-4.33-3.06-6.34a26.78,26.78,0,0,0-3.56-5,26.84,26.84,0,0,0-3.79-3.71c-1.12-.76-2.17-1.41-3.19-2-.22,0-.43.08-.64.08a10.6,10.6,0,0,1-7.53-3.13,1.52,1.52,0,0,1-1.19-1.4C63.77,39.48,62.45,34,63.43,27.84Z"/><path class="cls-3" d="M75.87,91.37V145.8H46.29l-.73-.32c0-12.51,3.32-20,7.11-24.58,5.07-6.08,11-6.78,11-6.78h.14a1.79,1.79,0,0,0,.4-.09c1.5-.41,2.51-2.61,3.2-5.76.12-.54.22-1.1.31-1.71.16-1,.31-2.06.41-3.15.06-.67.13-1.33.19-2,.27-3.34.35-7,.35-10.41C68.67,91,72.65,91.37,75.87,91.37Z"/><path class="cls-4" d="M106.29,145.48s-.27.11-.71.32H75.87V91.37h.06c3.22,0,7.22-.39,7.22-.39,0,3.43.08,7,.36,10.33.06.67.12,1.33.18,2,.13,1.15.25,2.22.42,3.24v0c.06.46.14.87.23,1.28.62,3.06,1.53,5.3,2.86,6a1.37,1.37,0,0,0,.31.13,1.69,1.69,0,0,0,.66.13s6.5.78,11.71,7.65C103.36,126.38,106.29,133.76,106.29,145.48Z"/><path class="cls-5" d="M84.11,106.54v0A9.54,9.54,0,0,1,75.92,111h0a10.33,10.33,0,0,1-8.16-4.44c.17-1,.31-2,.41-3.16.07-.66.13-1.32.19-2a33.06,33.06,0,0,0,7.47,1h.09a31.3,31.3,0,0,0,7.63-1.06c.06.66.12,1.32.19,2C83.82,104.44,83.94,105.52,84.11,106.54Z"/><path class="cls-6" d="M75.85,32.9C45,32.85,44.79,57.66,46.17,73.84c-2.12-3.8-8.38-2.39-7.87,3.69.49,5.82,9.34,8.47,9.22,7.82,2.53,13.19,17.08,20.51,28.33,21.55h.24v-74Z"/><path class="cls-7" d="M41.1,73.66a3,3,0,0,1,4.52-.82,2.37,2.37,0,0,1,.74,2.7c-.22.78-1.08.84-.88,2a2.11,2.11,0,0,0,1.26,1.72,2.81,2.81,0,0,1,1.06,1.1,2.89,2.89,0,0,1,.14,1.68c-.24,1-1.72.2-2.71-.23A18.59,18.59,0,0,1,42,79.34C40.67,77.93,40.07,75.22,41.1,73.66Z"/><path class="cls-8" d="M76,32.9c30.88,0,31.06,24.76,29.69,40.94,2.12-3.8,8.38-2.39,7.87,3.69-.49,5.82-9.35,8.47-9.22,7.82C101.81,98.54,87.26,105.86,76,106.9h-.23v-74Z"/><path class="cls-7" d="M112.11,74.41a3.06,3.06,0,0,0-4.53-.82,2.36,2.36,0,0,0-.73,2.7c.21.78,1.08.84.86,2a2.14,2.14,0,0,1-1.24,1.73,2.38,2.38,0,0,0-1.2,2.77c.24,1,1.71.2,2.7-.22a19.16,19.16,0,0,0,3.24-2.51C112.53,78.69,113.14,76,112.11,74.41Z"/><path class="cls-3" d="M75.69,39.93c-10.31,0-17.86,2.84-22.43,8.45-6.38,7.84-6.14,19.82-3.78,28.41.71,2.63,1.08,9.71,1.58,12.31,2.23,11.63,15.74,17.82,24.63,17.82h.24v-67Z"/><path class="cls-4" d="M98.07,48.39c-4.53-5.57-12-8.41-22.14-8.46v67c10.15-.11,22.3-6.89,24.38-17.81.5-2.6.87-9.68,1.59-12.31C104.25,68.22,104.47,56.26,98.07,48.39Z"/><path class="cls-9" d="M81.12,96.41s-2.33,2.49-5.2,2.49a7.73,7.73,0,0,1-5.07-2.44,33.77,33.77,0,0,1,5.07-.37A42.64,42.64,0,0,1,81.12,96.41Z"/><path class="cls-10" d="M77.39,95.26a1.34,1.34,0,0,0-1.47,1.13,1.35,1.35,0,0,0-1.47-1.13,20.74,20.74,0,0,0-3.74,1.15s2.85.3,3.66.3,1.53.32,1.55-.29c0,.62.59.38,1.4.38s3.8-.39,3.8-.39A20.59,20.59,0,0,0,77.39,95.26Z"/><path class="cls-11" d="M109.33,62.66a41.61,41.61,0,0,1-.37,4.92,8.47,8.47,0,0,1-.46,2.16,29.08,29.08,0,0,0-1.62,5.46,6.93,6.93,0,0,0-1.8,2.65c-1,2.57-1.37,2.14-1.37,2.14s.31-2,.66-4.53c.21-2.09.5-5.2.73-7.88,0-.37.06-.74.08-1.1C104.75,64.32,100.68,54,81.34,55a18.15,18.15,0,0,1-8.72-2.27c-2.53-1.26-4.29-2.61-4.46-2.61-.85,0-8.59-1.44-13.13,2a7.51,7.51,0,0,0-.81.66c-5.4,4.67-6.14,12.78-6.14,14.4a4.44,4.44,0,0,0,0,.5C48.24,70.92,49.63,80,49.63,80s-.37.43-1.36-2.14a7.27,7.27,0,0,0-2.16-3c-1.08-2.28-1.68-3-2.22-5.14a16.37,16.37,0,0,0-1.08-2.16c-1-2-2.22-5.79-1-14.9.07-.41.13-.83.19-1.26.95-6.23,5.69-20.21,18.17-22.71s15.4-5.41,25.61-1.24,16.66,7.08,19.8,14a43.7,43.7,0,0,1,2.86,11.26A83.82,83.82,0,0,1,109.33,62.66Z"/><path class="cls-12" d="M106.29,145.48s-.27.11-.71.32H46.29l-.73-.32c0-12.51,3.32-20,7.11-24.58l14,5.58s6.74,6.72,7,7.07A8.6,8.6,0,0,0,75.87,132l1.45-1.14s0,0,0,0c.59-.46,1.21-1,1.87-1.54,3.55-2.9,7.76-6.43,9.32-7.53,1.8-1.3,7.24-.85,11.35,0C103.36,126.38,106.29,133.76,106.29,145.48Z"/><path class="cls-13" d="M65.52,113.09A9.22,9.22,0,0,1,62,115.42l13.6,12.22s.74,9.08.22,8.78A56.54,56.54,0,0,1,72,131.75l-9.44-5.62L47.59,126s4.43-6.92,6.73-8.46A26.47,26.47,0,0,1,65.52,113.09Z"/><path class="cls-13" d="M86.21,113.09a9.22,9.22,0,0,0,3.57,2.33L76.17,127.64s-.73,9.08-.22,8.78a56.85,56.85,0,0,0,3.82-4.67l9.43-5.62,14.93-.11s-4.42-6.92-6.73-8.46A26.46,26.46,0,0,0,86.21,113.09Z"/><path class="cls-13" d="M79.23,145.8H72.48c.19-4.46,0-15.24,0-15.24s3,4.31,4.11,2.79c0,0,.77-2.47.79-2.49.48-.68.77-1.14.77-1.14.75-.46,1-1.7,1.1-.4C79.3,130.13,79.12,142.15,79.23,145.8Z"/><path class="cls-12" d="M78.56,141.67a2.79,2.79,0,1,1-2.79-2.78A2.79,2.79,0,0,1,78.56,141.67Z"/><path class="cls-14" d="M103.93,68.62c-3.44-.91-11.33.48-14.59,1.2a119.17,119.17,0,0,0-11.92,4,5.1,5.1,0,0,1-1.32.33,4.57,4.57,0,0,1-1.34-.34,122.17,122.17,0,0,0-11.92-4c-3.25-.72-11.15-2.12-14.58-1.2A1.91,1.91,0,0,0,47,69.71c.12.93,2.58,14.77,16.25,14.77a11.94,11.94,0,0,0,7.47-2.4c1.54-1.13,3.19-3.84,3.68-4.54s1-1.2,1.69-1.15h.08c.71,0,1.22.45,1.69,1.15S80,81,81.5,82.08A11.93,11.93,0,0,0,89,84.48c13.68,0,16.14-13.83,16.26-14.77A1.91,1.91,0,0,0,103.93,68.62ZM72,78.09c-1.15,3.25-5.4,5.32-9,5.19-6.64-.24-12.7-5.63-11.59-10.23.72-3,4.9-3.49,10.62-2.18C71.9,73.14,73.24,74.63,72,78.09Zm17.17,5.19c-3.64.13-7.88-1.94-9-5.18-1.23-3.47.12-5,10-7.23,5.72-1.31,9.9-.8,10.62,2.18C101.9,77.65,95.85,83.05,89.19,83.28Z"/><path class="cls-15" d="M80.16,78.1c1.15,3.24,5.39,5.31,9,5.18,6.66-.23,12.71-5.63,11.6-10.23-.72-3-4.9-3.49-10.62-2.18C80.28,73.14,78.93,74.63,80.16,78.1Z"/><path class="cls-15" d="M72,78.09c-1.15,3.25-5.4,5.32-9,5.19-6.64-.24-12.7-5.63-11.59-10.23.72-3,4.9-3.49,10.62-2.18C71.9,73.14,73.24,74.63,72,78.09Z"/><polygon class="cls-16" points="47.56 85.06 46.8 83.73 47.56 82.4 49.1 82.4 49.87 83.73 49.1 85.06 47.56 85.06"/><polygon class="cls-16" points="104.43 85.81 103.66 84.48 104.43 83.15 105.97 83.15 106.73 84.48 105.97 85.81 104.43 85.81"/></g></g></svg>