<svg xmlns="http://www.w3.org/2000/svg" viewBox="0 0 145.85 146.5"><defs><style>.cls-1{fill:#f0a28a;}.cls-2{fill:#7b532d;}.cls-3{fill:#976339;}.cls-4{fill:#563b20;}.cls-5{fill:#332214;}.cls-6{fill:#434b68;}.cls-7{fill:#fff;}.cls-8{fill:#070808;}</style></defs><title>Asset 136</title><g id="Layer_2" data-name="Layer 2"><g id="Layer_1-2" data-name="Layer 1"><rect class="cls-1" width="145.85" height="145.95"/><path class="cls-2" d="M74.92,88.13v58.36H43.19l-.78-.34c0-31.3,19.43-33.63,19.43-33.63,1.93,0,3.18-2.49,4-6.28.12-.58.23-1.18.32-1.83.18-1.06.34-2.2.45-3.38.06-.7.13-1.41.2-2.15.29-3.59.38-7.49.38-11.17,0,0,4.27.42,7.72.42"/><path class="cls-3" d="M107.54,146.15a8.22,8.22,0,0,0-.76.34H74.92V88.13H75c3.46,0,7.75-.42,7.75-.42,0,3.67.09,7.51.38,11.08.06.71.13,1.42.2,2.11.13,1.22.26,2.38.44,3.47v0c.07.49.16.94.25,1.38.82,4,2.11,6.75,4.11,6.75,0,0,19.43,2.33,19.43,33.63"/><path class="cls-4" d="M83.75,104.37v0A10.27,10.27,0,0,1,75,109.18h0a11.08,11.08,0,0,1-8.75-4.77c.18-1.06.34-2.2.45-3.38.06-.7.13-1.41.2-2.15a34.79,34.79,0,0,0,8,1h.09a32.79,32.79,0,0,0,8.19-1.13c.06.71.13,1.42.2,2.11.13,1.22.26,2.38.44,3.47"/><path class="cls-4" d="M74.46,21.2c-33.6,0-33.8,28.13-32.3,46.54-2.31-4.36-9.12-3-8.57,3.86.54,6.62,10.18,10,10,9.27C46.39,96,62.2,104.78,74.46,104.78h.26V21.2h-.26"/><path class="cls-5" d="M35.74,68.7a3.18,3.18,0,0,1,4.86-.93,2.77,2.77,0,0,1,.78,3c-.24.89-1.17.94-.94,2.29a2.36,2.36,0,0,0,1.35,1.94,3.22,3.22,0,0,1,1.13,1.25,3.35,3.35,0,0,1,.15,1.89c-.25,1.09-1.84.23-2.9-.25a21.26,21.26,0,0,1-3.48-2.83c-1.41-1.6-2.06-4.65-.95-6.41"/><path class="cls-4" d="M74.63,21.2c33.6,0,33.79,28.13,32.3,46.54,2.31-4.36,9.12-3,8.56,3.86-.53,6.62-10.17,10-10,9.27C102.71,96,86.89,104.78,74.63,104.78h-.26V21.2h.26"/><path class="cls-5" d="M113.35,68.7a3.18,3.18,0,0,0-4.86-.93,2.79,2.79,0,0,0-.78,3c.23.89,1.17.94.94,2.29a2.36,2.36,0,0,1-1.35,1.94,3.24,3.24,0,0,0-1.14,1.25,3.43,3.43,0,0,0-.14,1.89c.25,1.09,1.83.23,2.9-.25a20.79,20.79,0,0,0,3.47-2.83c1.42-1.6,2.07-4.65,1-6.41"/><path class="cls-2" d="M74.73,29.13c-11.07,0-19.15,3.2-24.06,9.55-6.84,8.85-6.58,22.37-4.05,32.08.77,3,1.16,11,1.69,13.9,2.39,13.13,16.88,20.12,26.42,20.12l.25,0V29.13h-.25"/><path class="cls-3" d="M98.72,38.69c-4.86-6.3-12.85-9.5-23.74-9.56v75.63c10.9-.11,23.91-7.77,26.15-20.1.52-2.94.93-10.93,1.7-13.9,2.51-9.68,2.76-23.19-4.11-32.07"/><path class="cls-6" d="M107.58,146.16s-.29.12-.75.34H43.17l-.79-.34c0-23.85,11.29-30.87,16.66-32.87,3.5,3.84,10.43,9.14,15.78,9.4H75a.2.2,0,0,0,.11,0c5.37-.26,12.3-5.58,15.8-9.43,5.34,2,16.7,9,16.7,32.9"/><path class="cls-7" d="M56.05,114.68c4.15,4.57,12.38,10.85,18.72,11.17H75a.28.28,0,0,0,.13,0c6.36-.32,14.57-6.6,18.72-11.17a20.53,20.53,0,0,0-3-1.42c-3.5,3.85-10.42,9.17-15.79,9.43,0,0-.09,0-.11,0h-.16c-5.34-.26-12.26-5.56-15.76-9.4a18.86,18.86,0,0,0-2.94,1.39"/><path class="cls-8" d="M107.16,68.44a7.73,7.73,0,0,0-2,2.9c-1.07,2.81-1.48,2.33-1.48,2.33s1.69-11,1.69-14S95.81,41.16,90.46,39.34s-10.18,4.29-15.93,4.29h-.45c-5.64-.12-10.65-6.05-15.93-4.29S43.22,56.6,43.22,59.63s1.68,14,1.68,14-.42.48-1.48-2.33a7.57,7.57,0,0,0-2.36-3.22c-1.42-19-.61-47,33-47h.17c33.77,0,34.42,28.33,33,47.34"/></g></g></svg>