<svg xmlns="http://www.w3.org/2000/svg" viewBox="0 0 145.36 145.95"><defs><style>.cls-1{fill:#5aadc5;}.cls-2{fill:#e1bf9c;}.cls-3{fill:#f2d1ac;}.cls-10,.cls-4{fill:#c09a80;}.cls-4{opacity:0.7;}.cls-5{fill:#e05f7a;}.cls-6{fill:#d87373;}.cls-7{fill:#751d23;}.cls-8{fill:#6c3415;}.cls-9{fill:#d3a789;}.cls-11{fill:#e0b89b;}.cls-12{fill:#c6696e;}.cls-13{fill:#070808;}.cls-14{fill:#319e71;}.cls-15{fill:#379da5;}.cls-16{fill:#231f20;}.cls-17{fill:#8c3d1e;}.cls-18{fill:#35853f;}.cls-19{fill:#473325;}</style></defs><title>Asset 161</title><g id="Layer_2" data-name="Layer 2"><g id="Layer_1-2" data-name="Layer 1"><rect class="cls-1" width="145.36" height="145.95"/><path d="M89.47,86.72c-.13,3.79.34,10.09.6,13.09s.7,11.7.07,15.36-.53,8.27-1.45,8.34-1.28-1.84-.9-4,.59-15.07.47-17.66-.74-10.62-.78-11a17.5,17.5,0,0,1,1.1-3.69C89,86.21,89.47,86.72,89.47,86.72Z"/><path d="M104.89,82.88a120.51,120.51,0,0,0-.24,19.25c.39,6.05,1.07,15.94,1,21s-1,14.59-1,14.59l-1.33,1.72s-.65,0,0-7.81c.58-7.35.37-10.54-.31-19.57-.44-5.9-1.22-18.3-.68-21.07A71.16,71.16,0,0,1,104.89,82.88Z"/><path d="M98.61,91a124.74,124.74,0,0,0-.88,16.76c0,3.87-.5,15-2.17,19.51s-2.18,10.35-3.83,10.21-2-2.65-1-5.32,3.3-19,3.47-22.29.28-13.67.25-14.1A17.37,17.37,0,0,1,97,91.35C97.9,90.21,98.61,91,98.61,91Z"/><path d="M102,86.56c0,4.84.67,12.87,1,16.68s1.08,14.9.57,19.61-.26,10.57-1.19,10.7-1.33-2.29-1-5.09.1-19.26-.1-22.56-1.08-13.53-1.13-14a26.48,26.48,0,0,1,1-4.75C101.53,85.93,102,86.56,102,86.56Z"/><path d="M100.18,86.56c0,4.84.67,12.87,1,16.68s1.08,14.9.56,19.61-.26,10.57-1.18,10.7-1.33-2.29-1-5.09.11-19.26-.1-22.56-1.08-13.53-1.13-14a27.61,27.61,0,0,1,1-4.75C99.72,85.93,100.18,86.56,100.18,86.56Z"/><path d="M100,85.76c-.29,4.83-.09,12.88,0,16.71s.2,14.94-.59,19.61-.88,10.54-1.81,10.61-1.19-2.37-.72-5.15,1.24-19.21,1.22-22.52-.28-13.57-.31-14a26.18,26.18,0,0,1,1.25-4.68C99.58,85.1,100,85.76,100,85.76Z"/><path d="M50.58,81.13c-7.25,27-5.87,36.93-5.4,37.31s.88.74,1.27-2.93C50.08,81.84,52.88,85.08,53,83.8s.88-2-.4-2.67A1.76,1.76,0,0,0,50.58,81.13Z"/><path d="M51.09,80.85A120.37,120.37,0,0,1,50,100.08c-.79,6-2.15,15.82-2.43,20.83s0,14.62,0,14.62l1.21,1.8s.64.08.55-7.78C49.27,122.17,49.7,119,51,110c.84-5.86,2.46-18.17,2.1-21A71.41,71.41,0,0,0,51.09,80.85Z"/><path d="M50.7,84.29a119.15,119.15,0,0,1,.23,19.25c-.38,6.06-1.07,15.94-1,21s1,14.58,1,14.58l1.34,1.72s.64,0,0-7.81c-.58-7.35-.37-10.53.31-19.57.44-5.9,1.22-18.3.68-21.07A69.07,69.07,0,0,0,50.7,84.29Z"/><path d="M57,92.39a124.74,124.74,0,0,1,.88,16.76c0,3.87.5,15,2.17,19.51s2.18,10.35,3.83,10.21,2-2.65,1-5.32-3.3-19-3.47-22.29-.28-13.66-.25-14.1a17.37,17.37,0,0,0-2.51-4.4C57.69,91.63,57,92.39,57,92.39Z"/><path d="M59.8,92.62c.78,4.77,1.42,12.8,1.69,16.62s1.35,14.88,2.62,19.45,2,10.38,2.9,10.36.94-2.48.18-5.19-3.22-19-3.55-22.28-1.14-13.52-1.15-14a27.12,27.12,0,0,0-1.74-4.53C60.15,91.92,59.8,92.62,59.8,92.62Z"/><path d="M53.6,88c0,4.84-.67,12.87-1,16.69s-1.08,14.89-.56,19.61.26,10.56,1.18,10.69,1.33-2.29,1-5.09-.1-19.26.11-22.55,1.07-13.54,1.12-14a26.65,26.65,0,0,0-1-4.75C54.06,87.34,53.6,88,53.6,88Z"/><path d="M55.41,88c0,4.84-.67,12.87-1,16.69s-1.08,14.89-.56,19.61S54.08,134.83,55,135s1.33-2.29,1-5.09-.1-19.26.11-22.55,1.08-13.54,1.13-14a27.79,27.79,0,0,0-1-4.75C55.87,87.34,55.41,88,55.41,88Z"/><path d="M63.15,87.21c.39,4.82.38,12.87.33,16.71s.14,14.93,1,19.59,1.12,10.51,2,10.56,1.14-2.4.61-5.16-1.67-19.19-1.74-22.49,0-13.57,0-14a27.51,27.51,0,0,0-1.37-4.65C63.56,86.54,63.15,87.21,63.15,87.21Z"/><path d="M45.16,116.83a8.28,8.28,0,0,0-.22,4.32c.18,1.62.09,3.62.84,4.16s1.69,1.24,1.61-.22-.59-2.38-.82-4.11-.44-3.76-.44-3.76Z"/><path class="cls-2" d="M77.78,90.9v54.43H48.19l-.72-.31c0-24.82,13.09-30.11,17-31.15a8.63,8.63,0,0,1,.91-.18.23.23,0,0,0,.11,0l.08,0h.14a2.57,2.57,0,0,0,.4-.08,2.79,2.79,0,0,0,1.55-1.28,13.71,13.71,0,0,0,1.65-4.49,16.65,16.65,0,0,0,.3-1.7c.17-1,.32-2,.42-3.15.06-.66.13-1.33.19-2,.27-3.35.35-7,.35-10.42C70.58,90.51,74.56,90.9,77.78,90.9Z"/><path class="cls-3" d="M86.24,107.36a15.78,15.78,0,0,0,1.58,4.69c-.33,3.29,16.69,33.33,16.69,33.33s-26.71,0-26.73,0V90.9h.07c3.21,0,7.21-.39,7.21-.39,0,3.42.09,7,.36,10.33.06.67.12,1.33.19,2,.12,1.15.24,2.22.41,3.24v0C86.08,106.53,86.16,106.94,86.24,107.36Z"/><path class="cls-3" d="M89.42,113.52l.33.1a1,1,0,0,1-.33-.06,1.44,1.44,0,0,1-.62-.39,1.31,1.31,0,0,0,.31.23A2,2,0,0,0,89.42,113.52Z"/><path class="cls-3" d="M89.75,113.62l.21,0h-.15A.07.07,0,0,1,89.75,113.62Z"/><path class="cls-3" d="M90.08,113.64a.13.13,0,0,1,.07,0l-.19,0Z"/><path class="cls-3" d="M108.2,145s-.27.1-.71.31h-7c1.31-2.49,3.51-8.82-2.67-15.94a25.72,25.72,0,0,0-2.08-2.13,11.46,11.46,0,0,1-1.47-1.6c-3.1-3.86-3.22-8.43-3.22-11.79l-.46-.12a17.74,17.74,0,0,1,6.66,3.11,20.74,20.74,0,0,1,3.12,2.76C104.46,124.06,108.2,131.74,108.2,145Z"/><path class="cls-4" d="M86,106.06v0a9.58,9.58,0,0,1-8.2,4.46h0a10.29,10.29,0,0,1-8.15-4.44c.16-1,.3-2,.41-3.15.06-.67.13-1.33.19-2a31.89,31.89,0,0,0,7.47,1h.08a30.37,30.37,0,0,0,7.64-1.06c.06.67.12,1.33.18,2C85.72,104,85.84,105,86,106.06Z"/><path class="cls-5" d="M95.81,127.1c-4.53-4.14-4.69-9.52-4.69-13.35l-.46-.12-.45-.08-.19,0h-.15a.07.07,0,0,1-.06,0,.93.93,0,0,1-.33-.07,1.44,1.44,0,0,1-.62-.39s0,0,0,0a3.62,3.62,0,0,1-1-1.1c-.33,3.29-.68,9.38-1.12,11C82,140.66,73.55,141,69,123c-.43-1.68-.83-7.53-1.16-10.8a2.84,2.84,0,0,1-1.56,1.28,2.74,2.74,0,0,1-.39.09h-.15l-.19,0a.18.18,0,0,1-.1,0l-.81.18c0,3.83-.17,9.21-4.69,13.35-8.7,7.94-6.18,15.29-4.75,18h45.36C102,142.39,104.5,135,95.81,127.1Z"/><path class="cls-6" d="M88.78,113.15a3.76,3.76,0,0,1-1-1.1.3.3,0,0,0,0-.13A8.11,8.11,0,0,0,88.78,113.15Z"/><path d="M66.12,88.13c.13,3.79-.34,10.09-.6,13.09s-.7,11.69-.07,15.37.53,8.26,1.45,8.33,1.28-1.84.9-4-.59-15.07-.46-17.66.73-10.62.77-10.95A16.92,16.92,0,0,0,67,88.6C66.57,87.62,66.12,88.13,66.12,88.13Z"/><path d="M68.76,88.51c0,4.58-.7,12.18-1.07,15.8s-1.13,14.12-.63,18.59.23,10,1.15,10.14,1.34-2.17,1-4.83,0-18.25.17-21.37S70.54,94,70.6,93.62a24.91,24.91,0,0,0-1-4.51C69.23,87.9,68.76,88.51,68.76,88.51Z"/><path class="cls-7" d="M100.38,119.62a40.73,40.73,0,0,0-2.55,9.77,25.72,25.72,0,0,0-2.08-2.13,11.46,11.46,0,0,1-1.47-1.6c.6-3.07,1.55-6.62,3-8.8A20.74,20.74,0,0,1,100.38,119.62Z"/><path class="cls-7" d="M54.83,120.1a41.57,41.57,0,0,1,2.55,9.77,25.58,25.58,0,0,1,2.07-2.14,10.88,10.88,0,0,0,1.47-1.6c-.6-3.07-1.55-6.61-3-8.8A20.8,20.8,0,0,0,54.83,120.1Z"/><path class="cls-8" d="M47.37,117.16a1.65,1.65,0,0,1-1.65,1.65h0a1.65,1.65,0,0,1-1.65-1.65h0a1.66,1.66,0,0,1,1.65-1.66h0a1.66,1.66,0,0,1,1.65,1.66Z"/><path d="M55.58,87.17c.29,4.83.09,12.88,0,16.71s-.21,14.94.58,19.61S57,134,57.93,134.1s1.2-2.37.72-5.15-1.23-19.21-1.22-22.52.29-13.57.31-14a26.46,26.46,0,0,0-1.25-4.69C56,86.51,55.58,87.17,55.58,87.17Z"/><path d="M104.5,79.44a120.37,120.37,0,0,0,1.07,19.23c.79,6,2.14,15.82,2.43,20.83s0,14.62,0,14.62l-1.21,1.8s-.64.08-.55-7.78c.08-7.38-.35-10.54-1.64-19.51-.84-5.86-2.46-18.17-2.1-21A71.41,71.41,0,0,1,104.5,79.44Z"/><path d="M95.79,91.21C95,96,94.37,104,94.1,107.83s-1.35,14.88-2.62,19.45-2,10.38-2.9,10.36-.94-2.48-.18-5.19,3.23-19,3.55-22.28,1.14-13.52,1.15-14a27.44,27.44,0,0,1,1.73-4.52C95.45,90.5,95.79,91.21,95.79,91.21Z"/><path d="M92.45,85.79c-.4,4.83-.39,12.88-.34,16.72s-.13,14.93-1,19.59S90,132.61,89,132.66s-1.15-2.4-.61-5.16,1.67-19.19,1.74-22.49,0-13.57,0-14a27.77,27.77,0,0,1,1.37-4.65C92,85.12,92.45,85.79,92.45,85.79Z"/><path d="M86.83,87.09c0,4.59.7,12.2,1.08,15.82S89,117,88.53,121.49s-.23,10-1.15,10.14-1.34-2.17-1-4.83,0-18.25-.17-21.37S85,92.61,85,92.21a24.91,24.91,0,0,1,1-4.51C86.36,86.49,86.83,87.09,86.83,87.09Z"/><path d="M56.78,90.5c.58,4.8.88,12.84,1,16.68s.71,14.92,1.78,19.54,1.53,10.46,2.46,10.47,1-2.43.4-5.18-2.4-19.1-2.59-22.4-.55-13.56-.55-14A27.77,27.77,0,0,0,57.72,91C57.17,89.81,56.78,90.5,56.78,90.5Z"/><path class="cls-9" d="M77.75,32.43c-30.88-.06-31.06,24.75-29.69,40.93-2.12-3.79-8.38-2.38-7.86,3.69.49,5.83,9.34,8.47,9.22,7.83,2.52,13.18,17.08,20.5,28.33,21.54H78v-74Z"/><path class="cls-10" d="M41.74,74.49a3.06,3.06,0,0,1,4.53-.82,2.36,2.36,0,0,1,.73,2.7c-.22.78-1.08.84-.87,2a2.12,2.12,0,0,0,1.25,1.72,2.4,2.4,0,0,1,1.2,2.78c-.24,1-1.71.2-2.7-.22a19.16,19.16,0,0,1-3.24-2.51C41.32,78.76,40.71,76.05,41.74,74.49Z"/><path class="cls-11" d="M77.9,32.43c30.88-.06,31.06,24.75,29.69,40.93,2.11-3.79,8.37-2.38,7.86,3.69-.49,5.83-9.34,8.47-9.21,7.83-2.53,13.18-17.08,20.5-28.34,21.54h-.23v-74Z"/><path class="cls-10" d="M114.12,74.49a3.06,3.06,0,0,0-4.53-.82,2.39,2.39,0,0,0-.73,2.7c.22.78,1.09.84.88,2a2.11,2.11,0,0,1-1.26,1.72,2.38,2.38,0,0,0-1.19,2.78c.24,1,1.71.2,2.7-.22a19.16,19.16,0,0,0,3.24-2.51C114.55,78.76,115.16,76.05,114.12,74.49Z"/><path class="cls-2" d="M77.58,39.45c-10.31,0-17.85,2.84-22.43,8.46-6.38,7.83-6.13,19.81-3.78,28.4C52.09,78.94,52.46,86,53,88.63c2.22,11.62,15.73,17.81,24.62,17.81h.24v-67Z"/><path class="cls-3" d="M100,47.92c-4.54-5.58-12-8.42-22.15-8.46v67c10.16-.1,22.3-6.89,24.38-17.8.5-2.6.87-9.69,1.59-12.32C106.14,67.74,106.37,55.79,100,47.92Z"/><path class="cls-12" d="M83,95.93s-2.34,2.5-5.21,2.5A7.77,7.77,0,0,1,72.74,96a33.07,33.07,0,0,1,5.07-.38A42.92,42.92,0,0,1,83,95.93Z"/><path class="cls-6" d="M79.29,94.78a1.36,1.36,0,0,0-1.48,1.13,1.35,1.35,0,0,0-1.47-1.13,20.86,20.86,0,0,0-3.73,1.15s2.84.3,3.66.3,1.52.32,1.54-.28c0,.61.6.37,1.41.37s3.8-.39,3.8-.39A20.86,20.86,0,0,0,79.29,94.78Z"/><path d="M111.58,65.48c0,7.47-.74,5.75,1.58,17.53,1.6,8.14,3.29,10.61,3.29,10.61s-10.64-13.57-9.85-27C106.72,64.52,111.58,65.48,111.58,65.48Z"/><path d="M43.83,61.3c1,7.41,1.49,5.61.78,17.59-.49,8.28-1.84,11-1.84,11S51.5,75,48.9,61.73C48.51,59.7,43.83,61.3,43.83,61.3Z"/><path class="cls-13" d="M51.34,38.55l-.63.45a16.29,16.29,0,0,0-1.6,1.44,14.69,14.69,0,0,0-2,2.66A23.3,23.3,0,0,0,45.35,47a45.12,45.12,0,0,0-2.1,10.58c-.44,3.94-.58,8.22-1,12.51s-.87,8.56-1.6,12.54a71.82,71.82,0,0,1-2.72,10.73,51.2,51.2,0,0,1-3,7.22c-.39.85-1,1.58-.39-.18s1.41-4.31,2.24-7.38a101.74,101.74,0,0,0,2-10.69c.56-3.94,1-8.18,1.41-12.43s.71-8.52,1.3-12.54A45.9,45.9,0,0,1,44.33,46.6a17.7,17.7,0,0,1,4.52-6.43,12.55,12.55,0,0,1,1.81-1.25Z"/><path class="cls-14" d="M38.76,94.06a1.65,1.65,0,0,1-1.65,1.66h0a1.65,1.65,0,0,1-1.65-1.66h0a1.65,1.65,0,0,1,1.65-1.65h0a1.65,1.65,0,0,1,1.65,1.65Z"/><path class="cls-15" d="M111.51,115.05a1.65,1.65,0,0,1-1.66,1.65h0a1.65,1.65,0,0,1-1.65-1.65h0a1.65,1.65,0,0,1,1.65-1.65h0a1.65,1.65,0,0,1,1.66,1.65Z"/><path class="cls-16" d="M49.37,44.22S48.42,49.94,47,58.53c-.35,2.14-.7,4.46-1,6.92s-.64,5-1,7.72-.57,5.46-.8,8.27-.42,5.69-.47,8.56a51.41,51.41,0,0,1-.84,8.83,70.78,70.78,0,0,1-2.2,8.24c-1.68,5.21-3.38,9.91-4.09,14.1a27.12,27.12,0,0,0-.36,5.74A17.91,17.91,0,0,0,37,131.3,22.49,22.49,0,0,0,38,134c.29.61.45.93.45.93l-.6-.85a15.7,15.7,0,0,1-1.47-2.59A20.11,20.11,0,0,1,35,127.05a23.13,23.13,0,0,1-.26-6.1c.34-4.48,1.79-9.47,3.24-14.66.72-2.6,1.37-5.29,1.87-8a50.21,50.21,0,0,0,.7-8.38c.08-2.94.32-5.85.58-8.72s.68-5.67,1.08-8.38.9-5.31,1.44-7.75,1.05-4.76,1.59-6.88c1-4.24,2.13-7.72,2.86-10.15S49.37,44.22,49.37,44.22Z"/><path class="cls-17" d="M37.11,126a1.65,1.65,0,0,1-1.65,1.65h0A1.65,1.65,0,0,1,33.8,126h0a1.65,1.65,0,0,1,1.66-1.65h0A1.65,1.65,0,0,1,37.11,126Z"/><path class="cls-16" d="M105.28,54.79s.13,1.3.26,3.57c0,1.13.16,2.51.36,4.06s.38,3.31.69,5.21.65,4,1.06,6.13,1,4.42,1.49,6.77,1.21,4.74,1.89,7.18,1.42,4.9,2.15,7.38,1.46,5,2.12,7.47,1.13,5,1.63,7.41c.16,1.24.31,2.45.46,3.63,0,.62.16,1.14.17,1.81s0,1.13,0,1.69c0,1.11.05,2.19.08,3.25s-.12,2.1-.18,3.09c-.08,2-.32,3.76-.53,5.33s-1.12-1.51-1.26-5.33c0-1-.07-1.94-.11-3s-.21-2.12-.31-3.22c-.06-.56-.11-1.12-.17-1.69s-.19-1.09-.28-1.63c-.19-1.13-.4-2.28-.6-3.44-.57-2.33-1.12-4.72-1.84-7.15S111,98.45,110.2,96s-1.46-5-2.07-7.49-1.16-5-1.66-7.37-.86-4.74-1.11-7-.48-4.35-.54-6.32a48.93,48.93,0,0,1-.07-5.36c0-1.59.07-3,.19-4.1C105.13,56.08,105.28,54.79,105.28,54.79Z"/><path class="cls-18" d="M118.11,120.46a1.66,1.66,0,0,1-1.66,1.66h0a1.65,1.65,0,0,1-1.65-1.66h0a1.65,1.65,0,0,1,1.65-1.65h0a1.65,1.65,0,0,1,1.66,1.65Z"/><path class="cls-19" d="M115.71,52.62c.53,1.27,1,2.47,1.47,3.58s.79,2.17,1.15,3.08.59,1.74.82,2.41c.46,1.34.74,2.11.74,2.11s-.08-.81-.29-2.22-.58-3.4-1.14-5.79c-.34-1.18-.7-2.45-1.13-3.8s-1-2.73-1.61-4.13a43.44,43.44,0,0,0-2.16-4.24,39.76,39.76,0,0,0-2.69-4.16c-.51-.74-1.07-1.42-1.62-2.07-7.74-11.95-19.38-11.68-19.38-11.68S88,24.88,85.19,24l-1.39-.74a17.61,17.61,0,0,0-2.2-1,16.13,16.13,0,0,0-2.37-.82l-2.51-.67-2.63-.42a20.19,20.19,0,0,0-2.69-.22,20.62,20.62,0,0,0-2.72-.05L66,20.23c-.9.11-1.79.27-2.67.41a38.88,38.88,0,0,0-5.08,1.26c-1.59.59-3.12,1.17-4.52,1.83S51,25.1,49.88,25.82s-2.12,1.46-3,2.09-1.55,1.31-2.16,1.8c-1.17,1-1.81,1.63-1.81,1.63s.77-.45,2.08-1.26c.66-.4,1.42-.95,2.36-1.44s2-1,3.19-1.64,2.5-1.06,3.85-1.67c1.12-.43,2.34-.8,3.57-1.19-.15.07-.28.16-.42.23a16.31,16.31,0,0,0-5.2,2.72A44.09,44.09,0,0,0,46.92,32a52.43,52.43,0,0,0-4.38,5.57,58.4,58.4,0,0,0-3.25,5.75c-.9,1.88-1.64,3.72-2.28,5.41a67.22,67.22,0,0,0-2.51,8.38c-.5,2.05-.7,3.24-.7,3.24L35,57.28c.37-1,.85-2.16,1.41-3.5s1.2-2.85,2-4.47A73,73,0,0,1,44,39.42a49.3,49.3,0,0,0-4.24,20.46c0,5.27,3.83,22.2,2.82,32.36-1,10.66-6.51,40.41-6.51,40.41s9.41-31.32,12.74-49.16a133.69,133.69,0,0,0,1.36-14.37l6.2,2.33.48-6.87.47,6.87L59,69.12l1.25-11.86,1.24,11.86,9.1,2.33L71,64.58l.47,6.87h3.38l.32-5.38.32,5.38,12-2.33,1.06-8.79.92,11.12,3-2.33.37-3.54.37,3.54,7.7,2.14.8-9.94.8,9.94,3.63-2.34c-.16,8.63.11,4,0,6.29-1.43,30.71,12.11,57.44,12.11,57.44-.87-8.11-13.41-32.91-5-55.47a42,42,0,0,0,2.44-11.4c.11.56.24,1.11.31,1.67.4,2.06.55,4.14.77,6.13,0,2,.26,4,.19,5.81,0,.92,0,1.82,0,2.69s-.11,1.71-.17,2.53c-.09,1.62-.27,3.09-.4,4.41s-.28,2.46-.45,3.4l-.44,3s.32-1,.89-2.88c.28-.91.58-2,.85-3.34a37.42,37.42,0,0,0,.85-4.42c.12-.82.24-1.67.37-2.55s.14-1.81.22-2.75a58.08,58.08,0,0,0,.16-6,59.17,59.17,0,0,0-.6-6.38,65,65,0,0,0-1.3-6.5c-.49-1.49-1-3-1.5-4.43a57.16,57.16,0,0,0-1.18-6.6C114.76,50.61,115.24,51.65,115.71,52.62Z"/></g></g></svg>