<svg xmlns="http://www.w3.org/2000/svg" viewBox="0 0 145.36 145.95"><defs><style>.cls-1{fill:#8967ac;}.cls-2{fill:#674e21;}.cls-3{fill:#e1bf9c;}.cls-4{fill:#f2d1ac;}.cls-5,.cls-8{fill:#c09a80;}.cls-5{opacity:0.7;}.cls-6{fill:#d3a789;}.cls-7{fill:#282844;}.cls-9{fill:#e0b89b;}.cls-10{fill:#1e2859;}.cls-11{fill:#494a7d;}.cls-12{fill:#1f1f33;}.cls-13{fill:#473417;}</style></defs><title>Asset 211</title><g id="Layer_2" data-name="Layer 2"><g id="Layer_1-2" data-name="Layer 1"><rect class="cls-1" width="145.36" height="145.95"/><path class="cls-2" d="M57.88,73.79a6,6,0,0,0-4.16-2.31,23.45,23.45,0,0,0-2.57-6.36c-3.51-4.78-12.29-1-12.29-1,0,5.63,2,8.45,0,13s-.42,2.23-4.06,6.66-4.3,5.57-5.18,8.75c-1.66,6,.7,13.33,1.12,14.84S29,96.85,34.67,94.9a16,16,0,0,0,2.73-1.25,17,17,0,0,1-.28,6.79,14.46,14.46,0,0,0,.68,9.47,7.68,7.68,0,0,0,4.28,4A6.42,6.42,0,0,1,40,107c.81-3.09,2.32-4.45,3.16-7.06A21.73,21.73,0,0,0,44,96.68a6.2,6.2,0,0,0,.52,3c1,1.89,4,5,3.37,8.86-1.9,10.75,2,13.7,2.61,15s-1.55-3.46-.15-7.44a6.9,6.9,0,0,1,3.27-4,7.76,7.76,0,0,1,1,5c-1.91,10.75,2,13.7,2.6,15s-1.55-3.46-.14-7.44,3.93-3.51,6.06-6.38a17,17,0,0,0,2.3-15.36C65.13,102.2,61.38,78.57,57.88,73.79Z"/><path class="cls-2" d="M118.14,92.27c-.87-3.18-1.54-4.32-5.18-8.74s-2.1-2.16-4.06-6.67,0-7.32,0-13c0,0-8.79-3.74-12.29,1A23.78,23.78,0,0,0,94,71.29a6,6,0,0,0-4.15,2.32c-3.51,4.78-7.25,28.4-7.54,29.26a17,17,0,0,0,2.3,15.35c2.13,2.87,4.66,2.39,6.06,6.38s-.71,8.76-.15,7.44,4.52-4.26,2.61-15a7.79,7.79,0,0,1,1-5,6.9,6.9,0,0,1,3.27,4c1.4,4-.71,8.76-.15,7.44s4.51-4.26,2.61-15c-.69-3.84,2.39-7,3.37-8.87a6.32,6.32,0,0,0,.52-3,21.55,21.55,0,0,0,.77,3.28c.83,2.6,2.36,4,3.16,7.06a6.45,6.45,0,0,1-2,6.91,7.71,7.71,0,0,0,4.28-4,14.43,14.43,0,0,0,.68-9.46,16.86,16.86,0,0,1-.28-6.79,15.26,15.26,0,0,0,2.73,1.24c5.63,2,3.51,13.9,3.93,12.4S119.8,98.29,118.14,92.27Z"/><path class="cls-3" d="M73.32,92.1v53.7H44.12l-.71-.31c0-28.8,17.87-31,17.87-31,1.78,0,2.93-2.29,3.69-5.77.12-.53.22-1.08.3-1.67.17-1,.31-2,.41-3.12q.1-1,.18-2c.23-2.69.31-5.57.33-8.38,0-.63,0-1.27,0-1.9C66.21,91.71,70.14,92.1,73.32,92.1Z"/><path class="cls-4" d="M103.33,145.49s-.27.1-.69.31H73.32V92.1h.06c3.17,0,7.12-.39,7.12-.39,0,.74,0,1.47,0,2.21,0,2.68.13,5.42.33,8,.06.66.13,1.31.19,1.95.12,1.12.24,2.19.41,3.19v0c0,.44.14.85.22,1.26.76,3.71,1.94,6.2,3.79,6.2C85.46,114.53,103.33,116.69,103.33,145.49Z"/><path class="cls-5" d="M81.45,107v0a9.45,9.45,0,0,1-8.09,4.4h0a10.16,10.16,0,0,1-8-4.38c.16-1,.3-2,.4-3.12.07-.65.13-1.3.19-2a32.19,32.19,0,0,0,7.37,1h.08a30.1,30.1,0,0,0,7.54-1c0,.66.12,1.32.18,1.95C81.16,105,81.28,106,81.45,107Z"/><path class="cls-6" d="M73.41,30.51c-30.93,0-31.1,25.89-29.73,42.83-2.12-4-8.39-2.78-7.88,3.55.5,6.09,9.36,9.24,9.23,8.54,2.54,13.94,17.09,22,28.38,22h.23V30.52Z"/><path class="cls-7" d="M103.33,145.49s-.27.1-.69.31H44.12l-.71-.31c0-28.13,17-30.83,17.85-31h0c1.35,0,2.33-1.3,3-3.44a3.19,3.19,0,0,0,1.27,1.11c1.05.58,3,1.13,7.78,1.13s7.9-1,8.77-1.82a1.54,1.54,0,0,0,.26-.42c.69,2,1.64,3.34,2.88,3.44h.17S103.33,116.69,103.33,145.49Z"/><path class="cls-8" d="M37.78,74.22a2.92,2.92,0,0,1,4.46-.86A2.56,2.56,0,0,1,43,76.17c-.22.81-1.08.88-.86,2.11a2.15,2.15,0,0,0,1.23,1.79,2.86,2.86,0,0,1,1,1.15A3.09,3.09,0,0,1,44.52,83c-.23,1-1.69.2-2.67-.24a18,18,0,0,1-3.19-2.6C37.35,78.66,36.75,75.84,37.78,74.22Z"/><path class="cls-9" d="M73.56,30.51c30.92,0,31.1,25.89,29.72,42.83,2.12-4,8.4-2.78,7.88,3.55-.49,6.09-9.36,9.24-9.23,8.54-2.54,13.94-17.09,22-28.37,22h-.24V30.52Z"/><path class="cls-8" d="M109.19,74.22a2.93,2.93,0,0,0-4.47-.86,2.57,2.57,0,0,0-.72,2.81c.22.81,1.07.88.86,2.11a2.14,2.14,0,0,1-1.24,1.79,2.93,2.93,0,0,0-1,1.15,3.09,3.09,0,0,0-.14,1.74c.24,1,1.69.2,2.67-.24a18.42,18.42,0,0,0,3.2-2.6C109.61,78.66,110.21,75.84,109.19,74.22Z"/><path class="cls-3" d="M73.14,37.81C63,37.81,55.52,40.76,51,46.6c-6.3,8.14-6.06,20.59-3.73,29.52.71,2.73,1.07,10.09,1.56,12.79C51,101,64.36,107.42,73.14,107.42h.23V37.82Z"/><path class="cls-4" d="M95.22,46.61c-4.47-5.8-11.83-8.75-21.85-8.79v69.59c10-.1,22-7.15,24.06-18.5.49-2.7.85-10.06,1.57-12.79C101.31,67.21,101.54,54.78,95.22,46.61Z"/><path class="cls-10" d="M63,30.29c-3.37-4.13-5.63-10.42,0-15a19.82,19.82,0,0,1,13.09-4.74c2.32,0,9.08.66,11,4.74S94.19,22,89.5,25.78s-3,6.39-14,6.39S63,30.29,63,30.29Z"/><path class="cls-11" d="M41.37,51.82c.39-4.7-4.67-2.62,1.37-9.58s10.11-10.89,14.78-12.4,10.31-5.25,18.86-4.5,13.23-2.26,17.71,4.13,6,7,7.78,14.09,7.58,12.64.78,11.76S41.37,51.82,41.37,51.82Z"/><path class="cls-12" d="M85.66,117.56c-3.93,2.79-6.51,3.43-12.38,3.43s-7.88-.83-10.87-2.32c-2.11-1-3.61-1.86-2.07-3.21a9.65,9.65,0,0,0,.92-.93h0a15.58,15.58,0,0,0,1.19-1.82c.79-1.16-1.43-1.84-.06-2.74a3.66,3.66,0,0,1,2.43-.72c-.51,1.84.27,2.68.76,3,1.05.58,3,1.13,7.78,1.13s7-1,8.07-1.6c.87-.48.64-1.44.62-1.85a1.65,1.65,0,0,1-.14-.37s2.63.15,2.4,1.44a5.16,5.16,0,0,0,1,3.58c.13.17.23.33.35.48C86.59,116.21,88,115.93,85.66,117.56Z"/><path class="cls-10" d="M103.25,50.14c-2.11-.77-7.35-2.42-11.92-4a10,10,0,0,0-1.86-.72c-6.9-2-7.23-5.13-17.22-4.38s-23,7.14-28.21,9-6.53,6.76-6.14,12.21a34.55,34.55,0,0,0,1.72,9c6.53-4.32,13.25-9.58,20.74-10.34s10.94-1.31,18.23,0,11.4.3,18.22,3.51c3.74,2,7.32,4.6,10.86,6.93a34.91,34.91,0,0,0,1.72-9C109.78,56.9,108.44,52,103.25,50.14Z"/><path class="cls-13" d="M91.34,96.57c-.46-1.64-2.28-1.14-5.62-2.3a45.9,45.9,0,0,0-12.33-1.79h0A45.94,45.94,0,0,0,61,94.27c-3.34,1.16-5.16.66-5.62,2.3a14.07,14.07,0,0,0,.76,5.53c1.32,2.09,5.57,4.65,8.73,6.08,2.38,1.09,4.26,1.12,8.47,1,4.22.1,6.11.07,8.48-1,3.16-1.43,7.42-4,8.73-6.08A13.89,13.89,0,0,0,91.34,96.57Zm-6.29.81a23.13,23.13,0,0,1-6.17,3.84c-.61.28-1,.42-3,.42l-2.28,0h-.39l-2.28,0a6.15,6.15,0,0,1-3-.42,21.25,21.25,0,0,1-6.23-4,8.6,8.6,0,0,1,1.8-.82,39.25,39.25,0,0,1,10-1.39h.21a39.08,39.08,0,0,1,9.76,1.39,9.07,9.07,0,0,1,1.77.81Z"/><polygon class="cls-11" points="53.22 129.18 50.34 124.19 47.46 129.18 44.58 134.16 47.46 139.15 50.34 144.13 53.22 139.15 56.1 134.16 53.22 129.18"/><polygon class="cls-11" points="64.73 129.18 61.85 124.19 58.98 129.18 56.1 134.16 58.98 139.15 61.85 144.13 64.73 139.15 67.61 134.16 64.73 129.18"/><polygon class="cls-11" points="76.25 129.18 73.37 124.19 70.49 129.18 67.61 134.16 70.49 139.15 73.37 144.13 76.25 139.15 79.13 134.16 76.25 129.18"/><polygon class="cls-11" points="87.77 129.18 84.89 124.19 82.01 129.18 79.13 134.16 82.01 139.15 84.89 144.13 87.77 139.15 90.64 134.16 87.77 129.18"/><polygon class="cls-11" points="99.28 129.18 96.4 124.19 93.52 129.18 90.64 134.16 93.52 139.15 96.4 144.13 99.28 139.15 102.16 134.16 99.28 129.18"/></g></g></svg>