<svg xmlns="http://www.w3.org/2000/svg" viewBox="0 0 145.36 145.95"><defs><style>.cls-1{fill:#8967ac;}.cls-2{fill:#e1bf9c;}.cls-3{fill:#f2d1ac;}.cls-4,.cls-6{fill:#c09a80;}.cls-4{opacity:0.7;}.cls-5{fill:#d3a789;}.cls-7{fill:#e0b89b;}.cls-8{fill:#2c0f0f;opacity:0.3;}.cls-9{fill:#636464;}.cls-10{fill:#473325;}.cls-11{fill:#915130;}</style></defs><title>Asset 166</title><g id="Layer_2" data-name="Layer 2"><g id="Layer_1-2" data-name="Layer 1"><rect class="cls-1" width="145.36" height="145.95"/><path class="cls-2" d="M72.23,91.52V146H42.64l-.72-.31a51.91,51.91,0,0,1,1.62-13.55c.2-.73.41-1.43.64-2.12,2.63-7.8,7.07-11.76,10.58-13.76a.1.1,0,0,0,.08,0,.06.06,0,0,1,0,0A15.88,15.88,0,0,1,60,114.26c1.8,0,3-2.32,3.73-5.85a16.07,16.07,0,0,0,.32-1.7c.16-1,.31-2,.41-3.15.06-.66.12-1.33.19-2,.27-3.34.35-7,.35-10.42C65,91.13,69,91.52,72.23,91.52Z"/><path class="cls-3" d="M102.65,145.64s-.27.1-.71.31H72.23V91.52h.06c3.22,0,7.22-.39,7.22-.39,0,3.42.09,7,.35,10.33.07.67.13,1.33.19,2,.13,1.13.25,2.21.42,3.23v0c.06.46.15.87.22,1.29.77,3.75,2,6.28,3.84,6.28A16.69,16.69,0,0,1,91.05,117C96.24,120.47,102.65,128.27,102.65,145.64Z"/><path class="cls-4" d="M80.47,106.67v0a9.56,9.56,0,0,1-8.2,4.46h0a10.29,10.29,0,0,1-8.15-4.44c.16-1,.31-2,.41-3.15q.09-1,.18-2a32.6,32.6,0,0,0,7.48,1h.08a30.23,30.23,0,0,0,7.63-1.06c.07.67.13,1.33.19,2C80.18,104.58,80.3,105.65,80.47,106.67Z"/><path class="cls-5" d="M72.31,29.1C41,29.1,40.8,55.34,42.19,72.51c-2.15-4.07-8.51-2.81-8,3.6.5,6.18,9.49,9.37,9.36,8.65,2.57,14.13,17.32,22.29,28.75,22.29h.24V29.11Z"/><path class="cls-6" d="M36.21,73.4a3,3,0,0,1,4.52-.86,2.56,2.56,0,0,1,.73,2.84c-.22.82-1.08.88-.87,2.14a2.18,2.18,0,0,0,1.25,1.81,2.93,2.93,0,0,1,1.06,1.16A3.11,3.11,0,0,1,43,82.26c-.24,1-1.72.21-2.7-.24a19,19,0,0,1-3.24-2.64C35.78,77.9,35.17,75,36.21,73.4Z"/><path class="cls-7" d="M72.47,29.1c31.34,0,31.52,26.24,30.12,43.41,2.16-4.07,8.51-2.81,8,3.6-.5,6.18-9.48,9.37-9.36,8.65-2.57,14.13-17.31,22.29-28.75,22.29h-.24V29.11Z"/><path class="cls-6" d="M108.58,73.4a3,3,0,0,0-4.53-.86,2.59,2.59,0,0,0-.73,2.84c.22.82,1.09.88.88,2.14a2.19,2.19,0,0,1-1.26,1.81,2.93,2.93,0,0,0-1.06,1.16,3.11,3.11,0,0,0-.13,1.77c.23,1,1.71.21,2.69-.24a18.7,18.7,0,0,0,3.25-2.64C109,77.9,109.62,75,108.58,73.4Z"/><path class="cls-2" d="M72,36.5c-10.31,0-17.86,3-22.43,8.91-6.37,8.25-6.13,20.86-3.78,29.91.72,2.77,1.09,10.23,1.59,13,2.22,12.24,15.73,18.76,24.62,18.76h.24V36.51Z"/><path class="cls-3" d="M94.43,45.42c-4.54-5.87-12-8.87-22.15-8.91V107c10.16-.11,22.3-7.25,24.39-18.75.49-2.74.86-10.2,1.58-13C100.6,66.3,100.83,53.7,94.43,45.42Z"/><path class="cls-8" d="M102.64,71.82a6.87,6.87,0,0,0-1.8,2.62c-1,2.53-1.35,2.09-1.35,2.09S101,66.63,101,63.88,92.25,40.76,87.35,39.12,78,43,72.76,43h-.41c-5.17-.1-9.75-5.45-14.59-3.86s-13.67,22-13.67,24.76,1.54,12.65,1.54,12.65-.38.44-1.35-2.09a6.88,6.88,0,0,0-2.16-2.91C40.81,54.37,41.56,29.1,72.31,29.1h.16C103.39,29.1,104,54.67,102.64,71.82Z"/><path class="cls-9" d="M102.65,83.71a.65.65,0,1,1-.65-.65A.65.65,0,0,1,102.65,83.71Z"/><path class="cls-9" d="M104.1,83.11a.36.36,0,0,1-.35.36.36.36,0,1,1,0-.72A.36.36,0,0,1,104.1,83.11Z"/><path class="cls-9" d="M105.39,82.39A.36.36,0,1,1,105,82,.36.36,0,0,1,105.39,82.39Z"/><path class="cls-9" d="M92.5,57.21a1.08,1.08,0,0,1-2.15,0,1.08,1.08,0,1,1,2.15,0Z"/><path class="cls-9" d="M91.79,60.64a1.08,1.08,0,1,1-1.08-1.07A1.08,1.08,0,0,1,91.79,60.64Z"/><path class="cls-10" d="M53.36,121.05c2.33,1,10.82,5.34,18.87,5.1,16.79-.51,19.54-6.66,19.54-6.66s.7,12.21-2.55,14.15-11.37,6.9-16.93,6.37-14.14-3.77-14.66-5.72S53.36,121.05,53.36,121.05Z"/><path class="cls-10" d="M89.28,32.86c-3.65-2.15-4.36-3.76-9-5.75s-8-16.5-8-16.5-3.33,14.5-8,16.5-5.4,3.6-9,5.75c-1.15.68-1.39,4.74,3.51,6.26,5.06,1.55,8.58,4,12.2,6.28a3.6,3.6,0,0,0,1.28.45h0a3.6,3.6,0,0,0,1.28-.45c3.62-2.28,7.14-4.73,12.2-6.28C90.66,37.6,90.43,33.54,89.28,32.86Z"/><path class="cls-11" d="M101.17,132.09c-.2-.73-.41-1.43-.65-2.12-2.66-7.8-7.14-11.76-10.68-13.76a.12.12,0,0,1-.09,0,.06.06,0,0,0,0,0c-.32.73-3.44,8.14-9,12.7-5.39,4.36-8.24,5.79-8.47,5.89-.23-.1-3.08-1.53-8.47-5.89-5.61-4.56-8.74-12-9-12.7l-.05,0s-.06,0-.08,0c-3.54,2-8,6-10.69,13.76-.23.69-.44,1.39-.64,2.12a51.41,51.41,0,0,0-1.64,13.55l.73.31h59.78l.73-.31A51.41,51.41,0,0,0,101.17,132.09Z"/></g></g></svg>