<svg xmlns="http://www.w3.org/2000/svg" viewBox="0 0 145.36 146.24"><defs><style>.cls-1{fill:#8ebeb4;}.cls-2{fill:#e1bf9c;}.cls-3{fill:#f2d1ac;}.cls-4,.cls-6{fill:#c09a80;}.cls-4{opacity:0.7;}.cls-5{fill:#d3a789;}.cls-7{fill:#e0b89b;}.cls-8{fill:#0f0f0f;}.cls-9{fill:#be1e2d;}</style></defs><title>Asset 202</title><g id="Layer_2" data-name="Layer 2"><g id="Layer_1-2" data-name="Layer 1"><rect class="cls-1" width="145.36" height="145.95"/><path class="cls-2" d="M75.72,89.24v57h-31l-.76-.33C44,115.33,63,113,63,113c1.89,0,3.1-2.43,3.91-6.12.13-.57.24-1.15.33-1.79.17-1,.32-2.14.43-3.29.06-.7.13-1.39.19-2.11.29-3.5.37-7.3.37-10.91C68.18,88.82,72.35,89.24,75.72,89.24Z"/><path class="cls-3" d="M107.57,145.89s-.28.11-.74.33H75.72v-57h.07c3.36,0,7.56-.42,7.56-.42,0,3.59.08,7.35.36,10.82.07.7.14,1.39.2,2.06.13,1.2.26,2.33.43,3.39v0c.07.47.16.91.24,1.34.81,3.93,2.07,6.58,4,6.58C88.6,113,107.57,115.33,107.57,145.89Z"/><path class="cls-4" d="M84.34,105.09v0a10,10,0,0,1-8.58,4.67h0a10.78,10.78,0,0,1-8.53-4.66c.17-1,.32-2.14.43-3.29.06-.7.13-1.39.19-2.11a33.76,33.76,0,0,0,7.82,1h.09a31.59,31.59,0,0,0,8-1.11c.07.7.14,1.39.2,2.06C84,102.9,84.17,104,84.34,105.09Z"/><path class="cls-5" d="M75.81,23.88c-32.82,0-33,27.47-31.54,45.45-2.25-4.26-8.91-3-8.37,3.76.53,6.47,9.94,9.82,9.81,9.06,2.69,14.8,18.13,23.34,30.1,23.34h.25V23.88Z"/><path class="cls-6" d="M38,70.26a3.11,3.11,0,0,1,4.74-.91,2.73,2.73,0,0,1,.77,3c-.23.86-1.14.93-.91,2.24a2.29,2.29,0,0,0,1.31,1.9A3,3,0,0,1,45,77.69a3.19,3.19,0,0,1,.15,1.84c-.25,1.07-1.8.22-2.83-.24a20.87,20.87,0,0,1-3.4-2.76C37.55,75,36.92,72,38,70.26Z"/><path class="cls-7" d="M76,23.88c32.82,0,33,27.47,31.55,45.45,2.24-4.26,8.91-3,8.36,3.76-.53,6.47-9.94,9.82-9.81,9.06C103.38,97,88,105.49,76,105.49h-.25V23.88Z"/><path class="cls-6" d="M113.78,70.26a3.11,3.11,0,0,0-4.74-.91,2.73,2.73,0,0,0-.76,3c.22.86,1.13.93.91,2.24a2.29,2.29,0,0,1-1.31,1.9,3,3,0,0,0-1.11,1.22,3.27,3.27,0,0,0-.15,1.84c.25,1.07,1.8.22,2.83-.24a20.45,20.45,0,0,0,3.4-2.76C114.23,75,114.86,72,113.78,70.26Z"/><path class="cls-2" d="M75.53,31.62c-10.8,0-18.7,3.14-23.49,9.33-6.68,8.64-6.42,21.85-4,31.32.75,2.9,1.14,10.71,1.66,13.58,2.33,12.82,16.47,19.64,25.79,19.64h.25V31.63Z"/><path class="cls-3" d="M99,41c-4.75-6.15-12.56-9.28-23.18-9.33v73.85c10.63-.12,23.34-7.59,25.53-19.63.52-2.87.9-10.68,1.65-13.58C105.42,62.82,105.66,49.63,99,41Z"/><path class="cls-8" d="M46,74.53c-.66,0,0-3.5-2.15-5.91S38.29,58.09,38.29,50s2.85-15.31,10.3-23S67,15.63,67,15.63l-5,4.59s2.72-3.73,12.47-6.71c7.69-2.35,12.67.27,12.67.27s-5.07-.18-6.61,2a8.33,8.33,0,0,1-1.81,1.41S81,11.93,92,16.32,102.72,28.54,110.33,31c7.8,2.47,10.06-.69,10.06-.69S117,35.81,111,35.82a6.38,6.38,0,0,1-1.08,0,50.75,50.75,0,0,1,2.69,10.39c.44,4.53-.94,7.63-1.36,16.11-.37,7.24-2.34,3.53-4.7,8.87a11.26,11.26,0,0,0-.83,3.8c-.87.22-3.16-4.34-1.52-12.27,1.08-5.14-4.22-24.63-17-20.83-7.81,2.32-9.78,7.06-15.61,2.85-5-3.62-12.07-5.71-17.33-2.84S46.06,51.2,47,61.48C48.15,74.62,46,74.53,46,74.53Z"/><path class="cls-9" d="M107.57,145.89a7.77,7.77,0,0,0-.73.35H44.75l-.76-.35c0-22.68,10.12-30,15.57-32.32a14.33,14.33,0,0,1,3.09-1c4.54.44,13,3.91,13,3.91A14.37,14.37,0,0,0,84.35,113c.2-.2,4,.69,4.15.52a11.93,11.93,0,0,0,.91-.87h0a15.44,15.44,0,0,1,2.37.76s0,0,0,0l.54.24a21.14,21.14,0,0,1,3.74,2.24c.19.13.36.26.54.41C101.84,120.42,107.57,128.82,107.57,145.89Z"/><path d="M102,122.11a21.94,21.94,0,0,0-9.86-8.54L76,140.9l-.17.3-.18-.3-16.1-27.33a22,22,0,0,0-9.86,8.54,13,13,0,0,1,2.57,5.23c2,7.32.86,16.26.45,18.9H99c-.41-2.64-1.59-11.58.45-18.9A13.18,13.18,0,0,1,102,122.11Z"/></g></g></svg>