<svg xmlns="http://www.w3.org/2000/svg" viewBox="0 0 145.36 146.06"><defs><style>.cls-1{fill:#5c4c52;}.cls-2{fill:#e1bf9c;}.cls-3{fill:#f2d1ac;}.cls-4,.cls-6{fill:#c09a80;}.cls-4{opacity:0.7;}.cls-5{fill:#d3a789;}.cls-7{fill:#e0b89b;}.cls-8{fill:#3b1214;}.cls-9{fill:#710f11;}.cls-10{fill:#f7f7f7;}.cls-11{fill:#262525;}.cls-12{fill:#0b0b0b;}.cls-13{fill:#e6e8e7;}</style></defs><title>Asset 187</title><g id="Layer_2" data-name="Layer 2"><g id="Layer_1-2" data-name="Layer 1"><rect class="cls-1" width="145.36" height="145.95"/><path d="M81.65,75.52c-4.64,0-8.87,2.57-12.13,6.82-3.41-5.46-8.21-8.89-13.55-8.89-10.32,0-18.68,12.71-18.68,28.38S45.65,130.21,56,130.21c4.63,0,8.86-2.58,12.13-6.83,3.4,5.47,8.2,8.89,13.55,8.89,10.31,0,18.67-12.7,18.67-28.38S92,75.52,81.65,75.52Z"/><path class="cls-2" d="M69.39,91.5v54.42H39.8l-.72-.31c0-29.19,18.11-31.37,18.11-31.37h.15a3,3,0,0,0,.39-.08c1.49-.42,2.51-2.62,3.19-5.77a6.63,6.63,0,0,0,.15-.75c.06-.31.13-.62.17-1,.17-1,.31-2.05.41-3.15.07-.66.13-1.32.19-2,.27-3.34.35-7,.35-10.42C62.19,91.1,66.17,91.5,69.39,91.5Z"/><path class="cls-3" d="M99.81,145.61s-.27.1-.71.31H69.39V91.5h.06c3.22,0,7.22-.4,7.22-.4,0,3.43.09,7,.36,10.34.06.66.12,1.33.18,2,.13,1.14.25,2.22.42,3.23v0a6.12,6.12,0,0,0,.1.64c0,.21.09.44.13.64.62,3,1.53,5.29,2.86,6a2,2,0,0,0,.31.12,1.7,1.7,0,0,0,.67.13S99.81,116.42,99.81,145.61Z"/><path class="cls-4" d="M77.62,106.65v0a9.58,9.58,0,0,1-8.2,4.46h0a10.29,10.29,0,0,1-8.15-4.44c.16-1,.31-2.06.41-3.15.06-.67.13-1.33.19-2a33,33,0,0,0,7.47,1h.08A31.31,31.31,0,0,0,77,101.44c.06.66.12,1.33.18,2C77.33,104.55,77.45,105.63,77.62,106.65Z"/><path class="cls-5" d="M69.36,33C38.48,33,38.3,57.77,39.67,74c-2.12-3.8-8.38-2.39-7.86,3.69.49,5.82,9.34,8.47,9.22,7.82C43.55,98.65,58.11,106,69.36,107h.24V33Z"/><path class="cls-6" d="M33.36,75.07a3.06,3.06,0,0,1,4.52-.82A2.39,2.39,0,0,1,38.62,77c-.22.77-1.09.84-.87,2A2.11,2.11,0,0,0,39,80.71a2.88,2.88,0,0,1,1.06,1.1,2.8,2.8,0,0,1,.13,1.68c-.24,1-1.71.19-2.7-.23a18.59,18.59,0,0,1-3.24-2.5C32.93,79.35,32.32,76.63,33.36,75.07Z"/><path class="cls-7" d="M69.51,33C100.39,33,100.57,57.77,99.2,74c2.12-3.8,8.38-2.39,7.87,3.69-.5,5.82-9.35,8.47-9.22,7.82C95.32,98.65,80.77,106,69.51,107h-.23V33Z"/><path class="cls-6" d="M105.74,75.07a3.07,3.07,0,0,0-4.53-.82,2.39,2.39,0,0,0-.74,2.71c.22.77,1.09.84.88,2a2.09,2.09,0,0,1-1.26,1.73,2.41,2.41,0,0,0-1.19,2.78c.24,1,1.71.19,2.7-.23a18.59,18.59,0,0,0,3.24-2.5C106.16,79.35,106.77,76.63,105.74,75.07Z"/><path class="cls-2" d="M69.2,40c-10.32,0-17.86,2.84-22.44,8.45C40.39,56.33,40.63,68.31,43,76.9c.71,2.63,1.08,9.71,1.58,12.31C46.79,100.84,60.3,107,69.2,107h.23V40Z"/><path class="cls-3" d="M91.58,48.5C87,42.93,79.58,40.09,69.43,40v67c10.16-.11,22.3-6.89,24.39-17.81.49-2.6.86-9.68,1.58-12.31C97.75,68.32,98,56.37,91.58,48.5Z"/><path class="cls-8" d="M74.63,96.52S72.3,99,69.42,99a7.77,7.77,0,0,1-5.07-2.44,33.94,33.94,0,0,1,5.07-.37A42.71,42.71,0,0,1,74.63,96.52Z"/><path class="cls-9" d="M70.9,95.37a1.35,1.35,0,0,0-1.48,1.13A1.34,1.34,0,0,0,68,95.37a20.86,20.86,0,0,0-3.73,1.15s2.84.3,3.66.3,1.53.32,1.54-.28c0,.6.6.37,1.41.37s3.8-.39,3.8-.39A20.86,20.86,0,0,0,70.9,95.37Z"/><path d="M107.5,70C104.76,22.77,73,22.45,72.5,22.45a43.81,43.81,0,0,0-5,0c-49.54,7.39-35.95,89.23-34.64,96.61,2.88,16.18,14.74,26.05,14.74,26.05s-5.25-6.76-1.4-14.53a3.6,3.6,0,0,0,.32-1.21,45,45,0,0,0,7.74,6S45.81,121.5,44.32,97.2C43.53,84.35,45.15,75,48,68.14h1.49l.43-3.9,0,0,.44,3.94H52L52.9,60l.48-.56,1,8.71H63l.45-4,.45,4h3.2l.31-2.71.3,2.71H79.07L80,60.31l.88,7.83h2.82L84,65l.36,3.15h7.48l.76-6.77.76,6.77h.53c1,5.32,2.06,12.17,1.83,14.31a102.14,102.14,0,0,1-2.94,15.34c-.31.57-2.25,11.81-2.31,13.63A43.82,43.82,0,0,1,84.84,132s3.26-2.22,5.89-7.77h0c.56,3.9,2.3,9.74,2.66,11.68.79,4.11-2.61,10.12-2.61,10.12a15.71,15.71,0,0,0,4.28-6,30.56,30.56,0,0,0,1.72-4.86,15.24,15.24,0,0,0,.19,1.7,46.81,46.81,0,0,1,.8,6.68S110.31,118.66,107.5,70Z"/><path d="M93.91,29.62c1-7.12,2.77-7.16,7.76-7.16,3.31,0,12.4,2.88,14.83,5.1,1.08,1,2.22,2,3.41,3A22.28,22.28,0,0,0,121.7,32a20.89,20.89,0,0,0,1.78,1.35c.58.47,1.2.74,1.74,1.15.61.21,1.12.63,1.68.77a7,7,0,0,0,1.53.41c.49,0,.88.22,1.27.11l1.21-.07s-.52.41-1.46,1.07a6.63,6.63,0,0,1-1.6.79,5.87,5.87,0,0,1-1.95.47,8.38,8.38,0,0,1-2.11-.09c-.42-.14-.88-.26-1.33-.41a27.65,27.65,0,0,1,3,3.84,28.77,28.77,0,0,1,2.22,4.65A35.7,35.7,0,0,1,129.19,52a49.1,49.1,0,0,1,.45,7.12,62.71,62.71,0,0,1-.43,7.58c-2.17,14.38-8.05,12.23-8.05,12.23s4.41-.49,5-9.35c.1-1.65,0-7.55-.19-5.2-2.21,20-8.26,29.3-8.26,29.3a42.4,42.4,0,0,0,1.86-7.44c.18-2.63,1.08-3.56-1-11.93-.44-1.77,1.62-9.86,1.5-7.94-1.41,22.18-9,34.67-9,34.67s1.68-2.47,1.59-9.55c-.13-9.66-2.08-6.7-2.08-19,0-6.56,1.69-10.87-1-18.88-.59-1.44-1.21-2.82-1.84-4.12a17.79,17.79,0,0,0-2.15-3.25,16.2,16.2,0,0,0-2.28-2.42c-.68-.5-1.3-.92-1.92-1.32-.13,0-.26.06-.38.06a6.14,6.14,0,0,1-4.54-2,1,1,0,0,1-.71-.91A13.74,13.74,0,0,1,93.91,29.62Z"/><path d="M45.85,29.62c-1-7.12-2.77-7.16-7.76-7.16-3.32,0-10.64,1.53-14.83,5.1-1.13,1-2.22,2-3.42,3A22.15,22.15,0,0,1,18.06,32a19.52,19.52,0,0,1-1.79,1.35c-.57.47-1.19.74-1.73,1.15-.62.21-1.12.63-1.68.77a7,7,0,0,1-1.53.41c-.49,0-.88.22-1.27.11l-1.21-.07s.52.41,1.46,1.07a6.63,6.63,0,0,0,1.6.79,5.81,5.81,0,0,0,1.94.47A8.44,8.44,0,0,0,16,38c.42-.14.87-.26,1.33-.41a27.69,27.69,0,0,0-3.05,3.84A28,28,0,0,0,12,46.08,34.74,34.74,0,0,0,10.57,52a50.52,50.52,0,0,0-.46,7.12,67.07,67.07,0,0,0,.43,7.58c2.17,14.38,8.05,12.23,8.05,12.23s-4.41-.49-5-9.35c-.11-1.65,0-7.55.19-5.2,2.21,20,8.26,29.3,8.26,29.3a41.47,41.47,0,0,1-1.86-7.44c-.18-2.63-1.08-3.56,1-11.93.44-1.77-1.62-9.86-1.49-7.94,1.41,22.18,9,34.67,9,34.67S27,98.56,27.06,91.48c.13-9.66,2.08-6.7,2.08-19,0-6.56-1.69-10.87,1-18.88.59-1.44,1.21-2.82,1.84-4.12a18.3,18.3,0,0,1,2.14-3.25,16.73,16.73,0,0,1,2.28-2.42c.68-.5,1.31-.92,1.93-1.32.13,0,.25.06.38.06a6.16,6.16,0,0,0,4.54-2,1,1,0,0,0,.71-.91A13.74,13.74,0,0,0,45.85,29.62Z"/><path class="cls-10" d="M99.87,145.66a4.45,4.45,0,0,0-.71.31H39.86a7.09,7.09,0,0,0-.72-.31,47.25,47.25,0,0,1,2.51-16.35c6.66-4.59,20.39-4.52,27.8,2.86,0,0,11.45-9.42,23.09-4.46a17.05,17.05,0,0,1,5.52,3.71A50.74,50.74,0,0,1,99.87,145.66Z"/><path class="cls-11" d="M100.21,145.61s-.27.1-.71.31H39.81l-.73-.31c0-29.57,18.23-31.78,18.23-31.78h.15c.12,0,.77.15.89.11,1.5-.42-1.64-.74-2.4,5.15-.65,4.93,2.78,9.35-.44,11,1,1.14,9.07,8.12,11.86,8h4.18c2.82.11,11.18-7,12.14-8.3-3.24-1.6.59-6.1-.46-11s-2.14-4.91-2-4.89.55-.07.78-.07C82,113.83,100.21,116,100.21,145.61Z"/><path class="cls-12" d="M81.23,113.69c-.75,1.27-2.43,2.55-6.06,3a54.61,54.61,0,0,1-5.71.35c-7.24,0-10.29-1.76-11.49-3.36,1.3-.5,2.22-2.37,2.86-5a7,7,0,0,0,.17-.69c0-.12.06-.25.08-.37.33.64,1.31,1.7,4.11,2.09h0a32.88,32.88,0,0,0,4.23.31,16,16,0,0,0,5.31-.76l0,0c2.36-.87,2.9-2.14,2.9-2.14l.15.11.06.35c.62,3.05,1.53,5.29,2.86,6a2,2,0,0,0,.31.12Z"/><path class="cls-8" d="M68.66,114.62a9.46,9.46,0,0,1-2.18,7.44c-3,3.21-3,3.49-3,3.49s1.52-1.23,2.29-.64a2.68,2.68,0,0,1,.91,1.54,11.58,11.58,0,0,0,2.6-6.89A29.91,29.91,0,0,0,68.66,114.62Z"/><path class="cls-8" d="M70.21,115.49a9.47,9.47,0,0,0,2.18,7.44c3,3.2,3,3.48,3,3.48s-1.52-1.23-2.28-.63a2.66,2.66,0,0,0-.92,1.54,11.6,11.6,0,0,1-2.59-6.89A30.19,30.19,0,0,1,70.21,115.49Z"/><path class="cls-8" d="M70.72,116.07a1.45,1.45,0,1,1-1.44-1.45A1.44,1.44,0,0,1,70.72,116.07Z"/><path class="cls-8" d="M62.22,116.07s-.89-3.57,0-4.08,7.06,3.06,7.06,4.08-6.18,4.58-7.06,4.08S62.22,116.07,62.22,116.07Z"/><path class="cls-8" d="M76.33,116.07s.89-3.57,0-4.08-7,3.06-7,4.08,6.17,4.58,7,4.08S76.33,116.07,76.33,116.07Z"/><path class="cls-13" d="M40.1,138.46l.5-.77c-.05.05-.75-.68-.74-.7l-.56.73.38.4A1.61,1.61,0,0,0,40.1,138.46Z"/><path class="cls-13" d="M41.54,139.26l.37-.84S41,138,41,138l-.46.79S41.54,139.26,41.54,139.26Z"/><polygon class="cls-13" points="43.08 139.83 43.34 138.95 42.37 138.61 42.04 139.47 43.08 139.83"/><polygon class="cls-13" points="44.65 140.23 44.83 139.32 43.83 139.07 43.59 139.97 44.65 140.23"/><polygon class="cls-13" points="46.26 140.45 46.34 139.54 45.33 139.39 45.18 140.3 46.26 140.45"/><polygon class="cls-13" points="47.88 140.53 47.88 139.61 46.85 139.57 46.79 140.49 47.88 140.53"/><polygon class="cls-13" points="49.5 140.45 49.41 139.53 48.38 139.6 48.41 140.52 49.5 140.45"/><path class="cls-13" d="M40.79,143.34A9,9,0,0,1,40.3,142a.64.64,0,0,0,0-.07c.22.41.54.81,1,.81l.18,0a.78.78,0,0,0,.59-.49c.27-.69-.31-2-1.77-4.09l-.26-.45-.13-.24-.25.21-.21.18-.34.25c-3.11,2.07-4.62,3.6-4.63,4.66a1.06,1.06,0,0,0,.51.89,1,1,0,0,0,.59.18h0a3.09,3.09,0,0,0,1.94-1.25,13.49,13.49,0,0,0,2-3.53c0,.15-.05.3-.07.48a16.13,16.13,0,0,1-.83,2.66,13.26,13.26,0,0,1-1.25,2.48,1.92,1.92,0,0,1-.67.59l-.34.08h.36a1.76,1.76,0,0,0,.86-.48A8.18,8.18,0,0,0,39,142.36a12.13,12.13,0,0,0,.46-1.49,1.76,1.76,0,0,0,.06-.4,11,11,0,0,0,.25,1.65,8.63,8.63,0,0,0,.59,1.42,5.59,5.59,0,0,0,.74,1.09,3.78,3.78,0,0,0,.69.64l.26.23s-.32-.41-.71-1A7.75,7.75,0,0,1,40.79,143.34Zm-3.69-1.11c-.25.3-1.27,1.35-1.84,1a.53.53,0,0,1-.28-.46c0-.47.54-1.61,4-4A13.22,13.22,0,0,1,37.1,142.23Zm4.47-.19a.29.29,0,0,1-.22.17c-.31.09-.63-.46-.81-1a7.88,7.88,0,0,1-.34-2.29C41.66,141.1,41.65,141.82,41.57,142Zm-1.93-3.45v0s0,.08,0,.12,0,0,0-.05S39.63,138.61,39.64,138.59Z"/><path class="cls-13" d="M98.84,138.65l-.5-.78c0,.06.75-.68.74-.7l.56.74-.37.4A2.22,2.22,0,0,1,98.84,138.65Z"/><path class="cls-13" d="M97.4,139.45l-.37-.84s.91-.43.9-.46l.46.8S97.4,139.45,97.4,139.45Z"/><polygon class="cls-13" points="95.87 140.02 95.6 139.13 96.57 138.79 96.9 139.65 95.87 140.02"/><polygon class="cls-13" points="94.29 140.4 94.12 139.5 95.12 139.26 95.35 140.15 94.29 140.4"/><polygon class="cls-13" points="92.69 140.64 92.59 139.72 93.62 139.58 93.77 140.48 92.69 140.64"/><polygon class="cls-13" points="91.07 140.72 91.06 139.79 92.09 139.75 92.15 140.67 91.07 140.72"/><polygon class="cls-13" points="89.45 140.63 89.54 139.71 90.56 139.79 90.53 140.71 89.45 140.63"/><path class="cls-13" d="M97.57,144.64a10.94,10.94,0,0,1-.71,1l.27-.22a5.26,5.26,0,0,0,.68-.64,6.19,6.19,0,0,0,.75-1.1,8.49,8.49,0,0,0,.58-1.41,11.2,11.2,0,0,0,.25-1.65c0,.13,0,.26.06.4a11.11,11.11,0,0,0,.47,1.49,7.92,7.92,0,0,0,1.51,2.48,1.61,1.61,0,0,0,.86.48h.37l-.35-.09a1.69,1.69,0,0,1-.66-.58,12.52,12.52,0,0,1-1.25-2.49,14,14,0,0,1-.83-2.66c0-.17-.06-.33-.08-.47a13.6,13.6,0,0,0,2,3.52,3.09,3.09,0,0,0,1.94,1.25h0a1.13,1.13,0,0,0,.6-.17,1.07,1.07,0,0,0,.5-.9c0-1.06-1.52-2.59-4.63-4.65l-.33-.25-.22-.18-.24-.21-.14.24-.26.44c-1.45,2.07-2,3.4-1.77,4.1a.8.8,0,0,0,.59.49h.18c.46,0,.78-.4,1-.8a.21.21,0,0,1,0,.06,7.68,7.68,0,0,1-.49,1.35A7.26,7.26,0,0,1,97.57,144.64ZM99.94,139c3.48,2.37,4,3.5,4,4a.55.55,0,0,1-.28.47c-.57.38-1.59-.68-1.84-1A13.35,13.35,0,0,1,99.94,139Zm-1.2.16a7.6,7.6,0,0,1-.33,2.29c-.19.53-.51,1.09-.81,1a.26.26,0,0,1-.23-.17C97.29,142,97.28,141.28,98.74,139.11Zm.58-.3v.06l0-.12,0,0Z"/></g></g></svg>