<svg xmlns="http://www.w3.org/2000/svg" viewBox="0 0 145.36 145.95"><defs><style>.cls-1{fill:#abc88d;}.cls-2{fill:#e1bf9c;}.cls-3{fill:#f2d1ac;}.cls-4,.cls-6{fill:#c09a80;}.cls-4{opacity:0.7;}.cls-5{fill:#d3a789;}.cls-7{fill:#e0b89b;}.cls-8{fill:#c6696e;}.cls-9{fill:#d87373;}.cls-10{fill:#ecbf1d;}.cls-11{fill:#432612;}.cls-12{fill:#372012;}.cls-13{fill:#351f13;}.cls-14{fill:#f9f9fa;}.cls-15{fill:#151515;}</style></defs><title>Asset 189</title><g id="Layer_2" data-name="Layer 2"><g id="Layer_1-2" data-name="Layer 1"><rect class="cls-1" width="145.36" height="145.95"/><path class="cls-2" d="M73.05,90.91v54.43H43.46l-.72-.31c0-19.88,8.4-27.22,13.76-29.9a14.67,14.67,0,0,1,4.35-1.47H61a1.7,1.7,0,0,0,.39-.09c1.5-.41,2.51-2.61,3.2-5.77.12-.53.22-1.09.31-1.7.16-1,.31-2,.41-3.15.06-.66.13-1.33.19-2,.27-3.34.35-7,.35-10.42C65.85,90.52,69.84,90.91,73.05,90.91Z"/><path class="cls-3" d="M103.47,145s-.27.1-.71.31H73.05V90.91h.07c3.21,0,7.22-.39,7.22-.39,0,3.43.08,7,.35,10.33.06.67.12,1.33.19,2,.12,1.14.24,2.23.41,3.24v0c.06.46.15.87.23,1.29.62,3,1.53,5.29,2.86,6a2.45,2.45,0,0,0,.31.12,1.7,1.7,0,0,0,.67.13,13.25,13.25,0,0,1,3.56,1.09C94.22,117.1,103.47,124.15,103.47,145Z"/><path class="cls-4" d="M81.29,106.07v0a9.58,9.58,0,0,1-8.2,4.46h0a10.32,10.32,0,0,1-8.15-4.44c.16-1,.31-2.06.41-3.16.06-.66.13-1.33.19-2a32.42,32.42,0,0,0,7.46,1h.09a30.84,30.84,0,0,0,7.64-1.06c.06.66.12,1.33.18,2C81,104,81.12,105.05,81.29,106.07Z"/><path class="cls-5" d="M73,32.43C42.15,32.38,42,57.19,43.34,73.37,41.22,69.57,35,71,35.47,77.06c.5,5.83,9.35,8.46,9.23,7.82C47.22,98.07,61.78,105.39,73,106.43h.24v-74Z"/><path class="cls-6" d="M37,74.49a3.06,3.06,0,0,1,4.53-.81,2.38,2.38,0,0,1,.74,2.69c-.23.78-1.09.84-.88,2a2.13,2.13,0,0,0,1.26,1.73,2.41,2.41,0,0,1,1.19,2.78c-.24,1-1.71.19-2.7-.23a18.59,18.59,0,0,1-3.24-2.5C36.6,78.77,36,76.06,37,74.49Z"/><path class="cls-7" d="M73.18,32.43c30.88,0,31.06,24.76,29.69,40.94,2.11-3.8,8.38-2.39,7.86,3.69-.49,5.83-9.34,8.46-9.21,7.82C99,98.07,84.43,105.39,73.18,106.43h-.24v-74Z"/><path class="cls-6" d="M109.4,74.49a3.06,3.06,0,0,0-4.53-.81,2.38,2.38,0,0,0-.73,2.69c.22.78,1.09.84.88,2a2.13,2.13,0,0,1-1.26,1.73,2.4,2.4,0,0,0-1.2,2.78c.24,1,1.72.19,2.71-.23a18.59,18.59,0,0,0,3.24-2.5C109.83,78.77,110.44,76.06,109.4,74.49Z"/><path class="cls-2" d="M72.87,39.45c-10.32,0-17.87,2.85-22.44,8.46-6.38,7.84-6.13,19.81-3.78,28.41C47.37,79,47.74,86,48.24,88.63c2.22,11.62,15.73,17.82,24.63,17.82h.23v-67Z"/><path class="cls-3" d="M95.24,47.93c-4.53-5.58-12-8.42-22.14-8.47v67c10.16-.11,22.3-6.89,24.39-17.81C98,86,98.35,79,99.07,76.32,101.42,67.75,101.65,55.79,95.24,47.93Z"/><path class="cls-8" d="M78.29,95.94s-2.33,2.49-5.2,2.49A7.77,7.77,0,0,1,68,96a33.94,33.94,0,0,1,5.07-.37A42.64,42.64,0,0,1,78.29,95.94Z"/><path class="cls-9" d="M74.57,94.79a1.35,1.35,0,0,0-1.48,1.13,1.34,1.34,0,0,0-1.47-1.13,20.86,20.86,0,0,0-3.73,1.15s2.84.3,3.65.3,1.53.32,1.55-.29c0,.61.6.38,1.41.38s3.79-.39,3.79-.39A20.7,20.7,0,0,0,74.57,94.79Z"/><path class="cls-10" d="M54.55,99.49c-.4,6.63-4.49,11.86-9.43,11.86-5.2,0-9.44-5.79-9.44-12.92s4.07-12.68,9.15-12.89c-.06-.2-.47-2-.52-2.17a1.85,1.85,0,0,1-2.59.76C37,86,33.61,91.7,33.61,98.43c0,8.28,5.16,15,11.51,15,5.75,0,10.52-5.48,11.4-12.66A17.5,17.5,0,0,1,54.55,99.49Z"/><path class="cls-10" d="M104.74,84c-1.77.83-3.22,1.12-3.22.89a4.58,4.58,0,0,1-.15.64,1.46,1.46,0,0,1,.29,0c5.23,0,9.47,5.79,9.47,12.91s-4.24,12.92-9.47,12.92c-5.06,0-9.19-5.46-9.41-12.3-.65.49-1.31,1-2,1.39.74,7.32,5.55,13,11.38,13,6.38,0,11.54-6.72,11.54-15C113.2,91.54,109.61,85.73,104.74,84Z"/><path class="cls-11" d="M64.07,31.42c-1.86-1.55.13,11.72.68,17.8,2.17,24,14.36,27.18,14.36,27.18s-5.25-3.1-5.49-13.58c-.09-3.92.24-9.21.24-9.21s3.55,7.13,5.84,12.58a40.53,40.53,0,0,1,2.5,12.32S84.94,62,79.94,57c-1.69-1.71-7.61-9.48-7.61-9.48S85.76,65.24,87.9,71.15a35.06,35.06,0,0,1,2,11.33s2.26-9.94-.6-19a40.49,40.49,0,0,0-9.54-15.36S90.17,62.73,92.33,70.53c4.51,16.23-3.18,36.81-3.18,36.81S102,81.9,99.5,70.68c-1.35-6.12-5.88-12.44-5.88-12.44s3.22,17.5,3.22,25.43-8,37.63-8,37.63,15.23-33.78,15.23-41.71a46.74,46.74,0,0,0-2-13.84L99.5,103.91s9.87-20,9.15-36.94c-1-24.64-10.17-28.9-10.17-28.9Z"/><path class="cls-11" d="M94.68,35.26s1.93,0,8.48,3.12,8.77,7.77,8.77,7.77-2.59-8-6.84-12.79c-12.71-14.44-24-8-24-8a54.87,54.87,0,0,1,6.66-1.73c7.74-1.23,10.89.32,10.89.32S93,20.62,88,20.3a31.63,31.63,0,0,0-7.26,1.39l4.24-2S66.1,17.19,62.3,27.6c-4.79-2.94-12.24-.05-16.55,2.6a73.72,73.72,0,0,0-7.61,5.37s5.21-3.38,10.93-3.38,1.21-1.94-2.81.86S38.78,38.64,37,44.54A61,61,0,0,0,34.86,57s7.59-16,13.39-17.42c0,0-7.62.77-11.25,14.52-6.35,24,9.26,33.68,9.26,33.68s-4.85-13.36-2.77-17.56c1.11-2.23-.94-2.18-.75,2.08.45,10,8.15,21.41,8.15,21.41S45.75,78.52,49.57,71.2C52.63,65.34,55,63.57,55,63.57a16,16,0,0,1,.9,8.56C54.17,80.65,50,83.67,50,83.67S74,69,66.62,51.51c-.69-1.64-2.23-4.31-1.61-7,2.53,2.79,5.18,4.74,6.45,3.48,3-3,13.1-5.76,23.22-5.76S101.37,46,103.45,48s6.47,25.24,6.47,25.24,5.81-20-4.83-34.37C101.24,33.68,94.68,35.26,94.68,35.26Z"/><path class="cls-12" d="M65.73,34c-9.08-12.81-17.8-.14-17.37,10-.28,6.79,5.13,15,5.76,26.32,1.24,10.76-1,26-6.54,29.91C60.52,91,57.69,62.79,55.08,55.71,44.62,27.43,64.16,30.47,65.73,34Z"/><path class="cls-12" d="M65.61,34.41C60,26.55,54.69,34.32,55,40.55c-.18,4.17,3.15,9.22,3.53,16.15.76,6.6-.61,15.92-4,18.35,7.94-5.66,6.2-23,4.59-27.31C52.66,30.39,64.65,32.26,65.61,34.41Z"/><path class="cls-13" d="M98.46,67.34l.19,1.45A30.49,30.49,0,0,1,99,72.61c0,.81,0,1.68,0,2.6a22.46,22.46,0,0,1-.23,2.89,30.89,30.89,0,0,1-.44,3.06c-.21,1-.43,2.07-.64,3.12s-.58,2-.86,3.06-.63,2-.94,2.92c-.62,1.89-1.36,3.6-1.93,5.08S92.76,98,92.4,98.87l-.62,1.32s.47-2.07,1.31-5.13c.43-1.52.92-3.3,1.45-5.2s1.06-3.93,1.6-6c.23-1,.46-2,.68-3s.38-2,.55-3,.4-1.9.46-2.79.19-1.72.28-2.5c.18-1.56.17-2.9.24-3.83Z"/><path class="cls-13" d="M102.47,70.13s0,.73.12,2c0,.65.06,1.43.1,2.32a16,16,0,0,1,0,3c-.08,1.11-.16,2.31-.26,3.58a36.48,36.48,0,0,1-.55,4c-.25,1.36-.43,2.79-.83,4.18s-.72,2.85-1.07,4.27L98.6,97.64c-.41,1.4-1,2.72-1.44,4-.94,2.59-2,4.94-2.86,7s-1.7,3.67-2.22,4.83l-.89,1.82s.22-.71.61-1.93,1-3,1.68-5,1.54-4.5,2.39-7.1,1.7-5.39,2.57-8.16c.37-1.41.75-2.81,1.11-4.2s.66-2.75.94-4.09.64-2.61.78-3.84.35-2.4.51-3.48c.37-2.15.36-4,.51-5.28S102.47,70.13,102.47,70.13Z"/><path class="cls-14" d="M103.47,145s-.27.1-.71.31H71c-.29-1.39-.62-2.93-.93-4.4-.67-3.17-1.25-6-1.25-6s.92-.75,2.26-1.89c.57-.46,1.21-1,1.93-1.64,4.86-4.17,12.62-11.25,15.87-16.67a20.34,20.34,0,0,1,6.93,5.11,25.67,25.67,0,0,1,4.57,7.36C102.24,131.61,103.47,137.39,103.47,145Z"/><path class="cls-15" d="M100.42,127.22a72.89,72.89,0,0,1-20.13,18.12H71c-.29-1.39-.62-2.93-.93-4.4a72.19,72.19,0,0,0,25.74-21.08A25.67,25.67,0,0,1,100.42,127.22Z"/><path class="cls-15" d="M78.72,145.34H43.46l-.72-.31c0-11.1,2.61-18.3,5.87-23A21.43,21.43,0,0,1,55,115.92c.5-.29,1-.53,1.46-.79a14.22,14.22,0,0,1,4.89-1.56c.13,1.15,4.76,10.61,9.73,19.49.65,1.11,1.29,2.26,1.93,3.34C75.06,139.86,77.06,143,78.72,145.34Z"/><path class="cls-14" d="M71.47,145.34H61a131.53,131.53,0,0,1-12.41-23.26A21.43,21.43,0,0,1,55,115.92,88.6,88.6,0,0,0,71.47,145.34Z"/></g></g></svg>