<svg xmlns="http://www.w3.org/2000/svg" viewBox="0 0 145.36 145.95"><defs><style>.cls-1{fill:#8967ac;}.cls-2{fill:#e1bf9c;}.cls-3{fill:#f2d1ac;}.cls-4,.cls-6{fill:#c09a80;}.cls-4{opacity:0.7;}.cls-5{fill:#d3a789;}.cls-7{fill:#e0b89b;}.cls-8{fill:#0b0b0b;}.cls-9{fill:#151515;}.cls-10{fill:#f7f7f7;}.cls-11{fill:#050606;}</style></defs><title>Asset 185</title><g id="Layer_2" data-name="Layer 2"><g id="Layer_1-2" data-name="Layer 1"><rect class="cls-1" width="145.36" height="145.95"/><path class="cls-2" d="M67.86,91.33v54.42H38.27l-.73-.3c0-29.2,18.11-31.38,18.11-31.38h.15a2.7,2.7,0,0,0,.39-.08l.17-.06c1.31-.5,2.22-2.37,2.86-5a4.51,4.51,0,0,0,.17-.68c0-.12.06-.25.08-.37.09-.42.17-.86.23-1.31.17-1,.31-2.05.42-3.16.06-.66.12-1.32.18-2v0c.27-3.35.36-7,.36-10.42C60.66,90.94,64.64,91.33,67.86,91.33Z"/><path class="cls-3" d="M98.27,145.45s-.27.1-.7.3H67.86V91.33h.06c3.21,0,7.22-.39,7.22-.39,0,3.42.08,7,.35,10.33v0c.06.67.12,1.33.19,2,.12,1.14.25,2.22.41,3.24v0c0,.31.11.62.17.91,0,.13,0,.23.06.36.62,3,1.54,5.28,2.87,6a.86.86,0,0,0,.24.11l.07,0,.12,0a1.61,1.61,0,0,0,.54.08S98.27,116.25,98.27,145.45Z"/><path class="cls-4" d="M76.09,106.49v0A9.52,9.52,0,0,1,67.9,111h0a10.29,10.29,0,0,1-8.15-4.45c.16-1,.3-2,.41-3.15q.09-1,.18-2a32.52,32.52,0,0,0,7.47,1h.09a30.76,30.76,0,0,0,7.63-1c.06.66.13,1.33.19,2C75.8,104.4,75.93,105.47,76.09,106.49Z"/><path class="cls-5" d="M67.83,32.86C37,32.8,36.78,57.62,38.15,73.8,36,70,29.77,71.41,30.28,77.49c.49,5.82,9.34,8.46,9.22,7.82C42,98.5,56.58,105.82,67.83,106.86h.24v-74Z"/><path class="cls-6" d="M31.94,74.12a3.06,3.06,0,0,1,4.52-.82A2.38,2.38,0,0,1,37.2,76c-.22.79-1.08.84-.87,2a2.11,2.11,0,0,0,1.25,1.73,2.75,2.75,0,0,1,1.06,1.1,2.88,2.88,0,0,1,.14,1.68c-.24,1-1.72.19-2.71-.23a19,19,0,0,1-3.24-2.51C31.51,78.4,30.91,75.69,31.94,74.12Z"/><path class="cls-7" d="M68,32.86C98.87,32.8,99.05,57.62,97.67,73.8c2.12-3.8,8.38-2.39,7.87,3.69-.49,5.82-9.34,8.46-9.22,7.82C93.79,98.5,79.24,105.82,68,106.86h-.24v-74Z"/><path class="cls-6" d="M103.86,74.12a3.06,3.06,0,0,0-4.52-.82A2.38,2.38,0,0,0,98.6,76c.22.79,1.09.84.88,2a2.13,2.13,0,0,1-1.26,1.73c-.36.3-.83.53-1.06,1.1A2.88,2.88,0,0,0,97,82.54c.24,1,1.72.19,2.71-.23A18.66,18.66,0,0,0,103,79.8C104.29,78.4,104.9,75.69,103.86,74.12Z"/><path class="cls-2" d="M67.67,39.88c-10.31,0-17.86,2.85-22.43,8.46-6.38,7.84-6.13,19.81-3.78,28.41.72,2.63,1.09,9.71,1.59,12.31,2.22,11.62,15.73,17.81,24.62,17.81h.24v-67Z"/><path class="cls-3" d="M90.05,48.35c-4.53-5.57-12-8.41-22.14-8.46v67c10.16-.11,22.3-6.89,24.38-17.81.5-2.6.87-9.68,1.59-12.31C96.22,68.18,96.46,56.22,90.05,48.35Z"/><path class="cls-8" d="M73.1,96.37s-2.33,2.49-5.2,2.49a7.73,7.73,0,0,1-5.07-2.44A32.9,32.9,0,0,1,67.9,96,41.37,41.37,0,0,1,73.1,96.37Z"/><path class="cls-9" d="M69.37,95.22a1.34,1.34,0,0,0-1.47,1.13,1.35,1.35,0,0,0-1.47-1.13,20.74,20.74,0,0,0-3.74,1.15s2.85.29,3.66.29,1.53.32,1.55-.28c0,.61.6.37,1.4.37s3.8-.38,3.8-.38A20.59,20.59,0,0,0,69.37,95.22Z"/><path class="cls-8" d="M79.62,114c-.75,1.26-2.43,2.55-6.06,3-2.16.22-4,.35-5.7.35-7.25,0-10.3-1.76-11.5-3.36,1.31-.5,2.22-2.37,2.86-5a4.51,4.51,0,0,0,.17-.68c0-.12.06-.25.08-.37.33.64,1.31,1.7,4.11,2.09h0a32.9,32.9,0,0,0,4.24.31,16,16,0,0,0,5.31-.76l0,0c2.36-.87,2.91-2.14,2.91-2.14l.14.1c0,.13,0,.23.06.36.62,3,1.54,5.28,2.87,6a1.2,1.2,0,0,0,.31.13Z"/><path class="cls-10" d="M98.27,145.45s-.27.1-.7.3H38.27l-.73-.3c0-29.2,18.11-31.38,18.11-31.38h.15a2.7,2.7,0,0,0,.39-.08l.17-.06c-1.78,3.36-13.3,15.74,0,18.46a65,65,0,0,0,11.5,1.35,40.68,40.68,0,0,0,15.2-2.12c5.71-2.13-.79-13.79-3.63-17.69l.07,0,.12,0a1.61,1.61,0,0,0,.54.08S98.27,116.25,98.27,145.45Z"/><path class="cls-11" d="M102.58,71.94h0a4.87,4.87,0,0,0-3.44.3c-2.18.94-2.32,6-3.75,8.43C91.55,87.08,86.65,88,86.65,88S92,84,91.55,75.44c-.12-2.26-.56-6.93-.89-10.46-.21-2.24-.38-4-.38-4.44,0-.62-.43,1.89-.76,4-.21,1.35-.4,2.51-.4,2.51l-4.06-1-.75-3.28L82.8,56.14l-.5,6.1-.25,3.14H70.88l-.75-4.61-.43-2.72s-.08,1.29-.21,2.7c-.12,1.66-.29,3.52-.37,3.78-.15.43-5.58.58-5.58.58L63.25,61l-.46-6.29L61.71,61.1l-.54,3.28L53.93,66l0-3.61,0-4.09-.52,4.21-.49,4-3.8,1,.21-3.86.23-4.25s-.71,2.16-1.6,4.73-1.91,5.36-2.64,7C41,81.12,48.1,88,49.06,88.9,48,88.37,38.24,83.58,38.85,76.3c.33-3.91-5.36-4.43-5.36-4.43a137.09,137.09,0,0,1-.16-14.23,40.51,40.51,0,0,1,1.24-8.55C36.78,41.58,42.79,27,64.7,27c7.64,0,11.39,3.84,11.39,3.84a38.79,38.79,0,0,1,9.65,1.74c6.58,2.41,12.49,12.06,14,14.86,1.37,2.57,2.47,8.57,2.74,11.21,0,.2,0,.39,0,.55C102.63,61.44,102.58,71.94,102.58,71.94Z"/></g></g></svg>