<svg xmlns="http://www.w3.org/2000/svg" viewBox="0 0 145.36 145.95"><defs><style>.cls-1{fill:#965458;}.cls-2{fill:#e1bf9c;}.cls-3{fill:#f2d1ac;}.cls-4,.cls-6{fill:#c09a80;}.cls-4{opacity:0.7;}.cls-5{fill:#d3a789;}.cls-7{fill:#e0b89b;}.cls-8{fill:#5aadc5;}.cls-9{fill:#f9f9fa;}.cls-10{fill:#ad9962;}.cls-11{fill:#7c6c43;}</style></defs><title>Asset 198</title><g id="Layer_2" data-name="Layer 2"><g id="Layer_1-2" data-name="Layer 1"><rect class="cls-1" width="145.36" height="145.95"/><path class="cls-2" d="M74.88,89v57h-31l-.76-.33c0-30.56,19-32.85,19-32.85,1.89,0,3.11-2.43,3.91-6.12.13-.57.24-1.15.33-1.78.17-1.05.32-2.16.43-3.31.07-.69.13-1.39.2-2.1.28-3.5.37-7.3.37-10.91C67.34,88.55,71.51,89,74.88,89Z"/><path class="cls-3" d="M106.72,145.62s-.28.11-.73.33H74.88V89h.06c3.37,0,7.56-.41,7.56-.41,0,3.59.09,7.34.37,10.82.06.7.13,1.39.19,2.06.14,1.2.27,2.33.44,3.39v0c.07.47.15.91.24,1.34.8,3.93,2.06,6.58,4,6.58C87.76,112.77,106.72,115.06,106.72,145.62Z"/><path class="cls-4" d="M83.5,104.82v0a10,10,0,0,1-8.58,4.66h0a10.82,10.82,0,0,1-8.54-4.64c.17-1.05.32-2.16.43-3.31.07-.69.13-1.39.2-2.1a34.31,34.31,0,0,0,7.82,1h.09a32.65,32.65,0,0,0,8-1.11c.06.7.13,1.39.19,2.06C83.2,102.63,83.33,103.76,83.5,104.82Z"/><path class="cls-5" d="M75,23.61c-32.81,0-33,27.47-31.54,45.45-2.25-4.27-8.9-3-8.36,3.76.53,6.47,9.93,9.81,9.8,9.06C47.55,96.68,63,105.22,75,105.22h.25V23.61Z"/><path class="cls-6" d="M37.16,70a3.09,3.09,0,0,1,4.73-.91,2.7,2.7,0,0,1,.77,3c-.23.86-1.13.93-.91,2.24a2.31,2.31,0,0,0,1.31,1.9,3,3,0,0,1,1.11,1.21,3.31,3.31,0,0,1,.14,1.85c-.25,1.07-1.79.22-2.82-.25a19.49,19.49,0,0,1-3.4-2.76C36.71,74.7,36.07,71.71,37.16,70Z"/><path class="cls-7" d="M75.13,23.61c32.81,0,33,27.47,31.54,45.45,2.25-4.27,8.91-3,8.36,3.76-.52,6.47-9.93,9.81-9.8,9.06-2.69,14.8-18.13,23.34-30.1,23.34h-.25V23.61Z"/><path class="cls-6" d="M112.94,70a3.1,3.1,0,0,0-4.74-.91,2.71,2.71,0,0,0-.77,3c.23.86,1.14.93.92,2.24A2.32,2.32,0,0,1,107,76.2c-.38.34-.87.59-1.11,1.21a3.31,3.31,0,0,0-.14,1.85c.25,1.07,1.79.22,2.83-.25A19.81,19.81,0,0,0,112,76.25C113.38,74.7,114,71.71,112.94,70Z"/><path class="cls-2" d="M74.68,31.35c-10.8,0-18.7,3.14-23.48,9.33-6.68,8.64-6.43,21.85-4,31.33.75,2.89,1.13,10.7,1.66,13.57,2.32,12.82,16.47,19.64,25.78,19.64h.25V31.36Z"/><path class="cls-3" d="M98.11,40.69c-4.74-6.15-12.55-9.28-23.18-9.33v73.85c10.63-.11,23.35-7.59,25.53-19.63.52-2.87.91-10.68,1.66-13.57C104.58,62.55,104.82,49.37,98.11,40.69Z"/><path class="cls-8" d="M88.55,112.93a2.14,2.14,0,0,1-1.19-.71,23.83,23.83,0,0,0-2.22-3l-.21-.22-.33,1.87-9.67,5-9.54-4.62L64.92,109l-.13.13c-1.29,1.47-3.5,3.91-3.48,3.81-3.58.83-18.16,5.87-18.16,32.69l.75.33H106l.74-.33C106.72,118.8,92.14,113.76,88.55,112.93Z"/><path class="cls-9" d="M86.8,110.36c-.47-1.21-1.6-2.33-2-3.3-.69-1.59-1.32-3-1.32-3-.15,1.53-2.5,8.28-2.5,8.28s-7.37,3.54-6.22,3.79,6.63,7.14,8.19,9,1.31,3.52,1.72,1.05S88.06,113.59,86.8,110.36Z"/><path class="cls-9" d="M68.92,112.34s-2.35-6.75-2.5-8.28c0,0-.63,1.41-1.32,3-.41,1-1.55,2.09-2,3.3-1.25,3.23,1.74,13.33,2.15,15.79s.15.78,1.71-1.05,6.65-8.72,7.81-9S68.92,112.34,68.92,112.34Z"/><path class="cls-10" d="M105.71,74.06c2-7,3.88-18.78,3.88-24.19s-1-12.85-3.19-16.2c-2.87-4.42-3.08-3.17-3.08-3.17s2.88-12-15-14.71a41.79,41.79,0,0,0-7-.2l2.44,2.46A50.34,50.34,0,0,0,61.8,16.77c-9,1.4-15.23,5.85-20.36,13.12C38,34.75,37,41.92,37,41.92l6.62-8.82A30.46,30.46,0,0,0,37,56.76c2.77,21,12.5,24.88,12.5,24.88s-6.7-12.58-2.27-20.73c7.43-13.68,20.66-14.09,20.66-14.09A18.82,18.82,0,0,0,52.09,61.23c-.23.91.61-3.67,6.24-5.84,3.89-1.49,9.37-1,15.62-3.8,5.71-2.61,15.76-9.87,15.76-9.87s-13.39,5-17.16,8.24A23.3,23.3,0,0,0,64.85,64s3.9-6.29,13.43-9.88c5.22-2,14.64-5.41,14.64-5.41S86,48.3,81,52.47c-4,3.36-2.85,10.61-1.86,11.94,0,0-.33-5.49,11.65-8.93,6.89-2,8-5.88,8-5.88a21.63,21.63,0,0,0,.89,6.34c1.07,2.87,4.12,4.74,4.34,7.33.4,4.81-2.19,13.84-2.19,13.84Z"/><path class="cls-11" d="M89.32,41.87,88,43.09c-.43.39-.95.86-1.59,1.37S85,45.55,84.19,46.11s-1.7,1.21-2.69,1.8a33.46,33.46,0,0,1-3.16,1.75c-1.11.59-2.31,1.09-3.52,1.61s-2.49.94-3.78,1.3a22.92,22.92,0,0,1-3.91.93l-3.8.55A22,22,0,0,0,56.9,55.8a9,9,0,0,0-3.63,2.93,8.35,8.35,0,0,0-.92,1.57,7.58,7.58,0,0,1,.76-1.67,9.46,9.46,0,0,1,3.54-3.31,22.14,22.14,0,0,1,6.54-2.12c1.23-.26,2.51-.42,3.78-.64a22.11,22.11,0,0,0,3.76-1c1.27-.37,2.47-.88,3.7-1.3s2.38-1,3.48-1.5a64.84,64.84,0,0,0,5.91-3.23c.86-.49,1.58-1.05,2.27-1.47s1.26-.84,1.73-1.18Z"/><path class="cls-11" d="M87.48,49.72l-.87.79a12.74,12.74,0,0,1-2.72,1.54c-1.19.5-2.6,1-4.12,1.48s-3.12,1-4.67,1.61a21.77,21.77,0,0,0-2.25,1,18,18,0,0,0-2.06,1.21c-.66.4-1.2.93-1.77,1.34s-1,1-1.43,1.42-.73.95-1.06,1.35a11.5,11.5,0,0,0-.73,1.1l-.63,1,.44-1.08c.17-.34.31-.78.58-1.23s.57-1,.92-1.51.86-1,1.36-1.61a15,15,0,0,1,1.77-1.55,15.33,15.33,0,0,1,2.12-1.36,23.81,23.81,0,0,1,2.34-1.1c3.23-1.27,6.59-1.87,9-2.65a16.36,16.36,0,0,0,2.8-1.14Z"/><path class="cls-11" d="M99.2,48.26a10.74,10.74,0,0,1-.57,1,11.46,11.46,0,0,1-2,2.34A13.86,13.86,0,0,1,93,54c-1.44.66-3,1.22-4.56,1.77a18.45,18.45,0,0,0-4.25,2.08,13.87,13.87,0,0,0-3.13,2.69A8.84,8.84,0,0,0,79.54,63a6.79,6.79,0,0,0-.37,1.07,5.36,5.36,0,0,1,.2-1.13,8.14,8.14,0,0,1,1.29-2.76,14.11,14.11,0,0,1,3.06-3.08,16.34,16.34,0,0,1,4.39-2.34c3.12-1.16,6.23-2.16,8.15-3.67a16.46,16.46,0,0,0,2.19-2C98.93,48.58,99.2,48.26,99.2,48.26Z"/><path class="cls-11" d="M58.2,28.1a33.9,33.9,0,0,0-3.1,2.28A28.62,28.62,0,0,0,52.36,33a18.69,18.69,0,0,0-4,6.21l-1.58-.73a3.17,3.17,0,0,1,1.09-1.12A6.66,6.66,0,0,1,49,36.82a18.45,18.45,0,0,1,2.22-.72c1.46-.39,3-.65,4.31-1l1.8-.44-.58,1.76a39.72,39.72,0,0,1-2.18,5c-.8,1.6-1.67,3.13-2.59,4.67l-1.6-1.36a35.94,35.94,0,0,1,5.44-3.58,32,32,0,0,1,6-2.53,23.87,23.87,0,0,1,6.37-1.17,16.46,16.46,0,0,1,6.32,1,18.62,18.62,0,0,0-6.23,0,26.7,26.7,0,0,0-6,1.66,44.48,44.48,0,0,0-5.51,2.79c-.88.53-1.75,1.09-2.59,1.68s-1.7,1.2-2.45,1.83L47.35,50l2.81-5a74.37,74.37,0,0,0,4.67-9.2l1.22,1.31c-1.55.33-2.95.52-4.35.86a16.84,16.84,0,0,0-2,.58,6.15,6.15,0,0,0-.85.39,1.85,1.85,0,0,0-.5.39l-3.56,3.6,2-4.33a19.76,19.76,0,0,1,4.83-6.35A24,24,0,0,1,58.2,28.1Z"/></g></g></svg>