<svg xmlns="http://www.w3.org/2000/svg" xmlns:xlink="http://www.w3.org/1999/xlink" viewBox="0 0 145.36 145.95"><defs><style>.cls-1{fill:none;}.cls-2{fill:#5aadc5;}.cls-3{fill:#e2bf9c;}.cls-4{fill:#f2d1ac;}.cls-5{clip-path:url(#clip-path);}.cls-6{fill:#c09a80;}.cls-7{fill:#d3a789;}.cls-8{fill:#e0b89b;}.cls-9{fill:#c7696e;}.cls-10{fill:#d87373;}.cls-11{fill:#f6f0d7;}.cls-12{fill:#4e1223;}.cls-13{fill:#fff;}.cls-14{fill:#5e5e5e;}</style><clipPath id="clip-path"><rect class="cls-1" x="62.95" y="94.27" width="18.87" height="11.16"/></clipPath></defs><title>Asset 153</title><g id="Layer_2" data-name="Layer 2"><g id="Layer_1-2" data-name="Layer 1"><rect class="cls-2" width="145.36" height="145.95"/><path class="cls-3" d="M72.33,82.83v62.63H38.27c-.55-.25-.83-.36-.83-.36,0-21.23,8.31-30,14.44-33.64A18.21,18.21,0,0,1,58.29,109c2.07,0,3.41-2.67,4.3-6.73.14-.62.26-1.28.35-2,.19-1.15.36-2.36.48-3.63.07-.76.14-1.53.21-2.32.32-3.85.41-8,.41-12,0,0,4.58.47,8.29.47"/><path class="cls-4" d="M107.34,145.1a8.67,8.67,0,0,0-.82.36H72.33V82.83h.07c3.7,0,8.31-.47,8.31-.47,0,3.94.1,8.08.41,11.9.06.76.14,1.53.21,2.27.15,1.31.28,2.55.47,3.73v0c.08.52.17,1,.27,1.48.89,4.32,2.27,7.23,4.42,7.23a18.21,18.21,0,0,1,6.36,2.44C99,115,107.34,123.82,107.34,145.1"/><g class="cls-5"><path class="cls-6" d="M81.82,100.26v0a11,11,0,0,1-9.44,5.14h0A11.85,11.85,0,0,1,63,100.31c.18-1.15.35-2.37.47-3.64.08-.75.14-1.53.22-2.32a35.9,35.9,0,0,0,8.6,1.13h.09a35,35,0,0,0,8.79-1.21c.08.77.14,1.53.21,2.26.15,1.32.29,2.56.49,3.73"/></g><path class="cls-7" d="M72.3,15.52C36.76,15.45,36.56,44,38.13,62.62c-2.43-4.37-9.64-2.74-9.05,4.26.57,6.7,10.75,9.74,10.62,9,2.9,15.17,19.66,23.6,32.6,24.8h.28V15.52H72.3"/><path class="cls-6" d="M30.87,63.92A3.52,3.52,0,0,1,36.08,63a2.74,2.74,0,0,1,.84,3.11c-.25.9-1.25,1-1,2.33a2.42,2.42,0,0,0,1.44,2,3.22,3.22,0,0,1,1.22,1.26,3.35,3.35,0,0,1,.15,1.94c-.27,1.1-2,.22-3.1-.27a20.14,20.14,0,0,1-3.73-2.88c-1.52-1.61-2.22-4.74-1-6.54"/><path class="cls-8" d="M72.48,15.52C108,15.45,108.23,44,106.64,62.62c2.45-4.37,9.66-2.74,9.06,4.26-.56,6.7-10.75,9.74-10.61,9-2.9,15.17-19.66,23.6-32.61,24.8h-.27V15.52h.27"/><path class="cls-6" d="M114.17,63.92A3.52,3.52,0,0,0,109,63a2.76,2.76,0,0,0-.84,3.11c.25.9,1.25,1,1,2.33a2.44,2.44,0,0,1-1.44,2,3.16,3.16,0,0,0-1.22,1.26,3.35,3.35,0,0,0-.16,1.94c.27,1.1,2,.22,3.11-.27a20.14,20.14,0,0,0,3.73-2.88c1.52-1.61,2.22-4.74,1-6.54"/><path class="cls-3" d="M72.12,23.6c-11.88,0-20.55,3.28-25.82,9.73C39,42.35,39.24,56.14,42,66c.82,3,1.25,11.17,1.82,14.16,2.56,13.39,18.11,20.5,28.35,20.5h.27V23.61h-.27"/><path class="cls-4" d="M97.87,32.19c-5.21-6.42-13.8-9.68-25.48-9.73V99.53c11.7-.12,25.67-7.92,28.07-20.49.56-3,1-11.14,1.82-14.16,2.7-9.87,3-23.63-4.41-32.69"/><path class="cls-9" d="M78.32,89.15S75.63,92,72.33,92s-5.83-2.81-5.83-2.81a38.46,38.46,0,0,1,5.83-.43,49.07,49.07,0,0,1,6,.37"/><path class="cls-10" d="M74,87.83a1.56,1.56,0,0,0-1.7,1.3,1.55,1.55,0,0,0-1.69-1.3,24,24,0,0,0-4.3,1.32s3.27.34,4.21.34,1.75.38,1.78-.32c0,.7.69.44,1.61.44s4.38-.46,4.38-.46A24.07,24.07,0,0,0,74,87.83"/><path class="cls-11" d="M107.79,145.09s-.32.12-.83.37H37.71l-.84-.37c0-21.53,8.55-29.85,14.78-33.5-1.31,7,9.59,9.68,20.62,9.55,10.8-.12,21.35-3.08,20.57-9.71,6.23,3.63,15,12.08,15,33.66"/><polygon class="cls-12" points="49.02 127.16 48.91 126.91 51.15 125.92 51.27 126.19 49.02 127.16"/><path class="cls-13" d="M72,17.33c-6.16-.08-26.63,2.15-32.14,34.46,0,0,1.37,45.5,29.11,46.35v-.06a30.49,30.49,0,0,0,3.21.17c1,0,1.91,0,2.83-.13v0c27.73-.85,29.1-46.35,29.1-46.35C98.62,19.48,78.16,17.25,72,17.33Z"/><path class="cls-14" d="M64.86,52.31c0,2.71-3.4,6-6.47,6s-6-2.4-6-5.11,0-5,2.93-5.8C60.43,46.06,64.86,49.59,64.86,52.31Z"/><path class="cls-14" d="M79.88,53c0,2.72,3.4,6,6.46,6s6-2.39,6-5.11,0-5-2.93-5.8C84.3,46.7,79.88,50.23,79.88,53Z"/><path class="cls-14" d="M76.51,71.41c0,1.06-1.58,1.93-3.52,1.93s-3.52-.87-3.52-1.93,1.58-1.93,3.52-1.93S76.51,70.34,76.51,71.41Z"/><path class="cls-14" d="M69.78,79.09a2.48,2.48,0,1,1-2.46-2.16A2.33,2.33,0,0,1,69.78,79.09Z"/><path class="cls-14" d="M81.42,79.09A2.48,2.48,0,1,1,79,76.93,2.32,2.32,0,0,1,81.42,79.09Z"/><path class="cls-14" d="M87.06,78.74a1.74,1.74,0,1,1-1.69-2.16A2,2,0,0,1,87.06,78.74Z"/><path class="cls-14" d="M62,78.74a1.74,1.74,0,1,1-1.69-2.16A2,2,0,0,1,62,78.74Z"/><path class="cls-14" d="M68.05,87.56A2.09,2.09,0,1,1,66,85.75,2,2,0,0,1,68.05,87.56Z"/><path class="cls-14" d="M81.61,87.56a2.09,2.09,0,1,1-2.07-1.81A2,2,0,0,1,81.61,87.56Z"/><path class="cls-14" d="M69.67,92.71a1.48,1.48,0,1,1-1.47-1.29A1.38,1.38,0,0,1,69.67,92.71Z"/><path class="cls-14" d="M79.24,92.71a1.48,1.48,0,0,1-2.93,0,1.48,1.48,0,0,1,2.93,0Z"/><path class="cls-14" d="M69.62,38.86a2.48,2.48,0,1,1-2.46-2.16A2.33,2.33,0,0,1,69.62,38.86Z"/><path class="cls-14" d="M81.27,38.86a2.48,2.48,0,1,1-2.46-2.16A2.33,2.33,0,0,1,81.27,38.86Z"/><path class="cls-14" d="M86.24,31.19a1.83,1.83,0,0,1,2.12,1.3,1.63,1.63,0,0,1-1.48,1.86,1.82,1.82,0,0,1-2.12-1.3A1.65,1.65,0,0,1,86.24,31.19Z"/><path class="cls-14" d="M85.22,26.24a1.82,1.82,0,0,1,2.12,1.3,1.63,1.63,0,0,1-1.47,1.86,1.82,1.82,0,0,1-2.12-1.29A1.64,1.64,0,0,1,85.22,26.24Z"/><path class="cls-14" d="M87.25,36.14a1.83,1.83,0,0,1,2.12,1.3A1.63,1.63,0,0,1,87.9,39.3,1.81,1.81,0,0,1,85.78,38,1.64,1.64,0,0,1,87.25,36.14Z"/><path class="cls-14" d="M59.07,31.19A1.82,1.82,0,0,0,57,32.49a1.63,1.63,0,0,0,1.47,1.86,1.82,1.82,0,0,0,2.12-1.3A1.64,1.64,0,0,0,59.07,31.19Z"/><path class="cls-14" d="M60.08,26.24A1.83,1.83,0,0,0,58,27.54a1.63,1.63,0,0,0,1.47,1.86,1.81,1.81,0,0,0,2.12-1.29A1.64,1.64,0,0,0,60.08,26.24Z"/><path class="cls-14" d="M58.05,36.14a1.83,1.83,0,0,0-2.12,1.3,1.63,1.63,0,0,0,1.48,1.86A1.82,1.82,0,0,0,59.53,38,1.64,1.64,0,0,0,58.05,36.14Z"/><path class="cls-14" d="M104,51.16S99.3,56,102.51,61.53a1,1,0,0,0,.42.68s2.61-2.6,3.92-2.25l.25-5.27S105.58,54.16,104,51.16Z"/><path class="cls-14" d="M40.84,51.14s-2.22,2.94-3.57,2.77l.49,5.26s1.59.31,3.55,3.06c0,0,4-5.44,0-10.47A1.06,1.06,0,0,0,40.84,51.14Z"/><path class="cls-14" d="M96,126.2c-1.22-1.07-3.23-1.49-5.63-1.32V108.34L86,107.21v18.5A30.58,30.58,0,0,0,80.52,128c-5.65,3-7.64,2.5-8.5,2.69a.22.22,0,0,1-.11,0c-.79-.08-2.73.4-8.59-2.71a31.73,31.73,0,0,0-4.69-2V108.14l-4.38,1.12V125c-2.52-.3-4.67,0-6.07.94-1.8,4.56-3,10.71-3,19l.64.32H98.34c.39-.22.62-.32.62-.32C99,136.79,97.77,130.73,96,126.2Z"/></g></g></svg>