<svg xmlns="http://www.w3.org/2000/svg" viewBox="0 0 145.36 145.95"><defs><style>.cls-1{fill:#a2c15f;}.cls-2{fill:#e1bf9c;}.cls-3{fill:#f2d1ac;}.cls-4,.cls-6{fill:#c09a80;}.cls-4{opacity:0.7;}.cls-5{fill:#d3a789;}.cls-7{fill:#e0b89b;}.cls-8{fill:#482539;}.cls-9{fill:#f0ebbe;}.cls-10{fill:#dedddd;}.cls-11{fill:#fff;}.cls-12{fill:#514731;}</style></defs><title>Asset 174</title><g id="Layer_2" data-name="Layer 2"><g id="Layer_1-2" data-name="Layer 1"><rect class="cls-1" width="145.36" height="145.95"/><path class="cls-2" d="M75.59,91.55V146H46l-.72-.29c0-20.23,8.69-27.49,14-30a14.84,14.84,0,0,1,4.07-1.33c1.82,0,3-2.32,3.75-5.85a16.32,16.32,0,0,0,.31-1.71q.25-1.49.42-3.15c.06-.66.13-1.32.19-2,.27-3.34.35-7,.35-10.42C68.39,91.15,72.35,91.55,75.59,91.55Z"/><path class="cls-3" d="M106,145.66s-.28.1-.71.29H75.59V91.55h.06c3.22,0,7.22-.4,7.22-.4,0,3.43.09,7,.35,10.34.07.66.13,1.33.19,2,.13,1.14.25,2.22.41,3.23v0a11.41,11.41,0,0,0,.24,1.29c.74,3.76,2,6.29,3.83,6.29a15.81,15.81,0,0,1,5,1.83C98.29,119.06,106,126.59,106,145.66Z"/><path class="cls-4" d="M83.82,106.69v0a9.58,9.58,0,0,1-8.2,4.46h0a10.36,10.36,0,0,1-8.16-4.44c.17-1,.32-2,.42-3.15.06-.67.13-1.33.19-2a32.43,32.43,0,0,0,7.47,1h.08a30.84,30.84,0,0,0,7.64-1.06c.06.66.12,1.33.18,2C83.53,104.59,83.65,105.67,83.82,106.69Z"/><path class="cls-5" d="M75.39,29.12c-31.34,0-31.52,26.24-30.12,43.41-2.15-4.07-8.51-2.82-8,3.59.5,6.18,9.49,9.38,9.36,8.65,2.57,14.14,17.32,22.3,28.75,22.3h.24V29.12Z"/><path class="cls-6" d="M39.4,73.42a3,3,0,0,1,4.53-.87,2.61,2.61,0,0,1,.73,2.85c-.22.82-1.08.89-.87,2.14A2.21,2.21,0,0,0,45,79.36a2.83,2.83,0,0,1,1.06,1.15,3.2,3.2,0,0,1,.14,1.77c-.24,1-1.72.21-2.7-.24a19.93,19.93,0,0,1-3.25-2.63C39,77.92,38.37,75.07,39.4,73.42Z"/><path class="cls-7" d="M75.87,29.12c31.34,0,31.52,26.24,30.13,43.41,2.15-4.07,8.51-2.82,8,3.59-.51,6.18-9.49,9.38-9.37,8.65-2.57,14.14-17.31,22.3-28.75,22.3h-.24V29.12Z"/><path class="cls-6" d="M112,73.41a3,3,0,0,0-4.52-.86,2.6,2.6,0,0,0-.74,2.85c.22.82,1.09.88.88,2.13a2.21,2.21,0,0,1-1.26,1.82,3,3,0,0,0-1,1.16,3.07,3.07,0,0,0-.14,1.76c.23,1,1.72.21,2.7-.23a19,19,0,0,0,3.24-2.64C112.41,77.92,113,75.06,112,73.41Z"/><path class="cls-2" d="M75.44,36.51c-10.31,0-17.86,3-22.43,8.91-6.38,8.25-6.13,20.87-3.78,29.92.72,2.77,1.09,10.22,1.59,13,2.22,12.24,15.72,18.76,24.62,18.76h.24V36.52Z"/><path class="cls-3" d="M97.77,45.44c-4.53-5.88-12-8.87-22.14-8.92v70.54C85.79,107,97.93,99.8,100,88.31c.49-2.74.86-10.2,1.58-13C103.94,66.31,104.18,53.71,97.77,45.44Z"/><path class="cls-8" d="M49.75,39.86C51.59,36,59.26,19.53,68.17,21.15c5.53,1,4,1,11.48,1.34s17-5,22.09,4.49c4.53,8.55,6.73,21.48,1.37,21.76C60.76,51,49.75,39.86,49.75,39.86Z"/><path class="cls-8" d="M27.62,57.79c-.89-2.25-1.57-6.29,0-8.75s2.54-5,9-2.92A64.7,64.7,0,0,1,46.52,51c6.7,3.65,14.16,7.91,20.12,9.08,9.18,1.79,17.89-.78,26.41-.78s26.05-3,27.17-3.26,2.57,3.64.91,6.86c-2.4,4.64-19.76,15.41-39.49,15.86S43.9,76,33.4,67.29A18.87,18.87,0,0,1,27.62,57.79Z"/><path class="cls-9" d="M43.54,55.09s3.36-9.41,4.26-11.88a22.19,22.19,0,0,1,2.42-4.61S54,44.37,80.86,45.37c17.25.64,25.46-3.73,25.46-3.73l3.13,11a37.23,37.23,0,0,1,1.12,6.87s-13.9,4.63-36.29,3.72C51.73,62.29,43.54,55.09,43.54,55.09Z"/><path class="cls-10" d="M106.05,145.64l-.71.31H46l-.73-.31c0-27.45,15.51-31.41,17.83-31.83,1.22,1.37,2.89,3.09,4.59,4.8,3.65,3.59,7.51,7.11,7.51,7.11s4.33-3.67,8.11-7a.07.07,0,0,1,0,0c1.51-1.31,2.94-2.55,3.94-3.5.19-.17.37-.32.52-.48.4-.37.71-.67.87-.85h0a12.85,12.85,0,0,1,2.31.76l.51.23A19.54,19.54,0,0,1,95.11,117l.52.41C100.57,121.3,106.05,129.31,106.05,145.64Z"/><path class="cls-11" d="M87.17,109.72c.26.2,3.18,6.48,3.71,7.77s0,5.11,0,5.11-.4-2-1.57-2.59-3.63-.82-4.6-.34-5.59,4.09-6.44,4.7-1.68,1.6-1.68,1.95V146h-2l.13-19.5,2.21-6.94L85,111.66s-.49-2-.56-2.27A7.51,7.51,0,0,1,87.17,109.72Z"/><path class="cls-11" d="M64,110.05c-.26.21-3.18,6.47-3.7,7.77s0,5.11,0,5.11.39-2.05,1.56-2.59,3.64-.82,4.61-.34,5.59,4.09,6.43,4.7,3.7,2.59,3.7,2.59l-2.86-7.78L66.21,112s.65-2.08.63-2.24A7.65,7.65,0,0,0,64,110.05Z"/><path class="cls-8" d="M106.4,145.64s-.28.11-.72.31H45.76l-.73-.31c0-27.75,15.66-31.76,18-32.17,1.23,1.38,2.91,3.12,4.63,4.84l3,6.52,6.58,2.35,6.23-8.7a.12.12,0,0,1,0,0c1.53-1.32,3-2.57,4-3.54a5,5,0,0,0,.53-.48c.39-.37.71-.67.88-.86h0a12.54,12.54,0,0,1,2.33.78c.16.06.33.14.52.23a19.32,19.32,0,0,1,3.6,2.14c.2.14.36.27.53.41C100.86,121,106.4,129.13,106.4,145.64Z"/><path class="cls-12" d="M69.7,134.58c-2.49,2.35-3.72,6.74-4.26,11.37H64.9c.56-4.73,1.83-9.27,4.44-11.74Z"/><path class="cls-11" d="M71.44,141.4a2.14,2.14,0,1,1-2.14-2.14A2.14,2.14,0,0,1,71.44,141.4Z"/><path class="cls-11" d="M85.37,141.4a2.15,2.15,0,1,1-2.15-2.14A2.14,2.14,0,0,1,85.37,141.4Z"/><path class="cls-9" d="M74.84,125.14l0-.06a0,0,0,0,1,0,0l-5.08,7.49-.19-.19-7.86-8.11,4.6-6s-3.35-2.34-6-.43a34.32,34.32,0,0,0-5.45,5.33v-3.32s1.66-2.43,1.54-4.21,5.5-4.73,6.38-7.93a9.08,9.08,0,0,1,1.48-2.93,27.8,27.8,0,0,0,3.13,1.1A33.53,33.53,0,0,0,74.84,125.14Z"/><path class="cls-9" d="M96.21,121.09a24,24,0,0,1,.81,3.1c-1.14-2-7.11-6.46-8.73-6.79-1.79-.37-3.7,1.79-3.7,1.79l3.2,2.94c-1.93,2.33-9.59,9.2-15.71,12.31a13.73,13.73,0,0,0-6.26,6.3,34.43,34.43,0,0,1,3.77-8.34,63,63,0,0,1,5.25-7.26s0,0,0-.06c1-1.14,2-2.35,3.2-3.59,6-6.35,6.27-12.2,5.68-15.63a21,21,0,0,0,2.29-.74c1.47,1.57,2.88,3.42,3.52,4a55.78,55.78,0,0,1,4.84,5A68.34,68.34,0,0,0,96.21,121.09Z"/></g></g></svg>