<svg xmlns="http://www.w3.org/2000/svg" viewBox="0 0 145.36 145.95"><defs><style>.cls-1{fill:#5c4c52;}.cls-2{fill:#e1bf9c;}.cls-3{fill:#f2d1ac;}.cls-4,.cls-6{fill:#c09a80;}.cls-4{opacity:0.7;}.cls-5{fill:#d3a789;}.cls-7{fill:#e0b89b;}.cls-8{fill:#101010;}.cls-9{fill:#fff;}</style></defs><title>Asset 203</title><g id="Layer_2" data-name="Layer 2"><g id="Layer_1-2" data-name="Layer 1"><rect class="cls-1" width="145.36" height="145.95"/><path class="cls-2" d="M72.5,87.36v57h-31l-.76-.33c0-30.56,19-32.85,19-32.85a2.5,2.5,0,0,0,2-1.12,13.57,13.57,0,0,0,1.91-5c.13-.57.24-1.15.32-1.78.18-1,.33-2.15.44-3.3.07-.7.13-1.39.2-2.11.28-3.5.37-7.3.37-10.91C65,86.94,69.14,87.36,72.5,87.36Z"/><path class="cls-3" d="M104.35,144s-.28.11-.74.33H72.5v-57h.07c3.37,0,7.56-.42,7.56-.42,0,3.59.09,7.35.37,10.82.07.7.13,1.39.19,2.07.13,1.19.27,2.32.44,3.38v0c.06.48.15.92.24,1.35.63,3.11,1.56,5.43,2.89,6.26a2,2,0,0,0,1.13.32S104.35,113.45,104.35,144Z"/><path class="cls-4" d="M81.13,103.22v0a10,10,0,0,1-8.58,4.67h0A10.82,10.82,0,0,1,64,103.27c.18-1,.33-2.15.44-3.31.06-.69.13-1.39.19-2.1a34.87,34.87,0,0,0,7.82,1h.09a32.58,32.58,0,0,0,8-1.11c.07.69.13,1.39.2,2.06C80.83,101,81,102.16,81.13,103.22Z"/><path class="cls-5" d="M72.6,22c-32.82,0-33,27.47-31.54,45.45-2.25-4.26-8.91-2.95-8.37,3.76.53,6.47,9.94,9.82,9.81,9.06,2.68,14.8,18.13,23.34,30.1,23.34h.25V22Z"/><path class="cls-6" d="M34.79,68.38a3.1,3.1,0,0,1,4.74-.9,2.73,2.73,0,0,1,.77,3c-.23.86-1.14.93-.92,2.24a2.32,2.32,0,0,0,1.32,1.9,3,3,0,0,1,1.1,1.21A3.23,3.23,0,0,1,42,77.66c-.25,1.06-1.8.22-2.83-.25a19.87,19.87,0,0,1-3.4-2.76C34.34,73.1,33.71,70.11,34.79,68.38Z"/><path class="cls-7" d="M72.76,22c32.82,0,33,27.47,31.54,45.45,2.25-4.26,8.91-2.95,8.36,3.76-.52,6.47-9.93,9.82-9.8,9.06-2.69,14.8-18.13,23.34-30.1,23.34h-.25V22Z"/><path class="cls-6" d="M110.57,68.38a3.1,3.1,0,0,0-4.74-.9,2.71,2.71,0,0,0-.77,3c.23.86,1.14.93.92,2.24a2.3,2.3,0,0,1-1.32,1.9,3,3,0,0,0-1.1,1.21,3.22,3.22,0,0,0-.14,1.85c.24,1.06,1.79.22,2.82-.25a19.87,19.87,0,0,0,3.4-2.76C111,73.1,111.65,70.11,110.57,68.38Z"/><path class="cls-2" d="M72.32,29.75c-10.8,0-18.71,3.14-23.49,9.33-6.68,8.64-6.42,21.84-4,31.32C45.62,73.3,46,81.11,46.53,84,48.86,96.79,63,103.62,72.32,103.62h.25V29.76Z"/><path class="cls-3" d="M95.75,39.09C91,32.94,83.19,29.81,72.57,29.76v73.85C83.2,103.49,95.91,96,98.09,84c.52-2.87.91-10.68,1.66-13.58C102.21,61,102.45,47.76,95.75,39.09Z"/><path class="cls-8" d="M62.39,106.21S60.71,111,61,110.75s2.9,3.88,11.52,3.88c0,0-.61-5.67-1.63-6Z"/><path class="cls-8" d="M82.62,106.21s1.69,4.79,1.4,4.54-2.89,3.88-11.52,3.88c0,0,.61-5.67,1.63-6Z"/><path class="cls-8" d="M104.35,144s-.28.11-.74.33H41.52l-.76-.33c0-30.56,19-32.85,19-32.85a2.5,2.5,0,0,0,2-1.12,41.63,41.63,0,0,1,7.32-.63l3,5.21a.9.9,0,0,0,.41-.16c1.59-.73,6.78-4,7.35-4a28.28,28.28,0,0,1,3.68,0,5.84,5.84,0,0,0,1.86.74S104.35,113.45,104.35,144Z"/><path class="cls-9" d="M82,116.77a.52.52,0,0,0-.46.33H63.58a.54.54,0,0,0-.47-.33.56.56,0,0,0-.56.56.57.57,0,0,0,.56.56.53.53,0,0,0,.47-.34H81.49a.52.52,0,0,0,.46.34.57.57,0,0,0,.56-.56A.56.56,0,0,0,82,116.77Z"/><path class="cls-9" d="M81.9,124.37a.51.51,0,0,0-.46.34H63.53a.53.53,0,0,0-.47-.34.56.56,0,0,0-.56.56.57.57,0,0,0,.56.56.53.53,0,0,0,.47-.34H81.44a.51.51,0,0,0,.46.34.57.57,0,0,0,.56-.56A.56.56,0,0,0,81.9,124.37Z"/><path class="cls-9" d="M81.9,132.57a.54.54,0,0,0-.47.33H63.52a.52.52,0,0,0-.46-.33.56.56,0,0,0,0,1.12.52.52,0,0,0,.46-.34H81.43a.53.53,0,0,0,.47.34.56.56,0,1,0,0-1.12Z"/><path class="cls-9" d="M81.9,140.39a.55.55,0,0,0-.47.34H63.52a.53.53,0,0,0-.46-.34.56.56,0,1,0,0,1.12.51.51,0,0,0,.46-.33H81.43a.52.52,0,0,0,.47.33.56.56,0,1,0,0-1.12Z"/><path class="cls-9" d="M73.2,117.33a.72.72,0,0,1-.72.72h0a.72.72,0,0,1-.72-.72h0a.72.72,0,0,1,.72-.72h0a.72.72,0,0,1,.72.72Z"/><path class="cls-9" d="M73.2,124.93a.72.72,0,0,1-.72.72h0a.72.72,0,0,1-.72-.72h0a.72.72,0,0,1,.72-.72h0a.72.72,0,0,1,.72.72Z"/><path class="cls-9" d="M73.2,133.13a.72.72,0,0,1-.72.72h0a.72.72,0,0,1-.72-.72h0a.72.72,0,0,1,.72-.72h0a.72.72,0,0,1,.72.72Z"/><path class="cls-9" d="M73.2,141a.72.72,0,0,1-.72.72h0a.72.72,0,0,1-.72-.72h0a.72.72,0,0,1,.72-.73h0a.72.72,0,0,1,.72.73Z"/></g></g></svg>