<svg xmlns="http://www.w3.org/2000/svg" xmlns:xlink="http://www.w3.org/1999/xlink" viewBox="0 0 145.36 145.95"><defs><style>.cls-1{fill:none;}.cls-2{fill:#4d4b4b;}.cls-3{fill:#231f20;}.cls-4{fill:#e2bf9c;}.cls-5{fill:#f2d1ac;}.cls-6{clip-path:url(#clip-path);}.cls-7{fill:#c09a80;}.cls-8{fill:#d3a789;}.cls-9{fill:#e0b89b;}.cls-10{fill:#c7696e;}.cls-11{fill:#d87373;}.cls-12{fill:#f8fbf5;}.cls-13{fill:#c06aa5;}</style><clipPath id="clip-path"><rect class="cls-1" x="63.57" y="96.66" width="17.49" height="10.34"/></clipPath></defs><title>Asset 146</title><g id="Layer_2" data-name="Layer 2"><g id="Layer_1-2" data-name="Layer 1"><rect class="cls-2" width="145.36" height="145.95"/><path class="cls-3" d="M106.65,79.89c0-20.39-8.22-36.39-27.16-36.39a32.1,32.1,0,0,0-7.76,1V44.4a31.53,31.53,0,0,0-7.75-1c-18.94,0-24.52,6.72-24.52,27.13l-2.65,9.28c0,18.88-4.88,39.36,18.52,31.53,1.88-.64,3.48-.94,5.47.53,1.32,1,3.5-1,3.5-1a47.28,47.28,0,0,0,7.43-.58v.09a47.28,47.28,0,0,0,7.43.58s2.18,1.93,3.5,1c2-1.47,3.59-1.16,5.46-.53,23.41,7.83,18.53-12.65,18.53-31.55"/><path class="cls-4" d="M72.28,86.05v58.06H40.71l-.77-.33c0-31.15,19.32-33.47,19.32-33.47h.16a3.52,3.52,0,0,0,.42-.09c1.46-.39,2.5-2.43,3.23-5.4a7.71,7.71,0,0,0,.18-.76,18.34,18.34,0,0,0,.32-1.81c.18-1.06.34-2.19.46-3.37.06-.7.13-1.41.19-2.14.29-3.57.38-7.44.38-11.11,0,0,4.24.42,7.68.42"/><path class="cls-5" d="M104.73,143.78s-.28.11-.75.33H72.28V86.05h.07c3.43,0,7.7-.42,7.7-.42,0,3.65.09,7.48.38,11,.06.71.13,1.42.19,2.11.14,1.21.27,2.36.45,3.44v0c.06.49.15.94.24,1.38s.18.84.29,1.22c.64,2.63,1.52,4.53,2.76,5.22a3.07,3.07,0,0,0,.34.14,2.08,2.08,0,0,0,.71.13s19.32,2.32,19.32,33.47"/><g class="cls-6"><path class="cls-7" d="M81.06,102.21v0A10.18,10.18,0,0,1,72.33,107h0a11,11,0,0,1-8.71-4.74c.18-1.06.34-2.19.45-3.37.06-.71.13-1.4.2-2.14a34.91,34.91,0,0,0,8,1h.09a32.78,32.78,0,0,0,8.14-1.13c.07.71.13,1.42.2,2.11.13,1.21.26,2.36.44,3.44"/></g><path class="cls-8" d="M72.25,23.65c-32.94-.06-33.13,26.42-31.67,43.68-2.26-4-8.94-2.55-8.4,3.94.53,6.22,10,9,9.84,8.35,2.69,14.07,18.22,21.87,30.23,23h.25V23.66h-.25"/><path class="cls-7" d="M33.84,68.53a3.26,3.26,0,0,1,4.83-.88,2.57,2.57,0,0,1,.79,2.89c-.24.83-1.17.89-.94,2.16a2.27,2.27,0,0,0,1.34,1.85A3,3,0,0,1,41,75.72a3,3,0,0,1,.14,1.79c-.25,1-1.82.21-2.88-.25a19.3,19.3,0,0,1-3.46-2.67c-1.4-1.5-2-4.39-.95-6.06"/><path class="cls-9" d="M72.41,23.65c33-.06,33.14,26.42,31.67,43.68,2.27-4,9-2.55,8.4,3.94-.52,6.22-10,9-9.84,8.35-2.69,14.07-18.22,21.87-30.23,23h-.25V23.66h.25"/><path class="cls-7" d="M111.06,68.53a3.26,3.26,0,0,0-4.83-.88,2.54,2.54,0,0,0-.78,2.89c.23.83,1.15.89.93,2.16A2.27,2.27,0,0,1,105,74.55a3,3,0,0,0-1.13,1.17,3,3,0,0,0-.15,1.79c.26,1,1.83.21,2.89-.25a19.23,19.23,0,0,0,3.45-2.67c1.41-1.5,2.06-4.39,1-6.06"/><path class="cls-4" d="M72.08,31.15c-11,0-19.06,3-23.93,9-6.81,8.36-6.55,21.14-4,30.3.76,2.81,1.16,10.36,1.69,13.13,2.37,12.41,16.77,19,26.27,19h.26V31.16h-.26"/><path class="cls-5" d="M96,40.19c-4.84-6-12.8-9-23.62-9v71.45c10.83-.11,23.78-7.34,26-19,.53-2.77.92-10.32,1.69-13.13,2.5-9.14,2.75-21.9-4.08-30.29"/><path class="cls-10" d="M77.87,91.42s-2.48,2.65-5.54,2.65-5.42-2.6-5.42-2.6a34.84,34.84,0,0,1,5.42-.41,43,43,0,0,1,5.54.36"/><path class="cls-11" d="M73.89,90.19a1.43,1.43,0,0,0-1.56,1.2,1.45,1.45,0,0,0-1.58-1.2,22.06,22.06,0,0,0-4,1.23s3,.31,3.9.31,1.63.35,1.66-.3c0,.65.63.39,1.49.39s4.05-.4,4.05-.4a21.8,21.8,0,0,0-4-1.23"/><path class="cls-12" d="M104.78,143.78s-.3.11-.76.33H40.67l-.78-.33a60.94,60.94,0,0,1,.8-10.2c3.66-21.52,18.56-23.32,18.56-23.32h.15a3.1,3.1,0,0,0,.42-.08c1.47-.41,2.45-3.79,3.18-6.75,0,0,6.89,2.21,9.19,2.21s9.37-2.21,9.37-2.21c.64,2.63,1.58,5.88,2.82,6.56a1.63,1.63,0,0,0,.34.14,1.87,1.87,0,0,0,.71.13s19.35,2.32,19.35,33.52"/><path class="cls-4" d="M48.68,133.6v10.51h-8l-.77-.33a60.52,60.52,0,0,1,.8-10.18Z"/><path class="cls-4" d="M96,133.6v10.51h8l.77-.33a59.49,59.49,0,0,0-.8-10.18Z"/><path class="cls-3" d="M40.58,67.33S53,40,73.16,50.64c0,0,22.12-14.23,29.3,11.9l1.62,4.79a35.3,35.3,0,0,0-3.94-32S94.66,22.18,73.32,22.59C73.32,22.59,32.15,20.25,40.58,67.33Z"/><path class="cls-13" d="M70,130.38a3.58,3.58,0,0,1-1.46.29c-2.21,0-4-1.89-5.86-2.3l2.69-12.78c-.23,0-.46,0-.7,0-2.91,0-6.12,2.26-6.12,4.63,0,1.28.66,1.72,1.87,1.72a2.43,2.43,0,0,1-.25-1.21,4,4,0,0,1,2.44-3.88L60,129.16a2.61,2.61,0,0,1,.4,0c3.08,0,5.27,4,7.77,4C69.15,133.18,69.85,132.09,70,130.38Z"/><path class="cls-13" d="M67.61,128.8c2.15,0,3.89-2.06,4.17-5.36a6.3,6.3,0,0,0,1.46-.41l-.59,2.85a4.47,4.47,0,0,0-.09.86,1.92,1.92,0,0,0,2.14,2.1c3.56,0,5-5,5-7.82,0-.78-.26-1.55-1.09-1.55s-1.09.41-1.09,1c0,.39.21.9.63.9.14,0,.51,0,.56-.17,0,2-1.31,5.94-3,5.94a.53.53,0,0,1-.59-.59,3.73,3.73,0,0,1,.09-.64l1.25-6H73.9l-.49,2.38a3.86,3.86,0,0,1-1.39.34.47.47,0,0,1-.19,0c0-1.87-.73-2.85-2.23-2.85-3.59,0-4.77,4.27-4.77,6.32A2.5,2.5,0,0,0,67.61,128.8Zm2.13-8c.45,0,.63.28.66,1a1,1,0,0,0-.54,1c0,.36.11.66.47.75-.28,2.1-1.16,3.7-2,3.7-.66,0-.89-.27-.89-1.44C67.42,124,68.5,120.76,69.74,120.76Z"/><path class="cls-13" d="M82.27,125.67c0-.16,0-.36,0-.53a4.08,4.08,0,0,0,4-3.76c0-.89-.37-1.71-1.92-1.71-3.57,0-4.7,4.29-4.7,6.34s1.08,2.83,2.7,2.83a2.82,2.82,0,0,0,3-2.64,3.52,3.52,0,0,1-2.05,1C82.74,127.15,82.27,126.79,82.27,125.67Zm2.26-5c.33,0,.44.28.44.72a2.94,2.94,0,0,1-2.55,2.94C82.79,122.59,83.66,120.62,84.53,120.62Z"/><path class="cls-13" d="M68.3,136.12c0-.35-.14-.68-.77-.68-1.44,0-1.9,1.72-1.9,2.55,0,0,0,0,0,0-.12.25-.25.41-.5.41s-.28-.12-.28-.3c0-.4.34-1.27.34-1.85a.72.72,0,0,0-.78-.81,1,1,0,0,0-.82.4l.38-1.8-1,.14-.75,3.59h0c-.11.36-.36.63-.64.63s-.29-.06-.29-.26a1,1,0,0,1,0-.23l.45-2.15h.42l.06-.29H61.8l.24-1.13-1,.14-.21,1h-.23l-.06.29h.23l-.42,2a2.88,2.88,0,0,0-.06.47c0,.6.33.86.76.86a1.31,1.31,0,0,0,1-.48l-.09.44h1l.48-2.33c.05-.2.26-.64.54-.64s.26.13.26.37c0,.46-.32,1.34-.32,1.83a.75.75,0,0,0,.83.81,1.12,1.12,0,0,0,1-.63,1,1,0,0,0,1,.63,1.15,1.15,0,0,0,1.22-1.06,1.46,1.46,0,0,1-.83.38c-.25,0-.44-.15-.44-.6a1.65,1.65,0,0,1,0-.21A1.63,1.63,0,0,0,68.3,136.12Zm-.71-.3c.13,0,.17.11.17.29a1.2,1.2,0,0,1-1,1.19C66.88,136.61,67.24,135.82,67.59,135.82Z"/><path class="cls-13" d="M80.64,136a.5.5,0,0,0-.49-.54,1.35,1.35,0,0,0-.85.45l.09-.45h-1l-.47,2.3h0a1.59,1.59,0,0,1-1.24.73c-.34,0-.5-.12-.5-.61,0-.79.45-2.1.9-2.1.13,0,.19.11.19.29a1.4,1.4,0,0,1-.08.42.42.42,0,0,0,.24.09c.21,0,.37-.17.37-.52s-.15-.66-.78-.66c-1.37,0-1.85,1.6-1.88,2.46a1.5,1.5,0,0,1-1.15.63c-.34,0-.51-.12-.51-.61,0-.08,0-.18,0-.28a1.65,1.65,0,0,0,1.62-1.52c0-.35-.15-.68-.78-.68-1.37,0-1.85,1.57-1.89,2.43a2.81,2.81,0,0,1-.42.29.8.8,0,0,0,0-.27c0-.47-.07-.75-.15-2.61l-1,.14a11.37,11.37,0,0,1-.86,2.12.76.76,0,0,0-.38.67.93.93,0,0,0,1,.92,1.5,1.5,0,0,0,1.1-.43,4.2,4.2,0,0,0,.7-.52,1,1,0,0,0,1.09.95,2,2,0,0,0,1.61-.88,1,1,0,0,0,1.08.88,2.08,2.08,0,0,0,1.6-.84l-.17.8h1l.56-2.73a.74.74,0,0,1,.51-.27c.22,0,0,.47.41.47A.5.5,0,0,0,80.64,136Zm-6.27-.22c.14,0,.18.11.18.29a1.2,1.2,0,0,1-1,1.19C73.67,136.58,74,135.82,74.37,135.82Zm-4,2.74c-.3,0-.42-.16-.42-.5a.19.19,0,0,0,.18.09.33.33,0,0,0,.31-.35.27.27,0,0,0-.16-.25,8.65,8.65,0,0,0,.57-1.35c.07,1.1.13,1.32.13,1.7A.58.58,0,0,1,70.4,138.56Z"/><path class="cls-13" d="M85,134.37l-1,.14-.21,1h-.23l-.06.29h.23l-.42,2h0a1.6,1.6,0,0,1-1.24.73c-.34,0-.5-.12-.5-.61,0-.08,0-.18,0-.28a1.64,1.64,0,0,0,1.61-1.52c0-.35-.14-.68-.77-.68-1.44,0-1.89,1.72-1.89,2.55a1,1,0,0,0,1.09,1.14,2.09,2.09,0,0,0,1.67-.94.59.59,0,0,0,0,.13c0,.46.21.81.7.81.24,0,.55-.09.75-.7a.58.58,0,0,1-.18,0c-.19,0-.25-.11-.25-.26a1.13,1.13,0,0,1,0-.25l.46-2.15h.41l.06-.29h-.42C84.89,134.85,85,134.37,85,134.37Zm-2.59,1.45c.13,0,.17.11.17.29a1.2,1.2,0,0,1-1,1.19C81.7,136.58,82.05,135.82,82.41,135.82Z"/><path class="cls-13" d="M70.8,132.56a2.27,2.27,0,0,0,0,.42c0,.54.3.77.67.77a1.22,1.22,0,0,0,.94-.47.86.86,0,0,0,.84.47,1.15,1.15,0,0,0,1.25-1.11c0-.42-.06-.68-.14-2.34l-.93.13a9.71,9.71,0,0,1-.77,1.9.66.66,0,0,0-.33.6h0a.5.5,0,0,1-.37.2c-.17,0-.25-.06-.25-.24a.86.86,0,0,1,0-.21l.45-2.18h-.9Zm2.11-.22a6.72,6.72,0,0,0,.51-1.22c.07,1,.12,1.19.12,1.52s-.27.6-.54.6-.36-.13-.38-.38c0,0,0,0,0,0a.2.2,0,0,0,.14.06.31.31,0,0,0,.28-.32A.23.23,0,0,0,72.91,132.34Z"/><path class="cls-13" d="M72.36,129.65a.51.51,0,0,0-.51-.52.51.51,0,0,0-.5.52.5.5,0,0,0,.5.5A.5.5,0,0,0,72.36,129.65Z"/></g></g></svg>