<svg xmlns="http://www.w3.org/2000/svg" viewBox="0 0 145.36 145.95"><defs><style>.cls-1{fill:#965458;}.cls-2{fill:#2b1f17;}.cls-3{fill:#f2d1ac;}.cls-4,.cls-6{fill:#c09a80;}.cls-4{opacity:0.7;}.cls-5{fill:#d3a789;}.cls-7{fill:#e0b89b;}.cls-8{fill:#e1bf9c;}.cls-9{fill:#c6696e;}.cls-10{fill:#d87373;}.cls-11,.cls-13{fill:none;}.cls-11{stroke:#231f20;stroke-miterlimit:10;stroke-width:0.5px;}.cls-12{fill:#050606;}.cls-14{fill:#dedddd;}.cls-15{fill:#473325;}.cls-16{fill:#fff;}</style></defs><title>Asset 162</title><g id="Layer_2" data-name="Layer 2"><g id="Layer_1-2" data-name="Layer 1"><rect class="cls-1" width="145.36" height="145.95"/><path class="cls-2" d="M78.3,78.77c-4.63,0-8.86,2.57-12.13,6.82C62.77,80.12,58,76.7,52.62,76.7,42.31,76.7,34,89.41,34,105.08s8.36,28.38,18.67,28.38c4.64,0,8.87-2.58,12.13-6.83,3.41,5.46,8.21,8.89,13.55,8.89,10.32,0,18.68-12.71,18.68-28.38S88.62,78.77,78.3,78.77Z"/><path class="cls-3" d="M97,145.2a.68.68,0,0,0-.21.08c-.12.06-.29.12-.5.23H66.55V91.08h.07c3.21,0,7.22-.39,7.22-.39,0,3.42.1,7,.35,10.33,0,.29.06.58.08.85s.06.75.11,1.12.06.56.1.83c.1.83.21,1.64.33,2.41v0a9.77,9.77,0,0,0,.21,1.28c.12.63.27,1.21.41,1.77.61,2.14,1.39,3.67,2.45,4.27a2.33,2.33,0,0,0,.31.13,1.89,1.89,0,0,0,.67.12,13.89,13.89,0,0,1,3,.87,19,19,0,0,1,3.71,2A20.55,20.55,0,0,1,89.33,120a23.23,23.23,0,0,1,2.93,4,31.26,31.26,0,0,1,3,7.41,43.88,43.88,0,0,1,1.33,7.43,8.29,8.29,0,0,1,.12,1.14C96.91,141.65,97,143.37,97,145.2Z"/><path class="cls-4" d="M74.79,106.23v0a9.54,9.54,0,0,1-8.19,4.46h0a10.29,10.29,0,0,1-8.15-4.44c.16-1,.3-2,.41-3.15.06-.67.12-1.33.18-2a32,32,0,0,0,7.47,1h.09A30.23,30.23,0,0,0,74.19,101c.07.67.13,1.33.19,2C74.5,104.13,74.63,105.21,74.79,106.23Z"/><path class="cls-5" d="M66.53,32.6c-30.87-.06-31.05,24.75-29.68,40.94-2.12-3.81-8.38-2.39-7.86,3.69.48,5.82,9.34,8.46,9.22,7.82,2.52,13.18,17.07,20.5,28.32,21.54h.24v-74Z"/><path class="cls-6" d="M30.53,74.66a3.06,3.06,0,0,1,4.53-.82,2.37,2.37,0,0,1,.73,2.7c-.22.78-1.08.84-.87,2a2.12,2.12,0,0,0,1.25,1.72c.37.31.83.54,1.06,1.1a2.81,2.81,0,0,1,.14,1.68c-.24,1-1.71.2-2.71-.23a19.37,19.37,0,0,1-3.24-2.5C30.11,78.93,29.5,76.22,30.53,74.66Z"/><path class="cls-7" d="M66.69,32.6c30.88-.06,31.06,24.75,29.68,40.94,2.12-3.81,8.38-2.39,7.87,3.69-.49,5.82-9.34,8.46-9.22,7.82-2.52,13.18-17.08,20.5-28.33,21.54h-.24v-74Z"/><path class="cls-6" d="M102.91,74.66a3.06,3.06,0,0,0-4.53-.82,2.39,2.39,0,0,0-.73,2.7c.22.78,1.09.84.87,2a2.1,2.1,0,0,1-1.25,1.72c-.37.31-.83.54-1.06,1.1a2.89,2.89,0,0,0-.14,1.68c.24,1,1.72.2,2.71-.23a18.59,18.59,0,0,0,3.24-2.5C103.34,78.93,103.94,76.22,102.91,74.66Z"/><path class="cls-8" d="M66.37,39.62c-10.31,0-17.86,2.84-22.43,8.46-6.38,7.83-6.13,19.81-3.78,28.4.72,2.63,1.09,9.72,1.59,12.31,2.22,11.63,15.73,17.82,24.62,17.82h.24v-67Z"/><path class="cls-3" d="M88.75,48.09c-4.53-5.58-12-8.42-22.14-8.46v67c10.16-.1,22.3-6.89,24.39-17.81.49-2.59.86-9.68,1.58-12.31C94.93,67.91,95.16,56,88.75,48.09Z"/><path class="cls-9" d="M71.8,96.1s-2.33,2.49-5.2,2.49a7.77,7.77,0,0,1-5.07-2.44,33.94,33.94,0,0,1,5.07-.37A42.64,42.64,0,0,1,71.8,96.1Z"/><path class="cls-10" d="M68.07,95a1.35,1.35,0,0,0-1.47,1.13A1.35,1.35,0,0,0,65.13,95a21,21,0,0,0-3.74,1.15s2.85.3,3.67.3,1.52.32,1.54-.28c0,.61.6.37,1.41.37s3.79-.39,3.79-.39A20.59,20.59,0,0,0,68.07,95Z"/><line class="cls-11" x1="67.03" y1="116.73" x2="67.03" y2="145.51"/><path class="cls-12" d="M85.62,116.72h-38a19.18,19.18,0,0,1,4.56-2.36h0v0a38.82,38.82,0,0,1,2.74-5H75.43c.61,2.14,1.39,3.67,2.45,4.27a2.33,2.33,0,0,0,.31.13,1.89,1.89,0,0,0,.67.12,10.53,10.53,0,0,1,2,.48c.33.1.7.23,1.1.39A19,19,0,0,1,85.62,116.72Z"/><path class="cls-13" d="M96.64,138.89H36.57a44.81,44.81,0,0,1,.73-4.77c.18-.94.39-1.81.64-2.66H95.31A43.88,43.88,0,0,1,96.64,138.89Z"/><path class="cls-12" d="M96.76,140v-1.14h-.12a43.88,43.88,0,0,0-1.33-7.43,31.26,31.26,0,0,0-3-7.41,23.23,23.23,0,0,0-2.93-4,20.55,20.55,0,0,0-3.71-3.28,19,19,0,0,0-3.71-2,13.89,13.89,0,0,0-3-.87,1.89,1.89,0,0,1-.67-.12,2.33,2.33,0,0,1-.31-.13c-1.06-.6-3.3-5.72-3.42-6.35l-.48,0c-3.23.35-5.41.54-7,0l-.48,0-6.95-1.39c-.41-.14-.78-.29-1.08-.41-.6-.23-.93-.42-1-.44s.1.62-1.79,3.16c-.29.37-.56.76-.83,1.18a38.82,38.82,0,0,0-2.74,5v0h0c-.43.16-.93.36-1.46.6l-.15.07-.73.36-.48.26-.52.29c-.4.23-.81.5-1.22.78h0l-.06,0c-.34.23-.68.49-1,.76L46,118l-.31.27c-.3.27-.6.54-.9.85h0c-.27.27-.54.55-.81.85-.09.1-.18.19-.27.3-.25.28-.5.59-.74.9l-.22.28c-.28.36-.55.75-.82,1.15h0a28,28,0,0,0-2.56,4.81l-.06.15a34.82,34.82,0,0,0-1.57,4.84c-.14.56-.27,1.12-.39,1.72-.17.77-.31,1.58-.44,2.42-.08.57-.15,1.17-.21,1.76,0,.2-.06.39-.08.59v0c0,.26,0,.52-.07.78-.07.77-.13,1.56-.17,2.37v.18c0,.95-.07,1.93-.07,2.95l.71.31H96.26c.21-.11.38-.17.5-.23a.68.68,0,0,1,.21-.08C97,143.37,96.91,141.65,96.76,140Z"/><path class="cls-14" d="M69.9,127.83a3.13,3.13,0,1,1-3.13-3.13A3.13,3.13,0,0,1,69.9,127.83Z"/><path class="cls-14" d="M69.9,141.73a3.13,3.13,0,1,1-3.13-3.12A3.12,3.12,0,0,1,69.9,141.73Z"/><path class="cls-15" d="M60.56,49.12c-4.57,8.72-4.21,7.26-10,16S38.14,87,37.75,95.14c-1.18,24.75,11,38.88,11,38.88s-12.36-6.79-12.7-12.72,5.82,4,3.75,7.79c-4.28,7.92,1.55,14.79,1.55,14.79s-8.35-2-9.7-9.23.79-6.63,1-5.3c1,6.17-4.91,10.68-4.91,10.68s3-5.48-.24-21.93c-1.45-7.52-1.79-11.64-1.79-22s-12-69.65,37.71-77a49,49,0,0,1,5.59,0c.5,0,41,.72,38.2,48.79-1,17.81,0,40.79,1.54,44.69s-3.21-5-3.72-6.86-2.54-8.35-2.54-8.35A35.56,35.56,0,0,1,104.27,110c-.33,5.24-5.46,16.9-5.46,20.35,0,7.78,2.47,11.68,2.47,11.68s-4.22-2.09-5.07-6.54a12,12,0,0,1,.77-7.46,25.7,25.7,0,0,1-2.89,10.67,16.28,16.28,0,0,1-4.76,6.12s3.78-6.12,2.91-10.3c-.49-2.36-3.16-10.42-3.16-13.94s1.77-9.7,1.77-9.7.79,7.23-1.56,11.77c-2.93,5.64-6.55,7.89-6.55,7.89a41.94,41.94,0,0,0,6.25-21,133.23,133.23,0,0,1,2.56-13.87c.34-.57,2.35-12.1,1.84-15.81s-5.75-18.54-5.75-18.54a13.42,13.42,0,0,1-2.28,3.19c-3.32,2.73-5,2.27-5,2.27a19,19,0,0,0,2.12-4.93,26,26,0,0,0,.45-3.18s.16,2.08-3.43,5.06A32.85,32.85,0,0,1,75,66.65s3.45-4.37,3.45-9.19a34.27,34.27,0,0,0-2-10.17s3,4.3,2.32,7.45-.47,3.48-2.42,5.88a23.47,23.47,0,0,1-7.18,6S73,61.66,72.92,55.7c0-1.67,0-6.56,0-6.56s-.33,3.59-3.37,9.15a20,20,0,0,1-7.32,7s2.22-2.5,4.27-8.72c1.1-3.35.91-10.38.91-10.38s.5,7-3.4,10.9A57.4,57.4,0,0,1,48.89,67.77Z"/><path class="cls-16" d="M80.81,114.3a1.42,1.42,0,0,1-.11.33,5.9,5.9,0,0,1-2.44,2.09A25.24,25.24,0,0,1,67,119.92a3.84,3.84,0,0,1-.48,0,18.09,18.09,0,0,1-6.95-1.1c-2.3-.87-3.94-1.55-5.08-2.1a14.66,14.66,0,0,1-2.35-1.26c-.54-.41-.28-.5-.28-.5s.08-.22.26-.6c0,0,0,0,0,0a38.82,38.82,0,0,1,2.74-5c.27-.42.54-.81.83-1.18,1.89-2.54,1.85-3.05,1.79-3.16s.39.21,1,.44c.3.12.67.27,1.08.41a28.57,28.57,0,0,0,6.95,1.39l.48,0a33.54,33.54,0,0,0,7.87-.37c.51-.06,1-.15,1.57-.25a29.55,29.55,0,0,1,2.22,2.7C79.87,111,81.06,113,80.81,114.3Z"/></g></g></svg>