<svg xmlns="http://www.w3.org/2000/svg" xmlns:xlink="http://www.w3.org/1999/xlink" viewBox="0 0 145.36 145.95"><defs><style>.cls-1{fill:none;}.cls-2{fill:#965458;}.cls-3{fill:#e2bf9c;}.cls-4{fill:#f2d1ac;}.cls-5{clip-path:url(#clip-path);}.cls-6{fill:#c09a80;}.cls-7{fill:#d3a789;}.cls-8{fill:#e0b89b;}.cls-9{fill:#d04d30;}.cls-10{fill:#232323;}.cls-11{fill:#231f20;}.cls-12{fill:#070808;}.cls-13{fill:#0e0e10;}.cls-14{fill:#7f4c50;}</style><clipPath id="clip-path"><rect class="cls-1" x="68.15" y="98.48" width="17.49" height="10.33"/></clipPath></defs><title>Asset 151</title><g id="Layer_2" data-name="Layer 2"><g id="Layer_1-2" data-name="Layer 1"><rect class="cls-2" width="145.36" height="145.95"/><path class="cls-3" d="M76.85,87.88v58.06H45.27a7.47,7.47,0,0,0-.77-.33c0-31.15,19.33-33.5,19.33-33.5a1.56,1.56,0,0,0,.59-.08c1.6-.47,2.66-2.77,3.39-6.13a16.36,16.36,0,0,0,.33-1.82c.19-1.06.34-2.19.46-3.36.05-.71.12-1.42.19-2.16.28-3.55.37-7.43.37-11.11,0,0,4.26.43,7.69.43"/><path class="cls-4" d="M109.3,145.6s-.29.11-.75.33H76.85V87.87h.06c3.43,0,7.71-.42,7.71-.42,0,3.65.08,7.48.37,11,.07.69.14,1.4.2,2.09.14,1.23.26,2.38.44,3.46v0c.07.48.16.93.25,1.37.81,4,2.1,6.7,4.09,6.7,0,0,19.33,2.33,19.33,33.48"/><g class="cls-5"><path class="cls-6" d="M85.63,104v0a10.19,10.19,0,0,1-8.75,4.76h0a11,11,0,0,1-8.7-4.74c.18-1.07.32-2.19.44-3.36.06-.71.13-1.42.2-2.16a34.34,34.34,0,0,0,8,1h.1A32.79,32.79,0,0,0,85,98.48c.07.69.14,1.4.2,2.09.14,1.23.26,2.38.44,3.46"/></g><path class="cls-7" d="M76.38,21.27c-33.44,0-33.63,28-32.15,46.31-2.29-4.34-9.07-3-8.52,3.84.53,6.58,10.12,10,10,9.23,2.74,15.08,18.47,23.78,30.68,23.78h.26V21.27h-.26"/><path class="cls-6" d="M37.85,68.52a3.17,3.17,0,0,1,4.83-.91,2.76,2.76,0,0,1,.78,3c-.23.88-1.16,1-.93,2.29a2.35,2.35,0,0,0,1.34,1.93A3,3,0,0,1,45,76.1,3.32,3.32,0,0,1,45.14,78c-.25,1.08-1.83.23-2.88-.26a20.1,20.1,0,0,1-3.46-2.81c-1.41-1.58-2-4.62-.95-6.39"/><path class="cls-8" d="M76.55,21.27c33.43,0,33.62,28,32.13,46.31,2.3-4.34,9.07-3,8.52,3.84-.54,6.58-10.12,10-10,9.23-2.74,15.08-18.48,23.78-30.67,23.78h-.26V21.27h.26"/><path class="cls-6" d="M115.07,68.52a3.17,3.17,0,0,0-4.83-.91,2.76,2.76,0,0,0-.78,3c.24.88,1.16,1,.93,2.29a2.35,2.35,0,0,1-1.33,1.93,3.07,3.07,0,0,0-1.14,1.24,3.4,3.4,0,0,0-.14,1.88c.25,1.08,1.83.23,2.89-.26a20.43,20.43,0,0,0,3.45-2.81c1.41-1.58,2-4.62.95-6.39"/><path class="cls-3" d="M76.65,29.22c-11,0-19.06,3.2-23.94,9.51-6.81,8.8-6.55,22.26-4,31.91.77,3,1.17,10.91,1.7,13.84,2.37,13.06,16.78,20,26.28,20h.24V29.22h-.24"/><path class="cls-4" d="M100.52,38.74c-4.83-6.26-12.79-9.46-23.63-9.52v75.27c10.84-.13,23.8-7.75,26-20,.51-2.92.91-10.88,1.69-13.84,2.5-9.63,2.74-23.07-4.09-31.9"/><path class="cls-9" d="M76.85,139.5v6.44H45.27a7.47,7.47,0,0,0-.77-.33c0-31.15,19.33-33.5,19.33-33.5a1.56,1.56,0,0,0,.59-.08c.52,1.18,1.94,1.18,4.32,3.21,3.13,2.7,7.61,9.14,7.88,13.9.14,2.44.2,6.69.23,10.36"/><path class="cls-9" d="M76.76,139.5v6.44H108.6a8.06,8.06,0,0,1,.78-.33c0-31.15-19.49-33.5-19.49-33.5a1.59,1.59,0,0,1-.6-.08c-.51,1.18-2,1.18-4.36,3.21-3.15,2.7-7.67,9.14-7.94,13.9-.14,2.44-.21,6.69-.23,10.36"/><polygon class="cls-10" points="77.59 145.94 75.94 145.94 75.96 127.9 77.61 127.9 77.59 145.94"/><path class="cls-11" d="M70.23,141.16l-1.07-.28a39.59,39.59,0,0,0,1.2-10.95c0-.34,0-.69,0-1.06-.09-1.93-.19-4.32,1.27-5.85l.8.77c-1.13,1.18-1.05,3.23-1,5,0,.39,0,.74,0,1.08a41.75,41.75,0,0,1-1.24,11.26"/><path class="cls-11" d="M83.07,143.8H82c0-2,0-4-.1-6,0-1.4-.09-2.79-.09-4.19,0-.48,0-1,0-1.46a24.13,24.13,0,0,0-.71-7.22l1.06-.32a24.93,24.93,0,0,1,.75,7.55c0,.48,0,.95,0,1.44,0,1.4.06,2.78.09,4.17.07,2,.14,4,.11,6"/><path class="cls-12" d="M57.19,113.86c-3.34,4.42-7,3.92-7,3.92s6.1,5.13,8.44,5.12c12.87-.05,17,4.55,18,6.24.29.48.53-.36.14-1.76-1-3.5-4.2-11-7.52-12.94a4.84,4.84,0,0,1-2-6.48,55.55,55.55,0,0,0-6.86,2.68,18.57,18.57,0,0,0-3.23,3.22"/><path class="cls-12" d="M96.49,113.86c3.35,4.42,7,3.92,7,3.92s-6.1,5.13-8.45,5.12c-12.86-.05-16.94,4.55-18,6.24-.28.49-.5-.3-.1-1.73,1-3.52,4.18-11,7.49-13a4.84,4.84,0,0,0,2-6.48,55.55,55.55,0,0,1,6.86,2.68,18.51,18.51,0,0,1,3.22,3.22"/><path class="cls-13" d="M69.87,144.25a.94.94,0,1,1-1.83-.44l.53-2.22a1,1,0,0,1,1.13-.7.94.94,0,0,1,.7,1.13Z"/><path class="cls-13" d="M83.44,144.74a1,1,0,0,1-1,.93.94.94,0,0,1-.92-1l0-2.28a.94.94,0,0,1,1.87.05Z"/><circle class="cls-3" cx="72.62" cy="84.73" r="1.89"/><path class="cls-3" d="M74.5,90.53a1.89,1.89,0,1,1-1.88-1.89A1.88,1.88,0,0,1,74.5,90.53Z"/><path class="cls-14" d="M102.91,84.53,86,83.72a10.1,10.1,0,0,0-9.08-7h-.6a10.1,10.1,0,0,0-9.33,7l-16.58.84-3.16.16-.28.36a26.45,26.45,0,0,0,1.52,3.28c.12.21.24.42.37.63,4.18,7.1,11.52,12,18.94,14.13h0a1.17,1.17,0,0,0,.43.6c1.18,1,4.58,1.7,8.61,1.7h0c4.2,0,7.71-.78,8.72-1.84,0-.18,0-.37-.08-.56,7-2.14,13.9-6.65,18.09-13.19l.41-.66a25.64,25.64,0,0,0,2.14-4.48Zm-21.76,6a1.89,1.89,0,1,1-1.89-1.89A1.89,1.89,0,0,1,81.15,90.53Zm-1.89-7.68a1.89,1.89,0,1,1-1.89,1.88A1.89,1.89,0,0,1,79.26,82.85ZM74.5,90.53a1.89,1.89,0,1,1-1.88-1.89A1.88,1.88,0,0,1,74.5,90.53Zm-1.88-7.68a1.89,1.89,0,1,1-1.89,1.88A1.88,1.88,0,0,1,72.62,82.85ZM100.57,91C97.85,94,92.3,99.45,85.33,101.74l-.39.13c-1.46-.81-4.51-1.37-8-1.38h-.6c-3.42,0-6.33.61-7.7,1.42l-.13,0A28.91,28.91,0,0,1,56.85,96.2a46.14,46.14,0,0,1-7.23-7.07c.79.14,1.58.3,2.39.42A148.45,148.45,0,0,0,66.8,91a10.41,10.41,0,0,0,2.2,4,9.88,9.88,0,0,0,7.29,3.42h.6a10,10,0,0,0,7.85-4.44,10.65,10.65,0,0,0,1.37-2.91c6-.24,11.19-.66,14.91-1l.31,0C101.11,90.34,100.85,90.63,100.57,91Z"/></g></g></svg>