<svg xmlns="http://www.w3.org/2000/svg" width="248.907" height="249.92" viewBox="0 0 248.907 249.92">
  <g id="Group_2462" data-name="Group 2462" transform="translate(-727.503 -730.582)">
    <rect id="Rectangle_2694" data-name="Rectangle 2694" width="248.907" height="249.92" transform="translate(727.503 730.582)" fill="#e8411e"/>
    <g id="Group_2456" data-name="Group 2456" transform="translate(801.811 882.219)">
      <path id="Path_2732" data-name="Path 2732" d="M825.248,819.842v97.577H772.2c-.859-.375-1.3-.558-1.3-.558,0-52.343,32.477-56.247,32.477-56.247h.07c3.2-.077,5.248-4.2,6.623-10.492.226-.962.411-1.976.563-3.046.294-1.793.553-3.688.74-5.656.113-1.19.224-2.38.337-3.611.486-5.986.632-12.5.632-18.672C812.34,819.137,819.483,819.842,825.248,819.842Z" transform="translate(-770.898 -819.137)" fill="#901f18"/>
      <path id="Path_2733" data-name="Path 2733" d="M855.175,916.6v.264s-.264.111-.712.294h-.032c-.151.077-.336.158-.519.264H800.638V819.842h.111c5.766,0,12.947-.705,12.947-.705,0,6.141.147,12.572.63,18.528.113,1.183.226,2.375.334,3.533.226,2.05.447,3.979.743,5.8v.041c.113.818.264,1.562.411,2.3,1.379,6.736,3.534,11.274,6.885,11.274a28.688,28.688,0,0,1,10.673,4.241C842.822,870.728,855.1,884.533,855.175,916.6Z" transform="translate(-749.713 -819.137)" fill="#901f18"/>
    </g>
    <g id="Group_2457" data-name="Group 2457" transform="translate(786.224 771.019)">
      <path id="Path_2734" data-name="Path 2734" d="M830.182,754.2c-56.191,0-56.511,47.043-54.011,77.823-3.853-7.3-15.25-5.045-14.322,6.45.9,11.074,17.012,16.8,16.784,15.512,4.6,25.334,31.045,39.97,51.549,39.97.139,0,.288-.024.428-.024V754.207C830.466,754.207,830.321,754.2,830.182,754.2Z" transform="translate(-760.796 -754.197)" fill="#901f18"/>
    </g>
    <g id="Group_2458" data-name="Group 2458" transform="translate(854.459 771.019)">
      <path id="Path_2735" data-name="Path 2735" d="M802.072,754.2c56.193,0,56.511,47.043,54.016,77.823,3.851-7.3,15.254-5.045,14.32,6.45-.9,11.074-17.01,16.8-16.786,15.512-4.6,25.334-31.047,39.97-51.551,39.97-.137,0-.291-.024-.428-.024V754.207C801.791,754.207,801.935,754.2,802.072,754.2Z" transform="translate(-802.644 -754.197)" fill="#901f18"/>
    </g>
    <path id="Path_2736" data-name="Path 2736" d="M779.806,813.049c4.678,1.034,24.036,2.562,28.036-10.545" transform="translate(37.258 51.234)" fill="#901f18"/>
  </g>
</svg>
