<svg xmlns="http://www.w3.org/2000/svg" viewBox="0 0 145.36 145.95"><defs><style>.cls-1{fill:#ee837c;}.cls-2{fill:#9b5458;}.cls-3{fill:#24120b;}.cls-4{fill:#e1bf9c;}.cls-5{fill:#f2d1ac;}.cls-6,.cls-8{fill:#c09a80;}.cls-6{opacity:0.7;}.cls-7{fill:#d3a789;}.cls-9{fill:#e0b89b;}.cls-10{fill:#c6696e;}.cls-11{fill:#d87373;}.cls-12{fill:#2c0f0f;}.cls-13{fill:#c66368;}.cls-14{fill:#422110;}.cls-15{fill:#414360;}</style></defs><title>Asset 194</title><g id="Layer_2" data-name="Layer 2"><g id="Layer_1-2" data-name="Layer 1"><rect class="cls-1" width="145.36" height="145.95"/><path class="cls-2" d="M87.82,110.58c0,1.63-6.46,3-11.88,3s-9.81-1.33-9.81-3,4.39-3,9.81-3S87.82,108.94,87.82,110.58Z"/><path class="cls-3" d="M69.84,100.26c0-.71-1.09-1.44-2.25-2.06l0-.1-1-1a11.25,11.25,0,0,0,1.08-4.45l-2.34-4.73-1.62,4.72c-.15.35-.28.66-.4,1L63,93.23c-.09.66-.13,1.19-.17,1.66s-.36.88-.55,1.29a27.48,27.48,0,0,0-.9-3.08l-.32.26a22.56,22.56,0,0,0-1.16-4.49c-.85.69-1.49,1.24-2,1.72.18-1.43.2-2.74.2-2.74l-1,.31a21.47,21.47,0,0,0,.65-4.89c-5.4,1.71-4.28,2.2-12.41,2-5.63-.13-7.14-1.66-7.14-1.66a21.74,21.74,0,0,0,9.09,6.26l-1.64,0c-5.62-.13-7.14-1.65-7.14-1.65S43.21,94,49.8,95l-.73.27c-5.28,1.92-7.25,1-7.25,1a21.94,21.94,0,0,0,10.43,2.54l-1.71.64c-5.28,1.92-7.25,1.05-7.25,1.05s6.51,3.69,13,2.2a86.89,86.89,0,0,1-9.53,5.58,79.11,79.11,0,0,0,12.3-4.09,2.12,2.12,0,0,1-.12.2c-4.5,7.84-6.57,10.2-6.57,10.2s7.68-5.25,11.19-9c-.29.95-.67,2.11-1.18,3.61-1.84,5.31-3.76,6.29-3.76,6.29S70.64,110.86,69.84,100.26Z"/><path class="cls-3" d="M83.9,99.37c0-.7,1.09-1.44,2.25-2.05l0-.11,1-1A11,11,0,0,1,86,91.73L88.36,87,90,91.73c.15.35.27.66.4,1l.35-.37c.09.66.14,1.2.18,1.66s.36.88.54,1.29a26.36,26.36,0,0,1,.91-3.08l.32.26A22.32,22.32,0,0,1,93.83,88c.86.69,1.5,1.25,2,1.72A26.47,26.47,0,0,1,95.66,87c.35.1.67.21,1,.31A21.47,21.47,0,0,1,96,82.39c5.41,1.71,4.28,2.19,12.42,2,5.62-.13,7.14-1.65,7.14-1.65a21.73,21.73,0,0,1-9.1,6.26l1.65,0c5.62-.12,7.14-1.65,7.14-1.65s-4.7,5.77-11.28,6.77l.73.27c5.28,1.92,7.24,1.06,7.24,1.06A22,22,0,0,1,101.48,98l1.72.63c5.28,1.93,7.25,1.05,7.25,1.05s-6.51,3.7-13,2.2a87.87,87.87,0,0,0,9.53,5.59,79.37,79.37,0,0,1-12.29-4.1,2.12,2.12,0,0,0,.12.2c4.49,7.84,6.57,10.21,6.57,10.21s-7.68-5.25-11.19-9c.28,1,.67,2.12,1.18,3.61,1.84,5.32,3.75,6.29,3.75,6.29S83.1,110,83.9,99.37Z"/><path class="cls-4" d="M77.1,91.36v54.42H47.51l-.72-.31c0-12.18,3.15-19.67,6.84-24.25,5.13-6.37,11.27-7.12,11.27-7.12h.15a1.83,1.83,0,0,0,.39-.09c1.5-.41,2.51-2.61,3.19-5.76a16.56,16.56,0,0,0,.32-1.7c.16-1,.31-2.06.41-3.16.07-.66.13-1.33.19-2,.27-3.34.35-7,.35-10.42C69.9,91,73.89,91.36,77.1,91.36Z"/><path class="cls-5" d="M107.52,145.47l-.71.31H77.1V91.36h.07c3.21,0,7.22-.4,7.22-.4,0,3.43.07,7,.35,10.34l.18,2c.13,1.14.25,2.22.42,3.24v0c.06.45.14.86.23,1.28.62,3,1.53,5.29,2.86,6a2,2,0,0,0,.31.12,1.7,1.7,0,0,0,.67.13s6.47.77,11.67,7.63C104.59,126.36,107.52,133.73,107.52,145.47Z"/><path class="cls-6" d="M85.34,106.52v0a9.58,9.58,0,0,1-8.2,4.46h0A10.32,10.32,0,0,1,69,106.56c.17-1,.31-2.06.41-3.16.07-.66.13-1.33.19-2a32.5,32.5,0,0,0,7.47,1h.09a30.82,30.82,0,0,0,7.63-1.06c.06.66.12,1.33.19,2C85.05,104.42,85.17,105.5,85.34,106.52Z"/><path class="cls-7" d="M77.08,32.88C46.2,32.83,46,57.64,47.4,73.82,45.28,70,39,71.43,39.53,77.52c.49,5.82,9.34,8.45,9.22,7.81,2.52,13.19,17.08,20.51,28.33,21.55h.24v-74Z"/><path class="cls-8" d="M41.08,74.94a3.06,3.06,0,0,1,4.53-.81,2.37,2.37,0,0,1,.73,2.69c-.22.79-1.09.85-.88,2a2.13,2.13,0,0,0,1.26,1.72,3,3,0,0,1,1.06,1.1,2.8,2.8,0,0,1,.13,1.68c-.23,1-1.71.19-2.7-.23A18.66,18.66,0,0,1,42,80.62C40.65,79.22,40,76.51,41.08,74.94Z"/><path class="cls-9" d="M77.23,32.88c30.88-.05,31.06,24.76,29.69,40.94,2.12-3.79,8.38-2.39,7.87,3.7-.5,5.82-9.35,8.45-9.22,7.81C103,98.52,88.49,105.84,77.23,106.88H77v-74Z"/><path class="cls-8" d="M113.45,74.94a3,3,0,0,0-4.52-.81,2.36,2.36,0,0,0-.74,2.69c.22.79,1.09.85.88,2a2.11,2.11,0,0,1-1.26,1.72,3,3,0,0,0-1.06,1.1,2.88,2.88,0,0,0-.13,1.68c.24,1,1.71.19,2.7-.23a18.66,18.66,0,0,0,3.24-2.51C113.88,79.22,114.49,76.51,113.45,74.94Z"/><path class="cls-4" d="M76.92,39.91c-10.31,0-17.86,2.84-22.43,8.45-6.38,7.84-6.14,19.82-3.78,28.41.71,2.63,1.08,9.71,1.58,12.31C54.52,100.7,68,106.9,76.92,106.9h.24v-67Z"/><path class="cls-5" d="M99.3,48.38c-4.53-5.58-12-8.42-22.14-8.47v67c10.15-.11,22.29-6.89,24.38-17.81.5-2.6.86-9.68,1.58-12.31C105.47,68.2,105.7,56.24,99.3,48.38Z"/><path class="cls-10" d="M82.35,96.39S80,98.88,77.14,98.88a7.77,7.77,0,0,1-5.07-2.44,33.07,33.07,0,0,1,5.07-.38A41.44,41.44,0,0,1,82.35,96.39Z"/><path class="cls-11" d="M78.62,95.24a1.36,1.36,0,0,0-1.48,1.13,1.34,1.34,0,0,0-1.46-1.13,20.74,20.74,0,0,0-3.74,1.15s2.85.3,3.66.3,1.53.32,1.54-.29c0,.61.6.38,1.41.38s3.8-.39,3.8-.39A20.59,20.59,0,0,0,78.62,95.24Z"/><path class="cls-12" d="M107.52,145.47l-.71.31H47.51l-.72-.31c0-12.18,3.15-19.67,6.84-24.25a16.18,16.18,0,0,0,11.54,8.38,105.86,105.86,0,0,0,11.93,1.51c6.18.46,12-.55,15.21-2.3a32.93,32.93,0,0,0,8.77-7.08C104.59,126.36,107.52,133.73,107.52,145.47Z"/><path class="cls-13" d="M71.67,119c-1.26,2-1.64,1.24-2.34,5.63-1.22,7.71,0,19.79,0,19.79s-7.34.39-8.9-3.16c-.31-.72-2.53.32-3.66,1.86-.58.78.94-17,3.21-21.37.44-.84,3.63-5.16,4.71-4.66S71.67,119,71.67,119Z"/><path class="cls-11" d="M68.55,108.63c-1.47,1.23-.46,2.49.61,3.07s3.09,1.14,7.9,1.14,8-1,8.87-1.85-.06-2-.06-2,2.53-.07,2.28,1.39a5.38,5.38,0,0,0,1.35,4.11c1,1.22,2.36.93,0,2.6-4,2.83-6.6,3.45-12.54,3.45s-8-.83-11-2.33c-2.14-1.06-3.64-1.88-2.09-3.26A8.81,8.81,0,0,0,66,112.22c.81-1.19-1.43-1.87-.06-2.79A4.37,4.37,0,0,1,68.55,108.63Z"/><path class="cls-14" d="M52.3,60.62c-1,8.37-1.95,6.79.5,18.86,1.69,8.33,4.25,10.29,4.25,10.29S40.76,79.69,43.76,64.24C44.22,61.87,52.3,60.62,52.3,60.62Z"/><path class="cls-14" d="M101.56,63.36c1.4,7.64,2.17,6.28.83,17-.94,7.43-3,9-3,9s13.64-8,10-22.15C108.74,65.06,101.56,63.36,101.56,63.36Z"/><path class="cls-15" d="M43.39,71.76S53.59,60.33,68.17,60.3s28.35,4.62,36.39,12.88S114,80.05,114,80.05a19.27,19.27,0,0,0,1.56-3.67c.93-3,3.29-4.34,3-6s-.93-6.57-.51-8.07-1.39-10.58-7.92-17.09S98,26.61,80.2,25.14s-15,3-18.8,3.86S50.53,29,44.25,42.83c-2.73,6-1.66,10.37-2.21,13.62-.71,4.25-2.54,6.61-2.54,8C39.49,67,43.39,71.76,43.39,71.76Z"/></g></g></svg>