<svg xmlns="http://www.w3.org/2000/svg" viewBox="0 0 145.36 145.95"><defs><style>.cls-1{fill:#8ebeb4;}.cls-2{fill:#ed1c24;}.cls-3{fill:#e1bf9c;}.cls-4{fill:#f2d1ac;}.cls-5,.cls-7{fill:#c09a80;}.cls-5{opacity:0.7;}.cls-6{fill:#d3a789;}.cls-8{fill:#e0b89b;}.cls-9{fill:#c6696e;}.cls-10{fill:#d87373;}.cls-11{fill:#9e1d24;}.cls-12{fill:#601212;}.cls-13{fill:#1e2859;}</style></defs><title>Asset 182</title><g id="Layer_2" data-name="Layer 2"><g id="Layer_1-2" data-name="Layer 1"><rect class="cls-1" width="145.36" height="145.95"/><path class="cls-2" d="M83.67,89.12a18.69,18.69,0,0,0-7.81,1.7,19,19,0,0,0-29.54,15.73c0,2.62-4.68,7.61-3.72,9.88a14.63,14.63,0,0,0,2.53,4.07c3.48,4.21,14.26,5,20.15,5a18.92,18.92,0,0,0,7.81-1.7,18.91,18.91,0,0,0,10.58,3.23c6.84,0,17.41-.58,20.74-6a20.46,20.46,0,0,0,1.45-3c.86-2.17-3.23-7.46-3.23-9.94A19,19,0,0,0,83.67,89.12Z"/><path class="cls-3" d="M75.45,91.32v54.43H45.86c-.48-.23-.73-.32-.73-.32a47.54,47.54,0,0,1,2.51-16.35c3.49-9.64,9.76-13.18,13.2-14.4a12.54,12.54,0,0,1,2.41-.64h.14a2.45,2.45,0,0,0,.39-.08c1-.27,1.79-1.35,2.41-3a18.82,18.82,0,0,0,.79-2.76c.12-.56.23-1.12.31-1.7.17-1,.31-2.06.42-3.17.06-.65.12-1.32.18-2,.28-3.36.36-7,.36-10.42C68.25,90.92,72.23,91.32,75.45,91.32Z"/><path class="cls-4" d="M105.86,145.43a5,5,0,0,0-.7.32H75.45V91.32h.06c3.21,0,7.22-.4,7.22-.4,0,3.41.08,7,.35,10.32.06.66.13,1.32.19,2,.12,1.12.25,2.22.41,3.22v0c.07.44.15.87.23,1.26A20.54,20.54,0,0,0,85,111.43h0a4.57,4.57,0,0,0,1.79,2.36,1.77,1.77,0,0,0,.31.15,2.34,2.34,0,0,0,.66.1,10.46,10.46,0,0,1,1.45.31c3.28,1,11.27,4.51,14.86,16.85a46.29,46.29,0,0,1,1.72,11.06C105.84,143.28,105.86,144.34,105.86,145.43Z"/><path class="cls-5" d="M83.67,106.46v0A9.54,9.54,0,0,1,75.48,111h0a10.38,10.38,0,0,1-8.15-4.44c.17-1,.31-2.06.42-3.16,0-.66.12-1.33.18-2a32.44,32.44,0,0,0,7.47,1h.08a30.37,30.37,0,0,0,7.64-1.06c.06.67.13,1.33.19,2C83.38,104.37,83.5,105.45,83.67,106.46Z"/><path class="cls-6" d="M75.41,32.83c-30.88-.06-31.06,24.75-29.68,40.94-2.13-3.8-8.39-2.39-7.87,3.69.49,5.82,9.34,8.46,9.22,7.82,2.52,13.18,17.08,20.51,28.33,21.55h.24v-74Z"/><path class="cls-7" d="M39.41,74.89a3,3,0,0,1,4.52-.82,2.38,2.38,0,0,1,.74,2.7c-.22.78-1.09.84-.87,2a2.12,2.12,0,0,0,1.25,1.73,2.72,2.72,0,0,1,1.06,1.09,2.81,2.81,0,0,1,.13,1.68c-.24,1-1.71.2-2.7-.22a19.16,19.16,0,0,1-3.24-2.51C39,79.16,38.38,76.45,39.41,74.89Z"/><path class="cls-8" d="M75.57,32.83c30.87-.06,31.05,24.75,29.68,40.94,2.12-3.8,8.38-2.39,7.87,3.69-.5,5.82-9.34,8.46-9.22,7.82-2.53,13.18-17.08,20.51-28.33,21.55h-.24v-74Z"/><path class="cls-7" d="M111.78,74.89a3,3,0,0,0-4.52-.82,2.38,2.38,0,0,0-.73,2.7c.22.78,1.08.84.87,2a2.11,2.11,0,0,1-1.26,1.73,2.76,2.76,0,0,0-1,1.09A2.82,2.82,0,0,0,105,83.3c.24,1,1.71.2,2.7-.22a18.77,18.77,0,0,0,3.24-2.51C112.21,79.16,112.82,76.45,111.78,74.89Z"/><path class="cls-3" d="M75.25,39.85c-10.32,0-17.86,2.85-22.43,8.46C46.44,56.15,46.68,68.12,49,76.72c.71,2.63,1.08,9.71,1.58,12.31,2.22,11.62,15.73,17.82,24.63,17.82l.24,0v-67Z"/><path class="cls-4" d="M97.63,48.32c-4.54-5.57-12-8.42-22.14-8.46v67c10.15-.1,22.29-6.88,24.38-17.8.5-2.6.87-9.68,1.59-12.31C103.8,68.15,104,56.19,97.63,48.32Z"/><path class="cls-9" d="M80.68,96.34s-2.33,2.49-5.2,2.49a7.73,7.73,0,0,1-5.07-2.44A32.9,32.9,0,0,1,75.48,96,41.37,41.37,0,0,1,80.68,96.34Z"/><path class="cls-10" d="M77,95.19a1.34,1.34,0,0,0-1.47,1.12A1.36,1.36,0,0,0,74,95.19a20.86,20.86,0,0,0-3.73,1.15s2.85.3,3.66.3,1.53.32,1.55-.29c0,.61.6.38,1.4.38s3.8-.39,3.8-.39A20.86,20.86,0,0,0,77,95.19Z"/><path class="cls-11" d="M106.26,96.32c-.15,2.72-.29,3,1,5.15s2.79,2.94,1.35,5.37-3.77,2.72-3.63,4.86,2.72,3.15,2.28,6c-.39,2.6-4.48,5.32-5.25,5.79.63-.45,3.26-2.55,2.89-5.19-.44-3-.77-3.15-3.9-4.85s-3.61-2.47-2.74-4.9,3.71-2.65,1.56-5.22S96.42,99,97,97.42s-.37-2.74,2.16-5.77c1.58-1.84,1.35-6,1.35-7.88S103,72.92,98.91,69c-.74-.7-2-2.32-3.54-4.19-1.25-1.53-2.68-3.26-4.12-4.77a22.67,22.67,0,0,1-3.75-5.94c-.93-2-1.54-3.64-1.68-4,0,.44.31,2.37.5,3.88.06.56.12,1.06.15,1.43a8.82,8.82,0,0,0,3.25,6.33c-1-.61-5.31-3.24-7-5.56a12.26,12.26,0,0,1-1.58-2.78,10.33,10.33,0,0,1-.21-7.62,37.72,37.72,0,0,1-5.12,6.52c-.19.19-.4.35-.6.54a71.18,71.18,0,0,1-8.08,5.56,21.42,21.42,0,0,0,4.42-5.85,8.89,8.89,0,0,0,.54-1.12c.54-1.29,2.72-8,2.72-8a98.81,98.81,0,0,1-5.52,9,32.85,32.85,0,0,1-5.89,6.49c-.83.67-1.95,1.58-3.19,2.64C55.67,65.28,49.42,71,48.87,74.14c-.71,4,1.28,12.74,2.57,16.31s1.43,4.73,0,6.16-5,4-4.42,5.29,2.72,3.42,2.28,5.15-5.12,5.83-5.72,8.15c-1,4.09,5.16,7.58,5.89,8-.75-.25-9.13-3.49-8.18-7.82.63-2.82.15-3.28-1.43-5.44s-3.86-5.72-1.72-7.86,5.15-4.59,4.44-7S34.2,75.78,34.2,69.82a52.89,52.89,0,0,1,1-8.87,71.89,71.89,0,0,1,2.68-10.07c2.43-6.83,6.16-13.63,11.83-17.31,12.16-7.86,20.73-9.08,25-8.09s8.65-.75,9.8-.29S96.7,30.28,100.84,35C104,38.64,112,47.54,115.41,57.87a29.28,29.28,0,0,1,1.66,9.42c0,.35,0,.7,0,1.06C116.53,81.92,106.4,93.66,106.26,96.32Z"/><path class="cls-12" d="M98.56,131.51c-4.23-7.22-7.2-12.33-8.51-16.83a12.54,12.54,0,0,0-2.41-.64H87.5a2.7,2.7,0,0,1-.39-.08c-1-.27-1.79-1.35-2.41-3a9.69,9.69,0,0,1-2.06.76c-2.63.76-7.07,1.87-7.07,1.87a105.22,105.22,0,0,1,4.29,10.69c1.75,5.08-1,8.9-4.41,9-3.39-.15-6.17-4-4.42-9a108.14,108.14,0,0,1,4.29-10.69s-4.44-1.11-7.07-1.87a9.91,9.91,0,0,1-2.06-.76c-.62,1.64-1.41,2.72-2.41,3a2.45,2.45,0,0,1-.39.08h-.14a12.54,12.54,0,0,0-2.41.64c-1.31,4.5-4.27,9.61-8.51,16.83-2.34,4-.72,11.2.65,14.24H97.92C99.28,143,100.91,135.51,98.56,131.51Z"/><path class="cls-13" d="M108.67,62.5a3.23,3.23,0,1,1-1.43-4.34A3.23,3.23,0,0,1,108.67,62.5Z"/><path class="cls-13" d="M91.68,53.9s1.84-8,4.13-8.15,11,13.26,10,15.3-17,2.9-18.23,1S91.68,53.9,91.68,53.9Z"/><path class="cls-13" d="M119.88,68.19S125.25,62,124,60s-17.19-1-18.22,1,7.69,15.4,10,15.28S119.88,68.19,119.88,68.19Z"/></g></g></svg>