<svg xmlns="http://www.w3.org/2000/svg" viewBox="0 0 145.36 145.95"><defs><style>.cls-1{fill:#d7878e;}.cls-2{fill:#050606;}.cls-3{fill:#e1bf9c;}.cls-4{fill:#f2d1ac;}.cls-5,.cls-7{fill:#c09a80;}.cls-5{opacity:0.7;}.cls-6{fill:#d3a789;}.cls-8{fill:#e0b89b;}.cls-9{fill:#35251d;}.cls-10{fill:#fef5f0;}</style></defs><title>Asset 200</title><g id="Layer_2" data-name="Layer 2"><g id="Layer_1-2" data-name="Layer 1"><rect class="cls-1" width="145.36" height="145.95"/><path class="cls-2" d="M56.4,82.62C55.8,82.18,45,75.5,45,75.5c.74,4.16,1.29,5.86.21,8.68-1,2.54-2.85,3.52-3.89,4.41a8.24,8.24,0,0,1-3.89,1.56A11.93,11.93,0,0,1,35.83,90s1.72,1,6,.76a6.79,6.79,0,0,0,3.71-1.06c-.85,1.38-1.65,3.36-.75,5.19,3.25,6.65-1.09,8.82-1.09,8.82s3.85-.38,6.06-2.33c0,0,0,.12,0,.16a4.83,4.83,0,0,0,3.57,3.7s-1.63-.27-1.32-3.37c.08-.82.94-1.14,2-1.7.42,3,1.76,6-1,7.27,0,0,4.7-.93,5.57-3.73a12.34,12.34,0,0,0,.31-1.46,7,7,0,0,1,.23.78c.67,3.57-2,7-2,7s9.78-1,9.85-4.92a18.93,18.93,0,0,1,.43-3.85c.29-.89.89-5.34.89-5.34S57,83.07,56.4,82.62Z"/><path class="cls-2" d="M96.86,82.62c.59-.44,11.42-7.12,11.42-7.12-.74,4.16-1.3,5.86-.21,8.68,1,2.54,2.85,3.52,3.89,4.41a8.24,8.24,0,0,0,3.89,1.56,12.14,12.14,0,0,0,1.58-.13s-1.72,1-6,.76a6.76,6.76,0,0,1-3.71-1.06c.85,1.38,1.65,3.36.75,5.19-3.25,6.65,1.09,8.82,1.09,8.82s-3.85-.38-6.06-2.33a.78.78,0,0,1,0,.16,4.82,4.82,0,0,1-3.56,3.7s1.63-.27,1.32-3.37c-.09-.82-.94-1.14-2-1.7-.42,3-1.76,6,1,7.27,0,0-4.71-.93-5.57-3.73a12.45,12.45,0,0,1-.32-1.46c-.07.26-.17.51-.22.78-.67,3.57,2,7,2,7s-9.78-1-9.85-4.92a19.67,19.67,0,0,0-.43-3.85C85.59,100.42,85,96,85,96S96.27,83.07,96.86,82.62Z"/><path class="cls-3" d="M76.62,88.18v57h-31l-.76-.32c0-30.57,19-32.85,19-32.85,1.89,0,3.1-2.43,3.91-6.12.13-.57.23-1.16.32-1.79.18-1,.33-2.15.44-3.3.06-.69.13-1.39.19-2.11.29-3.49.37-7.29.37-10.9C69.08,87.77,73.25,88.18,76.62,88.18Z"/><path class="cls-4" d="M108.47,144.84s-.28.11-.74.32H76.62v-57h.06c3.37,0,7.56-.41,7.56-.41,0,3.59.09,7.34.37,10.82.07.69.14,1.39.2,2.06.13,1.2.26,2.33.43,3.39v0c.07.48.15.91.24,1.35.81,3.93,2.07,6.58,4,6.58C89.5,112,108.47,114.27,108.47,144.84Z"/><path class="cls-5" d="M85.24,104v0a10,10,0,0,1-8.58,4.67h0a10.79,10.79,0,0,1-8.54-4.65c.18-1,.33-2.15.44-3.3.06-.69.13-1.39.19-2.11a33.77,33.77,0,0,0,7.83,1h.08a32.05,32.05,0,0,0,8-1.1c.07.69.14,1.39.2,2.06C84.94,101.85,85.07,103,85.24,104Z"/><path class="cls-6" d="M76.71,22.82c-32.82,0-33,27.48-31.54,45.45C42.92,64,36.26,65.33,36.8,72c.53,6.47,9.94,9.81,9.81,9.06,2.68,14.79,18.13,23.34,30.1,23.34H77V22.83Z"/><path class="cls-7" d="M38.9,69.2a3.1,3.1,0,0,1,4.74-.9,2.72,2.72,0,0,1,.77,3c-.23.86-1.14.93-.91,2.24a2.31,2.31,0,0,0,1.31,1.9,3,3,0,0,1,1.1,1.21,3.22,3.22,0,0,1,.15,1.85c-.25,1.06-1.8.22-2.83-.25a19.43,19.43,0,0,1-3.39-2.76C38.45,73.92,37.82,70.93,38.9,69.2Z"/><path class="cls-8" d="M76.87,22.82c32.82,0,33,27.48,31.54,45.45,2.25-4.26,8.91-2.94,8.37,3.77-.53,6.47-9.94,9.81-9.81,9.06-2.68,14.79-18.13,23.34-30.1,23.34h-.25V22.83Z"/><path class="cls-7" d="M114.68,69.2a3.1,3.1,0,0,0-4.74-.9,2.72,2.72,0,0,0-.77,3c.23.86,1.14.93.92,2.24a2.32,2.32,0,0,1-1.32,1.9,3,3,0,0,0-1.1,1.21,3.31,3.31,0,0,0-.15,1.85c.25,1.06,1.8.22,2.83-.25a19.49,19.49,0,0,0,3.4-2.76C115.13,73.92,115.77,70.93,114.68,69.2Z"/><path class="cls-3" d="M76.43,30.57c-10.8,0-18.7,3.14-23.49,9.33-6.68,8.64-6.42,21.84-4,31.32.75,2.9,1.14,10.71,1.66,13.57C53,97.61,67.11,104.44,76.43,104.44h.25V30.58Z"/><path class="cls-4" d="M99.86,39.91c-4.75-6.15-12.56-9.28-23.18-9.33v73.85c10.63-.12,23.34-7.6,25.53-19.64.51-2.86.9-10.67,1.66-13.57C106.32,61.77,106.56,48.58,99.86,39.91Z"/><path class="cls-2" d="M112.56,49.54a8,8,0,0,0-.69-1.33c-.63-4.69-3.94-14.07-7.19-18.78C101.3,24.54,93,20.21,82.38,18.91s-19.92,6.24-19.92,6.24A11.87,11.87,0,0,0,59.4,22c-1.41-.72-5.45.14-5.45.14s2.74.76,3.28,1.49a2.94,2.94,0,0,1,.55,2.64,19.86,19.86,0,0,0-4.62-1.42c-2.58-.07-5.47,3.2-5.47,3.2a9.23,9.23,0,0,1,4.72-1.64,12.51,12.51,0,0,1,2.85,1s-3.81.4-11,8.22a22.39,22.39,0,0,0-5.39,13.71l4.52-2.59a11.93,11.93,0,0,0-1.74,2.79c-3.34,8.29,1.22,16.6,1.22,16.6s1.49.15,2.85,3.34a62.51,62.51,0,0,1,3,9.67h1.59s-3.43-13.34-1.12-20.6c.64-2,2.36-6.1,4.75-6.25a8.64,8.64,0,0,0,2.29-4.12c.7-2.75,4.36-7.34,6.34-8.2a2.63,2.63,0,0,1,3.1.43A20.94,20.94,0,0,1,74.44,37c5.64-1,8.74,5,10,8.21s.6,4.75.6,4.75,2.4-3.89,2.12-7.78a9.89,9.89,0,0,0-.65-3c.73.38,3.94,1.27,4.6,9.59.31,4-3.25,6.63-3.25,6.63s7.92-3.28,6.28-13.4A17.14,17.14,0,0,1,98,48.18c.71,2.74,6.64,9.11,7,10.37,2.3,7.26-1.11,20.6-1.11,20.6h1.58a62.51,62.51,0,0,1,3-9.67c1.36-3.19,2.85-3.34,2.85-3.34S115.9,57.83,112.56,49.54ZM85.68,37.68l-.12-.16.13.13Z"/><path class="cls-9" d="M119.79,78.51s-3.41,3.33-10.83-6.74-32.47-15.26-44.72-26S45.73,37.47,44.3,35.63s-2.27-8.81-3.13-11-.57-5.63,6.27-9,12.19-10,32.87-2.28,20.9,12.59,20.9,12.59a16.51,16.51,0,0,1,3.47,3.56c4.14,5.8,10,18.28,12.26,26.89,3.14,11.94,5.42,15.64,4.56,17.92S119.79,78.51,119.79,78.51Z"/><path class="cls-9" d="M100,27.87s2.66-1.34,2.85-3,1-5.23-1.43-4,.88,1.88-1.12,4.07S100,27.87,100,27.87Z"/><path class="cls-10" d="M108.72,144.85l-.76.32H45.65l-.77-.32c0-.92,0-1.83,0-2.7.08-2,.26-3.89.5-5.62a34.88,34.88,0,0,1,.76-4.15c.11-.59.26-1.16.41-1.72.22-.76.44-1.5.67-2.22s.42-1.15.63-1.69A28.92,28.92,0,0,1,50,122.47a23.27,23.27,0,0,1,4.56-5.63,20.74,20.74,0,0,1,3.85-2.8.15.15,0,0,0,.08,0s0,0,0,0a15.66,15.66,0,0,0,2.54,2.87c1.48,1.45,3.6,3.37,6.32,5.63.18.13.37.31.57.46,5.62,4.56,12.06,4.56,17.66,0l.56-.46c2.74-2.26,4.87-4.18,6.35-5.63A16.58,16.58,0,0,0,95.08,114s0,0,0,0a.25.25,0,0,0,.11,0,20.38,20.38,0,0,1,3.84,2.8,24,24,0,0,1,4.57,5.63,27.06,27.06,0,0,1,2.08,4.28c.22.54.43,1.11.63,1.69s.48,1.46.7,2.22c.15.56.28,1.13.41,1.72.3,1.3.54,2.67.74,4.15.24,1.73.41,3.62.5,5.62C108.7,143,108.72,143.93,108.72,144.85Z"/></g></g></svg>