<svg xmlns="http://www.w3.org/2000/svg" xmlns:xlink="http://www.w3.org/1999/xlink" viewBox="0 0 145.36 145.95"><defs><style>.cls-1{fill:none;}.cls-2{fill:#4d4b4b;}.cls-3{fill:#070808;}.cls-4{fill:#e2bf9c;}.cls-5{fill:#f2d1ac;}.cls-6{clip-path:url(#clip-path);}.cls-7{fill:#c09a80;}.cls-8{fill:#d3a789;}.cls-9{fill:#e0b89b;}.cls-10{fill:#666766;}.cls-11{fill:#fff;}.cls-12{fill:#432612;}.cls-13{clip-path:url(#clip-path-2);}.cls-14{fill:#ac8dc1;}.cls-15{clip-path:url(#clip-path-3);}</style><clipPath id="clip-path"><rect class="cls-1" x="60.77" y="97.7" width="17.58" height="10.39"/></clipPath><clipPath id="clip-path-2"><rect class="cls-1" x="75.15" y="63.69" width="15.71" height="19"/></clipPath><clipPath id="clip-path-3"><rect class="cls-1" x="48.42" y="64.21" width="15.71" height="19"/></clipPath></defs><title>Asset 137</title><g id="Layer_2" data-name="Layer 2"><g id="Layer_1-2" data-name="Layer 1"><rect class="cls-2" width="145.36" height="145.95"/><path class="cls-3" d="M93.19,69.2c-2.61,0-20.91,21.31-22.65,24.91-1.73-3.6-16.62-21.28-19.25-21.28-5.29,0-13,14.11-13,25.26s20.24,30.59,25.52,30.59c2.63,0,5-2.21,6.73-5.81,1.74,3.6,4.11,5.81,6.74,5.81,5.28,0,21.75-21.52,21.08-34.83-.56-11.14.13-24.65-5.17-24.65"/><path class="cls-4" d="M69.51,87.05V145.4H37.78a7.47,7.47,0,0,0-.77-.33c0-11.7,2.72-19.35,6.09-24.34,5.71-8.39,13.33-9.31,13.33-9.31a2.39,2.39,0,0,0,1.61-.65s0,0,0,0a5,5,0,0,0,.47-.52,13.76,13.76,0,0,0,1.91-5c.13-.58.25-1.18.33-1.82.18-1.07.34-2.21.45-3.39.07-.71.12-1.43.19-2.15.3-3.59.39-7.48.39-11.17,0,0,4.26.42,7.71.42"/><path class="cls-5" d="M102.13,145.07a6,6,0,0,0-.76.33H69.51V87.05h.07c3.44,0,7.74-.42,7.74-.42,0,3.67.1,7.52.39,11.07.06.71.12,1.42.19,2.11.14,1.23.27,2.39.44,3.48v0c.08.49.16.93.25,1.38.58,2.87,1.41,5.07,2.56,6.08a2.21,2.21,0,0,0,1.56.65s19.42,2.35,19.42,33.65"/><g class="cls-6"><path class="cls-7" d="M78.34,103.28v0a10.27,10.27,0,0,1-8.79,4.79h0a11.08,11.08,0,0,1-8.73-4.77c.18-1.07.32-2.2.44-3.38.07-.71.13-1.43.2-2.16a34.23,34.23,0,0,0,8,1h.09a32.74,32.74,0,0,0,8.2-1.13c.07.71.13,1.42.19,2.1.14,1.24.27,2.39.45,3.48"/></g><path class="cls-8" d="M69.59,20.11c-33.6,0-33.79,28.13-32.3,46.53-2.29-4.35-9.12-3-8.56,3.86.54,6.63,10.17,10,10,9.28,2.76,15.16,18.57,23.9,30.82,23.9h.27V20.11h-.27"/><path class="cls-9" d="M69.76,20.11c33.61,0,33.81,28.13,32.3,46.53,2.31-4.35,9.14-3,8.57,3.86-.53,6.63-10.17,10-10,9.28-2.75,15.16-18.56,23.9-30.83,23.9H69.5V20.11h.26"/><path class="cls-7" d="M108.49,67.61a3.17,3.17,0,0,0-4.85-.93,2.77,2.77,0,0,0-.79,3c.23.87,1.16.94.94,2.29a2.42,2.42,0,0,1-1.35,2,3,3,0,0,0-1.13,1.24,3.26,3.26,0,0,0-.15,1.89c.26,1.09,1.83.23,2.89-.25A20.07,20.07,0,0,0,107.53,74c1.42-1.58,2.07-4.65,1-6.41"/><path class="cls-4" d="M69.31,28c-11.05,0-19.15,3.21-24.06,9.56-6.84,8.84-6.58,22.38-4,32.08.77,3,1.17,11,1.7,13.9,2.39,13.12,16.87,20.11,26.41,20.11h.25V28h-.25"/><path class="cls-5" d="M93.31,37.6C88.45,31.3,80.45,28.1,69.56,28v75.63c10.9-.11,23.91-7.77,26.15-20.1.53-2.94.93-10.93,1.7-13.9,2.52-9.68,2.76-23.19-4.1-32.07"/><path class="cls-10" d="M45.77,73.71c-1.71,0-6.69-7.14-6.71-7.21L40,66c1.87,2.59,5,6.44,5.74,6.65a.38.38,0,0,0-.23,0,.58.58,0,0,0-.15.18l1.13,0a.86.86,0,0,1-.63.93h-.11"/><path class="cls-10" d="M93.38,73.71h-.11a.85.85,0,0,1-.62-.93h1.09a.36.36,0,0,0-.13-.13.33.33,0,0,0-.21,0c.74-.21,4.82-5.07,6.69-7.66V66.5c0,.07-5,7.21-6.71,7.21"/><path class="cls-11" d="M102.13,145.07a4.58,4.58,0,0,0-.76.33H37.78a5.36,5.36,0,0,0-.77-.33,59.45,59.45,0,0,1,1.38-13.27l0-.09c.13-.52.26-1,.4-1.53s.26-.94.4-1.42c.29-.91.6-1.77.94-2.6.23-.58.46-1.14.73-1.68a24.24,24.24,0,0,1,1.76-3.25c.15-.25.31-.5.46-.73a24.26,24.26,0,0,1,3.66-4.29,18.32,18.32,0,0,1,2.4-1.92c.16-.11.29-.23.43-.33.6-.37,1.15-.71,1.68-1h0a4.41,4.41,0,0,1,.65-.37l.28-.13a16.34,16.34,0,0,1,2.9-1.1h0a7.18,7.18,0,0,1,1.07-.22h0a.71.71,0,0,1,.18,0,2.38,2.38,0,0,0,1.61-.68,0,0,0,0,1,0,0,1.59,1.59,0,0,1,.75,0c2.07.59,4.21,5,6.39,8.33.31.45.59.88.88,1.29,1.14,1.52,2.28,2.6,3.43,2.6h0c4,0,7.92-13,11.59-12.22a2.2,2.2,0,0,0,1.56.68s19.42,2.35,19.42,33.95"/><polygon class="cls-3" points="68.12 101.21 69.54 98.73 70.99 101.19 72.42 103.66 69.56 103.67 66.71 103.68 68.12 101.21"/><path class="cls-10" d="M66.51,73.19A10.61,10.61,0,1,1,55.89,62.58,10.62,10.62,0,0,1,66.51,73.19"/><path class="cls-10" d="M93.61,73.19A10.61,10.61,0,1,1,83,62.58,10.6,10.6,0,0,1,93.61,73.19"/><path class="cls-12" d="M63.44,145.4H44.08c.16-2.61.33-7.44.25-14a79.3,79.3,0,0,0-1.23-11c5.71-8.51,13.33-9.44,13.33-9.44a2.42,2.42,0,0,0,1.61-.67,0,0,0,0,1,0,0c.15-.16.31-.34.47-.54a1.38,1.38,0,0,1,.28.56A127,127,0,0,1,62.35,126a139.71,139.71,0,0,1,1.09,19.45"/><path class="cls-12" d="M75.66,145.4H95c-.16-2.58-.34-7.33-.24-13.76A75.94,75.94,0,0,1,96,120.73c-5.7-8.39-13.33-9.31-13.33-9.31a2.33,2.33,0,0,1-1.6-.65s0,0,0,0a4.07,4.07,0,0,1-.47-.52,1.27,1.27,0,0,0-.29.56,123.32,123.32,0,0,0-3.54,15.44,136.11,136.11,0,0,0-1.09,19.19"/><path class="cls-12" d="M75.67,145.4H95c-.16-2.61-.33-7.44-.23-14a78.88,78.88,0,0,1,1.21-11C90.3,111.89,82.68,111,82.68,111a2.37,2.37,0,0,1-1.6-.67,0,0,0,0,0,0,0,6.55,6.55,0,0,1-.48-.54,1.26,1.26,0,0,0-.28.56A127,127,0,0,0,76.76,126a139.71,139.71,0,0,0-1.09,19.45"/><path class="cls-10" d="M72.5,74.16A6.71,6.71,0,0,0,66.44,74l-.46-1a7.89,7.89,0,0,1,7.13.28Z"/><path class="cls-4" d="M85.26,127.81a6,6,0,1,0,6,6,6,6,0,0,0-6-6m0,11.32a5.31,5.31,0,1,1,5.32-5.31,5.31,5.31,0,0,1-5.32,5.31"/><rect class="cls-4" x="85.01" y="127.81" width="0.52" height="11.87"/><polygon class="cls-4" points="81.43 137.94 81.06 137.57 85.08 133.56 85.45 133.92 81.43 137.94"/><rect class="cls-4" x="87.01" y="132.91" width="0.52" height="5.68" transform="translate(-70.43 101.49) rotate(-45.01)"/><g class="cls-13"><path class="cls-14" d="M90.86,67.1,80.05,82.69h0a9.91,9.91,0,0,1-4.88-3.43L86,63.69h0a10.1,10.1,0,0,1,4.88,3.41"/></g><g class="cls-15"><path class="cls-14" d="M64.13,67.61,53.32,83.21h0a10,10,0,0,1-4.88-3.43L59.24,64.21h0a10.15,10.15,0,0,1,4.88,3.4"/></g><path class="cls-3" d="M102.11,66.52a7.54,7.54,0,0,0-1.94,2.9c-1.06,2.8-1.45,2.32-1.45,2.32s1.66-11,1.66-14S90.92,39.23,85.65,37.42,75.62,41.7,70,41.7H69.5c-5.56-.11-10.49-6.05-15.7-4.28S39.08,54.68,39.08,57.71s1.66,14,1.66,14-.41.48-1.46-2.32A7.55,7.55,0,0,0,37,66.2c-1.4-19-.6-47,32.51-47h.18c33.28,0,33.92,28.32,32.47,47.34"/></g></g></svg>