<svg xmlns="http://www.w3.org/2000/svg" xmlns:xlink="http://www.w3.org/1999/xlink" viewBox="0 0 145.36 145.98"><defs><style>.cls-1{fill:none;}.cls-2{fill:#5aadc5;}.cls-3{fill:#7b532d;}.cls-4{fill:#e2bf9c;}.cls-5{fill:#f2d1ac;}.cls-6{clip-path:url(#clip-path);}.cls-7{fill:#c09a80;}.cls-8{fill:#d3a789;}.cls-9{fill:#e0b89b;}.cls-10{fill:#c7696e;}.cls-11{fill:#d87373;}.cls-12{fill:#3c2415;}.cls-13{fill:#563825;}.cls-14{fill:#906ba7;}.cls-15{fill:#d7878e;}</style><clipPath id="clip-path"><rect class="cls-1" x="65.47" y="98.53" width="17.49" height="10.34"/></clipPath></defs><title>Asset 145</title><g id="Layer_2" data-name="Layer 2"><g id="Layer_1-2" data-name="Layer 1"><rect class="cls-2" width="145.36" height="145.95"/><path class="cls-3" d="M45.64,86.08c.14.28,6.42,7.82,5.94,15.71-.18,2.93-2.43,6.29-2.43,6.29s4.78-2.89,5.07-8.1c.64-11.64-5.62-18.36-5.62-18.36Z"/><path class="cls-3" d="M53.12,88.77c.14.27,6.43,7.81,5.94,15.7-.18,2.93-2.42,6.29-2.42,6.29s4.78-2.89,5.06-8.08C62.35,91,56.08,84.3,56.08,84.3Z"/><path class="cls-4" d="M74.71,87.92V146H43.14a8.11,8.11,0,0,0-.77-.33c0-14.66,4.27-22.94,8.79-27.59a19.45,19.45,0,0,1,10.54-5.88h.16c.13,0,.28-.05.41-.09,1.6-.44,2.7-2.79,3.41-6.15a18.49,18.49,0,0,0,.33-1.82c.18-1.07.36-2.19.45-3.36.08-.71.12-1.42.19-2.15.29-3.56.39-7.43.39-11.12,0,0,3.82.39,7.15.43Z"/><path class="cls-5" d="M106.64,145.65a7.48,7.48,0,0,0-.76.33H74.19V87.92h.52c3.35,0,7.24-.43,7.24-.43,0,3.65.09,7.49.38,11,.06.71.13,1.41.2,2.1.13,1.22.26,2.37.44,3.46h0c.07.5.15.94.24,1.39.67,3.25,1.64,5.64,3.06,6.44a2,2,0,0,0,.34.12,1.82,1.82,0,0,0,.7.14,19.13,19.13,0,0,1,9.81,5.17,26.41,26.41,0,0,1,3,3.46c3.58,5,6.51,12.7,6.51,24.84"/><g class="cls-6"><path class="cls-7" d="M83,104.08v0a10.22,10.22,0,0,1-8.75,4.76h0a11,11,0,0,1-8.69-4.74c.18-1.06.33-2.19.44-3.36.07-.71.13-1.42.2-2.14a34.45,34.45,0,0,0,8,1h.08a32.8,32.8,0,0,0,8.15-1.12c.07.71.14,1.4.2,2.1.13,1.22.27,2.37.45,3.45"/></g><path class="cls-8" d="M74.15,25.52C41.21,25.46,41,51.93,42.48,69.19c-2.26-4-8.94-2.54-8.39,4,.53,6.21,10,9,9.83,8.34,2.7,14.06,18.23,21.88,30.23,23h.25V25.53h-.25"/><path class="cls-7" d="M35.74,70.39a3.27,3.27,0,0,1,4.83-.87,2.53,2.53,0,0,1,.78,2.88c-.23.84-1.15.89-.93,2.17a2.24,2.24,0,0,0,1.34,1.84,3,3,0,0,1,1.13,1.17A3.1,3.1,0,0,1,43,79.37c-.26,1-1.83.21-2.88-.25a19.34,19.34,0,0,1-3.46-2.66c-1.41-1.5-2.06-4.39-1-6.07"/><path class="cls-9" d="M74.32,25.52c33-.06,33.14,26.41,31.67,43.67,2.26-4,9-2.54,8.39,4-.52,6.21-10,9-9.84,8.34-2.69,14.06-18.22,21.88-30.22,23h-.26V25.53h.26"/><path class="cls-7" d="M113,70.39a3.27,3.27,0,0,0-4.83-.87,2.53,2.53,0,0,0-.79,2.88c.23.84,1.16.89.93,2.17a2.22,2.22,0,0,1-1.34,1.84c-.39.32-.88.56-1.12,1.17a2.94,2.94,0,0,0-.15,1.79c.25,1,1.83.21,2.88-.25A20.08,20.08,0,0,0,112,76.46c1.41-1.5,2.06-4.39,1-6.07"/><path class="cls-4" d="M74,33c-11,0-19.05,3-23.93,9-6.81,8.37-6.55,21.15-4,30.32.77,2.8,1.17,10.36,1.7,13.13,2.37,12.41,16.78,19,26.27,19h.25V33H74"/><path class="cls-5" d="M97.86,42.05c-4.84-5.95-12.8-9-23.63-9v71.46c10.84-.11,23.79-7.34,26-19,.53-2.77.93-10.33,1.69-13.13,2.51-9.15,2.75-21.92-4.08-30.3"/><path class="cls-10" d="M79.78,93.28s-2.49,2.66-5.56,2.66-5.41-2.6-5.41-2.6a35,35,0,0,1,5.41-.41,44.56,44.56,0,0,1,5.56.35"/><path class="cls-11" d="M75.79,92.05a1.43,1.43,0,0,0-1.57,1.21,1.42,1.42,0,0,0-1.57-1.21,22.06,22.06,0,0,0-4,1.23s3,.32,3.9.32,1.64.34,1.65-.31c0,.65.64.4,1.51.4s4-.41,4-.41a22,22,0,0,0-4-1.23"/><path class="cls-12" d="M109.55,40.44c-1.45-1.81-6.18-7.48-7.48-7.2l-.28.08c-1.42-5.06-3,1.73-6.05-3.35-3.19-5.24-5.62-4.89-16-5.24S67,24.66,60.37,26.28s-9,5.3-12.17,9.06a40.82,40.82,0,0,0-3.81,2.89c-.63.7-12.62,28.57-5.62,28.73,2.7.06,4,2.69,5.62,2.92,3.06.43,5.46-2.75,9.84-4.12s4.48-8.59,5.08-11.35,9.36-10,9.36-10,10.66-3.59,13.42-3.59S93,44.44,93,44.44s.51-.23,1.26-.64a6.41,6.41,0,0,0,1.46,1.61c3,2.22,7.89,11.81,7.87,13.3-.06,8.23-1.15,11.54-1.46,12.51-1.66,5.19.69,6.08.69,6.08s-1-3.52,5-9.75c5.87-6.08,1-5.13,1.72-11.62.21-1.94,1.46-13.7,0-15.49"/><path class="cls-3" d="M88.89,42.79c-.59-.79-10.42-7.74-17.82-2.58-10.39,7.23-3.39,16-15.57,19.54-6.75,2-15.17.26-17.16,3s-1.8,3.69-2.16,5.74.77,5,.77,5-5.09-5.66-3.55-11.88c1.27-5.2,3.29-6.54,5.32-7.78a27.47,27.47,0,0,1,7.68-3.3c3.53-.8,6.72-2,7.25-2.56,3.34-3.55,0-7.13,3.12-11.79,2.69-4,19.39-11.69,29.4.6a12.5,12.5,0,0,1,2.72,6"/><path class="cls-13" d="M88.89,42.79c-.76-.63-11.74-3.44-17.69,3.33-8.37,9.51.51,16.35-10.47,22.69-6.08,3.51-14.66,3.88-16,7s-.85,4-.73,6.09,2,4.7,2,4.7-6.3-4.28-6.3-10.7c0-5.35,1.64-7.14,3.32-8.82a28,28,0,0,1,6.67-5c3.25-1.63,6.05-3.55,6.43-4.22,2.4-4.25-1.75-6.91.22-12.2,1.67-4.5,16.57-14.83,30-6.35a8,8,0,0,1,2.58,3.54"/><path class="cls-14" d="M106.64,145.65a7.48,7.48,0,0,0-.76.33H43.14a8.11,8.11,0,0,0-.77-.33c0-14.66,4.3-24,9.52-28.31a15.4,15.4,0,0,0,.18,2,13.17,13.17,0,0,0,.78,3.61c3,4.82,14.62,9.77,17.64,10.07l1.33.14,2.25.13h.12a4.61,4.61,0,0,1,.52,0l1.6-.11,1.32-.14c3-.3,14.66-5.25,17.64-10.07a16.75,16.75,0,0,0,1.11-3.54l-.11-.49c.14-.45-.43-1.92-.28-2.63a26.44,26.44,0,0,1,4.15,4.22c3.71,5.54,6.5,13,6.5,25.11"/><path class="cls-15" d="M71.92,146H68.4c.12-2.13.27-5.55.27-7.48s.4-4.05-3.19-6.64-13-2.39-13.88-8.57a14.69,14.69,0,0,1-.09-3.76v0a13.05,13.05,0,0,1,.56-2.77s1.77-1.46,2.42-1.87c.83-.53,3.51-1.78,3.51-1.78,0,2.86-2.33,9.16.55,11.3s9.06,3.91,10.71,4.76a4.5,4.5,0,0,1,2.52,3.6,3.59,3.59,0,0,1,0,.44c.18,2.08.14,9.19.11,12.79"/><path class="cls-15" d="M96.52,123.29c-.91,6.18-10.29,6-13.86,8.57s-3.21,4.82-3.21,6.64.15,5.35.27,7.48H76.2c0-3.6-.07-10.71.11-12.79a1.59,1.59,0,0,1,0-.44,4.46,4.46,0,0,1,2.52-3.6c1.64-.85,7.84-2.61,10.7-4.76s.53-8.6.53-11.45a24.12,24.12,0,0,1,3.47,1.27,10.7,10.7,0,0,1,2.54,2.26,22.2,22.2,0,0,1,.51,3v0a15.93,15.93,0,0,1-.1,3.85"/><path class="cls-12" d="M57.44,25.38s33.42-16,49.88,11.4l1.3,7.92L98,38.67,93,30.83,83,25.22l-12.58.45Z"/><path class="cls-12" d="M93,44.44s11.19,7.69,9.69,24.62l3.74-6.14-3.33-13.25-2.25-7.16S97.1,37.89,93,44.44Z"/><path class="cls-12" d="M41.2,44.7S46.56,23,67.09,23.93"/></g></g></svg>