<svg xmlns="http://www.w3.org/2000/svg" viewBox="0 0 145.36 146.12"><defs><style>.cls-1{fill:#f0ebbe;}.cls-2{fill:#965458;}.cls-3{fill:#e1bf9c;}.cls-4{fill:#f2d1ac;}.cls-5,.cls-8{fill:#c09a80;}.cls-5{opacity:0.7;}.cls-6{fill:#d3a789;}.cls-7{fill:#282844;}.cls-9{fill:#e0b89b;}.cls-10{fill:#1e2859;}.cls-11{fill:#494a7d;}.cls-12{fill:#1f1f33;}</style></defs><title>Asset 201</title><g id="Layer_2" data-name="Layer 2"><g id="Layer_1-2" data-name="Layer 1"><rect class="cls-1" width="145.36" height="145.95"/><path class="cls-2" d="M59.1,75.74A5.91,5.91,0,0,0,55,73.48a23.16,23.16,0,0,0-2.52-6.21c-3.43-4.67-12-1-12-1,0,5.51,1.92,8.26,0,12.67s-.41,2.18-4,6.51S32.33,90.87,31.47,94c-1.62,5.89.69,13,1.1,14.51s-1.66-10.21,3.84-12.12a15.28,15.28,0,0,0,2.67-1.22,16.48,16.48,0,0,1-.28,6.64,14.13,14.13,0,0,0,.67,9.25A7.51,7.51,0,0,0,43.65,115a6.28,6.28,0,0,1-2-6.75c.79-3,2.27-4.35,3.09-6.91a21,21,0,0,0,.75-3.19A6,6,0,0,0,46,101c1,1.86,4,4.92,3.3,8.67-1.87,10.5,2,13.39,2.55,14.67s-1.52-3.38-.15-7.27a6.73,6.73,0,0,1,3.2-3.86,7.69,7.69,0,0,1,1,4.93c-1.86,10.5,2,13.39,2.55,14.67s-1.52-3.37-.15-7.27,3.84-3.43,5.93-6.23a16.6,16.6,0,0,0,2.24-15C66.18,103.5,62.52,80.42,59.1,75.74Z"/><path class="cls-2" d="M118,93.8c-.85-3.11-1.5-4.22-5.06-8.54s-2.06-2.11-4-6.52,0-7.16,0-12.66c0,0-8.59-3.66-12,1a23.16,23.16,0,0,0-2.52,6.21,5.87,5.87,0,0,0-4.06,2.26C87,80.23,83.28,103.32,83,104.16a16.6,16.6,0,0,0,2.25,15c2.08,2.81,4.56,2.34,5.93,6.24s-.7,8.56-.15,7.27,4.41-4.17,2.55-14.67a7.56,7.56,0,0,1,1-4.93,6.78,6.78,0,0,1,3.2,3.85c1.37,3.9-.69,8.56-.15,7.28s4.42-4.17,2.55-14.67c-.67-3.76,2.34-6.82,3.3-8.67a6.19,6.19,0,0,0,.51-2.94,21.22,21.22,0,0,0,.75,3.21c.82,2.55,2.3,3.87,3.08,6.9a6.28,6.28,0,0,1-2,6.75,7.51,7.51,0,0,0,4.18-3.92,14.13,14.13,0,0,0,.66-9.25,16.66,16.66,0,0,1-.27-6.64,15.28,15.28,0,0,0,2.67,1.22c5.5,1.91,3.43,13.58,3.84,12.11S119.61,99.69,118,93.8Z"/><path class="cls-3" d="M74.19,93.63v52.49H45.65l-.7-.3c0-28.16,17.47-30.26,17.47-30.26,1.74,0,2.86-2.24,3.6-5.64.12-.52.22-1.06.3-1.64.16-1,.3-2,.4-3,.07-.64.12-1.28.18-1.94.22-2.62.3-5.45.32-8.18,0-.63,0-1.25,0-1.87C67.24,93.25,71.08,93.63,74.19,93.63Z"/><path class="cls-4" d="M103.52,145.82s-.26.1-.68.3H74.19V93.63h0c3.11,0,7-.38,7-.38,0,.72,0,1.44,0,2.17,0,2.61.12,5.29.32,7.79.06.65.12,1.29.18,1.91.12,1.1.24,2.14.4,3.12v0c.06.44.14.84.22,1.24.74,3.62,1.9,6.06,3.7,6.06C86.05,115.56,103.52,117.66,103.52,145.82Z"/><path class="cls-5" d="M82.13,108.24v0a9.24,9.24,0,0,1-7.9,4.29h0a9.92,9.92,0,0,1-7.86-4.28c.16-1,.29-2,.39-3,.07-.64.13-1.28.19-1.94a31.26,31.26,0,0,0,7.2.94h.08a29.59,29.59,0,0,0,7.36-1c.06.64.12,1.28.18,1.9C81.85,106.22,82,107.26,82.13,108.24Z"/><path class="cls-6" d="M74.27,33.44c-30.22,0-30.39,25.3-29,41.86-2.07-3.92-8.2-2.71-7.7,3.47.48,6,9.15,9,9,8.34,2.48,13.63,16.7,21.5,27.73,21.5h.23V33.45Z"/><path class="cls-7" d="M103.52,145.82s-.26.1-.68.3H45.65l-.7-.3c0-27.5,16.65-30.14,17.45-30.26h0c1.32,0,2.28-1.28,3-3.36a3.11,3.11,0,0,0,1.24,1.08c1,.56,3,1.1,7.6,1.1s7.73-1,8.57-1.78a1.25,1.25,0,0,0,.26-.4c.68,2,1.6,3.26,2.82,3.36h.16S103.52,117.66,103.52,145.82Z"/><path class="cls-8" d="M39.45,76.16a2.86,2.86,0,0,1,4.36-.84,2.52,2.52,0,0,1,.71,2.75c-.21.79-1.05.85-.84,2.06a2.11,2.11,0,0,0,1.21,1.75,2.94,2.94,0,0,1,1,1.12A3,3,0,0,1,46,84.7c-.23,1-1.65.2-2.61-.23a18.47,18.47,0,0,1-3.12-2.54C39,80.5,38.45,77.75,39.45,76.16Z"/><path class="cls-9" d="M74.42,33.44c30.22,0,30.4,25.3,29.05,41.86,2.07-3.92,8.21-2.71,7.71,3.47-.49,6-9.15,9-9,8.34-2.48,13.63-16.7,21.5-27.73,21.5h-.23V33.45Z"/><path class="cls-8" d="M109.24,76.16a2.86,2.86,0,0,0-4.36-.84,2.52,2.52,0,0,0-.71,2.75c.21.79,1,.85.85,2.06a2.13,2.13,0,0,1-1.22,1.75,2.94,2.94,0,0,0-1,1.12,3,3,0,0,0-.13,1.7c.23,1,1.65.2,2.61-.23a18.08,18.08,0,0,0,3.12-2.54C109.65,80.5,110.24,77.75,109.24,76.16Z"/><path class="cls-3" d="M74,40.57c-10,0-17.22,2.89-21.63,8.6C46.23,57.12,46.46,69.29,48.73,78c.7,2.67,1.05,9.86,1.53,12.5,2.15,11.8,15.17,18.09,23.75,18.09h.23v-68Z"/><path class="cls-4" d="M95.59,49.18c-4.37-5.67-11.56-8.55-21.35-8.6v68c9.79-.1,21.5-7,23.51-18.08.48-2.64.84-9.83,1.53-12.5C101.55,69.31,101.77,57.16,95.59,49.18Z"/><path class="cls-10" d="M64.11,33.23c-3.31-4-5.51-10.19,0-14.65A19.38,19.38,0,0,1,76.89,14c2.27,0,8.88.65,10.72,4.63s7,6.57,2.39,10.24-3,6.24-13.7,6.24S64.11,33.23,64.11,33.23Z"/><path class="cls-11" d="M43,54.27c.38-4.59-4.56-2.57,1.34-9.36s9.88-10.65,14.44-12.12,10.08-5.14,18.44-4.41,12.93-2.2,17.3,4,5.9,6.8,7.61,13.78,7.41,12.34.76,11.49S43,54.27,43,54.27Z"/><path class="cls-12" d="M86.25,118.52c-3.84,2.72-6.36,3.35-12.1,3.35s-7.71-.81-10.63-2.26c-2.06-1-3.52-1.83-2-3.15a9.34,9.34,0,0,0,.9-.9h0a14.51,14.51,0,0,0,1.16-1.78c.78-1.14-1.4-1.8-.06-2.68a3.57,3.57,0,0,1,2.38-.7c-.5,1.8.26,2.62.74,2.88,1,.56,3,1.1,7.6,1.1s6.89-1,7.89-1.56.63-1.41.61-1.8a1.64,1.64,0,0,1-.13-.37s2.56.15,2.34,1.41a5,5,0,0,0,.94,3.5c.12.16.22.32.34.46C87.15,117.2,88.51,116.92,86.25,118.52Z"/><path class="cls-10" d="M103.44,52.62c-2.06-.74-7.19-2.36-11.65-3.93A10.64,10.64,0,0,0,90,48c-6.75-1.92-7.07-5-16.83-4.29s-22.51,7-27.57,8.82-6.38,6.61-6,11.93a34.25,34.25,0,0,0,1.68,8.82c6.38-4.23,13-9.37,20.27-10.1s10.69-1.29,17.82,0,11.14.29,17.8,3.43c3.66,2,7.16,4.48,10.61,6.77a33.94,33.94,0,0,0,1.69-8.81C109.82,59.23,108.51,54.46,103.44,52.62Z"/><path class="cls-2" d="M91.8,98c-.45-1.61-2.23-1.12-5.5-2.25a44.55,44.55,0,0,0-12-1.75h0a44.61,44.61,0,0,0-12,1.75c-3.27,1.13-5,.64-5.5,2.25a13.83,13.83,0,0,0,.74,5.4c1.29,2,5.45,4.54,8.54,5.94,2.32,1.06,4.16,1.1,8.28,1,4.12.11,6,.07,8.29-1,3.09-1.4,7.25-3.89,8.53-5.94A13.83,13.83,0,0,0,91.8,98Zm-6.15.78a22.57,22.57,0,0,1-6,3.76,6.05,6.05,0,0,1-3,.41l-2.23,0h-.37l-2.24,0a6.05,6.05,0,0,1-3-.41,21.08,21.08,0,0,1-6.09-3.89,9.69,9.69,0,0,1,1.76-.8,38,38,0,0,1,9.72-1.36h.21A38.31,38.31,0,0,1,84,97.86a9,9,0,0,1,1.73.79Z"/><polygon class="cls-11" points="54.54 129.87 51.73 125 48.91 129.87 46.1 134.75 48.91 139.62 51.73 144.49 54.54 139.62 57.35 134.75 54.54 129.87"/><polygon class="cls-11" points="65.79 129.87 62.98 125 60.17 129.87 57.35 134.75 60.17 139.62 62.98 144.49 65.79 139.62 68.61 134.75 65.79 129.87"/><polygon class="cls-11" points="77.05 129.87 74.24 125 71.42 129.87 68.61 134.75 71.42 139.62 74.24 144.49 77.05 139.62 79.86 134.75 77.05 129.87"/><polygon class="cls-11" points="88.31 129.87 85.49 125 82.68 129.87 79.86 134.75 82.68 139.62 85.49 144.49 88.31 139.62 91.12 134.75 88.31 129.87"/><polygon class="cls-11" points="99.56 129.87 96.75 125 93.93 129.87 91.12 134.75 93.93 139.62 96.75 144.49 99.56 139.62 102.38 134.75 99.56 129.87"/></g></g></svg>