<svg xmlns="http://www.w3.org/2000/svg" xmlns:xlink="http://www.w3.org/1999/xlink" viewBox="0 0 145.36 145.95"><defs><style>.cls-1{fill:none;}.cls-2{fill:#7e6052;}.cls-3{fill:#261a0f;}.cls-4{fill:#462e13;}.cls-5{fill:#3d1f0f;}.cls-6{fill:#e2bf9c;}.cls-7{fill:#f2d1ac;}.cls-8{clip-path:url(#clip-path);}.cls-9{fill:#c09a80;}.cls-10{fill:#d3a789;}.cls-11{fill:#e0b89b;}.cls-12{fill:#434b68;}.cls-13{fill:#7d9dcb;}.cls-14{fill:#187f7c;}.cls-15{fill:#c7696e;}.cls-16{fill:#d87373;}</style><clipPath id="clip-path"><rect class="cls-1" x="67.95" y="97.6" width="17.49" height="10.34"/></clipPath></defs><title>Asset 142</title><g id="Layer_2" data-name="Layer 2"><g id="Layer_1-2" data-name="Layer 1"><rect class="cls-2" width="145.36" height="145.95"/><path class="cls-3" d="M40.65,49.5c-2.12,4.67-5,9.33-4.57,13.73,1.59,15.42-1.19,44.36,5.52,46.26,1.28.37-3.16-30.83-2.17-46.52-.45-4.39,1.9-6.87,4-11.53-.23-2.21-.23-2.21-2.8-1.94"/><path class="cls-3" d="M113,49.5c2.13,4.67,5,9.33,4.56,13.73-1.59,15.42,1.2,44.36-5.51,46.26-1.28.37,3.17-30.83,2.17-46.52.46-4.39-1.89-6.87-4-11.53.22-2.21.22-2.21,2.8-1.94"/><path class="cls-4" d="M41.31,43.37c-2.22,4.42-5.08,8.76-5.08,13.18,0,15.5-4.89,44,.64,46.59,1.06.5,0-31,2.22-46.5,0-4.42,2.22-6.63,4.43-11.07,0-2.2,0-2.2-2.21-2.2"/><path class="cls-4" d="M113.75,46.4c2.2,4.43,5.06,8.77,5.06,13.19,0,15.5,4.89,44-.64,46.59-1.07.48,0-31-2.22-46.5,0-4.42-2.2-6.64-4.42-11.06,0-2.22,0-2.22,2.22-2.22"/><path class="cls-4" d="M106.67,59.21c2.22,4.44,5.08,8.77,5.08,13.2,0,15.49,4.89,44-.65,46.57-1.06.5,0-31-2.21-46.48,0-4.43-2.22-6.64-4.42-11.07,0-2.22,0-2.22,2.2-2.22"/><path class="cls-4" d="M39.92,65.69C42.14,70.11,45,74.46,45,78.88c0,15.5,4.89,44-.64,46.58-1.07.49,0-31-2.22-46.49,0-4.42-2.22-6.64-4.43-11.07,0-2.21,0-2.21,2.21-2.21"/><path class="cls-5" d="M111.46,54.14c2.22,4.43,5.08,8.76,5.08,13.2,0,15.5,4.89,44-.66,46.57-1,.5,0-31-2.2-46.48,0-4.44-2.22-6.64-4.43-11.07,0-2.22,0-2.22,2.21-2.22"/><path class="cls-5" d="M43.26,49.5c-2.13,4.67-5,9.33-4.56,13.73,1.58,15.42-1.21,44.36,5.51,46.26C45.5,109.86,41,78.66,42,63c-.45-4.39,1.9-6.87,4-11.53-.23-2.21-.23-2.21-2.8-1.94"/><path class="cls-4" d="M50.19,65.64c-2.13,4.67-5,9.32-4.57,13.73,1.59,15.42-1.19,44.35,5.52,46.26C52.42,126,48,94.81,49,79.12c-.45-4.4,1.9-6.87,4-11.54-.22-2.2-.22-2.2-2.79-1.94"/><path class="cls-5" d="M56.32,66.1c-2.12,4.68-5,9.33-4.56,13.73,1.59,15.42-1.2,44.35,5.52,46.26,1.28.37-3.18-30.83-2.18-46.51-.46-4.4,1.89-6.87,4-11.54-.22-2.2-.22-2.2-2.8-1.94"/><path class="cls-4" d="M108,63.11c-2.13,4.66-5,9.32-4.56,13.72,1.59,15.42-1.2,44.36,5.5,46.26,1.29.36-3.16-30.83-2.16-46.52-.46-4.4,1.89-6.86,4-11.53-.22-2.2-.22-2.2-2.8-1.93"/><path class="cls-3" d="M53.05,59c-2.13,4.66-5,9.32-4.56,13.72C50.08,88.15,47.29,117.09,54,119c1.28.37-3.18-30.84-2.19-46.52-.44-4.4,1.91-6.87,4-11.53-.23-2.21-.23-2.21-2.81-1.94"/><path class="cls-4" d="M101.72,67.66c-2.13,4.67-5,9.33-4.56,13.72,1.59,15.43-1.2,44.36,5.52,46.27,1.28.36-3.17-30.83-2.18-46.52-.46-4.4,1.89-6.86,4-11.54-.23-2.19-.23-2.19-2.81-1.93"/><path class="cls-4" d="M103.68,65.64c-2.13,4.67-5,9.32-4.56,13.73,1.58,15.42-1.21,44.35,5.5,46.26,1.29.37-3.16-30.82-2.17-46.51-.45-4.4,1.9-6.87,4-11.54-.22-2.2-.22-2.2-2.79-1.94"/><path class="cls-4" d="M97.14,70c-2.12,4.67-5,9.32-4.55,13.73,1.57,15.43-1.21,44.35,5.51,46.27,1.28.36-3.17-30.84-2.18-46.52-.45-4.41,1.9-6.87,4-11.54-.24-2.2-.24-2.2-2.81-1.94"/><path class="cls-3" d="M62.68,70c-2.13,4.67-5,9.32-4.56,13.73,1.59,15.43-1.19,44.35,5.52,46.27,1.28.36-3.18-30.84-2.18-46.52-.45-4.41,1.91-6.87,4-11.54-.22-2.2-.22-2.2-2.8-1.94"/><path class="cls-5" d="M64.61,68.62C62.48,73.3,59.59,78,60,82.35c1.59,15.43-1.19,44.36,5.51,46.26,1.28.37-3.16-30.82-2.17-46.51-.45-4.4,1.9-6.87,4-11.54-.22-2.19-.22-2.19-2.8-1.94"/><path class="cls-4" d="M68.31,68.62c-2.13,4.68-5,9.33-4.57,13.73,1.6,15.43-1.19,44.36,5.52,46.26,1.28.37-3.17-30.82-2.18-46.51-.45-4.4,1.9-6.87,4-11.54-.22-2.19-.22-2.19-2.8-1.94"/><path class="cls-3" d="M90,68.62C87.91,73.3,85,78,85.48,82.35c1.59,15.43-1.19,44.36,5.51,46.26,1.29.37-3.16-30.82-2.18-46.51-.45-4.4,1.91-6.87,4-11.54-.23-2.19-.23-2.19-2.81-1.94"/><path class="cls-4" d="M93.77,68.62c-2.12,4.68-5,9.33-4.55,13.73,1.58,15.43-1.2,44.36,5.51,46.26C96,129,91.56,97.79,92.55,82.1c-.45-4.4,1.91-6.87,4-11.54-.23-2.19-.23-2.19-2.81-1.94"/><path class="cls-5" d="M111.08,57.42c-2.12,4.67-5,9.32-4.55,13.73,1.57,15.41-1.21,44.35,5.5,46.26,1.29.37-3.16-30.84-2.17-46.51-.45-4.4,1.9-6.87,4-11.54-.23-2.2-.23-2.2-2.81-1.94"/><path class="cls-3" d="M45.14,57.47c1.65,13.28-2.32,24.21-5,37.64-1.52,7.66,0,19.92,6.62,22.13-5-8.85-5-17.7-1.65-26.57s0-19.92,3.31-31c0-2.21-1.66-2.21-3.31-2.21"/><path class="cls-3" d="M105.79,61.78c1.65,13.28-2.55,24.16-5,37.64-1.76,9.77,0,19.92,6.62,22.14-5-8.86-5-17.71-1.65-26.56s0-19.94,3.32-31c0-2.22-1.67-2.22-3.32-2.22"/><path class="cls-5" d="M97.51,71.52c1.65,13.29-2.6,24.15-5,37.63-1.18,6.67,0,19.92,6.62,22.14-5-8.85-5-17.71-1.65-26.56s0-19.92,3.31-31c0-2.21-1.66-2.21-3.31-2.21"/><path class="cls-3" d="M111.2,46.41c-1.66,13.27,2.56,24.15,5,37.63,1.36,7.63,0,19.92-6.63,22.14,5-8.86,5-17.71,1.66-26.56s0-19.94-3.31-31c0-2.21,1.65-2.21,3.31-2.21"/><path class="cls-4" d="M55,68.68C53.37,82,56.87,93,60,106.32c1.78,7.61,0,19.91-6.63,22.13,5-8.86,5-17.71,1.65-26.56s0-19.93-3.31-31c0-2.21,1.66-2.21,3.31-2.21"/><path class="cls-6" d="M76.64,87v58.06H45.08l-.78-.33c0-31.14,19.32-33.46,19.32-33.46,1.94,0,3.17-2.48,4-6.24.14-.59.25-1.18.34-1.82.18-1.06.33-2.19.44-3.37.07-.7.13-1.41.2-2.14.28-3.57.37-7.45.37-11.12,0,0,4.26.42,7.68.42"/><path class="cls-7" d="M109.11,144.72s-.3.12-.76.34H76.64V87h.07c3.43,0,7.7-.42,7.7-.42,0,3.65.09,7.48.38,11,.07.71.14,1.42.21,2.11.12,1.21.26,2.36.44,3.44v0c.06.49.16.94.24,1.38.82,4,2.1,6.71,4.09,6.71,0,0,19.34,2.32,19.34,33.46"/><g class="cls-8"><path class="cls-9" d="M85.44,103.15v0a10.23,10.23,0,0,1-8.75,4.77h0A11,11,0,0,1,68,103.2c.18-1.06.33-2.19.44-3.37.07-.7.13-1.41.2-2.14a35,35,0,0,0,8,1h.09a32.8,32.8,0,0,0,8.15-1.13c.07.71.14,1.42.21,2.11.12,1.21.26,2.36.44,3.44"/></g><path class="cls-10" d="M76.74,20.4c-33.44,0-33.63,28-32.14,46.3-2.29-4.34-9.08-3-8.53,3.84.54,6.6,10.13,10,10,9.23,2.75,15.08,18.48,23.8,30.68,23.8l.25,0V20.4h-.25"/><path class="cls-9" d="M38.21,67.66A3.16,3.16,0,0,1,43,66.73a2.73,2.73,0,0,1,.78,3c-.23.88-1.16.95-.93,2.29A2.41,2.41,0,0,0,44.22,74a3,3,0,0,1,1.14,1.23,3.41,3.41,0,0,1,.15,1.88c-.26,1.08-1.84.23-2.89-.25A20.58,20.58,0,0,1,39.16,74c-1.4-1.59-2-4.63-.95-6.38"/><path class="cls-11" d="M76.9,20.4c33.45,0,33.64,28,32.15,46.3,2.29-4.34,9.08-3,8.51,3.84-.52,6.6-10.12,10-10,9.23-2.73,15.08-18.46,23.8-30.67,23.8-.08,0-.17,0-.26,0V20.4h.26"/><path class="cls-9" d="M115.44,67.66a3.17,3.17,0,0,0-4.84-.93,2.77,2.77,0,0,0-.78,3c.23.88,1.16.95.93,2.29A2.35,2.35,0,0,1,109.41,74c-.38.34-.88.59-1.12,1.23a3.24,3.24,0,0,0-.15,1.88c.26,1.08,1.82.23,2.88-.25A19.82,19.82,0,0,0,114.48,74c1.4-1.59,2.06-4.63,1-6.38"/><path class="cls-6" d="M76.45,28.29c-11,0-19.05,3.19-23.93,9.5-6.81,8.81-6.55,22.27-4,31.92.77,3,1.16,10.91,1.69,13.83,2.37,13.07,16.79,20,26.28,20h.25V28.29h-.25"/><path class="cls-7" d="M100.32,37.8c-4.83-6.27-12.79-9.45-23.62-9.51v75.25c10.84-.11,23.79-7.73,26-20,.53-2.92.93-10.87,1.69-13.83,2.5-9.63,2.75-23.07-4.09-31.91"/><path class="cls-4" d="M112.91,64.05c-.66.65-2.92.67-5,4.89-1.29,2.59-2.29,2.84-2.29,2.84s1.64-10.56,1.64-13.5S97.87,33.62,92.65,31.86,82.71,36,77.08,36h-.44c-5.5-.11-10.4-5.82-15.56-4.12S46.5,55.35,46.5,58.28s1.63,13.5,1.63,13.5a6.51,6.51,0,0,1-2.87-3.3C43.13,64,41.58,64.66,40.83,64c-1.39-18.31,3-42.85,35.77-42.85h.18c33,0,37.57,24.57,36.13,42.88"/><path class="cls-12" d="M114.5,45.39c-1.32-3.79-1.93-5.31-2.08-8.45s-2.19-6-4.82-8.91A29.11,29.11,0,0,0,96.83,20.5,59.52,59.52,0,0,0,77,16H76.7A59.7,59.7,0,0,0,56.86,20.5,29,29,0,0,0,46.11,28c-2.65,2.86-4.65,5.78-4.82,8.91s-.78,4.66-2.1,8.45,2,5.16,1.3,8.14,0,10.71,0,10.71a71.34,71.34,0,0,0,7.86-5.36c4.76-4.66,10.14-11.35,28.5-11.63,17.89.27,24,9.75,28.94,14.53,1.54,1.51,6.91,2.23,7.42,2.46,0,0,.66-7.74,0-10.71s2.62-4.33,1.29-8.14"/><path class="cls-13" d="M46.11,56a4.78,4.78,0,0,1-3.41-1.42,3.91,3.91,0,0,1,0-5.53,3.2,3.2,0,0,1,4.51,0A2.62,2.62,0,0,1,48,50.88a2.66,2.66,0,0,1-.76,1.85,2.19,2.19,0,0,1-3,0,1.78,1.78,0,0,1,0-2.51,1.48,1.48,0,0,1,2.08,0,1.26,1.26,0,0,1,0,1.75l-.39-.39a.69.69,0,0,0,0-1,.92.92,0,0,0-1.3,0,1.21,1.21,0,0,0,0,1.71,1.62,1.62,0,0,0,2.24,0,2,2,0,0,0,0-2.89,2.66,2.66,0,0,0-3.72,0,3.36,3.36,0,0,0,0,4.75,4.29,4.29,0,0,0,6,0l.4.38A4.78,4.78,0,0,1,46.11,56"/><path class="cls-13" d="M52.24,41.58a4.84,4.84,0,0,1-3.4-1.41,3.92,3.92,0,0,1,0-5.54,3.19,3.19,0,0,1,4.51,0,2.62,2.62,0,0,1,0,3.67,2.2,2.2,0,0,1-3,0,1.79,1.79,0,0,1,0-2.5,1.5,1.5,0,0,1,2.08,0,1.24,1.24,0,0,1,0,1.75l-.39-.4a.68.68,0,0,0,0-.95.92.92,0,0,0-1.29,0,1.23,1.23,0,0,0,0,1.72,1.62,1.62,0,0,0,2.24,0A2.06,2.06,0,0,0,53,35a2.7,2.7,0,0,0-3.73,0,3.39,3.39,0,0,0,0,4.76,4.29,4.29,0,0,0,6,0l.39.39a4.82,4.82,0,0,1-3.41,1.41"/><path class="cls-13" d="M65.77,45.91a4.87,4.87,0,0,1-3.42-1.4,4,4,0,0,1,0-5.55,3.2,3.2,0,0,1,4.51,0,2.62,2.62,0,0,1,0,3.69,2.18,2.18,0,0,1-3,0,1.75,1.75,0,0,1,0-2.5,1.47,1.47,0,0,1,2.07,0,1.21,1.21,0,0,1,0,1.74l-.39-.39a.67.67,0,0,0,0-1,.92.92,0,0,0-1.3,0,1.21,1.21,0,0,0,0,1.71,1.62,1.62,0,0,0,2.25,0,2,2,0,0,0,.6-1.46,2,2,0,0,0-.6-1.44,2.69,2.69,0,0,0-3.72,0,3.36,3.36,0,0,0,0,4.75,4.26,4.26,0,0,0,6,0l.4.4a4.88,4.88,0,0,1-3.41,1.4"/><path class="cls-13" d="M65.77,30.34a4.84,4.84,0,0,1-3.42-1.41,3.92,3.92,0,0,1,0-5.53,3.2,3.2,0,0,1,4.51,0,2.58,2.58,0,0,1,.76,1.84,2.62,2.62,0,0,1-.76,1.85,2.16,2.16,0,0,1-3,0,1.74,1.74,0,0,1,0-2.49,1.47,1.47,0,0,1,2.07,0,1.21,1.21,0,0,1,0,1.74l-.39-.39a.66.66,0,0,0,0-.95.92.92,0,0,0-1.3,0,1.21,1.21,0,0,0,0,1.71,1.63,1.63,0,0,0,2.25,0,2,2,0,0,0,.6-1.45,2,2,0,0,0-.6-1.44,2.67,2.67,0,0,0-3.72,0,3.36,3.36,0,0,0,0,4.75,4.26,4.26,0,0,0,6,0l.4.39a4.85,4.85,0,0,1-3.41,1.41"/><path class="cls-13" d="M79.15,38.58a4.85,4.85,0,0,1-3.41-1.4,3.93,3.93,0,0,1,0-5.55,3.22,3.22,0,0,1,4.51,0,2.63,2.63,0,0,1,0,3.7,2.17,2.17,0,0,1-3,0,1.74,1.74,0,0,1,0-2.49,1.45,1.45,0,0,1,2.07,0,1.24,1.24,0,0,1,0,1.73l-.39-.39a.66.66,0,0,0,0-1,.94.94,0,0,0-1.3,0,1.21,1.21,0,0,0,0,1.71,1.62,1.62,0,0,0,2.24,0,2,2,0,0,0,0-2.9,2.7,2.7,0,0,0-3.72,0,3.36,3.36,0,0,0,0,4.75,4.27,4.27,0,0,0,6,0l.4.4a4.87,4.87,0,0,1-3.42,1.4"/><path class="cls-13" d="M93.07,30.34a4.82,4.82,0,0,1-3.41-1.41,3.91,3.91,0,0,1,0-5.53,3.2,3.2,0,0,1,2.25-.93,3.13,3.13,0,0,1,2.25.93,2.55,2.55,0,0,1,.77,1.84,2.59,2.59,0,0,1-.77,1.85,2.15,2.15,0,0,1-3,0,1.74,1.74,0,0,1,0-2.49,1.47,1.47,0,0,1,2.07,0,1.25,1.25,0,0,1,0,1.74l-.4-.39a.66.66,0,0,0,0-.95.92.92,0,0,0-1.29,0,1.21,1.21,0,0,0,0,1.71,1.62,1.62,0,0,0,2.24,0,2,2,0,0,0,.61-1.45,2,2,0,0,0-.61-1.44,2.67,2.67,0,0,0-3.72,0,3.36,3.36,0,0,0,0,4.75,4.27,4.27,0,0,0,6,0l.39.39a4.8,4.8,0,0,1-3.41,1.41"/><path class="cls-13" d="M93.07,47.31a4.78,4.78,0,0,1-3.41-1.42,3.9,3.9,0,0,1,0-5.53,3.2,3.2,0,0,1,2.25-.93,3.13,3.13,0,0,1,2.25.93,2.58,2.58,0,0,1,0,3.68,2.17,2.17,0,0,1-3,0,1.75,1.75,0,0,1,0-2.5,1.49,1.49,0,0,1,2.07,0,1.26,1.26,0,0,1,0,1.75l-.4-.4a.66.66,0,0,0,0-1,.92.92,0,0,0-1.29,0,1.21,1.21,0,0,0,0,1.71,1.61,1.61,0,0,0,2.24,0,2,2,0,0,0,.61-1.45,2,2,0,0,0-.61-1.44,2.66,2.66,0,0,0-3.72,0,3.36,3.36,0,0,0,0,4.75,4.29,4.29,0,0,0,6,0l.39.38a4.77,4.77,0,0,1-3.41,1.42"/><path class="cls-13" d="M103.88,41.58a4.86,4.86,0,0,1-3.41-1.41,3.94,3.94,0,0,1,0-5.54,3.18,3.18,0,0,1,2.25-.93,3.1,3.1,0,0,1,2.25.94,2.57,2.57,0,0,1,0,3.67,2.16,2.16,0,0,1-3,0,1.75,1.75,0,0,1,0-2.5,1.49,1.49,0,0,1,2.07,0,1.24,1.24,0,0,1,0,1.75l-.4-.4a.66.66,0,0,0,0-.95.92.92,0,0,0-1.29,0,1.24,1.24,0,0,0,0,1.72,1.63,1.63,0,0,0,2.25,0,2.06,2.06,0,0,0,0-2.91,2.7,2.7,0,0,0-3.73,0,3.39,3.39,0,0,0,0,4.76,4.29,4.29,0,0,0,6,0l.39.39a4.84,4.84,0,0,1-3.41,1.41"/><path class="cls-13" d="M107.59,57a4.8,4.8,0,0,1-3.42-1.41,3.92,3.92,0,0,1,0-5.53,3.2,3.2,0,0,1,4.51,0,2.59,2.59,0,0,1,.77,1.84,2.63,2.63,0,0,1-.77,1.85,2.17,2.17,0,0,1-3,0,1.74,1.74,0,0,1,0-2.49,1.45,1.45,0,0,1,2.07,0,1.2,1.2,0,0,1,0,1.73l-.39-.39a.66.66,0,0,0,0-1,.92.92,0,0,0-1.3,0,1.23,1.23,0,0,0,0,1.71,1.63,1.63,0,0,0,2.25,0,2,2,0,0,0,.6-1.45,2,2,0,0,0-.6-1.44,2.69,2.69,0,0,0-3.72,0,3.36,3.36,0,0,0,0,4.75,4.26,4.26,0,0,0,6,0l.4.39A4.77,4.77,0,0,1,107.59,57"/><path class="cls-14" d="M104.51,123.2a56.16,56.16,0,0,1-9.05,2.44c-.55-.8-1.86-3.41-2.06-10.1-.05-1.27-.07-2.28-.05-3.06l-1.24-.5c.07,4.36.34,12.55.8,14.1-1.44.23-3,.43-4.63.6-2.52.27-6.92.43-11.64.47s-9.12-.2-11.64-.47c-1.72-.17-3.31-.39-4.78-.62.45-1.62.71-9.75.79-14.08-.38.14-.8.31-1.25.5,0,.78,0,1.79,0,3.06-.21,6.61-1.5,9.24-2,10.07a55.27,55.27,0,0,1-8.9-2.41c-2.62,5-4.53,12-4.53,21.8a6.66,6.66,0,0,1,.77.34h63.24A7.14,7.14,0,0,1,109,145C109,135.15,107.12,128.16,104.51,123.2Z"/><path class="cls-15" d="M82.24,90.86s-2.47,2.66-5.55,2.66-5.4-2.6-5.4-2.6a35.57,35.57,0,0,1,5.4-.4,45.36,45.36,0,0,1,5.55.34"/><path class="cls-16" d="M78.27,89.63a1.45,1.45,0,0,0-1.58,1.21,1.43,1.43,0,0,0-1.56-1.21,22.22,22.22,0,0,0-4,1.23s3,.33,3.91.33,1.63.34,1.64-.31c0,.65.65.4,1.51.4s4-.42,4-.42a21.91,21.91,0,0,0-4-1.23"/></g></g></svg>