<svg xmlns="http://www.w3.org/2000/svg" xmlns:xlink="http://www.w3.org/1999/xlink" viewBox="0 0 145.36 145.95"><defs><style>.cls-1{fill:none;}.cls-2{isolation:isolate;}.cls-3{fill:#965458;}.cls-4{fill:#e2bf9c;}.cls-5{fill:#f2d1ac;}.cls-6{clip-path:url(#clip-path);}.cls-7{fill:#c09a80;}.cls-8{fill:#d3a789;}.cls-9{fill:#e0b89b;}.cls-10{fill:#e2e2e2;}.cls-11{fill:#2d3518;}.cls-12{fill:#8dc63f;}.cls-13{fill:#f15a29;}.cls-14{fill:#c2c3c3;mix-blend-mode:multiply;}.cls-15{fill:#ececeb;}.cls-16{fill:#1f7b3d;}.cls-17{fill:#070707;}.cls-18{fill:#f1f2f2;}</style><clipPath id="clip-path"><rect class="cls-1" x="68.09" y="98.24" width="17.58" height="10.39"/></clipPath></defs><title>Asset 132</title><g class="cls-2"><g id="Layer_2" data-name="Layer 2"><g id="Layer_1-2" data-name="Layer 1"><rect class="cls-3" width="145.36" height="145.95"/><path class="cls-4" d="M76.83,87.57v58.37H45.11l-.78-.34c0-31.3,19.42-33.63,19.42-33.63,1.93,0,3.18-2.49,4-6.27.14-.59.25-1.19.34-1.84.17-1.06.33-2.19.45-3.37.06-.71.13-1.43.19-2.16.29-3.59.38-7.48.38-11.17,0,0,4.27.41,7.72.41"/><path class="cls-5" d="M109.45,145.6a8.22,8.22,0,0,0-.76.34H76.83V87.57h.07c3.45,0,7.74-.41,7.74-.41,0,3.66.09,7.51.37,11.08.07.71.14,1.42.21,2.11.13,1.22.27,2.38.45,3.47v0c.06.5.15.94.24,1.38.82,4,2.11,6.75,4.12,6.75,0,0,19.42,2.33,19.42,33.63"/><g class="cls-6"><path class="cls-7" d="M85.67,103.82v0a10.23,10.23,0,0,1-8.79,4.79h0a11,11,0,0,1-8.74-4.77c.17-1.06.33-2.19.45-3.37.06-.71.13-1.43.19-2.16a35.5,35.5,0,0,0,8,1h.09A33,33,0,0,0,85,98.24c.07.71.14,1.42.21,2.11.13,1.22.27,2.38.45,3.47"/></g><path class="cls-8" d="M76.92,20.64c-33.6,0-33.79,28.14-32.3,46.55-2.31-4.37-9.12-3-8.57,3.86.55,6.62,10.18,10,10.05,9.27,2.74,15.17,18.56,23.91,30.82,23.91h.26V20.65h-.26"/><path class="cls-7" d="M38.21,68.14a3.18,3.18,0,0,1,4.85-.92,2.78,2.78,0,0,1,.78,3c-.23.88-1.17,1-.92,2.29a2.33,2.33,0,0,0,1.33,2,3.11,3.11,0,0,1,1.13,1.24,3.38,3.38,0,0,1,.15,1.9c-.25,1.09-1.84.22-2.89-.26a20,20,0,0,1-3.47-2.83c-1.43-1.58-2.07-4.65-1-6.42"/><path class="cls-9" d="M77.09,20.64c33.6,0,33.8,28.14,32.3,46.55,2.31-4.37,9.12-3,8.57,3.86-.54,6.62-10.18,10-10,9.27-2.75,15.17-18.57,23.91-30.83,23.91h-.26V20.65h.26"/><path class="cls-7" d="M115.81,68.14a3.2,3.2,0,0,0-4.86-.92,2.8,2.8,0,0,0-.78,3c.24.88,1.17,1,.94,2.29a2.38,2.38,0,0,1-1.35,2,3.28,3.28,0,0,0-1.14,1.24,3.37,3.37,0,0,0-.13,1.9c.25,1.09,1.83.22,2.89-.26a20.85,20.85,0,0,0,3.48-2.83c1.41-1.58,2.06-4.65,1-6.42"/><path class="cls-4" d="M76.84,28.58c-11,0-19.14,3.21-24,9.55C46,47,46.21,60.5,48.73,70.21c.77,3,1.17,11,1.71,13.9,2.38,13.13,16.86,20.12,26.4,20.12h.26V28.59h-.26"/><path class="cls-5" d="M100.85,38.14C96,31.85,88,28.64,77.1,28.59v75.63C88,104.1,101,96.44,103.24,84.11c.54-2.94.93-10.93,1.71-13.9,2.51-9.68,2.76-23.18-4.1-32.07"/><path class="cls-10" d="M91.92,130.45c.13,1.83-5.6,10.17-9.8,15.5H71.67c-4.21-5.32-9.94-13.67-9.82-15.53.11-1.6,0-16.72,1-18h0l14,15.23L90,112s1,.76,1.59,1.38c.22.22-1.58,12.58-1.38,12.81a7.07,7.07,0,0,1,1.68,4.29"/><path class="cls-11" d="M71.55,145.93H45.1c-.49-.19-.76-.33-.76-.33,0-1.71.07-3.34.18-4.9a51.67,51.67,0,0,1,.71-5.83A47.7,47.7,0,0,1,46.67,129c.14-.37.27-.73.41-1.09a32.69,32.69,0,0,1,2.16-4.74,25.29,25.29,0,0,1,3.67-5c.26-.3.53-.58.8-.85A20.74,20.74,0,0,1,63,112.11l-.07.3a28.76,28.76,0,0,0,0,9.87c0,.13,0,.27,0,.4.05.3.08.56.15.86a.55.55,0,0,0,0,.18c0,.28.11.58.18.87a44,44,0,0,0,1.93,7.15c.7,1.87,1.85,4.51,3.19,7.43.22.54.46,1,.69,1.53.13.27.24.54.38.8.33.7.69,1.41,1,2.14.11.23.22.45.31.67a1.18,1.18,0,0,1,.08.16c.25.49.48.95.67,1.4,0,0,0,0,0,.06"/><path class="cls-12" d="M75.65,146H69.42l-.77-.81C55.86,131.7,53.88,121.8,53.88,121.8l5.27-2.33-3.24-2.11s1.26-1.42,3.54-3.53A21.38,21.38,0,0,1,62,111.94a15.25,15.25,0,0,1,4.17-1.76c-.15.17-1.49,1.46-1.14,9.58.05.55.07,1.07.16,1.62a3,3,0,0,0,.06.36,7.08,7.08,0,0,0,.16.8.62.62,0,0,0,0,.18,7.6,7.6,0,0,0,.17.8A68.31,68.31,0,0,0,70.9,137c.38.73.75,1.42,1.11,2.14.44.87.92,1.75,1.36,2.61.28.48.52,1,.78,1.43l.86,1.57.64,1.22"/><path class="cls-11" d="M82.24,145.93h26.45c.49-.19.76-.33.76-.33,0-1.71-.07-3.34-.18-4.9a47.38,47.38,0,0,0-.72-5.83,46,46,0,0,0-1.43-5.85c-.14-.37-.28-.73-.41-1.09a33.8,33.8,0,0,0-2.16-4.74,25.29,25.29,0,0,0-3.67-5c-.26-.3-.53-.58-.8-.85a20.74,20.74,0,0,0-9.24-5.23c0,.12,0,.21.07.3a28.78,28.78,0,0,1,0,9.87c0,.13,0,.27,0,.4,0,.3-.08.56-.15.86a.55.55,0,0,1,0,.18c0,.28-.11.58-.18.87a44,44,0,0,1-1.94,7.15c-.69,1.87-1.84,4.51-3.18,7.43-.23.54-.46,1-.69,1.53-.14.27-.25.54-.37.8-.34.7-.69,1.41-1,2.14-.1.23-.22.45-.31.67l-.09.16c-.24.49-.46.95-.66,1.4a.07.07,0,0,0-.05.06"/><path class="cls-12" d="M78.34,146h6.18c.28-.29.52-.55.75-.81C98,131.7,99.91,121.8,99.91,121.8l-5.23-2.33,3.22-2.11s-1.25-1.42-3.5-3.53a23.62,23.62,0,0,0-2.57-1.89,11.54,11.54,0,0,0-4.08-1.47c.15.17,1.42,1.17,1.07,9.29,0,.55-.07,1.07-.15,1.62,0,.14,0,.25-.07.36,0,.28-.09.53-.15.8a.62.62,0,0,1,0,.18c0,.27-.11.53-.17.8A69.27,69.27,0,0,1,83,137c-.36.73-.73,1.42-1.09,2.14-.43.87-.92,1.75-1.35,2.61-.27.48-.51,1-.77,1.43s-.56,1-.85,1.57L78.34,146"/><path class="cls-13" d="M107.64,35.43C104.49,28,98,24.8,87.72,20.27c-4.56-2-7.67-2.5-10.83-2.18-3.16-.32-6.27.17-10.83,2.18C55.79,24.8,49.3,28,46.15,35.43S42.37,56.24,42.37,58.5s.28,6.32.69,7.22,2.45,1.6,3.51,4.31S48,72.28,48,72.28s-1.67-10.61-1.67-13.55S55.77,42.82,61,41.08,71.15,43,76.8,43H77c5.66,0,10.5-3.67,15.77-1.92s14.67,14.71,14.67,17.65-1.65,13.55-1.65,13.55.4.47,1.45-2.25,3.08-3.41,3.5-4.31.69-5,.69-7.22-.64-15.61-3.77-23.07"/><path class="cls-13" d="M111.35,97.89a23.83,23.83,0,0,1-.56-3.42h-.65a18.55,18.55,0,0,0,3.53-10.68,19.56,19.56,0,0,0-5.81-13.45,29.42,29.42,0,0,1,.2,3.4c0,16.66-13.94,29.82-31.19,29.82S45.6,90.4,45.6,73.74A29.35,29.35,0,0,1,45.85,70c-3.88,4-6.15,8.71-6.15,13.82a18.55,18.55,0,0,0,3.53,10.68h-.35a24.31,24.31,0,0,1-.57,3.42c-1,4.76-3.88,6-3.88,6s4.49-1.81,5.57-3c.53-.6,1.91-2.24,2.34-2.75l0,0c-.25.55-.83,2.32,0,5.73,1.08,4.46,5.53,7.46,5.53,7.46s-2.67-3.55-1.93-7.43c0,0-.16,1.56,4.18,5.89s12.43,8.12,12.43,8.12-.16-2.69-.25-5.64a35.59,35.59,0,0,0,9.88,1.43h1.22a35.61,35.61,0,0,0,9.89-1.43c-.09,2.95-.26,5.64-.26,5.64s8.1-3.8,12.44-8.12,4.17-5.89,4.17-5.89c.74,3.88-1.92,7.43-1.92,7.43s4.44-3,5.53-7.46c.83-3.42.24-5.19,0-5.73l0,0c.43.5,1.83,2.16,2.35,2.76,1.09,1.23,5.57,3,5.57,3S112.33,102.65,111.35,97.89Z"/><path class="cls-14" d="M99.29,132.52a1.56,1.56,0,0,0-.22-.73,1.26,1.26,0,0,0-.54-.36.91.91,0,0,0,.33-.22,1.25,1.25,0,0,0,.33-.51c0-.14.06-.28.09-.42a1.85,1.85,0,0,0,0-.62,1.81,1.81,0,0,0-.46-.79,3.7,3.7,0,0,0-1-.76,1.9,1.9,0,0,0-.47-.66l-.24-.24a1.2,1.2,0,0,0-.31-.18,1.54,1.54,0,0,0-1-.11,1.77,1.77,0,0,0-.71.39,2.52,2.52,0,0,0-.3.35.88.88,0,0,0-.14.23,1,1,0,0,0-.17-.35h0l-.15-.19a1.49,1.49,0,0,0-.55-.37,1.44,1.44,0,0,0-.94,0,1.66,1.66,0,0,0-.31.12,1.1,1.1,0,0,0-.26.15l-.17.16a2.76,2.76,0,0,0-.64.8,4.59,4.59,0,0,0-.77.61,2.53,2.53,0,0,0-.62.86,1.38,1.38,0,0,0-.07.78,1.49,1.49,0,0,0,.23.72,1.12,1.12,0,0,0,.54.37,1.5,1.5,0,0,0-.42.29,1.57,1.57,0,0,0-.34.88l0,.2a.93.93,0,0,0,0,.44,1.84,1.84,0,0,0,.47.78,4.05,4.05,0,0,0,.92.73,2,2,0,0,0,.47.66l.24.23a1,1,0,0,0,.31.19,1.56,1.56,0,0,0,1,.1,1.66,1.66,0,0,0,.7-.38,2,2,0,0,0,.3-.36.83.83,0,0,0,.14-.22,1.26,1.26,0,0,0,.17.35h0l.16.18a1.38,1.38,0,0,0,1.49.4l.3-.12a1.1,1.1,0,0,0,.26-.15l.17-.16a2.8,2.8,0,0,0,.64-.81,4.08,4.08,0,0,0,.77-.6,2.63,2.63,0,0,0,.62-.86,1.13,1.13,0,0,0,.1-.44A1.27,1.27,0,0,0,99.29,132.52Zm-4.74-5,0,0S94.57,127.59,94.55,127.57Zm0,0h0Zm.27,7.85,0,0Zm0,0h0Z"/><path class="cls-15" d="M99.24,132.47a1.52,1.52,0,0,0-.22-.72,1.12,1.12,0,0,0-.53-.36,1.21,1.21,0,0,0,.32-.22,1.31,1.31,0,0,0,.34-.52,2.61,2.61,0,0,0,.08-.42,1.57,1.57,0,0,0,0-.61,1.83,1.83,0,0,0-.45-.79,4.17,4.17,0,0,0-1-.77,2,2,0,0,0-.47-.65c-.08-.09-.16-.16-.24-.24a1.61,1.61,0,0,0-.31-.19,1.56,1.56,0,0,0-1-.1,1.62,1.62,0,0,0-.7.39,2.1,2.1,0,0,0-.31.35,1.64,1.64,0,0,0-.14.22.78.78,0,0,0-.17-.34h0a1.39,1.39,0,0,0-.15-.19,1.56,1.56,0,0,0-.54-.38,1.47,1.47,0,0,0-1,0l-.31.13a1.1,1.1,0,0,0-.26.14l-.16.16a3.18,3.18,0,0,0-.65.81,5,5,0,0,0-.77.6,2.78,2.78,0,0,0-.62.86,1.39,1.39,0,0,0-.06.78,1.56,1.56,0,0,0,.22.73,1.1,1.1,0,0,0,.54.36,1.71,1.71,0,0,0-.42.3,1.53,1.53,0,0,0-.33.88,1.77,1.77,0,0,1,0,.2,1.09,1.09,0,0,0,0,.44,1.92,1.92,0,0,0,.48.78,4,4,0,0,0,.91.72,2,2,0,0,0,.48.66,2.72,2.72,0,0,0,.24.24,1.2,1.2,0,0,0,.31.18,1.53,1.53,0,0,0,1,.11,1.57,1.57,0,0,0,.7-.39,2.59,2.59,0,0,0,.31-.35,1.28,1.28,0,0,0,.14-.23.76.76,0,0,0,.17.35h0a1.39,1.39,0,0,0,.15.19,1.53,1.53,0,0,0,.54.37,1.47,1.47,0,0,0,1,0,1.66,1.66,0,0,0,.31-.12,1,1,0,0,0,.25-.15l.17-.15a3.18,3.18,0,0,0,.65-.81,4.54,4.54,0,0,0,.77-.6,2.82,2.82,0,0,0,.62-.87,1.28,1.28,0,0,0,.1-.43A2.09,2.09,0,0,0,99.24,132.47Zm-4.73-5s0,0,0,0Zm0,0h0Zm.26,7.85,0,0Zm0,0h0Z"/><path class="cls-16" d="M96.47,131.51a1.9,1.9,0,0,1-.69-.08,1.7,1.7,0,0,1,.69-.08c2.58,0,2.34-.55,2.48-1.23.18-.91-1.39-1.79-1.39-1.79-.06-.34-.72-.92-.72-.92a1.25,1.25,0,0,0-1.81.35c-.26.16-.35,2-.35,2a2.36,2.36,0,0,1-.05.33,2,2,0,0,1-.06-.33s-.09-1.87-.35-2a1.25,1.25,0,0,0-1.81-.35s-.66.58-.72.92c0,0-1.57.88-1.39,1.79.14.68-.09,1.21,2.48,1.23a2.07,2.07,0,0,1,.68.07v0a2.07,2.07,0,0,1-.68.07c-2.57,0-2.34.55-2.48,1.23-.18.9,1.39,1.79,1.39,1.79.06.33.72.92.72.92a1.25,1.25,0,0,0,1.81-.35c.26-.16.35-2,.35-2a1.8,1.8,0,0,1,.06-.33,2.12,2.12,0,0,1,.05.33s.09,1.87.35,2a1.25,1.25,0,0,0,1.81.35s.66-.59.72-.92c0,0,1.57-.89,1.39-1.79C98.81,132.06,99.05,131.53,96.47,131.51Zm-.82-.1v0Zm-1,1.18,0,0,0,0Z"/><path class="cls-17" d="M110.64,67.27c-.17-.37-3.71-.88-8.33-1.31a74.94,74.94,0,0,0-12.62.22,45.83,45.83,0,0,0-4.66,1c-2,.55-4,1.24-4.88,1.42a9.59,9.59,0,0,1-2.09.21h-.31a9.56,9.56,0,0,1-2.1-.21c-.83-.18-2.83-.87-4.88-1.42a46.39,46.39,0,0,0-4.66-1A75,75,0,0,0,53.48,66c-4.61.43-8.14.94-8.33,1.31s-.41,3.61,0,4,1.67,1.07,2,2.26,1.6,9.72,4.46,12.06c4.69,3.84,20.51,4,23.23-10,.38-1.91.87-3,1.72-3.35A4.74,4.74,0,0,1,77.9,72a4.86,4.86,0,0,1,1.38.22c.85.32,1.35,1.44,1.72,3.35,2.72,14,18.53,13.83,23.24,10,2.85-2.34,4.13-10.87,4.45-12.06s1.62-1.9,2-2.26S110.77,67.53,110.64,67.27Z"/><path class="cls-18" d="M51.24,69.28c0,.39-.92.69-2.07.69s-2.07-.3-2.07-.69.93-.69,2.07-.69S51.24,68.9,51.24,69.28Z"/><path class="cls-18" d="M108.64,69.28c0,.39-.93.69-2.08.69s-2.07-.3-2.07-.69.93-.69,2.07-.69S108.64,68.9,108.64,69.28Z"/></g></g></g></svg>