<svg xmlns="http://www.w3.org/2000/svg" viewBox="0 0 145.36 145.95"><defs><style>.cls-1{fill:#965458;}.cls-2{fill:#2b1f17;}.cls-3{fill:#e1bf9c;}.cls-4{fill:#f2d1ac;}.cls-5,.cls-7{fill:#c09a80;}.cls-5{opacity:0.7;}.cls-6{fill:#d3a789;}.cls-8{fill:#e0b89b;}.cls-9{fill:#c6696e;}.cls-10{fill:#d87373;}.cls-11{fill:#050606;}.cls-12,.cls-14{fill:none;}.cls-12{stroke:#231f20;stroke-miterlimit:10;stroke-width:0.5px;}.cls-13{fill:#fff;}.cls-15{fill:#dedddd;}.cls-16{fill:#473325;}</style></defs><title>Asset 172</title><g id="Layer_2" data-name="Layer 2"><g id="Layer_1-2" data-name="Layer 1"><rect class="cls-1" width="145.36" height="145.95"/><path class="cls-2" d="M80.62,82.21c-4.34,0-8.29,2.41-11.35,6.38-3.18-5.11-7.68-8.31-12.68-8.31-9.64,0-17.47,11.88-17.47,26.55S47,133.37,56.59,133.37c4.34,0,8.3-2.41,11.35-6.38,3.19,5.11,7.68,8.31,12.68,8.31,9.65,0,17.47-11.89,17.47-26.55S90.27,82.21,80.62,82.21Z"/><path class="cls-3" d="M69.62,93.73v50.92H42l-.66-.29a54.51,54.51,0,0,1,.29-5.91,37.7,37.7,0,0,1,.68-4.46c.17-.88.37-1.69.6-2.49a29.23,29.23,0,0,1,2.77-6.81.32.32,0,0,1,.08-.14,21.91,21.91,0,0,1,3.51-4.6h0a18.45,18.45,0,0,1,2.67-2.22,17.66,17.66,0,0,1,4.27-2.21h0a11.22,11.22,0,0,1,2-.5h.14l.37-.08a3.48,3.48,0,0,0,1.94-2.08,11.61,11.61,0,0,0,.74-2.08c.11-.39.21-.81.31-1.24s.21-1,.29-1.59c0-.27.1-.53.12-.82.27.12.61.26,1,.39v-3.69H62.5l.06-.71c.2-2.49.29-5.13.31-7.73,0-.68,0-1.36,0-2C62.89,93.36,66.62,93.73,69.62,93.73Z"/><path class="cls-4" d="M98.08,144.36a.7.7,0,0,0-.19.07l-.47.22H69.62V93.73h.07c3,0,6.75-.37,6.75-.37,0,3.2.1,6.56.33,9.67,0,.27.06.54.08.79s.05.7.1,1.05a6.65,6.65,0,0,0,.09.78c.1.77.19,1.53.31,2.25v0c0,.43.12.82.19,1.2.12.59.26,1.13.4,1.65.56,2,1.29,3.44,2.28,4a3.11,3.11,0,0,0,.3.12,1.8,1.8,0,0,0,.62.12,12.37,12.37,0,0,1,2.85.81,17.27,17.27,0,0,1,3.47,1.9,19.85,19.85,0,0,1,3.48,3.07,22.2,22.2,0,0,1,2.74,3.78,29.7,29.7,0,0,1,2.85,6.93,40.16,40.16,0,0,1,1.24,6.95,9.21,9.21,0,0,1,.12,1.07C98,141,98.08,142.64,98.08,144.36Z"/><path class="cls-5" d="M77.34,107.9v0a9,9,0,0,1-7.67,4.18h0A9.68,9.68,0,0,1,62,107.94c.16-.93.29-1.92.39-3,.06-.62.12-1.24.18-1.88a30.6,30.6,0,0,0,7,.91h.08a29,29,0,0,0,7.15-1c0,.62.11,1.24.17,1.84C77.07,105.94,77.18,107,77.34,107.9Z"/><path class="cls-6" d="M69.61,39C40.72,39,40.55,62.18,41.84,77.31c-2-3.55-7.84-2.23-7.36,3.46.46,5.45,8.74,7.91,8.63,7.31,2.36,12.34,16,19.19,26.5,20.16h.22V39Z"/><path class="cls-7" d="M35.93,78.37a2.85,2.85,0,0,1,4.23-.77,2.2,2.2,0,0,1,.69,2.52c-.21.74-1,.79-.82,1.9a2,2,0,0,0,1.18,1.62,2.23,2.23,0,0,1,1.11,2.59c-.22.91-1.6.19-2.53-.21a17.44,17.44,0,0,1-3-2.34C35.53,82.36,35,79.83,35.93,78.37Z"/><path class="cls-8" d="M69.75,39C98.64,39,98.81,62.18,97.52,77.31c2-3.55,7.85-2.23,7.37,3.46-.47,5.45-8.75,7.91-8.63,7.31-2.36,12.34-16,19.19-26.51,20.16h-.22V39Z"/><path class="cls-7" d="M103.64,78.37a2.85,2.85,0,0,0-4.23-.77,2.2,2.2,0,0,0-.69,2.52c.2.74,1,.79.82,1.9a2,2,0,0,1-1.18,1.62,2.7,2.7,0,0,0-1,1,2.77,2.77,0,0,0-.13,1.57c.23.91,1.61.19,2.53-.21a16.72,16.72,0,0,0,3-2.34C104,82.36,104.61,79.83,103.64,78.37Z"/><path class="cls-3" d="M69.46,45.58c-9.65,0-16.71,2.67-21,7.92-6,7.33-5.74,18.53-3.54,26.57.68,2.46,1,9.09,1.49,11.52,2.08,10.87,14.72,16.67,23,16.67h.22V45.59Z"/><path class="cls-4" d="M90.4,53.51c-4.25-5.22-11.22-7.88-20.72-7.92v62.66c9.5-.1,20.86-6.45,22.81-16.66.47-2.43.81-9.06,1.48-11.52C96.17,72.06,96.39,60.87,90.4,53.51Z"/><path class="cls-9" d="M74.54,98.43s-2.18,2.33-4.87,2.33a7.24,7.24,0,0,1-4.74-2.28,30.41,30.41,0,0,1,4.74-.36A38.59,38.59,0,0,1,74.54,98.43Z"/><path class="cls-10" d="M71.05,97.35a1.27,1.27,0,0,0-1.38,1.06,1.26,1.26,0,0,0-1.38-1.06,19.41,19.41,0,0,0-3.49,1.08s2.66.28,3.42.28,1.44.3,1.45-.27c0,.57.56.35,1.32.35s3.55-.36,3.55-.36A19.41,19.41,0,0,0,71.05,97.35Z"/><path class="cls-11" d="M81.14,115a12.37,12.37,0,0,1,2.85.81v28.83H77s-.09-36.21,0-35.82c.12.59,2.21,5.38,3.2,5.94a3.11,3.11,0,0,0,.3.12A1.8,1.8,0,0,0,81.14,115Z"/><line class="cls-12" x1="70.07" y1="117.73" x2="70.07" y2="144.65"/><path class="cls-13" d="M49.22,120v24.7h-7V134C43.65,127.14,46.41,122.75,49.22,120Z"/><path class="cls-13" d="M63.12,107.51v37.14H56.17V115.47a35.6,35.6,0,0,1,2.57-4.7c.25-.39.5-.75.77-1.1,1.77-2.37,1.73-2.86,1.67-3a9.93,9.93,0,0,0,.94.41C62.39,107.24,62.73,107.38,63.12,107.51Z"/><path class="cls-11" d="M70.07,108.83v35.82H63.12V107.51a26.82,26.82,0,0,0,6.5,1.3Z"/><path class="cls-13" d="M77,108.83v35.82h-7V108.83c1.44.48,3.48.31,6.51,0Z"/><path class="cls-11" d="M56.17,115.51v29.14h-7V119.94A18.65,18.65,0,0,1,56.17,115.51Z"/><path class="cls-11" d="M87.46,117.72H51.89a17.66,17.66,0,0,1,4.27-2.21h0v0a35.6,35.6,0,0,1,2.57-4.7h19.2c.56,2,1.29,3.44,2.28,4a3.11,3.11,0,0,0,.3.12,1.8,1.8,0,0,0,.62.12,9.65,9.65,0,0,1,1.82.44c.31.1.66.22,1,.37A17.27,17.27,0,0,1,87.46,117.72Z"/><path class="cls-11" d="M42.26,134v10.66H42l-.66-.29A50.17,50.17,0,0,1,42.26,134Z"/><path class="cls-13" d="M87.46,117.72a19.85,19.85,0,0,1,3.48,3.07v23.86H84V115.82A17.27,17.27,0,0,1,87.46,117.72Z"/><path class="cls-11" d="M97.77,138.45h.12v6l-.47.22H90.94V120.79a22.2,22.2,0,0,1,2.74,3.78,29.7,29.7,0,0,1,2.85,6.93A40.16,40.16,0,0,1,97.77,138.45Z"/><path class="cls-13" d="M83,115.15a1.24,1.24,0,0,1-.1.31,5.6,5.6,0,0,1-2.28,2,23.63,23.63,0,0,1-10.51,3,3.38,3.38,0,0,1-.45,0,17.13,17.13,0,0,1-6.5-1c-2.15-.82-3.68-1.46-4.75-2a14.06,14.06,0,0,1-2.2-1.19c-.5-.38-.26-.46-.26-.46a4.45,4.45,0,0,1,.25-.56s0,0,0,0a35,35,0,0,1,2.57-4.7c.25-.39.5-.76.77-1.11,1.77-2.37,1.73-2.85,1.67-3a9.93,9.93,0,0,0,.94.41c.27.12.61.25,1,.39a27.32,27.32,0,0,0,6.5,1.3l.45,0a32.38,32.38,0,0,0,7.36-.35c.49-.06,1-.14,1.47-.23A27.27,27.27,0,0,1,81,110.47C82.09,112,83.19,113.9,83,115.15Z"/><path class="cls-14" d="M97.77,138.45H41.58a37.7,37.7,0,0,1,.68-4.46c.17-.88.37-1.69.6-2.49H96.53A40.16,40.16,0,0,1,97.77,138.45Z"/><path class="cls-11" d="M98.08,144.36a.7.7,0,0,0-.19.07l-.47.22H42l-.66-.29a54.51,54.51,0,0,1,.29-5.91H97.89v1.07C98,141,98.08,142.64,98.08,144.36Z"/><path class="cls-11" d="M96.53,131.5H42.86a29.23,29.23,0,0,1,2.77-6.81l24-.06,7.42,0,6.95,0h7l2.74,0A29.7,29.7,0,0,1,96.53,131.5Z"/><path class="cls-15" d="M72.75,128.11a2.92,2.92,0,1,1-2.92-2.93A2.92,2.92,0,0,1,72.75,128.11Z"/><path class="cls-15" d="M72.75,141.11a2.92,2.92,0,1,1-2.92-2.92A2.92,2.92,0,0,1,72.75,141.11Z"/><path class="cls-16" d="M64,54.48c-4.27,8.15-3.94,6.78-9.32,14.94S43,89.9,42.68,97.53C41.57,120.68,53,133.9,53,133.9S41.42,127.55,41.1,122s5.44,3.71,3.51,7.29c-4,7.4,1.45,13.83,1.45,13.83s-7.81-1.86-9.08-8.63.74-6.2,1-5c1,5.77-4.59,10-4.59,10s2.78-5.12-.22-20.52c-1.36-7-1.67-10.89-1.67-20.6s-11.23-65.16,35.28-72a47.19,47.19,0,0,1,5.22,0c.47,0,38.33.67,35.74,45.65-1,16.66,0,38.16,1.44,41.8s-3-4.69-3.48-6.42-2.37-7.81-2.37-7.81a33.33,33.33,0,0,1,1.64,11.85c-.32,4.9-5.12,15.81-5.12,19,0,7.29,2.31,10.93,2.31,10.93a9.43,9.43,0,0,1-4.74-6.12,11.32,11.32,0,0,1,.72-7,24.19,24.19,0,0,1-2.7,10A15.37,15.37,0,0,1,90.94,144s3.53-5.73,2.71-9.64c-.46-2.21-2.94-9.75-2.94-13s1.65-9.08,1.65-9.08.73,6.76-1.47,11a19.63,19.63,0,0,1-6.12,7.38,39.3,39.3,0,0,0,5.85-19.61,125.2,125.2,0,0,1,2.39-13c.32-.54,2.2-11.32,1.72-14.79S89.35,66,89.35,66a12.47,12.47,0,0,1-2.13,3c-3.11,2.55-4.68,2.12-4.68,2.12a17.52,17.52,0,0,0,2-4.61,24.67,24.67,0,0,0,.42-3s.15,1.94-3.21,4.73a31.47,31.47,0,0,1-4.19,2.67s3.24-4.09,3.24-8.6a32,32,0,0,0-1.87-9.52s2.8,4,2.17,7-.44,3.26-2.26,5.51a21.9,21.9,0,0,1-6.72,5.58,18.34,18.34,0,0,0,3.49-10.2c0-1.56,0-6.12,0-6.12s-.31,3.35-3.16,8.55a18.66,18.66,0,0,1-6.85,6.54s2.08-2.33,4-8.15c1-3.14.85-9.72.85-9.72s.46,6.56-3.18,10.2a53.94,53.94,0,0,1-14.14,10Z"/><path class="cls-11" d="M107.79,62.3H30.9a8.7,8.7,0,0,1,0-1,37.1,37.1,0,0,1,1-8.09c.06-.3.14-.59.22-.86a39,39,0,0,1,10.14-17.7v0a36.87,36.87,0,0,1,3.09-2.76,36.43,36.43,0,0,1,7.24-4.62A37.19,37.19,0,0,1,63,23.9a35.88,35.88,0,0,1,6.35-.54c1.34,0,2.66.08,4,.19a37.07,37.07,0,0,1,10.28,2.61s0,0,0,0a37.09,37.09,0,0,1,9.46,5.55c.3.23.62.48.91.75A37.76,37.76,0,0,1,102.14,42a31.77,31.77,0,0,1,2.21,4.21,36.91,36.91,0,0,1,2.16,6.11,39.11,39.11,0,0,1,1.26,9.2C107.79,61.77,107.79,62.05,107.79,62.3Z"/><path class="cls-11" d="M94,32.46V61.52H83.7s0-3.72,0-9.2V49.45c0-2.31,0-4.84,0-7.45V31.74c0-1.9,0-5.58,0-5.58a37.09,37.09,0,0,1,9.46,5.55C93.42,31.94,93.74,32.19,94,32.46Z"/><path class="cls-13" d="M42.33,34.62v26.9H32l.46-9-.24-.16a39,39,0,0,1,10.14-17.7Z"/><path class="cls-13" d="M63,23.9V61.52H52.66V27.22A37.19,37.19,0,0,1,63,23.9Z"/><path class="cls-11" d="M73.34,23.55v38H63V23.9a35.88,35.88,0,0,1,6.35-.54C70.7,23.36,72,23.44,73.34,23.55Z"/><path class="cls-13" d="M83.66,61.52H73.34v-38a37.07,37.07,0,0,1,10.28,2.61C83.62,27,83.66,61.52,83.66,61.52Z"/><path class="cls-11" d="M52.66,27.22v34.3H42.33V34.6a36.87,36.87,0,0,1,3.09-2.76A36.43,36.43,0,0,1,52.66,27.22Z"/><path class="cls-13" d="M104.35,46.21V61.52H94V32.46A37.76,37.76,0,0,1,102.14,42,31.77,31.77,0,0,1,104.35,46.21Z"/><path class="cls-11" d="M107.77,61.52H31.51a5.58,5.58,0,0,1-.57-.25,37.1,37.1,0,0,1,1-8.09c.06-.3.14-.59.22-.86h74.32A39.11,39.11,0,0,1,107.77,61.52Z"/><path class="cls-11" d="M102.14,42H36.55a38.13,38.13,0,0,1,5.78-7.38v0a36.87,36.87,0,0,1,3.09-2.76l7.24,0,10.35,0,9.67,0h.66l10.3,0h.06l9.42,0c.3.23.62.48.91.75A37.76,37.76,0,0,1,102.14,42Z"/></g></g></svg>