<svg xmlns="http://www.w3.org/2000/svg" xmlns:xlink="http://www.w3.org/1999/xlink" viewBox="0 0 145.36 145.95"><defs><style>.cls-1{fill:#5ea7af;}.cls-2{fill:#442b19;}.cls-3{fill:#2d1a10;}.cls-4{fill:url(#New_Gradient_Swatch_3);}.cls-5{fill:#e1bf9c;}.cls-6{fill:#f2d1ac;}.cls-7,.cls-9{fill:#c09a80;}.cls-7{opacity:0.7;}.cls-8{fill:#d3a789;}.cls-10{fill:#e0b89b;}.cls-11{fill:#c6696e;}.cls-12{fill:#d87373;}.cls-13{fill:#432612;}.cls-14{fill:#fff;}.cls-15{fill:#0d0d0d;}.cls-16{fill:none;stroke:#fff;stroke-miterlimit:10;stroke-width:0.25px;}</style><linearGradient id="New_Gradient_Swatch_3" x1="369.96" y1="170.61" x2="370.01" y2="176.98" gradientTransform="translate(-165.91 -236.32) rotate(21.93)" gradientUnits="userSpaceOnUse"><stop offset="0" stop-color="#49331b"/><stop offset="0.29" stop-color="#442f18"/><stop offset="0.62" stop-color="#362210"/><stop offset="0.97" stop-color="#1f0c02"/><stop offset="1" stop-color="#1d0a00"/></linearGradient></defs><title>Asset 193</title><g id="Layer_2" data-name="Layer 2"><g id="Layer_1-2" data-name="Layer 1"><rect class="cls-1" width="145.36" height="145.95"/><path class="cls-2" d="M81.37,104.13a39.36,39.36,0,0,0,4.3,2.47,26.43,26.43,0,0,0,7.26-6.13,8.4,8.4,0,0,0-7.35,1.23A21.75,21.75,0,0,1,81.37,104.13Z"/><path class="cls-3" d="M85.67,106.6a27.9,27.9,0,0,0,4-2.94,34,34,0,0,0,9.56,2.42,8,8,0,0,1-8.67,2.59A32.64,32.64,0,0,1,85.67,106.6Z"/><path class="cls-2" d="M89.62,103.64a32.83,32.83,0,0,0,4.61,1.55,26.67,26.67,0,0,0,4.9-7.69,7.35,7.35,0,0,0-6.4,2.82A20.81,20.81,0,0,1,89.62,103.64Z"/><path class="cls-3" d="M101.41,102.09a28,28,0,0,0,1.81-4.27A31.53,31.53,0,0,0,112.39,96c.12-.11-1,5.25-6.11,5.91A24.61,24.61,0,0,1,101.41,102.09Z"/><path class="cls-3" d="M94,105.18a28.19,28.19,0,0,0,2.88-3.75,32.21,32.21,0,0,0,9.49.25A7.51,7.51,0,0,1,99,106.09,30.87,30.87,0,0,1,94,105.18Z"/><path class="cls-2" d="M96.87,101.53a32.12,32.12,0,0,0,4.65.48,28,28,0,0,0,2.81-8.53,6.83,6.83,0,0,0-5.39,4.14A20.38,20.38,0,0,1,96.87,101.53Z"/><path class="cls-3" d="M107.29,97.71a29.61,29.61,0,0,0,.82-4.53,31.78,31.78,0,0,0,8.56-3.68c.09-.13.12,5.31-4.73,7A24.4,24.4,0,0,1,107.29,97.71Z"/><path class="cls-2" d="M102.83,98.09a29.93,29.93,0,0,0,4.55-.48,29.31,29.31,0,0,0,.89-8.88,6.67,6.67,0,0,0-4.34,5.13A23.84,23.84,0,0,1,102.83,98.09Z"/><path class="cls-3" d="M112.23,92a32.62,32.62,0,0,0-.19-4.57,32.89,32.89,0,0,0,7.6-5.43c.07-.15,1.23,5.13-3.14,7.84A30.35,30.35,0,0,1,112.23,92Z"/><path class="cls-2" d="M108,93.31a32.12,32.12,0,0,0,4.31-1.45,29.82,29.82,0,0,0-1-8.82A6.6,6.6,0,0,0,108.12,89,26.14,26.14,0,0,1,108,93.31Z"/><path class="cls-3" d="M115.8,85.35a30.62,30.62,0,0,0-1.14-4.41A31.91,31.91,0,0,0,121,74c0-.16,2.29,4.76-1.43,8.34A23.91,23.91,0,0,1,115.8,85.35Z"/><path class="cls-2" d="M111.93,87.56a30.6,30.6,0,0,0,3.91-2.34A29.36,29.36,0,0,0,113,76.86a6.66,6.66,0,0,0-1.82,6.45A23.27,23.27,0,0,1,111.93,87.56Z"/><path class="cls-3" d="M117.93,78.08a31.32,31.32,0,0,0-2.05-4,31.36,31.36,0,0,0,4.65-8.23c0-.16,3.3,4.19.42,8.51A24.36,24.36,0,0,1,117.93,78.08Z"/><path class="cls-2" d="M114.61,81.08A32.4,32.4,0,0,0,117.94,78a29.07,29.07,0,0,0-4.6-7.55c0,.15-2.31,3.18-.41,6.71A29.18,29.18,0,0,1,114.61,81.08Z"/><path class="cls-3" d="M118.46,70.55a29.74,29.74,0,0,0-2.9-3.54,29.46,29.46,0,0,0,2.62-9.18c0-.16,4.26,3.45,2.4,8.34A25.31,25.31,0,0,1,118.46,70.55Z"/><path class="cls-2" d="M115.85,74.21a30.17,30.17,0,0,0,2.59-3.8A29.2,29.2,0,0,0,112.25,64c0,.14-1.52,3.67,1.11,6.71A25.4,25.4,0,0,1,115.85,74.21Z"/><path class="cls-3" d="M117.28,63a30.94,30.94,0,0,0-3.68-2.87,28.74,28.74,0,0,0,.17-9.79c-.07-.15,5.16,2.57,4.54,7.84A23.6,23.6,0,0,1,117.28,63Z"/><path class="cls-4" d="M115.56,67.16a28,28,0,0,0,1.67-4.33,30.49,30.49,0,0,0-7.64-5c.07.13-.53,4,2.73,6.44A21,21,0,0,1,115.56,67.16Z"/><path class="cls-3" d="M114.3,55.73a31.93,31.93,0,0,0-4.38-2.1,28.64,28.64,0,0,0-2.64-10c-.11-.14,6,1.56,6.77,7C114.57,55.84,114.2,55.69,114.3,55.73Z"/><path class="cls-2" d="M113.67,60.31a28.25,28.25,0,0,0,.55-4.7,33.46,33.46,0,0,0-8.91-3.47c.12.13.63,4.21,4.45,5.94A22.72,22.72,0,0,1,113.67,60.31Z"/><path class="cls-2" d="M64.46,104.13a39.5,39.5,0,0,1-4.31,2.47,26.43,26.43,0,0,1-7.26-6.13,8.42,8.42,0,0,1,7.36,1.23A20.7,20.7,0,0,0,64.46,104.13Z"/><path class="cls-3" d="M60.15,106.6a27.79,27.79,0,0,1-4-2.94,34.08,34.08,0,0,1-9.56,2.42,8,8,0,0,0,8.67,2.59A31.38,31.38,0,0,0,60.15,106.6Z"/><path class="cls-2" d="M56.21,103.64a33.72,33.72,0,0,1-4.61,1.55,26.46,26.46,0,0,1-4.9-7.69,7.36,7.36,0,0,1,6.4,2.82A20.81,20.81,0,0,0,56.21,103.64Z"/><path class="cls-3" d="M44.41,102.09a29,29,0,0,1-1.8-4.27A31.66,31.66,0,0,1,33.43,96c-.11-.11,1,5.25,6.12,5.91A24.45,24.45,0,0,0,44.41,102.09Z"/><path class="cls-3" d="M51.79,105.18a27.38,27.38,0,0,1-2.88-3.75,32.23,32.23,0,0,1-9.49.25,7.5,7.5,0,0,0,7.44,4.41A31.51,31.51,0,0,0,51.79,105.18Z"/><path class="cls-2" d="M49,101.53a32.26,32.26,0,0,1-4.66.48,28.55,28.55,0,0,1-2.81-8.53,6.82,6.82,0,0,1,5.39,4.14A20.44,20.44,0,0,0,49,101.53Z"/><path class="cls-3" d="M38.54,97.71a29.61,29.61,0,0,1-.82-4.53,31.78,31.78,0,0,1-8.56-3.68c-.1-.13-.12,5.31,4.73,7A24.4,24.4,0,0,0,38.54,97.71Z"/><path class="cls-2" d="M43,98.09a29.8,29.8,0,0,1-4.55-.48,29.65,29.65,0,0,1-.9-8.88,6.65,6.65,0,0,1,4.34,5.13A22.12,22.12,0,0,0,43,98.09Z"/><path class="cls-3" d="M33.6,92a31.17,31.17,0,0,1,.19-4.57A32.73,32.73,0,0,1,26.18,82c-.06-.15-1.22,5.13,3.15,7.84A29.27,29.27,0,0,0,33.6,92Z"/><path class="cls-2" d="M37.85,93.31a32.12,32.12,0,0,1-4.31-1.45,29.82,29.82,0,0,1,1-8.82A6.6,6.6,0,0,1,37.71,89,24,24,0,0,0,37.85,93.31Z"/><path class="cls-3" d="M30,85.35a32,32,0,0,1,1.14-4.41,31.88,31.88,0,0,1-6.3-7c0-.16-2.29,4.76,1.42,8.34A26,26,0,0,0,30,85.35Z"/><path class="cls-2" d="M33.89,87.56A30.49,30.49,0,0,1,30,85.22a29.66,29.66,0,0,1,2.86-8.36,6.63,6.63,0,0,1,1.83,6.45A25.33,25.33,0,0,0,33.89,87.56Z"/><path class="cls-3" d="M27.9,78.08A29,29,0,0,1,30,74,31.08,31.08,0,0,1,25.3,65.8c0-.16-3.31,4.19-.42,8.51A23.13,23.13,0,0,0,27.9,78.08Z"/><path class="cls-2" d="M31.22,81.08A32.48,32.48,0,0,1,27.88,78a29.63,29.63,0,0,1,4.6-7.55,6.7,6.7,0,0,1,.41,6.71A24.36,24.36,0,0,0,31.22,81.08Z"/><path class="cls-3" d="M27.37,70.55A28.8,28.8,0,0,1,30.27,67a29.46,29.46,0,0,1-2.62-9.18c0-.16-4.27,3.45-2.41,8.34A23.81,23.81,0,0,0,27.37,70.55Z"/><path class="cls-2" d="M30,74.21a30.17,30.17,0,0,1-2.59-3.8A29.39,29.39,0,0,1,33.57,64c0,.14,1.52,3.67-1.1,6.71A25.4,25.4,0,0,0,30,74.21Z"/><path class="cls-3" d="M28.54,63a31.86,31.86,0,0,1,3.69-2.87,28.24,28.24,0,0,1-.17-9.79c.06-.15-5.16,2.57-4.54,7.84A25.25,25.25,0,0,0,28.54,63Z"/><path class="cls-2" d="M30.26,67.16a29,29,0,0,1-1.66-4.33,30.31,30.31,0,0,1,7.64-5c-.08.13.53,4-2.74,6.44A23.45,23.45,0,0,0,30.26,67.16Z"/><path class="cls-3" d="M31.52,55.73a33.08,33.08,0,0,1,4.38-2.1,28.86,28.86,0,0,1,2.64-10c.12-.14-6,1.56-6.76,7C31.25,55.84,31.62,55.69,31.52,55.73Z"/><path class="cls-2" d="M32.16,60.31a27.23,27.23,0,0,1-.55-4.7,33.33,33.33,0,0,1,8.91-3.47c-.12.13-.63,4.21-4.45,5.94A22.72,22.72,0,0,0,32.16,60.31Z"/><path class="cls-5" d="M72.57,91.52V146H43c-.47-.21-.73-.31-.73-.31,0-29.2,18.12-31.38,18.12-31.38h.14a1.42,1.42,0,0,0,.4-.08c1.49-.41,2.51-2.61,3.19-5.76.13-.55.23-1.11.32-1.71.16-1,.31-2,.41-3.15.06-.66.13-1.33.19-2,.27-3.35.35-7,.35-10.42C65.37,91.13,69.35,91.52,72.57,91.52Z"/><path class="cls-6" d="M103,145.64a7.71,7.71,0,0,0-.71.31H72.57V91.52h.06c3.22,0,7.22-.39,7.22-.39,0,3.42.09,7,.35,10.33.06.67.13,1.33.19,2,.13,1.13.25,2.22.41,3.23v0c.07.46.15.87.24,1.29.61,3,1.53,5.29,2.86,6a1.66,1.66,0,0,0,.31.12,1.68,1.68,0,0,0,.66.12S103,116.44,103,145.64Z"/><path class="cls-7" d="M80.8,106.68v0a9.54,9.54,0,0,1-8.19,4.46h0a10.36,10.36,0,0,1-8.16-4.44c.17-1,.31-2.06.41-3.15.06-.67.13-1.33.19-2a32.43,32.43,0,0,0,7.47,1h.09a30.82,30.82,0,0,0,7.63-1.06c.06.66.12,1.33.19,2C80.51,104.58,80.63,105.66,80.8,106.68Z"/><path class="cls-8" d="M72.54,33C41.66,33,41.48,57.8,42.86,74c-2.12-3.79-8.39-2.38-7.87,3.69.49,5.83,9.34,8.47,9.22,7.83C46.73,98.68,61.29,106,72.54,107h.24v-74Z"/><path class="cls-9" d="M36.54,75.1a3,3,0,0,1,4.52-.81A2.37,2.37,0,0,1,41.8,77c-.22.79-1.09.85-.87,2a2.09,2.09,0,0,0,1.25,1.72,2.88,2.88,0,0,1,1.06,1.1,2.8,2.8,0,0,1,.13,1.68c-.23,1-1.71.19-2.7-.23a19.09,19.09,0,0,1-3.24-2.5C36.11,79.38,35.5,76.67,36.54,75.1Z"/><path class="cls-10" d="M72.69,33C103.57,33,103.75,57.8,102.38,74c2.12-3.79,8.38-2.38,7.87,3.69-.49,5.83-9.35,8.47-9.22,7.83C98.5,98.68,84,106,72.69,107h-.23v-74Z"/><path class="cls-9" d="M108.92,75.1a3.06,3.06,0,0,0-4.53-.81,2.4,2.4,0,0,0-.74,2.69c.23.79,1.09.85.88,2a2.09,2.09,0,0,1-1.25,1.72,2.4,2.4,0,0,0-1.2,2.78c.24,1,1.72.19,2.71-.23a19.92,19.92,0,0,0,3.24-2.5C109.34,79.38,110,76.67,108.92,75.1Z"/><path class="cls-5" d="M72.38,40.07c-10.31,0-17.86,2.84-22.43,8.46-6.38,7.83-6.14,19.81-3.78,28.4.71,2.63,1.08,9.71,1.58,12.31,2.23,11.63,15.73,17.82,24.63,17.82h.24v-67Z"/><path class="cls-6" d="M94.76,48.54c-4.53-5.58-12-8.42-22.14-8.46v67c10.15-.1,22.3-6.89,24.38-17.81.5-2.6.87-9.68,1.59-12.31C100.94,68.36,101.16,56.4,94.76,48.54Z"/><path class="cls-11" d="M77.81,96.55S75.48,99,72.61,99a7.73,7.73,0,0,1-5.07-2.44,33.77,33.77,0,0,1,5.07-.37A42.64,42.64,0,0,1,77.81,96.55Z"/><path class="cls-12" d="M74.08,95.4a1.34,1.34,0,0,0-1.47,1.13,1.35,1.35,0,0,0-1.48-1.13,20.86,20.86,0,0,0-3.73,1.15s2.85.3,3.66.3,1.53.32,1.55-.28c0,.61.59.37,1.4.37s3.8-.39,3.8-.39A20.86,20.86,0,0,0,74.08,95.4Z"/><path class="cls-13" d="M93.84,44.25C91.12,49,91.88,54.46,82.65,58s-13.37,4.53-23.43,8.82C36.41,76.54,48.12,99,48.12,99s-6.24-5.78-8.51-11.81-11-32.29,0-53c6-11.39,17.23-14,27.06-14.78s16.83,0,23.93,6.22c1.55,1.34,6,1.65,10.86,4.93,10.89,7.33,10,18.13,10.47,25a49.67,49.67,0,0,1-2.82,21.13c-2.12,6-15,23.83-15,23.83s10-21.75,4.43-35.89c-3.24-8.27-9-7.8-9.3-11S93.84,44.25,93.84,44.25Z"/><path class="cls-14" d="M82.45,130.9A10.55,10.55,0,1,1,71.9,120.35,10.55,10.55,0,0,1,82.45,130.9Z"/><path class="cls-15" d="M90.51,132.82c-4.53-3-4.7-6.93-4.7-9.71l-.45-.09a3.63,3.63,0,0,0-.46-.06l-.19,0H84.5a1.32,1.32,0,0,1-.33-.05,1.81,1.81,0,0,1-.62-.28,0,0,0,0,1,0,0,3.08,3.08,0,0,1-1-.8c-.34,2.4-.68,6.82-1.12,8-4.72,12.88-13.21,13.13-17.76,0A78,78,0,0,1,62.54,122a2.87,2.87,0,0,1-1.56.93,2.76,2.76,0,0,1-.4.06h-.14l-.19,0h-.1l-.81.14c0,2.78-.17,6.7-4.69,9.71C46,138.6,48.46,144,49.9,145.93H95.26C96.69,144,99.2,138.6,90.51,132.82Z"/><path class="cls-15" d="M74.56,121c.11,1.83-4.29,8.39-11.93,12.33-4.31,2.22-20.33,10.79-20.35,12.27,0-29.2,18.11-31.38,18.11-31.38h.15a2.7,2.7,0,0,0,.39-.08c1.39-.4,2.37-2.31,3-5.09,1.43.85,4.46,2.49,6.58,2.68C73.38,112,74.46,119.22,74.56,121Z"/><path class="cls-15" d="M70.67,121c-.1,1.83,4.3,8.39,11.93,12.33,4.32,2.22,20.34,10.79,20.36,12.27,0-29.2-18.11-31.38-18.11-31.38H84.7a3.14,3.14,0,0,1-.4-.08c-1.39-.4-2.36-2.31-3-5.09-1.44.85-4.47,2.49-6.58,2.68C71.86,112,70.78,119.22,70.67,121Z"/><path class="cls-14" d="M83.16,112.9a.38.38,0,0,1-.12.53,17.48,17.48,0,0,1-20.77,0,.38.38,0,0,1-.11-.53h0a.38.38,0,0,1,.54,0,16.77,16.77,0,0,0,19.92,0,.38.38,0,0,1,.54,0Z"/><path class="cls-16" d="M74.4,116.35c-1.32-.24-4.27-1-4.87.82-.51,1.53,1.09,2.3,2.29,1.6A11,11,0,0,0,74.49,116"/><path class="cls-16" d="M73.94,116.52c.93-1,2.87-3.31,4.42-2.19,1.32,1,.47,2.52-.92,2.64a11.18,11.18,0,0,1-3.79-.68"/><path class="cls-14" d="M74.08,124.68l-.18-.33a6.12,6.12,0,0,1-.44-.89,4.74,4.74,0,0,1-.3-1.41,5.4,5.4,0,0,1,.13-1.64c.11-.56.34-1,.47-1.54a6.28,6.28,0,0,0,.31-1.31,3.58,3.58,0,0,0,0-1c0-.24,0-.38,0-.38l.11.36a2.76,2.76,0,0,1,.17,1,4.86,4.86,0,0,1-.17,1.42c-.11.5-.31,1-.39,1.54a4.68,4.68,0,0,0-.19,1.51,6.09,6.09,0,0,0,.12,1.33C73.92,124.15,74.08,124.68,74.08,124.68Z"/><path class="cls-14" d="M74.4,116v.34a2.56,2.56,0,0,0,.32.78,9.92,9.92,0,0,0,.7,1,13,13,0,0,1,.76,1.25c.46.86.9,1.73,1.2,2.41s.45,1.15.45,1.15-.3-.4-.71-1-.91-1.46-1.39-2.31c-.25-.45-.43-.86-.68-1.24a5.41,5.41,0,0,1-.59-1.14A1.66,1.66,0,0,1,74.4,116Z"/></g></g></svg>