<svg xmlns="http://www.w3.org/2000/svg" xmlns:xlink="http://www.w3.org/1999/xlink" viewBox="0 0 145.36 146"><defs><style>.cls-1{fill:none;}.cls-2{fill:#965458;}.cls-3{fill:#c09a80;}.cls-4{fill:#f9f9fa;}.cls-5{fill:#3a2817;}.cls-6{fill:#d7df23;}.cls-7{fill:#39b54a;}.cls-8{clip-path:url(#clip-path);}.cls-9{fill:#009444;}.cls-10{fill:#8dc63f;}.cls-11{fill:#3b4d81;}.cls-12{fill:#fff;}.cls-13{fill:#4c4c4c;}.cls-14{fill:#404040;}.cls-15{fill:#006838;}</style><clipPath id="clip-path"><rect class="cls-1" x="63.21" y="101.2" width="16.51" height="9.75"/></clipPath></defs><title>Asset 158</title><g id="Layer_2" data-name="Layer 2"><g id="Layer_1-2" data-name="Layer 1"><rect class="cls-2" width="145.36" height="145.95"/><path class="cls-3" d="M85.65,101.13a3,3,0,0,1,4.56-.87,2.62,2.62,0,0,1,.74,2.87c-.22.83-1.09.89-.88,2.15a2.23,2.23,0,0,0,1.26,1.83,3,3,0,0,1,1.07,1.16,3.24,3.24,0,0,1,.14,1.78c-.24,1-1.73.21-2.72-.24a18.81,18.81,0,0,1-3.27-2.65c-1.32-1.49-1.94-4.37-.9-6"/><path class="cls-4" d="M93.13,101.34a.39.39,0,0,1-.42.37.39.39,0,0,1-.37-.42l.19-2.58a.39.39,0,1,1,.78.06Z"/><path class="cls-5" d="M71.23,87.84s-.09.15-.13.31c-3.52-.93-34.92-7.08-34.92-7.08,2.47,6.64,4.74,9.39,6.72,12.42s3.16,5.43,6.6,6.19S71,100,71,100s17.77.42,21.21-.33,4.63-3.18,6.61-6.2,3.46-4.23,5.93-10.86c0,0-32.87,4.8-33.47,5.21"/><path class="cls-6" d="M71.42,91.19V146H41.63l-.73-.3c0-29.4,18.23-31.59,18.23-31.59,1.83,0,3-2.34,3.77-5.9.12-.54.23-1.11.31-1.71q.26-1.5.42-3.18c.06-.66.13-1.33.19-2,.27-3.37.35-7,.35-10.49,0,0,4,.4,7.25.4"/><path class="cls-7" d="M102,145.68s-.26.1-.7.3H71.42V91.19h.06c3.24,0,7.27-.4,7.27-.4,0,3.45.09,7.06.36,10.41.06.67.12,1.34.18,2,.13,1.15.26,2.23.43,3.26v0c.06.46.14.88.22,1.3.78,3.78,2,6.33,3.87,6.33,0,0,18.23,2.19,18.23,31.59"/><g class="cls-8"><path class="cls-9" d="M79.72,106.43v0A9.63,9.63,0,0,1,71.46,111h0a10.37,10.37,0,0,1-8.21-4.47q.26-1.5.42-3.18c.06-.66.13-1.33.19-2a32.39,32.39,0,0,0,7.51,1h.09a31.18,31.18,0,0,0,7.69-1.06c.06.67.12,1.34.18,2,.13,1.15.26,2.23.43,3.25"/></g><path class="cls-10" d="M71.09,28.35c-31.56,0-31.74,26.42-30.34,43.71-2.16-4.1-8.57-2.83-8,3.62.51,6.22,9.55,9.44,9.43,8.71,2.58,14.23,17.43,22.45,29,22.45h.23V28.35h-.23"/><path class="cls-7" d="M71.24,28.35c31.56,0,31.74,26.42,30.34,43.71,2.16-4.1,8.56-2.83,8,3.62-.51,6.22-9.55,9.44-9.43,8.71-2.59,14.23-17.43,22.45-28.95,22.45H71V28.35h.24"/><path class="cls-3" d="M107.6,73a3,3,0,0,0-4.56-.87A2.64,2.64,0,0,0,102.3,75c.22.83,1.09.89.88,2.15a2.23,2.23,0,0,1-1.26,1.83,3.1,3.1,0,0,0-1.07,1.16,3.23,3.23,0,0,0-.13,1.78c.24,1,1.73.21,2.72-.24A18.38,18.38,0,0,0,106.7,79c1.33-1.49,1.94-4.37.9-6"/><path class="cls-6" d="M71.23,35.8c-10.39,0-18,3-22.59,9-6.41,8.31-6.17,21-3.8,30.12.72,2.79,1.09,10.3,1.59,13,2.25,12.33,15.85,18.9,24.8,18.9h.24v-71h-.24"/><path class="cls-10" d="M93.77,44.78c-4.57-5.91-12.07-8.93-22.3-9v71C81.7,106.71,93.93,99.52,96,87.94c.5-2.75.87-10.26,1.6-13,2.36-9.09,2.6-21.77-3.85-30.11"/><path class="cls-4" d="M99.81,73.16a.41.41,0,0,0,.43.37.39.39,0,0,0,.36-.42l-.18-2.58a.4.4,0,0,0-.43-.37.39.39,0,0,0-.36.43Z"/><path class="cls-1" d="M85.58,121.45c.13,2.9-5.25,16.1-9.2,24.55H66.57c-3.95-8.43-9.33-21.65-9.22-24.6a16.34,16.34,0,0,1,1.54-6.7,18.25,18.25,0,0,1,2.83-4.13.71.71,0,0,0,.12-.13h.29L71.47,117l9.33-6.57h.29a1.37,1.37,0,0,0,.2.22,22.63,22.63,0,0,1,2.14,2.9c.2.36.4.73.58,1.09a16.35,16.35,0,0,1,1.57,6.8"/><path class="cls-11" d="M66.42,145.92c-.2-.41-.41-.87-.62-1.31,0-.05-.06-.09-.08-.15-.41-.89-.84-1.77-1.24-2.64-.35-.72-.68-1.44-1-2.19-1.25-2.73-2.33-5.22-3-7A41.64,41.64,0,0,1,58.67,126c-.07-.28-.12-.56-.17-.83a.47.47,0,0,1,0-.17,7.4,7.4,0,0,1-.13-.8,2.16,2.16,0,0,1-.06-.38,27.8,27.8,0,0,1,0-9.26c0-.1.06-.18.08-.27-3.44.8-17.47,5.64-17.47,31.44l.72.31H66.47Z"/><path class="cls-11" d="M76.53,145.92c.21-.41.42-.87.63-1.31,0-.05.06-.09.08-.15.41-.89.83-1.77,1.24-2.64.35-.72.67-1.44,1-2.19,1.25-2.73,2.33-5.22,3-7A42.7,42.7,0,0,0,84.29,126c.06-.28.11-.56.17-.83a.47.47,0,0,0,0-.17c0-.27.09-.53.14-.8s0-.24,0-.38a27.77,27.77,0,0,0,0-9.26c0-.1-.06-.18-.08-.27C88,115,102,119.88,102,145.68l-.71.31H76.49Z"/><path class="cls-12" d="M68,146H62.77c-.24-.27-.44-.53-.64-.76-10.62-12.62-12.26-21.91-12.26-21.91l4.38-2.2-2.7-2s1.05-1.33,2.94-3.31a18.82,18.82,0,0,1,2.15-1.78,19,19,0,0,1,3.48-2c-.13.16-1.25,1.76-1,9.38,0,.51.06,1,.13,1.53,0,.13,0,.24.05.34,0,.26.08.49.13.75a.47.47,0,0,0,0,.16c0,.25.09.51.14.76A69.72,69.72,0,0,0,64,137.57c.31.69.62,1.35.93,2s.76,1.64,1.12,2.44c.24.46.44.9.65,1.34s.47,1,.71,1.49L68,146"/><path class="cls-12" d="M93.11,123.33s-1.63,9.29-12.27,21.91l-.66.76H75.05c1.36-2.78,3-6.09,4.41-9.5a1.7,1.7,0,0,0,.12-.3s0,0,0,0a60.09,60.09,0,0,0,3.86-11.89,1.44,1.44,0,0,0,0-.24c.06-.27.09-.52.13-.79a2.85,2.85,0,0,1,0-.29c.07-.53.09-1,.13-1.55a34.94,34.94,0,0,0-.38-7.84c-.06-.24-.11-.44-.16-.61s0-.06,0-.1a2.72,2.72,0,0,0-.38-.83,20,20,0,0,1,3.44,2h0a18.17,18.17,0,0,1,2.17,1.79c1.87,2,2.92,3.3,2.92,3.3l-2.7,2Z"/><path class="cls-5" d="M61.59,32.72C59.86,31.8,52.46,29,52.46,29S55,30.48,55.28,31.8,38.57,39.3,36.2,56.15s3.66,23.57,3.66,23.57S38.74,67.93,38.74,68s-4.57,5.28-4.09,9.42,1.53,3.69,4.77,8.33c3,4.22-.08-2.21-.08-2.21s2.36,7.63,3.46,4.38c1.89-5.62,1.12-8,1.76-11.1s1.12-11.59,1.12-11.59-2.82,6.83.47,13.53a17,17,0,0,0,2.29,3.48,19.42,19.42,0,0,1-1.6-8.75c.25-2.81,2-3.25,6-13.58,1.86-4.9.27-14.31,0-12s-.54,8,1.42,10.88a15.85,15.85,0,0,0,7.27,5.77,12.77,12.77,0,0,1-4.75-9.57A14.61,14.61,0,0,1,58,49s-1.21,6.89,9.69,11a9.06,9.06,0,0,0,5.59.39s-4.53-2.54-4.57-6.94A37.14,37.14,0,0,0,88.06,64.69a29.15,29.15,0,0,0,8.12.77s.5-1,.35,3.66-1,6.65-2.16,8.26a16.72,16.72,0,0,1-1.9,1.84,11.82,11.82,0,0,0,5.89-5.66,14.06,14.06,0,0,0,1-7.06,81,81,0,0,1,0,11.73c-.68,9.81-4.26,14.09-4.26,14.09s3.5-1.86,5.75-7.59c.07-.18-.25,3.47.07,1,0,0,3.18.42,5.47-5.61,0,0,1.48,6.43.36-1.22-1.41-9.72,1-17.3-.87-24.89s-2.4-8.35-5.56-12.47S94.2,34.07,85.69,31.34s-10.31-1.8-13.56-1.76A16.14,16.14,0,0,0,63.64,32a7.37,7.37,0,0,1,.31-4,20.09,20.09,0,0,1,1.42-3.4s-2.07,3-2.52,3.79c-1.84,3.14-1.26,4.39-1.26,4.39"/><path class="cls-13" d="M41,90.8c-4.26-7.67-5.74-11.53-4.67-17.28.35-1.88,2.26-7,2-9.59-.49-4,9.49-23.48,17.24-27.16s15.15-4.52,20-4A22.63,22.63,0,0,1,92.36,44c4.24,7.65,6.08,8.27,6.37,10.59s1.38,5,1.87,8c.54,3.28,4.1,10.13,4.1,16,0,5.66-5.26,14-5.26,14s5.36-7.39,6.56-8.66a11.1,11.1,0,0,0,3.7-7c.58-4-2.09-11.27-1.8-14.83a43.76,43.76,0,0,0-2.66-19.07C102.17,35.23,98.51,26.62,90.9,22s-15.82-8.2-22.55-6.29-12.61-.32-21.25,6.24S37,27,31.61,41.25c-3.05,8.06-.45,14.62-1,19a51.48,51.48,0,0,0-.1,10.92C31.1,80.67,41,90.8,41,90.8"/><path class="cls-14" d="M38.46,53.2c3-9.51,8.81-19.61,14.09-22.34s12.29-5.34,19.76-4.52,16.54,4,19.76,7.66,7.47,10.8,7.9,14.36.34,5.56.63,7.6,2.75,14.37,2.75,14.37S98.62,58,98.16,55.62c-1-5.17-4.79-9.49-7.32-12.28A54.62,54.62,0,0,0,84.12,38s-2.35-5.57-11.81-5.31c-14,.39-19.08,7.88-19.08,7.88s-2.61,2.34-3.84,3.74c-3.23,3.7-8.47,10.5-9.73,16.52a63.53,63.53,0,0,1-2.33,9.08,36.34,36.34,0,0,1,.16-6.39c.2-2.52-.45-5.92,1-10.33"/><path class="cls-15" d="M76.87,95.77a24.27,24.27,0,0,0,6.27-3l2,2.19.89-.8-1.88-2.08a26,26,0,0,0,3.22-2.84L89.79,91l.69-1-2.32-1.64a28.32,28.32,0,0,0,2.19-2.9l2.29,1.63.69-1L91,84.47a20.69,20.69,0,0,0,1.61-3.29l-1.35-.48a21.35,21.35,0,0,1-1.46,2.92l-1.66-1.18-.69,1,1.72,1.22A25.8,25.8,0,0,1,87,87.53l-1.68-1.19-.69,1,1.55,1.11a24.31,24.31,0,0,1-3,2.61l-1.42-1.57-.89.81,1.32,1.45a22.15,22.15,0,0,1-5.71,2.67Z"/></g></g></svg>