<svg xmlns="http://www.w3.org/2000/svg" xmlns:xlink="http://www.w3.org/1999/xlink" viewBox="0 0 145.36 145.95"><defs><style>.cls-1{fill:none;}.cls-2{fill:#5d3675;}.cls-3{fill:#3a2817;}.cls-4{fill:#e2bf9c;}.cls-5{fill:#f2d1ac;}.cls-6{clip-path:url(#clip-path);}.cls-7{fill:#c09a80;}.cls-8{fill:#d3a789;}.cls-9{fill:#e0b89b;}.cls-10{fill:#454545;}.cls-11{fill:#3f2c19;}.cls-12{fill:#e2e2e2;}.cls-13{fill:#432612;}.cls-14{fill:#ae2130;}.cls-15{fill:#f9f9fa;}.cls-16{fill:#563a22;}</style><clipPath id="clip-path"><rect class="cls-1" x="63.13" y="96.79" width="17.58" height="10.39"/></clipPath></defs><title>Asset 140</title><g id="Layer_2" data-name="Layer 2"><g id="Layer_1-2" data-name="Layer 1"><rect class="cls-2" width="145.36" height="145.95"/><path class="cls-3" d="M71.67,82.57a.64.64,0,0,0-.14.32c-3.75-1-37.19-7.53-37.19-7.53,2.63,7.07,5,10,7.15,13.22s3.38,5.79,7,6.6,22.85.36,22.85.36S90.3,96,94,95.19s4.94-3.39,7-6.6,3.68-4.51,6.32-11.57c0,0-35,5.12-35.65,5.55"/><path class="cls-4" d="M71.87,86.13v58.36H40.15l-.78-.33c0-31.3,19.42-33.64,19.42-33.64,1.94,0,3.18-2.49,4-6.27.14-.58.25-1.19.34-1.83.18-1.06.33-2.2.44-3.38.07-.71.14-1.42.21-2.15.28-3.59.37-7.49.37-11.18,0,0,4.27.42,7.72.42"/><path class="cls-5" d="M104.49,144.16l-.76.33H71.87V86.13h.07c3.45,0,7.74-.42,7.74-.42,0,3.67.09,7.52.38,11.08.07.72.14,1.43.2,2.12.13,1.22.27,2.38.45,3.47v0c.06.49.15.94.24,1.38.82,4,2.11,6.74,4.12,6.74,0,0,19.42,2.34,19.42,33.64"/><g class="cls-6"><path class="cls-7" d="M80.71,102.37v0a10.27,10.27,0,0,1-8.79,4.79h0a11.09,11.09,0,0,1-8.74-4.76c.18-1.07.33-2.21.44-3.39.07-.71.14-1.42.21-2.15a35.33,35.33,0,0,0,8,1h.09a33.18,33.18,0,0,0,8.19-1.14c.07.72.14,1.43.2,2.12.13,1.22.27,2.38.45,3.46"/></g><path class="cls-8" d="M71.52,19.21c-33.61,0-33.81,28.14-32.31,46.55-2.3-4.36-9.12-3-8.56,3.86.54,6.62,10.17,10,10,9.27,2.75,15.16,18.56,23.91,30.83,23.91h.25V19.22h-.25"/><path class="cls-9" d="M71.68,19.21c33.61,0,33.8,28.14,32.31,46.55,2.3-4.36,9.12-3,8.57,3.86-.55,6.62-10.18,10-10,9.27C99.76,94.05,84,102.8,71.68,102.8h-.25V19.22h.25"/><path class="cls-7" d="M110.41,66.71a3.19,3.19,0,0,0-4.86-.92,2.77,2.77,0,0,0-.79,3c.24.88,1.16,1,.94,2.29a2.38,2.38,0,0,1-1.34,2,3.21,3.21,0,0,0-1.14,1.24,3.45,3.45,0,0,0-.15,1.89c.26,1.09,1.85.22,2.9-.25a20,20,0,0,0,3.47-2.83c1.42-1.59,2.07-4.65,1-6.42"/><path class="cls-4" d="M71.67,27.15c-11.06,0-19.15,3.21-24.05,9.55-6.84,8.85-6.58,22.37-4,32.08.77,3,1.16,11,1.69,13.9,2.39,13.13,16.88,20.12,26.41,20.12h.26V27.16h-.26"/><path class="cls-5" d="M95.67,36.71c-4.86-6.29-12.86-9.5-23.74-9.55v75.63c10.89-.12,23.91-7.78,26.15-20.11.52-2.94.92-10.93,1.7-13.9,2.51-9.68,2.76-23.19-4.11-32.07"/><path class="cls-3" d="M98.65,21.68C90.24,15.28,79,15,71.37,15.84c-7.66-.82-18.87-.56-27.28,5.84C30.36,32.13,33.55,63.13,33.55,63.13s2.21-.53,3.49.79a12.39,12.39,0,0,1,3.26,6.13,5,5,0,0,0,2.44,3.19s-3.28-14.89.09-21.52C44.92,47.61,46.72,43.13,53,38.8c4.12-2.83,11.4-3.61,18.37-3.52,7-.09,14.24.69,18.35,3.52,6.29,4.33,8.1,8.81,10.18,12.92,3.38,6.63.09,21.52.09,21.52a5,5,0,0,0,2.45-3.19,12.31,12.31,0,0,1,3.26-6.13c1.28-1.32,3.48-.79,3.48-.79s3.2-31-10.53-41.45"/><path class="cls-10" d="M102.11,66.94a.43.43,0,0,0,.45.39.42.42,0,0,0,.39-.45l-.2-2.75a.41.41,0,0,0-.45-.39.43.43,0,0,0-.39.45Z"/><path class="cls-11" d="M50.48,36c1.5-3.28,5-9,14.18-11.17,2.79-.66,11.58-1.48,15.12,0A10.62,10.62,0,0,1,86.1,31c1.05,2.69.6,11.11-13.12,12.27-5.22.44-14.09,3-15.62,5.82-2.53,4.65,3.86,8.48,3.86,8.48s-8.68-3.39-10.79-8.94a15.94,15.94,0,0,1,0-12.67"/><path class="cls-12" d="M87,118.36c.13,3.09-5.6,17.15-9.81,26.15H66.71c-4.21-9-9.94-23.06-9.82-26.2a17.5,17.5,0,0,1,1.64-7.13,19.4,19.4,0,0,1,3-4.4l.13-.14H62l10,7,9.93-7h.32a2.12,2.12,0,0,0,.2.24A23.75,23.75,0,0,1,84.67,110l.61,1.16A17.41,17.41,0,0,1,87,118.36"/><path class="cls-13" d="M66.55,144.42c-.21-.44-.43-.93-.67-1.39a1.19,1.19,0,0,0-.08-.16c-.44-1-.89-1.89-1.32-2.81s-.72-1.54-1.08-2.34c-1.33-2.91-2.48-5.55-3.16-7.42a44.77,44.77,0,0,1-2-7.15c-.07-.29-.13-.59-.17-.87a1.25,1.25,0,0,1,0-.19c-.06-.28-.1-.57-.14-.86a2.13,2.13,0,0,1-.06-.39,29.57,29.57,0,0,1,0-9.87c0-.11.06-.19.08-.29-3.66.86-18.6,6-18.6,33.48l.77.34H66.6Z"/><path class="cls-13" d="M77.31,144.42c.23-.44.45-.93.67-1.39a1.29,1.29,0,0,1,.09-.16c.43-1,.89-1.89,1.33-2.81s.71-1.54,1.07-2.34c1.33-2.91,2.48-5.55,3.17-7.42a45.83,45.83,0,0,0,1.94-7.15c.06-.29.12-.59.18-.87a1.25,1.25,0,0,0,0-.19c0-.28.09-.57.14-.86,0-.11,0-.25,0-.39A29.55,29.55,0,0,0,86,111c0-.11-.06-.19-.08-.29,3.67.86,18.61,6,18.61,33.48l-.76.34H77.28Z"/><path class="cls-14" d="M68.18,144.51H62.66L62,143.7c-11.31-13.44-13.06-23.34-13.06-23.34L53.59,118l-2.88-2.12s1.12-1.42,3.13-3.52a18.6,18.6,0,0,1,2.29-1.89,20.19,20.19,0,0,1,3.71-2.18c-.14.18-1.33,1.87-1,10,0,.55.06,1.07.14,1.63a3.69,3.69,0,0,0,0,.37c0,.27.08.52.13.79a.4.4,0,0,0,0,.18c0,.26.09.53.15.8A74.22,74.22,0,0,0,64,135.54c.33.73.66,1.43,1,2.14s.82,1.75,1.2,2.6c.25.49.47,1,.69,1.43s.51,1,.76,1.58.39.81.58,1.22"/><path class="cls-14" d="M95,120.36s-1.74,9.9-13.07,23.34c-.2.25-.44.52-.7.81H75.74c1.45-3,3.17-6.48,4.7-10.11.06-.12.09-.23.13-.33s0,0,0,0a63.53,63.53,0,0,0,4.12-12.66,1.84,1.84,0,0,0,.05-.25c.06-.29.09-.56.14-.85,0-.1,0-.21,0-.31.07-.56.1-1.1.14-1.65a36.91,36.91,0,0,0-.41-8.35c-.06-.25-.11-.47-.17-.65s0-.06,0-.1a3,3,0,0,0-.41-.89,21.51,21.51,0,0,1,3.67,2.18h0a18.94,18.94,0,0,1,2.31,1.89c2,2.1,3.11,3.52,3.11,3.52L90.29,118Z"/><path class="cls-15" d="M84.09,108.05c-.48-1.24-1.64-2.39-2.07-3.38-.7-1.63-1.34-3.07-1.34-3.07a15,15,0,0,1-4.79,8.48c-3.12,2.53-4.74,3.72-3.56,4s6.2,7.23,7.8,9.1,1.34,3.6,1.76,1.07,1.83-5.09,2-8.39,1.51-4.47.23-7.78"/><path class="cls-15" d="M68,110.08a15,15,0,0,1-4.79-8.48s-.64,1.44-1.35,3.07c-.42,1-1.59,2.14-2.07,3.38-1.28,3.31.09,4.47.23,7.78s1.55,5.87,2,8.39.15.8,1.75-1.07,6.63-8.84,7.81-9.1-.43-1.43-3.55-4"/><path class="cls-16" d="M82.83,30.39s0,.16,0,.46a6,6,0,0,1-.19,1.27,9.21,9.21,0,0,1-.7,1.9c-.22.34-.43.7-.67,1.07a9.89,9.89,0,0,1-.92,1.07,18.92,18.92,0,0,1-5.46,3.64,71.8,71.8,0,0,1-6.92,2.62A53.91,53.91,0,0,0,61.2,45a13.42,13.42,0,0,0-2.66,1.73A5.78,5.78,0,0,0,57,49a7.79,7.79,0,0,0,0,4.26c.3,1,.5,1.65.5,1.65s-.33-.54-.81-1.55a7.63,7.63,0,0,1-.62-4.62,7,7,0,0,1,1.59-2.86,11.66,11.66,0,0,1,2.82-2.16,41.18,41.18,0,0,1,6.9-2.85c4.73-1.56,9.51-3,12.27-5.37a11.67,11.67,0,0,0,1.7-1.78A8.8,8.8,0,0,0,82.28,32a8.42,8.42,0,0,0,.42-1.2l.13-.44"/><path class="cls-16" d="M76.71,26.79l.28.33a4.55,4.55,0,0,1,.67,1.07,3.89,3.89,0,0,1,.37,2,4.41,4.41,0,0,1-1.1,2.45,15.82,15.82,0,0,1-5.28,3.72c-1,.51-2.13,1-3.23,1.46a27.54,27.54,0,0,0-3.16,1.6,26.11,26.11,0,0,0-5.49,4.19,12.24,12.24,0,0,0-3.16,5,7.16,7.16,0,0,0,0,4.17,8.66,8.66,0,0,0,.63,1.55L57,54a6,6,0,0,1-.67-1.07,7.25,7.25,0,0,1-.63-4.5,12.55,12.55,0,0,1,3-5.77A23.54,23.54,0,0,1,64.42,38,51,51,0,0,1,71,35a17.27,17.27,0,0,0,5.19-3,4.44,4.44,0,0,0,1.17-1.92,3.4,3.4,0,0,0-.05-1.78,6.61,6.61,0,0,0-.64-1.52"/><path class="cls-11" d="M62.78,100.63c0,2.86,1.5,5.16,3.23,5.16H76c1.79,0,3.25-2.38,3.25-5.33h0a19.24,19.24,0,0,1-16.48.17Z"/></g></g></svg>