<svg xmlns="http://www.w3.org/2000/svg" xmlns:xlink="http://www.w3.org/1999/xlink" viewBox="0 0 145.85 145.95"><defs><style>.cls-1{fill:none;}.cls-2{fill:#7e6052;}.cls-3{fill:#e2bf9c;}.cls-4{fill:#f2d1ac;}.cls-5{clip-path:url(#clip-path);}.cls-6{fill:#c09a80;}.cls-7{fill:#d3a789;}.cls-8{fill:#e0b89b;}.cls-9{fill:#f9f9fa;}.cls-10{fill:#41130d;}.cls-11{fill:#976339;}.cls-12{fill:#191919;}.cls-13{fill:#2c292a;}.cls-14{fill:#a86528;}.cls-15{fill:#563a22;}</style><clipPath id="clip-path"><rect class="cls-1" x="69.79" y="97.59" width="17.58" height="10.39"/></clipPath></defs><title>Asset 133</title><g id="Layer_2" data-name="Layer 2"><g id="Layer_1-2" data-name="Layer 1"><rect class="cls-2" width="145.85" height="145.95"/><path class="cls-3" d="M78.55,86.94v58.35H46.82c-.51-.23-.81-.33-.81-.33C46,120.89,57.5,114,62.82,112a12.52,12.52,0,0,1,2.64-.71c1.94,0,3.16-2.48,4-6.26.13-.58.24-1.18.33-1.82.18-1.07.31-2.21.45-3.39,0-.71.13-1.42.2-2.16.29-3.6.38-7.49.38-11.17,0,0,4.27.43,7.72.43"/><path class="cls-4" d="M111.16,145a6.91,6.91,0,0,0-.75.33H78.55V86.94h.06c3.45,0,7.75-.43,7.75-.43,0,3.68.06,7.53.37,11.09,0,.71.14,1.42.21,2.08.13,1.25.23,2.42.41,3.5v0c.09.49.16.93.27,1.38.83,4,2.12,6.73,4.13,6.73a15.14,15.14,0,0,1,4,1.24c5.7,2.6,15.42,10.26,15.42,32.41"/><g class="cls-5"><path class="cls-6" d="M87.37,103.17v0A10.25,10.25,0,0,1,78.58,108h0a11,11,0,0,1-8.74-4.77c.17-1.06.32-2.2.44-3.38.06-.71.13-1.42.19-2.15a35.43,35.43,0,0,0,8,1h.09a32.79,32.79,0,0,0,8.19-1.13c.06.7.13,1.41.19,2.11.14,1.23.27,2.38.45,3.47"/></g><path class="cls-7" d="M78,20c-33.61,0-33.8,28.12-32.31,46.54-2.3-4.36-9.12-3-8.57,3.85.54,6.63,10.18,10.06,10,9.29,2.76,15.15,18.57,23.9,30.84,23.9h.25V20H78"/><path class="cls-6" d="M39.23,67.49a3.18,3.18,0,0,1,4.86-.92,2.74,2.74,0,0,1,.78,3c-.23.89-1.16,1-.93,2.3a2.38,2.38,0,0,0,1.34,2,3.14,3.14,0,0,1,1.14,1.24A3.36,3.36,0,0,1,46.57,77c-.26,1.09-1.85.23-2.9-.26a19.92,19.92,0,0,1-3.48-2.82c-1.41-1.59-2.07-4.65-1-6.42"/><path class="cls-8" d="M78.12,20c33.61,0,33.8,28.12,32.31,46.54,2.3-4.36,9.12-3,8.56,3.85-.54,6.63-10.17,10.06-10,9.29-2.75,15.15-18.56,23.9-30.83,23.9h-.25V20h.25"/><path class="cls-6" d="M116.85,67.49a3.18,3.18,0,0,0-4.86-.92,2.76,2.76,0,0,0-.79,3c.24.89,1.17,1,.94,2.3a2.36,2.36,0,0,1-1.35,2,3.12,3.12,0,0,0-1.13,1.24,3.36,3.36,0,0,0-.15,1.89c.26,1.09,1.84.23,2.9-.26a19.92,19.92,0,0,0,3.48-2.82c1.41-1.59,2.06-4.65,1-6.42"/><path class="cls-3" d="M78.33,27.92c-11,0-19.15,3.21-24,9.55-6.84,8.85-6.58,22.38-4.05,32.09.77,3,1.16,11,1.69,13.89,2.39,13.14,16.87,20.13,26.41,20.13h.26V27.93h-.26"/><path class="cls-4" d="M102.33,37.48C97.47,31.19,89.47,28,78.59,27.93v75.64c10.89-.12,23.91-7.78,26.15-20.12.53-2.93.93-10.93,1.7-13.89,2.51-9.68,2.76-23.19-4.11-32.08"/><path class="cls-9" d="M111.16,145a6.91,6.91,0,0,0-.75.33H46.82c-.51-.23-.81-.33-.81-.33C46,120.89,57.5,114,62.82,112c3.06,1.53,8,4,9.81,4.82,1.37.6,3.37,2.06,6,2,2.4,0,5.31-1.51,8.77-2.59a46.53,46.53,0,0,0,8.39-3.74c5.7,2.6,15.42,10.26,15.42,32.41"/><path class="cls-10" d="M104.07,145.29H53.12c.15-2.49.3-7,.24-13.09v-1.15c0-.41,0-.85-.07-1.33,0-.3,0-.64-.07-1-.19-2.45-.6-5.35-1.08-8.37a23.7,23.7,0,0,1,4.67-5.17,2.16,2.16,0,0,1,.42-.35,20.71,20.71,0,0,1,5.56-3.16q.43-.17.81-.27a12.52,12.52,0,0,1,1.86-.44,2.34,2.34,0,0,0,1.6-.67,0,0,0,0,1,0,0,5.57,5.57,0,0,0,.48-.56,1.32,1.32,0,0,1,.28.58c.6,1.59,6.61,6.25,10.75,10.32,4.14-4.07,10.14-8.73,10.74-10.32a1.38,1.38,0,0,1,.3-.58,4.44,4.44,0,0,0,.46.56s0,0,0,0a2.35,2.35,0,0,0,1.6.67,10.54,10.54,0,0,1,1.76.4l.8.29a19.91,19.91,0,0,1,5.63,3.14,3.41,3.41,0,0,1,.41.36,22.85,22.85,0,0,1,4.72,5.2c-.5,3.12-.91,6.07-1.08,8.54,0,.33-.07.66-.09,1s0,.67-.05.95V132c-.09,6.17.09,10.78.25,13.29"/><polygon class="cls-11" points="65.59 124.54 65.61 124.5 65.58 124.5 62.34 118.96 59.13 113.34 55.91 118.96 52.68 124.5 52.65 124.5 52.67 124.54 52.65 124.56 52.68 124.56 55.91 130.12 59.13 135.72 62.34 130.12 65.58 124.56 65.61 124.56 65.59 124.54"/><polygon class="cls-11" points="78.56 124.54 78.58 124.5 78.54 124.5 75.31 118.96 72.1 113.34 68.89 118.96 65.65 124.5 65.61 124.5 65.63 124.54 65.61 124.56 65.65 124.56 68.89 130.12 72.09 135.72 75.31 130.12 78.54 124.56 78.58 124.56 78.56 124.54"/><polygon class="cls-11" points="91.53 124.54 91.54 124.5 91.51 124.5 88.28 118.96 85.07 113.34 81.85 118.96 78.62 124.5 78.58 124.5 78.59 124.54 78.58 124.56 78.62 124.56 81.85 130.12 85.06 135.72 88.28 130.12 91.51 124.56 91.54 124.56 91.53 124.54"/><polygon class="cls-11" points="104.5 124.54 104.51 124.5 104.48 124.5 101.24 118.96 98.03 113.34 94.81 118.96 91.58 124.5 91.55 124.5 91.57 124.54 91.55 124.56 91.58 124.56 94.81 130.12 98.03 135.72 101.24 130.12 104.48 124.56 104.51 124.56 104.5 124.54"/><polygon class="cls-11" points="64.66 145.29 53.58 145.29 55.91 141.32 59.12 135.71 62.35 141.32 64.66 145.29"/><polygon class="cls-11" points="77.63 145.29 66.55 145.29 68.89 141.32 72.09 135.71 75.3 141.32 77.63 145.29"/><polygon class="cls-11" points="90.6 145.29 79.52 145.29 81.86 141.32 85.07 135.71 88.27 141.32 90.6 145.29"/><polygon class="cls-11" points="103.56 145.29 92.49 145.29 94.81 141.32 98.04 135.71 101.24 141.32 103.56 145.29"/><path class="cls-12" d="M65.86,130.34,66,130h-.29l-3.16-5.41-3.45-6-3.47,6-2.41,4.12c0,.33.05.67.07,1l2.83-4.81,3-5.21,3,5.21,3.18,5.43-3.18,5.46-3,5.18-3-5.18-2.76-4.75v1.15l2.27,3.86,3.45,6,3.47-6,3.16-5.4.31,0Z"/><path class="cls-12" d="M72.05,142.09l-3.45-6-3.15-5.41h-.33l.15-.31-.17-.28.34,0,3.16-5.42,3.46-6,3.45,6L78.66,130H79l-.14.3.15.28-.31,0-3.16,5.42Zm-6.14-11.75,3.18,5.45,3,5.18,3-5.18,3.17-5.45L75,124.91l-3-5.18-3,5.18Z"/><path class="cls-12" d="M85,142.09l-3.45-6-3.16-5.41h-.33l.16-.31-.16-.28.33,0,3.16-5.42,3.46-6,3.44,6L91.63,130h.31l-.14.3.15.28-.32,0-3.16,5.42Zm-6.14-11.75,3.18,5.45L85,141l3-5.18,3.17-5.45L88,124.91l-3-5.18-3,5.18Z"/><path class="cls-12" d="M98,119.7l3,5.21,2.9,5c0-.32,0-.65.09-1l-2.52-4.29-3.45-6-3.45,6L91.38,130l-.35,0,.17.26-.15.32h.33l3.16,5.4,3.45,6,3.45-6,2.38-4.06v-1.15l-2.85,5L98,141l-3-5.18-3.18-5.46L95,124.91Z"/><polygon class="cls-12" points="59.08 140.96 56.61 145.29 57.26 145.29 59.08 142.07 60.95 145.29 61.59 145.29 59.08 140.96"/><polygon class="cls-12" points="72.05 140.96 69.59 145.29 70.23 145.29 72.05 142.07 73.9 145.29 74.54 145.29 72.05 140.96"/><polygon class="cls-12" points="85.02 140.96 82.55 145.29 83.19 145.29 85.02 142.07 86.87 145.29 87.51 145.29 85.02 140.96"/><polygon class="cls-12" points="97.99 140.96 95.5 145.29 96.13 145.29 97.99 142.07 99.81 145.29 100.48 145.29 97.99 140.96"/><path class="cls-12" d="M62.79,111.7l-3.69,6.41-1.87-3.25a2.16,2.16,0,0,0-.42.35l2.29,4,4.49-7.79c-.24.07-.51.16-.8.27"/><path class="cls-12" d="M99.91,114.82,98,118.11l-3.73-6.43-.8-.29L98,119.22l2.31-4a3.41,3.41,0,0,0-.41-.36"/><path class="cls-9" d="M90.74,109.23c-.49-1.24-1.64-2.39-2.07-3.38-.7-1.63-1.34-3.06-1.34-3.06a86.53,86.53,0,0,1-2.57,8.47s-7.55,8.07-6.37,8.33,6.79,2.86,8.39,4.73,1.34,3.61,1.76,1.09,3.49-12.87,2.2-16.18"/><path class="cls-9" d="M72.43,111.26a86.53,86.53,0,0,1-2.57-8.47s-.65,1.43-1.35,3.06c-.42,1-1.58,2.14-2.07,3.38-1.28,3.31,1.79,13.65,2.21,16.18s.14.78,1.75-1.09,7-4.42,8.19-4.68-6.16-8.38-6.16-8.38"/><path class="cls-13" d="M110.62,62.14c-.17-.36-3.72-.88-8.33-1.3a74,74,0,0,0-12.62.21A46.46,46.46,0,0,0,85,62c-2,.54-4,1.23-4.87,1.41a8.53,8.53,0,0,1-2.1.21h-.3a8.48,8.48,0,0,1-2.1-.21c-.83-.18-2.83-.87-4.88-1.41a47,47,0,0,0-4.66-1,74.13,74.13,0,0,0-12.63-.21c-4.61.42-8.15.94-8.33,1.3s-.41,3.61,0,4,1.67,1.08,2,2.27,1.6,9.72,4.46,12.06c4.69,3.84,20.51,4,23.23-10,.38-1.91.87-3,1.72-3.34a4.41,4.41,0,0,1,2.75,0c.85.31,1.36,1.43,1.73,3.34,2.72,14,18.53,13.84,23.24,10,2.85-2.34,4.13-10.87,4.45-12.06s1.62-1.9,2-2.27S110.75,62.4,110.62,62.14ZM72.3,71.7c-2.46,11-14.37,9.7-17.24,8.84-1.27-.38-5-1.81-5.57-10.74-.41-6.21,2.57-6.58,6.81-7.1a34.93,34.93,0,0,1,8.56,0c2.07.26,6.9,1.25,7.38,3A12,12,0,0,1,72.3,71.7Zm34-1.9c-.59,8.93-4.29,10.36-5.55,10.74-2.89.86-14.8,2.14-17.25-8.84a11.79,11.79,0,0,1,.07-6c.47-1.71,5.29-2.7,7.36-3a35,35,0,0,1,8.57,0C103.69,63.22,106.68,63.59,106.26,69.8Z"/><path class="cls-14" d="M65.82,32.62c1-2.17,3.29-5.93,9.38-7.38,1.84-.44,7.65-1,10,0a7,7,0,0,1,4.17,4.1c.7,1.78.4,7.35-8.67,8.12-3.45.29-9.32,2-10.33,3.84-1.67,3.08,2.55,5.61,2.55,5.61S67.18,44.67,65.79,41a10.52,10.52,0,0,1,0-8.38"/><path class="cls-15" d="M87.21,29s0,.11,0,.3a3.54,3.54,0,0,1-.12.84,6.08,6.08,0,0,1-.47,1.26l-.44.71a9,9,0,0,1-.6.7,12.56,12.56,0,0,1-3.62,2.41,45,45,0,0,1-4.57,1.73,33.52,33.52,0,0,0-4.45,1.7,9,9,0,0,0-1.76,1.14,4,4,0,0,0-1,1.49,5.21,5.21,0,0,0,0,2.82c.2.68.33,1.09.33,1.09a11.12,11.12,0,0,1-.54-1,5.09,5.09,0,0,1-.41-3.06,4.89,4.89,0,0,1,1-1.89,7.6,7.6,0,0,1,1.87-1.43A27,27,0,0,1,77,35.86c3.13-1,6.29-2,8.11-3.55a7.6,7.6,0,0,0,1.12-1.18,5.41,5.41,0,0,0,.61-1.1,6,6,0,0,0,.28-.79l.08-.29"/><path class="cls-15" d="M83.16,26.56l.19.23a2.82,2.82,0,0,1,.45.71A2.58,2.58,0,0,1,84,28.82a2.86,2.86,0,0,1-.73,1.62,10.31,10.31,0,0,1-3.49,2.46c-.69.34-1.41.66-2.14,1a17.75,17.75,0,0,0-2.09,1.05A17.19,17.19,0,0,0,72,37.7,8,8,0,0,0,69.88,41a4.72,4.72,0,0,0,0,2.76,6.6,6.6,0,0,0,.42,1l-.17-.23a4.54,4.54,0,0,1-.44-.71,4.74,4.74,0,0,1-.42-3,8.37,8.37,0,0,1,2-3.81A15.69,15.69,0,0,1,75,34a32.39,32.39,0,0,1,4.38-2,11.4,11.4,0,0,0,3.43-2,2.87,2.87,0,0,0,.77-1.27,2.21,2.21,0,0,0,0-1.18,4.23,4.23,0,0,0-.43-1"/></g></g></svg>