<svg xmlns="http://www.w3.org/2000/svg" viewBox="0 0 145.36 145.95"><defs><style>.cls-1{fill:#4ac2ef;}.cls-2{fill:#3f403f;}.cls-3{fill:#311110;}.cls-4{fill:#e1bf9c;}.cls-5{fill:#f2d1ac;}.cls-6,.cls-8{fill:#c09a80;}.cls-6{opacity:0.7;}.cls-7{fill:#d3a789;}.cls-9{fill:#e0b89b;}.cls-10{fill:#550f0e;}.cls-11{fill:#191919;}.cls-12{fill:#0d0d0d;}.cls-13{fill:#515251;}.cls-14{fill:#1e1e1e;}.cls-15{fill:#9b9a9a;}.cls-16{fill:#444545;}</style></defs><title>Asset 207</title><g id="Layer_2" data-name="Layer 2"><g id="Layer_1-2" data-name="Layer 1"><rect class="cls-1" width="145.36" height="145.95"/><polygon class="cls-2" points="53.69 119.71 52.53 120.54 51.6 118.03 50.67 115.52 52.76 117.2 54.85 118.87 53.69 119.71"/><polygon class="cls-2" points="56.17 117.56 54.81 118 54.7 115.32 54.58 112.65 56.06 114.89 57.53 117.12 56.17 117.56"/><polygon class="cls-2" points="59.51 115.98 58.09 116.04 58.69 113.43 59.3 110.83 60.12 113.38 60.94 115.92 59.51 115.98"/><path class="cls-3" d="M56,107.89c7.93,8.63,36.38,12.63,43.6,12.63s4.14-2.23,4.14-15.34S60.33,44.09,53.11,44.09,27.18,76.58,56,107.89Z"/><polygon class="cls-2" points="93.95 119.35 95.1 120.18 96.03 117.67 96.97 115.16 94.88 116.84 92.79 118.51 93.95 119.35"/><polygon class="cls-2" points="91.46 117.2 92.82 117.64 92.94 114.96 93.05 112.29 91.58 114.53 90.1 116.76 91.46 117.2"/><polygon class="cls-2" points="88.12 115.62 89.55 115.68 88.94 113.07 88.33 110.47 87.51 113.02 86.7 115.56 88.12 115.62"/><path class="cls-4" d="M74,92.23v53.7H44.78l-.71-.31c0-28.81,17.87-30.95,17.87-30.95,1.33,0,2.29-1.28,3-3.34a20.35,20.35,0,0,0,.65-2.44,16.2,16.2,0,0,0,.31-1.68c.17-1,.31-2,.41-3.11.06-.65.12-1.31.19-2,.26-3.3.34-6.88.34-10.28C66.87,91.84,70.8,92.23,74,92.23Z"/><path class="cls-5" d="M104,145.62s-.27.1-.7.31H74V92.23H74c3.17,0,7.12-.39,7.12-.39,0,3.38.08,6.92.35,10.19.06.66.12,1.31.19,2,.12,1.12.24,2.19.4,3.19v0c.06.45.15.86.23,1.27a14.63,14.63,0,0,0,1.43,4.36c.62,1.17,1.39,1.85,2.36,1.85C86.12,114.67,104,116.81,104,145.62Z"/><path class="cls-6" d="M82.11,107.17v0A9.45,9.45,0,0,1,74,111.6h0a10.18,10.18,0,0,1-8-4.38c.16-1,.3-2,.41-3.12q.09-1,.18-2a32.19,32.19,0,0,0,7.37,1H74a30.51,30.51,0,0,0,7.54-1c0,.65.12,1.31.18,1.94C81.82,105.11,81.94,106.17,82.11,107.17Z"/><path class="cls-7" d="M74.07,30.64C43.14,30.64,43,56.53,44.34,73.47c-2.12-4-8.39-2.78-7.88,3.55.5,6.09,9.36,9.24,9.24,8.54,2.53,13.94,17.08,22,28.37,22h.23V30.64Z"/><path class="cls-8" d="M38.43,74.35a2.93,2.93,0,0,1,4.47-.86,2.56,2.56,0,0,1,.72,2.81c-.21.81-1.07.88-.85,2.11A2.19,2.19,0,0,0,44,80.21a2.76,2.76,0,0,1,1,1.14,3,3,0,0,1,.14,1.74c-.23,1-1.69.2-2.67-.24a18.45,18.45,0,0,1-3.19-2.6C38,78.79,37.41,76,38.43,74.35Z"/><path class="cls-9" d="M74.22,30.64c30.92,0,31.1,25.89,29.72,42.83,2.12-4,8.4-2.78,7.88,3.55-.49,6.09-9.36,9.24-9.23,8.54-2.54,13.94-17.09,22-28.37,22H74V30.64Z"/><path class="cls-8" d="M109.85,74.35a2.93,2.93,0,0,0-4.47-.86,2.57,2.57,0,0,0-.72,2.81c.21.81,1.07.88.86,2.11a2.19,2.19,0,0,1-1.24,1.8,2.83,2.83,0,0,0-1,1.14,3.09,3.09,0,0,0-.14,1.74c.24,1,1.69.2,2.67-.24a18.51,18.51,0,0,0,3.2-2.6C110.27,78.79,110.87,76,109.85,74.35Z"/><path class="cls-4" d="M73.8,37.94c-10.18,0-17.62,3-22.14,8.79-6.29,8.14-6,20.58-3.72,29.52C48.64,79,49,86.34,49.5,89c2.19,12.08,15.52,18.51,24.3,18.51H74V38Z"/><path class="cls-5" d="M95.88,46.74C91.41,40.94,84.05,38,74,38v69.59c10-.11,22-7.16,24.06-18.5.49-2.7.85-10.06,1.57-12.79C102,67.34,102.2,54.91,95.88,46.74Z"/><path class="cls-10" d="M58.35,29.89a16.26,16.26,0,0,1,3.73-4.77,18.65,18.65,0,0,1,11.37-4,56.08,56.08,0,0,1,12.34,1.92c3.54.91,12.83,7,16.17,8.67S109.47,39,112.22,44,117,56.77,117,64.48s-4.2,37.15-4,39.5a31.37,31.37,0,0,0,2.75,11.22c2.36,5.49,2.16,4.71,6.42,12.8S121,140.93,121,140.93c2.36-3,1.7-7.23-1.77-11.49-2-2.43-6.14-4.58-9.66-7.59a26.64,26.64,0,0,0,6.35,10.06s-9.27-3.89-11.82-12.3h0l.33,1.43c3.15,13.47,8.93,15.87,8.93,15.87S93.28,133.19,94.3,104c.22-6.42,1.16-1.5,3-21.46.78-8.66.39-19.8,0-20.46a91.65,91.65,0,0,0-2.44-10c-2.5-2.88-5.23-5.39-7.29-6.07-4.91-1.61-9.44,1.7-14.69,1.81h-.41c-5.36,0-9.95-3.44-14.95-1.81S43.58,59.88,43.58,62.65s1.56,12.78,1.56,12.78-.38.44-1.37-2.12a7,7,0,0,0-1.83-2.64C40.82,56.49,41,36.64,58.35,29.89Z"/><path class="cls-11" d="M104,145.62s-.27.1-.7.31H44.78l-.71-.31c0-29,17.87-31.14,17.87-31.14,1.33,0,2.29-1.28,3-3.36l9,.72,9.78.78c.62,1.18,1.39,1.86,2.36,1.86C86.12,114.48,104,116.64,104,145.62Z"/><path class="cls-12" d="M84.52,113.34s-1.15-4.93-2-4.93-9,3.77-9,3.77l2.57,5.43Z"/><path class="cls-12" d="M62.84,113.34s1.14-4.93,2-4.93,9,3.77,9,3.77l-2.58,5.43Z"/><polygon class="cls-13" points="63.49 124.43 63.49 145.93 62.16 145.93 62.16 125.14 63.49 124.43"/><rect class="cls-13" x="79.69" y="126.57" width="14.01" height="1.22"/><rect class="cls-14" x="60.72" y="119.13" width="24.28" height="0.51" transform="translate(-48.03 49.04) rotate(-28.41)"/><rect class="cls-15" x="44.5" y="84.26" width="0.78" height="7.8"/><rect class="cls-15" x="42.45" y="86.53" width="4.89" height="0.78"/><path class="cls-16" d="M93.27,127.18c-.7,0-1.27,3.39-1.27,3.39a1.27,1.27,0,0,0,2.54,0S94,127.18,93.27,127.18Zm0,4.17a.9.9,0,0,1-.9-.9s.41-2.41.9-2.41.9,2.41.9,2.41A.9.9,0,0,1,93.27,131.35Z"/><polygon class="cls-10" points="73.98 107.56 70.79 107.56 72.39 104.8 73.98 102.03 75.57 104.8 77.16 107.56 73.98 107.56"/></g></g></svg>