<svg xmlns="http://www.w3.org/2000/svg" viewBox="0 0 145.36 145.95"><defs><style>.cls-1{fill:#965458;}.cls-2{fill:#e1bf9c;}.cls-3{fill:#f2d1ac;}.cls-4,.cls-6{fill:#c09a80;}.cls-4{opacity:0.7;}.cls-5{fill:#d3a789;}.cls-7{fill:#e0b89b;}.cls-8{fill:#482539;}.cls-9{fill:none;}.cls-10{fill:#070707;}</style></defs><title>Asset 169</title><g id="Layer_2" data-name="Layer 2"><g id="Layer_1-2" data-name="Layer 1"><rect class="cls-1" width="145.36" height="145.95"/><path class="cls-2" d="M74.13,89v57h-31l-.76-.33c0-30.56,19-32.84,19-32.84h0c1.87,0,3.07-2.46,3.87-6.13.13-.56.24-1.15.33-1.78.17-1.05.32-2.15.43-3.3.07-.7.13-1.39.2-2.11.28-3.5.37-7.3.37-10.91C66.6,88.55,70.77,89,74.13,89Z"/><path class="cls-3" d="M106,145.47v.15l-.41.18h0a2.79,2.79,0,0,0-.3.15H74.13V89h.07c3.37,0,7.56-.42,7.56-.42,0,3.59.09,7.35.37,10.83.07.69.13,1.38.19,2.06.14,1.19.27,2.32.44,3.39v0c.06.48.15.91.24,1.34.8,3.94,2.06,6.59,4,6.59a16.67,16.67,0,0,1,6.23,2.47C98.77,118.68,105.94,126.75,106,145.47Z"/><path class="cls-4" d="M82.76,104.83v0a10,10,0,0,1-8.58,4.67h0a10.82,10.82,0,0,1-8.54-4.65c.18-1,.33-2.15.44-3.3.06-.69.13-1.39.19-2.11a33.76,33.76,0,0,0,7.82,1h.09a32.05,32.05,0,0,0,8-1.1c.07.69.14,1.39.2,2.06C82.46,102.63,82.59,103.77,82.76,104.83Z"/><path class="cls-5" d="M74.23,23.62c-32.81,0-33,27.47-31.54,45.44-2.25-4.26-8.91-2.94-8.37,3.77.53,6.47,9.94,9.81,9.81,9.06,2.69,14.79,18.13,23.34,30.1,23.34h.25V23.62Z"/><path class="cls-6" d="M36.42,70a3.1,3.1,0,0,1,4.74-.9,2.72,2.72,0,0,1,.77,3c-.23.86-1.14.93-.91,2.24a2.29,2.29,0,0,0,1.31,1.9,3,3,0,0,1,1.1,1.21,3.22,3.22,0,0,1,.15,1.85c-.25,1.06-1.8.22-2.83-.25a19.87,19.87,0,0,1-3.4-2.76C36,74.71,35.34,71.72,36.42,70Z"/><path class="cls-7" d="M74.39,23.62c32.82,0,33,27.47,31.55,45.44,2.24-4.26,8.9-2.94,8.36,3.77-.53,6.47-9.93,9.81-9.8,9.06-2.69,14.79-18.13,23.34-30.11,23.34h-.25V23.62Z"/><path class="cls-6" d="M112.2,70a3.1,3.1,0,0,0-4.74-.9,2.74,2.74,0,0,0-.77,3c.23.86,1.14.93.92,2.24a2.29,2.29,0,0,1-1.31,1.9,3,3,0,0,0-1.11,1.21,3.31,3.31,0,0,0-.15,1.85c.25,1.06,1.8.22,2.83-.25a19.49,19.49,0,0,0,3.4-2.76C112.65,74.71,113.28,71.72,112.2,70Z"/><path class="cls-2" d="M74,31.36c-10.8,0-18.7,3.13-23.49,9.33C43.78,49.33,44,62.53,46.5,72c.75,2.9,1.14,10.71,1.66,13.58C50.49,98.4,64.63,105.23,74,105.23h.25V31.37Z"/><path class="cls-3" d="M97.38,40.7c-4.75-6.15-12.56-9.28-23.18-9.33v73.85c10.63-.12,23.34-7.6,25.53-19.63.51-2.87.9-10.68,1.66-13.58C103.84,62.56,104.08,49.37,97.38,40.7Z"/><path class="cls-8" d="M106,145.47a5,5,0,0,0-.41.33h0a2.79,2.79,0,0,0-.3.15H43.16l-.76-.33c0-13.57,3.73-21.57,7.9-26.26,5.2-5.88,11.06-6.58,11.06-6.58h0c1.28,3.38.31,2.74,1.24,5.62A7.49,7.49,0,0,0,65,121.6a42.46,42.46,0,0,0,6,10.12,15.69,15.69,0,0,1,3,7,15.58,15.58,0,0,1,3-7,43.19,43.19,0,0,0,6-10,34.09,34.09,0,0,0,3.12-2.3c.48-.37,1,3.47,1.5,2.91a79.25,79.25,0,0,0,5.65-7.11,21.42,21.42,0,0,1,4.87,4.15,27.24,27.24,0,0,1,4,6.24C104.4,130.33,106,136.74,106,145.47Z"/><path class="cls-9" d="M61.62,65.66a44.14,44.14,0,0,0-8.13,0c-4,.37-6.86.63-6.47,5,.57,6.23,4.08,7.21,5.28,7.48,2.74.6,14,1.5,16.38-6.16a6.16,6.16,0,0,0-.07-4.2C68.16,66.53,63.58,65.83,61.62,65.66Z"/><path class="cls-10" d="M72,66.16c-.8-.13-2.7-.61-4.64-1-1.71-.33-3.47-.57-4.43-.67a95.64,95.64,0,0,0-12-.15c-4.38.3-7.74.66-7.91.91s-.38,2.52,0,2.77,1.59.75,1.89,1.58,1.52,6.77,4.23,8.4c4.47,2.68,19.47,2.8,22.06-7,.36-1.33.82-2.11,1.63-2.33a5.93,5.93,0,0,1,1.45-.16V66.3A10.71,10.71,0,0,1,72,66.16Zm-3.16,5.76c-2.34,7.66-13.64,6.76-16.38,6.16-1.2-.27-4.71-1.25-5.28-7.48-.39-4.33,2.45-4.59,6.47-5a44.14,44.14,0,0,1,8.13,0c2,.17,6.54.87,7,2.06A6.16,6.16,0,0,1,68.85,71.92Z"/><path class="cls-9" d="M86.61,65.66a44.13,44.13,0,0,1,8.13,0c4,.37,6.86.63,6.46,5-.56,6.23-4.08,7.21-5.27,7.48-2.74.6-14,1.5-16.38-6.16a6.22,6.22,0,0,1,.07-4.2C80.07,66.53,84.65,65.83,86.61,65.66Z"/><path class="cls-10" d="M74,66.3v2.25a5.93,5.93,0,0,1,1.45.16c.81.22,1.28,1,1.63,2.33,2.59,9.77,17.59,9.65,22.07,7,2.71-1.63,3.92-7.58,4.22-8.4s1.54-1.33,1.89-1.58.09-2.59,0-2.77-3.53-.61-7.91-.91a95.68,95.68,0,0,0-12,.15c-1,.1-2.71.34-4.43.67-1.94.38-3.84.86-4.63,1A10.88,10.88,0,0,1,74,66.3Zm5.5,1.42c.45-1.19,5-1.89,7-2.06a44.11,44.11,0,0,1,8.13,0c4,.37,6.85.63,6.46,5-.57,6.23-4.08,7.21-5.28,7.48-2.73.6-14,1.5-16.37-6.16A6.22,6.22,0,0,1,79.5,67.72Z"/></g></g></svg>