<svg xmlns="http://www.w3.org/2000/svg" viewBox="0 0 145.36 146.31"><defs><style>.cls-1{fill:#8967ac;}.cls-2{fill:#e1bf9c;}.cls-3{fill:#f2d1ac;}.cls-4,.cls-6{fill:#c09a80;}.cls-4{opacity:0.7;}.cls-5{fill:#d3a789;}.cls-7{fill:#e0b89b;}.cls-8{fill:#0b0b0b;}.cls-9{fill:#151515;}.cls-10{fill:#59ba47;}.cls-11{fill:#27160f;}.cls-12{fill:#171617;}.cls-13{fill:#187d3e;}.cls-14{fill:#6abd45;}</style></defs><title>Asset 192</title><g id="Layer_2" data-name="Layer 2"><g id="Layer_1-2" data-name="Layer 1"><rect class="cls-1" width="145.36" height="145.95"/><path class="cls-2" d="M71.83,91.89v54.42H42.24c-.48-.21-.73-.3-.73-.3,0-29.2,18.12-31.38,18.12-31.38h.14a2.83,2.83,0,0,0,.4-.08l.16-.07c1.31-.49,2.22-2.36,2.87-5a6.77,6.77,0,0,0,.16-.68c0-.13.06-.25.08-.38.09-.41.17-.85.23-1.3.17-1,.31-2.06.42-3.16.06-.66.12-1.32.19-2v0c.26-3.34.35-7,.35-10.42C64.63,91.49,68.61,91.89,71.83,91.89Z"/><path class="cls-3" d="M102.25,146a6.93,6.93,0,0,0-.71.3H71.83V91.89h.06c3.22,0,7.22-.4,7.22-.4,0,3.43.08,7,.35,10.34v0c.07.66.13,1.33.19,2,.13,1.14.25,2.22.42,3.23v0c0,.3.1.62.16.91,0,.13,0,.23.06.35.62,3,1.54,5.29,2.87,6a1.09,1.09,0,0,0,.25.1l.06,0a.61.61,0,0,0,.12,0,1.61,1.61,0,0,0,.54.08S102.25,116.81,102.25,146Z"/><path class="cls-4" d="M80.07,107.05v0a9.58,9.58,0,0,1-8.2,4.46h0a10.29,10.29,0,0,1-8.15-4.44c.16-1,.3-2,.41-3.15.06-.67.12-1.33.19-2a31.89,31.89,0,0,0,7.47,1h.08a30.37,30.37,0,0,0,7.64-1.06c.06.67.12,1.33.18,2C79.78,105,79.9,106,80.07,107.05Z"/><path class="cls-5" d="M71.8,33.42c-30.87-.06-31,24.75-29.68,40.93C40,70.56,33.74,72,34.26,78.05c.49,5.82,9.33,8.46,9.22,7.82C46,99.05,60.56,106.37,71.8,107.41h.25v-74Z"/><path class="cls-6" d="M35.91,74.68a3.06,3.06,0,0,1,4.53-.82,2.37,2.37,0,0,1,.73,2.7c-.22.78-1.08.84-.87,2a2.09,2.09,0,0,0,1.25,1.72c.37.31.83.54,1.06,1.1a2.9,2.9,0,0,1,.14,1.68c-.24,1-1.72.2-2.7-.22a19.63,19.63,0,0,1-3.25-2.51C35.49,79,34.88,76.24,35.91,74.68Z"/><path class="cls-7" d="M72,33.42c30.88-.06,31.06,24.75,29.68,40.93,2.12-3.79,8.39-2.38,7.87,3.7-.49,5.82-9.34,8.46-9.22,7.82C97.76,99.05,83.21,106.37,72,107.41h-.24v-74Z"/><path class="cls-6" d="M107.83,74.68a3,3,0,0,0-4.52-.82,2.38,2.38,0,0,0-.74,2.7c.22.78,1.09.84.88,2a2.07,2.07,0,0,1-1.26,1.72c-.36.31-.83.54-1,1.1a2.82,2.82,0,0,0-.14,1.68c.24,1,1.71.2,2.7-.22a19.16,19.16,0,0,0,3.24-2.51C108.26,79,108.87,76.24,107.83,74.68Z"/><path class="cls-2" d="M71.64,40.44c-10.31,0-17.86,2.84-22.43,8.46-6.38,7.83-6.13,19.81-3.78,28.4C46.15,79.93,46.52,87,47,89.62c2.22,11.62,15.73,17.81,24.62,17.81h.24v-67Z"/><path class="cls-3" d="M94,48.91c-4.53-5.58-12-8.42-22.14-8.46v67c10.16-.1,22.3-6.89,24.39-17.8.49-2.61.86-9.69,1.58-12.32C100.2,68.73,100.43,56.78,94,48.91Z"/><path class="cls-8" d="M77.07,96.92s-2.33,2.5-5.2,2.5A7.77,7.77,0,0,1,66.8,97a33.07,33.07,0,0,1,5.07-.38A42.64,42.64,0,0,1,77.07,96.92Z"/><path class="cls-9" d="M73.34,95.77a1.35,1.35,0,0,0-1.47,1.13,1.35,1.35,0,0,0-1.47-1.13,20.74,20.74,0,0,0-3.74,1.15s2.85.3,3.67.3,1.52.32,1.54-.28c0,.61.6.37,1.41.37s3.79-.39,3.79-.39A20.59,20.59,0,0,0,73.34,95.77Z"/><path class="cls-8" d="M83.59,114.55c-.75,1.26-2.43,2.55-6.06,2.94a54.28,54.28,0,0,1-5.7.35c-7.25,0-10.29-1.76-11.5-3.36,1.31-.49,2.22-2.36,2.87-5a6.77,6.77,0,0,0,.16-.68c0-.13.06-.25.08-.38.34.65,1.31,1.71,4.11,2.1h0a32.9,32.9,0,0,0,4.24.31,15.69,15.69,0,0,0,5.31-.77s0,0,0,0c2.36-.87,2.91-2.14,2.91-2.14l.14.11c0,.13,0,.23.06.35.62,3,1.54,5.29,2.87,6a1.66,1.66,0,0,0,.31.12A.61.61,0,0,0,83.59,114.55Z"/><path class="cls-10" d="M102.25,146a6.93,6.93,0,0,0-.71.3H42.24c-.48-.21-.73-.3-.73-.3,0-29.2,18.12-31.38,18.12-31.38h.14a2.83,2.83,0,0,0,.4-.08l.16-.07c-1.78,3.36-13.3,15.75,0,18.47a65.08,65.08,0,0,0,11.5,1.35A41.17,41.17,0,0,0,87,132.18c5.7-2.14-.8-13.79-3.63-17.7l.06,0a.61.61,0,0,0,.12,0,1.61,1.61,0,0,0,.54.08S102.25,116.81,102.25,146Z"/><path class="cls-11" d="M106.55,72.49h0a4.81,4.81,0,0,0-3.43.31c-2.19.94-2.33,6-3.76,8.42-3.84,6.41-8.74,7.29-8.74,7.29s5.36-4,4.9-12.52c-.12-2.26-.56-6.92-.89-10.45-.21-2.24-.37-4.05-.37-4.44,0-.63-.44,1.88-.77,4-.21,1.35-.4,2.51-.4,2.51L89,66.6l-.75-3.28L86.77,56.7l-.5,6.1L86,65.93H74.86l-.75-4.6-.44-2.72s-.08,1.28-.2,2.7c-.13,1.65-.29,3.52-.38,3.77-.14.44-5.58.58-5.58.58l-.29-4.15-.46-6.29-1.07,6.44-.54,3.28L57.91,66.6V63l0-4.08-.51,4.21-.5,4-3.8,1,.21-3.86L53.57,60s-.71,2.16-1.6,4.73-1.91,5.36-2.64,7C45,81.68,52.08,88.57,53,89.46,52,88.92,42.22,84.13,42.82,76.85c.33-3.9-5.35-4.42-5.35-4.42a135.89,135.89,0,0,1-.17-14.24,40.71,40.71,0,0,1,1.24-8.55c2.21-7.51,8.22-22,30.13-22,7.64,0,11.4,3.84,11.4,3.84a38.67,38.67,0,0,1,9.64,1.74c6.58,2.41,12.49,12,14,14.86,1.37,2.57,2.47,8.56,2.73,11.2a4,4,0,0,1,0,.56C106.6,62,106.55,72.49,106.55,72.49Z"/><path d="M106.55,72.49c-.39-.41-4.51-3.78-11.92-6.95-.37-.17-.77-.32-1.14-.48a53,53,0,0,0-5.21-1.74c-.64-.19-1.33-.38-2-.52a53.63,53.63,0,0,0-12.16-1.47c-.21,0-.42,0-.64,0H72.8c-1.93,0-3.8.06-5.58.2-.52,0-1,.08-1.53.15A59.82,59.82,0,0,0,57.92,63l-.49.13c-1.43.35-2.8.75-4.09,1.16-.48.15-.93.32-1.37.48a49.81,49.81,0,0,0-14.5,7.68,135.89,135.89,0,0,1-.17-14.24C40.39,56.62,54,50,66.89,49.45c1.8-.07,3.76-.09,5.81-.12h.19c2,0,4,.05,5.8.12,11,.44,22.58,6.67,27.72,9.78a4,4,0,0,1,0,.56C106.6,62,106.57,72.49,106.55,72.49Z"/><circle class="cls-12" cx="56.67" cy="57.18" r="12.22"/><path class="cls-13" d="M64.73,57.18a8.05,8.05,0,0,1-15.58,2.88,7.88,7.88,0,0,1-.54-2.88,8.08,8.08,0,0,1,8.07-8.08,7.91,7.91,0,0,1,3.84,1,8.06,8.06,0,0,1,3.67,4.23A7.79,7.79,0,0,1,64.73,57.18Z"/><circle class="cls-12" cx="85.62" cy="57.18" r="12.22"/><path class="cls-13" d="M93.7,57.18a8.07,8.07,0,0,1-11.93,7.09,8,8,0,0,1-3.65-4.21,7.33,7.33,0,0,1-.57-2.88,8.08,8.08,0,0,1,8.08-8.08,7.87,7.87,0,0,1,3.83,1,8,8,0,0,1,3.68,4.21A7.52,7.52,0,0,1,93.7,57.18Z"/><path class="cls-14" d="M64.19,54.31l-11.37,10a8.1,8.1,0,0,1-3.67-4.21l11.37-10A8.06,8.06,0,0,1,64.19,54.31Z"/><path class="cls-14" d="M93.14,54.29l-11.37,10a8,8,0,0,1-3.65-4.21l11.34-10A8,8,0,0,1,93.14,54.29Z"/></g></g></svg>