<svg xmlns="http://www.w3.org/2000/svg" viewBox="0 0 145.36 145.95"><defs><style>.cls-1{fill:#abc88d;}.cls-2{fill:#231f20;}.cls-3{fill:#2a222b;}.cls-4{fill:#e1bf9c;}.cls-5{fill:#f2d1ac;}.cls-6,.cls-8{fill:#c09a80;}.cls-6{opacity:0.7;}.cls-7{fill:#d3a789;}.cls-9{fill:#e0b89b;}.cls-10{fill:#c6696e;}.cls-11{fill:#d87373;}.cls-12{fill:#35251d;}.cls-13{fill:#93d5d8;}.cls-14{fill:#580d0d;}</style></defs><title>Asset 199</title><g id="Layer_2" data-name="Layer 2"><g id="Layer_1-2" data-name="Layer 1"><rect class="cls-1" width="145.36" height="145.95"/><path class="cls-2" d="M107.6,67c0,3.84-1.38,6.94-3.08,6.94s-3.08-3.1-3.08-6.94,1.38-6.93,3.08-6.93S107.6,63.17,107.6,67Z"/><path class="cls-3" d="M93.69,100.07c1.41-3.88,13-14.48,15.29-21.38l-7.09-.1-7.83,2.94s-2.4,5.43-2.71,6.82C91.2,89,90,92.17,88.74,95.4L83.63,90l-6.26.84c.35,5.11,4.58,18,4.13,22.06s-2.88,6.93-5.57,9.06A20.16,20.16,0,0,1,72,124.38a21.08,21.08,0,0,1-3.94-2.47c-2.68-2.13-5.11-5-5.56-9.06s3.78-16.95,4.13-22.06L60.36,90,55.25,95.4C54,92.17,52.79,89,52.64,88.35c-.31-1.39-2.71-6.82-2.71-6.82L42.1,78.59,36.86,82.1c2.57,4.44,12,14.09,13.44,18s.48,7.49-1,10.59a19.88,19.88,0,0,1-3.29,5,35.63,35.63,0,0,0,7.63-4.33,9.64,9.64,0,0,0,2.15-2.47c.38,4.1.86,9.11,1.32,10.07a12.26,12.26,0,0,0,7.32,5.51A34,34,0,0,0,72,125a33.92,33.92,0,0,0,7.55-.56,12.29,12.29,0,0,0,7.33-5.51c.45-1,.93-6,1.32-10.07a9.64,9.64,0,0,0,2.15,2.47A35.63,35.63,0,0,0,98,115.62a19.88,19.88,0,0,1-3.29-5C93.21,107.56,92.28,103.94,93.69,100.07Z"/><path class="cls-4" d="M72,88.46v57h-31c-.5-.23-.76-.33-.76-.33,0-30.57,19-32.85,19-32.85h.16a3.28,3.28,0,0,0,.41-.08c1.56-.44,2.63-2.74,3.34-6,.14-.57.24-1.16.33-1.78.17-1,.33-2.15.43-3.31.07-.69.13-1.39.2-2.1.28-3.5.37-7.31.37-10.91C64.49,88,68.66,88.46,72,88.46Z"/><path class="cls-5" d="M103.88,145.11a6.4,6.4,0,0,0-.74.33H72v-57h.06c3.37,0,7.56-.42,7.56-.42,0,3.58.09,7.34.37,10.82.07.69.13,1.39.2,2.06.13,1.2.26,2.33.43,3.39v0c.07.48.15.92.24,1.35.65,3.19,1.61,5.54,3,6.32a2.69,2.69,0,0,0,.32.13,1.85,1.85,0,0,0,.7.13S103.88,114.54,103.88,145.11Z"/><path class="cls-6" d="M80.65,104.32v0A10,10,0,0,1,72.06,109h0a10.78,10.78,0,0,1-8.53-4.65c.17-1,.32-2.15.43-3.3.06-.7.13-1.39.19-2.11a33.76,33.76,0,0,0,7.82,1H72a32.2,32.2,0,0,0,8-1.1c.06.69.13,1.39.19,2.06C80.34,102.12,80.47,103.25,80.65,104.32Z"/><path class="cls-7" d="M72,27.22c-32.34-.06-32.52,25.92-31.08,42.87-2.22-4-8.78-2.5-8.24,3.86.51,6.09,9.78,8.86,9.65,8.19C45,95.94,60.22,103.61,72,104.7h.25V27.22Z"/><path class="cls-8" d="M34.3,71.26A3.2,3.2,0,0,1,39,70.4a2.5,2.5,0,0,1,.77,2.83c-.23.82-1.14.88-.91,2.12a2.21,2.21,0,0,0,1.31,1.81,3.08,3.08,0,0,1,1.11,1.15,3,3,0,0,1,.14,1.76c-.25,1-1.8.21-2.83-.24a19.48,19.48,0,0,1-3.39-2.62C33.86,75.73,33.22,72.9,34.3,71.26Z"/><path class="cls-9" d="M72.16,27.22c32.33-.06,32.52,25.92,31.08,42.87,2.22-4,8.78-2.5,8.24,3.86-.52,6.09-9.78,8.86-9.65,8.19-2.65,13.8-17.89,21.47-29.67,22.56h-.25V27.22Z"/><path class="cls-8" d="M110.08,71.26a3.2,3.2,0,0,0-4.74-.86,2.5,2.5,0,0,0-.76,2.83c.22.82,1.13.88.91,2.12a2.21,2.21,0,0,1-1.31,1.81c-.39.32-.87.56-1.11,1.15a2.91,2.91,0,0,0-.14,1.76c.25,1,1.79.21,2.83-.24a19.86,19.86,0,0,0,3.39-2.62C110.53,75.73,111.17,72.9,110.08,71.26Z"/><path class="cls-4" d="M71.83,34.58c-10.8,0-18.7,3-23.49,8.85-6.68,8.21-6.42,20.74-4,29.74.76,2.76,1.14,10.17,1.66,12.89,2.33,12.17,16.47,18.65,25.79,18.65h.25V34.58Z"/><path class="cls-5" d="M95.26,43.44c-4.75-5.84-12.56-8.81-23.18-8.86v70.13c10.63-.11,23.34-7.22,25.53-18.65.52-2.72.9-10.13,1.66-12.89C101.72,64.2,102,51.68,95.26,43.44Z"/><path class="cls-10" d="M77.51,93.71s-2.44,2.61-5.45,2.61-5.3-2.55-5.3-2.55a34.34,34.34,0,0,1,5.3-.4A44.05,44.05,0,0,1,77.51,93.71Z"/><path class="cls-11" d="M73.61,92.51a1.42,1.42,0,0,0-1.55,1.18,1.4,1.4,0,0,0-1.53-1.18,21.65,21.65,0,0,0-3.91,1.2s3,.32,3.83.32,1.6.33,1.61-.3c0,.64.63.39,1.48.39s4-.41,4-.41A21.76,21.76,0,0,0,73.61,92.51Z"/><path class="cls-12" d="M40.33,95.7a.73.73,0,0,0,.05.09C40.52,96,40.49,95.92,40.33,95.7Z"/><path class="cls-12" d="M117.66,54.14a14.22,14.22,0,0,0,6-1.7,10.13,10.13,0,0,1-7.88-.8c-4.19-2.34-5.49-3.71-7.26-8s-.2-4.32-2-7.67-1.12-6.41-3.16-9.41c-3.13-4.62-12.63-5.25-13-5.79-1.87-2.66-2.34-2.13-3-1.52,0-2.19-.66-2.35-1-3.69,0,0-.63-2.81-2.31-1.63-.42.29-2.08.26-2.27.83a36.69,36.69,0,0,0-6.87,0c-4,.29-9.87-1.14-19.28,1C47.56,17.72,45.27,20.32,39.3,26c-2.15,2-3.83,5.64-5,9.07C29,39.9,23.48,48.28,22.74,62.9c-.25,5.83,3.69,12.89,3.69,12.89a30.11,30.11,0,0,1,.17-9.46,18.62,18.62,0,0,1,6.06-11.17A18,18,0,0,0,28.17,65a33.89,33.89,0,0,0,3.35,20.39c2.08,4.32,7.69,9.9,8.89,11.42-.45-.66-.75-2.61-1-5,3,4.06,9,7.11,9,7.11L45.7,95a62.69,62.69,0,0,1-4.33-11.66,20.28,20.28,0,0,1,1-11.83,37.41,37.41,0,0,0,.64,5.71c2.77,8.6,8.46,10.73,8.46,10.73s-7.77-12.77-1.43-26.85c1.78-4,7-10.3,7-10.3A32.33,32.33,0,0,0,53,58.25c-.43,1.13-.54,6.06,1.09,8.49.35-1.49-.31-3.74,1.53-6.86,2-3.27,5.56-3.53,9.6-4.61a19.69,19.69,0,0,0,7.6,1.62,16.36,16.36,0,0,0,16-17c.25.41.57,6.58-.47,9.38a18.13,18.13,0,0,1-7.4,8.89s8.76-1.37,11.67-6.34a21.46,21.46,0,0,0,2-5.28c-.47,3.41.29,9.31,1.71,11.55a16.15,16.15,0,0,1,1.26,3.34c.83,3.41,2,9.72.1,13.47s-8.24,7.92-8.24,7.92a24.29,24.29,0,0,0,10.52-5c-1.11,3.12-2.2,7-1.89,9.83.77,6.95-7.28,12.12-7.28,12.12,8.81-2.15,15.28-11,17-20.12,1.12-5.89-1.22-11.24-1.11-11.52a13,13,0,0,1,2.39,7c.2,2.66.3,6.73-1.4,10.46,0,0,7.74-7.08,7.56-11.14s2.53-7.44.9-13.67c-.54-2.07-4.8-7.83-4.8-7.83s-4.06-3.48-2-1.74A13.62,13.62,0,0,0,117.66,54.14ZM77.41,49.92c-3.08,4.64-8.6,5.15-11.33,5.1a19.29,19.29,0,0,0,4.81-2.11C77.09,49.1,80,43,80.07,40.85l0,0C79.31,46,79.52,46.75,77.41,49.92Z"/><path class="cls-13" d="M103.94,145.11a5.3,5.3,0,0,0-.74.33H41.11a6.94,6.94,0,0,0-.76-.33,49.32,49.32,0,0,1,2.63-17c7-4.78,21.36-4.71,29.11,3,0,0,12-9.81,24.19-4.64a17.77,17.77,0,0,1,5.77,3.87A52.61,52.61,0,0,1,103.94,145.11Z"/><path class="cls-14" d="M61.65,106.42c0,.77,4.16.11,2.7,11.3s-13.93,9.36-17.51,15.34a19.13,19.13,0,0,0-2.31,12.38h-5.3l1.12-3.83a14.55,14.55,0,0,1,.88-9.61c2.33-4.83,0-7.68.24-9.71s3.44-6.6,6.34-7.66,2.74-.36,6.41-1.23S62,110.46,62,108.15,61.65,106.42,61.65,106.42Z"/><path class="cls-14" d="M82.41,106.11c0,.77-4.16.11-2.71,11.3s13.93,9.35,17.51,15.33a19.39,19.39,0,0,1,2.16,12.7h5.19l-.62-4.06a15.85,15.85,0,0,0-1.12-9.7c-2.32-4.82.05-7.67-.23-9.7s-3.45-6.6-6.34-7.66-2.84-.12-6.52-1S82,110.15,82,107.83,82.41,106.11,82.41,106.11Z"/></g></g></svg>