<svg xmlns="http://www.w3.org/2000/svg" viewBox="0 0 145.36 145.95"><defs><style>.cls-1{fill:#965458;}.cls-2{fill:#261a0f;}.cls-3{fill:#462e13;}.cls-4{fill:#3d1f0f;}.cls-5{fill:#e1bf9c;}.cls-6{fill:#f2d1ac;}.cls-7,.cls-9{fill:#c09a80;}.cls-7{opacity:0.7;}.cls-8{fill:#d3a789;}.cls-10{fill:#e0b89b;}.cls-11{fill:#c6696e;}.cls-12{fill:#d87373;}.cls-13{fill:#4e2715;}.cls-14{fill:#4e2815;}.cls-15{fill:#2f325b;}.cls-16{fill:#f6f0d7;}.cls-17{fill:#9e1d24;}</style></defs><title>Asset 178</title><g id="Layer_2" data-name="Layer 2"><g id="Layer_1-2" data-name="Layer 1"><rect class="cls-1" width="145.36" height="145.95"/><path d="M90,45.06s-1.34,9.35-.42,12.54-.22,5.26,8.39,9.69c5.33,2.74,14.78,2.94,19.65-6.38,1.29-2.45,4.72-7.93-4.56-10.31S90,45.06,90,45.06Z"/><path class="cls-2" d="M61.09,74.48c-1.76,3.89-4.22,7.82-3.58,11.33,2.25,12.27,1.09,35.7,7.46,36.78,1.22.2-4.5-24.55-4.35-37.21-.64-3.5,1.43-5.64,3.19-9.54-.32-1.75-.32-1.75-2.72-1.36Z"/><path class="cls-3" d="M60.63,71.51C58.9,75.38,56.57,79.19,56.91,83c1.21,13.35-1.15,38,4.23,40.12,1,.4-2.41-26.7-1.54-40.11-.35-3.81,1.55-5.77,3.28-9.64-.17-1.91-.17-1.91-2.25-1.86Z"/><path class="cls-3" d="M65,71.51c-1.72,3.87-4.06,7.68-3.72,11.49,1.21,13.35-1.15,38,4.23,40.12,1,.4-2.41-26.7-1.54-40.11-.35-3.81,1.55-5.77,3.28-9.64-.18-1.91-.18-1.91-2.25-1.86Z"/><path class="cls-3" d="M66.83,71.37C65.1,75.24,62.76,79,63.11,82.86c1.2,13.35-1.15,38,4.23,40.11,1,.4-2.41-26.7-1.55-40.1-.34-3.82,1.56-5.77,3.28-9.65-.17-1.91-.17-1.91-2.24-1.85Z"/><path class="cls-2" d="M62.15,77.2c-2.07,3.71-4.75,7.35-4.75,11.06,0,13-4.58,36.88.6,39.05,1,.41,0-26,2.08-39,0-3.71,2.07-5.56,4.15-9.27,0-1.86,0-1.86-2.08-1.86Z"/><path class="cls-2" d="M72.7,77.2c-2.08,3.71-4.76,7.35-4.76,11.06,0,13-4.58,36.88.61,39.05,1,.41,0-26,2.07-39,0-3.71,2.08-5.56,4.15-9.27,0-1.86,0-1.86-2.07-1.86Z"/><path class="cls-4" d="M60,73.08c-2.07,3.59-4.75,7.11-4.75,10.7,0,12.56-4.58,35.66.6,37.76,1,.39,0-25.13,2.08-37.69,0-3.59,2.07-5.38,4.14-9,0-1.8,0-1.8-2.07-1.8Z"/><path class="cls-2" d="M92.19,74.94c1.76,3.89,4.23,7.82,3.58,11.33C93.52,98.54,94.68,122,88.31,123c-1.22.21,4.5-24.54,4.35-37.2.64-3.51-1.44-5.64-3.2-9.54.33-1.75.33-1.75,2.73-1.36Z"/><path class="cls-3" d="M94.79,72.81c2.08,3.83,4.76,7.56,4.76,11.38,0,13.37,4.58,38-.61,40.18-1,.42,0-26.74-2.07-40.1,0-3.82-2.08-5.73-4.15-9.55,0-1.91,0-1.91,2.07-1.91Z"/><path class="cls-3" d="M92.65,72c1.72,3.87,4.06,7.67,3.72,11.49-1.21,13.35,1.15,38-4.23,40.12-1,.39,2.41-26.7,1.55-40.11.34-3.82-1.56-5.77-3.29-9.64.17-1.91.17-1.91,2.25-1.86Z"/><path class="cls-3" d="M88.3,72C90,75.84,92.36,79.64,92,83.46c-1.21,13.35,1.15,38-4.23,40.12-1,.39,2.41-26.7,1.55-40.11.34-3.82-1.56-5.77-3.28-9.64.16-1.91.16-1.91,2.24-1.86Z"/><path class="cls-3" d="M86.45,71.83c1.73,3.87,4.07,7.67,3.72,11.48-1.2,13.36,1.15,38-4.23,40.12-1,.4,2.41-26.7,1.55-40.1.35-3.82-1.55-5.78-3.28-9.65.17-1.91.17-1.91,2.24-1.85Z"/><path class="cls-2" d="M91.13,77.66c2.07,3.71,4.75,7.35,4.75,11.06,0,13,4.59,36.88-.6,39-1,.42,0-26-2.08-39,0-3.71-2.07-5.56-4.15-9.27,0-1.86,0-1.86,2.08-1.86Z"/><path class="cls-2" d="M80.58,77.66c2.08,3.71,4.76,7.35,4.76,11.06,0,13,4.58,36.88-.61,39-1,.42,0-26-2.07-39,0-3.71-2.08-5.56-4.15-9.27,0-1.86,0-1.86,2.07-1.86Z"/><path class="cls-4" d="M93.29,73.54C95.36,77.13,98,80.64,98,84.23c0,12.56,4.58,35.67-.6,37.76-1,.4,0-25.12-2.08-37.68,0-3.59-2.07-5.38-4.14-9,0-1.8,0-1.8,2.07-1.8Z"/><path class="cls-5" d="M76,91.5V146H46.4c-.48-.23-.73-.33-.73-.33,0-1.56,0-3,.14-4.42,1.23-17.76,9.78-23.88,14.63-25.95a13.43,13.43,0,0,1,3.34-1h.15a1.83,1.83,0,0,0,.39-.09c1.49-.41,2.51-2.61,3.2-5.74.12-.56.22-1.12.31-1.71.16-1,.31-2.07.41-3.17.07-.64.13-1.33.19-2,.27-3.34.35-7,.35-10.4C68.78,91.13,72.77,91.5,76,91.5Z"/><path class="cls-6" d="M106.4,145.62a6.29,6.29,0,0,0-.7.33H76V91.5H76c3.22,0,7.23-.37,7.23-.37,0,3.41.08,7,.35,10.32.06.66.13,1.32.18,2,.13,1.14.25,2.24.42,3.23v0c.06.44.14.88.23,1.27.62,3.07,1.54,5.31,2.86,6a2.73,2.73,0,0,0,.31.14,2.14,2.14,0,0,0,.67.11,13.43,13.43,0,0,1,3.34,1c4.94,2.11,13.69,8.42,14.69,26.89C106.38,143.26,106.4,144.41,106.4,145.62Z"/><path class="cls-7" d="M84.21,106.67v0a9.56,9.56,0,0,1-8.2,4.47h0a10.32,10.32,0,0,1-8.15-4.45c.16-1,.3-2,.41-3.15.06-.67.13-1.33.19-2a31.89,31.89,0,0,0,7.47,1H76a30.37,30.37,0,0,0,7.64-1.06c.06.67.12,1.33.18,2C83.92,104.57,84,105.65,84.21,106.67Z"/><path class="cls-8" d="M76,33C45.07,33,44.89,57.79,46.26,74c-2.12-3.79-8.38-2.38-7.86,3.7.49,5.82,9.34,8.46,9.22,7.82C50.14,98.67,64.7,106,76,107h.24V33Z"/><path class="cls-9" d="M40,75.1a3,3,0,0,1,4.52-.82A2.36,2.36,0,0,1,45.2,77c-.21.78-1.08.84-.87,2a2.09,2.09,0,0,0,1.26,1.72c.36.31.82.54,1,1.1a2.73,2.73,0,0,1,.14,1.68c-.24,1-1.71.2-2.7-.23a18.59,18.59,0,0,1-3.24-2.5C39.52,79.38,38.91,76.66,40,75.1Z"/><path class="cls-10" d="M76.1,33C107,33,107.16,57.79,105.79,74c2.11-3.79,8.38-2.38,7.87,3.7-.5,5.82-9.35,8.46-9.22,7.82C101.91,98.67,87.36,106,76.1,107h-.23V33Z"/><path class="cls-9" d="M112.32,75.1a3.06,3.06,0,0,0-4.53-.82,2.39,2.39,0,0,0-.73,2.7c.22.78,1.09.84.88,2a2.11,2.11,0,0,1-1.26,1.72,3,3,0,0,0-1.06,1.1,2.8,2.8,0,0,0-.13,1.68c.24,1,1.71.2,2.7-.23a18.59,18.59,0,0,0,3.24-2.5C112.75,79.38,113.36,76.66,112.32,75.1Z"/><path class="cls-5" d="M75.79,40.06c-10.32,0-17.86,2.84-22.43,8.46-6.38,7.84-6.14,19.81-3.79,28.4.72,2.64,1.09,9.71,1.59,12.31,2.22,11.63,15.73,17.82,24.63,17.82H76v-67Z"/><path class="cls-6" d="M98.17,48.53C93.63,43,86.17,40.11,76,40.06v67c10.15-.1,22.29-6.89,24.38-17.81.49-2.6.86-9.67,1.58-12.31C104.34,68.35,104.57,56.39,98.17,48.53Z"/><path class="cls-11" d="M81.22,96.54S78.89,99,76,99a7.78,7.78,0,0,1-5.07-2.43A33.07,33.07,0,0,1,76,96.22,42.71,42.71,0,0,1,81.22,96.54Z"/><path class="cls-12" d="M77.49,95.39A1.36,1.36,0,0,0,76,96.52a1.34,1.34,0,0,0-1.47-1.13,20.86,20.86,0,0,0-3.73,1.15s2.84.31,3.66.31,1.53.31,1.54-.29c0,.61.6.37,1.41.37s3.8-.39,3.8-.39A20.86,20.86,0,0,0,77.49,95.39Z"/><path class="cls-2" d="M92.36,42c2.34,5.63,5.33,11.24,5.48,16.58.53,18.7,6.35,53.73.94,56.12-1,.46-1-37.39-3.77-56.39C94.86,53,92.58,50,90.23,44.38c-.07-2.67-.07-2.67,2.13-2.38Z"/><path class="cls-3" d="M101.88,45.34c2.22,5,5.09,9.86,5.09,14.84,0,17.43,4.9,49.5-.65,52.4-1.06.55,0-34.87-2.22-52.29,0-5-2.22-7.48-4.44-12.46,0-2.49,0-2.49,2.22-2.49Z"/><path class="cls-2" d="M100.54,62.72c0,19.69,4.08,55.9-.53,59.17-.89.63.51-30.64-1.67-56.75C96.2,39.6,77.06,44.25,75.22,38.62c0-2.81,9.31.76,11,1.44C99.9,45.62,100.54,57.1,100.54,62.72Z"/><path class="cls-2" d="M103.54,62.29c-.66,19.68,2.22,56-2.5,59.14-.91.6,1.53-30.63.21-56.78C100,39.06,80.68,43.19,79,37.51c.1-2.81,9.28,1,10.94,1.74C103.46,45.18,103.72,56.67,103.54,62.29Z"/><path class="cls-3" d="M101.53,58c0,19.68,4.09,55.9-.53,59.17-.89.63.51-30.65-1.67-56.75-2.14-25.54-21.79-21-23.64-26.63,0-2.81,9.83.86,11.51,1.55C100.89,40.89,101.53,52.37,101.53,58Z"/><path class="cls-4" d="M99.77,60.17c0,20.13,4.17,57.17-.55,60.53-.91.64.53-31.35-1.71-58.06C95.32,36.52,75.75,41.27,73.86,35.52c0-2.88,9.52.77,11.25,1.47C99.11,42.67,99.77,54.42,99.77,60.17Z"/><path class="cls-13" d="M104.93,58.15c0,20.14,4.18,57.17-.55,60.53-.91.64.53-31.36-1.71-58C100.48,34.5,78.08,39.15,76.18,33.39c0-2.88,12.37.88,14.09,1.58C104.27,40.65,104.93,52.39,104.93,58.15Z"/><path class="cls-4" d="M106.58,50.13c5.94,18.93,4.18,52.75.72,57-.66.83,3.2-20.09-1.64-50.93-4-25.36-28.65-21.12-30.72-23s9.18-1.58,11-1.35C100.79,33.84,104.88,44.72,106.58,50.13Z"/><path class="cls-2" d="M58.31,41.49c-2.14,5.71-4.93,11.42-4.88,16.77.15,18.7-4.4,53.92,1.09,56.11,1,.42-.31-37.41,1.73-56.48,0-5.34,2.12-8.38,4.27-14.1,0-2.67,0-2.67-2.21-2.3Z"/><path class="cls-3" d="M50.07,45C47.85,50,45,54.83,45,59.81c0,17.44-4.9,49.49.64,52.4,1.07.56,0-34.86,2.22-52.3,0-5,2.22-7.47,4.44-12.45,0-2.49,0-2.49-2.22-2.49Z"/><path class="cls-2" d="M51.41,62.35c0,19.69-4.08,55.9.54,59.17.88.63-.52-30.65,1.67-56.75,2.14-25.54,21.27-20.89,23.12-26.51,0-2.82-9.31.75-11,1.43C52.05,45.25,51.41,56.73,51.41,62.35Z"/><path class="cls-2" d="M48.41,61.92c.66,19.68-2.22,56,2.51,59.13.9.61-1.54-30.62-.22-56.76C52,38.69,71.27,42.81,72.93,37.14c-.09-2.81-9.28,1-10.94,1.74C48.49,44.81,48.23,56.3,48.41,61.92Z"/><path class="cls-3" d="M50.42,57.63c0,19.69-4.08,55.89.53,59.17.89.63-.51-30.65,1.68-56.75,2.14-25.54,22-20.36,23.83-26,0-2.8-10,.23-11.71.92C51.06,40.52,50.42,52,50.42,57.63Z"/><path class="cls-4" d="M52.19,59.8c0,20.13-4.18,57.17.55,60.53.9.64-.53-31.35,1.71-58C56.63,36.15,76.2,40.91,78.09,35.15c0-2.88-9.52.77-11.24,1.47C52.85,42.3,52.19,54.05,52.19,59.8Z"/><path class="cls-4" d="M99.66,65.36c0,20.13,4.17,57.17-.55,60.52-.91.65.53-31.34-1.71-58C95.21,41.71,75.64,46.46,73.75,40.7c0-2.87,9.52.78,11.25,1.48C99,47.86,99.66,59.6,99.66,65.36Z"/><path class="cls-4" d="M52.08,65c0,20.13-4.18,57.17.55,60.53.9.64-.53-31.36,1.71-58.06C56.52,41.33,76.1,46.09,78,40.34c0-2.88-9.52.77-11.24,1.47C52.74,47.49,52.08,59.24,52.08,65Z"/><path class="cls-14" d="M47,57.78c0,20.13-4.17,57.17.55,60.52.91.65-.53-31.34,1.71-58C51.47,34.12,74.85,39.2,76.74,33.44c0-2.88-13.33.46-15.06,1.16C47.68,40.28,47,52,47,57.78Z"/><path class="cls-13" d="M98.51,68.17c0,20.14,3.26,57.18-.44,60.53-.7.64.42-31.36-1.33-58C95,44.52,77.51,49.17,76,43.41c0-2.87,9.66.88,11,1.59C98,50.67,98.51,62.42,98.51,68.17Z"/><path class="cls-14" d="M53.23,67.8c0,20.14-3.26,57.18.43,60.53C54.37,129,53.25,97,55,70.28c1.71-26.13,20-21.06,21.46-26.82,0-2.88-10.42.46-11.76,1.16C53.75,50.3,53.23,62.05,53.23,67.8Z"/><path class="cls-4" d="M45.38,49.76c-5.94,18.94-4.18,52.75-.73,57.05.66.82-3.19-20.1,1.64-50.94,4-25.36,28.65-21.13,30.73-23s-9.19-1.58-11-1.35C51.16,33.46,47.08,44.35,45.38,49.76Z"/><path class="cls-15" d="M91.63,115.25A16.5,16.5,0,0,1,76,125.91h0a15,15,0,0,1-11-4.66c-.12-4.08-.27-7.23-.27-7.23a11.64,11.64,0,0,0-3.2.54A7.88,7.88,0,0,0,58.94,116h0c-5.37,2.88-13.27,10.37-13.27,29.65,0,0,.25.1.73.33h59.3a6.29,6.29,0,0,1,.7-.33C106.4,124.44,96.86,117.49,91.63,115.25Z"/><path class="cls-15" d="M87,138.47c.29,1.43,5.72,1.45,5.81,0,.35-6-.08-22.71-.08-22.71a12.9,12.9,0,0,0-2.52-1.39,12.38,12.38,0,0,0-3.21-.58S86,133.68,87,138.47Z"/><path class="cls-16" d="M108,57.28s-.62-18.1-5.78-21.16C94.6,31.62,87.65,25.14,78,25s-29.4,5.76-33.73,19.54c-2.12,6.71-2.06,17.35-2.06,17.35s3-3.69,9.71-7,19.4-6,31-3.18S108,57.28,108,57.28Z"/><circle class="cls-17" cx="75.51" cy="39.18" r="7.86"/><polygon class="cls-16" points="75.51 36.01 76.55 38.1 78.86 38.43 77.18 40.06 77.58 42.36 75.51 41.27 73.45 42.36 73.84 40.06 72.17 38.43 74.48 38.1 75.51 36.01"/></g></g></svg>