<svg xmlns="http://www.w3.org/2000/svg" viewBox="0 0 145.36 147.75"><defs><style>.cls-1{fill:#5c4c52;}.cls-2{fill:#e1bf9c;}.cls-3{fill:#f2d1ac;}.cls-4,.cls-6{fill:#c09a80;}.cls-4{opacity:0.7;}.cls-5{fill:#d3a789;}.cls-7{fill:#e0b89b;}.cls-8{fill:#3b1214;}.cls-9{fill:#710f11;}.cls-10{fill:#f7f7f7;}.cls-11{fill:#262525;}.cls-12{fill:#0b0b0b;}.cls-13{fill:#e6e8e7;}</style></defs><title>Asset 181</title><g id="Layer_2" data-name="Layer 2"><g id="Layer_1-2" data-name="Layer 1"><rect class="cls-1" width="145.36" height="145.95"/><path d="M87.68,77.2c-4.63,0-8.86,2.58-12.13,6.82-3.4-5.46-8.21-8.88-13.55-8.88-10.31,0-18.68,12.7-18.68,28.38S51.69,131.89,62,131.89c4.63,0,8.87-2.58,12.13-6.82,3.41,5.46,8.21,8.89,13.55,8.89,10.32,0,18.68-12.71,18.68-28.38S98,77.2,87.68,77.2Z"/><path class="cls-2" d="M75.43,93.18v54.43H45.84l-.73-.31c0-29.2,18.12-31.38,18.12-31.38h.14a2.83,2.83,0,0,0,.4-.08c1.49-.42,2.51-2.62,3.19-5.77q.09-.37.15-.75c.06-.31.12-.62.16-.95.17-1,.32-2.05.42-3.15.06-.67.12-1.33.18-2,.27-3.35.35-7,.35-10.42C68.22,92.79,72.21,93.18,75.43,93.18Z"/><path class="cls-3" d="M105.84,147.3s-.27.1-.7.31H75.43V93.18h.06c3.22,0,7.22-.39,7.22-.39,0,3.42.08,7,.35,10.33.06.67.13,1.33.19,2,.12,1.14.25,2.22.41,3.24v0a5.67,5.67,0,0,0,.11.64l.12.65c.63,3,1.54,5.29,2.87,6a2.85,2.85,0,0,0,.31.12,1.8,1.8,0,0,0,.66.12S105.84,118.1,105.84,147.3Z"/><path class="cls-4" d="M83.65,108.33v0a9.52,9.52,0,0,1-8.19,4.46h0a10.29,10.29,0,0,1-8.15-4.44c.16-1,.3-2.05.41-3.15.06-.67.12-1.33.19-2a32.35,32.35,0,0,0,7.46,1h.09a30.69,30.69,0,0,0,7.63-1.06c.06.67.13,1.33.19,2C83.37,106.24,83.48,107.31,83.65,108.33Z"/><path class="cls-5" d="M75.39,34.7c-30.88-.06-31.06,24.75-29.68,40.94-2.12-3.8-8.38-2.4-7.87,3.69.49,5.82,9.34,8.46,9.22,7.82,2.53,13.18,17.08,20.51,28.33,21.54h.24v-74Z"/><path class="cls-6" d="M39.39,76.76a3.06,3.06,0,0,1,4.53-.82,2.37,2.37,0,0,1,.73,2.7c-.22.78-1.09.84-.87,2A2.1,2.1,0,0,0,45,82.39c.37.31.83.54,1.06,1.1a2.89,2.89,0,0,1,.14,1.68c-.24,1-1.72.2-2.71-.23a19,19,0,0,1-3.24-2.5C39,81,38.36,78.32,39.39,76.76Z"/><path class="cls-7" d="M75.55,34.7c30.88-.06,31.06,24.75,29.68,40.94,2.12-3.8,8.38-2.4,7.87,3.69-.49,5.82-9.34,8.46-9.22,7.82-2.53,13.18-17.08,20.51-28.33,21.54h-.24v-74Z"/><path class="cls-6" d="M111.77,76.76a3.06,3.06,0,0,0-4.53-.82,2.39,2.39,0,0,0-.73,2.7c.22.78,1.09.84.87,2a2.1,2.1,0,0,1-1.25,1.72c-.37.31-.83.54-1.06,1.1a2.89,2.89,0,0,0-.14,1.68c.24,1,1.72.2,2.71-.23a18.59,18.59,0,0,0,3.24-2.5C112.2,81,112.8,78.32,111.77,76.76Z"/><path class="cls-2" d="M75.23,41.72c-10.31,0-17.86,2.84-22.43,8.46C46.42,58,46.66,70,49,78.59c.72,2.63,1.09,9.71,1.59,12.31,2.22,11.62,15.73,17.81,24.62,17.81h.24v-67Z"/><path class="cls-3" d="M97.61,50.19c-4.53-5.58-12-8.42-22.14-8.47v67c10.16-.1,22.3-6.89,24.38-17.8.5-2.6.87-9.68,1.59-12.31C103.79,70,104,58.05,97.61,50.19Z"/><path class="cls-8" d="M80.66,98.2s-2.33,2.5-5.2,2.5a7.77,7.77,0,0,1-5.07-2.44,33.07,33.07,0,0,1,5.07-.38A42.64,42.64,0,0,1,80.66,98.2Z"/><path class="cls-9" d="M76.93,97.05a1.34,1.34,0,0,0-1.47,1.14A1.36,1.36,0,0,0,74,97.05a20.74,20.74,0,0,0-3.74,1.15s2.85.31,3.66.31,1.53.32,1.55-.29c0,.61.6.37,1.41.37s3.79-.39,3.79-.39A20.59,20.59,0,0,0,76.93,97.05Z"/><path d="M113.53,71.7C110.8,24.45,79,24.13,78.53,24.13a43.63,43.63,0,0,0-5,0C24,31.52,37.56,113.36,38.87,120.74c2.88,16.18,14.74,26.05,14.74,26.05s-5.25-6.76-1.4-14.53a4.06,4.06,0,0,0,.32-1.21,44.57,44.57,0,0,0,7.74,6s-8.43-13.92-9.92-38.22c-.78-12.84.83-22.21,3.72-29.06h1.48l.44-3.9,0,0,.44,3.94H58l.91-8.15.48-.55,1,8.7H69l.45-4,.45,4h3.21l.3-2.71.31,2.71H85.11L86,62l.87,7.83h2.83L90,66.67l.35,3.15h7.49l.76-6.77.75,6.77h.53c1,5.32,2.07,12.17,1.83,14.31a99.7,99.7,0,0,1-2.94,15.35c-.3.56-2.25,11.81-2.3,13.63a43.74,43.74,0,0,1-5.64,20.6s3.27-2.22,5.9-7.76h0c.56,3.89,2.29,9.73,2.66,11.67.78,4.11-2.62,10.13-2.62,10.13a15.89,15.89,0,0,0,4.29-6,31.51,31.51,0,0,0,1.72-4.85,15.5,15.5,0,0,0,.19,1.7,48.6,48.6,0,0,1,.8,6.67S116.35,120.34,113.53,71.7Z"/><path class="cls-10" d="M105.9,147.34a5.62,5.62,0,0,0-.7.31H45.89c-.47-.22-.72-.31-.72-.31A47.19,47.19,0,0,1,47.68,131c6.66-4.59,20.4-4.53,27.8,2.86,0,0,11.46-9.42,23.1-4.47a17.19,17.19,0,0,1,5.52,3.72A50.75,50.75,0,0,1,105.9,147.34Z"/><path class="cls-11" d="M106.24,147.29s-.27.11-.7.32H45.84l-.73-.32c0-29.57,18.24-31.78,18.24-31.78h.14c.13,0,.77.15.9.11,1.5-.42-1.65-.74-2.4,5.15-.65,4.94,2.78,9.35-.44,11,1,1.14,9.07,8.11,11.86,8h4.18c2.82.1,11.17-7,12.13-8.31-3.23-1.59.6-6.1-.45-11s-2.15-4.9-2-4.88.55-.08.78-.08C88,115.51,106.24,117.72,106.24,147.29Z"/><path class="cls-12" d="M87.26,115.38c-.75,1.26-2.43,2.55-6.06,2.94a54.28,54.28,0,0,1-5.7.35c-7.24,0-10.29-1.76-11.5-3.36,1.31-.49,2.22-2.36,2.87-5a6.37,6.37,0,0,0,.16-.69c0-.12.06-.24.09-.37.33.65,1.3,1.7,4.1,2.1h0a32.9,32.9,0,0,0,4.24.31,16,16,0,0,0,5.31-.77s0,0,0,0c2.36-.87,2.91-2.14,2.91-2.14l.14.11c0,.13,0,.23.06.35.63,3,1.54,5.29,2.86,6,.11,0,.21.1.32.13A.28.28,0,0,1,87.26,115.38Z"/><path class="cls-8" d="M74.7,116.31a9.45,9.45,0,0,1-2.19,7.44c-3,3.2-3,3.48-3,3.48S71,126,71.8,126.6a2.72,2.72,0,0,1,.92,1.54,11.6,11.6,0,0,0,2.59-6.89A30.19,30.19,0,0,0,74.7,116.31Z"/><path class="cls-8" d="M76.24,117.17a9.44,9.44,0,0,0,2.19,7.44c3,3.2,3,3.49,3,3.49s-1.53-1.24-2.29-.64a2.68,2.68,0,0,0-.91,1.54,11.58,11.58,0,0,1-2.6-6.89A30.19,30.19,0,0,1,76.24,117.17Z"/><path class="cls-8" d="M76.76,117.75a1.45,1.45,0,1,1-2.89,0,1.45,1.45,0,0,1,2.89,0Z"/><path class="cls-8" d="M68.25,117.75s-.88-3.57,0-4.08,7.06,3.06,7.06,4.08-6.18,4.58-7.06,4.08S68.25,117.75,68.25,117.75Z"/><path class="cls-8" d="M82.37,117.75s.88-3.57,0-4.08-7.06,3.06-7.06,4.08,6.18,4.58,7.06,4.08S82.37,117.75,82.37,117.75Z"/><path class="cls-13" d="M46.14,140.15l.49-.77a4.91,4.91,0,0,1-.74-.7l-.55.73.37.4A1.64,1.64,0,0,0,46.14,140.15Z"/><path class="cls-13" d="M47.58,141l.37-.84s-.91-.43-.9-.46l-.47.8S47.58,141,47.58,141Z"/><polygon class="cls-13" points="49.11 141.52 49.38 140.63 48.41 140.3 48.07 141.15 49.11 141.52"/><polygon class="cls-13" points="50.69 141.91 50.86 141 49.86 140.76 49.63 141.65 50.69 141.91"/><polygon class="cls-13" points="52.29 142.14 52.38 141.22 51.36 141.07 51.21 141.98 52.29 142.14"/><polygon class="cls-13" points="53.91 142.22 53.91 141.29 52.88 141.25 52.82 142.17 53.91 142.22"/><polygon class="cls-13" points="55.53 142.13 55.44 141.21 54.41 141.29 54.44 142.21 55.53 142.13"/><path class="cls-13" d="M46.82,145a9,9,0,0,1-.49-1.35s0,0,0-.07c.21.41.54.82,1,.82a.57.57,0,0,0,.18,0,.78.78,0,0,0,.59-.49c.26-.68-.32-2-1.78-4.09l-.25-.45-.14-.23-.24.21-.22.18-.33.24c-3.11,2.08-4.63,3.6-4.63,4.66a1.11,1.11,0,0,0,1.09,1.07h0a3.07,3.07,0,0,0,1.94-1.24,13.75,13.75,0,0,0,2-3.54c0,.15-.05.31-.08.48a14,14,0,0,1-.83,2.66,12.52,12.52,0,0,1-1.25,2.49,1.78,1.78,0,0,1-.66.58l-.35.08h.37a1.76,1.76,0,0,0,.86-.48,8.18,8.18,0,0,0,1.51-2.48,11.59,11.59,0,0,0,.47-1.49c0-.14,0-.27.06-.41a11.26,11.26,0,0,0,.24,1.66,9.47,9.47,0,0,0,.59,1.41,5.29,5.29,0,0,0,.75,1.1,3.81,3.81,0,0,0,.68.64l.27.22a11.5,11.5,0,0,1-.71-1A7.88,7.88,0,0,1,46.82,145Zm-3.69-1.11c-.25.3-1.26,1.36-1.84,1a.51.51,0,0,1-.27-.46c0-.47.53-1.6,4-4A12.93,12.93,0,0,1,43.13,143.91Zm4.47-.19a.26.26,0,0,1-.22.17c-.3.1-.63-.46-.81-1a8.29,8.29,0,0,1-.34-2.29C47.7,142.78,47.69,143.5,47.6,143.72Zm-1.93-3.44,0,0,0,.12v-.09Z"/><path class="cls-13" d="M104.87,140.33l-.49-.77c0,.05.75-.68.74-.7l.55.73-.37.4A1.64,1.64,0,0,1,104.87,140.33Z"/><path class="cls-13" d="M103.44,141.13l-.38-.84s.92-.43.91-.45l.46.79S103.44,141.13,103.44,141.13Z"/><polygon class="cls-13" points="101.9 141.7 101.64 140.82 102.6 140.48 102.94 141.34 101.9 141.7"/><polygon class="cls-13" points="100.33 142.09 100.15 141.18 101.15 140.94 101.39 141.84 100.33 142.09"/><polygon class="cls-13" points="98.72 142.32 98.63 141.4 99.65 141.26 99.8 142.17 98.72 142.32"/><polygon class="cls-13" points="97.1 142.4 97.1 141.48 98.13 141.43 98.19 142.36 97.1 142.4"/><polygon class="cls-13" points="95.48 142.31 95.57 141.4 96.6 141.47 96.57 142.39 95.48 142.31"/><path class="cls-13" d="M103.61,146.33c-.4.63-.72,1-.72,1l.27-.23a3.78,3.78,0,0,0,.68-.64,5.48,5.48,0,0,0,.75-1.09,10.06,10.06,0,0,0,.59-1.42,9.81,9.81,0,0,0,.24-1.65c0,.13,0,.26.06.41a14.85,14.85,0,0,0,.47,1.48,8.37,8.37,0,0,0,1.51,2.49,1.73,1.73,0,0,0,.86.47h.37l-.34-.08a1.89,1.89,0,0,1-.67-.58,13.71,13.71,0,0,1-1.25-2.49,15,15,0,0,1-.83-2.66c0-.18,0-.33-.07-.48a13.53,13.53,0,0,0,2,3.53c.4.46,1.17,1.25,1.94,1.25h0a1.1,1.1,0,0,0,1.09-1.08c0-1.06-1.51-2.58-4.63-4.65l-.33-.25-.21-.18-.25-.21-.13.24-.26.45c-1.46,2.06-2,3.4-1.77,4.09a.76.76,0,0,0,.58.49l.18,0a1.26,1.26,0,0,0,1-.81.14.14,0,0,0,0,.07,10.41,10.41,0,0,1-1.07,2.47Zm2.36-5.7c3.49,2.37,4,3.51,4,4a.55.55,0,0,1-.28.47c-.57.38-1.59-.68-1.84-1A13.44,13.44,0,0,1,106,140.63Zm-1.19.16a7.88,7.88,0,0,1-.34,2.29c-.18.54-.51,1.09-.81,1-.15,0-.2-.1-.22-.17S103.31,143,104.78,140.79Zm.57-.3v.06a.5.5,0,0,1,0-.12v.06Z"/></g></g></svg>