<svg xmlns="http://www.w3.org/2000/svg" viewBox="0 0 145.36 145.95"><defs><style>.cls-1{fill:#5ea7af;}.cls-2{fill:#5b131a;}.cls-3{fill:#35251d;}.cls-4{fill:#e1bf9c;}.cls-5{fill:#f2d1ac;}.cls-6,.cls-8{fill:#c09a80;}.cls-6{opacity:0.7;}.cls-7{fill:#d3a789;}.cls-9{fill:#e0b89b;}.cls-10{fill:#c6696e;}.cls-11{fill:#d87373;}.cls-12{fill:#9e1d24;}.cls-13{fill:#c0c0ce;}.cls-14{fill:#5aadc5;}.cls-15{fill:#bc5e67;}</style></defs><title>Asset 197</title><g id="Layer_2" data-name="Layer 2"><g id="Layer_1-2" data-name="Layer 1"><rect class="cls-1" width="145.36" height="145.95"/><path class="cls-2" d="M130.59,67.54c0,9.13-27.94,30.55-57.91,30.55S14.77,79.63,14.77,70.5s26.92-12.75,56.9-12.75S130.59,58.42,130.59,67.54Z"/><path class="cls-3" d="M76.46,74A66.26,66.26,0,0,1,71,88.13c-2.75,4.91-11.1,11.22-11.4,17.94C59,120.5,79.4,127.36,87.64,129.81s11,2.7,11.92,6.26.16,9.49.16,9.49,7-3.8,8.91-6.71c4.21-6.25-.4-10.5-.4-10.5s-1.71,1.46.31,4.78,2,6.25,1.28,7.11-3.3,3.55-3.3,3.55,12.74-3.61,10.26-14c-.42-1.77-1.58-.47,0,0,3.54,1.06,2.88,6.91,2.88,6.91s8.64-11.19-8.86-17.52c-1.67-.6-10.68-2.83-11.61-10.29-.52-4.13,2.5-4.49,3.06-9.54C103,92.83,93.6,94.21,90,88.05c-.68-1.17,2.71-1.84,0-5-3.27-3.84-4.46-3.54-9.13-5.81S76.46,74,76.46,74Z"/><path class="cls-4" d="M73,90.16V146H42.67a6.25,6.25,0,0,0-.74-.32c0-8.3,1.42-14.49,3.48-19.06,3.41-7.55,8.53-10.78,11.85-12.15a13.25,13.25,0,0,1,3.23-1h.15a2,2,0,0,0,.41-.09c1.53-.44,2.57-2.67,3.27-5.91.13-.57.24-1.13.32-1.74.17-1,.32-2.11.43-3.26.06-.66.12-1.34.19-2,.28-3.45.36-7.17.36-10.68C65.62,89.75,69.71,90.16,73,90.16Z"/><path class="cls-5" d="M104.18,145.63a4,4,0,0,0-.72.32H73V90.16h.06c3.3,0,7.4-.41,7.4-.41,0,3.51.09,7.19.37,10.6.06.68.13,1.36.19,2,.13,1.17.25,2.27.42,3.29v0c.07.46.15.89.24,1.31.64,3.13,1.57,5.43,2.93,6.19a1.44,1.44,0,0,0,.32.13,1.79,1.79,0,0,0,.68.13S95,114.6,100.41,126C102.63,130.61,104.18,137,104.18,145.63Z"/><path class="cls-6" d="M81.44,105.68v0a9.79,9.79,0,0,1-8.4,4.58h0a10.62,10.62,0,0,1-8.36-4.56c.17-1,.32-2.1.43-3.23.06-.68.12-1.36.19-2.06a33.45,33.45,0,0,0,7.65,1H73a31.36,31.36,0,0,0,7.83-1.09c.06.68.13,1.37.19,2C81.15,103.53,81.27,104.64,81.44,105.68Z"/><path class="cls-7" d="M73,30.2c-31.65-.06-31.83,25.38-30.42,42C40.37,68.27,34,69.72,34.48,76c.51,6,9.58,8.68,9.45,8,2.59,13.51,17.51,21,29,22.09h.25V30.2Z"/><path class="cls-8" d="M36.07,73.32a3.13,3.13,0,0,1,4.64-.84,2.42,2.42,0,0,1,.75,2.76c-.22.8-1.11.87-.89,2.09a2.19,2.19,0,0,0,1.28,1.77,2.8,2.8,0,0,1,1.09,1.12,2.86,2.86,0,0,1,.14,1.72c-.25,1-1.76.2-2.77-.23A19.14,19.14,0,0,1,37,79.14C35.63,77.7,35,74.92,36.07,73.32Z"/><path class="cls-9" d="M73.13,30.2c31.66-.06,31.84,25.38,30.43,42,2.17-3.89,8.59-2.44,8.07,3.79-.51,6-9.58,8.68-9.45,8-2.59,13.51-17.51,21-29.05,22.09h-.24V30.2Z"/><path class="cls-8" d="M110.26,73.32a3.13,3.13,0,0,0-4.64-.84,2.43,2.43,0,0,0-.75,2.76c.23.8,1.11.87.9,2.09a2.19,2.19,0,0,1-1.29,1.77,2.78,2.78,0,0,0-1.08,1.12,3,3,0,0,0-.15,1.72c.25,1,1.76.2,2.78-.23a19.08,19.08,0,0,0,3.32-2.57C110.7,77.7,111.32,74.92,110.26,73.32Z"/><path class="cls-4" d="M72.81,37.4c-10.57,0-18.31,2.92-23,8.67-6.54,8-6.29,20.31-3.88,29.12.74,2.69,1.11,10,1.62,12.62,2.29,11.92,16.13,18.26,25.25,18.26h.24V37.41Z"/><path class="cls-5" d="M95.75,46.08c-4.65-5.72-12.29-8.63-22.7-8.67v68.65c10.41-.1,22.86-7.06,25-18.25.51-2.67.89-9.93,1.62-12.62C102.08,66.4,102.32,54.15,95.75,46.08Z"/><path class="cls-10" d="M78.38,95.3S76,97.86,73,97.86s-5.19-2.51-5.19-2.51A34.6,34.6,0,0,1,73,95,43.55,43.55,0,0,1,78.38,95.3Z"/><path class="cls-11" d="M74.55,94.12A1.39,1.39,0,0,0,73,95.28a1.38,1.38,0,0,0-1.5-1.16,21.21,21.21,0,0,0-3.83,1.18s2.91.31,3.75.31,1.57.33,1.58-.29c0,.62.62.38,1.44.38s3.9-.4,3.9-.4A21.21,21.21,0,0,0,74.55,94.12Z"/><path class="cls-3" d="M107.34,47.65c-.41-1.31-.85-2.53-1.28-3.7v-.5c0-5-4-11.36-10.45-17.59s-10.45-4.95-15.76-4.77l0,.1c-2.33-.54-14.87-3.23-22.33-.25-8.25,3.3-15,9-19.77,24.18s-.85,27.67.07,33c2.93,16.83,17,27.49,17,27.49a37.08,37.08,0,0,1-5.13-9,52.37,52.37,0,0,1-3.07-18.24c0-8.8,8-19.69,8-19.69A43.17,43.17,0,0,0,50.14,73a22.27,22.27,0,0,0,3.14,13.33s-4.91-9.76,2.93-17a55.18,55.18,0,0,0,6.27-6.94,0,0,0,0,0,0,0c-2,5.75,2,10.59,2,10.59s-.07-7.39,4-9.9c10-6.11,11.56-8.63,13-13.55a13.3,13.3,0,0,0,.38-1.9l9.11,14.24c.43.61,1.12,1.66,1.93,3,2.36,3.94,5.63,10.4,5.63,16a52.63,52.63,0,0,1-3.07,18.25,37.31,37.31,0,0,1-5.13,9s14-10.66,17-27.49C108.19,75.32,112.1,62.86,107.34,47.65Z"/><path class="cls-12" d="M96.5,116.74c-4.08-2-8.93-3.19-8.67-2.61,2.64,3.72,1.66,6.84,1.22,12.18-.67,8.3-6.07,6.28-16.1,6.18-10,.1-15.43,2.12-16.11-6.18-.44-5.34-1.42-8.46,1.22-12.18.26-.58-4.58.65-8.67,2.61A43.06,43.06,0,0,0,42,121.36a7.52,7.52,0,0,1,4.31,4.77,39.23,39.23,0,0,1,1.24,8.42C48,140.93,51.18,143.8,51,146H94.9c-.19-2.15,3-5,3.46-11.4a39.87,39.87,0,0,1,1.24-8.42,7.55,7.55,0,0,1,4.31-4.77A42.58,42.58,0,0,0,96.5,116.74Z"/><path class="cls-13" d="M68.54,114.1c.47,7.21-2.67,15.38-3.37,17.73a29.66,29.66,0,0,1-3.46,6.76s2.71.24,3.11.22,4,.9,4.85-1.8,4.33-20.21,4-20.65-1.11-2.26-1.11-2.26Z"/><path class="cls-14" d="M63.79,107.82c1.95.67,5.71,2,9.38,1.86a77,77,0,0,0,9.58-1.34s2.68,3.12.42,4.4-16.38,3.19-20.9-.23C61.54,112,63.79,107.82,63.79,107.82Z"/><path class="cls-14" d="M70.38,109.51c.36-.24,1.93,0,3.07,0s1.59-.35,2.56,0,1.58,3.09,1.58,3.51,0,1.35-.45,1.39,0,2.62.07,3.74c1.25,19.51-1.65,24.42-2.25,24.78s-10.74.63-10.74.63,2.77-6.21,3.83-9.62a83.13,83.13,0,0,0,3.22-19s-1.19.37-1.19-.68S69.41,110.18,70.38,109.51Z"/><path class="cls-12" d="M111.57,39.64H35.88a12.36,12.36,0,0,1,0-2.23C38.6,26.88,48.71,14.24,72.69,14.24c23.25,0,35.57,12.35,38.88,23.17A10.06,10.06,0,0,1,111.57,39.64Z"/><path class="cls-15" d="M111.57,53.22H35.88V39.64s12.83-9.41,36.81-9.41c23.25,0,38.88,9.41,38.88,9.41Z"/><path class="cls-12" d="M71.67,57.75c-21.07.68-56.38,10.67-56.38,10.67S37.12,41.32,71,41.28c30.06,0,59.59,24.42,59.59,24.42S85.51,57.31,71.67,57.75Z"/></g></g></svg>