<svg xmlns="http://www.w3.org/2000/svg" viewBox="0 0 145.36 145.95"><defs><style>.cls-1{fill:#d7878e;}.cls-2{fill:#231f20;}.cls-3{fill:#2a222b;}.cls-4{fill:#e1bf9c;}.cls-5{fill:#f2d1ac;}.cls-6,.cls-8{fill:#c09a80;}.cls-6{opacity:0.7;}.cls-7{fill:#d3a789;}.cls-9{fill:#e0b89b;}.cls-10{fill:#c6696e;}.cls-11{fill:#d87373;}.cls-12{fill:#413342;}.cls-13{fill:#93d5d8;}.cls-14{fill:#580d0d;}.cls-15{fill:#dcc724;}</style></defs><title>Asset 208</title><g id="Layer_2" data-name="Layer 2"><g id="Layer_1-2" data-name="Layer 1"><rect class="cls-1" width="145.36" height="145.95"/><path class="cls-2" d="M110.84,71.73c0,3.61-1.3,6.54-2.9,6.54s-2.9-2.93-2.9-6.54,1.3-6.53,2.9-6.53S110.84,68.12,110.84,71.73Z"/><path class="cls-3" d="M97.73,102.9c1.33-3.65,12.3-13.65,14.42-20.15l-6.69-.1-7.38,2.78s-2.26,5.11-2.56,6.42c-.14.65-1.3,3.61-2.45,6.65l-4.82-5.14-5.9.79c.33,4.82,4.32,16.93,3.89,20.79s-2.7,6.53-5.24,8.54a19.38,19.38,0,0,1-3.71,2.33,19.69,19.69,0,0,1-3.71-2.33c-2.54-2-4.82-4.68-5.24-8.54s3.56-16,3.88-20.79l-5.89-.79L61.5,98.5c-1.15-3-2.3-6-2.45-6.65-.29-1.31-2.56-6.42-2.56-6.42l-7.37-2.78L44.18,86c2.42,4.19,11.34,13.29,12.66,16.94s.46,7.06-.93,10a18.84,18.84,0,0,1-3.1,4.67A33.58,33.58,0,0,0,60,113.47a9.24,9.24,0,0,0,2-2.32c.36,3.86.81,8.58,1.24,9.49a11.6,11.6,0,0,0,6.9,5.18,32.31,32.31,0,0,0,7.12.54,32.22,32.22,0,0,0,7.11-.54,11.59,11.59,0,0,0,6.91-5.18c.43-.91.88-5.63,1.24-9.49a9,9,0,0,0,2,2.32,33.33,33.33,0,0,0,7.19,4.08,18.7,18.7,0,0,1-3.11-4.67C97.28,110,96.41,106.55,97.73,102.9Z"/><path class="cls-4" d="M77.32,92v53.7H48.12l-.71-.31c0-28.8,17.87-30.95,17.87-30.95h.15a2.57,2.57,0,0,0,.38-.08c1.48-.41,2.48-2.59,3.16-5.69.12-.54.22-1.09.3-1.68.17-1,.31-2,.41-3.12.07-.65.12-1.31.19-2,.26-3.3.34-6.88.34-10.28C70.21,91.56,74.14,92,77.32,92Z"/><path class="cls-5" d="M107.33,145.34s-.26.1-.69.31H77.32V92h.06c3.17,0,7.12-.39,7.12-.39,0,3.38.09,6.92.35,10.19.06.66.13,1.32.19,2,.12,1.13.25,2.19.41,3.19v0c.06.45.14.86.22,1.27.62,3,1.52,5.22,2.82,6a2.58,2.58,0,0,0,.31.13,1.88,1.88,0,0,0,.66.12S107.33,116.54,107.33,145.34Z"/><path class="cls-6" d="M85.44,106.9v0a9.42,9.42,0,0,1-8.08,4.4h0a10.18,10.18,0,0,1-8-4.38c.16-1,.31-2,.41-3.11.06-.66.12-1.31.18-2a31.64,31.64,0,0,0,7.37,1h.09a30,30,0,0,0,7.53-1q.09,1,.18,1.95C85.16,104.83,85.28,105.9,85.44,106.9Z"/><path class="cls-7" d="M77.29,34.25C46.82,34.19,46.65,58.67,48,74.64c-2.09-3.75-8.27-2.35-7.76,3.65.48,5.74,9.22,8.34,9.1,7.71,2.49,13,16.85,20.23,28,21.26h.24v-73Z"/><path class="cls-8" d="M41.77,75.75a3,3,0,0,1,4.47-.81A2.35,2.35,0,0,1,47,77.6c-.22.78-1.07.84-.86,2a2.09,2.09,0,0,0,1.23,1.7,2.87,2.87,0,0,1,1.05,1.08,2.74,2.74,0,0,1,.13,1.66c-.23,1-1.69.19-2.66-.23a18.14,18.14,0,0,1-3.2-2.47C41.35,80,40.75,77.29,41.77,75.75Z"/><path class="cls-9" d="M77.44,34.25c30.47-.06,30.65,24.42,29.29,40.39,2.1-3.75,8.27-2.35,7.77,3.65C114,84,105.28,86.63,105.4,86c-2.5,13-16.85,20.23-28,21.26h-.23v-73Z"/><path class="cls-8" d="M113.18,75.75a3,3,0,0,0-4.46-.81A2.35,2.35,0,0,0,108,77.6c.22.78,1.07.84.87,2a2.09,2.09,0,0,1-1.24,1.7,2.87,2.87,0,0,0-1.05,1.08,2.82,2.82,0,0,0-.13,1.66c.23,1,1.69.19,2.66-.23a17.79,17.79,0,0,0,3.2-2.47C113.6,80,114.2,77.29,113.18,75.75Z"/><path class="cls-4" d="M77.13,41.18C67,41.18,59.51,44,55,49.52c-6.29,7.74-6,19.55-3.73,28,.71,2.6,1.07,9.58,1.56,12.15,2.2,11.47,15.53,17.58,24.3,17.58h.24V41.19Z"/><path class="cls-5" d="M99.21,49.53c-4.47-5.5-11.83-8.3-21.84-8.34v66.08c10-.1,22-6.8,24.06-17.57.48-2.57.85-9.55,1.56-12.15C105.31,69.1,105.54,57.29,99.21,49.53Z"/><path class="cls-10" d="M82.49,96.91s-2.3,2.46-5.13,2.46a7.66,7.66,0,0,1-5-2.41,33.08,33.08,0,0,1,5-.37A41.54,41.54,0,0,1,82.49,96.91Z"/><path class="cls-11" d="M78.81,95.77a1.32,1.32,0,0,0-1.45,1.12,1.34,1.34,0,0,0-1.45-1.12,20.37,20.37,0,0,0-3.69,1.14s2.81.3,3.61.3,1.51.31,1.53-.28c0,.6.59.36,1.38.36s3.75-.38,3.75-.38A20.22,20.22,0,0,0,78.81,95.77Z"/><path class="cls-12" d="M47.45,98.78l0,.09C47.63,99,47.59,99,47.45,98.78Z"/><path class="cls-12" d="M120.32,59.62A13.62,13.62,0,0,0,126,58a9.61,9.61,0,0,1-7.43-.76c-4-2.21-5.17-3.5-6.85-7.53s-.18-4.07-1.85-7.23-1.07-6-3-8.87c-3-4.35-11.9-4.94-12.26-5.46-1.76-2.49-2.2-2-2.83-1.42,0-2.07-.62-2.22-.9-3.48,0,0-.59-2.65-2.18-1.54-.39.28-2,.24-2.13.78a34.29,34.29,0,0,0-6.47,0c-3.75.27-9.31-1.08-18.17,1-7.66,1.77-9.82,4.23-15.45,9.6-2,1.93-3.61,5.32-4.76,8.56C36.81,46.2,31.57,54.09,30.87,67.87,30.63,73.36,34.36,80,34.36,80a28.08,28.08,0,0,1,.15-8.92,17.48,17.48,0,0,1,5.72-10.52A16.86,16.86,0,0,0,36,69.84a32,32,0,0,0,3.15,19.22c2,4.07,7.26,9.32,8.39,10.76-.43-.62-.72-2.46-.93-4.76,2.83,3.83,8.52,6.7,8.52,6.7l-2.61-3.69a58.52,58.52,0,0,1-4.08-11,19.12,19.12,0,0,1,1-11.14,35.74,35.74,0,0,0,.6,5.38c2.61,8.1,8,10.11,8,10.11s-7.33-12-1.36-25.3c1.69-3.74,6.61-9.71,6.61-9.71a30.35,30.35,0,0,0-3.88,7.07c-.4,1.06-.51,5.71,1,8,.33-1.4-.29-3.53,1.45-6.47s5.24-3.32,9-4.34A18.51,18.51,0,0,0,78,62.21,15.43,15.43,0,0,0,93.12,46.16c.23.38.53,6.2-.45,8.84a17.1,17.1,0,0,1-7,8.38s8.27-1.3,11-6a20.54,20.54,0,0,0,1.91-5c-.44,3.22.27,8.78,1.61,10.89a14.86,14.86,0,0,1,1.19,3.15c.78,3.21,1.85,9.16.09,12.69s-7.76,7.47-7.76,7.47a22.92,22.92,0,0,0,9.91-4.68c-1.05,2.93-2.08,6.61-1.78,9.25.73,6.56-6.86,11.42-6.86,11.42,8.3-2,14.4-10.33,16-19,1.06-5.56-1.15-10.6-1.05-10.86a12.32,12.32,0,0,1,2.26,6.6,20.21,20.21,0,0,1-1.32,9.85s7.29-6.67,7.12-10.49,2.39-7,.85-12.88c-.51-2-4.52-7.38-4.52-7.38l-1.91-1.64A12.86,12.86,0,0,0,120.32,59.62Zm-37.93-4c-2.9,4.37-8.1,4.86-10.68,4.8a18,18,0,0,0,4.54-2c5.84-3.6,8.62-9.38,8.65-11.37h0C84.18,52,84.37,52.65,82.39,55.64Z"/><path class="cls-13" d="M107.39,145.35a3.67,3.67,0,0,0-.69.3H48.19a4.82,4.82,0,0,0-.72-.3A46.22,46.22,0,0,1,50,129.29c6.57-4.5,20.12-4.43,27.43,2.82,0,0,11.3-9.25,22.79-4.38a16.8,16.8,0,0,1,5.44,3.64A49.4,49.4,0,0,1,107.39,145.35Z"/><path class="cls-14" d="M67.54,108.88c0,.73,3.91.1,2.55,10.65S57,128.35,53.59,134a18,18,0,0,0-2.19,11.67h-5l1.06-3.6A13.73,13.73,0,0,1,48.3,133c2.19-4.54,0-7.23.22-9.14s3.25-6.22,6-7.22,2.58-.34,6-1.16,7.37-2.77,7.37-4.95S67.54,108.88,67.54,108.88Z"/><path class="cls-14" d="M87.1,108.59c0,.72-3.92.1-2.55,10.64s13.13,8.82,16.5,14.46a18.3,18.3,0,0,1,2,12H108l-.59-3.82a14.88,14.88,0,0,0-1-9.14c-2.19-4.55,0-7.23-.22-9.15s-3.25-6.21-6-7.21-2.67-.12-6.14-.93-7.27-3-7.27-5.19S87.1,108.59,87.1,108.59Z"/><polygon class="cls-15" points="44.92 56.72 45.89 54.82 45.86 56.95 47.6 55.72 46.58 57.59 48.7 57.31 46.92 58.5 48.93 59.23 46.81 59.46 48.24 61.04 46.26 60.25 46.8 62.32 45.4 60.7 44.92 62.78 44.44 60.7 43.04 62.32 43.58 60.25 41.59 61.04 43.03 59.46 40.91 59.23 42.91 58.5 41.14 57.31 43.26 57.59 42.24 55.72 43.98 56.95 43.95 54.82 44.92 56.72"/><polygon class="cls-15" points="49.53 63.63 50.16 62.38 50.15 63.78 51.29 62.97 50.62 64.21 52.01 64.02 50.85 64.8 52.16 65.28 50.77 65.43 51.71 66.47 50.41 65.95 50.76 67.31 49.85 66.25 49.53 67.62 49.21 66.25 48.3 67.31 48.65 65.95 47.34 66.47 48.28 65.43 46.89 65.28 48.21 64.8 47.04 64.02 48.44 64.21 47.77 62.97 48.91 63.78 48.89 62.38 49.53 63.63"/><rect class="cls-15" x="50.39" y="52.66" width="1.19" height="16.21" transform="matrix(0.31, -0.95, 0.95, 0.31, -22.71, 90.11)"/><polygon class="cls-15" points="56.3 67.98 49.53 65.75 49.9 64.61 56.67 66.85 56.3 67.98"/></g></g></svg>