<svg xmlns="http://www.w3.org/2000/svg" xmlns:xlink="http://www.w3.org/1999/xlink" viewBox="0 0 145.36 145.95"><defs><style>.cls-1{fill:none;}.cls-2{fill:#7e6052;}.cls-3{fill:#3a2817;}.cls-4{fill:#d3a789;}.cls-5{fill:#e0b89b;}.cls-6{fill:#ddd;}.cls-7{fill:#e2bf9c;}.cls-8{fill:#f2d1ac;}.cls-9{clip-path:url(#clip-path);}.cls-10{fill:#c09a80;}.cls-11{fill:#231f20;}.cls-12{fill:#5aadc5;}.cls-13{fill:#d7878e;}.cls-14{fill:#ae2130;}.cls-15{fill:#381e14;}</style><clipPath id="clip-path"><rect class="cls-1" x="66.43" y="98.26" width="17.57" height="10.39"/></clipPath></defs><title>Asset 134</title><g id="Layer_2" data-name="Layer 2"><g id="Layer_1-2" data-name="Layer 1"><rect class="cls-2" width="145.36" height="145.95"/><path class="cls-3" d="M42.37,64.2l2.78,16.71-.15-.1c1.24,5.1,1.83,3.07.85,8.68-.83,4.84-3.32,6.11-3.32,6.11s3.84-1.85,4.77-3.1c.45-.61,1.65-2.3,2-2.81,0,0,0,0,0,0-.21.56-.71,2.36,0,5.83a14.77,14.77,0,0,0,4.74,7.6,12.18,12.18,0,0,1-1.65-7.56s-.14,1.58,3.58,6,10.66,8.26,10.66,8.26-.14-2.74-.22-5.74A25.37,25.37,0,0,0,83.61,104c-.08,3-.22,5.81-.22,5.81s7-3.86,10.66-8.26,3.58-6,3.58-6A12.26,12.26,0,0,1,96,103.16a14.71,14.71,0,0,0,4.74-7.6c.87-4.24-.08-6-.09-6s1.59,2.23,2.13,3c.93,1.25,4.77,3.1,4.77,3.1s-2.49-1.27-3.33-6.11"/><path class="cls-4" d="M68.23,50.09h-.11c-8.41.62-14.3,3.07-17.52,7.28a13,13,0,0,0-2.32,10.51c.93,10.74,7.18,11.9,9.82,11.9a10.12,10.12,0,0,0,2.07-.22c3.32,0,10.27-6.84,13.1-9.77a7.4,7.4,0,0,1,1.61-1.3V50.09Z"/><path class="cls-4" d="M46.94,53.62s6.59-6.09,26.61-6.47h1.33V20.67H75c-27.3,0-32.55,18.57-32.76,35.41H45A5.55,5.55,0,0,1,46.94,53.62Z"/><path class="cls-5" d="M75.22,47.15H76.9c20,.38,26.6,6.47,26.6,6.47a2.42,2.42,0,0,1,.31.25v-.22h4c-.69-16.15-6.69-33-32.69-33h.09Z"/><path class="cls-5" d="M107.44,67.21c.12-1.5.23-3.08.31-4.7h-1.52a53,53,0,0,1-2.73,12.74c-5.09,9.57-14.29,7.21-14.29,7.21-6.34-5.1-9.45-5.1-9.45-5.1H75.22v26.89h-.09c12.27,0,28.08-8.75,30.83-23.92-.13.78,9.51-2.65,10-9.27C116.56,64.2,109.75,62.84,107.44,67.21Z"/><path class="cls-5" d="M77.17,69.79C80,72.72,87,79.52,90.28,79.56a9.91,9.91,0,0,0,2.06.22c2.65,0,8.89-1.16,9.82-11.9a13,13,0,0,0-2.31-10.51c-3.22-4.21-9.11-6.66-17.52-7.28H75.22V68.32A6.22,6.22,0,0,1,77.17,69.79Z"/><path class="cls-4" d="M74.88,104.25V77.36h-4.2s-3.1,0-9.44,5.1c0,0-9.2,2.36-14.3-7.21a56.27,56.27,0,0,1-2.49-10.32h-2c.06.78.11,1.54.17,2.28A4.6,4.6,0,0,0,40,64.93a4.29,4.29,0,0,0-1.27-.22c-2.5,0-5,2.09-4.67,6.36.55,6.62,10.18,10.05,10,9.27C46.89,95.51,62.7,104.26,75,104.26h-.09Z"/><path class="cls-6" d="M75.77,139.12a.6.6,0,1,1-.61-.6.6.6,0,0,1,.61.6"/><path class="cls-6" d="M75.77,142.78a.6.6,0,1,1-.61-.61.6.6,0,0,1,.61.61"/><path class="cls-7" d="M75.16,87.6V146H43.44l-.78-.33c0-28.95,16.62-33.12,19.12-33.58l.3-.05c1.94,0,3.18-2.5,4-6.28.13-.58.24-1.18.34-1.83.17-1.06.33-2.2.44-3.38.07-.71.14-1.43.2-2.16.28-3.58.38-7.47.38-11.16,0,0,4.27.42,7.71.42"/><path class="cls-8" d="M107.78,145.62,107,146H75.16V87.6h.07c3.45,0,7.74-.42,7.74-.42,0,3.67.09,7.51.39,11.08.06.71.13,1.41.19,2.11.14,1.22.27,2.38.45,3.47v0c.07.49.16.94.24,1.38.83,4,2.12,6.75,4.12,6.75a8.35,8.35,0,0,1,.83.14s0,0,0,0c3.76.9,18.57,6.15,18.57,33.49"/><g class="cls-9"><path class="cls-10" d="M84,103.84v0a10.22,10.22,0,0,1-8.78,4.79h0a11,11,0,0,1-8.74-4.77c.18-1.06.33-2.19.44-3.37.07-.71.14-1.42.2-2.16a34.8,34.8,0,0,0,8,1h.08a32.72,32.72,0,0,0,8.19-1.13c.07.71.13,1.43.2,2.12.13,1.22.26,2.37.44,3.46"/></g><path class="cls-10" d="M36.25,68.16a3.18,3.18,0,0,1,4.85-.92,2.78,2.78,0,0,1,.79,3.05c-.23.89-1.16.95-.94,2.29a2.35,2.35,0,0,0,1.35,2,3.26,3.26,0,0,1,1.13,1.24,3.38,3.38,0,0,1,.15,1.9c-.26,1.09-1.85.22-2.9-.26a20.39,20.39,0,0,1-3.47-2.83c-1.42-1.58-2.07-4.65-1-6.42"/><path class="cls-10" d="M113.86,68.16a3.2,3.2,0,0,0-4.86-.92,2.8,2.8,0,0,0-.79,3.05c.24.89,1.17.95.94,2.29a2.36,2.36,0,0,1-1.35,2,3.34,3.34,0,0,0-1.13,1.24,3.29,3.29,0,0,0-.14,1.9c.25,1.09,1.84.22,2.89-.26a20.45,20.45,0,0,0,3.48-2.83c1.41-1.58,2.07-4.65,1-6.42"/><path class="cls-7" d="M75,28.66c-11.06,0-19.15,3.21-24,9.55-6.84,8.85-6.58,22.38-4.06,32.08.77,3,1.16,11,1.7,13.9C50.93,97.32,65.42,104.31,75,104.31h.26V28.67H75"/><path class="cls-8" d="M99,38.23c-4.86-6.3-12.86-9.51-23.74-9.56V104.3c10.89-.11,23.9-7.77,26.15-20.11.53-2.93.92-10.93,1.69-13.9,2.52-9.67,2.76-23.19-4.1-32.06"/><path class="cls-11" d="M107.78,145.61s-.28.11-.75.34H43.44l-.78-.34c0-29.41,16.63-33.67,19.12-34.12,4.07,4.64,13,12.78,13,12.78s9.14-7.73,12.94-11.27a4,4,0,0,0,.56-.52,12.71,12.71,0,0,0,.94-.9h0a14.63,14.63,0,0,1,2.47.81c.18.07.35.16.55.25a20.6,20.6,0,0,1,3.83,2.29,4.63,4.63,0,0,1,.56.43c5.29,4.15,11.16,12.76,11.16,30.25"/><path class="cls-12" d="M87.55,107.11c.28.21,3.41,6.94,4,8.33s0,5.48,0,5.48-.42-2.2-1.68-2.77-3.89-.89-4.94-.38-6,4.38-6.89,5a4.91,4.91,0,0,0-1.8,2.08v21H74L74.18,125l2.36-7.44,8.65-8.41s-.52-2.15-.6-2.43a7.63,7.63,0,0,1,3,.35"/><path class="cls-12" d="M62.69,107.46c-.28.23-3.41,6.94-4,8.33s0,5.48,0,5.48.42-2.2,1.67-2.78,3.9-.88,4.94-.36,6,4.38,6.9,5,4,2.77,4,2.77l-3.07-8.34-8.07-8.1s.69-2.22.68-2.39a8,8,0,0,0-3.06.35"/><path class="cls-6" d="M75.77,127.53a.6.6,0,1,1-1.2,0,.6.6,0,1,1,1.2,0"/><path class="cls-6" d="M75.77,131.49a.6.6,0,1,1-1.2,0,.6.6,0,1,1,1.2,0"/><path class="cls-6" d="M75.77,135.31a.6.6,0,1,1-.61-.6.6.6,0,0,1,.61.6"/><path class="cls-3" d="M39.67,55.85s0,.09,0,.22h0Z"/><path class="cls-13" d="M104.33,55.12a15.88,15.88,0,0,1-.52,5v2.37h.66C104.55,59,104.42,56.37,104.33,55.12Z"/><path class="cls-13" d="M104.33,55.12c0-.51-.06-.82-.06-.82S104.3,54.59,104.33,55.12Z"/><path class="cls-1" d="M40,64.93a4.6,4.6,0,0,1,2.63,2.28c-.06-.74-.11-1.5-.17-2.28H40Z"/><path class="cls-5" d="M75.22,77.36h-.34v26.89h.34Z"/><path class="cls-5" d="M74.88,47.15h.34V20.67h-.34Z"/><path class="cls-5" d="M75.22,68.32V50.09h-.34v18.4l.34-.17Z"/><path class="cls-14" d="M46.94,53.62A5.55,5.55,0,0,0,45,56.07H42.21c0,3,.09,6,.28,8.86h2a56.27,56.27,0,0,0,2.49,10.32c5.1,9.57,14.3,7.21,14.3,7.21,6.34-5.1,9.44-5.1,9.44-5.1h4.2V68.49a7.4,7.4,0,0,0-1.61,1.3c-2.83,2.93-9.78,9.73-13.1,9.77a10.12,10.12,0,0,1-2.07.22c-2.64,0-8.89-1.16-9.82-11.9A13,13,0,0,1,50.6,57.37c3.22-4.21,9.11-6.66,17.52-7.28h6.76V47.15H73.55C53.53,47.53,46.94,53.62,46.94,53.62Z"/><path class="cls-14" d="M107.82,53.65h-4v.22a2.42,2.42,0,0,0-.31-.25s-6.59-6.09-26.6-6.47H75.22v2.94h7.11c8.41.62,14.3,3.07,17.52,7.28a13,13,0,0,1,2.31,10.51c-.93,10.74-7.17,11.9-9.82,11.9a9.91,9.91,0,0,1-2.06-.22C87,79.52,80,72.72,77.17,69.79a6.22,6.22,0,0,0-2-1.47v9h4.54s3.11,0,9.45,5.1c0,0,9.2,2.36,14.29-7.21a53,53,0,0,0,2.73-12.74h1.52C107.9,59.65,108,56.66,107.82,53.65Z"/><polygon class="cls-14" points="75.22 47.15 75.1 47.15 74.88 47.15 74.88 50.09 75.22 50.09 75.22 47.15"/><path class="cls-14" d="M75.22,68.32l-.34.17v8.87h.34v-9Z"/><path class="cls-15" d="M82.33,50.09H68.12c-8.41.62-14.3,3.07-17.52,7.28a13,13,0,0,0-2.32,10.51c.93,10.74,7.18,11.9,9.82,11.9a10.12,10.12,0,0,0,2.07-.22c3.32,0,10.27-6.84,13.1-9.77a6.22,6.22,0,0,1,2-1.47,6.22,6.22,0,0,1,2,1.47C80,72.72,87,79.52,90.28,79.56a9.91,9.91,0,0,0,2.06.22c2.65,0,8.89-1.16,9.82-11.9a13,13,0,0,0-2.31-10.51C96.63,53.16,90.74,50.71,82.33,50.09Zm17,17.25,0,.11v.12c-.51,6.21-2.91,9.5-6.94,9.5a5.89,5.89,0,0,1-1.46-.17l-.27-.09-.3,0c-1.32,0-6.36-4.1-11-8.89-2.12-2.16-3.56-2.39-4.09-2.39s-2,.23-4.09,2.39c-4.64,4.79-9.67,8.86-11,8.89l-.3,0-.28.08a6.17,6.17,0,0,1-1.48.17c-4,0-6.42-3.29-6.94-9.5v-.12l0-.11A10.42,10.42,0,0,1,53,58.94c2.68-3.51,7.84-5.58,15.33-6.14H82.16c7.46.56,12.61,2.61,15.31,6.11A10.58,10.58,0,0,1,99.33,67.34Z"/></g></g></svg>