<svg xmlns="http://www.w3.org/2000/svg" xmlns:xlink="http://www.w3.org/1999/xlink" viewBox="0 0 145.36 145.95"><defs><style>.cls-1{fill:none;}.cls-2{fill:#5aadc5;}.cls-3{fill:#3d1f0f;}.cls-4{fill:#e2bf9c;}.cls-5{fill:#f2d1ac;}.cls-6{clip-path:url(#clip-path);}.cls-7{fill:#c09a80;}.cls-8{fill:#d3a789;}.cls-9{fill:#e0b89b;}.cls-10{fill:#462e13;}.cls-11{fill:#8dc63f;}.cls-12{fill:#3a2817;}</style><clipPath id="clip-path"><rect class="cls-1" x="63.53" y="97.7" width="17.58" height="10.39"/></clipPath></defs><title>Asset 135</title><g id="Layer_2" data-name="Layer 2"><g id="Layer_1-2" data-name="Layer 1"><rect class="cls-2" width="145.36" height="145.95"/><path class="cls-3" d="M36.15,61.9v46.19h0c.7,2.27,16.71,18.16,36.37,18.16s35.66-15.89,36.37-18.16h0V61.9Z"/><path class="cls-4" d="M72.27,87v58.35H40.54l-.78-.33c0-31.3,19.42-33.64,19.42-33.64,2,0,3.18-2.48,4-6.26.14-.59.25-1.19.34-1.84.18-1.06.33-2.19.44-3.38.07-.7.14-1.42.21-2.15.28-3.59.37-7.48.37-11.17,0,0,4.28.42,7.72.42"/><path class="cls-5" d="M104.89,145.06s-.29.11-.75.34H72.27V87h.07c3.45,0,7.74-.42,7.74-.42,0,3.67.09,7.51.38,11.08.07.71.14,1.42.21,2.11.12,1.23.25,2.38.44,3.47v0c.06.49.15.94.24,1.38.82,4,2.11,6.74,4.11,6.74,0,0,19.43,2.34,19.43,33.64"/><g class="cls-6"><path class="cls-7" d="M81.11,103.28v0a10.31,10.31,0,0,1-8.8,4.79h0a11.08,11.08,0,0,1-8.74-4.77c.18-1.06.33-2.19.44-3.38.07-.7.14-1.42.21-2.15a34.63,34.63,0,0,0,8,1h.09a32.66,32.66,0,0,0,8.19-1.13c.07.71.14,1.42.21,2.11.12,1.23.25,2.38.44,3.47"/></g><path class="cls-8" d="M72.37,20.11c-33.61,0-33.81,28.13-32.31,46.53-2.3-4.35-9.12-3-8.57,3.86.54,6.63,10.18,10,10,9.28C44.29,94.94,60.1,103.7,72.37,103.7l.25,0V20.11h-.25"/><path class="cls-7" d="M33.64,67.61a3.18,3.18,0,0,1,4.86-.93,2.74,2.74,0,0,1,.78,3c-.23.88-1.17,1-.93,2.3a2.43,2.43,0,0,0,1.33,2c.4.35.9.6,1.15,1.24A3.43,3.43,0,0,1,41,77.1c-.25,1.09-1.84.23-2.89-.26A20.84,20.84,0,0,1,34.59,74c-1.4-1.59-2.06-4.65-1-6.41"/><path class="cls-9" d="M72.53,20.11c33.61,0,33.8,28.13,32.31,46.53,2.3-4.35,9.12-3,8.55,3.86-.53,6.63-10.17,10-10,9.28C100.6,94.94,84.79,103.7,72.53,103.7c-.08,0-.17,0-.26,0V20.11h.26"/><path class="cls-7" d="M111.26,67.61a3.18,3.18,0,0,0-4.86-.93,2.76,2.76,0,0,0-.79,3c.23.88,1.16,1,.94,2.3a2.38,2.38,0,0,1-1.35,2c-.38.35-.88.6-1.13,1.24a3.35,3.35,0,0,0-.15,1.89c.26,1.09,1.84.23,2.9-.26A19.94,19.94,0,0,0,110.29,74c1.42-1.59,2.08-4.65,1-6.41"/><path class="cls-4" d="M72.07,28c-11,0-19.15,3.2-24,9.55C41.18,46.44,41.44,60,44,69.67c.77,3,1.17,11,1.7,13.9C48.05,96.7,62.53,103.7,72.07,103.7l.25,0V28h-.25"/><path class="cls-5" d="M96.07,37.6C91.21,31.3,83.21,28.1,72.32,28v75.63c10.9-.11,23.92-7.77,26.16-20.1.53-2.94.93-10.93,1.69-13.9,2.52-9.68,2.77-23.18-4.1-32.07"/><path class="cls-10" d="M108.72,64c-.67.65-2.93.67-5,4.91-1.3,2.61-2.29,2.86-2.29,2.86S103,61.13,103,58.18,93.6,33.39,88.36,31.63s-10,4.14-15.65,4.14h-.44c-5.54-.12-10.46-5.85-15.64-4.14S42,55.24,42,58.18s1.64,13.57,1.64,13.57a6.5,6.5,0,0,1-2.88-3.32C38.59,63.89,37,64.6,36.28,64c-1.4-18.4,3-43.06,35.94-43.06h.18c33.15,0,37.77,24.69,36.32,43.09"/><path class="cls-11" d="M110.32,45.23c-1.33-3.81-1.94-5.34-2.1-8.5s-2.19-6.08-4.84-8.95a29.42,29.42,0,0,0-10.82-7.57,60,60,0,0,0-19.94-4.49h-.3a60.23,60.23,0,0,0-19.94,4.49,29.19,29.19,0,0,0-10.8,7.57c-2.66,2.87-4.68,5.81-4.85,8.95s-.78,4.69-2.11,8.5,2,5.18,1.31,8.17,0,10.78,0,10.78a74.63,74.63,0,0,0,7.9-5.39C48.61,54.1,54,47.38,72.47,47.1c18,.27,24.13,9.8,29.09,14.6,1.55,1.51,6.94,2.24,7.46,2.48,0,0,.66-7.79,0-10.78s2.63-4.34,1.3-8.17"/><path class="cls-8" d="M60.75,140.44a1.65,1.65,0,1,1-1.64-1.64,1.64,1.64,0,0,1,1.64,1.64"/><path class="cls-8" d="M87.08,140.44a1.65,1.65,0,1,1-1.65-1.64,1.65,1.65,0,0,1,1.65,1.64"/><path class="cls-12" d="M72.67,20.33A11.34,11.34,0,1,0,84,31.67,11.34,11.34,0,0,0,72.67,20.33m0,21.36a10,10,0,1,1,10-10,10,10,0,0,1-10,10"/><rect class="cls-12" x="72.18" y="20.33" width="0.98" height="22.39"/><polygon class="cls-12" points="65.44 39.44 64.75 38.75 72.33 31.18 73.02 31.87 65.44 39.44"/><rect class="cls-12" x="75.97" y="29.95" width="0.98" height="10.71" transform="translate(-2.56 64.44) rotate(-45.02)"/><path class="cls-3" d="M74,100.4a5.86,5.86,0,0,0-.84-2.24,10.06,10.06,0,0,1-1.38,1.34,11.19,11.19,0,0,1-1.3-1.35,4.68,4.68,0,0,0-1.21,2.06,6.76,6.76,0,0,1-.25-1,8.12,8.12,0,0,0-1.39,2.41,2.74,2.74,0,0,0,.58,2A4.34,4.34,0,0,0,69,103a8,8,0,0,0,2.68,4.3,8.13,8.13,0,0,0,2.85-4.12,6.12,6.12,0,0,0,.55.32,2.51,2.51,0,0,0,.58-2,7.52,7.52,0,0,0-1.36-2.7s.07,1.5-.27,1.54"/></g></g></svg>