<svg xmlns="http://www.w3.org/2000/svg" viewBox="0 0 145.36 146.07"><defs><style>.cls-1{fill:#abc88d;}.cls-2{fill:#e1bf9c;}.cls-3{fill:#f2d1ac;}.cls-4,.cls-6{fill:#c09a80;}.cls-4{opacity:0.7;}.cls-5{fill:#d3a789;}.cls-7{fill:#e0b89b;}.cls-8{fill:#c6696e;}.cls-9{fill:#d87373;}.cls-10{fill:#432612;}.cls-11{fill:#f9f9fa;}</style></defs><title>Asset 183</title><g id="Layer_2" data-name="Layer 2"><g id="Layer_1-2" data-name="Layer 1"><rect class="cls-1" width="145.36" height="145.95"/><path class="cls-2" d="M72.38,91.64v54.43H42.79l-.73-.31c0-19.88,8.4-27.22,13.76-29.9a15.15,15.15,0,0,1,4.36-1.47h.14a1.92,1.92,0,0,0,.4-.09c1.49-.41,2.5-2.61,3.19-5.76.12-.54.23-1.1.31-1.71.17-1,.31-2,.42-3.15q.09-1,.18-2c.27-3.34.36-7,.36-10.42C65.18,91.25,69.16,91.64,72.38,91.64Z"/><path class="cls-3" d="M102.79,145.76s-.27.1-.7.31H72.38V91.64h.06c3.22,0,7.22-.39,7.22-.39,0,3.43.08,7,.35,10.33.06.67.12,1.33.19,2,.13,1.15.25,2.23.41,3.24v0c.07.46.15.88.23,1.29.62,3.05,1.54,5.29,2.87,6a1.66,1.66,0,0,0,.31.12,1.62,1.62,0,0,0,.66.13,13.36,13.36,0,0,1,3.57,1.09C93.54,117.83,102.79,124.88,102.79,145.76Z"/><path class="cls-4" d="M80.61,106.8v0a9.56,9.56,0,0,1-8.19,4.46h0a10.33,10.33,0,0,1-8.15-4.44c.17-1,.31-2.06.41-3.16.07-.66.13-1.33.19-2a32.43,32.43,0,0,0,7.47,1h.08A30.84,30.84,0,0,0,80,101.59c.06.66.12,1.33.19,2C80.32,104.7,80.44,105.78,80.61,106.8Z"/><path class="cls-5" d="M72.35,33.16c-30.88,0-31.06,24.76-29.69,40.94-2.11-3.8-8.37-2.39-7.86,3.69.49,5.83,9.34,8.46,9.22,7.82,2.53,13.19,17.08,20.51,28.33,21.55h.24v-74Z"/><path class="cls-6" d="M36.35,75.22a3.05,3.05,0,0,1,4.52-.81,2.37,2.37,0,0,1,.74,2.69c-.22.78-1.09.85-.87,2A2.12,2.12,0,0,0,42,80.86,3,3,0,0,1,43.05,82a2.8,2.8,0,0,1,.13,1.68c-.23,1-1.71.19-2.7-.23a18.59,18.59,0,0,1-3.24-2.5C35.92,79.5,35.31,76.79,36.35,75.22Z"/><path class="cls-7" d="M72.5,33.16c30.88,0,31.06,24.76,29.69,40.94,2.12-3.8,8.38-2.39,7.87,3.69-.5,5.83-9.35,8.46-9.22,7.82C98.31,98.8,83.76,106.12,72.5,107.16h-.23v-74Z"/><path class="cls-6" d="M108.72,75.22a3.05,3.05,0,0,0-4.52-.81,2.35,2.35,0,0,0-.73,2.69c.21.78,1.08.85.87,2a2.11,2.11,0,0,1-1.26,1.73,2.86,2.86,0,0,0-1,1.1,2.8,2.8,0,0,0-.14,1.68c.24,1,1.71.19,2.7-.23a18.59,18.59,0,0,0,3.24-2.5C109.15,79.5,109.76,76.79,108.72,75.22Z"/><path class="cls-2" d="M72.19,40.18c-10.31,0-17.86,2.85-22.43,8.46C43.38,56.48,43.62,68.46,46,77.05c.72,2.63,1.09,9.71,1.59,12.31,2.22,11.62,15.73,17.82,24.63,17.82h.24v-67Z"/><path class="cls-3" d="M94.57,48.66c-4.54-5.58-12-8.42-22.14-8.47v67c10.15-.11,22.29-6.89,24.38-17.81.5-2.6.86-9.68,1.58-12.31C100.74,68.48,101,56.52,94.57,48.66Z"/><path class="cls-8" d="M77.62,96.67s-2.33,2.49-5.2,2.49a7.73,7.73,0,0,1-5.07-2.44,33.77,33.77,0,0,1,5.07-.37A42.64,42.64,0,0,1,77.62,96.67Z"/><path class="cls-9" d="M73.89,95.52a1.34,1.34,0,0,0-1.47,1.13,1.36,1.36,0,0,0-1.48-1.13,20.86,20.86,0,0,0-3.73,1.15s2.84.3,3.66.3,1.53.32,1.55-.28c0,.6.6.37,1.4.37s3.8-.39,3.8-.39A20.86,20.86,0,0,0,73.89,95.52Z"/><path class="cls-10" d="M63.4,32.15c-1.86-1.55.12,11.72.67,17.8,2.18,24,14.37,27.18,14.37,27.18S73.18,74,72.94,63.55c-.09-3.92.24-9.21.24-9.21S76.73,61.47,79,66.92a40.19,40.19,0,0,1,2.5,12.32s2.74-16.47-2.26-21.53c-1.69-1.71-7.61-9.48-7.61-9.48S85.08,66,87.23,71.88a35.2,35.2,0,0,1,2,11.33s2.26-9.94-.6-19a40.54,40.54,0,0,0-9.53-15.36S89.49,63.46,91.66,71.26c4.51,16.23-3.19,36.81-3.19,36.81S101.3,82.63,98.82,71.41C97.47,65.29,93,59,93,59s3.22,17.5,3.22,25.43-8,37.63-8,37.63,15.23-33.78,15.23-41.71a47,47,0,0,0-2-13.84l-2.52,38.16s9.87-20,9.15-36.94c-1-24.64-10.17-28.9-10.17-28.9Z"/><path class="cls-10" d="M94,36s1.93,0,8.48,3.12,8.78,7.77,8.78,7.77-2.59-8-6.84-12.79c-12.71-14.44-24-8-24-8a54.49,54.49,0,0,1,6.65-1.73c7.75-1.23,10.89.32,10.89.32S92.36,21.35,87.3,21A30.9,30.9,0,0,0,80,22.42l4.23-2s-18.85-2.51-22.64,7.9c-4.8-2.94-12.24,0-16.56,2.6a73.72,73.72,0,0,0-7.61,5.37s5.21-3.38,10.94-3.38,1.2-1.94-2.81.86-7.48,5.59-9.27,11.49a61,61,0,0,0-2.14,12.5s7.59-16,13.4-17.42c0,0-7.63.78-11.26,14.52C30,78.92,45.58,88.55,45.58,88.55S40.73,75.19,42.81,71c1.11-2.23-.93-2.18-.75,2.08.45,10,8.15,21.41,8.15,21.41s-5.14-15.23-1.32-22.55c3.06-5.86,5.38-7.63,5.38-7.63a16,16,0,0,1,.91,8.56c-1.69,8.52-5.9,11.54-5.9,11.54S73.34,69.75,65.94,52.24c-.69-1.64-2.23-4.31-1.61-7,2.54,2.79,5.19,4.74,6.46,3.48,3-3,13.09-5.76,23.21-5.76s6.69,3.74,8.78,5.76S109.25,74,109.25,74s5.8-20-4.83-34.37C100.56,34.41,94,36,94,36Z"/><path class="cls-11" d="M102.79,145.76s-.27.1-.7.31H70.36c-.29-1.39-.62-2.93-.93-4.4l-1.25-6c0-.07.92-.75,2.27-1.89.56-.46,1.2-1,1.93-1.64C77.23,128,85,120.9,88.25,115.48a20.53,20.53,0,0,1,6.93,5.11A25.73,25.73,0,0,1,99.74,128C101.57,132.34,102.79,138.12,102.79,145.76Z"/><path class="cls-11" d="M70.8,146.07H60.34a130.87,130.87,0,0,1-12.4-23.26,21.41,21.41,0,0,1,6.42-6.16A88.64,88.64,0,0,0,70.8,146.07Z"/></g></g></svg>