<svg xmlns="http://www.w3.org/2000/svg" viewBox="0 0 145.36 145.95"><defs><style>.cls-1{fill:#867096;}.cls-2{fill:#4a484a;}.cls-3{fill:#e2bf9c;}.cls-4{fill:#f2d1ac;}.cls-5{fill:#c09a80;}.cls-6{fill:#e0b89b;}.cls-7{fill:#020202;}.cls-8{fill:#fff;}.cls-9{fill:#bb2025;}.cls-10{fill:#231f20;}</style></defs><title>Asset 148</title><g id="Layer_2" data-name="Layer 2"><g id="Layer_1-2" data-name="Layer 1"><rect class="cls-1" width="145.36" height="145.95"/><path class="cls-2" d="M56.26,46.67s-.41,11.1-2.45,14.61-1,6.12-14,9.5c-8,2.09-21.17.42-25.66-11.35C13,56.34,9.55,49.3,23,48.43s33.28-1.76,33.28-1.76"/><path class="cls-3" d="M75.41,87.69v58.06H43.84l-.78-.33c0-31.15,19.33-33.47,19.33-33.47,1.93,0,3.17-2.48,4-6.24.13-.58.24-1.18.33-1.82.18-1.06.33-2.19.44-3.37.06-.7.13-1.4.2-2.14.29-3.57.38-7.44.38-11.11,0,0,4.25.42,7.68.42"/><path class="cls-4" d="M107.87,145.42s-.3.11-.76.33H75.41V87.69h.06c3.44,0,7.71-.42,7.71-.42,0,3.65.09,7.47.37,11,.07.71.14,1.42.21,2.11.13,1.21.26,2.36.44,3.44v0c.06.48.15.93.24,1.37.82,4,2.1,6.71,4.1,6.71,0,0,19.33,2.32,19.33,33.47"/><path class="cls-5" d="M84.2,103.84v0a10.22,10.22,0,0,1-8.75,4.76h0a11,11,0,0,1-8.7-4.74c.18-1.06.33-2.19.44-3.37.06-.7.13-1.4.2-2.14a35,35,0,0,0,8,1h.09a32.78,32.78,0,0,0,8.14-1.13c.07.71.14,1.42.21,2.11.13,1.21.26,2.36.44,3.44"/><path class="cls-6" d="M75,21.09c-33.43,0-33.62,28-32.14,46.31-2.29-4.34-9.07-3-8.52,3.84.54,6.59,10.12,10,10,9.22C47,95.54,62.76,104.25,75,104.25h.26V21.09H75"/><path class="cls-5" d="M36.43,68.35a3.16,3.16,0,0,1,4.83-.92,2.77,2.77,0,0,1,.78,3c-.24.88-1.16.93-.93,2.27a2.34,2.34,0,0,0,1.34,1.94,3.17,3.17,0,0,1,1.12,1.24,3.31,3.31,0,0,1,.15,1.88c-.25,1.08-1.83.22-2.89-.25a21.06,21.06,0,0,1-3.46-2.82c-1.4-1.58-2-4.62-.94-6.38"/><path class="cls-6" d="M75.12,21.09c33.43,0,33.62,28,32.14,46.31,2.29-4.34,9.08-3,8.52,3.84-.53,6.59-10.12,10-10,9.22-2.74,15.08-18.47,23.79-30.67,23.79h-.25V21.09h.25"/><path class="cls-5" d="M113.65,68.35a3.17,3.17,0,0,0-4.84-.92,2.77,2.77,0,0,0-.77,3c.22.88,1.16.93.93,2.27a2.38,2.38,0,0,1-1.34,1.94,3.11,3.11,0,0,0-1.13,1.24,3.31,3.31,0,0,0-.14,1.88c.24,1.08,1.82.22,2.88-.25a21.06,21.06,0,0,0,3.46-2.82c1.4-1.58,2-4.62,1-6.38"/><path class="cls-3" d="M75.22,29c-11,0-19,3.19-23.94,9.51-6.8,8.8-6.54,22.26-4,31.91.77,3,1.16,10.91,1.69,13.84,2.37,13.06,16.79,20,26.28,20h.25V29h-.25"/><path class="cls-4" d="M99.09,38.5C94.26,32.23,86.3,29,75.47,29v75.26c10.84-.12,23.79-7.74,26-20,.52-2.93.92-10.88,1.69-13.84,2.5-9.63,2.75-23.06-4.09-31.9"/><path class="cls-7" d="M107.91,145.43s-.29.11-.76.34H43.82l-.79-.34c0-23.73,11.24-30.72,16.58-32.71,3.48,3.82,10.38,9.1,15.7,9.35h.15s.07,0,.11,0c5.34-.25,12.23-5.55,15.72-9.37,5.31,2,16.62,8.93,16.62,32.73"/><path class="cls-8" d="M56.63,114.1c4.13,4.55,12.32,10.8,18.63,11.12h.18s.09,0,.13,0c6.33-.32,14.49-6.57,18.63-11.12a20.15,20.15,0,0,0-3-1.4c-3.48,3.82-10.37,9.12-15.71,9.37,0,0-.09,0-.11,0h-.16c-5.31-.25-12.2-5.53-15.68-9.35a19.6,19.6,0,0,0-2.93,1.38"/><path class="cls-8" d="M67.62,130.77v1.51c0,.35.13.53.37.53.46-.11.93-.2,1.4-.29a7.82,7.82,0,0,1,1.33-.12,4,4,0,0,1,3,1.22,3.41,3.41,0,0,1,1.1,2.42v4.31a3.17,3.17,0,0,1-2.05,3,10,10,0,0,1-4.29.8,8.89,8.89,0,0,1-2.82-.41,7.53,7.53,0,0,1-2.75-1.57v-4.4h4.74v2.08a.73.73,0,0,0,.37.63,1.48,1.48,0,0,0,.82.24,1.06,1.06,0,0,0,.7-.25.76.76,0,0,0,.31-.64v-3a1.08,1.08,0,0,0-.27-.84,1.19,1.19,0,0,0-.76-.23,1.29,1.29,0,0,0-.69.13,1.08,1.08,0,0,0-.37.48H62.88v-9.45H74.59v4.64h-5a1.35,1.35,0,0,0-.31-.72.75.75,0,0,0-.58-.29H68.2l-.38,0a.21.21,0,0,0-.2.22"/><path class="cls-8" d="M84,143.76H78.26l4.59-12.95c0-.13,0-.22-.24-.26a3.79,3.79,0,0,0-.5-.05H81.5q-.36,0-.36.57v2.55H76.52v-6.73H89.13v2.9Z"/><path class="cls-9" d="M94.9,48.72a14.82,14.82,0,0,0-6.24-3.81,14.85,14.85,0,0,0-8.4-5.17,16.42,16.42,0,0,0-8.84-3l-.29.18S86.8,50.62,83,67.94c0,0,5.94-.47,2.78-16.53A28.35,28.35,0,0,1,88.6,70.47s6.09-.5,2.65-17.18c3.44,5.59,6.4,13.34,4.48,22,0,0,5.91-.47,2.81-16.4a37.29,37.29,0,0,1,5.14,28s7.29-8.61,1.83-30.58A17.6,17.6,0,0,0,94.9,48.72Z"/><path class="cls-9" d="M55.06,36.44a14.82,14.82,0,0,1,6.24-3.81,14.85,14.85,0,0,1,8.4-5.17,16.42,16.42,0,0,1,8.84-3l.29.18S63.16,38.34,67,55.66c0,0-5.94-.47-2.78-16.53a28.35,28.35,0,0,0-2.85,19.06S55.27,57.7,58.71,41c-3.44,5.59-6.4,13.34-4.48,22,0,0-5.91-.47-2.81-16.4-4.44,7-8.4,16.93-6,28,0,0-7.63-9.32-2.17-31.29A25.29,25.29,0,0,1,55.06,36.44Z"/><path class="cls-8" d="M43.3,43.36c-3.51,1.74-3.76,2-6.7,2.47-6.41,1-13,2.3-17.37,2.17s-6.11.16-6.41,4.25,0,1.74,0,1.74-.3-2.33,4.07-3.2,15.49,4.76,30.37,3.59S81.84,43.57,81.84,43.57s-8.61-2.82-15-3S43.3,43.36,43.3,43.36"/><path class="cls-10" d="M43.17,45s1.16-19.14,7.29-21.1S68.61,17.73,78.2,20c10,2.34,27.76,5.24,29.77,22,1,8.21-.71,25.38-.71,25.38s-.16-8.44-6.58-13.7S87,42.35,74.4,43.21,43.17,45,43.17,45"/><path class="cls-9" d="M88.87,99.22c-9.69,4.35-13.68,3.94-13.68,3.94v0c-.39,0-4.45.19-13.65-4a17.86,17.86,0,0,0,13.68,6.71h0A17.85,17.85,0,0,0,88.87,99.22Z"/></g></g></svg>