<svg xmlns="http://www.w3.org/2000/svg" xmlns:xlink="http://www.w3.org/1999/xlink" viewBox="0 0 145.36 145.95"><defs><style>.cls-1{fill:none;}.cls-2{fill:#5d3675;}.cls-3{fill:#e2bf9c;}.cls-4{fill:#f2d1ac;}.cls-5{clip-path:url(#clip-path);}.cls-6{fill:#c09a80;}.cls-7{fill:#d3a789;}.cls-8{fill:#e0b89b;}.cls-9{fill:#231f20;}.cls-10{fill:#e17ea0;}</style><clipPath id="clip-path"><rect class="cls-1" x="65.4" y="98.49" width="17.49" height="10.34"/></clipPath></defs><title>Asset 143</title><g id="Layer_2" data-name="Layer 2"><g id="Layer_1-2" data-name="Layer 1"><rect class="cls-2" width="145.36" height="145.95"/><path class="cls-3" d="M74.1,87.88V146H42.54l-.78-.34c0-19.92,7.91-28.05,13.62-31.32A16.81,16.81,0,0,1,61,112.17l.08,0c1.93,0,3.16-2.49,4-6.25a18.43,18.43,0,0,0,.34-1.82c.17-1,.33-2.19.44-3.36.07-.71.13-1.42.2-2.15.28-3.56.37-7.44.37-11.11,0,0,4.26.42,7.68.42"/><path class="cls-4" d="M106.57,145.61l-.77.34H74.1V87.88h.07c3.44,0,7.7-.42,7.7-.42,0,3.65.09,7.48.39,11,.06.71.13,1.4.2,2.09.12,1.23.26,2.38.44,3.46v0a13.58,13.58,0,0,0,.25,1.38c.81,4,2.07,6.64,4,6.71h.06a16.5,16.5,0,0,1,5.54,2c5.71,3.19,13.8,11.29,13.8,31.43"/><g class="cls-5"><path class="cls-6" d="M82.89,104v0a10.22,10.22,0,0,1-8.74,4.76H74.1a11,11,0,0,1-8.7-4.74c.18-1,.34-2.18.44-3.36.07-.7.13-1.41.2-2.14a35,35,0,0,0,8,1h.08a32.93,32.93,0,0,0,8.15-1.13c.06.71.13,1.42.2,2.1.13,1.22.27,2.37.44,3.45"/></g><path class="cls-7" d="M74.19,21.28c-33.44,0-33.62,28-32.15,46.32-2.28-4.35-9.07-3-8.51,3.84.53,6.59,10.11,10,10,9.22,2.74,15.08,18.48,23.8,30.68,23.8h.25V21.28h-.25"/><path class="cls-6" d="M35.67,68.54a3.16,3.16,0,0,1,4.82-.92,2.75,2.75,0,0,1,.79,3c-.24.87-1.16,1-.94,2.28a2.36,2.36,0,0,0,1.35,1.94,3.13,3.13,0,0,1,1.12,1.23A3.32,3.32,0,0,1,43,78c-.25,1.09-1.83.23-2.89-.26a19.6,19.6,0,0,1-3.45-2.8c-1.41-1.59-2.06-4.63-.95-6.39"/><path class="cls-8" d="M74.35,21.28c33.44,0,33.64,28,32.15,46.32,2.3-4.35,9.08-3,8.53,3.84-.55,6.59-10.13,10-10,9.22-2.75,15.08-18.48,23.8-30.69,23.8H74.1V21.28h.25"/><path class="cls-6" d="M112.88,68.54a3.17,3.17,0,0,0-4.83-.92,2.78,2.78,0,0,0-.78,3c.24.87,1.16,1,.93,2.28a2.32,2.32,0,0,1-1.34,1.94A2.72,2.72,0,0,0,105.6,78c.25,1.09,1.82.23,2.87-.26a19.31,19.31,0,0,0,3.46-2.8c1.42-1.59,2.06-4.63.95-6.39"/><path class="cls-3" d="M73.9,29.18c-11,0-19.05,3.19-23.93,9.5-6.81,8.81-6.55,22.26-4,31.93.76,3,1.15,10.9,1.69,13.82,2.37,13.07,16.78,20,26.27,20,.08,0,.17,0,.26,0V29.19H73.9"/><path class="cls-4" d="M97.79,38.69c-4.85-6.27-12.81-9.46-23.63-9.5v75.24c10.83-.11,23.78-7.73,26-20,.53-2.92.92-10.87,1.69-13.82,2.5-9.64,2.75-23.08-4.07-31.92"/><path class="cls-9" d="M107.48,66.29a9.94,9.94,0,0,0-2,3.31c-1.07,2.76-1.47,2.29-1.47,2.29s1.68-10.81,1.68-13.83-9.63-16.17-15-18S80.29,42.05,74.5,42.05h-.45c-5.68-.11-10.58-3.69-15.88-1.95s-15,15-15,18,1.68,13.83,1.68,13.83-.41.47-1.48-2.29A9.53,9.53,0,0,0,40.76,66c-1.44-18.72-.38-45.94,33.38-45.94h.18c34,0,34.65,27.46,33.16,46.2"/><path class="cls-10" d="M99.37,146H48.85c.13-2,.33-4.9.54-6.46a132.31,132.31,0,0,1,6-25.2c.09-.24.18-.47.27-.68L61,111.9v.27c.05,2.16.41,16.27.79,20.15.24,2.75,6.71,4,12.3,4.24,5.61-.2,12.05-1.49,12.31-4.24.36-3.9.71-18.14.76-20.17a2.25,2.25,0,0,0,0-.25l5.36,1.71c.07.17.16.37.22.57,2.26,5.8,5.12,17.71,6.06,25.31.21,1.56.41,4.47.54,6.46"/><path d="M74,86.32c-4.41,0-8.87-1-11.15,1.44-1.87,2.46-2.16,8.67,0,11.19,1-3.09.77-6.52,3.65-7.69,2.53-1,6,.11,7.55-2.56,1.72,3.82,6.85,1,9.39,4.53,1.2,1.67,1.18,3.09,2,6.15,2.4-2.15,2.27-8.18.72-10.49C83.85,85.47,79,86.35,74,86.32Z"/></g></g></svg>