<svg xmlns="http://www.w3.org/2000/svg" xmlns:xlink="http://www.w3.org/1999/xlink" viewBox="0 0 145.36 146.01"><defs><style>.cls-1{fill:none;}.cls-2{fill:#7e6052;}.cls-3{fill:#e2bf9c;}.cls-4{fill:#f2d1ac;}.cls-5{clip-path:url(#clip-path);}.cls-6{fill:#c09a80;}.cls-7{fill:#d3a789;}.cls-8{fill:#e0b89b;}.cls-9{fill:#231f20;}.cls-10{fill:#f6f0d7;}.cls-11{fill:#867096;}</style><clipPath id="clip-path"><rect class="cls-1" x="68.66" y="98.54" width="17.49" height="10.34"/></clipPath></defs><title>Asset 156</title><g id="Layer_2" data-name="Layer 2"><g id="Layer_1-2" data-name="Layer 1"><rect class="cls-2" width="145.36" height="145.95"/><path class="cls-3" d="M77.36,87.93V146H45.79l-.77-.34c0-31.14,19.32-33.46,19.32-33.46,1.93,0,3.16-2.48,4-6.24.13-.59.24-1.19.33-1.83.17-1,.33-2.18.44-3.35.07-.71.14-1.42.19-2.15.3-3.57.39-7.45.39-11.12,0,0,4.24.42,7.68.42"/><path class="cls-4" d="M109.81,145.66s-.29.11-.75.34H77.36V87.93h.06c3.44,0,7.71-.42,7.71-.42,0,3.65.09,7.48.37,11,.07.71.13,1.42.2,2.1.14,1.22.27,2.37.45,3.45v0c.06.5.15.93.24,1.37.82,4,2.1,6.72,4.1,6.72,0,0,19.32,2.32,19.32,33.46"/><g class="cls-5"><path class="cls-6" d="M86.15,104.09v0a10.2,10.2,0,0,1-8.75,4.77h0a11,11,0,0,1-8.7-4.75c.17-1,.33-2.18.44-3.35.07-.71.14-1.42.19-2.15a34.68,34.68,0,0,0,8,1h.09a32.72,32.72,0,0,0,8.14-1.12c.07.71.13,1.42.2,2.1.14,1.22.27,2.37.45,3.45"/></g><path class="cls-7" d="M77.45,21.33c-33.44,0-33.63,28-32.14,46.32-2.3-4.35-9.08-3-8.52,3.84.54,6.59,10.12,10,10,9.22C49.51,95.8,65.25,104.5,77.45,104.5h.26V21.34h-.26"/><path class="cls-6" d="M38.93,68.6a3.17,3.17,0,0,1,4.83-.93,2.78,2.78,0,0,1,.77,3c-.23.88-1.16,1-.92,2.28a2.28,2.28,0,0,0,1.33,1.93c.39.35.89.61,1.12,1.24a3.26,3.26,0,0,1,.15,1.89c-.25,1.08-1.82.22-2.87-.26A19.37,19.37,0,0,1,39.88,75c-1.42-1.58-2.06-4.63-1-6.38"/><path class="cls-8" d="M77.62,21.33c33.43,0,33.62,28,32.13,46.32,2.3-4.35,9.08-3,8.53,3.84-.54,6.59-10.12,10-10,9.22C105.55,95.8,89.81,104.5,77.62,104.5h-.26V21.34h.26"/><path class="cls-6" d="M116.14,68.6a3.17,3.17,0,0,0-4.83-.93,2.77,2.77,0,0,0-.78,3c.24.88,1.16,1,.93,2.28a2.28,2.28,0,0,1-1.34,1.93A3.34,3.34,0,0,0,109,76.16a3.43,3.43,0,0,0-.14,1.89c.25,1.08,1.83.22,2.89-.26A20.43,20.43,0,0,0,115.19,75c1.41-1.58,2-4.63,1-6.38"/><path class="cls-9" d="M77.37,26.23c-11,0-19.05,3.2-23.93,9.5-6.81,8.81-6.55,22.26-4,31.93.76,3,1.16,10.9,1.7,13.82,2.36,13.06,16.78,20,26.27,20h.26V26.24h-.26"/><path class="cls-9" d="M101.25,35.74c-4.84-6.26-12.8-9.45-23.62-9.5v75.25c10.83-.12,23.78-7.74,26-20,.53-2.92.92-10.87,1.69-13.82,2.5-9.64,2.75-23.08-4.08-31.92"/><path class="cls-10" d="M92.37,130.58c.13,1.83-5.58,10.13-9.75,15.43H72.22c-4.19-5.29-9.88-13.6-9.77-15.45.11-1.6,0-16.64,1-17.91h0L77.41,127.8l13.08-15.6s1,.76,1.58,1.37c.22.22-1.57,12.52-1.37,12.75a7.06,7.06,0,0,1,1.67,4.26"/><path class="cls-9" d="M72.1,146H45.78c-.48-.19-.75-.33-.75-.33,0-1.7.07-3.32.18-4.87a46.7,46.7,0,0,1,.71-5.8,45.66,45.66,0,0,1,1.43-5.83c.13-.37.27-.73.4-1.08a33.37,33.37,0,0,1,2.15-4.71,25.18,25.18,0,0,1,3.65-5c.26-.29.53-.58.8-.85a20.66,20.66,0,0,1,9.19-5.2,2.64,2.64,0,0,1-.07.3,28.44,28.44,0,0,0,0,9.81c0,.14,0,.27,0,.41,0,.29.07.55.14.85a.55.55,0,0,0,0,.18c.05.28.12.58.18.87a43.24,43.24,0,0,0,1.93,7.11c.69,1.85,1.83,4.49,3.16,7.4.23.52.47,1,.69,1.52.14.27.25.54.38.8.33.68.69,1.39,1,2.12a6.79,6.79,0,0,1,.32.67l.08.16c.25.48.47.94.66,1.39a.06.06,0,0,1,0,.06"/><path class="cls-11" d="M76.19,146H70c-.28-.29-.53-.55-.76-.81C56.49,131.83,54.52,122,54.52,122l5.25-2.32-3.23-2.1s1.26-1.41,3.52-3.51a21,21,0,0,1,2.58-1.88,15.53,15.53,0,0,1,4.14-1.75c-.14.16-1.47,1.45-1.12,9.53,0,.54.07,1.06.16,1.61a3.13,3.13,0,0,0,.05.36c0,.28.09.52.16.79a.58.58,0,0,0,0,.18c0,.27.1.53.17.8a68,68,0,0,0,5.24,13.39c.37.73.74,1.42,1.1,2.13.44.87.91,1.75,1.35,2.6.28.47.52,1,.78,1.42s.56,1,.85,1.56.43.82.65,1.22"/><path class="cls-9" d="M82.74,146h26.32c.48-.19.75-.33.75-.33,0-1.7-.07-3.32-.18-4.87a44.88,44.88,0,0,0-.71-5.8,45.66,45.66,0,0,0-1.43-5.83c-.14-.37-.27-.73-.41-1.08a32.28,32.28,0,0,0-2.15-4.71,24.77,24.77,0,0,0-3.64-5c-.26-.29-.53-.58-.8-.85a20.71,20.71,0,0,0-9.19-5.2,2.64,2.64,0,0,0,.07.3,28.69,28.69,0,0,1,0,9.81c0,.14,0,.27,0,.41,0,.29-.08.55-.14.85a.38.38,0,0,1,0,.18c0,.28-.11.58-.18.87a43.22,43.22,0,0,1-1.92,7.11c-.69,1.85-1.84,4.49-3.17,7.4-.22.52-.46,1-.68,1.52-.14.27-.25.54-.37.8-.34.68-.69,1.39-1,2.12-.1.23-.21.44-.3.67a.68.68,0,0,0-.09.16c-.25.48-.46.94-.67,1.39a.07.07,0,0,0,0,.06"/><path class="cls-11" d="M78.85,146H85l.76-.81C98.37,131.83,100.32,122,100.32,122l-5.21-2.32,3.21-2.1s-1.25-1.41-3.49-3.51a21.17,21.17,0,0,0-2.55-1.88,11.54,11.54,0,0,0-4.06-1.46c.15.17,1.41,1.16,1.06,9.24,0,.54-.07,1.06-.14,1.61,0,.14,0,.25-.07.36,0,.28-.09.52-.15.79a.58.58,0,0,1,0,.18c-.05.27-.11.53-.17.8a68.93,68.93,0,0,1-5.19,13.39c-.36.73-.73,1.42-1.09,2.13-.43.87-.92,1.75-1.34,2.6-.27.47-.51,1-.77,1.42s-.56,1-.84,1.56-.43.82-.65,1.22"/><path class="cls-10" d="M87.16,84.91c-7.32,11.72-17.64,1.63-17.64,1.63a14.44,14.44,0,0,1-2.91-5.09A3.82,3.82,0,0,0,63.9,82C64.44,88.42,72,96.46,78,96.3c6.14-.07,13-8.49,13.6-14.34a4,4,0,0,0-2.77-.51A17.45,17.45,0,0,1,87.16,84.91Z"/><path class="cls-10" d="M58.47,74.53c5.33,1.73,10.44,3.74,12.39,8.55v1.86h2.49V83H74v1.91h2.45V83l.42,0v2h2.46V82.85l.43-.08v2.17h2.44V82.72h.61v2.22h1.35V82.7h0c2.39-4.45,7.46-6.44,12.78-8.17,0-10.15,5-11.9,5.94-19.81,3.38-32.15-59.24-30.85-50.45,4C53.91,64.11,58.6,66.7,58.47,74.53ZM87.89,51.41c3.69,0,6.64,2.52,6.64,5.65s-3,5.72-6.64,5.72-6.72-2.57-6.72-5.72S84.19,51.41,87.89,51.41ZM82.09,72.7c-2.62,5.9-8.49.1-8.59-1.86-.11-1.8,2.13-7.14,3.87-6.33C79.67,65.53,85.86,64.28,82.09,72.7ZM67.45,52.58c3.63,0,6.65,2.52,6.65,5.68s-3,5.67-6.65,5.67-6.71-2.52-6.71-5.67S63.69,52.58,67.45,52.58Z"/></g></g></svg>