<svg xmlns="http://www.w3.org/2000/svg" viewBox="0 0 145.36 145.95"><defs><style>.cls-1{fill:#5ea7af;}.cls-2{fill:#e1bf9c;}.cls-3{fill:#f2d1ac;}.cls-4,.cls-6{fill:#c09a80;}.cls-4{opacity:0.7;}.cls-5{fill:#d3a789;}.cls-7{fill:#e0b89b;}.cls-8{fill:#c6696e;}.cls-9{fill:#d87373;}.cls-10{fill:#9a1b1f;}.cls-11{fill:#0d0d0d;}</style></defs><title>Asset 179</title><g id="Layer_2" data-name="Layer 2"><g id="Layer_1-2" data-name="Layer 1"><rect class="cls-1" width="145.36" height="145.95"/><path class="cls-2" d="M75.09,91.52V146H45.5l-.73-.31c0-29.2,18.12-31.38,18.12-31.38H63a1.29,1.29,0,0,0,.39-.08c1.5-.41,2.52-2.61,3.2-5.76.13-.55.23-1.11.32-1.71.16-1,.31-2,.41-3.15q.09-1,.18-2c.27-3.34.36-7,.36-10.42C67.89,91.13,71.87,91.52,75.09,91.52Z"/><path class="cls-3" d="M105.51,145.64a7.71,7.71,0,0,0-.71.31H75.09V91.52h.06c3.22,0,7.22-.39,7.22-.39,0,3.42.08,7,.35,10.33.06.67.13,1.33.19,2,.12,1.13.25,2.22.41,3.23v0c.07.46.15.87.24,1.29.61,3,1.53,5.29,2.86,6a1.88,1.88,0,0,0,.3.12,1.76,1.76,0,0,0,.67.12S105.51,116.44,105.51,145.64Z"/><path class="cls-4" d="M83.32,106.68v0a9.55,9.55,0,0,1-8.2,4.46h0a10.36,10.36,0,0,1-8.16-4.44c.16-1,.31-2.06.41-3.15.06-.67.13-1.33.19-2a32.43,32.43,0,0,0,7.47,1h.09a30.82,30.82,0,0,0,7.63-1.06c.06.66.12,1.33.19,2C83,104.58,83.15,105.66,83.32,106.68Z"/><path class="cls-5" d="M75.06,33C44.18,33,44,57.8,45.38,74c-2.12-3.79-8.39-2.38-7.87,3.69.49,5.83,9.34,8.47,9.22,7.83C49.25,98.68,63.81,106,75.06,107h.24v-74Z"/><path class="cls-6" d="M39.05,75.1a3.06,3.06,0,0,1,4.53-.81A2.37,2.37,0,0,1,44.32,77c-.23.79-1.09.85-.87,2a2.09,2.09,0,0,0,1.25,1.72,2.88,2.88,0,0,1,1.06,1.1,2.8,2.8,0,0,1,.13,1.68c-.23,1-1.71.19-2.7-.23A19.09,19.09,0,0,1,40,80.79C38.63,79.38,38,76.67,39.05,75.1Z"/><path class="cls-7" d="M75.21,33C106.09,33,106.27,57.8,104.9,74c2.12-3.79,8.38-2.38,7.87,3.69-.5,5.83-9.35,8.47-9.22,7.83C101,98.68,86.47,106,75.21,107H75v-74Z"/><path class="cls-6" d="M111.44,75.1a3.06,3.06,0,0,0-4.53-.81,2.37,2.37,0,0,0-.74,2.69c.23.79,1.09.85.88,2a2.07,2.07,0,0,1-1.26,1.72,2.86,2.86,0,0,0-1.05,1.1,2.8,2.8,0,0,0-.14,1.68c.24,1,1.72.19,2.7-.23a19.09,19.09,0,0,0,3.24-2.5C111.86,79.38,112.47,76.67,111.44,75.1Z"/><path class="cls-2" d="M74.9,40.07c-10.31,0-17.86,2.84-22.43,8.46-6.38,7.83-6.14,19.81-3.78,28.4.71,2.63,1.08,9.71,1.58,12.31C52.5,100.87,66,107.06,74.9,107.06h.24v-67Z"/><path class="cls-3" d="M97.28,48.54c-4.53-5.58-12-8.42-22.14-8.46v67c10.15-.1,22.29-6.89,24.38-17.81.5-2.6.87-9.68,1.59-12.31C103.45,68.36,103.68,56.4,97.28,48.54Z"/><path class="cls-8" d="M80.33,96.55S78,99,75.12,99a7.77,7.77,0,0,1-5.07-2.44,33.94,33.94,0,0,1,5.07-.37A42.71,42.71,0,0,1,80.33,96.55Z"/><path class="cls-9" d="M76.6,95.4a1.35,1.35,0,0,0-1.48,1.13,1.34,1.34,0,0,0-1.47-1.13,20.86,20.86,0,0,0-3.73,1.15s2.85.3,3.66.3,1.53.32,1.54-.28c0,.61.6.37,1.41.37s3.8-.39,3.8-.39A20.86,20.86,0,0,0,76.6,95.4Z"/><path class="cls-10" d="M96.36,44.25C93.64,49,94.4,54.46,85.17,58S71.8,62.54,61.74,66.83C38.93,76.54,50.64,99,50.64,99s-6.25-5.78-8.51-11.81-11-32.29,0-53c6-11.39,17.23-14,27.06-14.78s16.83,0,23.93,6.22c1.55,1.34,6,1.65,10.86,4.93,10.89,7.33,10,18.13,10.47,25a49.67,49.67,0,0,1-2.82,21.13c-2.12,6-14.95,23.83-14.95,23.83s10-21.75,4.43-35.89c-3.25-8.27-9-7.8-9.3-11S96.36,44.25,96.36,44.25Z"/><path class="cls-11" d="M93,132.82c-4.53-3-4.7-6.93-4.7-9.71h0a.14.14,0,0,0,0-.06c0-.46,2-8,2-8a24.57,24.57,0,0,0-3.12-.91c-2,1.14-2.09,7.61-2.09,7.61v0c-.33,2.4-.67,6.79-1.11,8-4.72,12.88-13.21,13.13-17.77,0a70.75,70.75,0,0,1-1.08-7.27h0s-.25-8.59-1.72-8.36a32.33,32.33,0,0,0-4.32,1.29c2,1.64,2.68,6.87,2.77,7.63h0c0,2.78-.17,6.7-4.69,9.71C48.47,138.6,51,144,52.42,145.93H97.78C99.21,144,101.72,138.6,93,132.82Z"/></g></g></svg>