<svg xmlns="http://www.w3.org/2000/svg" viewBox="0 0 145.36 148.47"><defs><style>.cls-1{fill:#ee837c;}.cls-2{fill:#f6f0d7;}.cls-3{fill:#e1bf9c;}.cls-4{fill:#f2d1ac;}.cls-5,.cls-7{fill:#c09a80;}.cls-5{opacity:0.7;}.cls-6{fill:#d3a789;}.cls-8{fill:#e0b89b;}.cls-9{fill:#7271b5;}.cls-10{fill:#633719;}.cls-11{fill:#293117;}.cls-12{fill:#8967ac;}.cls-13{fill:none;}.cls-14{fill:#ed1c24;}.cls-15{fill:#070707;}.cls-16{fill:#0d0d0d;}.cls-17{fill:#31b44a;}.cls-18{fill:#515251;}</style></defs><title>Asset 195</title><g id="Layer_2" data-name="Layer 2"><g id="Layer_1-2" data-name="Layer 1"><rect class="cls-1" width="145.36" height="145.95"/><path class="cls-2" d="M106,82.43s-1.85-2.33-.75-17.26a62.78,62.78,0,0,0-1.18-16.25c.11.43-10.66,21.77-10.66,21.77-.38,6-.68,11.78-.75,15.83l-1.81-3.09a63.63,63.63,0,0,0-1.75,7.11c0,.11,0,.23,0,.34l-5.81-5.79s0,3.32.3,6.46L80.07,88s0,8.55,1.21,11.22c1.32,3,.13,11.34.13,11.34A24.81,24.81,0,0,0,85,104.42c-.15,1.84-.34,3.23-.34,3.23a26.15,26.15,0,0,0,4.63-9.37c.08,1.28.15,2.57.17,3.84a25.11,25.11,0,0,1-1.43,8,35.18,35.18,0,0,0,4.83-11.42c.32,5.23,1.07,9,2.65,11.06-.21-.36-1-2.07-.81-6.51.08-2,.27-4.16.51-6.32a17.19,17.19,0,0,0,4.86,8.76,29.41,29.41,0,0,1-1.88-14c.18-1.56.32-2.93.44-4.16a42.2,42.2,0,0,0,.82,7.09,27,27,0,0,0,4,10s-2.61-5.78-.22-21.45a28.81,28.81,0,0,0,.12-4.82C104.85,81.91,106,82.43,106,82.43Z"/><path class="cls-2" d="M42.24,81.55s1.85-2.33.75-17.25A62.87,62.87,0,0,1,44.17,48c-.11.44,10.66,21.77,10.66,21.77.37,6,.68,11.79.75,15.83l1.8-3.09a63,63,0,0,1,1.76,7.11c0,.11,0,.23,0,.35L65,84.21s0,3.32-.31,6.46l3.53-3.51s0,8.55-1.21,11.22c-1.32,3-.13,11.34-.13,11.34a24.51,24.51,0,0,1-3.56-6.18c.14,1.84.34,3.23.34,3.23A26,26,0,0,1,59,97.4c-.08,1.29-.15,2.57-.17,3.85a25.09,25.09,0,0,0,1.43,8A34.93,34.93,0,0,1,55.44,97.8c-.32,5.22-1.07,9-2.65,11,.21-.36,1-2.07.81-6.51-.08-2-.27-4.15-.51-6.32a17.22,17.22,0,0,1-4.85,8.76,29.48,29.48,0,0,0,1.87-14c-.18-1.56-.32-2.93-.44-4.15a41.27,41.27,0,0,1-.83,7.08,26.87,26.87,0,0,1-4,10S47.42,98,45,82.31a28.68,28.68,0,0,1-.12-4.81C43.42,81,42.24,81.55,42.24,81.55Z"/><path class="cls-3" d="M74,89.26v57H43l-.76-.32c0-30.57,19-32.85,19-32.85,1.43,0,2.49-1.41,3.25-3.72a24.12,24.12,0,0,0,.66-2.41c.12-.56.23-1.15.32-1.78.18-1,.33-2.15.43-3.3.07-.7.13-1.39.2-2.11.28-3.49.37-7.3.37-10.9C66.44,88.85,70.61,89.26,74,89.26Z"/><path class="cls-4" d="M105.83,145.92s-.29.11-.74.32H74v-57H74c3.37,0,7.56-.41,7.56-.41,0,3.58.09,7.34.37,10.82.07.69.13,1.39.2,2.06.13,1.2.26,2.32.43,3.39v0c.07.48.16.91.24,1.35a22.13,22.13,0,0,0,.76,2.88c.79,2.31,1.85,3.7,3.26,3.7C86.86,113.07,105.83,115.35,105.83,145.92Z"/><path class="cls-5" d="M82.6,105.13v0A10,10,0,0,1,74,109.82h0a10.8,10.8,0,0,1-8.53-4.65c.17-1,.32-2.15.43-3.3.07-.7.13-1.39.2-2.1a34.32,34.32,0,0,0,7.82,1H74a32.2,32.2,0,0,0,8-1.1c.07.69.13,1.39.2,2.06C82.3,102.94,82.43,104.06,82.6,105.13Z"/><path class="cls-6" d="M74.06,23.91c-32.81,0-33,27.47-31.54,45.45-2.25-4.26-8.9-2.94-8.36,3.77.53,6.46,9.93,9.81,9.8,9.06,2.69,14.8,18.13,23.34,30.1,23.34h.26V23.92Z"/><path class="cls-7" d="M36.26,70.29a3.09,3.09,0,0,1,4.73-.9,2.7,2.7,0,0,1,.77,3c-.23.86-1.13.92-.91,2.24a2.31,2.31,0,0,0,1.31,1.9,3.05,3.05,0,0,1,1.11,1.21,3.29,3.29,0,0,1,.14,1.85c-.25,1.06-1.79.22-2.82-.25a20,20,0,0,1-3.4-2.76C35.81,75,35.17,72,36.26,70.29Z"/><path class="cls-8" d="M74.23,23.91c32.81,0,33,27.47,31.54,45.45,2.25-4.26,8.91-2.94,8.36,3.77-.52,6.46-9.93,9.81-9.8,9.06-2.69,14.8-18.13,23.34-30.1,23.34H74V23.92Z"/><path class="cls-7" d="M112,70.29a3.1,3.1,0,0,0-4.74-.9,2.7,2.7,0,0,0-.77,3c.23.86,1.14.92.91,2.24a2.31,2.31,0,0,1-1.31,1.9A3.05,3.05,0,0,0,105,77.72a3.21,3.21,0,0,0-.14,1.85c.25,1.06,1.79.22,2.83-.25a20.29,20.29,0,0,0,3.39-2.76C112.48,75,113.12,72,112,70.29Z"/><path class="cls-3" d="M73.78,31.66c-10.8,0-18.7,3.13-23.49,9.32-6.67,8.64-6.42,21.85-3.95,31.33.75,2.9,1.13,10.7,1.66,13.57,2.32,12.82,16.47,19.65,25.78,19.65H74V31.67Z"/><path class="cls-4" d="M97.21,41C92.47,34.85,84.65,31.71,74,31.67v73.85c10.63-.12,23.35-7.6,25.53-19.64.52-2.86.9-10.67,1.66-13.57C103.68,62.86,103.92,49.67,97.21,41Z"/><path class="cls-9" d="M83.25,117.85l-.32,28.39H64.74l-.21-28.83a35.7,35.7,0,0,0,10.06,1.7A31.83,31.83,0,0,0,83.25,117.85Z"/><path class="cls-2" d="M91.35,18.49c-2.72-1.67-6.24-.06-7.43.2s-4.52-.3-5.71-2.38a6.87,6.87,0,0,1-1.16-3.12,6.89,6.89,0,0,0,1.06,5.87,3.67,3.67,0,0,0,3.54,1.55S78.4,17,71.42,19.1s-11.85,5.11-15.85,4.51S48,19.72,48,19.72a23.94,23.94,0,0,0,3.52,4.61c3,2.57,4.79,1,4.79,1s-5.2-1.78-12.61,5.49-9.2,15.27-10.09,19.73S33,58.74,31.21,62A29.79,29.79,0,0,1,26,68.38l8.61-6.09a28.08,28.08,0,0,1-2.82,8.17C29.88,73.57,28,77,26.91,77.72s14.79-13,15.24-9a27.51,27.51,0,0,0,2.56,9,16.74,16.74,0,0,0,3.56,5.29s-3.16-4.44-2.81-13.2c.14-3.72,2.81-12.46,2.81-12.46S46,63.26,46,66.52s.48,8.31,2.85,11.87A20.29,20.29,0,0,0,55.1,84.1a23.09,23.09,0,0,1,2-25.39c2-2.6,7.7-7,11.55-8.74s7.36-4,9.58-7.7S72.52,49.12,69.57,52c-6.61,6.33-8.24,13.3-8.39,17.46,0,0,1.58-7.41,11.28-11.87,4.11-1.89,12.33-4.92,15.21-6.59a17.79,17.79,0,0,0,9-16.26s-2.12,7.55-4.34,11.55-4,8.92-4.7,10.26c-3.59,6.64-8.46,8.16-8.46,8.16s3.25-.39,8.72-3.39c12.23-6.7,8.78-15.16,8.78-15.16S94,55.33,94.73,62A35.45,35.45,0,0,0,99,76.12c1.93,3.57,7.43,6.8,7.43,6.8s-5.46-4.24-5.34-13.8c.06-4.55,2.68-10.24,2.68-10.24s-.88,3.71,1,6.38a21.37,21.37,0,0,0,6.27,6c6,3.57,10.63,1.57,10.63,1.57s-5.28.41-7.24-3c-1.2-2.07-.06-4-2.7-10.06a11.45,11.45,0,0,0-2.07-2s2.43,5.22,6.38,6.08c1.48.32,5.32-.43,5.32-.43s-5.5-.14-5.57-6.25c0-3.28-4.2-6.23-4.2-7.71s.29-6.83-.59-9.5-2.58-8.63-7-13.64c-.81-.93-4.25-5-4.25-2.49a17.58,17.58,0,0,0,.69,4.71,20,20,0,0,1-.59-4.2c0-1.93.59-4-1.19-4.6s-2.49-1.61-4.89,1.33c-2.25,2.76-1.34,1.39-1.34,1.39A3,3,0,0,0,91.35,18.49Z"/><path class="cls-2" d="M99.22,61.64c2.42,6.89,4,7.82,3.58,15a25,25,0,0,1-4.34,12.78,19.56,19.56,0,0,0,7.59-12.29c.79-4,1.7-10.59.54-14.64s-2.71-9.44-2.71-9.44Z"/><path class="cls-10" d="M96.09,33.4s.08.81.12,2.23a20.69,20.69,0,0,1-.2,2.59,13.77,13.77,0,0,1-.86,3.28,15.78,15.78,0,0,1-1.92,3.57,17.08,17.08,0,0,1-3.07,3.32,34.79,34.79,0,0,1-8.27,5.06c-3,1.35-6,2.54-8.61,3.95a37.77,37.77,0,0,0-6.91,4.36A23.26,23.26,0,0,0,64,64a12.59,12.59,0,0,0-1.56,2,9.32,9.32,0,0,0-.83,1.41c-.18.33-.27.51-.27.51a13.87,13.87,0,0,1,.85-2.07,13.54,13.54,0,0,1,1.39-2.18,16.42,16.42,0,0,1,2.26-2.5,38.11,38.11,0,0,1,6.82-4.93c2.66-1.53,5.69-2.87,8.59-4.2a40.67,40.67,0,0,0,8-4.73,19.24,19.24,0,0,0,3-2.95,14.33,14.33,0,0,0,2-3.18,17.39,17.39,0,0,0,1.1-3,19.15,19.15,0,0,0,.51-2.47C96,34.21,96.09,33.4,96.09,33.4Z"/><path class="cls-10" d="M77.52,43.36,76,44.8a41.4,41.4,0,0,1-4.7,3.08c-2,1.13-4.36,2.45-6.78,3.95-.6.38-1.2.78-1.81,1.18l-1.76,1.32a17.51,17.51,0,0,0-1.67,1.45,11.08,11.08,0,0,0-1.55,1.59,16.09,16.09,0,0,0-1.4,1.71c-.41.62-.8,1.23-1.2,1.85s-.59,1.31-.91,2a8.08,8.08,0,0,0-.73,2c-.19.67-.37,1.33-.55,2a19.63,19.63,0,0,0-.3,2c-.08.65-.16,1.27-.24,1.88s0,1.2,0,1.77c0,1.13-.05,2.19,0,3.11s.18,1.74.25,2.41l.19,2.11L52.32,78l-.54-2.39a29,29,0,0,1-.35-3.16c0-.59-.12-1.19-.12-1.82s.07-1.29.11-2a18.79,18.79,0,0,1,.17-2.08c.16-.69.32-1.41.48-2.13a9.11,9.11,0,0,1,.71-2.16,19.3,19.3,0,0,1,.94-2.14q.62-1,1.26-2a17.7,17.7,0,0,1,1.49-1.87,12.12,12.12,0,0,1,1.68-1.68A18.33,18.33,0,0,1,60,53.09l1.88-1.34,1.91-1.15c2.54-1.45,5-2.54,7.09-3.53l2.83-1.36,2.11-1.16Z"/><path class="cls-10" d="M97.72,43.36s0,.47.06,1.31a13,13,0,0,1,0,1.52,15,15,0,0,1-.17,2,15.45,15.45,0,0,1-.49,2.31,14.62,14.62,0,0,1-.92,2.5,13.84,13.84,0,0,1-1.45,2.48,18.75,18.75,0,0,1-1.93,2.26,23.7,23.7,0,0,1-2.26,1.88,24.84,24.84,0,0,1-2.38,1.51,33.9,33.9,0,0,1-4.48,2.08c-2.7,1-4.56,1.48-4.56,1.48s.41-.25,1.14-.66l3-1.67a40.44,40.44,0,0,0,8.39-5.78,17,17,0,0,0,1.79-2,15.57,15.57,0,0,0,1.44-2.19,18.69,18.69,0,0,0,1-2.24c.33-.73.5-1.47.73-2.12s.32-1.3.48-1.86a14.81,14.81,0,0,0,.3-1.47C97.61,43.83,97.72,43.36,97.72,43.36Z"/><polygon class="cls-11" points="73.53 148.32 73.55 148.41 73.55 148.32 73.53 148.32"/><polygon class="cls-11" points="73.55 148.41 73.57 148.47 73.6 148.32 73.55 148.32 73.55 148.41"/><path class="cls-12" d="M106,145.92s-.28.11-.74.32h-31l9-28.39.11-8.8c.13.61.26.3.42.59.78,2.3,1.87,3.43,3.28,3.43a15.52,15.52,0,0,1,4.73,1.63c4.8,2.45,11.78,8.47,13.71,23A59.22,59.22,0,0,1,106,145.92Z"/><path class="cls-12" d="M73.43,146.24H43l-.76-.32a59.6,59.6,0,0,1,.37-6.8c1.65-15.82,9.14-22.1,14.1-24.53a14.86,14.86,0,0,1,4.5-1.52c1.43,0,2.49-1.41,3.25-3.72l.07,8.06Z"/><polyline class="cls-13" points="107.87 146.24 105.28 146.24 102.7 146.24 82.93 146.24"/><path class="cls-14" d="M65.44,105s-.55.32.86,1.7,4.39,2.58,10.62,1.87c4.48-.51,5-.59,5.68-1.77.46-.82.06-1.25.06-1.25a2.33,2.33,0,0,1,1.8,2.71c-.28,2.31-.56,2.15.85,3.23a4.63,4.63,0,0,1,1.9,5.75c-1,3.22-10.11,19-15,22.37,0,0,2.11-4.44.84-7.82s-7.44-9.65-9.55-13.33-3.37-4.44-2.67-6,2.53-2.6,3.51-3.21-1-.91-.88-2.75c.06-1,.31-1.19,1.1-1.45S65.44,105,65.44,105Z"/><path class="cls-15" d="M69.74,77.13c0,5.28-5.74,10.49-12.32,10.49a19,19,0,0,1-3.19-.24,10.09,10.09,0,0,1-2.78-.76l-.05,0C47.6,85,47,81.5,47,77.7c0-5.26-2.28-9.52,11.19-9.52a44.9,44.9,0,0,1,4.93.24c3.65.41,5.35,1.35,6.11,2.67C70.09,72.63,69.74,74.72,69.74,77.13Z"/><path class="cls-15" d="M101.76,77.7c0,5.28-1.26,9.92-10.45,9.92A12.12,12.12,0,0,1,87.55,87,13.2,13.2,0,0,1,82,83.74a9.55,9.55,0,0,1-3-6.61c0-5.26-1.67-8.95,11.58-8.95a36.5,36.5,0,0,1,5.43.33h0c3.57.54,5,1.69,5.61,3.24S101.76,75.44,101.76,77.7Z"/><path class="cls-13" d="M62,68.87a32.75,32.75,0,0,0-3.7-.26,30,30,0,0,1,3.53.26c2,.25,6.54,1.22,7,2.88a12.1,12.1,0,0,1,.06,5.9c-1.6,7.35-7.42,9.07-11.8,9.15,4.4,0,10.35-1.7,12-9.15a12.1,12.1,0,0,0-.06-5.9C68.5,70.09,63.92,69.12,62,68.87Z"/><path class="cls-13" d="M79.73,77.65a12.1,12.1,0,0,1,.06-5.9c.46-1.66,5-2.63,7-2.88a30.2,30.2,0,0,1,3.54-.26,32.15,32.15,0,0,0-3.66.26c-2,.25-6.54,1.22-7,2.88a12,12,0,0,0-.07,5.9c1.62,7.43,7.53,9.11,11.93,9.15C87.16,86.73,81.33,85,79.73,77.65Z"/><path class="cls-16" d="M68.85,77.65c-1.61,7.35-7.41,9.06-11.8,9.15-.8,0-1.54,0-2.19-.09a13.84,13.84,0,0,1-2.22-.43,5.71,5.71,0,0,1-3.34-2.85,16.9,16.9,0,0,1-1.93-7.64c-.4-6.07,2.45-6.42,6.47-6.93a27.42,27.42,0,0,1,4.41-.24,30.43,30.43,0,0,1,3.54.25l.78.12c2.11.34,5.56,1.23,6.15,2.62a.52.52,0,0,1,.06.16A11.76,11.76,0,0,1,68.85,77.65Z"/><path class="cls-17" d="M74.17,69.77h.15a7.87,7.87,0,0,1-2.14-.2c-.79-.18-2.69-.85-4.64-1.38a40.12,40.12,0,0,0-4.42-.94,68.62,68.62,0,0,0-12-.21c-4.39.42-7.74.92-7.91,1.27s-.39,3.53,0,3.88,1.59,1,1.89,2.21,1.51,9.5,4.23,11.78c4.46,3.75,19.47,3.92,22.06-9.76.35-1.87.82-3,1.63-3.26a4,4,0,0,1,1.31-.22h-.15ZM69,77.65c-1.62,7.45-7.57,9.11-12,9.15a15.55,15.55,0,0,1-4.4-.53c-1.2-.37-4.72-1.76-5.28-10.48-.4-6.06,2.44-6.42,6.46-6.94a31.72,31.72,0,0,1,4.43-.24,32.75,32.75,0,0,1,3.7.26c2,.25,6.54,1.22,7,2.88A12.1,12.1,0,0,1,69,77.65Z"/><path class="cls-16" d="M101.26,75.79c-.56,8.73-4.08,10.12-5.28,10.49a16.05,16.05,0,0,1-4.45.52,15.57,15.57,0,0,1-3.37-.41,10.65,10.65,0,0,1-5.67-3.18,11.43,11.43,0,0,1-2.76-5.56,11.76,11.76,0,0,1,.07-5.88c.43-1.68,5-2.66,7-2.9a30.26,30.26,0,0,1,3.54-.25,28.45,28.45,0,0,1,4.48.24l.76.1c2.72.37,4.76.83,5.45,3.41A10.54,10.54,0,0,1,101.26,75.79Z"/><path class="cls-17" d="M105.4,68.31c-.16-.35-3.52-.85-7.9-1.27a68.71,68.71,0,0,0-12,.21,41.2,41.2,0,0,0-4.43.94c-1.94.53-3.83,1.2-4.63,1.38a7.83,7.83,0,0,1-2.13.2h-.15v3.16h.15a4.11,4.11,0,0,1,1.31.22c.8.3,1.27,1.39,1.63,3.26,2.58,13.68,17.59,13.51,22.06,9.76,2.71-2.28,3.93-10.62,4.23-11.78s1.54-1.86,1.89-2.21S105.53,68.57,105.4,68.31ZM79.61,77.65a12,12,0,0,1,.07-5.9c.45-1.66,5-2.63,7-2.88a32.15,32.15,0,0,1,3.66-.26,30.8,30.8,0,0,1,4.47.24c4,.52,6.86.88,6.47,6.94C100.7,84.51,97.19,85.9,96,86.27a15.54,15.54,0,0,1-4.45.53C87.14,86.76,81.23,85.08,79.61,77.65Z"/><path class="cls-18" d="M68.72,71.61,54.86,86.71a13.84,13.84,0,0,1-2.22-.43,5.71,5.71,0,0,1-3.34-2.85L62.57,69C64.68,69.33,68.13,70.22,68.72,71.61Z"/><path class="cls-18" d="M101,72.37l-12.86,14a10.65,10.65,0,0,1-5.67-3.18L95.57,69C98.29,69.33,100.33,69.79,101,72.37Z"/><path class="cls-2" d="M70.75,117.4a1.4,1.4,0,1,1-1.4-1.4A1.39,1.39,0,0,1,70.75,117.4Z"/><path class="cls-2" d="M80.84,123.17a1.4,1.4,0,1,1-1.4-1.4A1.4,1.4,0,0,1,80.84,123.17Z"/><path class="cls-2" d="M78.39,118.22a1.4,1.4,0,1,1-1.4-1.4A1.4,1.4,0,0,1,78.39,118.22Z"/><path class="cls-2" d="M77.48,128.8a1.4,1.4,0,1,1-1.4-1.4A1.4,1.4,0,0,1,77.48,128.8Z"/><path class="cls-2" d="M75.05,113.39a1.4,1.4,0,1,1-1.4-1.39A1.4,1.4,0,0,1,75.05,113.39Z"/><path class="cls-2" d="M82.23,113.39A1.4,1.4,0,1,1,80.84,112,1.39,1.39,0,0,1,82.23,113.39Z"/><path class="cls-2" d="M72.25,123.17a1.4,1.4,0,1,1-1.4-1.4A1.4,1.4,0,0,1,72.25,123.17Z"/><path class="cls-2" d="M86.05,117.54a1.4,1.4,0,1,1-1.4-1.4A1.39,1.39,0,0,1,86.05,117.54Z"/><path class="cls-2" d="M66.38,113.39A1.4,1.4,0,1,1,65,112,1.4,1.4,0,0,1,66.38,113.39Z"/></g></g></svg>