<svg xmlns="http://www.w3.org/2000/svg" xmlns:xlink="http://www.w3.org/1999/xlink" viewBox="0 0 145.36 145.95"><defs><style>.cls-1{fill:none;}.cls-2{fill:#7e6052;}.cls-3{fill:#e2bf9c;}.cls-4{fill:#f2d1ac;}.cls-5{clip-path:url(#clip-path);}.cls-6{fill:#c09a80;}.cls-7{fill:#d3a789;}.cls-8{fill:#e0b89b;}.cls-9{fill:#070808;}.cls-10{fill:#f9f9fa;}.cls-11{fill:#2e3084;}.cls-12{fill:#050606;}.cls-13{fill:#fff;}</style><clipPath id="clip-path"><rect class="cls-1" x="67.84" y="102.41" width="17.28" height="9.48"/></clipPath></defs><title>Asset 150</title><g id="Layer_2" data-name="Layer 2"><g id="Layer_1-2" data-name="Layer 1"><rect class="cls-2" width="145.36" height="145.95"/><path class="cls-3" d="M76.45,92.69V146H45.26a6.9,6.9,0,0,0-.8-.3c0-22,11.3-28.31,16.52-30.07a13.37,13.37,0,0,1,2.6-.65c1.91,0,3.12-2.26,4-5.71.12-.53.23-1.07.32-1.66.18-1,.31-2,.44-3.09,0-.65.13-1.3.2-2,.29-3.29.37-6.84.37-10.2,0,0,4.2.39,7.59.39"/><path class="cls-4" d="M108.52,145.65a4.77,4.77,0,0,0-.74.3H76.45V92.69h.07c3.39,0,7.61-.39,7.61-.39,0,3.36.06,6.87.37,10.12,0,.65.13,1.29.2,1.9.13,1.14.23,2.21.41,3.2v0c.09.44.16.84.27,1.25.8,3.66,2.07,6.14,4.05,6.14a16.09,16.09,0,0,1,3.93,1.14c5.6,2.37,15.16,9.36,15.16,29.58"/><g class="cls-5"><path class="cls-6" d="M85.12,107.51v0a10.24,10.24,0,0,1-8.63,4.36h0a11,11,0,0,1-8.59-4.34c.17-1,.32-2,.43-3.09.06-.65.13-1.3.19-2a38.73,38.73,0,0,0,7.88,1h.09a35.22,35.22,0,0,0,8-1c.06.64.13,1.29.2,1.92.13,1.13.26,2.18.43,3.18"/></g><path class="cls-7" d="M75.87,31.6c-33,0-33.23,25.67-31.76,42.47-2.27-4-9-2.75-8.43,3.52.54,6,10,9.18,9.87,8.47,2.72,13.83,18.26,21.82,30.32,21.82h.25V31.6h-.25"/><path class="cls-6" d="M37.8,74.94a3.27,3.27,0,0,1,4.77-.84,2.41,2.41,0,0,1,.77,2.78c-.23.81-1.14.87-.92,2.1a2.19,2.19,0,0,0,1.32,1.77c.39.31.88.55,1.12,1.14A2.9,2.9,0,0,1,45,83.62c-.26,1-1.82.2-2.85-.24a20.39,20.39,0,0,1-3.42-2.57c-1.39-1.46-2-4.25-.94-5.87"/><path class="cls-8" d="M76,31.6c33,0,33.23,25.67,31.76,42.47,2.27-4,9-2.75,8.42,3.52-.52,6-10,9.18-9.87,8.47-2.7,13.83-18.25,21.82-30.31,21.82h-.25V31.6H76"/><path class="cls-3" d="M76.24,38.83c-10.87,0-18.83,2.93-23.64,8.72-6.74,8.07-6.48,20.42-4,29.28.75,2.71,1.14,10,1.67,12.68,2.34,12,16.58,18.37,26,18.37h.25v-69h-.25"/><path class="cls-4" d="M99.84,47.56c-4.78-5.75-12.65-8.67-23.35-8.72v69c10.71-.11,23.51-7.1,25.71-18.36.52-2.67.92-10,1.67-12.68,2.48-8.83,2.72-21.16-4-29.27"/><path class="cls-9" d="M107.87,73.67A6.83,6.83,0,0,0,106,76.28c-1,2.52-1.42,2.09-1.42,2.09s1.62-9.88,1.62-12.62S96.91,49.12,91.74,47.49s-9.82,3.86-15.37,3.86h-.44c-5.45-.11-10.28-5.45-15.38-3.86S46.13,63,46.13,65.75s1.62,12.62,1.62,12.62-.39.43-1.42-2.09a6.88,6.88,0,0,0-2.28-2.9c-1.38-17.1-.59-42.3,31.83-42.3h.18c32.6,0,33.23,25.48,31.81,42.59"/><path class="cls-10" d="M108.52,145.65a4.77,4.77,0,0,0-.74.3H45.26a6.9,6.9,0,0,0-.8-.3c0-22,11.3-28.3,16.52-30.07,3,1.4,7.9,3.67,9.65,4.4,1.36.55,3.31,1.88,5.86,1.86,2.36,0,5.21-1.37,8.62-2.36a48.68,48.68,0,0,0,8.25-3.41c5.6,2.37,15.16,9.36,15.16,29.58"/><path class="cls-11" d="M101.54,146H51.45c.15-2.27.3-6.39.23-11.95V133c0-.38,0-.78-.06-1.21s0-.59-.07-.89c-.19-2.23-.59-4.88-1.07-7.64a22.29,22.29,0,0,1,4.6-4.72,2.6,2.6,0,0,1,.41-.31A20.78,20.78,0,0,1,61,115.29c.28-.1.55-.18.79-.25a13.14,13.14,0,0,1,1.83-.4,2.39,2.39,0,0,0,1.58-.61,0,0,0,0,1,0,0,5.73,5.73,0,0,0,.47-.5,1.18,1.18,0,0,1,.28.52c.59,1.45,6.49,5.71,10.56,9.42,4.07-3.71,10-8,10.57-9.42a1.06,1.06,0,0,1,.29-.52,4.41,4.41,0,0,0,.45.5,0,0,0,0,1,0,0,2.41,2.41,0,0,0,1.58.61,12.32,12.32,0,0,1,1.73.36l.79.27a20.61,20.61,0,0,1,5.53,2.86,4.54,4.54,0,0,1,.41.33,21.67,21.67,0,0,1,4.64,4.75c-.5,2.85-.9,5.54-1.07,7.79,0,.31-.06.61-.08.9s0,.61,0,.87v1c-.09,5.64.09,9.85.24,12.14"/><path class="cls-12" d="M83.17,85a30.49,30.49,0,0,0-3.59,0c-3.65.14-7.66.18-10.81.21-3.17,1-5.27,6.32-3,9.36,1.65-3.38,8,2.23,10.74-1.39,2.56,3.54,8.61-1.27,11.6,1.19C89.92,89.86,87.47,85.38,83.17,85Z"/><path class="cls-10" d="M92.56,137.9c-.79-2-4-1.63-5.93-2.27-2.77-.95-5-3.4-7.34-4.34,2.85-.93,5.17-2.44,8.55-2.93,1.34.52,2.65,1.93,4.65,1.14.78-1.58-.62-2.66-1.24-3.63a3.8,3.8,0,0,0-.22-3.43c-3,.07-4.4,2.7-6.59,3.87-2.57,1.37-5.51,2-8.33,3.41a38.22,38.22,0,0,0-8.8-3.65c-1.36-1.59-3.35-4.59-6.12-3.37-.11,2.49-.14,4.19-1.47,5.89,1.12,2.14,3.58.37,5.14-.23a30,30,0,0,1,8.32,3.17c-1.94.23-4.3,3.13-7.33,4.1-2.65.82-6.86.34-6.13,3.18.28,1,1.66,1.36,3.41,1.36a3.85,3.85,0,0,0,2.72,2c1.3-.59,1.84-1.92,2-3.62,2.77-1.92,5.18-4.12,8.55-5.45,2.64,1.87,6.22,2.93,8.09,5.45.92,1.27.77,3.09,2.67,3.62,0,0,4.23-.06,5.6-3.17C93,138.41,92.9,138.08,92.56,137.9Z"/><path class="cls-9" d="M50.88,68.13c-.56,4.68,5.07,11,10.75,11.58s11.6-3,12.16-7.65,1-8.64-4.25-10.54C60.37,58.22,51.44,63.45,50.88,68.13Z"/><path class="cls-9" d="M102.16,44.67S79.42,69.78,44.65,73L47,76.3s39.27-2,58.42-28.75A8.4,8.4,0,0,0,102.16,44.67Z"/><path class="cls-9" d="M113.58,78.42a5.69,5.69,0,1,0,6.12,5.68A5.9,5.9,0,0,0,113.58,78.42Zm0,9.34a3.68,3.68,0,1,1,4-3.66A3.82,3.82,0,0,1,113.58,87.76Z"/><path class="cls-6" d="M114.11,74.94a3.28,3.28,0,0,0-4.78-.84,2.44,2.44,0,0,0-.77,2.78c.23.81,1.14.87.92,2.1a2.19,2.19,0,0,1-1.32,1.77A2.92,2.92,0,0,0,107,81.89a2.82,2.82,0,0,0-.14,1.73c.25,1,1.8.2,2.85-.24a20.32,20.32,0,0,0,3.41-2.57c1.39-1.46,2-4.25,1-5.87"/><path class="cls-8" d="M107.47,86l2.65-1.1-.37-1.49a7.22,7.22,0,0,1-2.28.71c-.52-.11-.07,0-.07,0S106.83,85.83,107.47,86Z"/><path class="cls-13" d="M69.74,8.54s1.85,5.49,7.42,4.39c0,0,4.54-.73,2.89-6.78A34,34,0,0,1,95.11,17.52S107.28,36.39,117,33.28c0,0,1,9.9-8.25,20.53,0,0-14-20.35-35.27-17.78,0,0-19.39.36-28.47,19.06,0,0-6,9.35-12,2.38,0,0-6.19-6-3.72-12.83,0,0,8.67,1.48,18-11.54,0,0,5.36-6.79,11.35-16.32C58.6,16.78,64.17,8.54,69.74,8.54Z"/><path class="cls-12" d="M106.31,86.13c-1.25,1.8-4.43,2.14-6.86,4.66S85.81,97.6,85.81,97.6s-.23,3.72-6.93,3.74c-1.22,0-2.09-1.59-3.07-1.55h-.07c-1,0-1.84,1.55-3.07,1.55-6.68,0-6.92-3.74-6.92-3.74s-11.2-4.29-13.64-6.81-5.62-2.86-6.86-4.66c-.94-1.36,1.59,6.49,2.48,8.17s2.76,7.29,5,10.24a13.74,13.74,0,0,0,4.05,3.78c.81.7,0-3.37,0-3.37A48.22,48.22,0,0,0,61,110a56.33,56.33,0,0,0,13.39,6c.37.1.7.17,1,.23v.09l.16,0,.11,0v0h.07v0l.11,0,.18,0v-.09c.33-.06.67-.13,1.05-.23a56.41,56.41,0,0,0,13.38-6,46.62,46.62,0,0,0,4.25-5s-.81,4.07,0,3.37a13.37,13.37,0,0,0,4-3.78c2.24-3,4.13-8.55,5-10.24s3.41-9.53,2.47-8.17"/><path class="cls-9" d="M78,26.29c-1.33,2.18-3.22.3-3.22.3a2.69,2.69,0,0,1-.53-.94.68.68,0,0,0-.49.09c.09,1.2,1.48,2.69,2.57,2.66s2.36-1.57,2.48-2.66a.76.76,0,0,0-.51-.09A2.88,2.88,0,0,1,78,26.29Z"/><path class="cls-9" d="M72.78,24.37A3.25,3.25,0,0,1,75.05,26v.34h.45v-.35h.12v.35h.45v-.36h.08v.37h.45v-.38l.08,0v.4h.44v-.41h.11v.41h.25v-.41h0a3.69,3.69,0,0,1,2.33-1.51c0-1.89.92-2.21,1.08-3.68.62-6-10.81-5.73-9.21.73C72,22.43,72.81,22.91,72.78,24.37Zm5.38-4.3a1.07,1.07,0,1,1,0,2.12,1.07,1.07,0,1,1,0-2.12ZM77.1,24c-.48,1.09-1.55,0-1.57-.35s.39-1.32.71-1.17S77.79,22.46,77.1,24Zm-2.68-3.74a1.07,1.07,0,1,1-1.22,1.06A1.15,1.15,0,0,1,74.42,20.29Z"/><path class="cls-9" d="M82.91,32.37c-.32-.82-1.61-.67-2.4-.93-1.12-.38-2-1.37-3-1.75A18.49,18.49,0,0,1,81,28.5c.54.21,1.07.78,1.88.46.32-.64-.25-1.07-.5-1.47a1.54,1.54,0,0,0-.09-1.39c-1.22,0-1.78,1.1-2.67,1.57-1,.55-2.23.8-3.37,1.38a15.46,15.46,0,0,0-3.56-1.48c-.56-.64-1.36-1.86-2.48-1.36a3.72,3.72,0,0,1-.6,2.38c.46.87,1.45.15,2.08-.09a12.12,12.12,0,0,1,3.37,1.28c-.78.1-1.74,1.27-3,1.66-1.07.34-2.77.14-2.48,1.29.11.41.67.56,1.38.56a1.56,1.56,0,0,0,1.1.81,1.55,1.55,0,0,0,.79-1.47,17.49,17.49,0,0,1,3.47-2.2c1.07.75,2.52,1.18,3.27,2.2.38.52.32,1.26,1.08,1.47A2.65,2.65,0,0,0,83,32.82C83.1,32.57,83.05,32.44,82.91,32.37Z"/></g></g></svg>