<svg xmlns="http://www.w3.org/2000/svg" xmlns:xlink="http://www.w3.org/1999/xlink" viewBox="0 0 145.36 145.95"><defs><style>.cls-1{fill:#a2c15f;}.cls-2{fill:#e1bf9c;}.cls-3{fill:#f2d1ac;}.cls-4,.cls-6{fill:#c09a80;}.cls-4{opacity:0.7;}.cls-5{fill:#d3a789;}.cls-7{fill:#e0b89b;}.cls-8{fill:#514731;}.cls-9{fill:url(#New_Gradient_Swatch_3);}.cls-10{fill:#dedddd;}.cls-11{fill:#fff;}.cls-12{fill:url(#New_Gradient_Swatch_3-2);}</style><linearGradient id="New_Gradient_Swatch_3" x1="43.21" y1="50.81" x2="110.24" y2="50.81" gradientUnits="userSpaceOnUse"><stop offset="0" stop-color="#49331b"/><stop offset="0.29" stop-color="#442f18"/><stop offset="0.62" stop-color="#362210"/><stop offset="0.97" stop-color="#1f0c02"/><stop offset="1" stop-color="#1d0a00"/></linearGradient><linearGradient id="New_Gradient_Swatch_3-2" x1="45.7" y1="129.56" x2="107.06" y2="129.56" xlink:href="#New_Gradient_Swatch_3"/></defs><title>Asset 165</title><g id="Layer_2" data-name="Layer 2"><g id="Layer_1-2" data-name="Layer 1"><rect class="cls-1" width="145.36" height="145.95"/><path class="cls-2" d="M76.26,91.4v54.4H46.67l-.73-.29c0-20.23,8.7-27.49,14-30A14.73,14.73,0,0,1,64,114.13c1.82,0,3-2.32,3.75-5.85a15.66,15.66,0,0,0,.31-1.7c.17-1,.31-2,.42-3.15.06-.67.13-1.33.19-2,.26-3.34.35-7,.35-10.42C69.06,91,73,91.4,76.26,91.4Z"/><path class="cls-3" d="M106.68,145.51s-.28.1-.71.29H76.26V91.4h.06c3.22,0,7.22-.4,7.22-.4,0,3.42.08,7,.35,10.33.07.67.13,1.33.19,2,.12,1.15.25,2.22.41,3.24v0a12.31,12.31,0,0,0,.24,1.29c.74,3.75,2,6.28,3.83,6.28a16.12,16.12,0,0,1,5,1.83C99,118.91,106.68,126.44,106.68,145.51Z"/><path class="cls-4" d="M84.49,106.53v0a9.58,9.58,0,0,1-8.2,4.46h0a10.33,10.33,0,0,1-8.16-4.44c.17-1,.32-2,.42-3.15.06-.66.12-1.32.19-2a32.44,32.44,0,0,0,7.47,1h.08a30.23,30.23,0,0,0,7.63-1.06c.07.67.13,1.34.19,2C84.2,104.44,84.32,105.52,84.49,106.53Z"/><path class="cls-5" d="M76.06,29C44.72,29,44.54,55.2,45.94,72.37c-2.15-4.07-8.51-2.81-8,3.6.51,6.18,9.49,9.37,9.37,8.65,2.57,14.14,17.32,22.29,28.75,22.29h.24V29Z"/><path class="cls-6" d="M40.07,73.26a3,3,0,0,1,4.53-.86,2.59,2.59,0,0,1,.73,2.84c-.22.83-1.08.89-.87,2.14a2.21,2.21,0,0,0,1.25,1.82,2.9,2.9,0,0,1,1.06,1.15,3.2,3.2,0,0,1,.14,1.77c-.24,1-1.72.21-2.71-.24A19.26,19.26,0,0,1,41,79.25C39.64,77.77,39,74.91,40.07,73.26Z"/><path class="cls-7" d="M76.54,29c31.34,0,31.52,26.24,30.13,43.41,2.15-4.07,8.51-2.81,8,3.6-.5,6.18-9.48,9.37-9.36,8.65C102.72,98.76,88,106.91,76.54,106.91H76.3V29Z"/><path class="cls-6" d="M112.65,73.26a3,3,0,0,0-4.52-.87,2.6,2.6,0,0,0-.74,2.85c.22.82,1.09.89.88,2.14A2.23,2.23,0,0,1,107,79.2,2.9,2.9,0,0,0,106,80.35a3.11,3.11,0,0,0-.13,1.77c.23,1,1.71.21,2.7-.24a18.56,18.56,0,0,0,3.24-2.64C113.08,77.76,113.69,74.9,112.65,73.26Z"/><path class="cls-2" d="M76.11,36.36c-10.31,0-17.86,3-22.43,8.91-6.38,8.25-6.14,20.86-3.78,29.92.72,2.76,1.08,10.22,1.58,13,2.23,12.24,15.73,18.76,24.63,18.76h.24V36.36Z"/><path class="cls-3" d="M98.44,45.28c-4.53-5.87-12-8.87-22.14-8.92V106.9c10.16-.11,22.3-7.25,24.39-18.75.49-2.74.86-10.2,1.58-13C104.61,66.16,104.85,53.56,98.44,45.28Z"/><path class="cls-8" d="M49.42,39.7C51.26,35.81,58.93,19.38,67.84,21c5.53,1,4,1,11.48,1.35s17-5,22.09,4.49c4.53,8.54,6.72,21.47,1.37,21.76C60.43,50.81,49.42,39.7,49.42,39.7Z"/><path class="cls-9" d="M43.21,54.94s3.36-9.42,4.26-11.89a22.28,22.28,0,0,1,2.42-4.6s3.8,5.76,30.64,6.76c17.25.65,25.46-3.73,25.46-3.73s2.24,7.85,3.13,11a37.06,37.06,0,0,1,1.12,6.86S96.34,64,74,63.06C51.4,62.14,43.21,54.94,43.21,54.94Z"/><path class="cls-10" d="M106.72,145.48s-.27.11-.71.32H46.71l-.73-.32c0-27.44,15.5-31.41,17.83-31.82,1.22,1.37,2.89,3.09,4.59,4.79,3.64,3.59,7.51,7.12,7.51,7.12s4.33-3.68,8.11-6.95a.07.07,0,0,1,0,0C85.55,117.27,87,116,88,115.07a4.85,4.85,0,0,0,.52-.48c.4-.37.71-.66.87-.85h0a13.94,13.94,0,0,1,2.31.77,5.45,5.45,0,0,1,.51.23,19.43,19.43,0,0,1,3.57,2.11c.19.15.35.27.52.42C101.24,121.15,106.72,129.16,106.72,145.48Z"/><path class="cls-11" d="M87.84,109.57c.26.2,3.18,6.47,3.71,7.77s0,5.1,0,5.1-.4-2-1.57-2.58-3.63-.82-4.61-.34-5.58,4.08-6.43,4.7a4.65,4.65,0,0,0-1.68,1.94V145.8h-2l.13-19.51,2.21-6.94,8.07-7.84s-.49-2-.56-2.27A7.3,7.3,0,0,1,87.84,109.57Z"/><path class="cls-11" d="M64.66,109.9c-.26.2-3.18,6.47-3.71,7.76s0,5.12,0,5.12.39-2,1.57-2.59,3.63-.82,4.61-.34,5.58,4.08,6.43,4.69,3.7,2.6,3.7,2.6l-2.86-7.79-7.52-7.55s.64-2.08.63-2.23A7.26,7.26,0,0,0,64.66,109.9Z"/><path class="cls-12" d="M107.06,145.48s-.27.11-.71.32H46.43l-.73-.32c0-27.74,15.66-31.75,18-32.17,1.23,1.39,2.91,3.13,4.63,4.84l3,6.53L77.9,127l6.22-8.7a.07.07,0,0,1,0,0c1.53-1.32,3-2.58,4-3.54.19-.17.38-.32.53-.48.39-.38.71-.67.87-.87h0a13.62,13.62,0,0,1,2.33.78l.52.23a19.89,19.89,0,0,1,3.6,2.14c.19.15.36.27.53.42C101.53,120.88,107.06,129,107.06,145.48Z"/><path class="cls-8" d="M70.36,134.43c-2.49,2.34-3.71,6.74-4.25,11.37h-.54c.56-4.73,1.83-9.27,4.44-11.75Z"/><path class="cls-8" d="M75.51,125l0-.06a0,0,0,0,1,0,0l-5.08,7.49-.19-.19-7.86-8.11,4.6-6s-3.35-2.34-6-.44A34.54,34.54,0,0,0,55.51,123v-3.32s1.66-2.42,1.53-4.21,5.5-4.73,6.39-7.92a8.89,8.89,0,0,1,1.48-2.93,29.94,29.94,0,0,0,3.13,1.1A33.55,33.55,0,0,0,75.51,125Z"/><path class="cls-8" d="M96.88,120.94a23.46,23.46,0,0,1,.81,3.09c-1.14-2-7.12-6.45-8.74-6.78-1.78-.38-3.69,1.78-3.69,1.78l3.2,3c-1.93,2.32-9.59,9.19-15.71,12.3a13.78,13.78,0,0,0-6.27,6.31,34.85,34.85,0,0,1,3.78-8.34A62.18,62.18,0,0,1,75.51,125s0,0,0-.06q1.44-1.73,3.2-3.59c6-6.35,6.26-12.21,5.68-15.63a20.26,20.26,0,0,0,2.28-.75c1.48,1.58,2.89,3.43,3.53,4a55.78,55.78,0,0,1,4.84,5A66.32,66.32,0,0,0,96.88,120.94Z"/></g></g></svg>