<svg xmlns="http://www.w3.org/2000/svg" viewBox="0 0 145.36 145.95"><defs><style>.cls-1{fill:#171518;}.cls-2{fill:#432612;}.cls-3{fill:#e1bf9c;}.cls-4{fill:#f2d1ac;}.cls-5,.cls-7{fill:#c09a80;}.cls-5{opacity:0.7;}.cls-6{fill:#d3a789;}.cls-8{fill:#e0b89b;}.cls-9{fill:#965458;}.cls-10{fill:#633719;}.cls-11{fill:#fff;}.cls-12{fill:none;}.cls-13{fill:#a2c15f;}.cls-14{fill:#070707;}.cls-15{fill:#0d0d0d;}.cls-16{fill:#31b44a;}.cls-17{fill:#515251;}</style></defs><title>Asset 210</title><g id="Layer_2" data-name="Layer 2"><g id="Layer_1-2" data-name="Layer 1"><rect class="cls-1" width="145.36" height="145.95"/><path class="cls-2" d="M106.49,85.66s-1.74-2.2-.7-16.26a60.15,60.15,0,0,0-1.11-15.32c.1.41-10.06,20.52-10.06,20.52-.34,5.62-.63,11.1-.7,14.91l-1.7-2.91a60.14,60.14,0,0,0-1.66,6.7c0,.1,0,.22,0,.33l-5.48-5.46s0,3.12.29,6.09L82,91s0,8,1.14,10.57c1.25,2.84.12,10.68.12,10.68a23.22,23.22,0,0,0,3.36-5.82c-.14,1.74-.33,3.05-.33,3.05a24.5,24.5,0,0,0,4.37-8.83c.07,1.21.14,2.42.16,3.62a23.84,23.84,0,0,1-1.35,7.51A33.13,33.13,0,0,0,94.06,101c.29,4.92,1,8.5,2.49,10.42-.19-.35-1-2-.76-6.13.08-1.88.25-3.92.48-6a16.23,16.23,0,0,0,4.57,8.25A27.79,27.79,0,0,1,99.08,94.4c.17-1.46.3-2.75.41-3.91a39.35,39.35,0,0,0,.78,6.68,25.5,25.5,0,0,0,3.8,9.43s-2.46-5.46-.21-20.22a26.56,26.56,0,0,0,.12-4.54C105.38,85.17,106.49,85.66,106.49,85.66Z"/><path class="cls-2" d="M46.38,84.84s1.74-2.2.71-16.26a59.73,59.73,0,0,1,1.1-15.32c-.1.4,10.06,20.51,10.06,20.51.35,5.62.63,11.11.7,14.92l1.7-2.91a59.81,59.81,0,0,1,1.66,6.69c0,.11,0,.22,0,.33l5.48-5.46s0,3.12-.29,6.09l3.32-3.31s0,8-1.14,10.58c-1.24,2.83-.12,10.68-.12,10.68a23.71,23.71,0,0,1-3.36-5.82c.14,1.73.33,3,.33,3a24.5,24.5,0,0,1-4.37-8.83c-.07,1.21-.14,2.43-.15,3.62a23.66,23.66,0,0,0,1.34,7.51,32.87,32.87,0,0,1-4.55-10.76c-.3,4.93-1,8.5-2.5,10.42.2-.34,1-2,.77-6.13-.08-1.88-.26-3.92-.48-6A16.29,16.29,0,0,1,52,106.72a27.73,27.73,0,0,0,1.76-13.14c-.17-1.47-.3-2.76-.41-3.92a39.35,39.35,0,0,1-.78,6.68,25.5,25.5,0,0,1-3.8,9.43s2.46-5.46.21-20.22A27.51,27.51,0,0,1,48.89,81C47.49,84.35,46.38,84.84,46.38,84.84Z"/><path class="cls-3" d="M76.29,92.1v53.7H47.09l-.71-.31c0-28.81,17.87-30.95,17.87-30.95,1.35,0,2.36-1.33,3.07-3.5a23.06,23.06,0,0,0,.62-2.28c.12-.53.22-1.08.3-1.67.17-1,.31-2,.41-3.12.06-.66.12-1.31.19-2,.26-3.3.34-6.88.34-10.28C69.18,91.71,73.12,92.1,76.29,92.1Z"/><path class="cls-4" d="M106.3,145.49l-.7.31H76.29V92.1h.06c3.17,0,7.12-.39,7.12-.39,0,3.38.09,6.92.35,10.19.06.66.13,1.31.19,1.95.12,1.12.24,2.19.41,3.19v0c.06.46.14.86.22,1.27a19.72,19.72,0,0,0,.72,2.72c.74,2.18,1.74,3.49,3.07,3.49C88.43,114.54,106.3,116.68,106.3,145.49Z"/><path class="cls-5" d="M84.41,107.05v0a9.41,9.41,0,0,1-8.08,4.41h0a10.21,10.21,0,0,1-8.05-4.39c.16-1,.31-2,.41-3.11l.18-2a31.73,31.73,0,0,0,7.37,1h.09a29.57,29.57,0,0,0,7.53-1c.06.66.12,1.31.19,2C84.13,105,84.25,106.05,84.41,107.05Z"/><path class="cls-6" d="M76.37,30.52c-30.92,0-31.1,25.88-29.73,42.83-2.11-4-8.39-2.78-7.88,3.55.5,6.09,9.36,9.24,9.24,8.53,2.54,13.95,17.09,22,28.37,22h.24V30.52Z"/><path class="cls-7" d="M40.74,74.22a2.93,2.93,0,0,1,4.47-.85,2.56,2.56,0,0,1,.72,2.81c-.22.81-1.07.87-.86,2.11a2.17,2.17,0,0,0,1.23,1.79,2.78,2.78,0,0,1,1.05,1.14A3,3,0,0,1,47.48,83c-.23,1-1.69.21-2.66-.23a19.39,19.39,0,0,1-3.2-2.6C40.32,78.67,39.72,75.85,40.74,74.22Z"/><path class="cls-8" d="M76.52,30.52c30.93,0,31.1,25.88,29.73,42.83,2.12-4,8.39-2.78,7.88,3.55-.5,6.09-9.36,9.24-9.24,8.53-2.53,13.95-17.09,22-28.37,22h-.23V30.52Z"/><path class="cls-7" d="M112.15,74.22a2.92,2.92,0,0,0-4.46-.85,2.56,2.56,0,0,0-.73,2.81c.22.81,1.08.87.87,2.11a2.16,2.16,0,0,1-1.24,1.79,2.85,2.85,0,0,0-1,1.14,3.09,3.09,0,0,0-.13,1.74c.23,1,1.69.21,2.66-.23a18.6,18.6,0,0,0,3.2-2.6C112.58,78.67,113.17,75.85,112.15,74.22Z"/><path class="cls-3" d="M76.1,37.81c-10.17,0-17.62,3-22.13,8.79-6.29,8.15-6,20.59-3.73,29.53.71,2.73,1.07,10.08,1.56,12.78C54,101,67.33,107.43,76.1,107.43h.24V37.82Z"/><path class="cls-4" d="M98.19,46.62c-4.48-5.8-11.84-8.75-21.85-8.8v69.6c10-.11,22-7.16,24.06-18.51.48-2.69.85-10,1.56-12.78C104.28,67.22,104.5,54.79,98.19,46.62Z"/><path class="cls-9" d="M85,119l-.3,26.76H67.59l-.21-27.17a33.68,33.68,0,0,0,9.48,1.6A29.8,29.8,0,0,0,85,119Z"/><path class="cls-2" d="M92.66,25.4c-2.56-1.57-5.88,0-7,.2s-4.25-.29-5.37-2.24a6.5,6.5,0,0,1-1.09-2.95,6.5,6.5,0,0,0,1,5.54,3.5,3.5,0,0,0,3.34,1.46S80.45,24,73.88,26s-11.17,4.81-14.94,4.25-7.15-3.66-7.15-3.66a22.44,22.44,0,0,0,3.31,4.34c2.79,2.43,4.52,1,4.52,1s-4.9-1.68-11.89,5.17a33.74,33.74,0,0,0-9.5,18.59c-.84,4.2-.56,7.69-2.24,10.77a28.19,28.19,0,0,1-4.89,6l8.11-5.73a26.44,26.44,0,0,1-2.66,7.69c-1.82,2.93-3.64,6.15-4.61,6.85S45.87,69,46.29,72.78a25.92,25.92,0,0,0,2.42,8.49,15.81,15.81,0,0,0,3.36,5s-3-4.19-2.66-12.44c.14-3.51,2.66-11.75,2.66-11.75s-2.16,5.52-2.16,8.6.45,7.83,2.69,11.18a19.1,19.1,0,0,0,5.9,5.39,21.76,21.76,0,0,1,1.89-23.93c1.84-2.45,7.26-6.57,10.89-8.24s6.93-3.76,9-7.26-5.39,6.46-8.18,9.13c-6.22,6-7.76,12.54-7.9,16.46,0,0,1.48-7,10.62-11.19C78.73,60.43,86.48,57.58,89.2,56a16.76,16.76,0,0,0,8.44-15.31s-2,7.1-4.1,10.88S89.8,60,89.11,61.24c-3.38,6.25-8,7.69-8,7.69s3.07-.37,8.23-3.2c11.51-6.31,8.27-14.28,8.27-14.28s-2.49,8.67-1.79,15a33.36,33.36,0,0,0,4,13.31c1.81,3.35,7,6.4,7,6.4s-5.15-4-5-13c.06-4.29,2.52-9.65,2.52-9.65s-.83,3.5,1,6a20.2,20.2,0,0,0,5.9,5.66c5.7,3.36,10,1.47,10,1.47s-5,.39-6.83-2.78c-1.13-2,0-3.78-2.55-9.47a10.36,10.36,0,0,0-2-1.87s2.3,4.93,6,5.74c1.4.3,5-.41,5-.41a5.51,5.51,0,0,1-5.25-5.89c0-3.09-4-5.87-4-7.26s.28-6.43-.56-9-2.43-8.14-6.57-12.86c-.77-.87-4-4.72-4-2.34a16.75,16.75,0,0,0,.64,4.43,18.91,18.91,0,0,1-.55-4c0-1.82.55-3.77-1.12-4.33S97.25,25.14,95,27.92c-2.12,2.6-1.26,1.3-1.26,1.3A2.81,2.81,0,0,0,92.66,25.4Z"/><path class="cls-2" d="M100.07,66.07c2.29,6.49,3.77,7.37,3.38,14.16a23.59,23.59,0,0,1-4.08,12,18.42,18.42,0,0,0,7.14-11.58c.75-3.77,1.6-10,.51-13.8S104.47,58,104.47,58Z"/><path class="cls-10" d="M97.12,39.46s.08.76.12,2.1A18.14,18.14,0,0,1,97.05,44a12.43,12.43,0,0,1-.81,3.09,15,15,0,0,1-1.81,3.37,16.6,16.6,0,0,1-2.89,3.13,33.51,33.51,0,0,1-7.79,4.76c-2.83,1.27-5.61,2.4-8.12,3.73a35.45,35.45,0,0,0-6.51,4.1,20.58,20.58,0,0,0-2.27,2.09,13.13,13.13,0,0,0-1.48,1.86,9.9,9.9,0,0,0-.78,1.33l-.25.48a13.77,13.77,0,0,1,.8-2,12.69,12.69,0,0,1,1.31-2.06,17.86,17.86,0,0,1,2.13-2.36A36.52,36.52,0,0,1,75,60.94c2.51-1.45,5.36-2.71,8.09-4a38.73,38.73,0,0,0,7.55-4.46,18.75,18.75,0,0,0,2.84-2.78,13.41,13.41,0,0,0,1.92-3,17,17,0,0,0,1-2.86,16.54,16.54,0,0,0,.47-2.33C97.05,40.22,97.12,39.46,97.12,39.46Z"/><path class="cls-10" d="M79.63,48.84,78.16,50.2a38.73,38.73,0,0,1-4.44,2.9c-1.9,1.07-4.1,2.31-6.39,3.72-.55.37-1.12.74-1.7,1.11L64,59.18a15.83,15.83,0,0,0-1.58,1.37,10.35,10.35,0,0,0-1.46,1.5,13.44,13.44,0,0,0-1.32,1.61c-.38.58-.76,1.16-1.13,1.74s-.56,1.24-.86,1.84A7.5,7.5,0,0,0,57,69.11c-.18.63-.35,1.26-.52,1.87a17.12,17.12,0,0,0-.29,1.84c-.07.61-.15,1.19-.23,1.76s0,1.14,0,1.67c0,1.07,0,2.07,0,2.94s.17,1.64.23,2.26c.12,1.27.18,2,.18,2l-.47-1.94q-.21-.95-.51-2.25a26.57,26.57,0,0,1-.33-3c0-.56-.12-1.13-.11-1.73s.06-1.21.1-1.84a18.93,18.93,0,0,1,.16-2c.15-.66.3-1.33.46-2a8.16,8.16,0,0,1,.66-2,21.09,21.09,0,0,1,.88-2l1.19-1.9A17,17,0,0,1,59.79,61a11.87,11.87,0,0,1,1.58-1.59A20.75,20.75,0,0,1,63.07,58l1.77-1.26,1.8-1.08c2.39-1.37,4.74-2.39,6.68-3.33L76,51.06c.76-.43,1.43-.79,2-1.09Z"/><path class="cls-10" d="M98.66,48.84s0,.45.06,1.24a13.86,13.86,0,0,1,0,1.43,14.91,14.91,0,0,1-.16,1.87,15.23,15.23,0,0,1-.46,2.18,13.75,13.75,0,0,1-.87,2.35,12.81,12.81,0,0,1-1.37,2.33A16.67,16.67,0,0,1,94,62.38a20.84,20.84,0,0,1-4.38,3.19,31.37,31.37,0,0,1-4.22,2c-2.55,1-4.3,1.4-4.3,1.4s.39-.24,1.08-.62l2.84-1.58A38.66,38.66,0,0,0,93,61.28a17.77,17.77,0,0,0,1.69-1.91A15.68,15.68,0,0,0,96,57.3a18.2,18.2,0,0,0,1-2.11c.3-.68.47-1.38.68-2s.31-1.22.46-1.74a12.82,12.82,0,0,0,.27-1.39C98.56,49.28,98.66,48.84,98.66,48.84Z"/><path class="cls-11" d="M106.49,145.49l-.7.31H76.54L85,119l.1-8.29c.13.57.25.29.39.55.74,2.17,1.77,3.24,3.09,3.24a14.55,14.55,0,0,1,4.47,1.53c4.52,2.31,11.09,8,12.91,21.66A55.71,55.71,0,0,1,106.49,145.49Z"/><path class="cls-11" d="M75.78,145.8H47.09l-.71-.31a55.26,55.26,0,0,1,.35-6.4C48.28,124.18,55.34,118.26,60,116a13.86,13.86,0,0,1,4.24-1.43c1.35,0,2.36-1.33,3.07-3.5l.06,7.59Z"/><polyline class="cls-12" points="111.19 145.8 108.75 145.8 106.31 145.8 87.69 145.8"/><path class="cls-13" d="M68.24,106.92s-.51.3.81,1.6,4.14,2.42,10,1.75c4.23-.48,4.73-.55,5.35-1.66.44-.77.06-1.18.06-1.18A2.18,2.18,0,0,1,86.16,110c-.26,2.18-.52,2,.8,3a4.34,4.34,0,0,1,1.8,5.41c-.93,3-9.53,17.91-14.16,21.09,0,0,2-4.19.79-7.37s-7-9.09-9-12.56-3.18-4.19-2.52-5.64,2.39-2.45,3.31-3-1-.86-.84-2.59c.06-.91.3-1.12,1-1.36S68.24,106.92,68.24,106.92Z"/><path class="cls-14" d="M72.29,80.67c0,5-5.4,9.89-11.61,9.89a19.07,19.07,0,0,1-3-.23,9.38,9.38,0,0,1-2.62-.72l0,0c-3.59-1.55-4.18-4.8-4.18-8.39,0-5-2.15-9,10.54-9a42.69,42.69,0,0,1,4.65.23c3.44.39,5,1.27,5.75,2.52C72.62,76.43,72.29,78.4,72.29,80.67Z"/><path class="cls-14" d="M102.47,81.2c0,5-1.19,9.36-9.85,9.36A11.31,11.31,0,0,1,89.08,90a12.15,12.15,0,0,1-5.22-3.11A9,9,0,0,1,81,80.67c0-5-1.57-8.44,10.92-8.44a35.63,35.63,0,0,1,5.12.31h0c3.36.51,4.75,1.6,5.29,3S102.47,79.07,102.47,81.2Z"/><path class="cls-12" d="M65,72.88a29.55,29.55,0,0,0-3.49-.24,29.24,29.24,0,0,1,3.33.24c1.86.24,6.17,1.16,6.6,2.72a11.33,11.33,0,0,1,.06,5.56c-1.51,6.92-7,8.55-11.12,8.63,4.14-.05,9.74-1.61,11.28-8.63a11.33,11.33,0,0,0-.06-5.56C71.13,74,66.82,73.12,65,72.88Z"/><path class="cls-12" d="M81.71,81.16a11.22,11.22,0,0,1,.06-5.56c.42-1.56,4.74-2.48,6.59-2.72a29.43,29.43,0,0,1,3.34-.24,29,29,0,0,0-3.45.24c-1.85.24-6.16,1.16-6.59,2.72a11.33,11.33,0,0,0-.06,5.56c1.52,7,7.1,8.58,11.24,8.63C88.71,89.71,83.22,88.09,81.71,81.16Z"/><path class="cls-15" d="M71.45,81.16c-1.51,6.92-7,8.54-11.11,8.62-.76,0-1.45,0-2.07-.08a13.28,13.28,0,0,1-2.08-.41A5.42,5.42,0,0,1,53,86.6a16,16,0,0,1-1.82-7.2c-.37-5.71,2.31-6,6.1-6.53a26.53,26.53,0,0,1,4.16-.23,29.19,29.19,0,0,1,3.33.25c.23,0,.47.06.74.1,2,.33,5.24,1.17,5.79,2.48,0,0,0,.1.06.14A11.06,11.06,0,0,1,71.45,81.16Z"/><path class="cls-16" d="M76.47,73.73h.14a7.28,7.28,0,0,1-2-.19c-.75-.16-2.54-.8-4.37-1.3a38.46,38.46,0,0,0-4.17-.88,63.93,63.93,0,0,0-11.3-.2c-4.13.39-7.29.87-7.45,1.2s-.36,3.32,0,3.65,1.5,1,1.78,2.09,1.43,8.94,4,11.09c4.2,3.54,18.35,3.7,20.79-9.19.33-1.76.77-2.8,1.53-3.08a3.66,3.66,0,0,1,1.24-.2h-.14Zm-4.85,7.43c-1.54,7-7.14,8.58-11.28,8.63a14.73,14.73,0,0,1-4.15-.51c-1.13-.34-4.45-1.65-5-9.87-.37-5.72,2.31-6.06,6.09-6.54a28.07,28.07,0,0,1,4.17-.23,29.55,29.55,0,0,1,3.49.24c1.86.24,6.17,1.16,6.6,2.72A11.33,11.33,0,0,1,71.62,81.16Z"/><path class="cls-15" d="M102,79.4c-.53,8.23-3.85,9.54-5,9.89a14.93,14.93,0,0,1-4.2.49,14.3,14.3,0,0,1-3.17-.39,10,10,0,0,1-5.35-3,10.79,10.79,0,0,1-2.6-5.24,11.17,11.17,0,0,1,.06-5.55c.41-1.57,4.73-2.5,6.6-2.72a28.65,28.65,0,0,1,3.33-.25,27.47,27.47,0,0,1,4.22.23l.72.1c2.56.35,4.48.78,5.14,3.21A10.27,10.27,0,0,1,102,79.4Z"/><path class="cls-16" d="M105.9,72.36c-.15-.33-3.32-.81-7.45-1.2a63.79,63.79,0,0,0-11.29.2,38,38,0,0,0-4.17.88c-1.83.5-3.62,1.14-4.37,1.3a7.32,7.32,0,0,1-2,.19h-.14v3h.14a3.64,3.64,0,0,1,1.23.2c.76.28,1.2,1.32,1.54,3.08C81.82,92.89,96,92.73,100.17,89.19c2.56-2.15,3.7-10,4-11.09s1.45-1.75,1.78-2.09S106,72.6,105.9,72.36Zm-24.3,8.8a11.33,11.33,0,0,1,.06-5.56c.43-1.56,4.74-2.48,6.59-2.72a29,29,0,0,1,3.45-.24,28.6,28.6,0,0,1,4.21.23c3.79.48,6.46.82,6.09,6.54-.53,8.22-3.84,9.53-5,9.87a14.63,14.63,0,0,1-4.19.51C88.7,89.74,83.12,88.15,81.6,81.16Z"/><path class="cls-17" d="M71.33,75.47,58.27,89.7a13.28,13.28,0,0,1-2.08-.41A5.42,5.42,0,0,1,53,86.6L65.54,73C67.52,73.32,70.78,74.16,71.33,75.47Z"/><path class="cls-17" d="M101.78,76.18,89.66,89.39a10,10,0,0,1-5.35-3L96.64,73C99.2,73.32,101.12,73.75,101.78,76.18Z"/></g></g></svg>