<svg xmlns="http://www.w3.org/2000/svg" viewBox="0 0 145.36 145.95"><defs><style>.cls-1{fill:#e05f7a;}.cls-2{fill:#e1bf9c;}.cls-3{fill:#f2d1ac;}.cls-4,.cls-6{fill:#c09a80;}.cls-4{opacity:0.7;}.cls-5{fill:#d3a789;}.cls-7{fill:#e0b89b;}.cls-8{fill:#191919;}.cls-9{fill:#463944;}.cls-10{fill:#15151a;}.cls-11{fill:#5aadc5;}</style></defs><title>Asset 164</title><g id="Layer_2" data-name="Layer 2"><g id="Layer_1-2" data-name="Layer 1"><rect class="cls-1" width="145.36" height="145.95"/><path class="cls-2" d="M70.37,91.53V146H40.78l-.73-.31c0-29.19,18.12-31.37,18.12-31.37h0c1.79,0,2.93-2.35,3.7-5.85a16.61,16.61,0,0,0,.31-1.7c.17-1,.31-2.06.42-3.16.06-.66.12-1.32.18-2,.28-3.34.36-7,.36-10.42C63.17,91.13,67.15,91.53,70.37,91.53Z"/><path class="cls-3" d="M100.79,145.5v.14l-.4.17h0c-.08,0-.19.08-.29.14H70.37V91.53h.06c3.22,0,7.22-.4,7.22-.4,0,3.43.08,7,.35,10.34.07.66.13,1.32.19,2,.13,1.14.25,2.22.41,3.24v0c.07.45.15.87.23,1.28.77,3.76,2,6.29,3.84,6.29a16,16,0,0,1,6,2.36C93.9,119.91,100.74,127.61,100.79,145.5Z"/><path class="cls-4" d="M78.61,106.68v0a9.58,9.58,0,0,1-8.2,4.46h0a10.33,10.33,0,0,1-8.15-4.44c.17-1,.31-2.06.41-3.16.07-.66.13-1.32.19-2a32.43,32.43,0,0,0,7.47,1h.08A30.37,30.37,0,0,0,78,101.47c.06.66.12,1.33.18,2C78.32,104.58,78.44,105.66,78.61,106.68Z"/><path class="cls-5" d="M70.46,29.11c-31.34,0-31.52,26.24-30.13,43.41-2.15-4.07-8.5-2.82-8,3.6.51,6.17,9.49,9.36,9.37,8.65C44.28,98.9,59,107.06,70.46,107.06h.24V29.12Z"/><path class="cls-6" d="M34.35,73.41a3,3,0,0,1,4.52-.87,2.6,2.6,0,0,1,.74,2.85c-.22.82-1.09.89-.87,2.14A2.2,2.2,0,0,0,40,79.34a2.56,2.56,0,0,1,1.19,2.93c-.23,1-1.71.2-2.7-.25a18.49,18.49,0,0,1-3.24-2.63C33.92,77.91,33.31,75.05,34.35,73.41Z"/><path class="cls-7" d="M70.61,29.11c31.34,0,31.52,26.24,30.13,43.41,2.15-4.07,8.51-2.82,8,3.6-.51,6.17-9.49,9.36-9.36,8.65C96.8,98.9,82.05,107.06,70.61,107.06h-.24V29.12Z"/><path class="cls-6" d="M106.72,73.41a3,3,0,0,0-4.52-.87,2.58,2.58,0,0,0-.73,2.85c.21.82,1.08.89.87,2.14a2.19,2.19,0,0,1-1.26,1.81,3,3,0,0,0-1,1.16,3.11,3.11,0,0,0-.14,1.77c.24,1,1.71.2,2.7-.25a18.93,18.93,0,0,0,3.25-2.63C107.15,77.91,107.76,75.05,106.72,73.41Z"/><path class="cls-2" d="M70.19,36.51c-10.32,0-17.86,3-22.43,8.91C41.38,53.67,41.62,66.28,44,75.33c.71,2.77,1.08,10.23,1.58,13,2.22,12.24,15.73,18.76,24.63,18.76h.24V36.52Z"/><path class="cls-3" d="M92.57,45.43c-4.53-5.88-12-8.87-22.14-8.91v70.53c10.15-.11,22.29-7.25,24.38-18.75.49-2.74.86-10.2,1.59-13C98.74,66.31,99,53.71,92.57,45.43Z"/><path class="cls-8" d="M86.7,38.41C85,46.24,70.12,53.53,62.26,55.8s-20.38,4.77-20.38,4.77.41,7.49.26,10A19.51,19.51,0,0,0,43.44,78L41,76.92s-.14-5.31-2.4-6.23c-3.48-1.42-9-8-7.39-14.89S38,39.52,40.06,35.17s8.73-12.3,14.32-13.75,16.37-3.93,23-.83S92.7,28.05,92.7,28.05a18.6,18.6,0,0,1,7,3.93c3.11,2.91,7.5,13.35,7.5,28.78,0,2.31-.75,7.89-3.71,9.53a6.58,6.58,0,0,0-3.72,5.34l-1.31.93s1.31-8.48,1.31-11.39c0-8.71-4.82-12.73-8.74-15.64-6.43-4.77-10.81-4.7-10.81-4.7Z"/><path class="cls-9" d="M91.1,113.61a99,99,0,0,1-10.4,11.84c-5.46,5.25-8.38,12.1-9.9,18.49,0-.06,0-.15-.06-.21-.21-.95-.47-1.88-.77-2.84v0a35.78,35.78,0,0,0-9-15.42A98.53,98.53,0,0,1,50,113a32.69,32.69,0,0,1,4.24-4.21c1.3-1,2.26-1.85,3-2.53h0c1.53.44,3.07.83,4.6,1.12a43.64,43.64,0,0,0,9.25,1,41.5,41.5,0,0,0,7.5-.83,43.84,43.84,0,0,0,4.69-1.14h0c.76.67,1.69,1.46,2.93,2.43A39.56,39.56,0,0,1,91.1,113.61Z"/><path class="cls-10" d="M100.79,145.5a3.12,3.12,0,0,0-.4.31h0c-.08,0-.19.08-.29.14H40.78l-.73-.31c0-13,3.57-20.6,7.56-25.08,5-5.62,10.56-6.29,10.56-6.29h0c1.23,3.23.3,2.61,1.19,5.37a7,7,0,0,0,2.26,3,41.08,41.08,0,0,0,5.75,9.67,14.94,14.94,0,0,1,2.87,6.72,14.82,14.82,0,0,1,2.86-6.72,41.48,41.48,0,0,0,5.68-9.52,33.65,33.65,0,0,0,3-2.2c.46-.35.93,3.32,1.43,2.78a76.39,76.39,0,0,0,5.4-6.79,20.56,20.56,0,0,1,4.65,4,25.7,25.7,0,0,1,3.85,6C99.27,131,100.77,137.15,100.79,145.5Z"/><path class="cls-11" d="M70.72,145.45c0,.32,0,.5,0,.5l-.43-.25-.46-.25L50.12,134.52l7.05-9.17s-3-3.15-4.79-4.61c-.81-.66-2.84-.52-4.77-.18a42.43,42.43,0,0,0-4.34,1c.27-.39,3.44-4.83,6.76-8.59a32.69,32.69,0,0,1,4.24-4.21c1.3-1,2.26-1.85,3-2.53h0c.68-.62,1.22-1.12,1.72-1.56a31.9,31.9,0,0,0,3,1.08c0,.52-.08,1.06-.13,1.6-.08.87-.16,1.72-.27,2.43-.33,2.45-2.14,5-1.8,7.11a25.14,25.14,0,0,0,1.82,5.81,41.08,41.08,0,0,0,5.75,9.67,14.94,14.94,0,0,1,2.87,6.72,28.05,28.05,0,0,1,.47,4.65C70.76,144.46,70.74,145.06,70.72,145.45Z"/><path class="cls-11" d="M83.35,125.35l7.06,9.17L70.72,145.45l-.45.25-.44.25s0-.18,0-.5a30.71,30.71,0,0,1,.16-4.56v0c.08-.56.17-1.16.3-1.79a14.82,14.82,0,0,1,2.86-6.72,41.48,41.48,0,0,0,5.68-9.52,27,27,0,0,0,1.89-6c.33-2.07-1.47-4.66-1.81-7.11-.08-.69-.16-1.48-.24-2.31-.07-.54-.11-1.06-.15-1.57,1.06-.32,2.12-.67,3.18-1.08.47.41,1,.91,1.66,1.51h0c.76.67,1.69,1.46,2.93,2.43a39.56,39.56,0,0,1,4.82,4.86c3.09,3.61,5.93,7.57,6.18,7.94-.17,0-2-.58-4-1s-4.26-.56-5.13.14C86.38,122.2,83.35,125.35,83.35,125.35Z"/></g></g></svg>