<svg xmlns="http://www.w3.org/2000/svg" viewBox="0 0 145.36 145.95"><defs><style>.cls-1{fill:#f6f0d7;}.cls-2{fill:#050606;}.cls-3{fill:#e1bf9c;}.cls-4{fill:#f2d1ac;}.cls-5,.cls-7{fill:#c09a80;}.cls-5{opacity:0.7;}.cls-6{fill:#d3a789;}.cls-8{fill:#e0b89b;}.cls-9{fill:#35251d;}.cls-10{fill:#fef5f0;}.cls-11{fill:#432612;}.cls-12{fill:#341e10;}.cls-13{fill:#321d10;}.cls-14{fill:#8d181b;}</style></defs><title>Asset 205</title><g id="Layer_2" data-name="Layer 2"><g id="Layer_1-2" data-name="Layer 1"><rect class="cls-1" width="145.36" height="145.95"/><path class="cls-2" d="M58.16,87c-.56-.42-10.76-6.71-10.76-6.71.7,3.92,1.22,5.52.2,8.18-.93,2.4-2.69,3.32-3.67,4.16a7.76,7.76,0,0,1-3.66,1.47A10.58,10.58,0,0,1,38.78,94s1.62.9,5.68.72a6.46,6.46,0,0,0,3.5-1c-.81,1.29-1.56,3.16-.71,4.88,3.07,6.27-1,8.31-1,8.31s3.63-.36,5.71-2.19a.77.77,0,0,0,0,.15,4.56,4.56,0,0,0,3.35,3.49s-1.53-.26-1.24-3.17c.08-.78.89-1.09,1.89-1.61.39,2.81,1.66,5.68-1,6.85,0,0,4.43-.88,5.24-3.52a9.15,9.15,0,0,0,.3-1.37,5.33,5.33,0,0,1,.21.74c.63,3.35-1.92,6.62-1.92,6.62s9.21-1,9.28-4.64a18.65,18.65,0,0,1,.41-3.62c.27-.84.84-5,.84-5S58.72,87.4,58.16,87Z"/><path class="cls-2" d="M96.29,87c.56-.42,10.77-6.71,10.77-6.71-.7,3.92-1.23,5.52-.2,8.18.92,2.4,2.68,3.32,3.66,4.16a7.76,7.76,0,0,0,3.66,1.47,10.81,10.81,0,0,0,1.5-.13s-1.63.9-5.69.72a6.39,6.39,0,0,1-3.49-1c.8,1.29,1.55,3.16.71,4.88-3.07,6.27,1,8.31,1,8.31s-3.63-.36-5.71-2.19a.77.77,0,0,1,0,.15,4.56,4.56,0,0,1-3.35,3.49s1.53-.26,1.24-3.17c-.08-.78-.88-1.09-1.89-1.61-.39,2.81-1.66,5.68,1,6.85,0,0-4.44-.88-5.25-3.52a10.59,10.59,0,0,1-.3-1.37,7.19,7.19,0,0,0-.21.74c-.63,3.35,1.92,6.62,1.92,6.62s-9.21-1-9.28-4.64a18.58,18.58,0,0,0-.4-3.62c-.28-.84-.84-5-.84-5S95.73,87.4,96.29,87Z"/><path class="cls-3" d="M77.22,92.22v53.7H48l-.72-.3c0-28.81,17.87-31,17.87-31,1.78,0,2.93-2.29,3.68-5.77a16.2,16.2,0,0,0,.31-1.68c.17-1,.31-2,.41-3.11.06-.66.13-1.31.18-2,.27-3.3.35-6.88.35-10.28C70.11,91.83,74,92.22,77.22,92.22Z"/><path class="cls-4" d="M107.23,145.62s-.27.1-.69.3H77.22V92.22h.06c3.17,0,7.12-.39,7.12-.39,0,3.38.08,6.92.35,10.2.06.66.12,1.31.19,1.94.12,1.13.24,2.19.4,3.2v0c.07.45.15.86.23,1.27.76,3.7,1.94,6.2,3.79,6.2C89.36,114.66,107.23,116.81,107.23,145.62Z"/><path class="cls-5" d="M85.34,107.17v0a9.41,9.41,0,0,1-8.08,4.4h0a10.2,10.2,0,0,1-8-4.38c.17-1,.31-2,.41-3.11.06-.66.13-1.31.18-2a31.74,31.74,0,0,0,7.38,1h.08a30.42,30.42,0,0,0,7.53-1c.06.66.12,1.31.19,1.94C85.06,105.1,85.18,106.16,85.34,107.17Z"/><path class="cls-6" d="M77.3,30.63c-30.92,0-31.1,25.89-29.72,42.83-2.12-4-8.4-2.77-7.88,3.55.49,6.1,9.35,9.25,9.23,8.54,2.54,13.94,17.09,22,28.37,22h.24V30.64Z"/><path class="cls-7" d="M41.67,74.34a2.92,2.92,0,0,1,4.47-.85,2.55,2.55,0,0,1,.72,2.8c-.21.81-1.07.88-.86,2.11a2.19,2.19,0,0,0,1.24,1.8,2.83,2.83,0,0,1,1,1.14,3.09,3.09,0,0,1,.14,1.74c-.24,1-1.69.21-2.67-.24a18.42,18.42,0,0,1-3.2-2.6C41.25,78.78,40.65,76,41.67,74.34Z"/><path class="cls-8" d="M77.46,30.63c30.92,0,31.09,25.89,29.72,42.83,2.12-4,8.39-2.77,7.88,3.55-.5,6.1-9.36,9.25-9.24,8.54-2.53,13.94-17.08,22-28.36,22h-.24V30.64Z"/><path class="cls-7" d="M113.08,74.34a2.91,2.91,0,0,0-4.46-.85,2.55,2.55,0,0,0-.73,2.8c.22.81,1.08.88.87,2.11a2.19,2.19,0,0,1-1.24,1.8,2.83,2.83,0,0,0-1,1.14,3.09,3.09,0,0,0-.14,1.74c.24,1,1.69.21,2.67-.24a18.42,18.42,0,0,0,3.2-2.6C113.51,78.78,114.11,76,113.08,74.34Z"/><path class="cls-3" d="M77,37.93c-10.18,0-17.63,3-22.14,8.79-6.29,8.14-6,20.59-3.73,29.52C51.88,79,52.24,86.33,52.73,89c2.2,12.08,15.53,18.51,24.31,18.51h.23V37.94Z"/><path class="cls-4" d="M99.12,46.73C94.64,40.94,87.28,38,77.27,37.94v69.59c10-.11,22-7.15,24.06-18.5.49-2.7.85-10.06,1.56-12.79C105.21,67.33,105.44,54.9,99.12,46.73Z"/><path class="cls-2" d="M111.09,55.81a9.32,9.32,0,0,0-.65-1.26c-.59-4.42-3.72-13.26-6.78-17.69-3.19-4.61-11-8.7-21-9.92s-18.77,5.88-18.77,5.88a11.15,11.15,0,0,0-2.88-3c-1.33-.68-5.14.13-5.14.13s2.59.73,3.09,1.41a2.74,2.74,0,0,1,.52,2.49,18.26,18.26,0,0,0-4.35-1.34c-2.43-.07-5.16,3-5.16,3A8.82,8.82,0,0,1,54.41,34a11.9,11.9,0,0,1,2.68,1s-3.59.38-10.33,7.75a21.08,21.08,0,0,0-5.08,12.92l4.26-2.45a11.11,11.11,0,0,0-1.65,2.64c-3.13,7.81,1.16,15.64,1.16,15.64s1.4.14,2.68,3.15A58.28,58.28,0,0,1,51,83.71h1.5S49.22,71.14,51.4,64.3c.6-1.89,2.22-5.75,4.47-5.89A8.14,8.14,0,0,0,58,54.52c.66-2.58,4.11-6.91,6-7.72a2.48,2.48,0,0,1,2.93.41A19.77,19.77,0,0,1,75.16,44c5.32-1,8.24,4.75,9.4,7.74s.56,4.47.56,4.47a14.24,14.24,0,0,0,2-7.33A9.14,9.14,0,0,0,86.51,46c.69.35,3.71,1.19,4.33,9,.29,3.71-3.06,6.24-3.06,6.24s7.46-3.09,5.92-12.63a16.36,16.36,0,0,1,3.66,5.83c.66,2.59,6.25,8.6,6.63,9.78,2.17,6.84-1,19.41-1,19.41h1.5a58.91,58.91,0,0,1,2.81-9.11c1.28-3,2.69-3.15,2.69-3.15S114.23,63.62,111.09,55.81ZM85.75,44.63l-.11-.15.13.13Z"/><path class="cls-2" d="M77.43,91.41c-.32,4.54-22.3,2.83-14.49-2.92-4.34,6.39,9.6.39,13.69.39A9.64,9.64,0,0,1,77.43,91.41Z"/><path class="cls-2" d="M77,91.41c.32,4.54,22.3,2.83,14.5-2.92,4.33,6.39-9.61.39-13.7.39A9.64,9.64,0,0,0,77,91.41Z"/><path class="cls-9" d="M117.9,83.11s-3.22,3.13-10.2-6.35S77.1,62.37,65.56,52.21,48.1,44.44,46.76,42.7s-2.14-8.3-2.95-10.39-.54-5.31,5.91-8.53,11.48-9.39,31-2.14,19.7,11.86,19.7,11.86a15.46,15.46,0,0,1,3.27,3.36c3.9,5.46,9.43,17.22,11.56,25.33,3,11.26,5.1,14.75,4.29,16.89S117.9,83.11,117.9,83.11Z"/><path class="cls-9" d="M99.23,35.38s2.51-1.26,2.69-2.86,1-4.93-1.35-3.76.83,1.78-1.06,3.84S99.23,35.38,99.23,35.38Z"/><path class="cls-10" d="M107.47,145.62l-.72.31H48l-.74-.31c0-.86,0-1.72,0-2.54.08-1.88.24-3.66.47-5.3a35.85,35.85,0,0,1,.72-3.91c.1-.55.25-1.08.39-1.62.2-.72.41-1.41.63-2.09s.39-1.08.6-1.59a26.66,26.66,0,0,1,2-4,22,22,0,0,1,4.3-5.3,20.19,20.19,0,0,1,3.62-2.64.1.1,0,0,0,.08,0l0,0a14.94,14.94,0,0,0,2.39,2.7c1.39,1.37,3.4,3.17,6,5.3l.53.43c5.3,4.3,11.36,4.3,16.65,0l.53-.43c2.58-2.13,4.59-3.93,6-5.3a15.89,15.89,0,0,0,2.39-2.7,0,0,0,0,1,0,0,.21.21,0,0,0,.11,0,20.19,20.19,0,0,1,3.62,2.64,22.49,22.49,0,0,1,4.3,5.3,25.74,25.74,0,0,1,2,4c.21.51.41,1,.59,1.59s.46,1.37.66,2.09c.15.54.27,1.07.39,1.62.29,1.23.51,2.52.7,3.91.22,1.64.39,3.42.47,5.3C107.45,143.9,107.47,144.76,107.47,145.62Z"/><path class="cls-11" d="M86.13,109.44c0,2.85,3.6,5.15-.49,5.15H68.4c-4.08,0-.6-2.27-.6-5.12a25.28,25.28,0,0,0,4.68.19h9C85.62,109.66,86.13,109.44,86.13,109.44Z"/><path class="cls-12" d="M85.41,114.25c1.76,1.63,2.14,1.33,4,1.3a11.92,11.92,0,0,1,3.94.29,4.3,4.3,0,0,1,2.23,1.61,7.09,7.09,0,0,0-3-4.46,6.66,6.66,0,0,0-3.36-1.22c-1.33-.16-3.65.15-3.66.61S85.41,114.25,85.41,114.25Z"/><path class="cls-13" d="M86.86,114a1.86,1.86,0,1,1,.24-3A2.14,2.14,0,0,1,86.86,114Z"/><path class="cls-14" d="M62.57,119.23c1.39,1.37,3.4,3.17,6,5.3H52.13a22,22,0,0,1,4.3-5.3Z"/><path class="cls-14" d="M106.26,133.87H48.53c.1-.55.25-1.08.39-1.62.2-.72.41-1.41.63-2.09s.39-1.08.6-1.59h54.47c.21.51.41,1,.59,1.59s.46,1.37.66,2.09C106,132.79,106.14,133.32,106.26,133.87Z"/><path class="cls-14" d="M107.43,143.08H47.34c.08-1.88.24-3.66.47-5.3H107C107.18,139.42,107.35,141.2,107.43,143.08Z"/><path class="cls-14" d="M102.66,124.53H86.24c2.58-2.13,4.59-3.93,6-5.3h6.14A22.49,22.49,0,0,1,102.66,124.53Z"/><path class="cls-11" d="M84.48,114.4c-.11,3.75.63,3.89,2.56,6s3,3.27,3.72,4.94a6.8,6.8,0,0,1,.4,4.27,11.13,11.13,0,0,0,2.13-8.16,10.34,10.34,0,0,0-2-5.2c-1.17-1.72-3.93-4.14-4.48-3.68S84.48,114.4,84.48,114.4Z"/></g></g></svg>