<svg xmlns="http://www.w3.org/2000/svg" viewBox="0 0 145.36 145.95"><defs><style>.cls-1{fill:#965458;}.cls-2{fill:#e1bf9c;}.cls-3{fill:#f2d1ac;}.cls-4,.cls-6{fill:#c09a80;}.cls-4{opacity:0.7;}.cls-5{fill:#d3a789;}.cls-7{fill:#e0b89b;}.cls-8{fill:#0d0d0d;}.cls-9{fill:#101010;}.cls-10{fill:#fff;}.cls-11{fill:#191919;}</style></defs><title>Asset 212</title><g id="Layer_2" data-name="Layer 2"><g id="Layer_1-2" data-name="Layer 1"><rect class="cls-1" width="145.36" height="145.95"/><path class="cls-2" d="M73.31,92.1v53.7H44.11l-.72-.31c0-28.8,17.88-30.95,17.88-30.95a2.33,2.33,0,0,0,1.88-1.07,12.53,12.53,0,0,0,1.8-4.71,16,16,0,0,0,.31-1.67c.16-1,.3-2,.41-3.12q.09-1,.18-2c.27-3.3.35-6.88.35-10.28C66.2,91.71,70.13,92.1,73.31,92.1Z"/><path class="cls-3" d="M103.32,145.49s-.27.1-.7.31H73.31V92.1h.06c3.17,0,7.12-.39,7.12-.39,0,3.38.09,6.92.35,10.19.06.66.12,1.32.18,1.95.13,1.12.25,2.19.42,3.19v0c0,.46.14.86.22,1.27.59,2.93,1.47,5.12,2.72,5.9a1.94,1.94,0,0,0,1.07.31S103.32,116.69,103.32,145.49Z"/><path class="cls-4" d="M81.44,107.05v0a9.44,9.44,0,0,1-8.09,4.4h0a10.15,10.15,0,0,1-8-4.38c.16-1,.3-2,.4-3.11.06-.66.13-1.31.19-2a31.64,31.64,0,0,0,7.37,1h.08a30,30,0,0,0,7.53-1c.07.66.13,1.31.19,2C81.15,105,81.27,106.05,81.44,107.05Z"/><path class="cls-5" d="M73.39,30.52c-30.92,0-31.1,25.88-29.72,42.83-2.12-4-8.39-2.78-7.88,3.54.49,6.1,9.36,9.25,9.24,8.54,2.53,13.95,17.08,22,28.36,22h.24V30.52Z"/><path class="cls-6" d="M37.76,74.22a2.93,2.93,0,0,1,4.47-.85A2.55,2.55,0,0,1,43,76.18c-.21.81-1.07.87-.86,2.11a2.19,2.19,0,0,0,1.24,1.79,2.76,2.76,0,0,1,1,1.14A3.1,3.1,0,0,1,44.51,83c-.24,1-1.69.21-2.67-.23a18.06,18.06,0,0,1-3.19-2.61C37.34,78.66,36.74,75.85,37.76,74.22Z"/><path class="cls-7" d="M73.55,30.52c30.92,0,31.1,25.88,29.72,42.83,2.12-4,8.4-2.78,7.88,3.54-.49,6.1-9.36,9.25-9.23,8.54-2.54,13.95-17.09,22-28.37,22h-.24V30.52Z"/><path class="cls-6" d="M109.18,74.22a2.93,2.93,0,0,0-4.47-.85,2.55,2.55,0,0,0-.72,2.81c.22.81,1.07.87.86,2.11a2.17,2.17,0,0,1-1.24,1.79,2.76,2.76,0,0,0-1,1.14,3,3,0,0,0-.13,1.74c.23,1,1.69.21,2.66-.23a18.49,18.49,0,0,0,3.2-2.61C109.6,78.66,110.2,75.85,109.18,74.22Z"/><path class="cls-2" d="M73.13,37.81c-10.18,0-17.62,3-22.13,8.79-6.3,8.15-6.06,20.59-3.74,29.52.71,2.73,1.08,10.09,1.57,12.79C51,101,64.35,107.43,73.13,107.43h.23V37.82Z"/><path class="cls-3" d="M95.21,46.61c-4.47-5.79-11.84-8.74-21.85-8.79v69.6c10-.11,22-7.16,24.06-18.51.49-2.7.85-10.06,1.57-12.79C101.3,67.21,101.53,54.79,95.21,46.61Z"/><path class="cls-8" d="M103.62,81.36c1.48-2.35,1.87-10.13,1.87-10.13s3.34,4.57,8.45,2.06a13.1,13.1,0,0,1-6.09-12c.16-5.45-3.74-7-1.82-8,4.58-2.38,2.44-14.41,2.44-14.41s-5.72,2.89-6.19,4,1.41-1.78-.5-7.34-8.19-13-8.19-13,1.69,9.72.26,9.72S74.26,20.4,74.26,20.4s3.36,6.08,3.83,7.63-12.82-3.51-12.82-3.51l6.62,4.9L54.07,27s1.9,4.43,3.18,5.36S42,29.9,42,29.9l12.84,5.24L30.25,39.33l11.56,8.8S32.58,53.23,30,52.92s7.21,10.29,7.21,10.29-5,2.25-6.92,1.11c-1.65-1,7.35,4.68,7.35,4.68L33.77,80.63l9.63-6.25L39.12,86.67l11-16.12L48.5,78.12,59,57.4s-3,11-5.63,14.59C51.29,74.81,70,52.61,70,52.61S65.18,61,58.35,65.51c-3.9,2.59,12.9-3,15-10.12s-3.74,9.44-3.74,9.44,14.72-2.94,16.47-9.9a39,39,0,0,1,.87,7.34c0,4.18-4,9.21-4,9.21l8.26-6.35s1.11,1.66,1.11,10-1.86,11-1.86,11l5.85-8.65,7.08,16.75S100.31,86.63,103.62,81.36Z"/><path class="cls-9" d="M63.77,109.87s-1.58,4.51-1.31,4.28,2.73,3.65,10.85,3.65c0,0-.57-5.34-1.53-5.61S63.77,109.87,63.77,109.87Z"/><path class="cls-9" d="M82.84,109.87s1.59,4.51,1.32,4.28-2.73,3.65-10.85,3.65c0,0,.57-5.34,1.53-5.61Z"/><path class="cls-9" d="M103.32,145.49s-.27.1-.7.31H44.11l-.72-.31c0-28.8,17.88-30.95,17.88-30.95a2.33,2.33,0,0,0,1.88-1.07,39.81,39.81,0,0,1,6.9-.59l2.86,4.91a1,1,0,0,0,.4-.14c1.49-.7,6.39-3.81,6.92-3.81a26.62,26.62,0,0,1,3.46,0,5.79,5.79,0,0,0,1.76.7S103.32,116.69,103.32,145.49Z"/><path class="cls-10" d="M81.44,121.16a.46.46,0,0,0-.4.29H65.66a.43.43,0,0,0-.39-.29.48.48,0,0,0-.48.48.47.47,0,0,0,.48.48.42.42,0,0,0,.39-.28H81a.45.45,0,0,0,.4.28.48.48,0,0,0,.48-.48A.49.49,0,0,0,81.44,121.16Z"/><path class="cls-10" d="M81.4,127.69A.47.47,0,0,0,81,128H65.62a.43.43,0,0,0-.4-.29.48.48,0,0,0-.48.48.49.49,0,0,0,.48.48.43.43,0,0,0,.4-.29H81a.47.47,0,0,0,.41.29.48.48,0,0,0,.47-.48A.47.47,0,0,0,81.4,127.69Z"/><path class="cls-10" d="M81.39,134.73a.46.46,0,0,0-.4.28H65.62a.46.46,0,0,0-.4-.28.47.47,0,0,0-.48.48.48.48,0,0,0,.48.48.46.46,0,0,0,.4-.29H81a.46.46,0,0,0,.4.29.48.48,0,0,0,.48-.48A.47.47,0,0,0,81.39,134.73Z"/><path class="cls-10" d="M81.39,141.44a.46.46,0,0,0-.4.29H65.62a.46.46,0,0,0-.4-.29.48.48,0,0,0-.48.48.47.47,0,0,0,.48.48.45.45,0,0,0,.4-.28H81a.45.45,0,0,0,.4.28.47.47,0,0,0,.48-.48A.48.48,0,0,0,81.39,141.44Z"/><path class="cls-11" d="M73.31,117.65s0,1.76.14,4.39.09,6.17.11,9.68,0,7-.11,9.68-.14,4.4-.14,4.4l-.15-4.4c-.07-2.64-.09-6.16-.11-9.68s0-7,.11-9.68Z"/><path class="cls-10" d="M73.92,121.64a.61.61,0,0,1-.61.62h0a.62.62,0,0,1-.62-.62h0a.61.61,0,0,1,.62-.61h0a.61.61,0,0,1,.61.61Z"/><path class="cls-10" d="M73.92,128.17a.61.61,0,0,1-.61.62h0a.62.62,0,0,1-.62-.62h0a.61.61,0,0,1,.62-.62h0a.61.61,0,0,1,.61.62Z"/><path class="cls-10" d="M73.92,135.21a.61.61,0,0,1-.61.61h0a.61.61,0,0,1-.62-.61h0a.61.61,0,0,1,.62-.62h0a.61.61,0,0,1,.61.62Z"/><path class="cls-10" d="M73.92,141.92a.61.61,0,0,1-.61.62h0a.62.62,0,0,1-.62-.62h0a.62.62,0,0,1,.62-.62h0a.61.61,0,0,1,.61.62Z"/></g></g></svg>