<svg xmlns="http://www.w3.org/2000/svg" viewBox="0 0 145.36 145.95"><defs><style>.cls-1{fill:#482539;}.cls-2{fill:#e1bf9c;}.cls-3{fill:#f2d1ac;}.cls-4,.cls-6{fill:#c09a80;}.cls-4{opacity:0.7;}.cls-5{fill:#d3a789;}.cls-7{fill:#e0b89b;}.cls-8{fill:#dae3df;}.cls-9{fill:#15151a;}.cls-10{fill:#111;}.cls-11{fill:none;}.cls-12{fill:#070707;}.cls-13{fill:#050606;}</style></defs><title>Asset 168</title><g id="Layer_2" data-name="Layer 2"><g id="Layer_1-2" data-name="Layer 1"><rect class="cls-1" width="145.36" height="145.95"/><path class="cls-2" d="M75.3,88.38v57h-31l-.76-.32c0-30.57,19-32.85,19-32.85h0c1.87,0,3.07-2.46,3.87-6.13.13-.56.24-1.15.33-1.78.17-1,.32-2.15.43-3.3.07-.69.13-1.39.2-2.11.28-3.49.37-7.3.37-10.91C67.76,88,71.93,88.38,75.3,88.38Z"/><path class="cls-3" d="M107.14,144.88V145l-.41.17h0l-.3.15H75.3v-57h.06c3.37,0,7.56-.42,7.56-.42,0,3.59.09,7.35.37,10.83.07.69.13,1.38.19,2.06.14,1.19.27,2.32.44,3.39v0c.06.48.15.91.24,1.34.8,3.94,2.06,6.59,4,6.59a16.67,16.67,0,0,1,6.23,2.47C99.93,118.1,107.1,126.16,107.14,144.88Z"/><path class="cls-4" d="M83.92,104.24v0a10,10,0,0,1-8.58,4.66h0a10.85,10.85,0,0,1-8.54-4.64c.18-1.05.33-2.16.44-3.31.06-.69.13-1.39.19-2.1a34.32,34.32,0,0,0,7.82,1h.09a32.2,32.2,0,0,0,8-1.1c.06.69.13,1.39.19,2.06C83.62,102,83.75,103.18,83.92,104.24Z"/><path class="cls-5" d="M75.39,23c-32.81,0-33,27.47-31.54,45.44-2.25-4.26-8.91-2.94-8.37,3.77.53,6.47,9.94,9.81,9.81,9.06,2.69,14.8,18.13,23.34,30.1,23.34h.25V23Z"/><path class="cls-6" d="M37.58,69.4a3.1,3.1,0,0,1,4.74-.9,2.72,2.72,0,0,1,.77,3c-.23.86-1.14.93-.91,2.24a2.29,2.29,0,0,0,1.31,1.9,3,3,0,0,1,1.1,1.21,3.22,3.22,0,0,1,.15,1.85c-.25,1.06-1.8.22-2.83-.25a19.87,19.87,0,0,1-3.4-2.76C37.14,74.12,36.5,71.13,37.58,69.4Z"/><path class="cls-7" d="M75.55,23c32.82,0,33,27.47,31.55,45.44,2.24-4.26,8.9-2.94,8.36,3.77-.53,6.47-9.93,9.81-9.8,9.06C103,96.1,87.53,104.64,75.55,104.64H75.3V23Z"/><path class="cls-6" d="M113.36,69.4a3.1,3.1,0,0,0-4.74-.9,2.74,2.74,0,0,0-.77,3c.23.86,1.14.93.92,2.24a2.29,2.29,0,0,1-1.31,1.9,3,3,0,0,0-1.11,1.21,3.31,3.31,0,0,0-.15,1.85c.25,1.06,1.8.22,2.83-.25a19.49,19.49,0,0,0,3.4-2.76C113.81,74.12,114.44,71.13,113.36,69.4Z"/><path class="cls-2" d="M75.11,30.77c-10.8,0-18.7,3.13-23.49,9.33-6.68,8.64-6.42,21.84-4,31.32.75,2.9,1.14,10.71,1.66,13.58,2.33,12.81,16.47,19.64,25.79,19.64h.25V30.78Z"/><path class="cls-3" d="M98.54,40.11C93.79,34,86,30.83,75.36,30.78v73.85C86,104.52,98.7,97,100.89,85c.51-2.87.9-10.68,1.66-13.58C105,62,105.24,48.78,98.54,40.11Z"/><path class="cls-8" d="M97,111.49A102.6,102.6,0,0,1,86.11,123.9c-5.71,5.5-8.77,12.66-10.36,19.35a1.72,1.72,0,0,0-.07-.21c-.21-1-.49-2-.8-3v0a37.36,37.36,0,0,0-9.47-16.14A103.24,103.24,0,0,1,54,110.82a33.25,33.25,0,0,1,4.43-4.41c1.37-1.06,2.37-1.93,3.15-2.65h0c1.61.46,3.21.87,4.82,1.18a45.87,45.87,0,0,0,9.69,1,42.58,42.58,0,0,0,7.84-.87,50.1,50.1,0,0,0,4.91-1.19h0c.79.7,1.76,1.52,3.07,2.54A41.74,41.74,0,0,1,97,111.49Z"/><path class="cls-9" d="M107.14,144.88a5,5,0,0,0-.41.33h0l-.3.15H44.32l-.76-.32c0-13.58,3.73-21.58,7.9-26.27,5.2-5.88,11.06-6.58,11.06-6.58h0c1.28,3.39.31,2.74,1.24,5.63A7.52,7.52,0,0,0,66.17,121a42.46,42.46,0,0,0,6,10.12,15.69,15.69,0,0,1,3,7,15.58,15.58,0,0,1,3-7,43.19,43.19,0,0,0,6-10,34.09,34.09,0,0,0,3.12-2.3c.48-.37,1,3.47,1.5,2.91a79.25,79.25,0,0,0,5.65-7.11,21.42,21.42,0,0,1,4.87,4.15,27.24,27.24,0,0,1,4,6.24C105.56,129.74,107.12,136.15,107.14,144.88Z"/><path class="cls-10" d="M70.73,70.82c0,3.71-5.47,7.39-11.9,7.55h-.44c-.54,0-1.06,0-1.54,0C49.05,78,48,74.81,48,71.23c0-3.79-2.28-6.86,11.19-6.86,2,0,3.72.07,5.11.19a15.77,15.77,0,0,1,4.19.78C71.43,66.44,70.73,68.39,70.73,70.82Z"/><path class="cls-10" d="M102.73,71.23c0,3.8-1.24,7.15-10.43,7.15a10.82,10.82,0,0,1-1.15,0,13.28,13.28,0,0,1-2-.25C84,77.13,80,74,80,70.82c0-3.79-1.67-6.45,11.58-6.45,2,0,3.61.07,5,.19,3.6.33,5.21,1.06,5.88,2.08C103.23,67.86,102.73,69.46,102.73,71.23Z"/><path class="cls-11" d="M62.78,65.07a44.14,44.14,0,0,0-8.13,0c-4,.37-6.86.63-6.47,5,.57,6.23,4.08,7.22,5.28,7.48,2.74.6,14,1.5,16.38-6.16a6.16,6.16,0,0,0-.07-4.2C69.32,65.94,64.74,65.24,62.78,65.07Z"/><path class="cls-12" d="M73.17,65.57c-.8-.12-2.7-.61-4.64-1-1.71-.33-3.47-.57-4.43-.67a95.64,95.64,0,0,0-12-.15c-4.38.3-7.74.66-7.91.91s-.38,2.52,0,2.77,1.59.75,1.89,1.58,1.52,6.77,4.23,8.4c4.47,2.68,19.47,2.8,22.06-7,.36-1.33.82-2.11,1.63-2.32A5.44,5.44,0,0,1,75.44,68V65.71A10.75,10.75,0,0,1,73.17,65.57ZM70,71.33C67.67,79,56.37,78.09,53.63,77.49c-1.2-.26-4.71-1.25-5.28-7.48-.39-4.33,2.45-4.59,6.47-5a44.14,44.14,0,0,1,8.13,0c2,.17,6.54.87,7,2.06A6.16,6.16,0,0,1,70,71.33Z"/><path class="cls-11" d="M87.77,65.07a44.13,44.13,0,0,1,8.13,0c4,.37,6.86.63,6.46,5-.56,6.23-4.07,7.22-5.27,7.48-2.74.6-14,1.5-16.38-6.16a6.22,6.22,0,0,1,.07-4.2C81.23,65.94,85.81,65.24,87.77,65.07Z"/><path class="cls-12" d="M75.16,65.71V68a5.44,5.44,0,0,1,1.45.17c.81.21,1.28,1,1.63,2.32,2.59,9.77,17.59,9.65,22.07,7,2.71-1.63,3.92-7.58,4.22-8.4s1.54-1.33,1.89-1.58.09-2.59,0-2.77-3.53-.61-7.91-.91a95.68,95.68,0,0,0-12,.15c-1,.1-2.71.34-4.43.67-1.94.38-3.84.87-4.63,1A10.88,10.88,0,0,1,75.16,65.71Zm5.5,1.42c.45-1.19,5-1.89,7-2.06a44.11,44.11,0,0,1,8.13,0c4,.37,6.85.63,6.46,5-.57,6.23-4.08,7.22-5.28,7.48-2.73.6-14,1.5-16.37-6.16A6.22,6.22,0,0,1,80.66,67.13Z"/><path class="cls-13" d="M75.66,144.84c0,.33,0,.52,0,.52l-.45-.26-.48-.26L54.09,133.39l7.39-9.6s-3.17-3.3-5-4.82c-.85-.7-3-.55-5-.2-2.23.37-4.36,1-4.54,1,.29-.41,3.61-5.06,7.09-9a33.25,33.25,0,0,1,4.43-4.41c1.37-1.06,2.37-1.93,3.15-2.65h0c.72-.65,1.28-1.17,1.8-1.63a33.07,33.07,0,0,0,3.15,1.13c0,.54-.08,1.11-.13,1.68-.09.91-.17,1.8-.28,2.53-.35,2.57-2.24,5.28-1.89,7.46A26.67,26.67,0,0,0,66.17,121a42.46,42.46,0,0,0,6,10.12,15.69,15.69,0,0,1,3,7,28.65,28.65,0,0,1,.49,4.87C75.71,143.8,75.68,144.43,75.66,144.84Z"/><path class="cls-13" d="M88.89,123.79l7.39,9.6L75.66,144.84l-.47.26-.46.26s0-.19,0-.52a31.26,31.26,0,0,1,.17-4.78v0c.09-.59.18-1.22.31-1.87a15.58,15.58,0,0,1,3-7,43.19,43.19,0,0,0,6-10,28.64,28.64,0,0,0,2-6.23c.35-2.18-1.54-4.89-1.89-7.46-.08-.71-.17-1.54-.26-2.41-.06-.56-.1-1.11-.15-1.65,1.11-.33,2.22-.7,3.32-1.13.5.43,1.05,1,1.74,1.59h0c.79.7,1.76,1.52,3.07,2.54a41.74,41.74,0,0,1,5,5.08c3.23,3.79,6.21,7.93,6.47,8.32-.17,0-2.08-.61-4.19-1s-4.45-.58-5.37.16C92.06,120.49,88.89,123.79,88.89,123.79Z"/></g></g></svg>