<svg xmlns="http://www.w3.org/2000/svg" xmlns:xlink="http://www.w3.org/1999/xlink" viewBox="0 0 145.36 145.95"><defs><style>.cls-1{fill:none;}.cls-2{fill:#5aadc5;}.cls-3{fill:#cebc63;}.cls-4{fill:#b6a457;}.cls-5{fill:#b7a65b;}.cls-6{fill:#e2bf9c;}.cls-7{fill:#f2d1ac;}.cls-8{fill:#a86528;}.cls-9{fill:#ccbc79;}.cls-10{clip-path:url(#clip-path);}.cls-11{fill:#c09a80;}.cls-12{fill:#d3a789;}.cls-13{fill:#e0b89b;}.cls-14{fill:#c7696e;}.cls-15{fill:#d87373;}.cls-16{fill:#dbcb69;}.cls-17{fill:#7c471d;}</style><clipPath id="clip-path"><rect class="cls-1" x="66.12" y="102.12" width="15.91" height="9.4"/></clipPath></defs><title>Asset 138</title><g id="Layer_2" data-name="Layer 2"><g id="Layer_1-2" data-name="Layer 1"><rect class="cls-2" width="145.36" height="145.95"/><path class="cls-3" d="M104.25,74.63c-1.73,3.28-1.82,8.31,0,13.27s9,13.23,8.92,19.71-3.51,11.63-4,15.08,4.79,6.06,2.61,11.93a8.35,8.35,0,0,1-4.35,4.39,7.57,7.57,0,0,0,6.13-5.35c1.56-4.9-2.44-8.33-.6-12.18s3.07-7.36,3.17-10.09,1.87-5-.31-9.58.77-6.26-3.27-10.91-6-8.93-6.72-11.51a44.81,44.81,0,0,0-1.54-4.76"/><path class="cls-4" d="M102.52,85.69c1.73,6.44,3.4,13.12,5.72,17.43s2.08,10.55,0,13.41-4.58,7-5.24,11.25c-1.31,8.63,4.11,9.31,4.11,9.31s-3.46,1.22-5-2.85c-4.31-11.1,2.89-17.3,2.89-22.52s-7-13.61-7.68-16,5.24-10,5.24-10"/><path class="cls-5" d="M67.09,129.18c-.53.83-.32.76,0,0"/><path class="cls-5" d="M71.29,95s-.56-6.52-2.87-2.69c-.83,1.36-1.42,2.28-1.94,3.23-.44-.65-1.07-.72-2,.77l-1.19,1.93c-.26-.89-.67-1.64-1.29-1.44a.91.91,0,0,0,.07-.14s-.49-5.82-2.51-3.21c-.44-.86-1.11-1.14-2.11.52-2.31,3.83-2.78,4.11-5.09,11.35s.18,6.66.84,10.5,2.59,5,3.42,9.78a9.51,9.51,0,0,1-.49,5.29l.21-.32a13.63,13.63,0,0,0,1.88-5.64,5.56,5.56,0,0,1,.15.67,9.6,9.6,0,0,1-.49,5.29l.21-.32a10.08,10.08,0,0,0,1.39-3.25,17.39,17.39,0,0,1,.57,2.29,9.48,9.48,0,0,1-.49,5.28l.21-.32c1.67-2.41,2-6.23,2.32-9.64a7.35,7.35,0,0,0-.25-2.3,17.33,17.33,0,0,1,1.8,5.31,9.38,9.38,0,0,1-.49,5.28c.07-.09.14-.2.22-.32,1.67-2.41,2-6.24,2.31-9.64s-2.68-7.1-3.23-12.49a7.06,7.06,0,0,1,0-1.21c.33,1.63,1.31,2.38,1.7,4.61.64,3.84,2.59,4.95,3.41,9.77a9.33,9.33,0,0,1-.49,5.29l.22-.32c1.67-2.41,2-6.25,2.31-9.65s-2.68-7.09-3.23-12.48,3.42-7.94,4.9-11.78m-11.6,21.24a7.66,7.66,0,0,1,.46,1.4c-.16-.46-.32-.92-.46-1.4"/><path class="cls-5" d="M63.19,133.17c-.52.82-.32.76,0,0"/><path class="cls-5" d="M59.6,134.84c-.54.83-.32.76,0,0"/><path class="cls-5" d="M56.17,130.84c-.54.81-.32.75,0,0"/><path class="cls-5" d="M57.92,130.84c-.53.81-.32.75,0,0"/><path class="cls-5" d="M82.66,133.9c.53.83.32.75,0,0"/><path class="cls-5" d="M83.37,111.45c-.56,5.39-3.52,9.08-3.24,12.48s.64,7.23,2.31,9.65c.09.12.15.22.22.32a9.42,9.42,0,0,1-.49-5.29c.83-4.82,2.76-5.92,3.42-9.76.38-2.23,1.36-3,1.68-4.62a8.14,8.14,0,0,1,0,1.21c-.56,5.39-3.52,9.08-3.24,12.49s.65,7.23,2.3,9.64l.23.32a9.38,9.38,0,0,1-.49-5.28,17.73,17.73,0,0,1,1.79-5.31,7.64,7.64,0,0,0-.24,2.3c.28,3.4.65,7.24,2.32,9.64.08.13.14.23.21.33a9.52,9.52,0,0,1-.49-5.29,18.77,18.77,0,0,1,.56-2.29,10.09,10.09,0,0,0,1.4,3.25c.08.12.15.21.21.32a9.52,9.52,0,0,1-.49-5.29,6.58,6.58,0,0,1,.15-.67,13.53,13.53,0,0,0,1.88,5.64l.22.32a9.41,9.41,0,0,1-.5-5.29c.83-4.82,2.78-5.93,3.42-9.78s3.15-3.27.83-10.5-2.77-7.52-5.09-11.36c-1-1.65-1.65-1.37-2.1-.52-2-2.6-2.51,3.23-2.51,3.23s0,.09.07.14c-.62-.21-1,.54-1.3,1.42L85.23,101c-.89-1.47-1.53-1.4-2-.75-.52-.94-1.11-1.87-1.94-3.23-2.31-3.83-2.87,2.69-2.87,2.69,1.48,3.84,5.46,6.38,4.91,11.78m6.22,10.85a8.66,8.66,0,0,1,.47-1.39c-.14.49-.31,1-.47,1.39"/><path class="cls-5" d="M86.56,137.89c.52.83.32.75,0,0"/><path class="cls-5" d="M90.32,139c.58.91.35.83,0,0"/><path class="cls-5" d="M93.59,135.56c.53.82.31.74,0,0"/><path class="cls-5" d="M91.83,135.56c.53.82.32.74,0,0"/><path class="cls-6" d="M74,92.47v52.81H45.33l-.71-.31c0-28.33,17.59-30.43,17.59-30.43h.13c.12,0,.27-.05.39-.09,1.44-.4,2.44-2.54,3.09-5.59a15.8,15.8,0,0,0,.31-1.66c.16-1,.3-2,.4-3.06.06-.65.12-1.28.18-1.94.26-3.25.34-6.78.34-10.11,0,0,3.87.38,7,.38"/><path class="cls-7" d="M103.55,145s-.26.1-.68.31H74V92.47h.07c3.11,0,7-.38,7-.38,0,3.31.07,6.8.34,10q.09,1,.18,1.92c.12,1.1.24,2.15.4,3.13v0c.07.45.15.85.23,1.25.6,3,1.48,5.13,2.77,5.86a2.45,2.45,0,0,0,.31.12,1.74,1.74,0,0,0,.64.13s17.57,2.1,17.57,30.43"/><path class="cls-8" d="M98.3,78.3c5.88-7.38,18.92,12.12,20.33,17.92s-1.49,6.26-4.48,9.36-6,9.36-4.88,11.3c1.91,3.34,5.55,2.3,7.76,1.87a9.27,9.27,0,0,0,3.78-1.7s-4.81,3.81-8.12,3.52-6.41-3.47-5.94-6.16.9-2.61,3.07-7.17c.82-1.72,6.22-7.78,3.86-11.75s-2.81-4.86-5.71-7.84S96.22,80.94,98.3,78.3"/><path class="cls-8" d="M90.93,127.7c-1.8-1.78-2.44-7.12-2.44-12.45a10.46,10.46,0,0,0-1.78-.55c-.33-.08-1.36-.37-1.36-.25,1.41,9.93-8.45,17.61-11,17.7h0l-.14,0-.1,0-.1,0-.14,0h0c-2.58-.09-12.44-7.77-11-17.7,0-.12-1,.17-1.37.25a10.58,10.58,0,0,0-1.76.55c0,5.33-.64,10.67-2.45,12.45-3.48,3.44-6.1,8.15-5.22,17.58H96.15c.88-9.43-1.73-14.14-5.22-17.58"/><path class="cls-8" d="M85.15,77c-1.74,3.13-1.82,7.93-.07,12.64s9,12.61,8.93,18.78-3.51,11.08-4,14.36,4.8,5.77,2.61,11.36a8.13,8.13,0,0,1-4.34,4.18,7.54,7.54,0,0,0,6.13-5.09c1.56-4.67-2.44-7.93-.6-11.6s3.06-7,3.16-9.6,1.87-4.76-.31-9.13.76-6-3.27-10.4-6-8.5-6.72-11A40.24,40.24,0,0,0,85.15,77"/><path class="cls-4" d="M96.54,80.88c-2.16,2.89-2.89,7.63-1.8,12.53S101.93,107,101,113.14s-5,10.54-6,13.73,4,6.33,1,11.59a8.34,8.34,0,0,1-4.88,3.61,7.67,7.67,0,0,0,6.78-4.28c2.19-4.44-1.32-8.17,1-11.57s4-6.58,4.48-9.14,2.5-4.46.95-9.07,1.59-5.83-1.79-10.72-4.83-9.2-5.16-11.72a38.72,38.72,0,0,0-.89-4.69"/><path class="cls-9" d="M98.91,65.27c-9.43,19.3,11.17,29.41,9.2,34.26s-6.16,9.36-4.83,13.82,2.93,4.13,4,7.77a5.44,5.44,0,0,1-1,5.58s3.36-2.86,3.68-4.75-2.2-4.6-3.14-7.44-1.6-2.81,2.07-8.49,5.57-12.24,2-14.52c-5.16-3.22-12-26.23-12-26.23"/><path class="cls-3" d="M86.35,97.05c3.38,6.07,10.48,9.9,11.81,15.15s1.53,8.08-1.87,11.35c-6.32,6.1-5.39,9.78-3.26,11.59s5.9.9,5.9.9-9.34.14-4.14-8.09c3.5-5.52,6.5-6.28,8.71-9.67,2.12-3.24,1.34-9.48-2-16.22s-3.78-9-3.31-11-11.77-5.29-12.57-4.13.69,10.12.69,10.12"/><path class="cls-5" d="M40.17,75.33c-1.55,5.55-1.24,7.18,1.75,9.77s5.7,7.25,6.17,10.5-4.58,13.25-4.58,13.25,3.05-8.84-.21-15.1-8.44-7.17-6.71-12.58,3.58-5.84,3.58-5.84"/><path class="cls-8" d="M97.75,85.44c1.89,2.9,4.56,5,7.85,7.9s9.23,7.39,8.49,11.36-8.36,1.72-10.73,3.66-3.4,4-2.18,5.37-4.44-1.62-.72-5,7.29-3,7.18-5.67-1.91-4.55-3.43-6.25-8.22-6.56-8-7.41a36.69,36.69,0,0,1,1.59-3.94"/><path class="cls-3" d="M63,74.21c1.09,3.54.24,8.51-2.4,13S49.29,98.6,48.19,105s1.3,12.07,1.15,15.55-6.18,5.15-4.77,11.25S48,136.91,48,136.91a7.57,7.57,0,0,1-5-6.39c-.64-5.1,3.93-7.73,2.82-11.86s-1.64-7.8-1.25-10.5-.92-5.24,2.07-9.36.4-6.29,5.23-10.12S59.46,81,60.59,78.6A43.68,43.68,0,0,1,63,74.21"/><path class="cls-8" d="M61,75.82c1.74,3.27,1.81,8.31,0,13.27s-9,13.23-8.92,19.71,3.5,11.63,4,15.07-4.81,6.07-2.62,11.93a8.35,8.35,0,0,0,4.35,4.4,7.6,7.6,0,0,1-6.14-5.35c-1.55-4.9,2.45-8.33.61-12.19s-3.07-7.36-3.18-10.08-1.86-5,.32-9.58-.76-6.26,3.27-10.91,6-8.93,6.71-11.51A46.16,46.16,0,0,1,61,75.82"/><path class="cls-3" d="M48.57,76.65c1.74,3.29,1.81,8.32,0,13.28s-9,13.23-8.92,19.71,3.5,11.63,4,15.07-4.8,6.07-2.61,11.93a8.3,8.3,0,0,0,4.34,4.4,7.57,7.57,0,0,1-6.12-5.35c-1.57-4.9,2.44-8.32.59-12.18s-3.06-7.37-3.16-10.08-1.86-5,.32-9.59-.77-6.26,3.25-10.91S46.35,84,47,81.42a45.48,45.48,0,0,1,1.54-4.77"/><path class="cls-4" d="M49.63,79.9c2.16,3,2.9,8,1.81,13.14s-7.19,14.32-6.24,20.73,5,11.06,5.94,14.41-4,6.64-1,12.17A8.34,8.34,0,0,0,55,144.13a7.59,7.59,0,0,1-6.78-4.49c-2.19-4.66,1.32-8.58-1-12.15s-4-6.89-4.48-9.58-2.5-4.7-.94-9.54-1.59-6.11,1.79-11.25,4.82-9.65,5.14-12.29a46.57,46.57,0,0,1,.9-4.93"/><g class="cls-10"><path class="cls-11" d="M82,107.17v0a9.26,9.26,0,0,1-8,4.33h0a10.09,10.09,0,0,1-7.92-4.31c.16-1,.31-2,.41-3.06q.09-1,.18-2a31.75,31.75,0,0,0,7.24,1H74a29.92,29.92,0,0,0,7.41-1c.06.64.11,1.28.17,1.91.13,1.1.25,2.16.41,3.14"/></g><path class="cls-12" d="M74,35.72c-30,0-30.14,24-28.8,39.73-2.06-3.69-8.14-2.32-7.64,3.58.48,5.64,9.06,8.21,8.94,7.59C49,99.41,63.1,106.52,74,107.52h.22V35.73H74"/><path class="cls-11" d="M39.08,76.53a3,3,0,0,1,4.4-.79,2.32,2.32,0,0,1,.7,2.62c-.2.75-1,.81-.84,2A2.09,2.09,0,0,0,44.55,82a2.68,2.68,0,0,1,1,1.07,2.76,2.76,0,0,1,.13,1.62c-.24.93-1.67.19-2.62-.22a19,19,0,0,1-3.16-2.43c-1.26-1.36-1.86-4-.86-5.52"/><path class="cls-13" d="M74.17,35.72c30,0,30.13,24,28.8,39.73,2-3.69,8.13-2.32,7.63,3.58-.48,5.64-9.06,8.21-8.95,7.59-2.44,12.79-16.57,19.9-27.48,20.9h-.24V35.73h.24"/><path class="cls-11" d="M109.31,76.53a3,3,0,0,0-4.39-.79,2.31,2.31,0,0,0-.72,2.62c.22.75,1.06.81.85,2A2.06,2.06,0,0,1,103.83,82a2.71,2.71,0,0,0-1,1.07,2.76,2.76,0,0,0-.13,1.62c.23.93,1.66.19,2.62-.22a18.88,18.88,0,0,0,3.14-2.43c1.28-1.36,1.88-4,.87-5.52"/><path class="cls-6" d="M73.86,42.54c-10,0-17.32,2.76-21.77,8.21-6.19,7.6-6,19.22-3.67,27.56.7,2.55,1.06,9.42,1.54,11.94,2.16,11.28,15.27,17.29,23.9,17.29h.23v-65h-.23"/><path class="cls-7" d="M95.57,50.76c-4.39-5.41-11.63-8.16-21.48-8.22v65c9.86-.1,21.64-6.68,23.66-17.28.48-2.52.84-9.39,1.54-11.94,2.27-8.32,2.5-19.92-3.72-27.55"/><path class="cls-14" d="M79.13,97.34s-2.27,2.43-5,2.43a7.51,7.51,0,0,1-4.92-2.38A32.77,32.77,0,0,1,74.08,97a41.66,41.66,0,0,1,5,.31"/><path class="cls-15" d="M75.51,96.22a1.31,1.31,0,0,0-1.43,1.11,1.31,1.31,0,0,0-1.43-1.11A19.7,19.7,0,0,0,69,97.35s2.76.29,3.55.29,1.49.31,1.5-.28c0,.59.58.36,1.36.36s3.69-.37,3.69-.37a20,20,0,0,0-3.62-1.13"/><path class="cls-9" d="M42.18,53.47C51.61,73.74,31,84.35,33,89.46s6.15,9.82,4.82,14.5-2.93,4.33-4,8.15,1,5.85,1,5.85-3.35-3-3.67-5,2.19-4.83,3.14-7.79,1.6-3-2.08-8.92S26.61,83.4,30.23,81c5.16-3.4,12-27.56,12-27.56"/><path class="cls-8" d="M47.26,63.5c9.43,20.26-11.95,27.55-9.19,36,1.71,5.21,6.15,9.82,4.81,14.5s-2.92,4.34-4,8.16,1,5.86,1,5.86-3.36-3-3.67-5,2.2-4.82,3.14-7.8,1.6-3-2.08-8.92-5.56-12.86-1.94-15.24c5.15-3.4,11.95-27.55,11.95-27.55"/><path class="cls-3" d="M119.06,85.44c-1.49-1.42-1-5-.22-7.52s-.48-4.11-2.84-5.68-3.31-10.35-3.94-20.42-6.14-12.34-12.12-18.73-22.5-10.35-27.7-9.5c-2.92.48-1.52,3,.37,5.29-3.86-.6-6.83-.77-6.83-.19,0,1.57-1.56,12.11-1.56,12.11.31,6.48,4.87,15.14,9.6,17.11a42.76,42.76,0,0,1,6,2.84l-.42-.49a14.59,14.59,0,0,0,5.3,3.47c2.63.79,4.27.77,5.82,1.2,1.76,3.22,2.06,4.62,2.51,9.31.64,6.52,4.18,7.68.64,11.07C85.59,93,91.6,97.77,91.6,97.77s-1.77-3-.06-5.67c1.56-2.4,6.76-4.38,8.87-9.87.84-2.19-1.32-6.41-.57-9.43,2.22,5.49,3.52,8,3,10.28-.63,2.54-3.55,5.32-3.55,5.32s5.11-.54,7.45-2.42c1.83-1.47,2.64-5.8,3-7,.52,1,2.08,3.72,2.16,3.88.48.84.36,4.26,5.77,5a11.69,11.69,0,0,0,8.22-1.71c-1,.77-5.33.62-6.83-.79"/><path class="cls-16" d="M77.37,22.85l.07-.11-.09.11c-.18-.08-.39-.15-.6-.23h0a24.75,24.75,0,0,0-18.83,1.11C46.9,29,35.85,41.18,33.11,48.84s1,10.07,0,14.89S32,68.42,28.64,71.4s-6.14,4.25-5.19,7.52a18.77,18.77,0,0,0,2.35,5.24S19.92,92.77,22.92,97c.42.6,6.81,8.16,2.79,11.93-2.87,2.71-4.22,6-4,8.08.38,4.51,6.82,8.61,8.5,9.41-1-.56-5.29-5.08-4.31-9.26.81-3.43,2.29-4.4,3.82-7s2.9-5.15.23-9.12C28.66,99.27,27.68,98.51,27,97a6.26,6.26,0,0,1-.78-4.1c1.57-6.53,7.55-10.5,10.7-16.59,1.52-2.94,1.79-6.83,1.66-10.07.45-.4.9-.79,1.32-1.21a24.69,24.69,0,0,0,1.06,3.64c1.73,4.55,4.72,7.8,3.14,11.34s-6.45,5.26-9.85,8.66c-2,2-.84,6.3.09,9,.37-2-1.29-4.8,2.18-7.62,4.87-4,9.3-3.49,13-8.73,2-2.77,2.67-3.59,0-11.82S56,59.3,61.36,54.47,72,45.52,73.6,40.68c2-6.29,3.3-13.76,3.28-16.65,1.23-.2,2-.3,2-.3s-.54-.48-1.48-.88M33.48,75.06c-1.53,1.72-2.86,3.25-4,4.73-1-2.51-1.24-4.56,2.05-7a38.75,38.75,0,0,0,5.6-5.32,14.52,14.52,0,0,1-3.6,7.57"/><path class="cls-16" d="M74.26,48.69l.83,1c.53.6,1.25,1.53,2.18,2.54l1.52,1.63c.5.6,1.15,1.13,1.76,1.73a22.32,22.32,0,0,0,2,1.75c.7.57,1.41,1.13,2.12,1.69l2.3,1.44a16.07,16.07,0,0,0,2.32,1.21,15.6,15.6,0,0,0,2.25,1c.74.26,1.45.51,2.1.72a11.67,11.67,0,0,0,1.81.48l1.41.33,1.25.3-1.27-.11c-.41,0-.9-.09-1.46-.15a8.58,8.58,0,0,1-1.89-.3l-2.19-.57a12.17,12.17,0,0,1-2.37-.87,14.45,14.45,0,0,1-2.44-1.19l-2.4-1.46c-.73-.6-1.45-1.19-2.17-1.76a20.65,20.65,0,0,1-2-1.88,19.21,19.21,0,0,1-1.69-1.86c-.51-.63-1-1.23-1.41-1.77-.88-1.09-1.42-2.11-1.89-2.78l-.68-1.07"/><path class="cls-16" d="M78.28,45.64s1.65,1.87,4.12,4.7c1.21,1.42,2.7,3,4.29,4.69.83.82,1.65,1.7,2.57,2.49s1.87,1.58,2.83,2.34a35.06,35.06,0,0,0,3,2,24.75,24.75,0,0,0,3.16,1.61,30.61,30.61,0,0,0,3.12,1.09,22.51,22.51,0,0,0,2.9.67c.92.2,1.77.21,2.51.32a13.26,13.26,0,0,0,2,.12l1.72.06-1.71.13a15,15,0,0,1-2,.06,16.74,16.74,0,0,1-2.57-.13A24.63,24.63,0,0,1,98,64.32a29.39,29.39,0,0,1-3.3-1.6,32.4,32.4,0,0,1-3.17-2.06c-1-.8-2-1.59-2.86-2.46s-1.74-1.73-2.57-2.57c-1.59-1.73-3-3.46-4.1-4.93s-2-2.78-2.68-3.66l-1-1.4"/><path class="cls-16" d="M87.69,38.26s2,.86,4.88,2.21c1.44.7,3.16,1.51,4.92,2.5a50.76,50.76,0,0,1,5.32,3.47,27.58,27.58,0,0,1,2.44,2.15A18.48,18.48,0,0,1,107.33,51a14.34,14.34,0,0,1,1.51,2.55,10.63,10.63,0,0,1,.82,2.53,10.79,10.79,0,0,1,.23,1.16c0,.37,0,.72,0,1.06s0,.64,0,.93-.09.54-.14.77c-.18.92-.27,1.46-.27,1.46s0-.54.08-1.48c0-.24,0-.49,0-.77s-.07-.57-.11-.9-.07-.65-.11-1-.2-.72-.29-1.1a10.58,10.58,0,0,0-.93-2.33,8.18,8.18,0,0,0-.73-1.18,11.24,11.24,0,0,0-.82-1.17,17.18,17.18,0,0,0-2.06-2.23c-.71-.73-1.58-1.37-2.38-2a53.19,53.19,0,0,0-5.15-3.5c-1.72-1-3.33-2-4.74-2.74-2.8-1.58-4.62-2.72-4.62-2.72"/><path class="cls-17" d="M35.51,42.54S56.11,8.8,90.16,23.47c0,0,20.9,11.05,20.9,28.35C111.06,51.82,40.79,50.42,35.51,42.54Z"/><path class="cls-8" d="M112.06,51.82h0l-.34-3.94c-2.45,3.74-12.34,3.42-12.34,3.42l.11.08c-20.3-.87-58.47-3.23-63-8.84,0,0-7.3,8.68-3.47,17.33,0,0,54.14,15.42,79.82,1.55C112.86,61.42,112.32,54.19,112.06,51.82Z"/><path class="cls-17" d="M42.11,53.66a1,1,0,1,1-.83-1.06,1,1,0,0,1,.83,1.06"/><path class="cls-17" d="M37.37,49.79c-.46.49-.16,1.49.65,2.25a3.07,3.07,0,0,0,2.3.5,3,3,0,0,0-.67-2.26c-.8-.76-1.83-1-2.28-.49"/><path class="cls-17" d="M45.7,50.72c.33.59-.17,1.5-1.14,2.06a3.1,3.1,0,0,1-2.35,0,3,3,0,0,1,1.15-2c1-.56,2-.55,2.34,0"/><path class="cls-17" d="M36.06,53.88c0-.67.84-1.26,1.94-1.31a3,3,0,0,1,2.09,1.1,3.1,3.1,0,0,1-2,1.3c-1.12.06-2-.43-2.07-1.09"/><path class="cls-17" d="M46.24,54.88c.18-.63-.54-1.4-1.62-1.7a3,3,0,0,0-2.26.59s.52,1.41,1.6,1.73,2.09,0,2.28-.62"/><path class="cls-17" d="M41.79,48.27c-.65-.09-1.29.73-1.45,1.84a3.08,3.08,0,0,0,.93,2.16,3.07,3.07,0,0,0,1.47-1.85c.14-1.11-.27-2.06-1-2.15"/><path class="cls-17" d="M38.53,57.87c-.55-.36-.54-1.42.06-2.36a3.08,3.08,0,0,1,2.09-1.07,3.07,3.07,0,0,1,0,2.35c-.6,1-1.53,1.42-2.1,1.08"/><path class="cls-17" d="M43,58.37c.63-.23.85-1.25.48-2.3a3.06,3.06,0,0,0-1.8-1.52,3.06,3.06,0,0,0-.48,2.31c.37,1,1.18,1.72,1.8,1.51"/><path class="cls-17" d="M57.26,56.21a.93.93,0,0,1-1,.83.95.95,0,1,1,.21-1.88.94.94,0,0,1,.83,1.05"/><path class="cls-17" d="M52.52,52.35c-.45.49-.15,1.49.65,2.25a3,3,0,0,0,2.3.49,3,3,0,0,0-.66-2.25c-.8-.76-1.83-1-2.29-.49"/><path class="cls-17" d="M60.85,53.28c.34.59-.16,1.5-1.13,2.06a3.12,3.12,0,0,1-2.36,0,3.11,3.11,0,0,1,1.15-2.06c1-.56,2-.54,2.34,0"/><path class="cls-17" d="M51.21,56.44c0-.68.84-1.26,1.95-1.31a3,3,0,0,1,2.08,1.09,3.06,3.06,0,0,1-2,1.31c-1.12,0-2-.43-2.08-1.09"/><path class="cls-17" d="M61.4,57.44c.17-.64-.55-1.4-1.62-1.7a3,3,0,0,0-2.27.59s.53,1.41,1.61,1.73,2.08,0,2.28-.62"/><path class="cls-17" d="M57,50.82c-.66-.09-1.3.73-1.45,1.84a3,3,0,0,0,.92,2.17A3.07,3.07,0,0,0,57.89,53c.14-1.11-.27-2.07-.94-2.16"/><path class="cls-17" d="M53.69,60.43c-.56-.37-.54-1.42.06-2.36A3.06,3.06,0,0,1,55.84,57a3,3,0,0,1-.06,2.35c-.6.95-1.53,1.42-2.09,1.08"/><path class="cls-17" d="M58.16,60.93c.63-.23.85-1.25.48-2.31a3.08,3.08,0,0,0-1.81-1.51,3.06,3.06,0,0,0-.48,2.31c.37,1,1.19,1.72,1.81,1.51"/><path class="cls-17" d="M72.93,58.16a.93.93,0,0,1-1,.83,1,1,0,1,1,.21-1.89.94.94,0,0,1,.83,1.06"/><path class="cls-17" d="M68.19,54.29c-.45.5-.15,1.49.65,2.25a3.07,3.07,0,0,0,2.3.5,3,3,0,0,0-.66-2.26c-.8-.76-1.83-1-2.29-.49"/><path class="cls-17" d="M76.52,55.23c.34.58-.16,1.49-1.13,2.05a3,3,0,0,1-2.35,0,3.06,3.06,0,0,1,1.14-2c1-.56,2-.55,2.34,0"/><path class="cls-17" d="M66.88,58.38c0-.67.85-1.26,2-1.31a3,3,0,0,1,2.08,1.1,3.06,3.06,0,0,1-2,1.31c-1.12.05-2-.44-2.08-1.1"/><path class="cls-17" d="M77.07,59.38c.17-.63-.55-1.39-1.62-1.69a3,3,0,0,0-2.27.59s.53,1.41,1.61,1.72,2.09,0,2.28-.62"/><path class="cls-17" d="M72.62,52.77c-.66-.09-1.3.73-1.45,1.84a3.07,3.07,0,0,0,.92,2.17,3.11,3.11,0,0,0,1.47-1.86c.14-1.11-.27-2.06-.94-2.15"/><path class="cls-17" d="M69.36,62.37C68.8,62,68.82,61,69.42,60A3.06,3.06,0,0,1,71.51,59a3,3,0,0,1-.06,2.35c-.59.94-1.53,1.41-2.09,1.07"/><path class="cls-17" d="M73.83,62.88c.63-.23.85-1.26.48-2.31a3.08,3.08,0,0,0-1.81-1.51,3,3,0,0,0-.48,2.3c.37,1,1.19,1.73,1.81,1.52"/><path class="cls-17" d="M88.36,58.6a.93.93,0,0,1-1,.83,1,1,0,1,1,1-.83"/><path class="cls-17" d="M83.62,54.73c-.45.49-.15,1.49.65,2.25a3.07,3.07,0,0,0,2.31.49,3,3,0,0,0-.67-2.25c-.8-.76-1.83-1-2.29-.49"/><path class="cls-17" d="M92,55.67c.33.58-.17,1.49-1.14,2a3,3,0,0,1-2.35,0,3,3,0,0,1,1.15-2c1-.56,2-.55,2.34,0"/><path class="cls-17" d="M82.32,58.82c0-.67.84-1.26,1.94-1.31a3,3,0,0,1,2.09,1.1,3.1,3.1,0,0,1-2,1.31c-1.12,0-2-.44-2.07-1.1"/><path class="cls-17" d="M92.5,59.82c.18-.63-.54-1.39-1.62-1.7a3,3,0,0,0-2.26.59s.52,1.41,1.6,1.73,2.09,0,2.28-.62"/><path class="cls-17" d="M88.05,53.21c-.65-.09-1.3.73-1.45,1.83a3.08,3.08,0,0,0,.93,2.17A3.11,3.11,0,0,0,89,55.36c.14-1.11-.27-2.06-1-2.15"/><path class="cls-17" d="M84.79,62.81c-.55-.36-.54-1.41.06-2.36a3.06,3.06,0,0,1,2.09-1.07,3.05,3.05,0,0,1-.06,2.36c-.59.94-1.52,1.41-2.09,1.07"/><path class="cls-17" d="M89.26,63.31c.63-.22.85-1.25.48-2.3a3,3,0,0,0-1.81-1.51,3,3,0,0,0-.47,2.3c.37,1.05,1.18,1.72,1.8,1.51"/><path class="cls-17" d="M103.69,57.54a.94.94,0,0,1-1,.83,1,1,0,1,1,.21-1.89.94.94,0,0,1,.83,1.06"/><path class="cls-17" d="M99,53.67c-.45.49-.15,1.49.65,2.25a3,3,0,0,0,2.3.49,3,3,0,0,0-.66-2.25c-.8-.76-1.83-1-2.29-.49"/><path class="cls-17" d="M107.28,54.6c.34.59-.16,1.5-1.13,2.06a3.12,3.12,0,0,1-2.36,0,3.09,3.09,0,0,1,1.15-2.05c1-.56,2-.55,2.34,0"/><path class="cls-17" d="M97.64,57.76c0-.67.84-1.26,2-1.31a3,3,0,0,1,2.08,1.09,3.06,3.06,0,0,1-2,1.31c-1.12,0-2-.43-2.08-1.09"/><path class="cls-17" d="M107.83,58.76c.17-.63-.55-1.4-1.62-1.7a3,3,0,0,0-2.27.59s.53,1.41,1.6,1.73,2.09,0,2.29-.62"/><path class="cls-17" d="M103.38,52.15c-.66-.09-1.3.73-1.46,1.83a3.08,3.08,0,0,0,.93,2.17,3.07,3.07,0,0,0,1.47-1.85c.14-1.11-.27-2.07-.94-2.15"/><path class="cls-17" d="M100.12,61.75c-.56-.36-.54-1.41.06-2.36a3.06,3.06,0,0,1,2.09-1.07,3.06,3.06,0,0,1-.06,2.36c-.59.94-1.53,1.41-2.09,1.07"/><path class="cls-17" d="M104.58,62.25c.64-.23.86-1.25.49-2.3a3,3,0,0,0-1.81-1.51,3,3,0,0,0-.48,2.3c.37,1,1.19,1.72,1.8,1.51"/></g></g></svg>