<svg xmlns="http://www.w3.org/2000/svg" viewBox="0 0 145.36 145.95"><defs><style>.cls-1{fill:#54c2ba;}.cls-2{fill:#5b131a;}.cls-3{fill:#937d5a;}.cls-4{fill:#e1bf9c;}.cls-5{fill:#f2d1ac;}.cls-6,.cls-8{fill:#c09a80;}.cls-6{opacity:0.7;}.cls-7{fill:#d3a789;}.cls-9{fill:#e0b89b;}.cls-10{fill:#c6696e;}.cls-11{fill:#d87373;}.cls-12{fill:#ad956a;}.cls-13{fill:#833694;}.cls-14{fill:#c0c0ce;}.cls-15{fill:#dfdfef;}.cls-16{fill:#9e1d24;}.cls-17{fill:#bc5e67;}</style></defs><title>Asset 209</title><g id="Layer_2" data-name="Layer 2"><g id="Layer_1-2" data-name="Layer 1"><rect class="cls-1" width="145.36" height="145.95"/><path class="cls-2" d="M127.8,70.18c0,8.79-26.89,29.4-55.74,29.4S16.32,81.81,16.32,73,42.23,60.76,71.08,60.76,127.8,61.4,127.8,70.18Z"/><path class="cls-3" d="M75.7,76.43A63.79,63.79,0,0,1,70.41,90c-2.64,4.72-10.68,10.79-11,17.27-.6,13.89,19.08,20.49,27,22.85s10.58,2.6,11.47,6,.16,9.13.16,9.13,6.68-3.65,8.57-6.45c4-6-.38-10.11-.38-10.11s-1.65,1.41.29,4.6,1.94,6,1.24,6.84-3.18,3.42-3.18,3.42,12.27-3.47,9.88-13.45c-.41-1.71-1.53-.46,0,0,3.41,1,2.77,6.65,2.77,6.65s8.32-10.77-8.53-16.87c-1.6-.58-10.28-2.72-11.17-9.9-.5-4,2.4-4.33,2.94-9.19.68-6.29-8.32-5-11.79-10.89-.66-1.13,2.61-1.77,0-4.83-3.14-3.7-4.3-3.41-8.79-5.59S75.7,76.43,75.7,76.43Z"/><path class="cls-4" d="M72.37,92v53.7H43.17a5.64,5.64,0,0,0-.71-.31c0-8,1.37-13.94,3.36-18.35,3.27-7.26,8.21-10.37,11.4-11.69a12.86,12.86,0,0,1,3.11-.92h.15a1.72,1.72,0,0,0,.38-.08c1.48-.42,2.48-2.58,3.15-5.69a16.71,16.71,0,0,0,.31-1.68c.17-1,.31-2,.41-3.13.06-.63.12-1.29.19-2,.26-3.32.35-6.9.35-10.28C65.27,91.56,69.2,92,72.37,92Z"/><path class="cls-5" d="M102.38,145.34a4.18,4.18,0,0,0-.7.31H72.37V92h.06c3.17,0,7.12-.39,7.12-.39,0,3.38.09,6.92.35,10.2.06.65.13,1.3.18,1.94.13,1.12.25,2.19.42,3.17v0c0,.45.14.86.22,1.27.61,3,1.52,5.22,2.83,6a1.88,1.88,0,0,0,.3.12,1.84,1.84,0,0,0,.66.12s9,1.09,14.24,12C100.89,130.89,102.38,137,102.38,145.34Z"/><path class="cls-6" d="M80.49,106.89v0a9.41,9.41,0,0,1-8.08,4.4h0a10.2,10.2,0,0,1-8.05-4.38c.17-1,.31-2,.41-3.11.06-.66.12-1.31.19-2a31.11,31.11,0,0,0,7.36,1h.09a29.51,29.51,0,0,0,7.53-1c.06.66.13,1.31.18,2C80.21,104.82,80.33,105.89,80.49,106.89Z"/><path class="cls-7" d="M72.34,34.24C41.88,34.18,41.7,58.66,43.06,74.63c-2.1-3.75-8.27-2.35-7.77,3.64.49,5.75,9.22,8.35,9.1,7.72,2.49,13,16.85,20.23,28,21.26h.24v-73Z"/><path class="cls-8" d="M36.82,75.74a3,3,0,0,1,4.47-.81A2.35,2.35,0,0,1,42,77.59c-.21.78-1.07.83-.86,2a2.07,2.07,0,0,0,1.24,1.7,2.78,2.78,0,0,1,1,1.08A2.82,2.82,0,0,1,43.57,84c-.24.95-1.69.19-2.67-.23a18,18,0,0,1-3.2-2.47C36.4,80,35.8,77.28,36.82,75.74Z"/><path class="cls-9" d="M72.5,34.24c30.46-.06,30.64,24.42,29.29,40.39,2.09-3.75,8.26-2.35,7.76,3.64-.49,5.75-9.22,8.35-9.09,7.72-2.5,13-16.86,20.23-28,21.26h-.23v-73Z"/><path class="cls-8" d="M108.24,75.74a3,3,0,0,0-4.47-.81,2.34,2.34,0,0,0-.72,2.66c.21.78,1.07.83.86,2a2.07,2.07,0,0,1-1.24,1.7,2.8,2.8,0,0,0-1,1.08,2.9,2.9,0,0,0-.13,1.66c.24.95,1.69.19,2.67-.23a18,18,0,0,0,3.2-2.47C108.66,80,109.25,77.28,108.24,75.74Z"/><path class="cls-4" d="M72.18,41.17C62,41.17,54.56,44,50.05,49.51c-6.29,7.74-6,19.55-3.73,28,.71,2.59,1.07,9.58,1.57,12.15,2.19,11.47,15.52,17.58,24.29,17.58h.24V41.18Z"/><path class="cls-5" d="M94.27,49.52c-4.48-5.5-11.84-8.3-21.85-8.34v66.08c10-.11,22-6.8,24.06-17.57.49-2.57.85-9.56,1.56-12.15C100.36,69.09,100.59,57.29,94.27,49.52Z"/><path class="cls-10" d="M77.54,96.9s-2.3,2.46-5.13,2.46a7.66,7.66,0,0,1-5-2.41,33,33,0,0,1,5-.37A41.54,41.54,0,0,1,77.54,96.9Z"/><path class="cls-11" d="M73.86,95.76a1.32,1.32,0,0,0-1.45,1.12A1.34,1.34,0,0,0,71,95.76a20.37,20.37,0,0,0-3.69,1.14s2.81.3,3.62.3,1.5.31,1.52-.28c0,.6.59.36,1.39.36s3.74-.38,3.74-.38A20.22,20.22,0,0,0,73.86,95.76Z"/><path class="cls-12" d="M105.42,51c-.4-1.27-.81-2.44-1.23-3.56V47c0-4.76-3.89-10.94-10.06-16.93S84.07,25.29,79,25.47l0,.1c-2.25-.53-14.32-3.12-21.5-.25C49.48,28.5,43,34,38.39,48.59s-.82,26.64.07,31.75C41.28,96.54,54.8,106.8,54.8,106.8a35.62,35.62,0,0,1-4.94-8.64,50.79,50.79,0,0,1-3-17.56c0-8.47,7.71-19,7.71-19a41.48,41.48,0,0,0-4.26,13.82,21.44,21.44,0,0,0,3,12.82s-4.72-9.39,2.83-16.4a54.14,54.14,0,0,0,6-6.69v0c-1.9,5.54,1.91,10.19,1.91,10.19s-.07-7.1,3.87-9.52c9.6-5.88,11.12-8.32,12.47-13A11,11,0,0,0,80.85,51l8.77,13.7c.42.59,1.09,1.6,1.87,2.9,2.27,3.8,5.42,10,5.42,15.43a50.4,50.4,0,0,1-3,17.56A35.78,35.78,0,0,1,89,109.25S102.53,99,105.35,82.78C106.24,77.67,110,65.68,105.42,51Z"/><path class="cls-13" d="M95,117.53c-3.93-1.88-8.6-3.07-8.35-2.51,2.55,3.58,1.6,6.59,1.18,11.72-.65,8-5.85,6-15.5,6-9.66.1-14.86,2-15.51-6-.42-5.13-1.37-8.14,1.18-11.72.25-.56-4.41.63-8.35,2.51A41.35,41.35,0,0,0,42.51,122a7.25,7.25,0,0,1,4.15,4.59,38.69,38.69,0,0,1,1.2,8.11c.42,6.14,3.51,8.9,3.32,11H93.45c-.18-2.07,2.9-4.83,3.33-11A38.77,38.77,0,0,1,98,126.57a7.25,7.25,0,0,1,4.15-4.59A41.35,41.35,0,0,0,95,117.53Z"/><path class="cls-14" d="M68.08,115c.45,6.94-2.57,14.8-3.25,17.06a28.3,28.3,0,0,1-3.33,6.5s2.61.24,3,.22,3.8.87,4.66-1.73,4.17-19.45,3.89-19.88S72,115,72,115Z"/><path class="cls-15" d="M63.5,109a25.64,25.64,0,0,0,9,1.79,75.28,75.28,0,0,0,9.21-1.29s2.58,3,.41,4.23-15.78,3.07-20.12-.22C61.34,112.93,63.5,109,63.5,109Z"/><path class="cls-15" d="M69.85,110.58c.35-.24,1.85,0,3,0s1.53-.34,2.47,0,1.52,3,1.52,3.37,0,1.3-.44,1.34,0,2.52.08,3.6c1.2,18.78-1.59,23.51-2.17,23.85s-10.34.61-10.34.61,2.66-6,3.69-9.26a80.48,80.48,0,0,0,3.09-18.33s-1.14.36-1.14-.65S68.92,111.22,69.85,110.58Z"/><path class="cls-16" d="M109.49,43.33H36.64a11.58,11.58,0,0,1,0-2.16C39.26,31,49,18.87,72.07,18.87c22.38,0,34.24,11.89,37.42,22.3A9.44,9.44,0,0,1,109.49,43.33Z"/><path class="cls-17" d="M109.49,56.39H36.64V43.33S49,34.27,72.07,34.27c22.38,0,37.42,9.06,37.42,9.06Z"/><path class="cls-16" d="M71.08,60.76C50.8,61.41,16.82,71,16.82,71s21-26.09,53.62-26.13c28.93,0,57.36,23.5,57.36,23.5S84.41,60.33,71.08,60.76Z"/></g></g></svg>