<svg xmlns="http://www.w3.org/2000/svg" xmlns:xlink="http://www.w3.org/1999/xlink" viewBox="0 0 145.36 145.95"><defs><style>.cls-1{fill:none;}.cls-2{fill:#b067a6;}.cls-3{fill:#493528;}.cls-4{fill:#e2bf9c;}.cls-5{fill:#f2d1ac;}.cls-6{clip-path:url(#clip-path);}.cls-7{fill:#c09a80;}.cls-8{fill:#d3a789;}.cls-9{fill:#e0b89b;}.cls-10{fill:#42698e;}.cls-11{fill:#e17ea0;}.cls-12{fill:#563825;}.cls-13{fill:#f9f9fa;}.cls-14{fill:#f1f2f2;}.cls-15{fill:#2c292a;}</style><clipPath id="clip-path"><rect class="cls-1" x="67.79" y="98.46" width="17.48" height="10.34"/></clipPath></defs><title>Asset 147</title><g id="Layer_2" data-name="Layer 2"><g id="Layer_1-2" data-name="Layer 1"><rect class="cls-2" width="145.36" height="145.95"/><path class="cls-3" d="M114.72,86.43s-2.86-2.38-1.16-17.59a43.45,43.45,0,0,0-1.82-16.56c.16.43-16.51,22.19-16.51,22.19-.57,6.07-1,12-1.14,16.12l-2.81-3.15s-2.37,5.19-2.71,7.25a1.38,1.38,0,0,0,0,.35l-9-5.91A54.67,54.67,0,0,0,80,95.72l-5.45-3.58s0,8.71,1.86,11.44c2,3.06.2,11.55.2,11.55a25,25,0,0,0,5.52-6.29c-.23,1.87-.53,3.28-.53,3.28a24.67,24.67,0,0,0,7.16-9.53c.12,1.29.24,2.61.26,3.9a18.09,18.09,0,0,1-2.21,8.12A32.16,32.16,0,0,0,94.31,103c.48,5.33,1.65,9.19,4.09,11.27-.33-.38-1.56-2.12-1.26-6.63.13-2,.43-4.25.79-6.45,1.91,5.73,7.52,8.93,7.52,8.93a21.24,21.24,0,0,1-2.91-14.21c.28-1.6.5-3,.68-4.25a29.43,29.43,0,0,0,1.28,7.23,24.2,24.2,0,0,0,6.23,10.19s-4-5.9-.33-21.87a19.1,19.1,0,0,0,.19-4.9c2.31,3.61,4.13,4.14,4.13,4.14"/><path class="cls-3" d="M71.27,78.4,64,83.19a77.25,77.25,0,0,0,.63-8.82L52.54,82.29a3.56,3.56,0,0,0,0-.47c-.45-2.76-3.64-9.71-3.64-9.71l-6.33,7.14C42,96.88,54.83,108.49,54.83,108.49s-3.08-5.43-3-10.87c0-1.74.19-3.5.35-5.23a33.07,33.07,0,0,0,9.59,12.77s-.4-1.9-.7-4.4a33.76,33.76,0,0,0,7.37,8.43S66,97.82,68.75,93.72c2.44-3.65,2.52-15.32,2.52-15.32"/><path class="cls-4" d="M76.48,87.86v58.07H44.92c-.51-.23-.78-.33-.78-.33,0-31.16,19.32-33.48,19.32-33.48,1.93,0,3.17-2.47,4-6.24.13-.57.24-1.18.33-1.81.18-1.07.33-2.19.44-3.36.07-.72.14-1.42.2-2.16.29-3.56.38-7.44.38-11.11,0,0,4.25.42,7.68.42"/><path class="cls-5" d="M108.93,145.6a6.91,6.91,0,0,0-.75.33H76.48V87.86h.07c3.43,0,7.7-.42,7.7-.42,0,3.65.09,7.49.37,11,.07.71.14,1.42.2,2.11.14,1.22.26,2.36.44,3.46v0c.07.48.16.92.25,1.36.81,4,2.1,6.71,4.09,6.71,0,0,19.33,2.32,19.33,33.48"/><g class="cls-6"><path class="cls-7" d="M85.26,104v0a10.18,10.18,0,0,1-8.73,4.75h0a11,11,0,0,1-8.69-4.73c.17-1.07.32-2.19.43-3.36.07-.71.14-1.42.2-2.16a34.51,34.51,0,0,0,8,1h.09a32.26,32.26,0,0,0,8.14-1.13c.07.71.14,1.42.2,2.11.14,1.22.27,2.36.44,3.46"/></g><path class="cls-8" d="M76.57,21.26c-33.43,0-33.62,28-32.14,46.32-2.29-4.34-9.07-3-8.52,3.84.54,6.58,10.12,10,10,9.22,2.74,15.09,18.47,23.79,30.67,23.79l.26,0V21.28l-.26,0"/><path class="cls-7" d="M38.05,68.52a3.18,3.18,0,0,1,4.83-.92,2.78,2.78,0,0,1,.78,3c-.23.88-1.15,1-.93,2.27a2.39,2.39,0,0,0,1.33,2,3.1,3.1,0,0,1,1.14,1.23A3.26,3.26,0,0,1,45.34,78c-.25,1.08-1.83.22-2.88-.26A19.67,19.67,0,0,1,39,74.91c-1.42-1.58-2.06-4.63-1-6.39"/><path class="cls-9" d="M76.74,21.26c33.43,0,33.62,28,32.14,46.32,2.29-4.34,9.07-3,8.51,3.84-.54,6.58-10.11,10-10,9.22-2.74,15.09-18.47,23.79-30.67,23.79l-.26,0V21.28l.26,0"/><path class="cls-7" d="M115.27,68.52a3.19,3.19,0,0,0-4.84-.92,2.78,2.78,0,0,0-.78,3c.24.88,1.15,1,.93,2.27a2.36,2.36,0,0,1-1.34,2,3.13,3.13,0,0,0-1.12,1.23A3.27,3.27,0,0,0,108,78c.25,1.08,1.83.22,2.88-.26a19.67,19.67,0,0,0,3.45-2.81c1.42-1.58,2.06-4.63,1-6.39"/><path class="cls-4" d="M76.29,29.16c-11,0-19.06,3.2-23.94,9.5-6.8,8.8-6.54,22.26-4,31.93.76,2.94,1.16,10.89,1.69,13.82,2.37,13.06,16.79,20,26.28,20h.25V29.16h-.25"/><path class="cls-5" d="M100.16,38.67c-4.84-6.26-12.8-9.46-23.62-9.51v75.26c10.83-.12,23.78-7.74,26-20,.53-2.91.92-10.88,1.69-13.82,2.51-9.64,2.74-23.08-4.08-31.92"/><path d="M108.88,145.6a6.47,6.47,0,0,0-.76.33H44.86c-.5-.23-.77-.33-.77-.33a60.8,60.8,0,0,1,.79-10.19c3.65-21.5,18.53-23.29,18.53-23.29h.15A3,3,0,0,0,64,112c1.46-.4,2.44.65,3.17-2.32l9.2,16.42,9.33-16.42c.63,2.64,1.58,1.45,2.82,2.13a2.33,2.33,0,0,0,.33.14,1.89,1.89,0,0,0,.7.13s19.34,2.32,19.34,33.48"/><polygon class="cls-10" points="76.32 142.74 76.35 142.82 76.35 142.74 76.32 142.74"/><path class="cls-11" d="M63.87,111.71a2.36,2.36,0,0,1-.43.09h-.16s-15,1.81-18.7,23.51a60.8,60.8,0,0,0-.8,10.28l.78.34H67.38l-.31-36.55c-.74,3-1.73,1.93-3.2,2.33"/><polygon class="cls-10" points="76.35 142.82 76.36 142.88 76.39 142.74 76.35 142.74 76.35 142.82"/><path class="cls-11" d="M109.53,145.59C109.53,114.15,90,111.8,90,111.8a2.07,2.07,0,0,1-.7-.13,2,2,0,0,1-.34-.13c-1.25-.7-2.2.5-2.85-2.16l-.45,36.55h23.1c.47-.23.76-.34.76-.34"/><polygon class="cls-12" points="51.39 126.58 51.39 129.01 51.4 129.01 57.64 133.97 63.87 129.01 63.88 129.01 63.88 126.58 51.39 126.58"/><path class="cls-11" d="M58.35,131.85a.73.73,0,1,1-.73-.73.72.72,0,0,1,.73.73"/><path class="cls-13" d="M70.22,113.73s-2.52-6.89-2.69-8.43c0,0-.68,1.43-1.41,3-.44,1-1.66,2.13-2.16,3.37-1.35,3.29-2.86,16.09-2.86,16.09L66,123.1s7.31-.55,10.52,3.35c.81,1-6.25-12.72-6.25-12.72"/><path class="cls-13" d="M82.8,113.73s2.58-6.89,2.74-8.43c0,0,.69,1.43,1.45,3,.45,1,1.7,2.13,2.21,3.37,1.37,3.29,2.87,16.09,2.87,16.09l-4.9-4.71s-7.47-.55-10.76,3.35c-.83,1,6.39-12.72,6.39-12.72"/><path class="cls-12" d="M44.43,67.58S32.09,29,70.52,19.33c0,0,18.31-4.77,33.19,12.35C103.71,31.68,61.1,32,44.43,67.58Z"/><path class="cls-14" d="M46.69,67.58S47.93,76,52,76.72c0,0,18.08,3.5,21.83-7.58l-1.58-3.5S48.21,61.93,46.69,67.58Z"/><path class="cls-14" d="M109,67.58s-1.23,8.39-5.31,9.14c0,0-18.09,3.5-21.84-7.58l1.59-3.5S107.49,61.93,109,67.58Z"/><path class="cls-15" d="M75.31,65.54c-.87-.11-2.94-.56-5-.91-1.88-.31-3.79-.53-4.84-.62a121.2,121.2,0,0,0-13.06-.14c-4.78.28-8.44.6-8.63.84s-.42,2.34,0,2.57,1.73.7,2.06,1.46,1.65,6.29,4.61,7.8C55.24,79,71.6,79.13,74.44,70.07c.37-1.23.88-2,1.77-2.16a8.41,8.41,0,0,1,1.59-.15V65.67a12.76,12.76,0,0,1-2.49-.13m-3.45,5.35C69.32,78,57,77.17,54,76.61c-1.31-.25-5.14-1.17-5.76-7-.43-4,2.67-4.25,7-4.6a59.82,59.82,0,0,1,8.86,0c2.15.18,7.13.82,7.63,1.91a5,5,0,0,1,.07,3.91"/><path class="cls-15" d="M77.49,65.67v2.09a8.35,8.35,0,0,1,1.57.15c.89.2,1.4.93,1.79,2.16,2.82,9.06,19.17,9,24.05,6.47,3-1.51,4.27-7,4.61-7.8s1.68-1.23,2-1.46.11-2.4,0-2.57-3.86-.56-8.63-.84A121.42,121.42,0,0,0,89.84,64c-1,.09-3,.31-4.83.62-2.11.35-4.18.8-5.05.91a12.64,12.64,0,0,1-2.47.13m6,1.31c.5-1.09,5.48-1.73,7.63-1.91a59.83,59.83,0,0,1,8.86,0c4.39.35,7.48.59,7,4.6-.62,5.78-4.45,6.7-5.75,7-3,.56-15.32,1.38-17.86-5.72A5,5,0,0,1,83.48,67"/><path class="cls-12" d="M72.36,27.75c-.89,3.73-6.79,11.56-1.54,26.15,3.4,9.5,14,14.18,14,14.18a20,20,0,0,1-6.88-15.57c.43-11.29-2.53-14.64-2.53-14.64s1.08,12.89,4.09,17.5,3.88,5.42,7.75,7.48A30.33,30.33,0,0,0,99.5,66.17S94,64.54,91,57.6s-6.93-14.39-6.93-14.39A23.37,23.37,0,0,0,95.54,58.78c9,5,12.89,15.35,15.55,26.19s-3.86,20.68-3.86,20.68,18-20.86,14.54-43.6c-2.43-15.94-20.8-33.6-22.4-34.3s-27,0-27,0"/></g></g></svg>