<svg xmlns="http://www.w3.org/2000/svg" viewBox="0 0 145.36 146.06"><defs><style>.cls-1{fill:#8ebeb4;}.cls-2{fill:#bc9f6c;}.cls-3{fill:#e1bf9c;}.cls-4{fill:#f2d1ac;}.cls-5,.cls-7{fill:#c09a80;}.cls-5{opacity:0.7;}.cls-6{fill:#d3a789;}.cls-8{fill:#e0b89b;}.cls-9{fill:#c6696e;}.cls-10{fill:#d87373;}.cls-11{fill:#f9d78c;}.cls-12{fill:#601212;}.cls-13{fill:#c52026;}</style></defs><title>Asset 188</title><g id="Layer_2" data-name="Layer 2"><g id="Layer_1-2" data-name="Layer 1"><rect class="cls-1" width="145.36" height="145.95"/><path class="cls-2" d="M83.3,89.43a18.92,18.92,0,0,0-7.81,1.7A19,19,0,0,0,46,106.87c0,2.62-4.67,7.61-3.72,9.88a14.44,14.44,0,0,0,2.53,4.06c3.48,4.22,14.26,5,20.15,5a18.85,18.85,0,0,0,7.81-1.7,18.83,18.83,0,0,0,10.58,3.23c6.85,0,17.41-.57,20.75-6a20.41,20.41,0,0,0,1.44-3c.87-2.17-3.22-7.46-3.22-9.94A19,19,0,0,0,83.3,89.43Z"/><path class="cls-3" d="M75.08,91.63v54.43H45.49a6.06,6.06,0,0,0-.72-.31,47.25,47.25,0,0,1,2.51-16.35c3.48-9.65,9.75-13.18,13.19-14.4a12.75,12.75,0,0,1,2.41-.64H63a2.88,2.88,0,0,0,.4-.09c1-.27,1.79-1.35,2.4-3a20.5,20.5,0,0,0,.8-2.76c.12-.56.22-1.13.31-1.71.16-1,.31-2,.41-3.17.06-.64.13-1.31.19-2,.27-3.35.35-7,.35-10.41C67.88,91.24,71.86,91.63,75.08,91.63Z"/><path class="cls-4" d="M105.5,145.75a4.45,4.45,0,0,0-.71.31H75.08V91.63h.06c3.22,0,7.22-.39,7.22-.39,0,3.41.09,7,.36,10.31l.18,2c.13,1.12.25,2.22.42,3.21v0c.06.44.14.88.23,1.27a20.47,20.47,0,0,0,1,3.67h0a4.7,4.7,0,0,0,1.79,2.37,2.12,2.12,0,0,0,.31.14,2.46,2.46,0,0,0,.66.11,10.46,10.46,0,0,1,1.45.31c3.28,1,11.27,4.5,14.86,16.85a45.3,45.3,0,0,1,1.72,11C105.48,143.59,105.5,144.65,105.5,145.75Z"/><path class="cls-5" d="M83.3,106.78v0a9.54,9.54,0,0,1-8.19,4.46h0a10.32,10.32,0,0,1-8.15-4.44c.16-1,.3-2,.41-3.15.06-.67.12-1.33.18-2a32,32,0,0,0,7.47,1h.09a30.23,30.23,0,0,0,7.63-1.06c.06.67.13,1.33.19,2C83,104.68,83.14,105.76,83.3,106.78Z"/><path class="cls-6" d="M75,33.14C44.16,33.08,44,57.9,45.36,74.08c-2.12-3.79-8.38-2.38-7.87,3.7.49,5.82,9.34,8.46,9.22,7.82C49.24,98.78,63.79,106.1,75,107.14h.24v-74Z"/><path class="cls-7" d="M39,75.21a3.06,3.06,0,0,1,4.53-.82,2.37,2.37,0,0,1,.73,2.7c-.22.78-1.08.84-.87,2a2.1,2.1,0,0,0,1.25,1.72,2.4,2.4,0,0,1,1.2,2.78c-.24,1-1.72.2-2.7-.23a19,19,0,0,1-3.25-2.5C38.62,79.48,38,76.77,39,75.21Z"/><path class="cls-8" d="M75.2,33.14c30.88-.06,31.06,24.76,29.68,40.94,2.12-3.79,8.38-2.38,7.87,3.7-.49,5.82-9.34,8.46-9.22,7.82C101,98.78,86.45,106.1,75.2,107.14H75v-74Z"/><path class="cls-7" d="M111.42,75.21a3.06,3.06,0,0,0-4.53-.82,2.39,2.39,0,0,0-.73,2.7c.22.78,1.09.84.88,2a2.11,2.11,0,0,1-1.26,1.72,2.81,2.81,0,0,0-1.06,1.1,2.89,2.89,0,0,0-.14,1.68c.24,1,1.72.2,2.71-.23a18.59,18.59,0,0,0,3.24-2.5C111.85,79.48,112.46,76.77,111.42,75.21Z"/><path class="cls-3" d="M74.88,40.17C64.57,40.17,57,43,52.45,48.62,46.07,56.46,46.32,68.44,48.67,77c.72,2.63,1.09,9.71,1.58,12.32C52.48,101,66,107.16,74.88,107.16h.24v-67Z"/><path class="cls-4" d="M97.26,48.64c-4.53-5.58-12-8.42-22.14-8.47v67c10.16-.1,22.3-6.89,24.39-17.8.49-2.61.86-9.69,1.58-12.32C103.44,68.46,103.67,56.5,97.26,48.64Z"/><path class="cls-9" d="M80.31,96.65s-2.33,2.49-5.2,2.49A7.77,7.77,0,0,1,70,96.7a33.94,33.94,0,0,1,5.07-.37A42.64,42.64,0,0,1,80.31,96.65Z"/><path class="cls-10" d="M76.58,95.5a1.34,1.34,0,0,0-1.47,1.13,1.36,1.36,0,0,0-1.47-1.13,20.59,20.59,0,0,0-3.73,1.15s2.84.3,3.66.3,1.52.32,1.54-.28c0,.61.6.37,1.41.37s3.79-.39,3.79-.39A20.59,20.59,0,0,0,76.58,95.5Z"/><path class="cls-11" d="M105.89,96.64c-.14,2.71-.29,3,1,5.14s2.78,3,1.35,5.38-3.78,2.71-3.63,4.85,2.71,3.15,2.28,6c-.4,2.59-4.48,5.31-5.25,5.78.62-.45,3.25-2.54,2.88-5.18-.43-3-.76-3.16-3.9-4.86s-3.61-2.47-2.74-4.89,3.72-2.66,1.56-5.23-3.38-4.34-2.82-5.91S96.24,95,98.78,92c1.57-1.85,1.34-6,1.34-7.88s2.56-10.86-1.57-14.8c-.75-.71-2-2.32-3.55-4.19-1.24-1.54-2.68-3.26-4.11-4.78a22.48,22.48,0,0,1-3.76-5.93c-.93-2-1.53-3.65-1.67-4,0,.43.31,2.36.5,3.88.06.55.12,1,.14,1.42A8.88,8.88,0,0,0,89.36,62c-1-.61-5.32-3.24-7-5.56a13.07,13.07,0,0,1-1.58-2.78,10.3,10.3,0,0,1-.2-7.62,38,38,0,0,1-5.13,6.51c-.19.19-.39.35-.6.54a71.35,71.35,0,0,1-8.07,5.57,22,22,0,0,0,4.42-5.86,8.93,8.93,0,0,0,.54-1.12c.54-1.28,2.72-8,2.72-8a104.17,104.17,0,0,1-5.52,9A33.45,33.45,0,0,1,63,59.16c-.84.67-2,1.58-3.2,2.64-4.5,3.8-10.75,9.52-11.31,12.66-.7,4,1.29,12.74,2.57,16.31s1.44,4.73,0,6.16-5,4-4.42,5.29,2.72,3.42,2.29,5.14-5.13,5.84-5.73,8.16c-1,4.09,5.17,7.57,5.89,8-.75-.24-9.13-3.48-8.17-7.82.62-2.82.14-3.28-1.44-5.43s-3.85-5.73-1.72-7.86,5.15-4.59,4.44-7-8.38-19.26-8.38-25.21a52.3,52.3,0,0,1,1.06-8.88,69.57,69.57,0,0,1,2.68-10.07c2.42-6.82,6.16-13.63,11.82-17.3,12.16-7.86,20.73-9.09,25-8.09s8.65-.75,9.79-.3,12.12,5.09,16.27,9.8C103.67,39,111.6,47.86,115,58.19a29.23,29.23,0,0,1,1.66,9.42c0,.35,0,.7,0,1.06C116.16,82.24,106,94,105.89,96.64Z"/><path class="cls-12" d="M116.7,67.61c0,.35,0,.7,0,1.06-5.75-1.12-13.2-2.41-21.68-3.57-5.79-.79-12-1.52-18.59-2.08-5.77-.56-11.35-1-16.6-1.22-9.84-.52-18.51-.6-24.92-.54a69.57,69.57,0,0,1,2.68-10.07c5.66.15,17.67.59,31.33,1.48l.64,0c.54,0,1.08.09,1.62.1,1.18.1,2.38.21,3.65.29.77.09,1.56.15,2.37.23h.12a.13.13,0,0,1,.1,0l3.34.31c1.5.16,2.93.3,4.28.47.31,0,.62.09.94.11s.78.1,1.17.14c11.73,1.41,22,2.89,27.91,3.8A29.23,29.23,0,0,1,116.7,67.61Z"/><path class="cls-12" d="M98.2,131.83C94,124.61,91,119.5,89.69,115a12.54,12.54,0,0,0-2.41-.64h-.15a3.1,3.1,0,0,1-.39-.09c-1-.27-1.78-1.35-2.41-3a11.06,11.06,0,0,1-2,.76c-2.64.75-7.07,1.87-7.07,1.87a108.14,108.14,0,0,1,4.29,10.69c1.74,5.08-1,8.9-4.42,9-3.38-.14-6.16-4-4.42-9A106.48,106.48,0,0,1,75,113.92s-4.44-1.12-7.08-1.87a11.48,11.48,0,0,1-2.06-.76c-.61,1.63-1.41,2.71-2.4,3a2.88,2.88,0,0,1-.4.09h-.14a12.75,12.75,0,0,0-2.41.64c-1.3,4.5-4.27,9.61-8.5,16.83-2.35,4-.72,11.2.64,14.23H97.55C98.91,143.28,100.54,135.83,98.2,131.83Z"/><path class="cls-13" d="M108.3,62.82a3.23,3.23,0,1,1-1.43-4.34A3.23,3.23,0,0,1,108.3,62.82Z"/><path class="cls-13" d="M91.31,54.22s1.85-8,4.13-8.15,11,13.26,10,15.29-17,2.91-18.22,1S91.31,54.22,91.31,54.22Z"/><path class="cls-13" d="M119.52,68.51s5.37-6.23,4.12-8.15-17.19-1-18.23,1,7.7,15.41,10,15.29S119.52,68.51,119.52,68.51Z"/></g></g></svg>