<svg xmlns="http://www.w3.org/2000/svg" viewBox="0 0 145.36 145.95"><defs><style>.cls-1{fill:#ee837c;}.cls-2{fill:#9b5458;}.cls-3{fill:#e1bf9c;}.cls-4{fill:#f2d1ac;}.cls-5,.cls-7{fill:#c09a80;}.cls-5{opacity:0.7;}.cls-6{fill:#d3a789;}.cls-8{fill:#e0b89b;}.cls-9{fill:#c6696e;}.cls-10{fill:#d87373;}.cls-11{fill:#2c0f0f;}.cls-12{fill:#f6f0d7;}.cls-13{fill:#0f0f0f;}</style></defs><title>Asset 177</title><g id="Layer_2" data-name="Layer 2"><g id="Layer_1-2" data-name="Layer 1"><rect class="cls-1" width="145.36" height="145.95"/><path class="cls-2" d="M83.84,110.26c0,1.64-6.46,3-11.88,3s-9.8-1.33-9.8-3,4.39-3,9.8-3S83.84,108.63,83.84,110.26Z"/><path class="cls-3" d="M73.13,91v54.43H43.54l-.73-.31c0-12.19,3.16-19.67,6.85-24.26,5.13-6.37,11.27-7.12,11.27-7.12h.14a2.83,2.83,0,0,0,.4-.08c1.49-.41,2.51-2.62,3.19-5.77a16.61,16.61,0,0,0,.31-1.7c.17-1,.32-2.06.42-3.15.06-.67.12-1.34.19-2,.27-3.34.35-7,.35-10.42C65.93,90.64,69.92,91,73.13,91Z"/><path class="cls-4" d="M103.55,145.16s-.27.1-.71.31H73.13V91h.06c3.22,0,7.22-.4,7.22-.4,0,3.43.08,7,.35,10.34.07.67.13,1.33.19,2,.13,1.14.25,2.22.42,3.24v0c.06.46.14.87.22,1.29.63,3,1.54,5.29,2.87,6a1,1,0,0,0,.31.12,1.65,1.65,0,0,0,.66.13s6.48.77,11.68,7.64C100.62,126,103.55,133.41,103.55,145.16Z"/><path class="cls-5" d="M81.37,106.2v0a9.58,9.58,0,0,1-8.2,4.46h0A10.29,10.29,0,0,1,65,106.24c.16-1,.31-2,.41-3.15.06-.67.12-1.33.19-2a31.89,31.89,0,0,0,7.47,1h.08A30.37,30.37,0,0,0,80.77,101c.06.67.12,1.33.18,2C81.08,104.11,81.2,105.18,81.37,106.2Z"/><path class="cls-6" d="M73.11,32.57C42.23,32.51,42.05,57.32,43.42,73.5c-2.12-3.79-8.38-2.38-7.87,3.7.5,5.82,9.35,8.46,9.22,7.82,2.53,13.18,17.09,20.5,28.34,21.54h.23v-74Z"/><path class="cls-7" d="M37.11,74.63a3,3,0,0,1,4.52-.82,2.37,2.37,0,0,1,.73,2.7c-.21.78-1.08.84-.87,2a2.09,2.09,0,0,0,1.26,1.72,2.86,2.86,0,0,1,1,1.1A2.82,2.82,0,0,1,43.94,83c-.24,1-1.71.2-2.7-.23A18.59,18.59,0,0,1,38,80.31C36.68,78.9,36.07,76.19,37.11,74.63Z"/><path class="cls-8" d="M73.26,32.57c30.88-.06,31.06,24.75,29.68,40.93,2.12-3.79,8.39-2.38,7.87,3.7-.49,5.82-9.34,8.46-9.22,7.82-2.52,13.18-17.08,20.5-28.33,21.54H73v-74Z"/><path class="cls-7" d="M109.48,74.63a3,3,0,0,0-4.52-.82,2.38,2.38,0,0,0-.74,2.7c.22.78,1.09.84.87,2a2.07,2.07,0,0,1-1.25,1.72,2.81,2.81,0,0,0-1.06,1.1,2.9,2.9,0,0,0-.14,1.68c.24,1,1.72.2,2.71-.23a18.59,18.59,0,0,0,3.24-2.5C109.91,78.9,110.51,76.19,109.48,74.63Z"/><path class="cls-3" d="M72.94,39.59c-10.31,0-17.86,2.84-22.43,8.46-6.37,7.83-6.13,19.81-3.78,28.41.72,2.62,1.09,9.7,1.59,12.31,2.22,11.62,15.73,17.81,24.62,17.81h.24v-67Z"/><path class="cls-4" d="M95.33,48.06c-4.54-5.58-12-8.42-22.15-8.46v67c10.16-.1,22.3-6.89,24.39-17.8.49-2.61.86-9.69,1.58-12.31C101.5,67.88,101.73,55.93,95.33,48.06Z"/><path class="cls-9" d="M78.38,96.07s-2.33,2.5-5.21,2.5a7.77,7.77,0,0,1-5.07-2.44,33.07,33.07,0,0,1,5.07-.38A42.71,42.71,0,0,1,78.38,96.07Z"/><path class="cls-10" d="M74.65,94.92a1.36,1.36,0,0,0-1.48,1.13,1.34,1.34,0,0,0-1.47-1.13A20.86,20.86,0,0,0,68,96.07s2.84.3,3.66.3,1.53.32,1.54-.28c0,.61.6.37,1.41.37s3.8-.39,3.8-.39A20.86,20.86,0,0,0,74.65,94.92Z"/><path class="cls-11" d="M103.55,145.16s-.27.1-.71.31H43.54l-.73-.31c0-12.19,3.16-19.67,6.85-24.26a16.16,16.16,0,0,0,11.54,8.38,103.32,103.32,0,0,0,11.93,1.51c6.18.46,12-.55,15.21-2.29a33.33,33.33,0,0,0,8.77-7.08C100.62,126,103.55,133.41,103.55,145.16Z"/><path class="cls-12" d="M67.7,118.73c-1.26,2-1.65,1.24-2.34,5.63-1.22,7.7,0,19.79,0,19.79s-7.34.38-8.9-3.17c-.32-.71-2.53.33-3.67,1.86-.57.79,1-17,3.22-21.37.44-.84,3.63-5.15,4.71-4.65S67.7,118.73,67.7,118.73Z"/><path class="cls-12" d="M64.58,108.31c-1.48,1.23-.47,2.5.61,3.07s3.09,1.15,7.9,1.15,8-1,8.87-1.86-.06-2-.06-2,2.53-.07,2.28,1.39a5.36,5.36,0,0,0,1.34,4.11c1,1.23,2.37.94,0,2.61-4,2.82-6.6,3.45-12.55,3.45s-8-.83-11-2.34c-2.14-1.05-3.64-1.88-2.1-3.26A8.65,8.65,0,0,0,62,111.9c.81-1.19-1.43-1.86-.06-2.79A4.37,4.37,0,0,1,64.58,108.31Z"/><path class="cls-13" d="M101.14,82.75c.59,0,0-3.46,1.94-5.85s5-10.44,5-18.48-2.58-15.18-9.3-22.78S82.16,24.35,82.16,24.35l4.55,4.56s-2.45-3.7-11.25-6.66c-6.94-2.34-11.44.26-11.44.26s4.58-.17,6,2a7.48,7.48,0,0,0,1.63,1.4s-2.13-5.25-12-.9S49.91,37.16,43,39.55C36,42,34,38.85,34,38.85s3,5.51,8.48,5.53c1,0,1,0,1,0A54,54,0,0,0,41,54.65c-.4,4.5.84,7.57,1.22,16,.33,7.18,2.12,3.5,4.24,8.8a11.91,11.91,0,0,1,.75,3.77c.79.21,2.86-4.31,1.37-12.17-1-5.1,3.81-24.43,15.33-20.66,7,2.3,8.83,7,14.1,2.83,4.54-3.6,10.9-5.66,15.64-2.82s7.42,9.24,6.59,19.44C99.16,82.85,101.14,82.75,101.14,82.75Z"/></g></g></svg>