<svg xmlns="http://www.w3.org/2000/svg" viewBox="0 0 145.36 145.95"><defs><style>.cls-1{fill:#f0ebbe;}.cls-2{fill:#e1bf9c;}.cls-3{fill:#f2d1ac;}.cls-4,.cls-6{fill:#c09a80;}.cls-4{opacity:0.7;}.cls-5{fill:#d3a789;}.cls-7{fill:#e0b89b;}.cls-8{fill:#d7c591;}.cls-9{fill:#416d41;}.cls-10{fill:#3a643a;}.cls-11{fill:#2c4c2b;}.cls-12{fill:#efefef;}</style></defs><title>Asset 170</title><g id="Layer_2" data-name="Layer 2"><g id="Layer_1-2" data-name="Layer 1"><rect class="cls-1" width="145.36" height="145.95"/><path class="cls-2" d="M73.12,90.75v54.43H43.53a6.74,6.74,0,0,0-.74-.32c0-.56,0-1.1,0-1.59.47-21.29,10.89-27.43,15.71-29.15a12,12,0,0,1,2.38-.63,2.2,2.2,0,0,0,2-1.2s0,0,0,0a13.25,13.25,0,0,0,1.72-4.61c.13-.54.23-1.1.32-1.7.16-1,.29-2,.41-3.15,0-.67.13-1.33.19-2,.27-3.34.35-7,.35-10.41C65.92,90.36,69.9,90.75,73.12,90.75Z"/><path class="cls-3" d="M103.54,144.86a5.41,5.41,0,0,0-.71.32H73.12V90.75h.06c3.22,0,7.22-.39,7.22-.39,0,3.42.07,7,.35,10.33,0,.66.13,1.33.19,2,.13,1.14.23,2.22.4,3.24v0c.08.46.16.87.24,1.28a17.4,17.4,0,0,0,1,3.36,4.55,4.55,0,0,0,2.06,2.72,1.54,1.54,0,0,0,.82.21S103.54,115.65,103.54,144.86Z"/><path class="cls-4" d="M81.35,105.89v0a9.58,9.58,0,0,1-8.2,4.46h0A10.31,10.31,0,0,1,65,105.93c.16-1,.31-2.06.41-3.15.06-.67.13-1.33.19-2a31.89,31.89,0,0,0,7.47,1h.08a30.37,30.37,0,0,0,7.64-1.06c.06.67.12,1.33.18,2C81.06,103.79,81.18,104.87,81.35,105.89Z"/><path class="cls-5" d="M73.2,28.32c-31.35,0-31.52,26.24-30.13,43.41-2.15-4.07-8.5-2.81-8,3.59.51,6.19,9.49,9.38,9.36,8.66C47,98.11,61.76,106.27,73.2,106.27h.24V28.33Z"/><path class="cls-6" d="M37.09,72.61a3,3,0,0,1,4.52-.86,2.59,2.59,0,0,1,.73,2.85c-.21.82-1.08.88-.87,2.14a2.21,2.21,0,0,0,1.26,1.81,2.91,2.91,0,0,1,1.05,1.16,3,3,0,0,1,.14,1.77c-.24,1-1.71.2-2.7-.24A19,19,0,0,1,38,78.6C36.66,77.12,36.05,74.26,37.09,72.61Z"/><path class="cls-7" d="M73.35,28.32c31.34,0,31.52,26.24,30.13,43.41,2.14-4.07,8.51-2.81,8,3.59C111,81.51,102,84.7,102.11,84c-2.58,14.13-17.32,22.29-28.76,22.29h-.24V28.33Z"/><path class="cls-6" d="M109.46,72.61a3,3,0,0,0-4.52-.86,2.61,2.61,0,0,0-.74,2.85c.22.82,1.09.88.88,2.14a2.2,2.2,0,0,1-1.25,1.81c-.37.32-.84.56-1.06,1.16a3.11,3.11,0,0,0-.14,1.77c.24,1,1.71.2,2.7-.24a19,19,0,0,0,3.24-2.64C109.89,77.12,110.5,74.26,109.46,72.61Z"/><path class="cls-2" d="M72.93,35.72c-10.32,0-17.86,3-22.43,8.91-6.38,8.25-6.14,20.86-3.79,29.91.72,2.77,1.09,10.23,1.59,13C50.52,99.75,64,106.27,72.93,106.27h.23V35.72Z"/><path class="cls-3" d="M95.31,44.64c-4.54-5.87-12-8.87-22.15-8.92v70.54c10.16-.11,22.3-7.25,24.39-18.75.49-2.74.86-10.2,1.58-13C101.48,65.51,101.71,52.92,95.31,44.64Z"/><path d="M40.61,46.48c-1,7.63-1.24,13.92-1.24,13.92l-.14,17.27a39.68,39.68,0,0,1,2.29-9.29,22.6,22.6,0,0,0,.64-5.21s-1.33,4-1.06,14.5c.17,6.24,5,11.7,5,11.7S41.52,80,45.61,72.56a12.94,12.94,0,0,1,2.69-3.29l-.25,8.88A51.31,51.31,0,0,0,53.51,61.6c.71-5.85,0-7.68,0-7.68A20.53,20.53,0,0,0,57.59,66.4c5.88,7.89,14.56,10.29,17.79,11,2.55.59,10.36.55,10.36.55s-4.2-.33-9.16-4.41a29.46,29.46,0,0,1-5-5.39,38.23,38.23,0,0,0,6,5.46,16.85,16.85,0,0,0,10.16,2.58s-5-2.63-6.85-4.79A39.18,39.18,0,0,1,76.82,65s4.55,6.3,7.36,7.9c7.22,4.1,13.23,1.46,13.23,1.46s-5.45-.4-7.53-4.87l-2.43-5.33s1.31,6.58,12.33,9.79a19.16,19.16,0,0,0,9.14.07s-5.22-.62-8-4.41c-1.68-2.27-6.61-11.68-6.61-11.68a33.47,33.47,0,0,0,2.57,5.5,44.29,44.29,0,0,1,5,12.57c1,4.8-.92,12.08-.92,12.08s7.55-12.79,6.32-25.26c-.23-2.35-.53-11.64-1.54-16.73C100,17.67,67.89,22.73,67.89,22.73S43.64,22.76,40.61,46.48Z"/><path class="cls-8" d="M83.81,145.18H102.9a7.28,7.28,0,0,1,.75-.32c0-.56,0-1.1,0-1.59,0-4.63,1.41-7.1-.31-11.73-1.91-5.14-.5-5-3.7-10.45-2.26-3.88-7.84-6-11.7-7a37.12,37.12,0,0,0-4-.84S83.19,132.12,83.81,145.18Z"/><path class="cls-8" d="M62.62,145.18H43.53a6.74,6.74,0,0,0-.74-.32c0-.56,0-1.1,0-1.59,0-4.63-1.41-7.1.31-11.73,1.91-5.14.49-5,3.69-10.45,2.26-3.88,7.85-6,11.71-7a37.12,37.12,0,0,1,4-.84S63.25,132.12,62.62,145.18Z"/><path class="cls-9" d="M67,109.57c-.23.1-3.37,1.56-3.37,1.58-.46.36-6.32,3-6.77,3.46-2.28,1.93-.26,5.74-1.89,7.87-6.93,9-9.79,14-9.21,22.7H72.85V115.53Z"/><path class="cls-10" d="M78.58,109.57c.23.1,3.37,1.56,3.37,1.58.46.36,6.3,2.79,6.76,3.21,2.27,1.93.27,6,1.9,8.12,6.93,9,9.79,14,9.21,22.7H72.74V115.53Z"/><path class="cls-11" d="M80.31,128.29a2.75,2.75,0,1,1-2.75-2.87A2.81,2.81,0,0,1,80.31,128.29Z"/><path class="cls-11" d="M80.74,143.76a2.74,2.74,0,0,1-.38,1.42H75.61a2.74,2.74,0,0,1-.37-1.42,2.75,2.75,0,1,1,5.5,0Z"/><path class="cls-11" d="M65,105.22s-.4-.34-1.3,3.9a11.49,11.49,0,0,1-.84,2.72,22.89,22.89,0,0,0,4.21,2c4.38,1.46,5.83,1.77,5.83,1.77s.13-6.76-.2-6.47-8-1.6-7.8-2.89S65,105.22,65,105.22Z"/><path class="cls-11" d="M81.28,105.22s.43-.34,1.39,3.9a11.19,11.19,0,0,0,.88,2.72,24.8,24.8,0,0,1-4.47,2c-4.66,1.46-6.19,1.77-6.19,1.77s-.15-6.76.21-6.47,8.55-1.6,8.29-2.89S81.28,105.22,81.28,105.22Z"/><path class="cls-12" d="M60.69,133H58l2.16-6.07c0-.06,0-.11-.12-.12l-.23,0h-.29c-.11,0-.17.09-.17.27v1.19H57.21V125.1h5.91v1.35Z"/><path class="cls-12" d="M67.4,133H64.73l2.15-6.07c0-.06,0-.11-.11-.12l-.23,0h-.29c-.11,0-.17.09-.17.27v1.19H63.92V125.1h5.91v1.35Z"/></g></g></svg>