<svg xmlns="http://www.w3.org/2000/svg" xmlns:xlink="http://www.w3.org/1999/xlink" viewBox="0 0 145.36 145.95"><defs><style>.cls-1{fill:none;}.cls-2{fill:#1d2f3f;}.cls-3{fill:#c09a80;}.cls-4{fill:#231f20;}.cls-5{fill:#e2bf9c;}.cls-6{fill:#f2d1ac;}.cls-7{fill:#d3a789;}.cls-8{clip-path:url(#clip-path);}.cls-9{fill:#be1e2d;}.cls-10{fill:#7e6052;}.cls-11{fill:#f9f9fa;}</style><clipPath id="clip-path"><rect class="cls-1" x="64.74" y="98.47" width="17.49" height="10.35"/></clipPath></defs><title>Asset 152</title><g id="Layer_2" data-name="Layer 2"><g id="Layer_1-2" data-name="Layer 1"><rect class="cls-2" width="145.36" height="145.95"/><path class="cls-3" d="M89,98.39a3.16,3.16,0,0,1,4.83-.92,2.76,2.76,0,0,1,.79,3c-.24.87-1.16.94-.93,2.28A2.35,2.35,0,0,0,95,104.73,3.1,3.1,0,0,1,96.11,106a3.31,3.31,0,0,1,.15,1.88c-.25,1.08-1.83.22-2.88-.26a21.12,21.12,0,0,1-3.46-2.8c-1.41-1.59-2.06-4.63-1-6.4"/><path class="cls-4" d="M94.13,108.28a2.08,2.08,0,1,0,2.11,2.08,2.08,2.08,0,0,0-2.11-2.08m0,3a1,1,0,0,1,0-1.94,1,1,0,1,1,0,1.94"/><path class="cls-5" d="M73.44,87.87v58.06H41.87l-.77-.32c0-31.15,19.32-33.48,19.32-33.48,1.93,0,3.17-2.48,4-6.24.13-.57.24-1.17.33-1.81.18-1.06.33-2.2.44-3.37.07-.71.13-1.42.2-2.14.29-3.57.37-7.44.37-11.11,0,0,4.26.41,7.69.41"/><path class="cls-6" d="M105.9,145.61s-.3.11-.76.32H73.44V87.87h.06c3.43,0,7.71-.41,7.71-.41,0,3.65.09,7.47.37,11,.07.71.14,1.42.2,2.1.14,1.22.26,2.37.45,3.46v0c.06.49.15.93.24,1.38.81,4,2.1,6.7,4.1,6.7,0,0,19.33,2.33,19.33,33.48"/><path class="cls-7" d="M73.5,21.29v83.14h.24c12.2,0,27.93-8.7,30.68-23.77a1.57,1.57,0,0,0,0,.68c.5,1.22,2.79,2.48,4.4,1,1.42-1.29.49-3.69.55-3.74,2.35-1.6,4.72-4,5-7.22.56-6.84-6.22-8.17-8.52-3.83,1.48-18.33,1.31-46.3-32.14-46.3ZM106.1,80.5a1,1,0,0,1,1-1,1,1,0,1,1-1,1"/><g class="cls-8"><path class="cls-3" d="M82.23,104v0a10.23,10.23,0,0,1-8.75,4.77h0a11.06,11.06,0,0,1-8.7-4.74c.18-1.06.33-2.2.44-3.37.07-.71.13-1.42.2-2.14a35.48,35.48,0,0,0,8,1h.09a32.31,32.31,0,0,0,8.14-1.14c.07.71.14,1.42.21,2.1.13,1.22.25,2.37.44,3.46"/></g><path class="cls-7" d="M73.53,21.28c-33.45,0-33.62,28-32.14,46.31-2.3-4.34-9.08-3-8.52,3.83.26,3.19,2.63,5.62,5,7.22.06,0-.87,2.45.55,3.74,1.62,1.44,3.9.18,4.4-1a1.57,1.57,0,0,0,.05-.68c2.75,15.07,18.49,23.77,30.68,23.77h.25V21.28ZM40.17,81.47a1,1,0,0,1,0-1.94,1,1,0,1,1,0,1.94"/><path class="cls-5" d="M73.24,29.16c-11,0-19,3.2-23.93,9.5-6.81,8.81-6.55,22.27-4,31.93.77,3,1.16,10.91,1.69,13.83,2.38,13.06,16.79,20,26.28,20h.26V29.17h-.26"/><path class="cls-6" d="M97.12,38.68c-4.84-6.26-12.8-9.45-23.62-9.51v75.26c10.83-.13,23.78-7.74,26-20,.53-2.92.92-10.88,1.69-13.83C103.71,61,104,47.52,97.12,38.68"/><path class="cls-9" d="M105,80.5a2.1,2.1,0,0,0,2.11,2.08,2.09,2.09,0,0,0,0-4.17A2.11,2.11,0,0,0,105,80.5m1.11,0a1,1,0,0,1,1-1,1,1,0,1,1-1,1"/><path class="cls-10" d="M112.22,68.53a3.17,3.17,0,0,0-4.83-.93,2.8,2.8,0,0,0-.78,3.05c.23.87,1.15.94.93,2.28a2.35,2.35,0,0,1-1.34,1.94,3.12,3.12,0,0,0-1.13,1.24,3.31,3.31,0,0,0-.14,1.88c.26,1.08,1.83.22,2.88-.26a20.68,20.68,0,0,0,3.46-2.81c1.4-1.58,2.06-4.63,1-6.39"/><path class="cls-9" d="M98.7,145.94H48.18c.13-2,.33-4.88.53-6.46.91-7.54,6.34-9,6-25.19a1.68,1.68,0,0,1,.27-.68l5.36-1.71v.26c.06,2.18.41,16.27.78,20.15.25,2.77,6.71,4.05,12.32,4.25,5.6-.2,12-1.48,12.31-4.25.35-3.9.71-18.13.75-20.16a2.25,2.25,0,0,0,0-.25l5.35,1.71c.07.17.16.38.23.57.17,17.21,5.11,17.71,6.07,25.3.19,1.58.39,4.48.53,6.46"/><path class="cls-9" d="M106.15,115.27c-4.15-5.39-12.31-8-13.27-8.13h0c-9.13-2.32-10.65,4.51-10.65,4.51h0c.26,1.62-.74,5.67,3.74,10.51a11.14,11.14,0,0,0,6.5,3.12l-.11,2.14c3.08-4.26,9.67-3.93,12.92-3.47a6.46,6.46,0,0,1,1.69,3.72c.37,4,5.15,1.69,5.15,1.69A29,29,0,0,0,106.15,115.27Zm-17.61,5.17a2.6,2.6,0,0,1-.1-.25,6.3,6.3,0,0,0,1.19,1.11,7.57,7.57,0,0,0,3,1.48l-.11,2.08A8.32,8.32,0,0,1,88.54,120.44Z"/><path class="cls-11" d="M91.34,112.44a3.19,3.19,0,1,1-3.18-3.18A3.18,3.18,0,0,1,91.34,112.44Z"/><path class="cls-9" d="M66.11,111.9h0c-.72-1.72-3.19-5.57-10.38-3.74h0c-1,.1-9.12,2.75-13.28,8.13a28.89,28.89,0,0,0-6,14.09s4.77,2.32,5.15-1.68a6.9,6.9,0,0,1,2.81-4.77c2.85-.4,8.13-.66,11.46,2a8.59,8.59,0,0,1-1.12.46,13.21,13.21,0,0,0,1.47-.16,7.89,7.89,0,0,1,1,1.13l-.07-1.31a13.2,13.2,0,0,0,2.81-1v1.49C69.79,118.94,66.11,111.9,66.11,111.9Zm-9,13.33-.09-1.76A12.62,12.62,0,0,0,59,122.33a6,6,0,0,0,1.19-1.11l-.1.25A8.1,8.1,0,0,1,57.15,125.23Z"/><path class="cls-11" d="M63,113.55a3.19,3.19,0,1,1-3.19-3.19A3.18,3.18,0,0,1,63,113.55Z"/><path class="cls-7" d="M41.09,65.14S86.56,67,99.8,31.7L104,40.55S88.61,79,41.4,71.4A19.42,19.42,0,0,0,41.09,65.14Z"/><path class="cls-10" d="M35.31,68.37a3.18,3.18,0,0,1,4.83-.92,2.78,2.78,0,0,1,.78,3c-.23.88-1.15,1-.93,2.29a2.35,2.35,0,0,0,1.34,1.93A3.12,3.12,0,0,1,42.46,76a3.31,3.31,0,0,1,.14,1.88c-.26,1.08-1.83.23-2.88-.26a19.69,19.69,0,0,1-3.45-2.8c-1.41-1.59-2.07-4.63-1-6.4"/></g></g></svg>