<svg xmlns="http://www.w3.org/2000/svg" viewBox="0 0 145.36 145.95"><defs><style>.cls-1{fill:#965458;}.cls-2{fill:#2b1f17;}.cls-3{fill:#e1bf9c;}.cls-4{fill:#f2d1ac;}.cls-5,.cls-7{fill:#c09a80;}.cls-5{opacity:0.7;}.cls-6{fill:#d3a789;}.cls-8{fill:#e0b89b;}.cls-9{fill:#c6696e;}.cls-10{fill:#d87373;}.cls-11{fill:#050606;}.cls-12{fill:#473325;}.cls-13{fill:#fff;}</style></defs><title>Asset 163</title><g id="Layer_2" data-name="Layer 2"><g id="Layer_1-2" data-name="Layer 1"><rect class="cls-1" width="145.36" height="145.95"/><path class="cls-2" d="M92.86,75.7c-4.85,0-9.28,2.7-12.7,7.14-3.57-5.72-8.6-9.31-14.19-9.31-10.8,0-19.55,13.31-19.55,29.72S55.17,133,66,133c4.85,0,9.28-2.7,12.7-7.14,3.57,5.71,8.59,9.3,14.19,9.3,10.8,0,19.55-13.3,19.55-29.71S103.66,75.7,92.86,75.7Z"/><path class="cls-3" d="M80.56,88.59v57h-31l-.74-.33a61.59,61.59,0,0,1,.33-6.6,45.94,45.94,0,0,1,.75-5c.2-1,.42-1.89.68-2.78a31.71,31.71,0,0,1,3.11-7.63.36.36,0,0,1,.08-.15,24.39,24.39,0,0,1,3.93-5.15v0a21.49,21.49,0,0,1,3-2.48A19.53,19.53,0,0,1,65.48,113h0a13.24,13.24,0,0,1,2.28-.57h.15a3.1,3.1,0,0,0,.42-.08A3.86,3.86,0,0,0,70.52,110a12.21,12.21,0,0,0,.83-2.32c.13-.44.23-.92.34-1.39s.24-1.16.33-1.79c0-.3.11-.58.13-.91.3.13.69.28,1.13.43V99.89h-.7c0-.26,0-.54.07-.8.22-2.79.33-5.74.35-8.65,0-.76,0-1.52,0-2.26C73,88.18,77.19,88.59,80.56,88.59Z"/><path class="cls-4" d="M112.4,145.25a1.33,1.33,0,0,0-.21.08l-.53.25H80.56v-57h.06c3.37,0,7.56-.41,7.56-.41,0,3.58.11,7.34.37,10.82,0,.3.06.61.09.89s.06.78.11,1.17.06.59.1.87c.11.87.22,1.72.35,2.52v0a13.12,13.12,0,0,0,.22,1.35c.13.65.28,1.26.43,1.85.64,2.24,1.46,3.84,2.57,4.47a2.4,2.4,0,0,0,.32.13,1.85,1.85,0,0,0,.7.13,13.77,13.77,0,0,1,3.19.92,19.16,19.16,0,0,1,3.89,2.12,21.73,21.73,0,0,1,3.89,3.44,24,24,0,0,1,3.06,4.23,32.67,32.67,0,0,1,3.2,7.76,46.69,46.69,0,0,1,1.39,7.78,11.4,11.4,0,0,1,.13,1.19C112.34,141.54,112.4,143.34,112.4,145.25Z"/><path class="cls-5" d="M89.18,104.45v0a10,10,0,0,1-8.58,4.68h0A10.75,10.75,0,0,1,72,104.49c.17-1,.32-2.14.43-3.29.06-.7.13-1.4.19-2.11a33.76,33.76,0,0,0,7.82,1h.09a31.73,31.73,0,0,0,8-1.11c.06.7.13,1.39.19,2.06C88.88,102.26,89,103.39,89.18,104.45Z"/><path class="cls-6" d="M80.54,27.36C48.21,27.3,48,53.28,49.46,70.22c-2.22-4-8.78-2.5-8.24,3.86.51,6.1,9.78,8.86,9.66,8.19,2.64,13.8,17.88,21.47,29.66,22.56h.25V27.36Z"/><path class="cls-7" d="M42.84,71.39a3.19,3.19,0,0,1,4.74-.85,2.48,2.48,0,0,1,.77,2.82c-.23.82-1.14.89-.91,2.13a2.21,2.21,0,0,0,1.31,1.81,3,3,0,0,1,1.11,1.15A3,3,0,0,1,50,80.2c-.25,1-1.79.21-2.83-.24a19.43,19.43,0,0,1-3.4-2.62C42.4,75.87,41.76,73,42.84,71.39Z"/><path class="cls-8" d="M80.7,27.36c32.33-.06,32.52,25.92,31.08,42.86,2.22-4,8.77-2.5,8.24,3.86-.52,6.1-9.79,8.86-9.66,8.19-2.64,13.8-17.88,21.47-29.66,22.56h-.25V27.36Z"/><path class="cls-7" d="M118.62,71.39a3.19,3.19,0,0,0-4.74-.85,2.51,2.51,0,0,0-.77,2.82c.23.82,1.14.89.92,2.13a2.21,2.21,0,0,1-1.31,1.81,2.87,2.87,0,0,0-1.11,1.15,3,3,0,0,0-.15,1.75c.25,1,1.8.21,2.83-.24a19.07,19.07,0,0,0,3.4-2.62C119.07,75.87,119.7,73,118.62,71.39Z"/><path class="cls-3" d="M80.37,34.71c-10.8,0-18.7,3-23.49,8.85-6.68,8.21-6.42,20.75-4,29.75.75,2.75,1.14,10.16,1.66,12.89,2.33,12.17,16.47,18.65,25.79,18.65h.25V34.72Z"/><path class="cls-4" d="M103.8,43.58c-4.75-5.84-12.56-8.82-23.18-8.86v70.12c10.63-.11,23.34-7.21,25.53-18.64.51-2.73.9-10.14,1.66-12.89C110.26,64.33,110.5,51.81,103.8,43.58Z"/><path class="cls-9" d="M86.05,93.85s-2.44,2.61-5.45,2.61-5.3-2.56-5.3-2.56a35.2,35.2,0,0,1,5.3-.39A44.05,44.05,0,0,1,86.05,93.85Z"/><path class="cls-10" d="M82.15,92.64a1.42,1.42,0,0,0-1.55,1.19,1.4,1.4,0,0,0-1.54-1.19,21.63,21.63,0,0,0-3.9,1.21s3,.31,3.83.31,1.6.34,1.61-.29c0,.63.63.39,1.48.39s4-.41,4-.41A21.63,21.63,0,0,0,82.15,92.64Z"/><path class="cls-11" d="M49.92,133.65v11.93h-.34l-.74-.33A57.17,57.17,0,0,1,49.92,133.65Z"/><path class="cls-12" d="M74.28,44.66c-4.78,9.13-4.4,7.6-10.43,16.72S50.8,84.3,50.4,92.84c-1.24,25.91,11.52,40.71,11.52,40.71S49,126.44,48.63,120.23s6.09,4.16,3.92,8.16c-4.48,8.29,1.63,15.48,1.63,15.48s-8.74-2.08-10.16-9.66.83-6.94,1.07-5.55c1.09,6.46-5.14,11.18-5.14,11.18s3.1-5.73-.25-23c-1.53-7.87-1.87-12.19-1.87-23.07S25.26,20.89,77.31,13.22a53.61,53.61,0,0,1,5.85,0c.53,0,42.89.76,40,51.09-1.08,18.64,0,42.71,1.61,46.79s-3.37-5.24-3.9-7.18-2.65-8.75-2.65-8.75a37.3,37.3,0,0,1,1.83,13.26c-.35,5.49-5.72,17.69-5.72,21.3,0,8.16,2.58,12.24,2.58,12.24s-4.41-2.19-5.3-6.85a12.63,12.63,0,0,1,.8-7.81,27,27,0,0,1-3,11.17,17,17,0,0,1-5,6.41s4-6.41,3-10.78c-.52-2.48-3.3-10.91-3.3-14.6S106,109.35,106,109.35s.82,7.57-1.64,12.33c-3.06,5.9-6.86,8.26-6.86,8.26a43.88,43.88,0,0,0,6.55-22,137.54,137.54,0,0,1,2.68-14.52c.35-.6,2.46-12.67,1.92-16.55s-6-19.42-6-19.42a14,14,0,0,1-2.38,3.34C96.77,63.7,95,63.22,95,63.22a19.72,19.72,0,0,0,2.22-5.16,26.46,26.46,0,0,0,.48-3.33s.16,2.18-3.6,5.3a34.79,34.79,0,0,1-4.68,3S93,58.44,93,53.39A35.87,35.87,0,0,0,91,42.74s3.13,4.5,2.43,7.8-.49,3.65-2.54,6.16A24.57,24.57,0,0,1,83.33,63s4-5.16,3.9-11.41c0-1.75,0-6.86,0-6.86s-.35,3.76-3.54,9.58C81.16,58.87,76,61.58,76,61.58S78.35,59,80.5,52.45c1.16-3.51,1-10.87,1-10.87S82,48.92,77.9,53a60.44,60.44,0,0,1-15.83,11.2Z"/><path class="cls-13" d="M57.72,117.94c-3.15,3.13-6.23,8-7.8,15.71v11.93H57.7v-6.93Z"/><path class="cls-13" d="M100.52,115.44a19.16,19.16,0,0,0-3.89-2.12c-19.3,34-38.91,4.62-38.91,4.62l0,27.64h46.71v-26.7A21.73,21.73,0,0,0,100.52,115.44Z"/></g></g></svg>