<svg xmlns="http://www.w3.org/2000/svg" viewBox="0 0 145.36 145.95"><defs><style>.cls-1{fill:#abc88d;}.cls-2{fill:#e1bf9c;}.cls-3{fill:#f2d1ac;}.cls-4,.cls-6{fill:#c09a80;}.cls-4{opacity:0.7;}.cls-5{fill:#d3a789;}.cls-7{fill:#e0b89b;}.cls-8{fill:#dae3df;}.cls-9{fill:#463944;}.cls-10{fill:#15151a;}.cls-11{fill:#111;}.cls-12{fill:none;}.cls-13{fill:#6cc2e9;}.cls-14{fill:#e8afae;}</style></defs><title>Asset 171</title><g id="Layer_2" data-name="Layer 2"><g id="Layer_1-2" data-name="Layer 1"><rect class="cls-1" width="145.36" height="145.95"/><path class="cls-2" d="M72.31,90.91v54.42H42.73L42,145c0-29.19,18.11-31.37,18.11-31.37h0c1.79,0,2.93-2.35,3.7-5.85.12-.54.22-1.1.31-1.7.16-1,.31-2.06.41-3.16.07-.66.13-1.32.19-2,.27-3.34.35-7,.35-10.42C65.11,90.51,69.1,90.91,72.31,90.91Z"/><path class="cls-3" d="M102.73,144.88V145l-.4.17h0a2.53,2.53,0,0,0-.29.14H72.31V90.91h.06c3.22,0,7.23-.4,7.23-.4,0,3.43.08,7,.35,10.34l.18,2c.13,1.14.25,2.22.42,3.23v0c.06.45.15.87.23,1.28.77,3.76,2,6.29,3.84,6.29A16,16,0,0,1,90.57,116C95.84,119.29,102.69,127,102.73,144.88Z"/><path class="cls-4" d="M80.55,106.05v0a9.54,9.54,0,0,1-8.19,4.46h0a10.36,10.36,0,0,1-8.16-4.44c.17-1,.31-2.06.42-3.16.06-.66.12-1.32.18-2a32,32,0,0,0,7.47,1h.09A30.3,30.3,0,0,0,80,100.85c.07.66.13,1.33.19,2C80.26,104,80.39,105,80.55,106.05Z"/><path class="cls-5" d="M72.4,28.49c-31.34,0-31.52,26.24-30.12,43.41-2.15-4.07-8.51-2.82-8,3.59.5,6.18,9.49,9.37,9.36,8.66C46.22,98.28,61,106.44,72.4,106.44h.24V28.49Z"/><path class="cls-6" d="M36.29,72.79a3,3,0,0,1,4.53-.87,2.59,2.59,0,0,1,.73,2.85c-.22.82-1.08.88-.87,2.14a2.2,2.2,0,0,0,1.25,1.81A2.93,2.93,0,0,1,43,79.88a3.2,3.2,0,0,1,.14,1.77c-.24,1-1.72.2-2.7-.25a18.93,18.93,0,0,1-3.25-2.63C35.87,77.29,35.26,74.43,36.29,72.79Z"/><path class="cls-7" d="M72.56,28.49c31.34,0,31.52,26.24,30.13,43.41,2.14-4.07,8.5-2.82,8,3.59-.5,6.18-9.49,9.37-9.36,8.66C98.74,98.28,84,106.44,72.56,106.44h-.24V28.49Z"/><path class="cls-6" d="M108.67,72.79a3,3,0,0,0-4.53-.87,2.61,2.61,0,0,0-.73,2.85c.22.82,1.09.88.88,2.14A2.23,2.23,0,0,1,103,78.72,2.93,2.93,0,0,0,102,79.88a3.2,3.2,0,0,0-.14,1.77c.24,1,1.72.2,2.71-.25a18.87,18.87,0,0,0,3.24-2.63C109.09,77.29,109.7,74.43,108.67,72.79Z"/><path class="cls-2" d="M72.13,35.89c-10.31,0-17.86,3-22.43,8.9-6.37,8.26-6.13,20.87-3.78,29.92.72,2.77,1.09,10.23,1.58,13,2.23,12.24,15.74,18.76,24.63,18.76h.24V35.89Z"/><path class="cls-3" d="M94.51,44.8c-4.53-5.87-12-8.86-22.14-8.91v70.54c10.16-.11,22.3-7.25,24.39-18.75.49-2.74.86-10.2,1.58-13C100.68,65.69,100.92,53.09,94.51,44.8Z"/><path class="cls-8" d="M88.64,37.79C87,45.62,72.07,52.9,64.2,55.18S43.83,60,43.83,60s.41,7.49.26,10a19.6,19.6,0,0,0,1.29,7.46l-2.47-1.1s-.14-5.3-2.4-6.23c-3.47-1.41-9-8-7.38-14.88S39.93,38.9,42,34.55s8.73-12.3,14.33-13.75,16.36-3.93,23-.83,15.33,7.46,15.33,7.46a18.44,18.44,0,0,1,7,3.93c3.1,2.91,7.49,13.35,7.49,28.78,0,2.31-.75,7.89-3.71,9.53A6.58,6.58,0,0,0,101.76,75l-1.3.93s1.3-8.48,1.3-11.39c0-8.71-4.82-12.74-8.74-15.65-6.42-4.76-10.81-4.69-10.81-4.69Z"/><path class="cls-9" d="M93,113a98.93,98.93,0,0,1-10.4,11.84c-5.45,5.25-8.38,12.1-9.89,18.49a1.72,1.72,0,0,0-.07-.21c-.2-1-.47-1.89-.76-2.84v0a35.65,35.65,0,0,0-9.05-15.42A99.25,99.25,0,0,1,52,112.34a32.06,32.06,0,0,1,4.23-4.21c1.31-1,2.26-1.85,3-2.53h0c1.54.44,3.07.83,4.61,1.12a43.64,43.64,0,0,0,9.25,1,41.49,41.49,0,0,0,7.49-.83,43.26,43.26,0,0,0,4.69-1.14h0c.75.67,1.68,1.45,2.93,2.43A39.56,39.56,0,0,1,93,113Z"/><path class="cls-10" d="M102.73,144.88a4,4,0,0,0-.4.31h0a2.53,2.53,0,0,0-.29.14H42.73L42,145c0-13,3.57-20.6,7.55-25.08,5-5.62,10.56-6.29,10.56-6.29h0c1.23,3.23.29,2.61,1.19,5.37a7,7,0,0,0,2.26,3,40.74,40.74,0,0,0,5.75,9.67,15,15,0,0,1,2.86,6.72,15,15,0,0,1,2.86-6.72,41.17,41.17,0,0,0,5.69-9.52,33.28,33.28,0,0,0,3-2.2c.46-.35.94,3.32,1.44,2.78A74.62,74.62,0,0,0,90.57,116a20.31,20.31,0,0,1,4.65,4,25.39,25.39,0,0,1,3.86,6C101.21,130.42,102.71,136.53,102.73,144.88Z"/><path class="cls-11" d="M68,74.14c0,3.54-5.23,7.06-11.37,7.21h-.41c-.52,0-1,0-1.47,0-7.45-.34-8.49-3.38-8.49-6.8C46.21,70.91,44,68,56.89,68c2,0,3.55.06,4.88.18a14.93,14.93,0,0,1,4,.75C68.62,70,68,71.82,68,74.14Z"/><path class="cls-11" d="M98.52,74.53c0,3.63-1.19,6.83-10,6.83a9.79,9.79,0,0,1-1.1,0,12,12,0,0,1-1.93-.23c-4.94-.91-8.76-3.92-8.76-6.94,0-3.62-1.6-6.16,11.06-6.16,1.89,0,3.44.06,4.73.18,3.44.31,5,1,5.63,2C99,71.31,98.52,72.84,98.52,74.53Z"/><path class="cls-12" d="M60.35,68.64a42.94,42.94,0,0,0-7.76,0c-3.84.35-6.55.6-6.17,4.73.54,6,3.89,6.9,5,7.15,2.61.58,13.41,1.43,15.64-5.88a6,6,0,0,0-.06-4C66.6,69.48,62.23,68.81,60.35,68.64Z"/><path class="cls-13" d="M70.28,69.12c-.76-.12-2.57-.58-4.43-.94-1.64-.32-3.31-.54-4.23-.64a91.12,91.12,0,0,0-11.44-.14c-4.19.28-7.39.62-7.56.87s-.36,2.4,0,2.64,1.51.71,1.8,1.51,1.45,6.47,4,8C52.7,83,67,83.11,69.51,73.79c.34-1.27.78-2,1.56-2.23a5.41,5.41,0,0,1,1.39-.15V69.26A9.9,9.9,0,0,1,70.28,69.12Zm-3,5.51c-2.23,7.31-13,6.46-15.64,5.88-1.15-.25-4.5-1.2-5-7.15-.37-4.13,2.33-4.38,6.17-4.73a43.06,43.06,0,0,1,7.77,0c1.87.17,6.25.84,6.68,2A6,6,0,0,1,67.26,74.63Z"/><path class="cls-12" d="M84.23,68.64a43,43,0,0,1,7.76,0c3.84.35,6.55.6,6.18,4.73-.54,6-3.9,6.9-5,7.15-2.62.58-13.41,1.43-15.64-5.88a6,6,0,0,1,.06-4C78,69.48,82.35,68.81,84.23,68.64Z"/><path class="cls-13" d="M72.18,69.26v2.15a5.52,5.52,0,0,1,1.39.15c.77.21,1.22,1,1.56,2.23C77.6,83.11,91.93,83,96.2,80.44c2.59-1.55,3.75-7.24,4-8s1.47-1.27,1.8-1.51.09-2.47,0-2.64-3.37-.59-7.55-.87A91.28,91.28,0,0,0,83,67.54c-.91.1-2.59.32-4.23.64-1.85.36-3.66.82-4.42.94A9.94,9.94,0,0,1,72.18,69.26Zm5.26,1.35c.43-1.13,4.81-1.8,6.68-2a43,43,0,0,1,7.77,0c3.83.35,6.54.6,6.17,4.73-.55,6-3.9,6.9-5,7.15-2.6.58-13.41,1.43-15.63-5.88A5.89,5.89,0,0,1,77.44,70.61Z"/><path class="cls-14" d="M72.66,144.83c0,.31,0,.5,0,.5l-.44-.25-.46-.25L52.06,133.9l7.06-9.17s-3-3.15-4.8-4.61c-.81-.67-2.84-.52-4.77-.18a43.18,43.18,0,0,0-4.34,1c.27-.39,3.45-4.83,6.77-8.59a32.06,32.06,0,0,1,4.23-4.21c1.31-1,2.26-1.85,3-2.53h0L61,104c1,.42,2,.77,3,1.08,0,.52-.08,1.06-.12,1.6-.09.87-.17,1.72-.27,2.43-.34,2.45-2.14,5-1.81,7.11a25.24,25.24,0,0,0,1.83,5.81,40.74,40.74,0,0,0,5.75,9.67,15,15,0,0,1,2.86,6.72,28.05,28.05,0,0,1,.47,4.65C72.71,143.84,72.68,144.44,72.66,144.83Z"/><path class="cls-14" d="M85.3,124.73l7.06,9.17-19.7,10.93-.45.25-.44.25s0-.19,0-.5a29.72,29.72,0,0,1,.17-4.56v0c.08-.56.16-1.16.29-1.79a15,15,0,0,1,2.86-6.72,41.17,41.17,0,0,0,5.69-9.52,26.92,26.92,0,0,0,1.88-6c.34-2.07-1.47-4.66-1.8-7.11-.08-.69-.17-1.48-.25-2.31-.06-.54-.1-1.06-.14-1.57,1-.32,2.11-.67,3.17-1.08.48.41,1,.91,1.66,1.51h0c.75.67,1.68,1.45,2.93,2.43A39.56,39.56,0,0,1,93,113c3.09,3.61,5.94,7.57,6.18,7.94-.16,0-2-.58-4-1s-4.25-.56-5.12.14C88.33,121.58,85.3,124.73,85.3,124.73Z"/></g></g></svg>