<svg xmlns="http://www.w3.org/2000/svg" xmlns:xlink="http://www.w3.org/1999/xlink" viewBox="0 0 145.36 145.95"><defs><style>.cls-1{fill:none;}.cls-2{fill:#965458;}.cls-3{fill:#e2bf9c;}.cls-4{fill:#f2d1ac;}.cls-5{clip-path:url(#clip-path);}.cls-6{fill:#c09a80;}.cls-7{fill:#d3a789;}.cls-8{fill:#e0b89b;}.cls-9{fill:#432612;}.cls-10{fill:#184f3e;}.cls-11{fill:#113529;}</style><clipPath id="clip-path"><rect class="cls-1" x="64.13" y="98.25" width="17.49" height="10.34"/></clipPath></defs><title>Asset 149</title><g id="Layer_2" data-name="Layer 2"><g id="Layer_1-2" data-name="Layer 1"><rect class="cls-2" width="145.36" height="145.95"/><path class="cls-3" d="M72.83,87.64v58.07H41.27l-.78-.34c0-23.72,11.22-30.72,16.55-32.71a14.29,14.29,0,0,1,2.77-.76c1.93,0,3.17-2.47,4-6.23.13-.58.24-1.18.33-1.83.18-1.06.33-2.18.45-3.35.06-.71.13-1.42.19-2.15.29-3.57.38-7.45.38-11.12,0,0,4.25.42,7.68.42"/><path class="cls-4" d="M105.28,145.37l-.75.34H72.83V87.64h.07c3.43,0,7.7-.42,7.7-.42,0,3.65.09,7.49.38,11,.07.71.13,1.41.2,2.1.13,1.22.27,2.37.44,3.46h0c.07.49.15.93.24,1.37.82,4,2.11,6.71,4.1,6.71a14,14,0,0,1,2.73.74c5.3,2,16.59,8.94,16.59,32.73"/><g class="cls-5"><path class="cls-6" d="M81.62,103.8v0a10.23,10.23,0,0,1-8.76,4.76h0a11,11,0,0,1-8.69-4.74c.18-1.06.33-2.18.43-3.36.07-.7.14-1.41.21-2.14a34.38,34.38,0,0,0,8,1h.08A32.87,32.87,0,0,0,81,98.25c.07.71.14,1.41.2,2.1.13,1.22.26,2.37.45,3.45"/></g><path class="cls-7" d="M72.37,21C38.93,21,38.75,49,40.22,67.36c-2.28-4.35-9.07-3-8.52,3.84.54,6.59,10.12,10,10,9.22C44.43,95.5,60.16,104.2,72.37,104.2h.25V21h-.25"/><path class="cls-6" d="M33.84,68.3a3.16,3.16,0,0,1,4.83-.92,2.76,2.76,0,0,1,.78,3c-.23.88-1.16.94-.93,2.28a2.34,2.34,0,0,0,1.34,1.93A3.11,3.11,0,0,1,41,75.87a3.31,3.31,0,0,1,.14,1.88c-.25,1.08-1.83.23-2.88-.24a21.59,21.59,0,0,1-3.46-2.82c-1.4-1.59-2.06-4.63-.95-6.39"/><path class="cls-8" d="M72.53,21c33.44,0,33.63,28,32.15,46.32,2.29-4.35,9.07-3,8.51,3.84-.53,6.59-10.11,10-10,9.22C100.46,95.5,84.73,104.2,72.53,104.2h-.25V21h.25"/><path class="cls-6" d="M111.06,68.3a3.16,3.16,0,0,0-4.83-.92,2.76,2.76,0,0,0-.78,3c.23.88,1.15.94.93,2.28A2.34,2.34,0,0,1,105,74.63a3.19,3.19,0,0,0-1.13,1.24,3.31,3.31,0,0,0-.14,1.88c.25,1.08,1.83.23,2.88-.24a21.16,21.16,0,0,0,3.46-2.82c1.41-1.59,2-4.63,1-6.39"/><path class="cls-3" d="M72.63,28.93c-11,0-19,3.19-23.93,9.51-6.81,8.81-6.55,22.26-4,31.92.76,2.94,1.16,10.91,1.69,13.84,2.37,13,16.78,20,26.27,20h.26V28.94h-.26"/><path class="cls-4" d="M96.51,38.45c-4.84-6.27-12.8-9.46-23.62-9.51v75.25c10.83-.11,23.78-7.73,26-20,.53-2.93.92-10.9,1.69-13.84,2.51-9.63,2.75-23.08-4.08-31.91"/><path class="cls-9" d="M59.52,15.31c1.89.7,10.86,4.83,12.92,6.9s3.79,4.65,4.14,6.37,1.19,4.93,0,5.47-2.42-3.92-4.31-7S63,17.9,63,17.9Z"/><path d="M93.29,18.71c-2.75,1-1.54.18-1.54.18s1.45-1.24-.15-5.12a7.8,7.8,0,0,0-4.68-4.69s2.33,2.77,2.33,5.18-2.17,6.46-3.36,5.84c-2-1.07-2.24-3.62-2.41-5s1.41-4.79,1.41-4.79a44.25,44.25,0,0,1-4,3.07A4.08,4.08,0,0,0,79,16.71c0-.8,1.32-3.35.85-5.09-.56-2-1-4.61.68-6.5S88.47,2,88.47,2s-7-.06-9.24.42c-3,.65-7.69,2-10.45,5.39s.4,8.49-.12,8.16-4.13-4.32-4.48-7.25,0-3.61,0-3.61-7.72,5.61-5.52,14.3c.75,2.91,1.19,3.15,1.19,3.15L56.09,21c-3.78-1.54-5.52-.07-9.3-1.28a6.6,6.6,0,0,1-4.32-5.17s-.91,1.55-.74,5a5.88,5.88,0,0,0,3.5,4.82,16.12,16.12,0,0,0-4-.07c-3.1.17-5.09,3.77-5.09,3.77a8,8,0,0,1,7.61-1.46C48.38,28,45.6,31,51.83,32.79c1.44.42,3.52-.8,5.89-.51a8.86,8.86,0,0,0-2.15,1.6c-3.27,3.45-3.68,9.26-3.1,12.4a12.08,12.08,0,0,0,4.3,6.89s-2.69-3.71-.45-9.16c2-5,7.42-8,11-8.73,0,.22-3.9,4.15,0,10.66,0,0-.31-4,.38-6.09s3.22-4.83,6-4.24c2.38.49,4,.26,3.94-1,5.43.6,9.91,1,10.88,1,2.8-.16,5.63-.61,5.56-4.07,0-1.27-2.21-4.5,0-9.49,1.08-2.5,6.2-1.37,6.2-1.37a6,6,0,0,0-6.9-1.91"/><path class="cls-10" d="M105.28,145.37l-.75.34H41.27l-.78-.34c0-23.77,11.22-30.77,16.55-32.77,3.48,3.83,10.37,9.11,15.68,9.38h.15s.07,0,.12,0c5.33-.27,12.22-5.57,15.7-9.4,5.3,2,16.59,9,16.59,32.79"/><polygon class="cls-11" points="66.1 127.52 65.78 127.06 62.25 129.49 58.72 127.06 58.4 127.52 61.76 129.83 58.4 132.14 58.72 132.59 62.25 130.16 65.78 132.59 66.1 132.14 62.74 129.83 66.1 127.52"/><polygon class="cls-11" points="87.94 127.52 87.63 127.06 84.1 129.49 80.57 127.06 80.25 127.52 83.61 129.83 80.25 132.14 80.57 132.59 84.1 130.16 87.63 132.59 87.94 132.14 84.59 129.83 87.94 127.52"/><polygon class="cls-11" points="80.31 136.41 76.76 139.78 73.12 136.41 69.57 139.78 65.94 136.41 62.05 140.09 62.44 140.5 65.94 137.17 69.53 140.5 69.58 140.45 69.62 140.5 73.12 137.17 76.72 140.5 76.77 140.45 76.82 140.5 80.32 137.17 83.91 140.5 84.28 140.09 80.31 136.41"/><path class="cls-11" d="M54.07,114c4.12,4.56,12.3,10.82,18.6,11.13h.18s.08,0,.14,0c6.31-.31,14.47-6.58,18.6-11.13a20.19,20.19,0,0,0-3-1.41c-3.48,3.83-10.37,9.13-15.7,9.4-.05,0-.09,0-.11,0h-.16c-5.31-.27-12.19-5.55-15.67-9.38A20.75,20.75,0,0,0,54.07,114"/><path class="cls-9" d="M54.09,74.63a.21.21,0,1,1-.41,0,.2.2,0,0,1,.2-.2.2.2,0,0,1,.21.2"/><path class="cls-9" d="M56,78.42a.21.21,0,0,1-.2.21.22.22,0,0,1-.21-.21.21.21,0,0,1,.21-.21.2.2,0,0,1,.2.21"/><path class="cls-9" d="M50.23,77.31a.2.2,0,0,1-.2.21.21.21,0,0,1-.21-.21.2.2,0,0,1,.21-.2.2.2,0,0,1,.2.2"/><path class="cls-9" d="M55.54,82.27a.21.21,0,0,1-.21.21.21.21,0,1,1,0-.42.21.21,0,0,1,.21.21"/><path class="cls-9" d="M58.42,71.9a.2.2,0,0,1-.21.2.21.21,0,0,1-.21-.2.22.22,0,0,1,.21-.22.21.21,0,0,1,.21.22"/><path class="cls-9" d="M58.62,76.42a.2.2,0,0,1-.2.21.21.21,0,0,1-.21-.21.21.21,0,0,1,.21-.21.2.2,0,0,1,.2.21"/><path class="cls-9" d="M62.27,74.57a.21.21,0,0,1-.22.21.21.21,0,0,1,0-.42.21.21,0,0,1,.22.21"/><path class="cls-9" d="M65.37,78.21a.21.21,0,0,1-.22.21.2.2,0,0,1-.2-.21.21.21,0,0,1,.2-.21.22.22,0,0,1,.22.21"/><path class="cls-9" d="M60.66,80.85a.21.21,0,0,1-.21.21.22.22,0,0,1-.21-.21.21.21,0,0,1,.21-.2.2.2,0,0,1,.21.2"/><path class="cls-9" d="M69.05,71.9a.2.2,0,0,1-.21.2.2.2,0,0,1-.2-.2.21.21,0,1,1,.41,0"/><path class="cls-9" d="M70,78.21a.2.2,0,0,1-.2.21.21.21,0,0,1-.21-.21.22.22,0,0,1,.21-.21.21.21,0,0,1,.2.21"/><path class="cls-9" d="M68.18,81.06a.21.21,0,0,1-.21.21.21.21,0,0,1-.21-.21.21.21,0,0,1,.21-.21.22.22,0,0,1,.21.21"/><path class="cls-9" d="M91.15,74.65a.21.21,0,0,0,.22.22.21.21,0,0,0,.2-.22.21.21,0,0,0-.42,0"/><path class="cls-9" d="M89.29,78.44a.21.21,0,0,0,.21.21.21.21,0,1,0,0-.41.2.2,0,0,0-.21.2"/><path class="cls-9" d="M95,77.34a.21.21,0,1,0,.41,0,.2.2,0,0,0-.2-.21.21.21,0,0,0-.21.21"/><path class="cls-9" d="M89.71,82.29a.19.19,0,0,0,.2.21.2.2,0,0,0,.21-.21.2.2,0,0,0-.21-.2.19.19,0,0,0-.2.2"/><path class="cls-9" d="M86.83,71.92a.2.2,0,0,0,.2.2.21.21,0,0,0,.21-.2.22.22,0,0,0-.21-.21.21.21,0,0,0-.2.21"/><path class="cls-9" d="M86.61,76.45a.21.21,0,0,0,.22.2.2.2,0,0,0,.2-.2.21.21,0,0,0-.2-.22.22.22,0,0,0-.22.22"/><path class="cls-9" d="M83,74.59a.21.21,0,0,0,.21.21.2.2,0,0,0,.2-.21.19.19,0,0,0-.2-.2.2.2,0,0,0-.21.2"/><path class="cls-9" d="M79.88,78.24a.2.2,0,0,0,.21.2.21.21,0,1,0,0-.41.21.21,0,0,0-.21.21"/><path class="cls-9" d="M84.59,80.87a.21.21,0,0,0,.2.22.21.21,0,0,0,.21-.22.21.21,0,0,0-.21-.2.2.2,0,0,0-.2.2"/><path class="cls-9" d="M76.19,71.92a.21.21,0,0,0,.21.2.2.2,0,0,0,.2-.2.21.21,0,0,0-.2-.21.22.22,0,0,0-.21.21"/><path class="cls-9" d="M75.27,78.24a.21.21,0,0,0,.21.2.2.2,0,0,0,.2-.2.2.2,0,0,0-.2-.21.21.21,0,0,0-.21.21"/><path class="cls-9" d="M77.06,81.09a.21.21,0,0,0,.21.2.2.2,0,0,0,.21-.2.21.21,0,0,0-.21-.22.22.22,0,0,0-.21.22"/><path d="M58,32.2s-20.28,19.24-8.34,69.35c0,0-33.17-40.43,3.7-77.85"/><path d="M86.61,30.56s21,19.27,8.62,69.46c0,0,34.25-40.49-3.83-78"/><path d="M50.24,27.63S28.76,33.81,32,53.37c0,0,9.77-16.57,18.68-12.87"/><path d="M93,23.7s19.45,2.4,21.45,19.67c0,0-15.82-13.6-20.25-11.23S93,23.7,93,23.7Z"/><path d="M69,34.1s18,3,9.32,25c0,0,21-13.72,15.64-27S84.62,28.73,69,34.1Z"/><path d="M86,99.22c-9.69,4.35-13.69,3.94-13.69,3.94v0c-.39,0-4.45.19-13.64-4a17.83,17.83,0,0,0,13.68,6.71h0A17.88,17.88,0,0,0,86,99.22Z"/></g></g></svg>