<svg xmlns="http://www.w3.org/2000/svg" viewBox="0 0 145.36 146.32"><defs><style>.cls-1{fill:#d7878e;}.cls-2{fill:#e1bf9c;}.cls-3{fill:#f2d1ac;}.cls-4,.cls-6{fill:#c09a80;}.cls-4{opacity:0.7;}.cls-5{fill:#d3a789;}.cls-7{fill:#e0b89b;}.cls-8{fill:#c6696e;}.cls-9{fill:#d87373;}.cls-10{fill:#898989;}.cls-11{fill:#844a4a;}.cls-12{fill:#3a2442;}.cls-13{fill:#563760;}.cls-14{fill:#5b2f2f;}.cls-15{fill:#fafbee;}</style></defs><title>Asset 191</title><g id="Layer_2" data-name="Layer 2"><g id="Layer_1-2" data-name="Layer 1"><rect class="cls-1" width="145.36" height="145.95"/><path class="cls-2" d="M74.18,91.67v54.42H44.59l-.73-.31c0-17.76,6.71-25.52,12-28.88A16.24,16.24,0,0,1,62,114.41h.14a2.83,2.83,0,0,0,.4-.08c1.49-.42,2.51-2.62,3.19-5.75.13-.56.23-1.12.31-1.72.17-1,.32-2.06.42-3.16.06-.66.12-1.32.18-2,.28-3.34.36-7,.36-10.42C67,91.27,71,91.67,74.18,91.67Z"/><path class="cls-3" d="M104.6,145.78l-.71.31H74.18V91.67h.06c3.22,0,7.22-.4,7.22-.4,0,3.43.08,7,.35,10.34.07.67.13,1.33.19,2,.12,1.14.25,2.22.42,3.23v0c.06.46.14.87.22,1.28.63,3,1.54,5.29,2.87,6,.1,0,.2.13.31.13a1.84,1.84,0,0,0,.66.12,15,15,0,0,1,4.4,1.5C96.24,118.6,104.6,126,104.6,145.78Z"/><path class="cls-4" d="M82.4,106.83v0a9.52,9.52,0,0,1-8.19,4.46h0A10.29,10.29,0,0,1,66,106.87c.16-1,.3-2.05.41-3.15.06-.66.12-1.33.19-2a31.88,31.88,0,0,0,7.46,1h.09a30.23,30.23,0,0,0,7.63-1.06c.07.67.13,1.34.19,2C82.12,104.74,82.24,105.81,82.4,106.83Z"/><path class="cls-5" d="M74.14,33.2c-30.88-.06-31,24.75-29.68,40.94-2.12-3.8-8.38-2.39-7.87,3.69.5,5.82,9.35,8.46,9.23,7.82,2.52,13.18,17.07,20.5,28.32,21.55h.24v-74Z"/><path class="cls-6" d="M38.14,75.26a3.06,3.06,0,0,1,4.53-.82,2.37,2.37,0,0,1,.73,2.7c-.21.78-1.08.84-.87,2a2.14,2.14,0,0,0,1.25,1.73A2.72,2.72,0,0,1,44.84,82,2.9,2.9,0,0,1,45,83.67c-.24,1-1.72.2-2.7-.22A19.63,19.63,0,0,1,39,80.94C37.72,79.53,37.11,76.82,38.14,75.26Z"/><path class="cls-7" d="M74.3,33.2C105.18,33.14,105.36,58,104,74.14c2.12-3.8,8.38-2.39,7.87,3.69-.49,5.82-9.34,8.46-9.22,7.82-2.52,13.18-17.08,20.5-28.33,21.55h-.24v-74Z"/><path class="cls-6" d="M110.52,75.26a3.06,3.06,0,0,0-4.53-.82,2.39,2.39,0,0,0-.73,2.7c.22.78,1.09.84.88,2a2.13,2.13,0,0,1-1.26,1.73A2.78,2.78,0,0,0,103.82,82a2.9,2.9,0,0,0-.14,1.68c.24,1,1.72.2,2.71-.22a19.16,19.16,0,0,0,3.24-2.51C111,79.53,111.55,76.82,110.52,75.26Z"/><path class="cls-2" d="M74,40.22c-10.31,0-17.86,2.85-22.43,8.46-6.38,7.84-6.13,19.81-3.78,28.41.72,2.63,1.09,9.71,1.59,12.31C51.58,101,65.09,107.21,74,107.21h.24v-67Z"/><path class="cls-3" d="M96.37,48.69c-4.54-5.57-12-8.42-22.15-8.47v67c10.16-.11,22.3-6.89,24.38-17.81.5-2.6.87-9.68,1.59-12.31C102.54,68.51,102.77,56.56,96.37,48.69Z"/><path class="cls-8" d="M79.41,96.71s-2.33,2.49-5.2,2.49a7.77,7.77,0,0,1-5.07-2.44,33.07,33.07,0,0,1,5.07-.38A41.37,41.37,0,0,1,79.41,96.71Z"/><path class="cls-9" d="M75.69,95.55a1.35,1.35,0,0,0-1.48,1.14,1.36,1.36,0,0,0-1.47-1.14A20.46,20.46,0,0,0,69,96.71s2.84.3,3.66.3,1.52.32,1.54-.29c0,.61.6.38,1.41.38s3.79-.39,3.79-.39A20.57,20.57,0,0,0,75.69,95.55Z"/><path class="cls-10" d="M107.53,62.59a41.61,41.61,0,0,1-.37,4.91,8.47,8.47,0,0,1-.46,2.16,28.34,28.34,0,0,0-1.62,5.46,6.93,6.93,0,0,0-1.8,2.65c-1,2.57-1.37,2.14-1.37,2.14s.31-2,.66-4.52c.21-2.1.5-5.21.73-7.89,0-.37.06-.74.08-1.1-.43-2.16-4.5-12.51-23.84-11.53a18.22,18.22,0,0,1-8.71-2.26C68.29,51.34,66.53,50,66.37,50c-.86,0-8.59-1.44-13.14,1.95a9,9,0,0,0-.81.67C47,57.27,46.28,65.38,46.28,67a4.44,4.44,0,0,0,0,.5c.15,3.34,1.54,12.41,1.54,12.41s-.38.43-1.37-2.14a7.16,7.16,0,0,0-2.16-3c-1.08-2.29-1.68-3-2.22-5.15A14.18,14.18,0,0,0,41,67.5c-1-2-2.22-5.79-1-14.89l.18-1.27c1-6.23,5.69-20.21,18.18-22.7S73.79,23.22,84,27.39s16.66,7.08,19.8,14a43.68,43.68,0,0,1,2.86,11.27A83.5,83.5,0,0,1,107.53,62.59Z"/><path class="cls-11" d="M65.73,107.32c-1.77.71-.68,1.06-1.63,3.3s-.65,2-.65,2.58.33.63,1.33,1c5.48,2,5-1.41,5.4-2.09s2.28-1.61-.08-2-3.7-.45-4.08-1.62S65.73,107.32,65.73,107.32Z"/><path class="cls-11" d="M82.59,107.32c1.78.71.69,1.06,1.63,3.3s.65,2,.65,2.58-.33.63-1.33,1c-5.48,2-5-1.41-5.4-2.09s-2.27-1.61.09-2,3.69-.45,4.08-1.62S82.59,107.32,82.59,107.32Z"/><path class="cls-11" d="M69.24,109.9c3.06-1.16,4.19-.84,6.47-.74,3.68.16,3.78,4.53,3.3,5.84s-4.9,2.12-6.32,1.82-5.84-1-4.78-2.21a5.7,5.7,0,0,0,1.54-3.69A9.19,9.19,0,0,0,69.24,109.9Z"/><path class="cls-12" d="M104.6,145.78l-.71.31H44.45l-.73-.31c0-17.76,7.33-27.09,13.74-29.87,4.83,4.87,10.52,12.48,12.05,13.92,2.6,2.43,4.18,6.59,5.82,5.55s10.78-13.92,15.52-19.47C96.21,118.6,104.6,126,104.6,145.78Z"/><path class="cls-13" d="M61,115.71c.59,1.22,7.11,8.42,8.89,10.55s2.68,1.81,3.87,5.89.38,13.9.38,13.9-.57-8.34-2.94-10.47S55.86,127,55.86,127l4.87-1.62-13.16-5.25a52.67,52.67,0,0,1,7.9-4.54c3.8-1.63,7-2.62,7-2.62Z"/><path class="cls-13" d="M87.47,116c-.59,1.23-7.11,8.42-8.89,10.55s-2.68,1.81-3.87,5.89-.38,13.9-.38,13.9.57-8.34,2.94-10.47,15.34-8.62,15.34-8.62l-4.86-1.61,13.16-5.26a52.67,52.67,0,0,0-7.9-4.54c-3.8-1.63-7-2.62-7-2.62Z"/><path class="cls-14" d="M74.08,122c0,.11-.11.23-.17.34a13.59,13.59,0,0,1-4.32,4.25c-2,1.31-8.53,2.3-8.53,2.3a25.13,25.13,0,0,0,3.49-2.51c1.37-1.26,1.91-2.75,2.43-5.16s-.6-3.37,2.24-5.27c1.16.37,2.72.62,3.47.79a4.91,4.91,0,0,0,1.26,0s0,0,0,0A8.7,8.7,0,0,1,74.08,122Z"/><path class="cls-14" d="M77,125.51c-3,3,0,7.1,0,7.1s-5-4.11-3.27-9.15a6.25,6.25,0,0,0,.11-1.06v0c.25-1.81,1-3.61-.44-5.15,0,0,.21-.17.5-.37,0,0,0,0,.06-.06h0a11.34,11.34,0,0,0,2.93-.54,4.94,4.94,0,0,1,1.1,1.14C79.93,120.55,78.27,124.28,77,125.51Z"/><polygon class="cls-15" points="47.52 89.27 47.46 89.18 46.31 87.18 45.05 84.99 43.78 87.18 42.63 89.18 42.58 89.27 42.63 89.37 43.78 91.36 45.05 93.55 46.31 91.36 47.46 89.37 47.52 89.27"/><polygon class="cls-15" points="106.08 89.27 106.03 89.18 104.88 87.18 103.61 84.99 102.35 87.18 101.2 89.18 101.14 89.27 101.2 89.37 102.35 91.36 103.61 93.55 104.88 91.36 106.03 89.37 106.08 89.27"/></g></g></svg>