<svg xmlns="http://www.w3.org/2000/svg" viewBox="0 0 145.36 145.95"><defs><style>.cls-1{fill:#f0ebbe;}.cls-2{fill:#e1bf9c;}.cls-3{fill:#f2d1ac;}.cls-4,.cls-6{fill:#c09a80;}.cls-4{opacity:0.7;}.cls-5{fill:#d3a789;}.cls-7{fill:#e0b89b;}.cls-8{fill:#d7c591;}.cls-9{fill:#965458;}.cls-10{fill:#191919;}.cls-11{fill:#5aadc5;}</style></defs><title>Asset 159</title><g id="Layer_2" data-name="Layer 2"><g id="Layer_1-2" data-name="Layer 1"><rect class="cls-1" width="145.36" height="145.95"/><path class="cls-2" d="M74.49,91.48V145.9H44.9a5.71,5.71,0,0,0-.75-.31c0-.56,0-1.1,0-1.6.48-21.29,10.9-27.43,15.71-29.15a12,12,0,0,1,2.39-.63,2.35,2.35,0,0,0,.6-.08A2.77,2.77,0,0,0,64.26,113s0,0,0,0A13.17,13.17,0,0,0,66,108.36a15.92,15.92,0,0,0,.31-1.69c.17-1,.3-2.06.42-3.16,0-.66.13-1.32.19-2,.27-3.34.35-7,.35-10.42C67.29,91.08,71.27,91.48,74.49,91.48Z"/><path class="cls-3" d="M104.91,145.59a4.45,4.45,0,0,0-.71.31H74.49V91.48h.06c3.22,0,7.22-.4,7.22-.4,0,3.42.07,7,.35,10.33,0,.67.13,1.33.19,2,.13,1.14.23,2.21.39,3.23v0l.25,1.29a16.72,16.72,0,0,0,1,3.36A4.58,4.58,0,0,0,86,114a1.7,1.7,0,0,0,.83.2S104.91,116.38,104.91,145.59Z"/><path class="cls-4" d="M82.72,106.61v0a9.56,9.56,0,0,1-8.2,4.46h0a10.26,10.26,0,0,1-8.15-4.44c.16-1,.31-2.05.41-3.15.06-.66.12-1.33.19-2a32.44,32.44,0,0,0,7.47,1h.08a30.84,30.84,0,0,0,7.64-1l.18,2C82.43,104.52,82.55,105.6,82.72,106.61Z"/><path class="cls-5" d="M74.56,29C43.22,29,43,55.28,44.44,72.45c-2.15-4.07-8.51-2.81-8,3.6.5,6.18,9.49,9.37,9.36,8.65C48.38,98.84,63.13,107,74.56,107h.25V29.05Z"/><path class="cls-6" d="M38.45,73.34A3,3,0,0,1,43,72.48a2.58,2.58,0,0,1,.73,2.84c-.21.82-1.08.89-.87,2.14a2.22,2.22,0,0,0,1.25,1.82,2.9,2.9,0,0,1,1.06,1.15,3.11,3.11,0,0,1,.14,1.77c-.24,1-1.71.21-2.7-.24a18.53,18.53,0,0,1-3.25-2.64C38,77.84,37.42,75,38.45,73.34Z"/><path class="cls-7" d="M74.72,29c31.34,0,31.52,26.24,30.13,43.41,2.14-4.07,8.51-2.81,8,3.6-.5,6.18-9.48,9.37-9.36,8.65C100.9,98.84,86.15,107,74.72,107h-.24V29.05Z"/><path class="cls-6" d="M110.83,73.34a3,3,0,0,0-4.52-.86,2.58,2.58,0,0,0-.74,2.84c.22.82,1.09.89.88,2.14a2.19,2.19,0,0,1-1.26,1.82,3,3,0,0,0-1.06,1.15A3.11,3.11,0,0,0,104,82.2c.23,1,1.71.21,2.7-.24a18.11,18.11,0,0,0,3.24-2.64C111.26,77.84,111.86,75,110.83,73.34Z"/><path class="cls-2" d="M74.29,36.44c-10.31,0-17.86,3-22.43,8.91-6.37,8.25-6.13,20.87-3.78,29.92.72,2.76,1.09,10.22,1.59,13C51.89,100.47,65.4,107,74.29,107h.24V36.45Z"/><path class="cls-3" d="M96.68,45.37c-4.54-5.88-12-8.87-22.15-8.92V107c10.16-.12,22.3-7.26,24.39-18.76.49-2.74.86-10.2,1.58-13C102.85,66.24,103.08,53.64,96.68,45.37Z"/><path class="cls-8" d="M85.18,145.9h19.09a5.11,5.11,0,0,1,.75-.31c0-.56,0-1.1,0-1.6,0-4.62,1.4-7.1-.31-11.72-1.92-5.15-.5-5-3.7-10.46-2.26-3.88-7.84-6-11.7-7a38.21,38.21,0,0,0-4-.83S84.56,132.85,85.18,145.9Z"/><path class="cls-8" d="M64,145.9H44.9a5.71,5.71,0,0,0-.75-.31c0-.56,0-1.1,0-1.6,0-4.62-1.4-7.1.32-11.72,1.91-5.15.49-5,3.69-10.46,2.26-3.88,7.84-6,11.7-7a38.21,38.21,0,0,1,4-.83S64.62,132.85,64,145.9Z"/><path class="cls-9" d="M68.38,110.3c-.23.1-3.37,1.56-3.37,1.58-.46.35-6.32,3-6.78,3.45-2.27,1.93-.25,5.74-1.88,7.87-6.93,9-9.8,14-9.21,22.7H74.22V116.26Z"/><path class="cls-9" d="M80,110.3c.23.1,3.37,1.56,3.37,1.58.46.35,6.3,2.78,6.76,3.2,2.27,1.93.27,6,1.9,8.12,6.93,9,9.79,14,9.21,22.7H74.11V116.26Z"/><path class="cls-10" d="M78.93,131.89A2.88,2.88,0,1,0,76.18,129,2.82,2.82,0,0,0,78.93,131.89Z"/><path class="cls-10" d="M79.36,141.62a2.83,2.83,0,0,0-2.76,2.87A2.68,2.68,0,0,0,77,145.9h4.75a2.68,2.68,0,0,0,.38-1.41A2.81,2.81,0,0,0,79.36,141.62Z"/><path class="cls-10" d="M84.92,112.56a11.19,11.19,0,0,1-.88-2.72c-1-4.24-1.39-3.9-1.39-3.9s-.14-.17.11,1.08-7.93,3.18-8.3,2.89c-.13-.12-.19.82-.22,2,0-1.19-.08-2.13-.21-2-.34.29-8-1.61-7.8-2.89s.1-1.08.1-1.08-.41-.34-1.3,3.9a11.49,11.49,0,0,1-.84,2.72,22.61,22.61,0,0,0,4.21,2c4.38,1.46,5.83,1.76,5.83,1.76s0-.32,0-.81c0,.49,0,.81,0,.81s1.54-.3,6.2-1.76A24.49,24.49,0,0,0,84.92,112.56Z"/><path class="cls-11" d="M93.05,36.32a2.86,2.86,0,0,0-.19-1.42,14.84,14.84,0,0,0-1-3.87C90.54,27.8,96,19.17,96,19.17s-8.65,5.42-11.89,4.12A19.08,19.08,0,0,0,78.6,22a66.38,66.38,0,0,1-3.21-10,68.54,68.54,0,0,1-3.1,9.66.8.8,0,0,0-.27,0c-2.81.73-3.94.29-7.18,1.6S53,19.16,53,19.16,58.4,27.81,57.1,31s-.87,4.37-1.6,7.18c-.22.87,1.52,2.84,4.46,1.47a8.4,8.4,0,0,0,1.9.86c5.06,1.55,8.57,4,12.19,6.28a3.67,3.67,0,0,0,1.28.45h.06a3.54,3.54,0,0,0,1.27-.45c3.63-2.28,7.15-4.73,12.2-6.28a8.75,8.75,0,0,0,1.23-.49c2.25.48,3.53-1.1,3.34-1.85A16.17,16.17,0,0,1,93.05,36.32Z"/></g></g></svg>