<svg xmlns="http://www.w3.org/2000/svg" viewBox="0 0 145.36 145.95"><defs><style>.cls-1{fill:#d7878e;}.cls-2{fill:#e1bf9c;}.cls-3{fill:#f2d1ac;}.cls-4,.cls-6{fill:#c09a80;}.cls-4{opacity:0.7;}.cls-5{fill:#d3a789;}.cls-7{fill:#e0b89b;}.cls-8{fill:#c6696e;}.cls-9{fill:#d87373;}.cls-10{fill:#f6f0d7;}.cls-11{fill:#844a4a;}.cls-12{fill:#424380;}.cls-13{fill:#3a2442;}.cls-14{fill:#563760;}</style></defs><title>Asset 184</title><g id="Layer_2" data-name="Layer 2"><g id="Layer_1-2" data-name="Layer 1"><rect class="cls-1" width="145.36" height="145.95"/><path class="cls-2" d="M77.14,91.1v54.42H47.55l-.72-.31c0-17.76,6.7-25.52,12-28.88a16.3,16.3,0,0,1,6.16-2.49h.15a2.7,2.7,0,0,0,.39-.08c1.5-.42,2.51-2.62,3.2-5.75.12-.56.23-1.12.31-1.72.17-1,.31-2.06.42-3.16.06-.66.12-1.32.18-2,.27-3.34.36-7,.36-10.42C70,90.7,73.93,91.1,77.14,91.1Z"/><path class="cls-3" d="M107.56,145.21l-.7.31H77.14V91.1h.07c3.21,0,7.22-.4,7.22-.4,0,3.43.08,7,.35,10.34.06.67.12,1.33.19,2,.12,1.14.25,2.22.41,3.23v0c.06.45.15.87.23,1.28.62,3,1.54,5.29,2.86,6a1.1,1.1,0,0,0,.31.12,1.7,1.7,0,0,0,.67.13,15.06,15.06,0,0,1,4.4,1.5C99.2,118,107.56,125.4,107.56,145.21Z"/><path class="cls-4" d="M85.37,106.26v0a9.53,9.53,0,0,1-8.2,4.46h0A10.33,10.33,0,0,1,69,106.3c.17-1,.31-2,.41-3.15.06-.66.13-1.33.19-2a32,32,0,0,0,7.47,1h.08a30.37,30.37,0,0,0,7.64-1.06c.06.67.13,1.33.18,2C85.08,104.17,85.2,105.24,85.37,106.26Z"/><path class="cls-5" d="M77.11,32.63c-30.88-.06-31.06,24.75-29.69,40.94-2.11-3.8-8.37-2.39-7.86,3.69.49,5.82,9.34,8.46,9.22,7.82,2.52,13.18,17.08,20.5,28.33,21.55h.24v-74Z"/><path class="cls-6" d="M41.11,74.69a3,3,0,0,1,4.52-.82,2.38,2.38,0,0,1,.74,2.7c-.22.78-1.09.84-.87,2a2.12,2.12,0,0,0,1.25,1.73,2.36,2.36,0,0,1,1.19,2.77c-.23,1-1.71.2-2.7-.22A19.16,19.16,0,0,1,42,80.37C40.68,79,40.07,76.25,41.11,74.69Z"/><path class="cls-7" d="M77.26,32.63c30.89-.06,31.06,24.75,29.69,40.94,2.12-3.8,8.38-2.39,7.87,3.69-.49,5.82-9.34,8.46-9.22,7.82-2.53,13.18-17.08,20.5-28.34,21.55H77v-74Z"/><path class="cls-6" d="M113.49,74.69a3.06,3.06,0,0,0-4.53-.82,2.36,2.36,0,0,0-.73,2.7c.22.78,1.08.84.87,2a2.11,2.11,0,0,1-1.26,1.73,2.76,2.76,0,0,0-1,1.09,2.82,2.82,0,0,0-.14,1.68c.24,1,1.71.2,2.7-.22a19.63,19.63,0,0,0,3.25-2.51C113.91,79,114.52,76.25,113.49,74.69Z"/><path class="cls-2" d="M77,39.65c-10.31,0-17.86,2.85-22.43,8.46C48.14,56,48.38,67.92,50.74,76.52c.71,2.63,1.08,9.7,1.58,12.31,2.23,11.62,15.73,17.81,24.63,17.81h.24v-67Z"/><path class="cls-3" d="M99.33,48.12c-4.54-5.57-12-8.42-22.14-8.47v67c10.15-.1,22.29-6.88,24.38-17.8.5-2.61.86-9.68,1.59-12.31C105.5,67.94,105.73,56,99.33,48.12Z"/><path class="cls-8" d="M82.38,96.13s-2.33,2.49-5.21,2.49a7.74,7.74,0,0,1-5.06-2.43,32.85,32.85,0,0,1,5.06-.38A42.71,42.71,0,0,1,82.38,96.13Z"/><path class="cls-9" d="M78.65,95a1.36,1.36,0,0,0-1.48,1.14A1.34,1.34,0,0,0,75.7,95,20.86,20.86,0,0,0,72,96.13s2.85.31,3.66.31,1.53.32,1.54-.29c0,.61.6.38,1.41.38s3.8-.4,3.8-.4A20.86,20.86,0,0,0,78.65,95Z"/><path class="cls-10" d="M110.49,62a39.58,39.58,0,0,1-.37,4.91,8.59,8.59,0,0,1-.45,2.16,28.34,28.34,0,0,0-1.62,5.46,6.93,6.93,0,0,0-1.81,2.65c-1,2.57-1.37,2.14-1.37,2.14s.31-2,.67-4.52c.2-2.1.49-5.21.72-7.89,0-.37.07-.74.09-1.1-.44-2.16-4.51-12.51-23.84-11.53A18.26,18.26,0,0,1,73.79,52c-2.53-1.27-4.29-2.62-4.46-2.62-.85,0-8.59-1.44-13.13,1.95a7.71,7.71,0,0,0-.82.67C50,56.7,49.25,64.81,49.25,66.43a4.44,4.44,0,0,0,0,.5c.14,3.34,1.53,12.41,1.53,12.41s-.37.43-1.37-2.14a7.07,7.07,0,0,0-2.16-3c-1.08-2.29-1.68-3-2.22-5.15A14.18,14.18,0,0,0,44,66.93c-1-2-2.22-5.79-1-14.89.06-.42.12-.84.19-1.27,1-6.23,5.68-20.21,18.17-22.7S76.76,22.65,87,26.82s16.66,7.08,19.79,14A43.28,43.28,0,0,1,109.62,52,81.32,81.32,0,0,1,110.49,62Z"/><path class="cls-11" d="M68.7,106.75c-1.78.71-.69,1.06-1.63,3.3s-.65,2-.65,2.58.33.63,1.33,1c5.48,2,5-1.41,5.4-2.09s2.27-1.61-.09-2-3.69-.45-4.08-1.62S68.7,106.75,68.7,106.75Z"/><path class="cls-11" d="M85.56,106.75c1.77.71.68,1.06,1.63,3.3s.65,2,.65,2.58-.33.63-1.33,1c-5.48,2-5.05-1.41-5.4-2.09s-2.28-1.61.08-2,3.69-.45,4.08-1.62S85.56,106.75,85.56,106.75Z"/><path class="cls-12" d="M72.2,109.33c3.07-1.16,4.19-.84,6.47-.74,3.69.16,3.78,4.53,3.31,5.84s-4.91,2.12-6.32,1.82-5.84-1-4.78-2.21a5.75,5.75,0,0,0,1.54-3.69C72.38,110,72.2,109.33,72.2,109.33Z"/><path class="cls-13" d="M107.56,145.21l-.7.31H47.41l-.73-.31c0-17.76,7.33-27.09,13.75-29.87,4.83,4.87,10.51,12.48,12,13.92,2.6,2.43,4.19,6.59,5.83,5.54s10.77-13.91,15.51-19.46C99.18,118,107.56,125.4,107.56,145.21Z"/><path class="cls-14" d="M64,115.14c.59,1.22,7.12,8.42,8.9,10.55s2.68,1.81,3.86,5.89.39,13.9.39,13.9-.58-8.35-3-10.47-15.34-8.62-15.34-8.62l4.86-1.62-13.16-5.25A52.44,52.44,0,0,1,58.44,115c3.79-1.63,7-2.62,7-2.62Z"/><path class="cls-14" d="M90.44,115.41c-.6,1.23-7.12,8.42-8.9,10.55s-2.68,1.81-3.86,5.89-.38,13.9-.38,13.9.56-8.34,2.94-10.47,15.34-8.62,15.34-8.62l-4.86-1.61,13.16-5.26A53,53,0,0,0,96,115.25c-3.8-1.63-7-2.62-7-2.62Z"/></g></g></svg>