<svg xmlns="http://www.w3.org/2000/svg" viewBox="0 0 145.36 146.53"><defs><style>.cls-1{fill:#5aadc5;}.cls-2{fill:#e1bf9c;}.cls-3{fill:#f2d1ac;}.cls-10,.cls-4{fill:#c09a80;}.cls-4{opacity:0.7;}.cls-5{fill:#3b4f42;}.cls-6{fill:#d87373;}.cls-7{fill:#751d23;}.cls-8{fill:#6c3415;}.cls-9{fill:#d3a789;}.cls-11{fill:#e0b89b;}.cls-12{fill:#c6696e;}.cls-13{fill:#070808;}.cls-14{fill:#319e71;}.cls-15{fill:#379da5;}.cls-16{fill:#231f20;}.cls-17{fill:#8c3d1e;}.cls-18{fill:#35853f;}</style></defs><title>Asset 173</title><g id="Layer_2" data-name="Layer 2"><g id="Layer_1-2" data-name="Layer 1"><rect class="cls-1" width="145.36" height="145.95"/><path d="M88.8,87.88c-.13,3.78.34,10.08.6,13.09s.71,11.69.07,15.36-.53,8.26-1.45,8.34-1.28-1.84-.9-4,.59-15.08.47-17.66-.74-10.62-.78-11a17.85,17.85,0,0,1,1.1-3.69C88.35,87.36,88.8,87.88,88.8,87.88Z"/><path d="M104.22,84a120.45,120.45,0,0,0-.23,19.26c.38,6,1.07,15.93,1,20.95s-1,14.59-1,14.59l-1.33,1.71s-.64,0,0-7.8c.58-7.36.37-10.54-.31-19.57-.44-5.91-1.22-18.3-.68-21.08A71.88,71.88,0,0,1,104.22,84Z"/><path d="M97.94,92.13a124.82,124.82,0,0,0-.88,16.76c0,3.87-.5,15-2.17,19.52s-2.18,10.35-3.83,10.21-2-2.65-1-5.33,3.3-19,3.47-22.28.28-13.67.25-14.1a17.21,17.21,0,0,1,2.51-4.4C97.23,91.37,97.94,92.13,97.94,92.13Z"/><path d="M101.32,87.72c0,4.84.67,12.86,1,16.68s1.08,14.9.57,19.61-.26,10.57-1.19,10.7-1.33-2.3-1-5.09.1-19.26-.1-22.56-1.08-13.53-1.13-14a26.48,26.48,0,0,1,1-4.75C100.87,87.08,101.32,87.72,101.32,87.72Z"/><path d="M99.51,87.72c0,4.84.67,12.86,1,16.68s1.08,14.9.56,19.61-.26,10.57-1.18,10.7-1.33-2.3-1-5.09.1-19.26-.11-22.56-1.07-13.53-1.12-14a26.48,26.48,0,0,1,1-4.75C99.05,87.08,99.51,87.72,99.51,87.72Z"/><path d="M99.34,86.91c-.29,4.83-.09,12.88,0,16.72s.2,14.93-.59,19.61-.88,10.53-1.81,10.61-1.19-2.37-.72-5.15,1.24-19.22,1.22-22.52-.28-13.57-.31-14a27.55,27.55,0,0,1,1.25-4.68C98.92,86.25,99.34,86.91,99.34,86.91Z"/><path d="M49.91,82.29c-7.25,27-5.87,36.92-5.39,37.3s.87.75,1.27-2.92C49.42,83,52.22,86.23,52.29,85s.88-2-.39-2.67A1.78,1.78,0,0,0,49.91,82.29Z"/><path d="M50.42,82a119.12,119.12,0,0,1-1.07,19.23c-.79,6-2.14,15.83-2.43,20.83s0,14.63,0,14.63l1.21,1.8s.64.07.55-7.78c-.08-7.39.35-10.55,1.64-19.51.84-5.87,2.46-18.18,2.1-21A71.19,71.19,0,0,0,50.42,82Z"/><path d="M50,85.44a119.27,119.27,0,0,1,.23,19.26c-.38,6-1.07,15.93-1,21s1,14.59,1,14.59L51.58,142s.64,0,0-7.81c-.58-7.36-.37-10.54.31-19.57.44-5.91,1.23-18.3.68-21.08A69.75,69.75,0,0,0,50,85.44Z"/><path d="M56.31,93.54a124.82,124.82,0,0,1,.88,16.76c0,3.88.5,15,2.18,19.52S61.54,140.17,63.2,140s2-2.65,1-5.33-3.31-19-3.48-22.28-.27-13.67-.25-14.1A17.79,17.79,0,0,0,58,93.91C57,92.78,56.31,93.54,56.31,93.54Z"/><path d="M59.13,93.77c.78,4.77,1.42,12.8,1.69,16.63s1.35,14.88,2.62,19.44,2,10.39,2.9,10.36.94-2.48.18-5.19S63.3,116,63,112.74s-1.13-13.53-1.15-13.95a27.82,27.82,0,0,0-1.73-4.53C59.48,93.07,59.13,93.77,59.13,93.77Z"/><path d="M52.93,89.13c0,4.84-.67,12.86-1,16.68s-1.08,14.9-.56,19.61.26,10.57,1.18,10.7,1.33-2.3,1-5.09-.1-19.26.11-22.56,1.08-13.53,1.13-14a27.61,27.61,0,0,0-1-4.75C53.39,88.49,52.93,89.13,52.93,89.13Z"/><path d="M54.74,89.13c0,4.84-.67,12.86-1,16.68s-1.08,14.9-.56,19.61.26,10.57,1.18,10.7,1.33-2.3,1-5.09-.1-19.26.11-22.56,1.08-13.53,1.13-14a27.61,27.61,0,0,0-1-4.75C55.2,88.49,54.74,89.13,54.74,89.13Z"/><path d="M62.48,88.36c.39,4.82.38,12.88.33,16.71s.14,14.94,1,19.59,1.13,10.51,2,10.56,1.15-2.39.61-5.16-1.67-19.18-1.73-22.48,0-13.58,0-14a27.24,27.24,0,0,0-1.37-4.65C62.89,87.69,62.48,88.36,62.48,88.36Z"/><path d="M44.49,118a8.28,8.28,0,0,0-.22,4.32c.18,1.62.09,3.62.84,4.17s1.69,1.23,1.61-.22-.58-2.39-.82-4.11-.43-3.76-.43-3.76Z"/><path class="cls-2" d="M77.11,92.06v54.43H47.52l-.72-.32c0-24.81,13.09-30.1,17-31.14a7.08,7.08,0,0,1,.91-.19.2.2,0,0,0,.11,0l.08,0h.14a2.57,2.57,0,0,0,.4-.08A2.81,2.81,0,0,0,67,113.43,13.64,13.64,0,0,0,68.65,109c.12-.54.23-1.1.31-1.7.16-1,.31-2,.41-3.16.06-.66.13-1.32.19-2,.27-3.34.35-7,.35-10.41C69.91,91.67,73.89,92.06,77.11,92.06Z"/><path class="cls-3" d="M85.58,108.51a15.42,15.42,0,0,0,1.57,4.69c-.33,3.3,16.69,33.33,16.69,33.33s-26.71,0-26.73,0V92.06h.07c3.21,0,7.21-.39,7.21-.39,0,3.42.09,7,.36,10.33.06.66.13,1.33.19,2,.12,1.14.24,2.22.41,3.24v0C85.41,107.68,85.49,108.1,85.58,108.51Z"/><path class="cls-3" d="M88.75,114.68l.33.1a1,1,0,0,1-.33-.06,1.72,1.72,0,0,1-.62-.4,1.24,1.24,0,0,0,.31.23C88.55,114.59,88.65,114.65,88.75,114.68Z"/><path class="cls-3" d="M89.08,114.78l.21,0h-.14A.11.11,0,0,1,89.08,114.78Z"/><path class="cls-3" d="M89.41,114.8l.07,0-.19,0Z"/><path class="cls-3" d="M107.53,146.17s-.27.11-.7.32h-7c1.31-2.5,3.51-8.82-2.67-15.94a25.77,25.77,0,0,0-2.08-2.14,11.46,11.46,0,0,1-1.47-1.6c-3.1-3.85-3.22-8.42-3.22-11.78a3.71,3.71,0,0,1-.46-.13A18.08,18.08,0,0,1,96.6,118a20.1,20.1,0,0,1,3.11,2.76C103.79,125.22,107.53,132.89,107.53,146.17Z"/><path class="cls-4" d="M85.34,107.22v0a9.58,9.58,0,0,1-8.2,4.46h0A10.32,10.32,0,0,1,69,107.26c.16-1,.3-2.06.41-3.16.06-.66.13-1.33.19-2a32.43,32.43,0,0,0,7.47,1h.08A30.84,30.84,0,0,0,84.74,102c.06.66.12,1.33.18,2C85.05,105.12,85.17,106.2,85.34,107.22Z"/><path class="cls-5" d="M95.14,128.26c-4.53-4.14-4.69-9.52-4.69-13.35l-.46-.12c-.18-.05-.35-.07-.45-.09l-.19,0H89.2a.07.07,0,0,1-.06,0,1,1,0,0,1-.33-.06,1.61,1.61,0,0,1-.62-.39,0,0,0,0,1,0,0,3.45,3.45,0,0,1-1-1.09c-.33,3.29-.68,9.37-1.12,11-4.72,17.69-13.21,18-17.76,0-.43-1.69-.83-7.54-1.16-10.8a2.88,2.88,0,0,1-1.56,1.28,2.7,2.7,0,0,1-.39.08h-.15l-.19,0a.18.18,0,0,1-.1,0l-.81.19c0,3.83-.17,9.21-4.69,13.35-8.69,7.94-6.18,15.28-4.75,18H99.89C101.32,143.54,103.83,136.2,95.14,128.26Z"/><path class="cls-6" d="M88.11,114.3a3.64,3.64,0,0,1-1-1.1.25.25,0,0,0,0-.12A8.54,8.54,0,0,0,88.11,114.3Z"/><path d="M65.46,89.28c.12,3.79-.35,10.1-.6,13.1s-.71,11.69-.08,15.36.53,8.26,1.46,8.34,1.28-1.84.89-4-.59-15.08-.46-17.66.73-10.63.77-11a17.24,17.24,0,0,0-1.1-3.69C65.9,88.77,65.46,89.28,65.46,89.28Z"/><path d="M68.1,89.66c0,4.59-.71,12.19-1.08,15.81s-1.13,14.12-.63,18.59.23,10,1.15,10.14,1.34-2.17,1-4.83,0-18.25.17-21.37,1.13-12.83,1.18-13.22a24.07,24.07,0,0,0-1-4.51C68.56,89.06,68.1,89.66,68.1,89.66Z"/><path class="cls-7" d="M99.71,120.78a41.08,41.08,0,0,0-2.55,9.77,25.77,25.77,0,0,0-2.08-2.14,11.46,11.46,0,0,1-1.47-1.6c.6-3.07,1.55-6.61,3-8.79A20.1,20.1,0,0,1,99.71,120.78Z"/><path class="cls-7" d="M54.16,121.25A41.32,41.32,0,0,1,56.71,131a23,23,0,0,1,2.08-2.14,12.11,12.11,0,0,0,1.47-1.6c-.61-3.07-1.56-6.62-3-8.8A21.2,21.2,0,0,0,54.16,121.25Z"/><path class="cls-8" d="M46.7,118.31A1.65,1.65,0,0,1,45.05,120h0a1.65,1.65,0,0,1-1.65-1.66h0a1.65,1.65,0,0,1,1.65-1.65h0a1.65,1.65,0,0,1,1.65,1.65Z"/><path d="M54.91,88.33c.29,4.82.09,12.87,0,16.71s-.21,14.93.58,19.61.88,10.53,1.81,10.61,1.2-2.37.72-5.15-1.23-19.22-1.22-22.52.29-13.57.31-14a26.63,26.63,0,0,0-1.25-4.68C55.34,87.66,54.91,88.33,54.91,88.33Z"/><path d="M103.83,80.59a120.29,120.29,0,0,0,1.07,19.23c.79,6,2.14,15.83,2.43,20.83s0,14.63,0,14.63l-1.21,1.8s-.64.07-.55-7.79c.09-7.37-.34-10.53-1.63-19.5-.85-5.86-2.47-18.18-2.11-21A71.19,71.19,0,0,1,103.83,80.59Z"/><path d="M95.13,92.36c-.79,4.77-1.43,12.8-1.7,16.63s-1.35,14.87-2.62,19.44-2,10.39-2.9,10.36-.94-2.47-.18-5.19,3.23-19,3.55-22.27,1.14-13.53,1.16-14a26.06,26.06,0,0,1,1.73-4.53C94.78,91.66,95.13,92.36,95.13,92.36Z"/><path d="M91.78,87c-.4,4.82-.39,12.87-.34,16.71s-.13,14.94-1,19.59-1.12,10.51-2,10.57-1.15-2.4-.61-5.17,1.67-19.18,1.74-22.48,0-13.58,0-14a27.24,27.24,0,0,1,1.37-4.65C91.37,86.28,91.78,87,91.78,87Z"/><path d="M86.16,88.25c0,4.59.7,12.19,1.08,15.81s1.12,14.12.62,18.58-.23,10-1.15,10.15-1.34-2.17-1-4.83,0-18.25-.17-21.37-1.12-12.83-1.18-13.22a24.57,24.57,0,0,1,1-4.51C85.69,87.65,86.16,88.25,86.16,88.25Z"/><path d="M56.12,91.65c.57,4.8.87,12.85,1,16.69s.71,14.91,1.78,19.53,1.53,10.46,2.46,10.48,1.05-2.44.4-5.18-2.4-19.11-2.59-22.4-.55-13.57-.55-14a27.9,27.9,0,0,0-1.53-4.6C56.5,91,56.12,91.65,56.12,91.65Z"/><path class="cls-9" d="M77.08,33.58C46.2,33.52,46,58.34,47.39,74.52c-2.12-3.8-8.38-2.39-7.86,3.69C40,84,48.87,86.67,48.75,86c2.52,13.18,17.08,20.5,28.33,21.54h.24v-74Z"/><path class="cls-10" d="M41.08,75.64a3,3,0,0,1,4.52-.82,2.38,2.38,0,0,1,.74,2.7c-.23.78-1.09.85-.88,2a2.14,2.14,0,0,0,1.25,1.73,2.75,2.75,0,0,1,1.06,1.1,2.7,2.7,0,0,1,.14,1.67c-.24,1-1.71.2-2.7-.22A18.66,18.66,0,0,1,42,81.32C40.65,79.92,40,77.21,41.08,75.64Z"/><path class="cls-11" d="M77.23,33.58c30.88-.06,31.06,24.76,29.69,40.94,2.12-3.8,8.37-2.39,7.87,3.69-.5,5.83-9.35,8.46-9.22,7.83-2.53,13.18-17.08,20.5-28.34,21.54H77v-74Z"/><path class="cls-10" d="M113.46,75.64a3.07,3.07,0,0,0-4.54-.82,2.4,2.4,0,0,0-.73,2.7c.22.78,1.09.85.88,2a2.09,2.09,0,0,1-1.26,1.73,2.4,2.4,0,0,0-1.19,2.77c.24,1,1.71.2,2.7-.22a18.66,18.66,0,0,0,3.24-2.51C113.88,79.92,114.49,77.21,113.46,75.64Z"/><path class="cls-2" d="M76.92,40.61c-10.32,0-17.86,2.84-22.43,8.45-6.38,7.84-6.14,19.82-3.79,28.41.72,2.63,1.09,9.71,1.59,12.31C54.51,101.4,68,107.6,76.92,107.6h.24v-67Z"/><path class="cls-3" d="M99.3,49.07c-4.54-5.57-12-8.41-22.14-8.46v67c10.15-.11,22.29-6.89,24.38-17.81.49-2.6.86-9.68,1.58-12.31C105.47,68.9,105.7,56.94,99.3,49.07Z"/><path class="cls-12" d="M82.35,97.09S80,99.58,77.14,99.58a7.77,7.77,0,0,1-5.07-2.44,33.07,33.07,0,0,1,5.07-.38A41.44,41.44,0,0,1,82.35,97.09Z"/><path class="cls-6" d="M78.62,95.94a1.35,1.35,0,0,0-1.48,1.13,1.34,1.34,0,0,0-1.47-1.13,20.86,20.86,0,0,0-3.73,1.15s2.84.3,3.66.3,1.53.32,1.54-.28c0,.6.6.37,1.41.37s3.8-.39,3.8-.39A20.86,20.86,0,0,0,78.62,95.94Z"/><path d="M110.91,66.63c0,7.48-.74,5.76,1.58,17.54,1.6,8.13,3.3,10.61,3.3,10.61s-10.65-13.57-9.86-27C106.05,65.67,110.91,66.63,110.91,66.63Z"/><path d="M43.16,62.46c1,7.4,1.5,5.6.78,17.58-.49,8.28-1.84,11-1.84,11s8.73-14.87,6.14-28.11C47.84,60.85,43.16,62.46,43.16,62.46Z"/><path class="cls-13" d="M115,53.78c.53,1.26,1,2.47,1.48,3.58s.78,2.16,1.14,3.08.59,1.74.82,2.41c.46,1.34.74,2.1.74,2.1s-.08-.8-.29-2.21-.57-3.41-1.14-5.79c-.34-1.18-.7-2.46-1.12-3.8s-1-2.73-1.62-4.13a41.47,41.47,0,0,0-2.16-4.25,40.83,40.83,0,0,0-2.69-4.16,24.13,24.13,0,0,0-1.62-2.06C100.84,26.6,89.2,26.87,89.2,26.87S87.29,26,84.52,25.1l-1.39-.73a15.1,15.1,0,0,0-2.2-1,17.42,17.42,0,0,0-2.37-.83l-2.51-.67-2.63-.42a21.84,21.84,0,0,0-2.69-.22,20.61,20.61,0,0,0-2.72,0l-2.72.16c-.9.12-1.79.28-2.67.42a38.33,38.33,0,0,0-5.07,1.26c-1.6.58-3.13,1.17-4.53,1.83S50.34,26.26,49.21,27s-2.12,1.47-3,2.1-1.55,1.31-2.16,1.8c-1.17,1-1.81,1.62-1.81,1.62s.77-.44,2.08-1.26c.67-.39,1.42-.95,2.37-1.44s2-1,3.18-1.64,2.5-1,3.85-1.67c1.13-.42,2.34-.79,3.57-1.19l-.42.24a16.13,16.13,0,0,0-5.19,2.71,45,45,0,0,0-5.42,4.92,52.14,52.14,0,0,0-4.37,5.58,55.4,55.4,0,0,0-3.26,5.74c-.9,1.89-1.64,3.72-2.28,5.42a66.23,66.23,0,0,0-2.51,8.38c-.5,2-.7,3.24-.7,3.24l1.2-3.08c.37-1,.85-2.16,1.41-3.51s1.2-2.85,2-4.46a71.27,71.27,0,0,1,5.62-9.89A49.23,49.23,0,0,0,39.08,61c0,5.26,3.83,22.19,2.82,32.36-1,10.65-6.51,40.41-6.51,40.41s9.41-31.33,12.74-49.16a134,134,0,0,0,1.36-14.38L55.7,72.6l.47-6.86.48,6.86,1.64-2.33,1.25-11.86,1.24,11.86,9.1,2.33.48-6.86.48,6.86h3.37l.32-5.37.32,5.37,12-2.33,1.06-8.79.92,11.12,3-2.33.37-3.54.38,3.54,7.69,2.14.8-9.93.8,9.93,3.64-2.33c-.17,8.62.1,4,0,6.28-1.44,30.72,12.1,57.45,12.1,57.45-.86-8.12-13.41-32.91-5-55.48A42,42,0,0,0,115,66.94c.11.55.24,1.1.31,1.66.4,2.07.55,4.14.77,6.14,0,2,.26,4,.19,5.8,0,.93,0,1.83,0,2.7s-.11,1.71-.17,2.52c-.09,1.62-.27,3.1-.4,4.41a32.32,32.32,0,0,1-.45,3.4l-.44,3,.89-2.87c.28-.92.58-2,.85-3.35a35.14,35.14,0,0,0,.85-4.42c.12-.81.24-1.66.37-2.54s.14-1.81.22-2.76a58,58,0,0,0,.16-6,56.56,56.56,0,0,0-.6-6.37,64.42,64.42,0,0,0-1.3-6.5c-.49-1.49-1-3-1.5-4.44a58,58,0,0,0-1.18-6.6C114.09,51.77,114.57,52.8,115,53.78Z"/><path class="cls-13" d="M50.67,39.71l-.62.45a14.07,14.07,0,0,0-1.61,1.44,14.58,14.58,0,0,0-2,2.65,23.06,23.06,0,0,0-1.78,3.91,45,45,0,0,0-2.1,10.57c-.44,4-.58,8.23-1,12.52S40.7,79.8,40,83.79a72.14,72.14,0,0,1-2.72,10.73,50.48,50.48,0,0,1-3,7.21c-.39.86-1,1.59-.39-.17s1.41-4.31,2.24-7.39a101.52,101.52,0,0,0,2-10.68c.56-3.94,1-8.18,1.42-12.43s.7-8.53,1.3-12.55a45.56,45.56,0,0,1,2.82-10.76,17.53,17.53,0,0,1,4.53-6.42A12,12,0,0,1,50,40.07Z"/><path class="cls-14" d="M38.1,95.22a1.66,1.66,0,0,1-1.66,1.66h0a1.66,1.66,0,0,1-1.65-1.66h0a1.65,1.65,0,0,1,1.65-1.65h0a1.65,1.65,0,0,1,1.66,1.65Z"/><path class="cls-15" d="M110.84,116.2a1.65,1.65,0,0,1-1.65,1.66h0a1.66,1.66,0,0,1-1.66-1.66h0a1.65,1.65,0,0,1,1.66-1.65h0a1.65,1.65,0,0,1,1.65,1.65Z"/><path class="cls-16" d="M48.7,45.38s-1,5.72-2.36,14.3c-.34,2.14-.7,4.47-1,6.92s-.65,5.05-1,7.73-.56,5.45-.8,8.27-.41,5.69-.46,8.55a52.45,52.45,0,0,1-.85,8.83,70.42,70.42,0,0,1-2.2,8.25c-1.68,5.2-3.38,9.91-4.09,14.09a27.2,27.2,0,0,0-.36,5.74,19.1,19.1,0,0,0,.79,4.4,22.89,22.89,0,0,0,1,2.72l.45.94-.6-.85a16.33,16.33,0,0,1-1.47-2.6,19.31,19.31,0,0,1-1.37-4.47,23,23,0,0,1-.27-6.09c.34-4.48,1.79-9.48,3.24-14.67.72-2.6,1.37-5.28,1.87-8a49.29,49.29,0,0,0,.7-8.39c.08-2.93.32-5.85.58-8.71s.68-5.68,1.08-8.38.9-5.31,1.45-7.76,1-4.75,1.58-6.87c1-4.24,2.13-7.72,2.86-10.15S48.7,45.38,48.7,45.38Z"/><path class="cls-17" d="M36.44,127.12a1.65,1.65,0,0,1-1.65,1.65h0a1.65,1.65,0,0,1-1.66-1.65h0a1.66,1.66,0,0,1,1.66-1.66h0a1.65,1.65,0,0,1,1.65,1.66Z"/><path class="cls-16" d="M104.61,56s.13,1.29.26,3.56c0,1.14.16,2.51.36,4.07s.38,3.3.69,5.21.65,4,1.06,6.13,1,4.42,1.49,6.77,1.21,4.73,1.89,7.17,1.42,4.9,2.15,7.38,1.46,5,2.12,7.47,1.13,5,1.63,7.42c.16,1.23.31,2.44.46,3.63,0,.61.16,1.13.17,1.8s0,1.14,0,1.7c0,1.11.06,2.19.08,3.24s-.12,2.1-.18,3.09c-.08,2-.32,3.76-.53,5.34s-1.12-1.52-1.26-5.33c0-.95-.07-1.94-.11-3s-.21-2.12-.31-3.23c-.06-.55-.11-1.12-.16-1.68s-.19-1.09-.29-1.64c-.19-1.12-.4-2.27-.6-3.44-.57-2.32-1.12-4.71-1.84-7.14s-1.44-4.89-2.2-7.38-1.46-5-2.07-7.49-1.16-5-1.66-7.36-.86-4.75-1.11-7-.48-4.35-.54-6.31a49,49,0,0,1-.07-5.36c0-1.6.07-3,.19-4.11C104.46,57.24,104.61,56,104.61,56Z"/><path class="cls-18" d="M117.44,121.62a1.65,1.65,0,0,1-1.65,1.65h0a1.65,1.65,0,0,1-1.66-1.65h0a1.65,1.65,0,0,1,1.66-1.65h0a1.65,1.65,0,0,1,1.65,1.65Z"/></g></g></svg>