<svg xmlns="http://www.w3.org/2000/svg" xmlns:xlink="http://www.w3.org/1999/xlink" viewBox="0 0 145.36 146.27"><defs><style>.cls-1{fill:none;}.cls-2{fill:#f6f0d7;}.cls-3{fill:#231f20;}.cls-4{fill:#e2bf9c;}.cls-5{fill:#f2d1ac;}.cls-6{clip-path:url(#clip-path);}.cls-7{fill:#c09a80;}.cls-8{fill:#7f4c50;}.cls-9{fill:#be1e2d;}.cls-10{fill:#d3a789;}.cls-11{fill:#e0b89b;}.cls-12{fill:#422326;}.cls-13{fill:#5b3638;}.cls-14{fill:#4a494a;}.cls-15{fill:#4c4c4c;}.cls-16{fill:#fff;}.cls-17{fill:#3d3d3d;}.cls-18{fill:#2b0f0f;}</style><clipPath id="clip-path"><rect class="cls-1" x="64.9" y="98.81" width="17.49" height="10.34"/></clipPath></defs><title>Asset 155</title><g id="Layer_2" data-name="Layer 2"><g id="Layer_1-2" data-name="Layer 1"><rect class="cls-2" width="145.36" height="145.95"/><polyline class="cls-3" points="47.02 88.93 107.65 88.93 72.78 130.31 46.51 88.93"/><path class="cls-4" d="M73.59,88.21v58.06H42c-.51-.23-.78-.33-.78-.33,0-19.41,7.51-27.63,13.18-31.09a17.33,17.33,0,0,1,6.15-2.39c1.93,0,3.16-2.48,4-6.24a16,16,0,0,0,.33-1.82c.18-1.06.34-2.18.45-3.36.07-.71.13-1.42.2-2.15.28-3.57.37-7.44.37-11.11,0,0,4.26.43,7.68.43"/><path class="cls-5" d="M106.05,145.94a7.48,7.48,0,0,0-.76.33H73.59V88.21h.07c3.44,0,7.7-.43,7.7-.43,0,3.65.09,7.49.37,11,.07.71.14,1.42.21,2.11.13,1.21.26,2.36.44,3.46v0c.06.48.15.92.24,1.37.83,4,2.11,6.7,4.1,6.7a18,18,0,0,1,7.64,3.39c5.4,3.94,11.69,12.33,11.69,30.09"/><g class="cls-6"><path class="cls-7" d="M82.39,104.37v0a10.2,10.2,0,0,1-8.74,4.76H73.6a11,11,0,0,1-8.69-4.74c.17-1.06.33-2.19.44-3.37.07-.69.12-1.42.19-2.15a34.11,34.11,0,0,0,8,1h.09a32.4,32.4,0,0,0,8.15-1.13c.06.71.13,1.42.2,2.1.13,1.23.27,2.38.44,3.46"/></g><polygon class="cls-1" points="67.77 123.31 74.83 127.37 82.39 124.06 73.84 121.45 67.77 123.31"/><path class="cls-1" d="M54.9,115.67a39.17,39.17,0,0,0,2.37,4.59l1.59-2.07,8.25,4.74,5.78-1.76Z"/><path class="cls-1" d="M83.17,123.72l6.39-2.78v.36a37.19,37.19,0,0,0,3-5.58l-17.82,5.45Z"/><path class="cls-8" d="M93,114.85l-.09.2-19.06,5.83L54.65,115v0c0-.08-.07-.15-.1-.22-5.66,3.46-13.17,11.68-13.17,31.09,0,0,.27.1.78.33h63.36c.51-.23.78-.33.78-.33C106.29,126.53,98.71,118.31,93,114.85Zm-34.13,3.34-1.59,2.07a39.17,39.17,0,0,1-2.37-4.59l18,5.5-5.78,1.76Zm16,9.18-7.06-4.06,6.07-1.85,8.55,2.6Zm14.73-6.07v-.36l-6.39,2.78-8.38-2.55,17.82-5.45A37.19,37.19,0,0,1,89.56,121.3Z"/><path class="cls-9" d="M74.9,127.32l-6,1.54-.94-.59c-15.65-9.78-20-18.84-20-18.84l4.5-3.55-3.65-1.23s.87-1.68,2.54-4.27a21,21,0,0,1,2-2.47,15.89,15.89,0,0,1,3.58-2.73c-.1.2-1.07,1.78,1.28,9.52.18.51.33,1,.56,1.52a2,2,0,0,0,.14.33c.11.26.22.49.35.73a.7.7,0,0,0,.06.17c.12.25.23.49.37.73a67.7,67.7,0,0,0,8.4,11.67l1.6,1.78c.64.73,1.31,1.47,2,2.19.39.39.74.79,1.11,1.18L74,126.3l.92,1"/><path class="cls-9" d="M74.46,127.32l6,1.54.94-.59c15.65-9.78,20-18.84,20-18.84l-4.51-3.55,3.66-1.23S99.7,103,98,100.38a19.91,19.91,0,0,0-2-2.47,15.89,15.89,0,0,0-3.58-2.73c.1.2,1.07,1.78-1.28,9.52-.18.51-.33,1-.56,1.52a2,2,0,0,1-.14.33c-.11.26-.22.49-.35.73a.47.47,0,0,1-.07.17c-.11.25-.23.49-.36.73a67.7,67.7,0,0,1-8.4,11.67l-1.6,1.78c-.64.73-1.32,1.47-2,2.19-.38.39-.73.79-1.1,1.18l-1.22,1.3-.92,1"/><path class="cls-10" d="M73.58,25.81c-32.94-.06-33.13,26.41-31.67,43.67-2.26-4-8.94-2.54-8.39,3.94.52,6.22,10,9,9.84,8.35,2.69,14.06,18.22,21.87,30.22,23h.25V25.81h-.25"/><path class="cls-7" d="M35.17,70.69A3.26,3.26,0,0,1,40,69.81a2.54,2.54,0,0,1,.78,2.88c-.23.83-1.16.9-.93,2.16a2.29,2.29,0,0,0,1.34,1.85,2.78,2.78,0,0,1,1.13,1.17,3,3,0,0,1,.14,1.79c-.24,1-1.82.2-2.88-.25a19.13,19.13,0,0,1-3.45-2.67c-1.41-1.49-2.06-4.39-1-6"/><path class="cls-11" d="M73.74,25.81c33-.06,33.14,26.41,31.68,43.67,2.26-4,8.93-2.54,8.38,3.94-.52,6.22-10,9-9.83,8.35-2.7,14.06-18.23,21.87-30.23,23h-.25V25.81h.25"/><path class="cls-7" d="M112.38,70.69a3.26,3.26,0,0,0-4.83-.88,2.54,2.54,0,0,0-.77,2.88c.23.83,1.16.9.92,2.16a2.25,2.25,0,0,1-1.33,1.85,2.82,2.82,0,0,0-1.12,1.17,2.93,2.93,0,0,0-.15,1.79c.25,1,1.82.2,2.87-.25a18.91,18.91,0,0,0,3.47-2.67c1.4-1.49,2-4.39.94-6"/><path class="cls-4" d="M73.41,33.3c-11,0-19.06,3-23.93,9-6.81,8.37-6.55,21.15-4,30.31.76,2.81,1.15,10.36,1.69,13.13,2.37,12.41,16.78,19,26.27,19h.25V33.31h-.25"/><path class="cls-5" d="M97.28,42.33c-4.84-5.95-12.8-9-23.62-9v71.45c10.83-.11,23.79-7.34,26-19,.53-2.77.92-10.32,1.69-13.13,2.51-9.14,2.76-21.9-4.08-30.3"/><path class="cls-12" d="M82.44,92s-3.73,4-8.31,4-8.08-3.91-8.08-3.91a54,54,0,0,1,8.08-.59,68.46,68.46,0,0,1,8.31.51"/><path class="cls-13" d="M76.71,90.27a2.18,2.18,0,0,0-2.36,1.8A2.14,2.14,0,0,0,72,90.27c-1.31,0-6,1.83-6,1.83s4.53.49,5.85.49,2.42.51,2.45-.45c0,1,1,.59,2.24.59s6.07-.63,6.07-.63-4.65-1.83-6-1.83"/><line class="cls-14" x1="105.02" y1="81.72" x2="105.02" y2="87.96"/><rect class="cls-15" x="104.74" y="81.73" width="0.56" height="6.23"/><path class="cls-16" d="M107.25,89.12a2.24,2.24,0,0,0-4.46,0A2,2,0,0,0,104.07,91a1.17,1.17,0,0,0-.33.79,1.29,1.29,0,0,0,2.56,0A1.17,1.17,0,0,0,106,91a2,2,0,0,0,1.28-1.83"/><path class="cls-3" d="M104.55,89a.58.58,0,0,1-1.15,0,.58.58,0,0,1,1.15,0"/><path class="cls-3" d="M106.62,89a.58.58,0,0,1-1.15,0,.58.58,0,0,1,1.15,0"/><polygon class="cls-3" points="105.02 90.69 104.39 90.69 104.71 90.15 105.02 89.6 105.34 90.15 105.65 90.69 105.02 90.69"/><rect class="cls-3" x="104.39" y="91.25" width="1.26" height="0.55"/><path class="cls-17" d="M106.24,81.37A1.22,1.22,0,1,1,105,80.16a1.21,1.21,0,0,1,1.22,1.21"/><path class="cls-18" d="M33,48.2a6.24,6.24,0,0,0,.12,1.27c0-.43-.07-.86-.09-1.3Z"/><path class="cls-3" d="M110.61,39.5C106.89,24.24,82,22,82,22a22.23,22.23,0,0,0-11.68-3.22A31.2,31.2,0,0,0,44.86,31.15c-34.58,43.47,4.25,67.94,4.25,67.94l8.27,4.82S51.32,92,51.2,85.05c-.37-23,14.74-36.25,24.17-42.3h0a49.94,49.94,0,0,1,7.37-4S82,49.19,88.51,53.58s10.28,8.7,11.71,14,2.34,8,1.07,15.59-6.17,20-6.17,20l7.12-5s9.34-7.86,12.9-31.13C116.76,56.45,113.57,51.57,110.61,39.5Z"/><polygon class="cls-2" points="67.73 92.29 68.65 96.14 69.9 92.5 67.73 92.29"/><polygon class="cls-2" points="80.12 92.45 79.19 96.29 77.95 92.66 80.12 92.45"/><path class="cls-2" d="M84.92,140.38c-.53-1.46-2.67-1.18-4-1.65-1.86-.69-3.36-2.45-4.92-3.13,1.91-.67,3.46-1.77,5.74-2.12.89.38,1.77,1.4,3.11.82.53-1.14-.41-1.92-.83-2.62a2.92,2.92,0,0,0-.15-2.48c-2,.05-3,2-4.42,2.8-1.72,1-3.69,1.43-5.58,2.46A25.06,25.06,0,0,0,68,131.83c-.91-1.16-2.25-3.32-4.11-2.45-.08,1.81-.09,3-1,4.27.76,1.55,2.4.27,3.45-.17a19.52,19.52,0,0,1,5.59,2.29c-1.3.17-2.89,2.27-4.93,3-1.77.6-4.59.25-4.11,2.31.19.73,1.12,1,2.29,1A2.63,2.63,0,0,0,67,143.48a2.85,2.85,0,0,0,1.32-2.62c1.86-1.38,3.47-3,5.74-3.94,1.77,1.35,4.17,2.12,5.42,3.94.62.92.52,2.24,1.79,2.62,0,0,2.84,0,3.77-2.29C85.23,140.75,85.15,140.51,84.92,140.38Z"/></g></g></svg>