<svg xmlns="http://www.w3.org/2000/svg" viewBox="0 0 145.36 145.95"><defs><style>.cls-1{fill:#f0ebbe;}.cls-2{fill:#580c13;}.cls-3{fill:#e1bf9c;}.cls-4{fill:#f2d1ac;}.cls-5{fill:#0c1216;}.cls-6,.cls-8{fill:#c09a80;}.cls-6{opacity:0.7;}.cls-7{fill:#d3a789;}.cls-9{fill:#e0b89b;}.cls-10{fill:#c6696e;}.cls-11{fill:#d87373;}.cls-12{fill:#9a1b1f;}.cls-13,.cls-18{fill:none;stroke-miterlimit:10;}.cls-13{stroke:#f4cb13;stroke-width:0.25px;}.cls-14{fill:#2e3393;}.cls-15{fill:#6c5f27;}.cls-16{fill:#0b253a;}.cls-17{fill:#0c1f2c;}.cls-18{stroke:#fac013;stroke-width:0.75px;}</style></defs><title>Asset 186</title><g id="Layer_2" data-name="Layer 2"><g id="Layer_1-2" data-name="Layer 1"><rect class="cls-1" width="145.36" height="145.95"/><path class="cls-2" d="M103.25,65.34s2.14,19.33-1.66,27.91-10,18.62-16.22,21.66-23.54,3.65-34.08,8.84-17,7.47-16.55,12a8.32,8.32,0,0,0,3.92,6.35s-12.79-4.31-12.79-13.3,4.84-12.92,7.78-17.29C42.59,98.17,35.8,80.1,35.8,80.1s9.4-33.93,10.37-33.87S77.91,34.92,81.72,37.4,103.25,65.34,103.25,65.34Z"/><path class="cls-3" d="M71.16,91.31v54.42H41.57l-.72-.31A51.64,51.64,0,0,1,42.2,133c4.16-17.43,16.76-19,16.76-19h.15a1.83,1.83,0,0,0,.39-.09c1.49-.41,2.51-2.61,3.2-5.76.12-.54.22-1.1.31-1.7.16-1,.3-2.06.41-3.16.06-.66.13-1.33.19-2,.27-3.34.35-7,.35-10.42C64,90.91,68,91.31,71.16,91.31Z"/><path class="cls-4" d="M101.58,145.42l-.71.31H71.16V91.31h.06c3.22,0,7.23-.4,7.23-.4,0,3.43.08,7,.35,10.34.06.66.12,1.33.18,2,.13,1.14.25,2.22.42,3.24h0c.06.46.14.88.23,1.29.62,3,1.53,5.29,2.86,6,.1,0,.21.1.31.13a1.89,1.89,0,0,0,.67.12,5,5,0,0,1,.58.11c1.92.41,8.23,2.32,12.72,10C99.53,128.8,101.58,135.59,101.58,145.42Z"/><path class="cls-5" d="M88.45,53.6s-1.82,12.62-.58,16.92-.29,7.09,11.33,13.07c7.18,3.69,19.93,4,26.5-8.6,1.74-3.31,6.37-10.71-6.15-13.91S88.45,53.6,88.45,53.6Z"/><path class="cls-6" d="M79.39,106.46v0a9.57,9.57,0,0,1-8.19,4.46h0A10.29,10.29,0,0,1,63,106.5c.16-1,.31-2,.41-3.15.06-.67.13-1.33.19-2a32.43,32.43,0,0,0,7.47,1h.08a30.84,30.84,0,0,0,7.64-1.06c.06.66.12,1.33.18,2C79.1,104.37,79.22,105.44,79.39,106.46Z"/><path class="cls-7" d="M71.13,32.83c-30.88-.06-31.06,24.75-29.68,40.93-2.12-3.8-8.39-2.38-7.88,3.7.5,5.82,9.35,8.46,9.22,7.81,2.53,13.19,17.09,20.51,28.34,21.55h.23v-74Z"/><path class="cls-8" d="M35.13,74.88a3.06,3.06,0,0,1,4.52-.82,2.4,2.4,0,0,1,.74,2.71c-.22.77-1.09.84-.88,2a2.15,2.15,0,0,0,1.26,1.73,2.78,2.78,0,0,1,1.06,1.09A2.89,2.89,0,0,1,42,83.3c-.24,1-1.71.19-2.7-.23A18.59,18.59,0,0,1,36,80.57C34.7,79.16,34.09,76.45,35.13,74.88Z"/><path class="cls-9" d="M71.28,32.83c30.88-.06,31.06,24.75,29.69,40.93,2.12-3.8,8.38-2.38,7.86,3.7-.49,5.82-9.33,8.46-9.22,7.81-2.52,13.19-17.08,20.51-28.33,21.55H71v-74Z"/><path class="cls-8" d="M107.51,74.88a3.07,3.07,0,0,0-4.53-.82,2.4,2.4,0,0,0-.73,2.71c.21.77,1.08.84.87,2a2.17,2.17,0,0,1-1.26,1.73,2.7,2.7,0,0,0-1,1.09,2.74,2.74,0,0,0-.14,1.68c.24,1,1.71.19,2.7-.23a18.59,18.59,0,0,0,3.24-2.5C107.93,79.16,108.54,76.45,107.51,74.88Z"/><path class="cls-3" d="M71,39.85c-10.32,0-17.86,2.84-22.43,8.46-6.38,7.83-6.14,19.81-3.79,28.4.72,2.64,1.09,9.71,1.59,12.32,2.22,11.62,15.73,17.81,24.63,17.81h.24v-67Z"/><path class="cls-4" d="M93.35,48.32c-4.54-5.58-12-8.42-22.14-8.47v67c10.15-.11,22.3-6.89,24.38-17.8.49-2.61.86-9.68,1.59-12.32C99.52,68.14,99.75,56.18,93.35,48.32Z"/><path class="cls-10" d="M76.4,96.33s-2.33,2.49-5.2,2.49a7.78,7.78,0,0,1-5.08-2.43A33.12,33.12,0,0,1,71.2,96,42.64,42.64,0,0,1,76.4,96.33Z"/><path class="cls-11" d="M72.67,95.18a1.34,1.34,0,0,0-1.47,1.13,1.36,1.36,0,0,0-1.48-1.13A20.86,20.86,0,0,0,66,96.33s2.85.3,3.66.3,1.53.32,1.55-.28c0,.61.59.37,1.4.37s3.8-.39,3.8-.39A20.86,20.86,0,0,0,72.67,95.18Z"/><path class="cls-12" d="M109,54.19c.08-6.4-3-8.47-4.9-11.59S97.9,35.76,96,34.22s-4-3.48-4-3.48a23,23,0,0,0-7.73-3.16c-4.46-.88-5.79.16-10,1.62a14.83,14.83,0,0,0-1.39.56c-2.58-2.18-2.54-2.36-5.4-3.39-5.35-1.92-8.46.93-8.46.93l3.11.42a16.11,16.11,0,0,0-9.2,1.91c-4.17,2.53-5.61,4.59-5.61,4.59s6-1.23,2.13,0a31.71,31.71,0,0,0-10.4,5.7c-3.12,2.53-6.39,6.09-7.88,9.81s.74-1.94,3.72-4a21.44,21.44,0,0,1,5.35-2.83A37.35,37.35,0,0,0,32.66,54,38.19,38.19,0,0,0,29,74.5C30.12,90.24,38.32,96,38.32,96a11.46,11.46,0,0,1-2.66-4.27,11.24,11.24,0,0,1-.33-5.13c.15.75,8.24,11.59,8.24,11.59s-6.48-8.44-4.06-19.37a16.6,16.6,0,0,1,4.29-7.52c.32-.38.58-.75.86-1.12C48.58,74.7,56,76.62,56,76.62S51.21,72,50.61,68.54,50.28,58,54.44,54c.57-.54,1.23-1.1,1.94-1.66a12.12,12.12,0,0,0,0,11.35c2.09,4.25,8.08,6.39,8.08,6.39s-5.57-3.1-4.81-7.78c1-5.87,4.81-7.38,4.81-7.38s-.83,9.06,3,13.67,7.25,2.88,7.25,2.88-3.58,0-4.77-5.11c-.87-3.66.62-5.7,3.48-12.53a5.86,5.86,0,0,0,.39-2.29c1.63,4.32,1.79,12.9,5.49,15a19.78,19.78,0,0,0,7.14,2.38s-3.72-1.37-4.76-4.55l-.25-.73a4.2,4.2,0,0,0,.63.73A6.66,6.66,0,0,0,87.42,66c.3,5.33.59,12.86,8.32,14.15a6.4,6.4,0,0,0,4.91-1.54h0c2.37,3.61,2.75,3.58,2.6,9.67S97,98.32,97,98.32a29.71,29.71,0,0,0,9-8.76c3.27-5.35,3.67-10.34,3.37-17.13-.06-1.39-.18-2.61-.34-3.75a7.23,7.23,0,0,0,1.12,1.15,8.39,8.39,0,0,0,4.81,2S108.87,68.66,109,54.19Zm-22.88,8a18.67,18.67,0,0,0-2.53-3.72s.45-.23,2.83,2.49a5,5,0,0,1,.78,2.58A5.63,5.63,0,0,1,86.16,62.21ZM95.37,75.8a14.25,14.25,0,0,1-1-3.82c1.36,3.07,3.82,3.72,5.62,5.78C98.33,78.34,96.4,78.29,95.37,75.8Z"/><path class="cls-13" d="M43.75,86.91a2.17,2.17,0,1,1-2.17-2.16A2.17,2.17,0,0,1,43.75,86.91Z"/><path class="cls-13" d="M101.58,86.91a2.17,2.17,0,1,1-2.17-2.16A2.17,2.17,0,0,1,101.58,86.91Z"/><path class="cls-12" d="M39.08,71s.25.77.63,2.13a46.09,46.09,0,0,1,1.18,5.71,36.32,36.32,0,0,1,.43,3.9,38,38,0,0,1,.06,4.43,34.64,34.64,0,0,1-.52,4.75,18.87,18.87,0,0,1-.54,2.43L40,95.56l-.08.3,0,.08-.07.19,0,.13-.21.56L38.69,99a21.31,21.31,0,0,1-1.18,2.26,28.2,28.2,0,0,1-2.77,4,31,31,0,0,1-3.15,3.21A25,25,0,0,1,28.46,111a25,25,0,0,1-2.8,1.78c-.85.51-1.61.9-2.24,1.21-1.27.61-2,.93-2,.93s.55-.6,1.53-1.6,2.4-2.4,4-4.11c.82-.84,1.61-1.82,2.46-2.81s1.6-2.15,2.46-3.25a34.49,34.49,0,0,0,2.1-3.68,20.44,20.44,0,0,0,.94-1.93l.84-2.21.22-.55.06-.14v0c-.08.22,0,0,0,.08l0-.06.08-.27.3-1.08c.19-.71.44-1.41.56-2.14s.33-1.45.48-2.15.23-1.44.35-2.14c.18-1.42.36-2.8.49-4.13s.23-2.58.29-3.76c.15-2.37.27-4.35.36-5.73S39.08,71,39.08,71Z"/><path class="cls-12" d="M40.41,86.91s.31.81.73,2.23a11.3,11.3,0,0,1,.56,2.64,19.53,19.53,0,0,1,.14,3.67,20.69,20.69,0,0,1-.65,4.29c-.22.74-.44,1.51-.66,2.29s-.64,1.49-1,2.26a34.61,34.61,0,0,1-2.45,4.45c-.94,1.39-2,2.82-3,4.13s-2.14,2.6-3.19,3.78-2,2.34-2.92,3.44c-1.77,2.22-3,4.27-3.39,6.24a9.26,9.26,0,0,0-.06,2.87c.1.45.2.86.27,1.28s.25.76.35,1.1c.22.68.48,1.19.62,1.57l.23.58-.51-.35a10.29,10.29,0,0,1-1.37-1.12l-.91-.93c-.29-.37-.58-.81-.9-1.27s-.56-1.05-.81-1.66a9.76,9.76,0,0,1-.49-2.05,11,11,0,0,1,.38-4.74,20,20,0,0,1,2-4.6,38.36,38.36,0,0,1,2.81-4.16c1-1.33,2-2.58,3-3.85s2-2.51,2.93-3.72,1.85-2.41,2.56-3.63l1.15-1.77c.32-.59.63-1.18.93-1.75a9.58,9.58,0,0,0,.83-1.71l.71-1.66c.45-1.07.64-2.07,1-3a17.29,17.29,0,0,0,.57-2.56C40.18,87.75,40.41,86.91,40.41,86.91Z"/><path class="cls-14" d="M104,131.71s-8.6-17-20.56-17.66c-.32,0,8.9,13.47-3.37,16.6a31,31,0,0,1-8.84.93h-.06a31.08,31.08,0,0,1-8.84-.93c-12.26-3.13-3-16.62-3.36-16.6-12,.71-20.56,17.66-20.56,17.66L42.2,133l5.35,1.8a35.49,35.49,0,0,0-2,10.93H96.81a35.49,35.49,0,0,0-2-10.93l5.35-1.8Z"/><path class="cls-15" d="M71.24,131.64c-.14-.74-.14-.74-.54-1.15a34.78,34.78,0,0,0-3.06-2.63c-.75-.59-1.52-1.21-2.24-1.86-2.08-1.85-4.12-3.94-5.06-6.56a8.85,8.85,0,0,1,0-5.9l.81-.93c-.48,1.9-1.07,4.46-.29,6.65.9,2.52,2.9,4.55,4.92,6.36.71.64,1.48,1.25,2.22,1.83a34.21,34.21,0,0,1,3.1,2.68,1.85,1.85,0,0,1,.69,1.41Z"/><path class="cls-15" d="M71.73,131.7l-.47-.22a20.88,20.88,0,0,1,3.16-4.56c.47-.55,1-1.13,1.43-1.75a26.08,26.08,0,0,0,5.46-12.56l.51.65c-.64,4.49-2.36,8-5.56,12.23-.49.63-1,1.21-1.45,1.77A19.94,19.94,0,0,0,71.73,131.7Z"/><path class="cls-12" d="M100.21,74.16s.09.18.28.51a6.52,6.52,0,0,1,.73,1.5,9.28,9.28,0,0,1,.57,2.62,11.85,11.85,0,0,1-.21,3.5,24.79,24.79,0,0,1-3.3,7.93c-.8,1.32-1.63,2.64-2.5,3.93l-2.57,3.92c-.89,1.33-1.67,2.63-2.5,3.91s-1.62,2.55-2.23,3.84l-1,1.87-.82,1.83c-.59,1.19-.87,2.38-1.3,3.46s-.53,2.14-.8,3.06a16.28,16.28,0,0,0-.45,2.44c-.2,1.37-.35,2.19-.35,2.19s-.2-.77-.47-2.18a11.38,11.38,0,0,1-.32-2.57,20.64,20.64,0,0,1,.05-3.4,23.16,23.16,0,0,1,.7-4c.2-.7.39-1.41.59-2.14s.56-1.41.85-2.13a49.44,49.44,0,0,1,4.57-8.48c.87-1.3,1.78-2.68,2.74-4l2.75-3.64a34.12,34.12,0,0,0,4.07-6.58,13.84,13.84,0,0,0,.9-2.9,10.52,10.52,0,0,0,.21-2.37,9,9,0,0,0-.14-1.61C100.23,74.36,100.21,74.16,100.21,74.16Z"/><path class="cls-16" d="M109.94,55.62s.57-21.89-5.65-25.88c-7.64-4.9-17.92-9.91-30.62-9.87-11.87,0-35.62,1.42-41.21,20-2.74,9.09-2.91,23.4-2.91,23.4s3.7-5,12-9.71,17.77-10.14,31.81-6.68S109.94,55.62,109.94,55.62Z"/><path class="cls-17" d="M128.4,67.07c-.52,4.68-.34,2-.34,2s.74-2.59-3.22-4.3-60-18.9-60-18.9,9.08-1.1,15.17-.09C96.64,48.53,128.92,62.4,128.4,67.07Z"/><path class="cls-18" d="M74.62,133c-1.83-3.55-9.49-1.4-6.76,1.66,1.18,1.32,4.45.38,6.37,2,1.62,1.37.9,4.3-3,4.35-2.85,0-3.71-1.58-3.58-2.56"/><line class="cls-18" x1="70.14" y1="129.37" x2="70.14" y2="143.12"/><line class="cls-18" x1="72.22" y1="129.37" x2="72.22" y2="143.12"/></g></g></svg>