<svg xmlns="http://www.w3.org/2000/svg" viewBox="0 0 145.36 145.95"><defs><style>.cls-1{fill:#d7878e;}.cls-2{fill:#e1bf9c;}.cls-3{fill:#f2d1ac;}.cls-4,.cls-6{fill:#c09a80;}.cls-4{opacity:0.7;}.cls-5{fill:#d3a789;}.cls-7{fill:#e0b89b;}.cls-8{fill:#c6696e;}.cls-9{fill:#d87373;}.cls-10{fill:#5aadc5;}.cls-11{fill:#965458;}.cls-12{fill:#202028;}.cls-13{fill:#d69cc6;}.cls-14{fill:#484748;}.cls-15{fill:#070808;}</style></defs><title>Asset 167</title><g id="Layer_2" data-name="Layer 2"><g id="Layer_1-2" data-name="Layer 1"><rect class="cls-1" width="145.36" height="145.95"/><path class="cls-2" d="M76.54,91.53V146H47l-.72-.31c0-12.51,3.31-20,7.11-24.58,5.06-6.08,11-6.79,11-6.79h.14a2.83,2.83,0,0,0,.4-.08c1.49-.42,2.51-2.62,3.2-5.77.12-.54.22-1.1.31-1.7.16-1,.3-2.06.41-3.16.06-.66.12-1.32.19-2,.27-3.34.35-7,.35-10.42C69.34,91.13,73.32,91.53,76.54,91.53Z"/><path class="cls-3" d="M107,145.64s-.28.11-.71.31H76.54V91.53h.06c3.22,0,7.22-.4,7.22-.4,0,3.43.08,7,.35,10.34.07.67.13,1.32.19,2,.13,1.14.25,2.22.41,3.24v0c.07.46.15.87.24,1.28.61,3,1.53,5.3,2.85,6,.11,0,.22.1.32.13a1.8,1.8,0,0,0,.66.12s6.5.79,11.71,7.66C104,126.54,107,133.92,107,145.64Z"/><path class="cls-4" d="M84.78,106.69v0a9.55,9.55,0,0,1-8.2,4.47h0a10.32,10.32,0,0,1-8.15-4.45c.16-1,.31-2,.41-3.15.06-.66.13-1.33.19-2a31.89,31.89,0,0,0,7.47,1h.08a30.37,30.37,0,0,0,7.64-1.06q.09,1,.18,2C84.49,104.6,84.61,105.67,84.78,106.69Z"/><path class="cls-5" d="M76.52,33.06C45.64,33,45.46,57.82,46.84,74c-2.12-3.8-8.39-2.39-7.87,3.69.49,5.82,9.34,8.46,9.22,7.82C50.71,98.69,65.27,106,76.52,107.05h.23v-74Z"/><path class="cls-6" d="M41.77,73.5a3,3,0,0,1,4.52-.81A2.36,2.36,0,0,1,47,75.38c-.22.79-1.09.84-.88,2a2.09,2.09,0,0,0,1.26,1.73c.36.3.83.53,1.06,1.1a2.88,2.88,0,0,1,.13,1.68c-.23,1-1.71.19-2.7-.23a18.66,18.66,0,0,1-3.24-2.51C41.34,77.78,40.74,75.06,41.77,73.5Z"/><path class="cls-7" d="M76.67,33.06C107.55,33,107.73,57.82,106.36,74c2.12-3.8,8.38-2.39,7.87,3.69-.5,5.82-9.35,8.46-9.22,7.82C102.48,98.69,87.93,106,76.67,107.05h-.23v-74Z"/><path class="cls-6" d="M112.77,74.25a3,3,0,0,0-4.52-.81,2.36,2.36,0,0,0-.74,2.69c.22.79,1.09.85.87,2a2.12,2.12,0,0,1-1.24,1.72,2.81,2.81,0,0,0-1.06,1.1,2.73,2.73,0,0,0-.14,1.68c.24,1,1.71.2,2.7-.23a19.09,19.09,0,0,0,3.24-2.5C113.2,78.53,113.81,75.82,112.77,74.25Z"/><path class="cls-2" d="M76.36,40.08c-10.32,0-17.86,2.85-22.44,8.46C47.55,56.38,47.79,68.35,50.15,77c.71,2.63,1.08,9.71,1.58,12.31,2.22,11.62,15.73,17.82,24.63,17.82l.23,0v-67Z"/><path class="cls-3" d="M98.74,48.55c-4.53-5.57-12-8.41-22.15-8.46v67c10.16-.1,22.3-6.88,24.39-17.8.49-2.6.86-9.68,1.59-12.31C104.91,68.37,105.14,56.41,98.74,48.55Z"/><path class="cls-8" d="M81.79,96.57s-2.33,2.49-5.21,2.49a7.77,7.77,0,0,1-5.07-2.44,33.07,33.07,0,0,1,5.07-.38A41.44,41.44,0,0,1,81.79,96.57Z"/><path class="cls-9" d="M78.06,95.42a1.35,1.35,0,0,0-1.48,1.13,1.34,1.34,0,0,0-1.47-1.13,20.86,20.86,0,0,0-3.73,1.15s2.85.3,3.66.3,1.53.32,1.54-.29c0,.61.6.38,1.41.38s3.8-.39,3.8-.39A20.86,20.86,0,0,0,78.06,95.42Z"/><path class="cls-10" d="M110,62.51a41.77,41.77,0,0,1-.37,4.92,9.19,9.19,0,0,1-.46,2.16A28.94,28.94,0,0,0,107.55,75a6.79,6.79,0,0,0-1.8,2.66c-1,2.57-1.38,2.13-1.38,2.13s.32-2,.67-4.52c.21-2.09.49-5.21.72-7.88,0-.38.07-.75.09-1.1-.43-2.17-4.5-12.52-23.84-11.54a18.14,18.14,0,0,1-8.72-2.26c-2.53-1.27-4.29-2.61-4.46-2.61-.85,0-8.59-1.44-13.13,1.95a7.51,7.51,0,0,0-.81.66c-5.4,4.67-6.14,12.78-6.14,14.4a4.62,4.62,0,0,0,0,.5c.14,3.33,1.53,12.4,1.53,12.4s-.37.44-1.37-2.13a7.1,7.1,0,0,0-2.15-3c-1.08-2.28-1.68-3-2.22-5.14a15.23,15.23,0,0,0-1.08-2.16c-1-2-2.22-5.79-1-14.9.07-.42.13-.83.19-1.27,1-6.22,5.69-20.21,18.17-22.7s15.4-5.41,25.61-1.24,16.66,7.07,19.8,13.94a43.78,43.78,0,0,1,2.86,11.27A83.82,83.82,0,0,1,110,62.51Z"/><path class="cls-11" d="M107,145.64s-.28.11-.71.31H47l-.72-.31c0-12.51,3.31-20,7.11-24.58l14,5.58s6.74,6.72,7,7.07a9.4,9.4,0,0,0,2.18-1.51c.43-.35.91-.73,1.45-1.14,0,0,0,0,0,0,.58-.46,1.2-1,1.87-1.54,3.55-2.91,7.76-6.43,9.31-7.53,1.81-1.31,7.25-.85,11.36,0C104,126.54,107,133.92,107,145.64Z"/><path class="cls-12" d="M66.18,113.25a9.22,9.22,0,0,1-3.57,2.33L76.22,127.8s.73,9.08.22,8.78a56.54,56.54,0,0,1-3.81-4.67l-9.44-5.62-14.93-.11s4.42-6.93,6.73-8.46A26.46,26.46,0,0,1,66.18,113.25Z"/><path class="cls-12" d="M86.87,113.25a9.22,9.22,0,0,0,3.57,2.33L76.84,127.8s-.74,9.08-.22,8.78a58.67,58.67,0,0,0,3.81-4.67l9.43-5.62,14.94-.11s-4.42-6.93-6.74-8.46A26.41,26.41,0,0,0,86.87,113.25Z"/><path class="cls-12" d="M79.9,145.64H73.15c.19-4.46,0-15.23,0-15.23s3,4.3,4.11,2.79c0,0,.77-2.47.79-2.49.48-.69.77-1.15.77-1.15.75-.45,1-1.7,1.1-.39C80,130,79.79,142,79.9,145.64Z"/><path class="cls-13" d="M79.23,141.52a2.79,2.79,0,1,1-2.79-2.79A2.79,2.79,0,0,1,79.23,141.52Z"/><path class="cls-14" d="M104.59,68.46c-3.43-.91-11.32.48-14.58,1.21a122.49,122.49,0,0,0-11.93,4,4.67,4.67,0,0,1-1.31.33,4.27,4.27,0,0,1-1.34-.34,125,125,0,0,0-11.92-4c-3.26-.72-11.16-2.11-14.58-1.2a1.94,1.94,0,0,0-1.3,1.09c.12.94,2.57,14.78,16.25,14.77a11.9,11.9,0,0,0,7.46-2.4c1.55-1.13,3.2-3.84,3.68-4.53s1-1.21,1.7-1.15l0,0,0,0c.71,0,1.22.45,1.69,1.15s2.14,3.41,3.68,4.54a12.05,12.05,0,0,0,7.46,2.4c13.68,0,16.13-13.84,16.26-14.77A2,2,0,0,0,104.59,68.46Zm-31.9,9.48c-1.15,3.24-5.4,5.31-9,5.18C57,82.88,51,77.49,52.06,72.9c.72-3,4.9-3.5,10.61-2.19C72.57,73,73.91,74.48,72.69,77.94Zm17.17,5.18c-3.64.13-7.88-1.94-9-5.18-1.23-3.46.12-5,10-7.23,5.72-1.31,9.9-.8,10.62,2.19C102.57,77.49,96.52,82.89,89.86,83.12Z"/><path class="cls-3" d="M80.83,77.94c1.15,3.24,5.39,5.31,9,5.18,6.66-.23,12.71-5.63,11.6-10.22-.72-3-4.9-3.5-10.62-2.19C81,73,79.6,74.48,80.83,77.94Z"/><path class="cls-3" d="M72.69,77.94c-1.15,3.24-5.4,5.31-9,5.18C57,82.88,51,77.49,52.06,72.9c.72-3,4.9-3.5,10.61-2.19C72.57,73,73.91,74.48,72.69,77.94Z"/><polygon class="cls-15" points="48.23 84.9 47.47 83.57 48.23 82.24 49.77 82.24 50.54 83.57 49.77 84.9 48.23 84.9"/><polygon class="cls-15" points="105.1 85.65 104.33 84.33 105.1 83 106.63 83 107.4 84.33 106.63 85.65 105.1 85.65"/></g></g></svg>