<svg xmlns="http://www.w3.org/2000/svg" viewBox="0 0 145.36 145.95"><defs><style>.cls-1{fill:#f0ebbe;}.cls-2{fill:#580c13;}.cls-3{fill:#e1bf9c;}.cls-4{fill:#f2d1ac;}.cls-5{fill:#0c1216;}.cls-6,.cls-8{fill:#c09a80;}.cls-6{opacity:0.7;}.cls-7{fill:#d3a789;}.cls-9{fill:#e0b89b;}.cls-10{fill:#c6696e;}.cls-11{fill:#d87373;}.cls-12{fill:#9a1b1f;}.cls-13,.cls-18{fill:none;stroke-miterlimit:10;}.cls-13{stroke:#f4cb13;stroke-width:0.25px;}.cls-14{fill:#2e3393;}.cls-15{fill:#6c5f27;}.cls-16{fill:#0b253a;}.cls-17{fill:#0c1f2c;}.cls-18{stroke:#fac013;stroke-width:0.75px;}</style></defs><title>Asset 180</title><g id="Layer_2" data-name="Layer 2"><g id="Layer_1-2" data-name="Layer 1"><rect class="cls-1" width="145.36" height="145.95"/><path class="cls-2" d="M109.86,65.56S112,84.88,108.2,93.47,98.2,112.09,92,115.13,68.44,118.78,57.89,124s-17,7.47-16.54,12a8.29,8.29,0,0,0,3.92,6.35S32.47,138,32.47,129s4.85-12.93,7.79-17.29c8.94-13.3,2.14-31.37,2.14-31.37s9.41-33.93,10.38-33.87,31.74-11.31,35.54-8.83S109.86,65.56,109.86,65.56Z"/><path class="cls-3" d="M77.77,91.53V146H48.18l-.73-.31a52.3,52.3,0,0,1,1.35-12.43c4.17-17.42,16.77-18.94,16.77-18.94h.14a1.92,1.92,0,0,0,.4-.09c1.49-.41,2.51-2.61,3.19-5.76a16.61,16.61,0,0,0,.31-1.7c.17-1,.31-2.06.42-3.16.06-.66.13-1.33.19-2,.26-3.34.35-7,.35-10.42C70.57,91.13,74.55,91.53,77.77,91.53Z"/><path class="cls-4" d="M108.19,145.64l-.71.31H77.77V91.53h.06c3.22,0,7.22-.4,7.22-.4,0,3.43.08,7,.36,10.34.06.66.12,1.33.18,2,.12,1.14.25,2.22.41,3.24h0c.07.46.15.88.23,1.29.63,3,1.54,5.29,2.87,6a1.66,1.66,0,0,0,.31.12,1.69,1.69,0,0,0,.66.13,4.58,4.58,0,0,1,.58.11c1.93.41,8.24,2.32,12.73,10C106.13,129,108.19,135.81,108.19,145.64Z"/><path class="cls-5" d="M95.05,53.82s-1.81,12.62-.57,16.92-.29,7.09,11.33,13.06c7.18,3.7,19.93,4,26.5-8.59,1.74-3.31,6.37-10.71-6.15-13.92S95.05,53.82,95.05,53.82Z"/><path class="cls-6" d="M86,106.68v0a9.58,9.58,0,0,1-8.2,4.46h0a10.33,10.33,0,0,1-8.16-4.44c.17-1,.32-2.06.42-3.15.06-.67.12-1.33.19-2a33,33,0,0,0,7.47,1h.08a31.31,31.31,0,0,0,7.64-1.06c.06.66.12,1.33.18,2C85.71,104.58,85.83,105.66,86,106.68Z"/><path class="cls-7" d="M77.74,33C46.86,33,46.68,57.8,48.05,74c-2.12-3.8-8.38-2.39-7.87,3.7.5,5.81,9.35,8.46,9.22,7.81C51.93,98.68,66.48,106,77.74,107H78v-74Z"/><path class="cls-8" d="M41.74,75.1a3.06,3.06,0,0,1,4.52-.82A2.41,2.41,0,0,1,47,77c-.22.77-1.09.84-.88,2a2.11,2.11,0,0,0,1.26,1.72,2.38,2.38,0,0,1,1.19,2.78c-.24,1-1.71.19-2.7-.23a18.59,18.59,0,0,1-3.24-2.5C41.31,79.38,40.7,76.67,41.74,75.1Z"/><path class="cls-9" d="M77.89,33C108.77,33,109,57.8,107.58,74c2.12-3.8,8.38-2.39,7.86,3.7-.49,5.81-9.34,8.46-9.22,7.81C103.7,98.68,89.14,106,77.89,107h-.24v-74Z"/><path class="cls-8" d="M114.12,75.1a3.07,3.07,0,0,0-4.53-.82,2.4,2.4,0,0,0-.74,2.71c.22.77,1.09.84.88,2a2.13,2.13,0,0,1-1.26,1.72c-.36.3-.83.53-1,1.1a2.73,2.73,0,0,0-.14,1.68c.24,1,1.71.19,2.7-.23a18.59,18.59,0,0,0,3.24-2.5C114.54,79.38,115.15,76.67,114.12,75.1Z"/><path class="cls-3" d="M77.57,40.07c-10.31,0-17.85,2.84-22.43,8.46-6.37,7.83-6.13,19.81-3.78,28.4.72,2.63,1.09,9.71,1.59,12.31,2.22,11.63,15.73,17.82,24.62,17.82h.24v-67Z"/><path class="cls-4" d="M100,48.54C95.42,43,88,40.12,77.81,40.07v67c10.16-.11,22.3-6.89,24.39-17.81.49-2.6.86-9.68,1.58-12.31C106.13,68.36,106.36,56.4,100,48.54Z"/><path class="cls-10" d="M83,96.55S80.68,99,77.8,99a7.78,7.78,0,0,1-5.07-2.43,33.07,33.07,0,0,1,5.07-.38A42.71,42.71,0,0,1,83,96.55Z"/><path class="cls-11" d="M79.27,95.4a1.35,1.35,0,0,0-1.47,1.13,1.34,1.34,0,0,0-1.47-1.13,20.59,20.59,0,0,0-3.73,1.15s2.85.3,3.66.3,1.53.32,1.54-.28c0,.61.6.37,1.41.37s3.8-.39,3.8-.39A20.74,20.74,0,0,0,79.27,95.4Z"/><path class="cls-12" d="M115.65,54.41c.08-6.4-3-8.47-4.91-11.6s-6.23-6.83-8.17-8.37-4-3.48-4-3.48a23,23,0,0,0-7.73-3.16c-4.46-.89-5.79.16-10,1.62a14.83,14.83,0,0,0-1.39.56c-2.58-2.18-2.54-2.36-5.4-3.39-5.35-1.93-8.46.93-8.46.93l3.11.42a16,16,0,0,0-9.2,1.91c-4.17,2.53-5.61,4.59-5.61,4.59s6-1.23,2.13,0a31.71,31.71,0,0,0-10.4,5.7c-3.12,2.52-6.39,6.09-7.88,9.81s.74-1.94,3.72-4a21.44,21.44,0,0,1,5.35-2.83,37.15,37.15,0,0,0-7.58,11.14c-2.15,4.57-4.37,10.62-3.66,20.47,1.12,15.74,9.32,21.48,9.32,21.48a11.46,11.46,0,0,1-2.66-4.27,11.23,11.23,0,0,1-.33-5.13c.15.74,8.24,11.59,8.24,11.59S43.7,90,46.12,79a16.62,16.62,0,0,1,4.29-7.53c.32-.37.58-.74.86-1.11,3.92,4.54,11.33,6.46,11.33,6.46s-4.78-4.67-5.38-8.09-.33-10.5,3.83-14.52c.57-.54,1.23-1.1,1.94-1.66a12.09,12.09,0,0,0,0,11.35c2.08,4.25,8.07,6.39,8.07,6.39s-5.56-3.1-4.8-7.78c1-5.87,4.8-7.38,4.8-7.38s-.82,9.06,3,13.67,7.25,2.88,7.25,2.88-3.58,0-4.77-5.11c-.87-3.66.62-5.7,3.47-12.53a5.67,5.67,0,0,0,.4-2.29c1.62,4.32,1.79,12.9,5.49,15a19.71,19.71,0,0,0,7.13,2.38s-3.71-1.37-4.76-4.55c-.07-.25-.16-.49-.24-.73a4.2,4.2,0,0,0,.63.73A6.66,6.66,0,0,0,94,66.19c.3,5.33.59,12.86,8.32,14.15a6.45,6.45,0,0,0,4.91-1.54h0c2.37,3.61,2.75,3.58,2.6,9.67s-6.25,10.07-6.25,10.07a29.71,29.71,0,0,0,9-8.76c3.27-5.35,3.67-10.34,3.37-17.13-.06-1.39-.18-2.61-.34-3.75a7.23,7.23,0,0,0,1.12,1.15,8.39,8.39,0,0,0,4.81,2S115.47,68.88,115.65,54.41Zm-22.89,8a18,18,0,0,0-2.52-3.72s.45-.23,2.82,2.49a4.94,4.94,0,0,1,.79,2.58A5.91,5.91,0,0,1,92.76,62.43ZM102,76a14.25,14.25,0,0,1-1-3.82c1.36,3.07,3.82,3.72,5.62,5.78C104.93,78.56,103,78.51,102,76Z"/><path class="cls-13" d="M50.36,87.13A2.17,2.17,0,1,1,48.19,85,2.17,2.17,0,0,1,50.36,87.13Z"/><path class="cls-13" d="M108.19,87.13A2.17,2.17,0,1,1,106,85,2.17,2.17,0,0,1,108.19,87.13Z"/><path class="cls-12" d="M45.69,71.22s.25.77.63,2.13a48,48,0,0,1,1.18,5.71,36.32,36.32,0,0,1,.43,3.9,35.88,35.88,0,0,1,0,4.42,33.08,33.08,0,0,1-.51,4.76,18.87,18.87,0,0,1-.54,2.43l-.32,1.21-.08.3,0,.08-.07.19,0,.13-.21.56-.88,2.2a20.51,20.51,0,0,1-1.18,2.27,28.77,28.77,0,0,1-2.77,4,31,31,0,0,1-3.15,3.21,26.75,26.75,0,0,1-3.13,2.44,25,25,0,0,1-2.8,1.78c-.85.51-1.61.9-2.25,1.21-1.26.61-2,.93-2,.93s.55-.6,1.53-1.6,2.4-2.4,4-4.11c.82-.84,1.61-1.82,2.46-2.81s1.59-2.15,2.46-3.25a36.3,36.3,0,0,0,2.1-3.68c.31-.64.66-1.19.94-1.93l.84-2.21.22-.56.06-.13v0c-.08.22,0,0,0,.08l0-.06.07-.27L43,93.48c.19-.71.44-1.41.56-2.14s.33-1.45.48-2.15.23-1.44.35-2.15c.18-1.41.36-2.79.49-4.12s.23-2.58.28-3.76c.16-2.37.28-4.35.37-5.73S45.69,71.22,45.69,71.22Z"/><path class="cls-12" d="M47,87.13s.31.81.72,2.23A10.36,10.36,0,0,1,48.3,92a19.47,19.47,0,0,1,.15,3.67A20.79,20.79,0,0,1,47.8,100c-.22.74-.44,1.51-.67,2.29s-.63,1.49-1,2.26A34.61,34.61,0,0,1,43.72,109c-.94,1.39-1.95,2.82-3,4.13s-2.14,2.6-3.19,3.78-2,2.34-2.92,3.44c-1.77,2.22-3,4.27-3.39,6.24a9.26,9.26,0,0,0-.06,2.87c.09.45.2.86.27,1.28s.25.76.35,1.1c.22.68.48,1.19.62,1.57l.23.58-.51-.36a10.06,10.06,0,0,1-1.37-1.11l-.91-.93c-.3-.37-.58-.81-.9-1.27s-.56-1.05-.82-1.66a9.76,9.76,0,0,1-.48-2.05,11.1,11.1,0,0,1,.38-4.75,19.52,19.52,0,0,1,2-4.59,39.49,39.49,0,0,1,2.81-4.17c1-1.32,2-2.58,3-3.84s1.95-2.51,2.93-3.72,1.85-2.42,2.56-3.63l1.15-1.77c.31-.6.63-1.18.93-1.75a9.34,9.34,0,0,0,.83-1.72c.25-.57.48-1.12.71-1.65.45-1.08.64-2.08,1-3a17.29,17.29,0,0,0,.57-2.56C46.79,88,47,87.13,47,87.13Z"/><path class="cls-14" d="M110.6,131.93S102,115,90,114.27c-.32,0,8.9,13.47-3.37,16.6a31.45,31.45,0,0,1-8.84.93h-.06a31.45,31.45,0,0,1-8.84-.93c-12.26-3.13-3.05-16.62-3.36-16.6C53.6,115,45,131.93,45,131.93l3.79,1.28L54.16,135a35.49,35.49,0,0,0-2,10.93h51.22a35.66,35.66,0,0,0-2-10.93l5.35-1.81Z"/><path class="cls-15" d="M77.85,131.86c-.14-.74-.14-.74-.55-1.15a33.26,33.26,0,0,0-3-2.63c-.75-.59-1.53-1.21-2.24-1.86-2.08-1.85-4.13-3.94-5.06-6.57a8.82,8.82,0,0,1,0-5.89l.81-.93c-.49,1.9-1.07,4.46-.29,6.65.9,2.52,2.9,4.55,4.92,6.36.71.63,1.48,1.24,2.22,1.83a35.64,35.64,0,0,1,3.1,2.68,1.85,1.85,0,0,1,.69,1.41Z"/><path class="cls-15" d="M78.34,131.92l-.47-.22A20.54,20.54,0,0,1,81,127.14c.47-.56,1-1.13,1.42-1.75a26,26,0,0,0,5.47-12.56l.51.65c-.64,4.48-2.36,8-5.57,12.23-.48.63-1,1.2-1.44,1.77A19.94,19.94,0,0,0,78.34,131.92Z"/><path class="cls-12" d="M106.81,74.38l.29.51a6.31,6.31,0,0,1,.73,1.5A9.2,9.2,0,0,1,108.4,79a11.85,11.85,0,0,1-.21,3.5,24.88,24.88,0,0,1-3.3,7.93c-.8,1.31-1.63,2.64-2.5,3.93l-2.57,3.92c-.89,1.33-1.67,2.62-2.5,3.91s-1.62,2.55-2.23,3.84l-1,1.87-.82,1.83c-.59,1.19-.87,2.38-1.3,3.46s-.53,2.13-.8,3.06a15.1,15.1,0,0,0-.45,2.44c-.2,1.37-.35,2.19-.35,2.19s-.2-.77-.47-2.18a11.55,11.55,0,0,1-.32-2.58,20.52,20.52,0,0,1,.05-3.39,22.23,22.23,0,0,1,.7-4c.2-.7.39-1.41.59-2.14s.56-1.41.85-2.13A49.44,49.44,0,0,1,96.36,96c.87-1.3,1.77-2.68,2.74-4l2.75-3.64a34.12,34.12,0,0,0,4.07-6.58,14.65,14.65,0,0,0,.9-2.9,11.19,11.19,0,0,0,.21-2.37,9,9,0,0,0-.14-1.61C106.84,74.58,106.81,74.38,106.81,74.38Z"/><path class="cls-16" d="M116.55,55.84S117.12,34,110.89,30c-7.63-4.9-17.91-9.91-30.61-9.87-11.87,0-35.62,1.42-41.22,20-2.73,9.09-2.9,23.4-2.9,23.4s3.7-5,12-9.71S65.94,43.68,80,47.13,116.55,55.84,116.55,55.84Z"/><path class="cls-17" d="M135,67.29c-.52,4.68-.34,2-.34,2s.74-2.59-3.23-4.3S71.49,46.06,71.49,46.06,80.57,45,86.66,46C103.25,48.75,135.53,62.62,135,67.29Z"/><path class="cls-18" d="M81.23,133.24c-1.83-3.55-9.49-1.4-6.76,1.65,1.18,1.32,4.44.39,6.37,2,1.62,1.36.9,4.3-3,4.35-2.85,0-3.71-1.58-3.58-2.56"/><line class="cls-18" x1="76.75" y1="129.59" x2="76.75" y2="143.34"/><line class="cls-18" x1="78.83" y1="129.59" x2="78.83" y2="143.34"/></g></g></svg>