<svg xmlns="http://www.w3.org/2000/svg" viewBox="0 0 145.36 145.95"><defs><style>.cls-1{fill:#8967ac;}.cls-2{fill:#e1bf9c;}.cls-3{fill:#f2d1ac;}.cls-4,.cls-6{fill:#c09a80;}.cls-4{opacity:0.7;}.cls-5{fill:#d3a789;}.cls-7{fill:#e0b89b;}.cls-8{fill:#2c0f0f;opacity:0.3;}.cls-9{fill:#636464;}.cls-10{fill:#473325;}.cls-11{fill:#915130;}</style></defs><title>Asset 175</title><g id="Layer_2" data-name="Layer 2"><g id="Layer_1-2" data-name="Layer 1"><rect class="cls-1" width="145.36" height="145.95"/><path class="cls-2" d="M69.07,90.53V145H39.48l-.72-.31a52.38,52.38,0,0,1,1.61-13.55c.21-.73.42-1.43.65-2.12,2.63-7.8,7.07-11.76,10.58-13.76a.1.1,0,0,0,.08,0l0,0a15.88,15.88,0,0,1,5.15-1.89c1.8,0,3-2.32,3.73-5.85a16.12,16.12,0,0,0,.31-1.7c.17-1,.32-2,.42-3.15.06-.66.12-1.33.19-2,.26-3.34.35-7,.35-10.42C61.87,90.13,65.85,90.53,69.07,90.53Z"/><path class="cls-3" d="M99.49,144.64s-.27.1-.71.31H69.07V90.53h.06c3.22,0,7.22-.4,7.22-.4,0,3.42.08,7,.35,10.33.07.67.13,1.33.19,2,.13,1.13.25,2.21.42,3.23v0c.06.46.14.87.22,1.29.77,3.75,2,6.28,3.84,6.28A16.69,16.69,0,0,1,87.89,116C93.08,119.47,99.49,127.27,99.49,144.64Z"/><path class="cls-4" d="M77.31,105.67v0a9.56,9.56,0,0,1-8.2,4.46h0a10.33,10.33,0,0,1-8.16-4.44c.17-1,.32-2,.42-3.15q.09-1,.18-2a32.6,32.6,0,0,0,7.48,1h.08a30.23,30.23,0,0,0,7.63-1.06c.07.67.13,1.33.19,2C77,103.58,77.14,104.65,77.31,105.67Z"/><path class="cls-5" d="M69.15,28.1C37.81,28.1,37.64,54.34,39,71.51c-2.15-4.07-8.51-2.81-8,3.6.5,6.18,9.49,9.37,9.36,8.65C43,97.89,57.72,106.05,69.15,106.05h.24V28.11Z"/><path class="cls-6" d="M33.05,72.4a3,3,0,0,1,4.52-.86,2.56,2.56,0,0,1,.73,2.84c-.22.82-1.08.89-.87,2.14a2.22,2.22,0,0,0,1.25,1.82,2.83,2.83,0,0,1,1.06,1.15,3.2,3.2,0,0,1,.14,1.77c-.24,1-1.72.21-2.7-.24a18.11,18.11,0,0,1-3.24-2.64C32.62,76.9,32,74,33.05,72.4Z"/><path class="cls-7" d="M69.31,28.1c31.34,0,31.52,26.24,30.12,43.41,2.16-4.07,8.51-2.81,8,3.6-.5,6.18-9.49,9.37-9.36,8.65-2.57,14.13-17.32,22.29-28.75,22.29h-.24V28.11Z"/><path class="cls-6" d="M105.42,72.4a3,3,0,0,0-4.53-.86,2.59,2.59,0,0,0-.73,2.84c.22.82,1.08.89.87,2.14a2.22,2.22,0,0,1-1.25,1.82,2.83,2.83,0,0,0-1.06,1.15,3.11,3.11,0,0,0-.13,1.77c.23,1,1.71.21,2.69-.24a18.17,18.17,0,0,0,3.25-2.64C105.85,76.9,106.46,74,105.42,72.4Z"/><path class="cls-2" d="M68.88,35.5c-10.31,0-17.86,3-22.43,8.91-6.38,8.25-6.13,20.86-3.78,29.92.72,2.76,1.09,10.22,1.59,13C46.48,99.53,60,106.05,68.88,106.05h.24V35.51Z"/><path class="cls-3" d="M91.26,44.42c-4.53-5.87-12-8.86-22.14-8.91V106c10.16-.11,22.3-7.25,24.38-18.75.5-2.74.87-10.2,1.59-13C97.43,65.3,97.67,52.7,91.26,44.42Z"/><path class="cls-8" d="M99.48,70.82a7,7,0,0,0-1.8,2.62c-1,2.53-1.35,2.1-1.35,2.1s1.54-9.9,1.54-12.66S89.09,39.77,84.19,38.12,74.87,42,69.6,42h-.41c-5.17-.1-9.76-5.45-14.59-3.86s-13.67,22-13.67,24.76,1.54,12.66,1.54,12.66-.38.43-1.36-2.1A6.9,6.9,0,0,0,39,70.54C37.65,53.38,38.4,28.1,69.15,28.1h.16C100.23,28.1,100.83,53.67,99.48,70.82Z"/><path class="cls-9" d="M99.49,82.71a.65.65,0,1,1-.65-.65A.65.65,0,0,1,99.49,82.71Z"/><path class="cls-9" d="M100.94,82.11a.36.36,0,0,1-.35.36.36.36,0,1,1,0-.72A.36.36,0,0,1,100.94,82.11Z"/><path class="cls-9" d="M102.23,81.39a.36.36,0,1,1-.36-.36A.36.36,0,0,1,102.23,81.39Z"/><path class="cls-9" d="M89.33,56.21a1.07,1.07,0,1,1-1.07-1.08A1.08,1.08,0,0,1,89.33,56.21Z"/><path class="cls-9" d="M88.62,59.64a1.07,1.07,0,1,1-1.07-1.07A1.07,1.07,0,0,1,88.62,59.64Z"/><path class="cls-10" d="M50.2,120.05c2.33,1,10.81,5.34,18.87,5.1,16.79-.51,19.54-6.66,19.54-6.66s.7,12.21-2.55,14.15-11.37,6.9-16.94,6.37S55,135.24,54.47,133.29,50.2,120.05,50.2,120.05Z"/><path class="cls-10" d="M86.12,31.86c-3.65-2.15-4.37-3.76-9.05-5.75s-7.95-16.5-7.95-16.5-3.33,14.5-8,16.5-5.4,3.6-9,5.75c-1.16.68-1.39,4.75,3.51,6.26,5.06,1.55,8.58,4,12.2,6.28a3.6,3.6,0,0,0,1.28.45h.05a3.6,3.6,0,0,0,1.28-.45c3.62-2.28,7.14-4.73,12.2-6.28C87.5,36.61,87.27,32.54,86.12,31.86Z"/><path class="cls-11" d="M98,131.09c-.2-.73-.42-1.43-.65-2.12-2.66-7.8-7.14-11.76-10.68-13.76a.12.12,0,0,1-.09,0l0,0c-.32.73-3.44,8.14-9.06,12.7-5.38,4.36-8.23,5.79-8.46,5.89-.23-.1-3.08-1.53-8.47-5.89-5.62-4.56-8.74-12-9.05-12.7l0,0a.1.1,0,0,1-.08,0c-3.54,2-8,6-10.69,13.76-.23.69-.44,1.39-.64,2.12a51.41,51.41,0,0,0-1.64,13.55l.73.31H98.92l.73-.31A51.41,51.41,0,0,0,98,131.09Z"/></g></g></svg>