<svg xmlns="http://www.w3.org/2000/svg" viewBox="0 0 145.36 146.31"><defs><style>.cls-1{fill:#965458;}.cls-2{fill:#261a0f;}.cls-3{fill:#462e13;}.cls-4{fill:#3d1f0f;}.cls-5{fill:#e1bf9c;}.cls-6{fill:#f2d1ac;}.cls-7,.cls-9{fill:#c09a80;}.cls-7{opacity:0.7;}.cls-8{fill:#d3a789;}.cls-10{fill:#e0b89b;}.cls-11{fill:#c6696e;}.cls-12{fill:#d87373;}.cls-13{fill:#4e2715;}.cls-14{fill:#4e2815;}.cls-15{fill:#424380;}.cls-16{fill:#fef5f5;}.cls-17{fill:#2f325b;}.cls-18{fill:#686868;}</style></defs><title>Asset 190</title><g id="Layer_2" data-name="Layer 2"><g id="Layer_1-2" data-name="Layer 1"><rect class="cls-1" width="145.36" height="145.95"/><path class="cls-2" d="M57.11,74.84c-1.76,3.89-4.23,7.82-3.58,11.33C55.77,98.44,54.62,121.87,61,123c1.22.2-4.5-24.55-4.35-37.21-.65-3.5,1.43-5.64,3.19-9.54-.32-1.75-.32-1.75-2.72-1.36Z"/><path class="cls-3" d="M56.65,71.88c-1.73,3.87-4.07,7.67-3.72,11.48,1.21,13.35-1.15,38,4.23,40.12,1,.4-2.41-26.7-1.55-40.11-.34-3.81,1.56-5.77,3.28-9.64-.17-1.91-.17-1.91-2.24-1.85Z"/><path class="cls-3" d="M61,71.88c-1.73,3.87-4.07,7.67-3.72,11.48,1.21,13.35-1.15,38,4.23,40.12,1,.4-2.41-26.7-1.55-40.11-.34-3.81,1.56-5.77,3.28-9.64-.17-1.91-.17-1.91-2.24-1.85Z"/><path class="cls-3" d="M62.84,71.73c-1.72,3.87-4.06,7.67-3.72,11.49,1.21,13.35-1.15,38,4.24,40.12,1,.39-2.42-26.71-1.55-40.11-.35-3.82,1.55-5.77,3.28-9.64-.17-1.91-.17-1.91-2.25-1.86Z"/><path class="cls-2" d="M58.17,77.56c-2.08,3.71-4.76,7.35-4.76,11.06,0,13-4.58,36.88.61,39.05,1,.41,0-26,2.07-39,0-3.71,2.08-5.56,4.16-9.27,0-1.86,0-1.86-2.08-1.86Z"/><path class="cls-2" d="M68.71,77.56C66.64,81.27,64,84.91,64,88.62c0,13-4.58,36.88.6,39.05,1,.41,0-26,2.08-39,0-3.71,2.07-5.56,4.15-9.27,0-1.86,0-1.86-2.08-1.86Z"/><path class="cls-4" d="M56,73.45c-2.07,3.58-4.75,7.1-4.75,10.69,0,12.56-4.59,35.66.6,37.76,1,.39,0-25.12,2.08-37.69,0-3.59,2.07-5.38,4.14-9,0-1.79,0-1.79-2.07-1.79Z"/><path class="cls-2" d="M88.21,75.3c1.75,3.89,4.22,7.82,3.58,11.33-2.25,12.27-1.09,35.7-7.47,36.77-1.22.21,4.51-24.54,4.36-37.2.64-3.5-1.44-5.64-3.2-9.54.33-1.75.33-1.75,2.73-1.36Z"/><path class="cls-3" d="M90.81,73.17c2.08,3.83,4.76,7.56,4.76,11.38,0,13.37,4.58,38-.61,40.18-1,.42,0-26.73-2.07-40.1,0-3.82-2.08-5.73-4.15-9.55,0-1.91,0-1.91,2.07-1.91Z"/><path class="cls-3" d="M88.66,72.33c1.73,3.87,4.07,7.67,3.72,11.49-1.2,13.35,1.16,38-4.23,40.12-1,.39,2.41-26.7,1.55-40.11.34-3.81-1.55-5.77-3.28-9.64.17-1.91.17-1.91,2.24-1.86Z"/><path class="cls-3" d="M84.32,72.33C86,76.2,88.38,80,88,83.82c-1.21,13.35,1.15,38-4.24,40.12-1,.39,2.42-26.7,1.55-40.11.35-3.81-1.55-5.77-3.28-9.64.17-1.91.17-1.91,2.25-1.86Z"/><path class="cls-3" d="M82.47,72.19c1.73,3.87,4.06,7.67,3.72,11.49C85,97,87.34,121.7,82,123.79c-1,.4,2.41-26.7,1.55-40.1.34-3.82-1.56-5.78-3.29-9.65.18-1.91.18-1.91,2.25-1.85Z"/><path class="cls-2" d="M87.15,78c2.07,3.71,4.75,7.35,4.75,11.06,0,13,4.58,36.88-.61,39-1,.42,0-26-2.07-39,0-3.71-2.07-5.56-4.15-9.27,0-1.86,0-1.86,2.08-1.86Z"/><path class="cls-2" d="M76.6,78c2.07,3.71,4.75,7.35,4.75,11.06,0,13,4.59,36.88-.6,39-1,.42,0-26-2.08-39,0-3.71-2.07-5.56-4.14-9.27,0-1.86,0-1.86,2.07-1.86Z"/><path class="cls-4" d="M89.3,73.9c2.08,3.59,4.76,7.11,4.76,10.7,0,12.55,4.58,35.66-.61,37.75-1,.4,0-25.12-2.07-37.68,0-3.59-2.08-5.38-4.15-9,0-1.8,0-1.8,2.07-1.8Z"/><path class="cls-5" d="M72,91.87v54.44H42.41c-.47-.23-.72-.33-.72-.33,0-1.56,0-3,.14-4.42,1.22-17.76,9.77-23.88,14.63-25.95a14,14,0,0,1,3.34-1h.14a2.83,2.83,0,0,0,.4-.08c1.49-.42,2.51-2.62,3.2-5.75.12-.56.22-1.12.31-1.71.16-1,.31-2.07.41-3.17.06-.64.12-1.33.18-2,.28-3.34.36-7,.36-10.4C64.8,91.49,68.78,91.87,72,91.87Z"/><path class="cls-6" d="M102.42,146a6.85,6.85,0,0,0-.71.33H72V91.87h.06c3.22,0,7.22-.38,7.22-.38,0,3.41.08,7,.35,10.32.07.66.13,1.32.19,2,.13,1.14.25,2.24.42,3.24v0c.06.44.14.88.22,1.27.63,3.07,1.54,5.31,2.87,6a2,2,0,0,0,1,.25,14,14,0,0,1,3.34,1c4.94,2.11,13.7,8.42,14.69,26.89Q102.42,144.18,102.42,146Z"/><path class="cls-7" d="M80.22,107v0A9.52,9.52,0,0,1,72,111.52h0a10.36,10.36,0,0,1-8.16-4.45c.17-1,.31-2,.42-3.15.06-.67.12-1.33.18-2a32.59,32.59,0,0,0,7.47,1H72a30.23,30.23,0,0,0,7.63-1.06c.07.67.13,1.33.19,2C79.94,104.94,80.06,106,80.22,107Z"/><path class="cls-8" d="M72,33.4c-30.88-.06-31,24.76-29.68,40.93C40.16,70.54,33.9,72,34.41,78c.5,5.82,9.34,8.46,9.22,7.82C46.16,99,60.71,106.36,72,107.4h.25v-74Z"/><path class="cls-9" d="M36,75.46a3.06,3.06,0,0,1,4.53-.82,2.37,2.37,0,0,1,.73,2.7c-.22.78-1.08.84-.87,2a2.09,2.09,0,0,0,1.25,1.72c.37.31.83.54,1.06,1.11a2.86,2.86,0,0,1,.14,1.67c-.24,1-1.72.2-2.7-.23a18.66,18.66,0,0,1-3.25-2.5C35.54,79.74,34.93,77,36,75.46Z"/><path class="cls-10" d="M72.12,33.4c30.88-.06,31.06,24.76,29.68,40.93,2.12-3.79,8.38-2.38,7.87,3.7-.49,5.82-9.34,8.46-9.21,7.82C97.92,99,83.37,106.36,72.12,107.4h-.24v-74Z"/><path class="cls-9" d="M108.34,75.46a3.06,3.06,0,0,0-4.53-.82,2.39,2.39,0,0,0-.73,2.7c.22.78,1.08.84.87,2a2.09,2.09,0,0,1-1.25,1.72c-.37.31-.83.54-1.06,1.11a2.86,2.86,0,0,0-.14,1.67c.24,1,1.72.2,2.71-.23a18.59,18.59,0,0,0,3.24-2.5C108.77,79.74,109.37,77,108.34,75.46Z"/><path class="cls-5" d="M71.8,40.42c-10.31,0-17.86,2.85-22.43,8.46C43,56.72,43.24,68.69,45.59,77.29c.72,2.63,1.09,9.71,1.58,12.31,2.23,11.62,15.74,17.81,24.63,17.81H72v-67Z"/><path class="cls-6" d="M94.18,48.89c-4.53-5.58-12-8.42-22.14-8.46v67c10.16-.11,22.3-6.9,24.38-17.81.5-2.6.87-9.68,1.59-12.31C100.36,68.71,100.59,56.75,94.18,48.89Z"/><path class="cls-11" d="M77.23,96.9S74.9,99.39,72,99.39A7.78,7.78,0,0,1,67,97,33.07,33.07,0,0,1,72,96.58,42.64,42.64,0,0,1,77.23,96.9Z"/><path class="cls-12" d="M73.5,95.76A1.34,1.34,0,0,0,72,96.88a1.34,1.34,0,0,0-1.47-1.12,20.88,20.88,0,0,0-3.74,1.14s2.85.31,3.66.31,1.53.32,1.55-.29c0,.61.6.37,1.4.37s3.8-.39,3.8-.39A20.72,20.72,0,0,0,73.5,95.76Z"/><path class="cls-2" d="M88.37,42.36C90.72,48,93.71,53.6,93.86,58.94c.52,18.7,6.34,53.73.93,56.12-1,.46-1-37.39-3.77-56.39-.15-5.34-2.42-8.3-4.77-13.93-.07-2.67-.07-2.67,2.12-2.38Z"/><path class="cls-3" d="M97.9,45.7c2.22,5,5.08,9.86,5.08,14.84,0,17.43,4.9,49.5-.64,52.4-1.07.56,0-34.87-2.22-52.29,0-5-2.22-7.48-4.44-12.46,0-2.49,0-2.49,2.22-2.49Z"/><path class="cls-2" d="M96.56,63.08c0,19.69,4.08,55.9-.54,59.17-.88.63.52-30.64-1.67-56.74C92.21,40,73.08,44.61,71.23,39c0-2.82,9.31.75,11,1.43C95.92,46,96.56,57.46,96.56,63.08Z"/><path class="cls-2" d="M99.55,62.65c-.65,19.68,2.23,56-2.5,59.14-.9.6,1.53-30.63.22-56.77C96,39.42,76.7,43.55,75,37.88c.09-2.82,9.28,1,10.94,1.73C99.48,45.54,99.74,57,99.55,62.65Z"/><path class="cls-3" d="M97.55,58.36c0,19.68,4.08,55.9-.54,59.18-.88.62.52-30.66-1.67-56.76-2.14-25.54-21.79-21-23.63-26.63,0-2.81,9.82.87,11.51,1.55C96.91,41.25,97.55,52.73,97.55,58.36Z"/><path class="cls-4" d="M95.79,60.53c0,20.13,4.17,57.17-.55,60.53-.91.64.52-31.35-1.72-58C91.34,36.88,71.76,41.63,69.88,35.88c0-2.88,9.52.77,11.24,1.47C95.12,43,95.79,54.78,95.79,60.53Z"/><path class="cls-13" d="M101,58.51c0,20.14,4.17,57.18-.56,60.53-.9.64.53-31.35-1.7-58C96.5,34.86,74.09,39.51,72.2,33.75c0-2.87,12.36.88,14.09,1.59C100.29,41,101,52.76,101,58.51Z"/><path class="cls-4" d="M102.59,50.49c6,18.93,4.18,52.75.73,57-.66.83,3.19-20.09-1.64-50.92C97.71,31.24,73,35.48,71,33.6S80.14,32,82,32.25C96.81,34.2,100.89,45.08,102.59,50.49Z"/><path class="cls-2" d="M54.32,41.85c-2.14,5.71-4.92,11.43-4.87,16.77.14,18.7-4.4,53.92,1.09,56.11,1,.43-.31-37.41,1.73-56.48-.05-5.34,2.12-8.38,4.26-14.1,0-2.67,0-2.67-2.21-2.3Z"/><path class="cls-3" d="M46.09,45.33c-2.22,5-5.09,9.86-5.09,14.84,0,17.44-4.9,49.5.65,52.4,1.06.56,0-34.86,2.22-52.3,0-5,2.22-7.47,4.44-12.45,0-2.49,0-2.49-2.22-2.49Z"/><path class="cls-2" d="M47.43,62.71c0,19.69-4.08,55.9.54,59.17.88.63-.52-30.65,1.66-56.75,2.15-25.54,21.28-20.89,23.12-26.51,0-2.82-9.3.75-11,1.43C48.07,45.61,47.43,57.09,47.43,62.71Z"/><path class="cls-2" d="M44.43,62.28c.66,19.68-2.22,56,2.51,59.14.9.6-1.54-30.63-.22-56.77C48,39.05,67.29,43.18,69,37.5c-.1-2.8-9.28,1-11,1.75C44.51,45.17,44.24,56.66,44.43,62.28Z"/><path class="cls-3" d="M46.44,58c0,19.69-4.08,55.89.53,59.17.89.63-.51-30.65,1.68-56.75,2.14-25.54,22-20.36,23.83-26,0-2.81-10,.22-11.71.92C47.08,40.88,46.44,52.37,46.44,58Z"/><path class="cls-4" d="M48.21,60.16c0,20.13-4.18,57.18.54,60.53.91.64-.53-31.35,1.71-58,2.19-26.13,21.76-21.37,23.65-27.13,0-2.88-9.52.77-11.25,1.47C48.86,42.67,48.21,54.41,48.21,60.16Z"/><path class="cls-4" d="M95.68,65.72c0,20.14,4.17,57.17-.56,60.53-.9.64.53-31.35-1.71-58C91.23,42.07,71.66,46.82,69.77,41.06c0-2.87,9.52.78,11.24,1.48C95,48.22,95.68,60,95.68,65.72Z"/><path class="cls-4" d="M48.09,65.35c0,20.13-4.17,57.17.56,60.53.9.64-.53-31.35,1.7-58C52.54,41.7,72.11,46.45,74,40.7c0-2.88-9.52.77-11.25,1.47C48.75,47.85,48.09,59.6,48.09,65.35Z"/><path class="cls-14" d="M43,58.14c0,20.13-4.17,57.17.55,60.52.9.65-.53-31.34,1.71-58C47.49,34.49,70.86,39.56,72.75,33.8c0-2.88-13.33.46-15,1.16C43.7,40.64,43,52.39,43,58.14Z"/><path class="cls-13" d="M94.52,68.53c0,20.14,3.26,57.18-.43,60.53-.71.64.41-31.36-1.34-58C91,44.88,73.53,49.53,72,43.78c0-2.88,9.67.87,11,1.58C94,51,94.52,62.78,94.52,68.53Z"/><path class="cls-14" d="M49.25,68.16c0,20.14-3.27,57.18.43,60.53.7.64-.41-31.35,1.34-58,1.71-26.13,20-21.06,21.46-26.81,0-2.89-10.42.45-11.77,1.15C49.76,50.67,49.25,62.41,49.25,68.16Z"/><path class="cls-4" d="M41.39,50.12c-5.94,18.94-4.17,52.75-.72,57.05.66.82-3.19-20.1,1.64-50.94C46.28,30.87,71,35.1,73,33.23s-9.18-1.58-11-1.35C47.18,33.82,43.09,44.71,41.39,50.12Z"/><path class="cls-15" d="M99.76,42.23A143,143,0,0,0,77,37.91c-1.51-.16-3.18-.23-4.92-.24h-.15c-1.74,0-3.41.08-4.92.24a143,143,0,0,0-22.81,4.32s-8.71,15.56-6.34,30.58c0,0,15.57-9.5,34.15-9.06,18.58-.44,34.14,9.06,34.14,9.06C108.47,57.79,99.76,42.23,99.76,42.23Z"/><path class="cls-16" d="M102.42,146a6.85,6.85,0,0,0-.71.33H42.41c-.47-.23-.72-.33-.72-.33,0-21.18,9.54-28.13,14.77-30.37,2.67,4.75,7.7,10.86,15.54,10.66h0a16.5,16.5,0,0,0,15.6-10.66C92.87,117.85,102.42,124.8,102.42,146Z"/><path class="cls-15" d="M93.92,141.56c-3.11-2.2-4.21-8.74-7.49-9.09-1.62-.16-7.74-.14-14.38-.06h0c-6.64-.08-12.76-.1-14.38.06-3.28.35-4.38,6.89-7.49,9.09C50,143,50,144.42,50,146c0,0,.25.1.72.33H93.34c.48-.23.73-.33.73-.33C94.07,144.42,94,143,93.92,141.56Z"/><path class="cls-17" d="M60.69,138.83c-.29,1.43-5.72,1.46-5.81,0-.35-6,.07-22.5.07-22.5a7.86,7.86,0,0,1,2.56-1.4,11.39,11.39,0,0,1,3.19-.55S61.66,134,60.69,138.83Z"/><path class="cls-18" d="M59.81,136.07a2,2,0,1,1-2-2A2,2,0,0,1,59.81,136.07Z"/><path class="cls-17" d="M83,138.83c.29,1.43,5.72,1.46,5.8,0,.36-6-.07-22.71-.07-22.71a13.24,13.24,0,0,0-2.52-1.39,13,13,0,0,0-3.22-.58S82.05,134,83,138.83Z"/><path class="cls-18" d="M83.9,136.07a2,2,0,1,0,2-2A2,2,0,0,0,83.9,136.07Z"/><rect class="cls-17" x="57.79" y="142" width="28.13" height="4.31"/></g></g></svg>