<svg xmlns="http://www.w3.org/2000/svg" xmlns:xlink="http://www.w3.org/1999/xlink" viewBox="0 0 145.36 145.95"><defs><style>.cls-1{fill:none;}.cls-2{fill:#867096;}.cls-3{fill:#070808;}.cls-4{fill:#e2bf9c;}.cls-5{fill:#f2d1ac;}.cls-6{clip-path:url(#clip-path);}.cls-7{fill:#c09a80;}.cls-8{fill:#231f20;}.cls-9{fill:#a86528;}.cls-10{fill:#d3a789;}.cls-11{fill:#e0b89b;}.cls-12{fill:#331a1d;}.cls-13{fill:#441d1e;}.cls-14{fill:#9a1c1f;}.cls-15{fill:#434b68;}</style><clipPath id="clip-path"><rect class="cls-1" x="66.54" y="96.57" width="17.58" height="10.39"/></clipPath></defs><title>Asset 139</title><g id="Layer_2" data-name="Layer 2"><g id="Layer_1-2" data-name="Layer 1"><rect class="cls-2" width="145.36" height="145.95"/><path class="cls-3" d="M39.85,74.09c0,7.78,3.52,9,7.65,21.45,3.42,10.31-3.45,9.14-3.45,9.14s10.49,7.14,9.31-29.91c-.23-7.59,19.91-19,22.55-20.3s3.51-.87,5.76-3.76,3-15.42,3-15.42c-4.13-.85-19.13-1.37-26.4,2.82s-14.9,14-17.15,24.16Z"/><path class="cls-3" d="M45.88,80.46c0,7.78,3.52,9,7.64,21.46,3.42,10.3-3.44,9.13-3.44,9.13s10.49,7.14,9.32-29.91c-.24-7.59,19.9-19,22.53-20.28s3.51-.89,5.76-3.77,3-15.43,3-15.43c-4.13-.85-19.14-1.37-26.39,2.82s-14.91,14-17.16,24.16Z"/><path class="cls-3" d="M53.1,93.6c0,7.78,3.52,9,7.64,21.45,3.42,10.32-3.44,9.14-3.44,9.14s10.48,7.14,9.3-29.91c-.23-7.58,19.92-19,22.55-20.28s3.51-.89,5.76-3.76,3-15.44,3-15.44c-4.14-.84-19.14-1.37-26.41,2.83s-14.89,14-17.14,24.15Z"/><path class="cls-3" d="M110.83,74.09c0,7.78-3.52,9-7.64,21.45-3.41,10.31,3.44,9.14,3.44,9.14s-10.48,7.14-9.31-29.91c.24-7.59-19.91-19-22.53-20.3S71.28,53.6,69,50.71s-3-15.42-3-15.42c4.13-.85,19.14-1.37,26.41,2.82s14.89,14,17.15,24.16Z"/><path class="cls-3" d="M104.81,80.46c0,7.78-3.52,9-7.64,21.46-3.43,10.3,3.44,9.13,3.44,9.13s-10.49,7.14-9.31-29.91c.24-7.59-19.92-19-22.53-20.28S65.25,60,63,57.09s-3-15.43-3-15.43c4.12-.85,19.13-1.37,26.39,2.82s14.9,14,17.14,24.16Z"/><path class="cls-3" d="M97.59,93.6c0,7.78-3.52,9-7.64,21.45-3.42,10.32,3.44,9.14,3.44,9.14s-10.49,7.14-9.31-29.91c.23-7.58-19.91-19-22.54-20.28s-3.5-.89-5.75-3.76-3-15.44-3-15.44c4.13-.84,19.14-1.37,26.4,2.83s14.9,14,17.15,24.15Z"/><path class="cls-4" d="M75.27,85.92v58.36H43.55l-.78-.34c0-31.3,19.42-33.64,19.42-33.64h.16a2.26,2.26,0,0,0,.42-.09,1.72,1.72,0,0,0,.4-.17c1.39-.7,2.36-2.92,3-6,.13-.58.24-1.19.34-1.82.17-1.08.32-2.21.44-3.39.06-.71.13-1.42.2-2.16.28-3.57.37-7.46.37-11.17,0,0,4.28.43,7.72.43"/><path class="cls-5" d="M107.9,143.94s-.29.11-.77.34H75.27V85.92h.07c3.45,0,7.74-.43,7.74-.43,0,3.67.09,7.52.39,11.08.07.72.13,1.43.2,2.12.12,1.22.26,2.38.44,3.47v0c.07.49.16.93.25,1.39.66,3.26,1.64,5.67,3.07,6.47.11,0,.21.1.33.13a1.87,1.87,0,0,0,.71.13s19.43,2.34,19.43,33.64"/><g class="cls-6"><path class="cls-7" d="M84.11,102.16v0A10.27,10.27,0,0,1,75.32,107h0a11,11,0,0,1-8.73-4.75c.17-1.07.32-2.21.44-3.39.06-.71.13-1.42.2-2.16a34.23,34.23,0,0,0,8,1h.09a32.8,32.8,0,0,0,8.2-1.14c.07.72.13,1.43.2,2.12.12,1.22.26,2.39.44,3.47"/></g><polygon class="cls-8" points="82.64 105 83.08 105.32 82.84 105.67 82.53 105.19 82.64 105"/><polygon class="cls-9" points="102.31 133.61 101.87 133.93 94.09 122.39 93.74 121.88 93.14 120.98 93.12 120.94 92.23 119.61 91.88 119.09 90.34 116.8 90.01 116.31 88.47 114.03 88.14 113.53 86.6 111.24 86.27 110.75 84.73 108.46 84.39 107.97 84.71 107.47 85.06 107.97 86.6 110.26 86.94 110.75 88.47 113.04 88.81 113.55 90.34 115.82 90.68 116.33 91.69 117.85 92.2 118.6 92.54 119.11 94.08 121.38 94.41 121.89 102.31 133.61"/><polygon class="cls-9" points="99.27 134.65 98.79 134.95 94.41 128.43 93.93 127.69 93.58 127.21 92.2 125.16 91.88 124.68 90.34 122.39 90.01 121.9 88.47 119.61 88.12 119.11 88.12 119.09 86.6 116.82 86.27 116.33 86.27 116.31 84.71 114.03 84.39 113.55 82.84 111.26 82.51 110.75 80.97 108.46 80.64 107.97 80.97 107.47 81.3 107.97 82.84 110.26 83.2 110.75 84.73 113.04 85.04 113.53 86.6 115.82 86.94 116.33 88.47 118.6 88.81 119.09 90.34 121.38 90.68 121.9 92.2 124.17 92.54 124.68 93.93 126.7 94.25 127.21 94.73 127.9 99.27 134.65"/><polygon class="cls-8" points="73.05 102.24 73.41 102.03 73.14 102.38 73.05 102.24"/><polygon class="cls-8" points="73.56 102.03 73.5 101.96 73.52 101.94 73.56 102.03"/><polygon class="cls-9" points="96.21 135.66 95.75 135.96 92.06 130.48 91.72 129.97 91.58 129.77 90.34 127.94 90.01 127.44 88.47 125.16 88.14 124.65 86.6 122.37 86.27 121.87 84.73 119.61 84.39 119.09 82.84 116.8 82.53 116.31 80.97 114.02 80.64 113.53 79.1 111.24 78.77 110.75 77.23 108.46 76.9 107.97 77.23 107.45 77.57 107.97 79.1 110.26 79.44 110.73 80.97 113.02 81.33 113.53 82.87 115.82 83.17 116.31 84.73 118.6 85.06 119.09 86.6 121.36 86.94 121.87 88.47 124.17 88.81 124.68 90.34 126.95 90.68 127.44 92.06 129.48 92.07 129.53 92.39 129.97 96.21 135.66"/><polygon class="cls-9" points="93.14 136.67 92.67 136.98 90.18 133.29 89.83 132.78 88.78 131.19 88.47 130.73 88.14 130.24 86.6 127.94 86.27 127.46 84.71 125.16 84.37 124.65 82.84 122.39 82.51 121.89 80.97 119.61 80.64 119.11 79.1 116.82 78.77 116.31 77.21 114.01 76.9 113.55 75.34 111.26 75.34 111.24 75.01 110.75 73.47 108.48 73.14 107.97 73.5 107.47 73.84 107.97 75.34 110.23 75.7 110.75 77.23 113.04 77.57 113.53 79.1 115.82 79.44 116.31 80.97 118.6 81.3 119.09 82.84 121.38 83.2 121.89 84.71 124.17 85.06 124.65 86.6 126.95 86.94 127.46 88.47 129.72 88.81 130.24 89.27 130.92 89.3 130.92 90.18 132.27 90.52 132.78 93.14 136.67"/><polygon class="cls-9" points="90.1 137.69 89.62 138.01 86.6 133.51 86.27 133 85.91 132.48 84.73 130.73 84.39 130.24 82.84 127.94 82.51 127.44 80.97 125.16 80.64 124.65 79.1 122.37 78.77 121.89 77.23 119.61 76.9 119.09 75.34 116.8 75.03 116.31 73.5 114.01 73.14 113.53 71.61 111.26 71.27 110.75 69.74 108.46 69.4 107.97 67.87 105.69 67.53 105.19 67.87 104.68 68.2 105.19 69.74 107.45 70.07 107.97 71.63 110.23 71.96 110.75 73.5 113.02 73.84 113.53 75.36 115.82 75.7 116.31 77.23 118.57 77.57 119.09 79.1 121.38 79.44 121.88 80.97 124.17 81.33 124.65 82.84 126.92 83.2 127.44 84.73 129.72 85.06 130.24 86.44 132.27 86.6 132.51 86.94 133 90.1 137.69"/><polygon class="cls-9" points="87.02 138.71 86.58 139.02 86.44 138.82 86.09 138.31 84.73 136.28 84.39 135.78 82.89 133.56 82.87 133.51 82.53 133 80.97 130.73 80.97 130.71 80.64 130.22 79.1 127.94 78.77 127.44 77.23 125.14 76.9 124.65 75.36 122.37 75.03 121.88 73.5 119.58 73.16 119.09 71.63 116.8 71.27 116.31 69.74 114.01 69.4 113.53 67.87 111.24 67.53 110.73 66 108.46 65.67 107.97 66 107.47 66.33 107.97 67.87 110.26 68.2 110.75 69.74 113.04 70.07 113.53 71.61 115.82 71.94 116.31 73.5 118.6 73.81 119.09 75.34 121.38 75.7 121.89 77.23 124.17 77.57 124.65 79.1 126.95 79.44 127.46 80.97 129.72 81.3 130.24 82.84 132.51 82.84 132.53 83.2 133.02 83.42 133.38 84.71 135.29 85.06 135.8 86.42 137.82 86.76 138.33 87.02 138.71"/><polygon class="cls-9" points="83.98 139.74 83.51 140.04 82.84 139.07 82.51 138.56 80.97 136.28 80.64 135.8 79.65 134.33 79.1 133.51 78.77 133 77.23 130.73 76.9 130.24 75.34 127.94 75.03 127.46 73.5 125.16 73.14 124.65 71.61 122.37 71.27 121.89 69.74 119.61 69.4 119.09 67.87 116.82 67.53 116.31 66 114.01 65.64 113.53 64.14 111.26 63.77 110.75 64.14 110.26 64.46 110.75 66 113.02 66.33 113.53 67.87 115.82 68.2 116.31 69.74 118.57 70.07 119.09 71.63 121.38 71.94 121.88 73.5 124.14 73.5 124.17 73.84 124.65 75.36 126.95 75.7 127.44 77.23 129.72 77.57 130.24 79.1 132.51 79.44 133 80.26 134.22 80.97 135.29 81.33 135.8 82.84 138.07 83.2 138.56 83.98 139.74"/><path class="cls-9" d="M80.91,140.76l-.44.31-1.37-2-.33-.51-1.54-2.27-.33-.51-.64-1-.9-1.31L75,133l-1.53-2.29-.34-.47L71.63,128v0l-.36-.48-1.53-2.3-.34-.49-1.53-2.28-.34-.49L66,119.58l-.33-.49-1.53-2.29-.34-.49L62.26,114l-.33-.51-.39-.54-1.17-1.75-.29-.43a4.58,4.58,0,0,0,.56-.15l.07.09,1.15,1.71.38.58.33.51,1.53,2.27.34.49L66,118.6l.33.49,1.54,2.29.33.52,1.54,2.27.33.48,1.54,2.3.33.51,1.56,2.26v0l.31.5,1.53,2.27v0l.36.49,1.16,1.74.35.53.36.51,1.53,2.28.34.5Z"/><path class="cls-9" d="M77.86,141.79l-.47.3-.16-.21-.33-.52-1.56-2.29-.33-.51-1.51-2.27-.36-.49-.82-1.25-.71-1.05-.34-.48-1.53-2.29-.34-.49L67.87,128l-.34-.49L66,125.16l-.36-.51-1.54-2.26-.33-.49-1.53-2.29-.33-.52-1.54-2.27-.34-.49-.13-.22L58.5,114l-.34-.51-1-1.46a2.92,2.92,0,0,1,.5-.25l.83,1.2.34.51,1.35,2,.18.27.34.51,1.53,2.27.33.49,1.57,2.29.32.49,1.54,2.3.33.48,1.54,2.3.33.49,1.54,2.28.33.52,1.56,2.27.31.48,1.14,1.68.42.62.34.51,1.5,2.27.36.49,1.53,2.29.34.51Z"/><path class="cls-9" d="M74.79,142.8l-.45.32-.84-1.28-.36-.51-1.51-2.26-.36-.51-1.53-2.27-.34-.49-1.48-2.22,0-.08-.34-.51L66,130.71l-.33-.47L64.14,128l-.37-.51-1.53-2.29-.33-.5-1.54-2.28-.34-.5-1.53-2.26-.18-.3-.16-.22-1.53-2.29-.34-.49-1.75-2.6a1.9,1.9,0,0,1,.44-.32l1.63,2.43.35.51,1.54,2.27.09.13.25.39,1.53,2.26.34.52,1.53,2.27.33.51L64.1,127l.34.51L66,129.74l.31.5,1.56,2.27.33.51.53.8,1,1.49.33.49,1.54,2.28.33.5,1.53,2.27.34.51Z"/><path class="cls-9" d="M71.74,143.82l-.47.32-1.53-2.26-.34-.52-1.53-2.29-.34-.49L66,136.29l-.36-.49-1.54-2.3-.33-.48-.92-1.41-.61-.88-.33-.49L60.37,128l-.34-.49-1.53-2.3-.34-.48-1.31-2-.22-.33-.34-.49-1.55-2.29-.34-.52-2.26-3.38a3.82,3.82,0,0,0,.4-.41l2.2,3.3.35.49,1.54,2.29.33.52.14.19,1.4,2.08.34.48,1.53,2.3.34.49,1.53,2.28.33.52,1.25,1.82.32.45.3.48,1.56,2.3.33.51,1.54,2.28.33.48,1.54,2.29.33.51Z"/><path class="cls-9" d="M68.29,144.28h-.67l-3.48-5.21-.37-.51-1.53-2.27-.33-.49-1.54-2.29L60,133l-1.53-2.29-.34-.47-.86-1.31-.67-1-.34-.51-.46-.67-1.07-1.61-.33-.48-1.55-2.29-.34-.51L50,118.09a3.55,3.55,0,0,1,.35-.44l2.53,3.73.35.5,1.53,2.29.33.51.85,1.24.69,1,.33.49,1.27,1.89.27.39.34.5,1.53,2.29.34.49,1.55,2.29.31.49,1.57,2.29.32.49Z"/><path class="cls-9" d="M100.51,117.92,99,120.18l-.32.51L97.1,123l-.32.48-.66,1-.31.48-.11.15-.46.68-.34.51-.09.13-.56.82,0,0-.3.46-.56.85L93,129l0,.09h0l-.58.87-.32.51-.57.83-.33.51-.64,1-.34.51-.56.82-.33.49-.64,1-.33.49-.56.83-.35.5-.65,1-.32.49-2.53,3.76-.6.89-.47-.3.4-.59,2.85-4.27.33-.49.65-.94.34-.5.57-.84.34-.5.64-.95.31-.5.56-.81.35-.51.65-1,.33-.49.56-.85.27-.41h0l0-.08.64-1L93,128l.27-.4.28-.43.35-.51.64-1,.1-.16v0l.23-.32.55-.84.14-.18.2-.29.65-1,.34-.52,1.52-2.29.37-.49,1.48-2.23a4.06,4.06,0,0,1,.36.46"/><path class="cls-10" d="M75.25,23.2c-33.11-.05-33.31,26.55-31.82,43.9-2.28-4.07-9-2.56-8.45,4,.53,6.24,10,9.08,9.89,8.39,2.71,14.14,18.32,22,30.38,23.1h.25V23.21h-.25"/><path class="cls-7" d="M36.65,68.3a3.28,3.28,0,0,1,4.85-.87,2.55,2.55,0,0,1,.78,2.9c-.22.82-1.16.89-.94,2.17a2.26,2.26,0,0,0,1.35,1.85c.4.33.9.57,1.14,1.17A3.26,3.26,0,0,1,44,77.33c-.26,1-1.84.21-2.9-.24A20.41,20.41,0,0,1,37.6,74.4c-1.4-1.51-2.06-4.41-1-6.1"/><path class="cls-11" d="M75.42,23.2c33.11-.05,33.3,26.55,31.82,43.9,2.28-4.07,9-2.56,8.45,4-.53,6.24-10,9.08-9.89,8.39-2.71,14.14-18.31,22-30.38,23.1h-.26V23.21h.26"/><path class="cls-7" d="M114.26,68.3a3.28,3.28,0,0,0-4.85-.87,2.57,2.57,0,0,0-.8,2.9c.24.82,1.17.89.94,2.17a2.28,2.28,0,0,1-1.34,1.85c-.39.33-.89.57-1.14,1.17a3.08,3.08,0,0,0-.14,1.81c.26,1,1.83.21,2.9-.24a20.74,20.74,0,0,0,3.47-2.69c1.41-1.51,2.07-4.41,1-6.1"/><path class="cls-4" d="M75.08,30.74c-11.06,0-19.15,3.05-24,9.06C44.18,48.21,44.45,61.05,47,70.27c.77,2.82,1.16,10.4,1.7,13.2,2.38,12.47,16.87,19.1,26.41,19.1h.25V30.74h-.25"/><path class="cls-5" d="M99.07,39.82c-4.85-6-12.85-9-23.74-9.08v71.82c10.9-.11,23.91-7.38,26.15-19.09.54-2.79.93-10.38,1.7-13.2,2.51-9.2,2.76-22-4.11-30.45"/><path class="cls-12" d="M80.9,91.3S78.41,94,75.32,94s-5.43-2.62-5.43-2.62a35.91,35.91,0,0,1,5.43-.4,46,46,0,0,1,5.58.34"/><path class="cls-13" d="M76.9,90.08a1.44,1.44,0,0,0-1.58,1.2,1.44,1.44,0,0,0-1.57-1.2,22,22,0,0,0-4,1.23s3.05.32,3.93.32,1.64.34,1.65-.31c0,.65.64.4,1.51.4s4.07-.41,4.07-.41a22.11,22.11,0,0,0-4-1.23"/><polygon class="cls-9" points="68.2 105.19 67.87 105.69 66.33 107.97 66 108.46 64.46 110.75 64.14 111.26 62.57 113.55 62.26 114.03 60.71 116.33 60.37 116.82 58.84 119.11 58.5 119.61 57.56 120.98 57.54 121.05 56.96 121.89 56.63 122.39 55.09 124.68 54.77 125.16 48.18 134.95 47.71 134.65 54.43 124.68 54.77 124.17 56.29 121.89 56.63 121.38 58.16 119.09 58.5 118.6 59.01 117.84 60.03 116.33 60.37 115.82 61.93 113.53 62.23 113.04 63.77 110.75 64.14 110.26 65.67 107.97 66 107.47 67.53 105.19 67.87 104.68 68.2 105.19"/><polygon class="cls-9" points="70.07 107.97 69.74 108.46 68.2 110.75 67.87 111.24 66.33 113.53 66 114.02 64.44 116.31 64.14 116.8 62.57 119.09 62.23 119.61 60.71 121.89 60.37 122.37 58.84 124.65 58.5 125.16 56.96 127.44 56.63 127.94 56.29 128.43 51.22 135.96 50.76 135.66 55.97 127.92 56.63 126.94 58.16 124.68 58.5 124.17 60.03 121.87 60.37 121.38 61.91 119.09 62.23 118.6 63.8 116.31 64.1 115.82 65.64 113.53 66 113.02 67.53 110.73 67.87 110.26 69.4 107.97 69.74 107.46 70.07 107.97"/><polygon class="cls-9" points="73.84 107.97 73.47 108.48 71.96 110.75 71.61 111.26 70.07 113.53 69.74 114.02 68.2 116.31 67.87 116.82 66.33 119.09 65.99 119.58 64.46 121.87 64.1 122.39 62.57 124.68 62.23 125.15 60.71 127.44 60.37 127.94 59.15 129.74 58.84 130.22 58.5 130.71 54.27 136.98 53.83 136.67 58.16 130.24 58.5 129.72 58.64 129.53 60.03 127.46 60.37 126.94 61.91 124.65 62.23 124.17 63.77 121.89 64.14 121.38 65.67 119.09 65.99 118.6 67.53 116.31 67.87 115.82 69.4 113.53 69.74 113.04 71.27 110.75 71.63 110.23 73.13 107.97 73.5 107.47 73.84 107.97"/><polygon class="cls-9" points="77.57 107.97 77.23 108.46 75.7 110.75 75.34 111.24 75.34 111.26 73.84 113.53 73.5 114.02 71.94 116.31 71.63 116.8 70.07 119.09 69.74 119.61 68.2 121.89 67.87 122.37 66.33 124.65 66 125.16 64.44 127.46 64.14 127.94 62.57 130.24 62.23 130.73 61.93 131.19 60.71 132.99 60.37 133.5 57.34 138.01 56.87 137.69 60.03 132.99 60.37 132.51 61.42 130.92 61.91 130.24 62.23 129.72 63.77 127.44 64.1 126.94 65.64 124.65 66 124.17 67.53 121.87 67.87 121.38 69.4 119.09 69.74 118.58 71.27 116.31 71.61 115.82 73.14 113.53 73.5 113.02 75.01 110.75 75.34 110.23 76.9 107.97 77.23 107.46 77.57 107.97"/><polygon class="cls-9" points="83.08 105.32 82.84 105.67 81.3 107.97 80.97 108.46 79.44 110.73 79.1 111.24 77.57 113.53 77.21 114.01 75.7 116.31 75.34 116.8 73.81 119.09 73.5 119.58 71.94 121.87 71.61 122.37 70.07 124.65 69.74 125.14 68.2 127.44 67.87 127.92 67.87 127.94 66.31 130.24 66 130.71 64.79 132.48 64.44 132.99 64.1 133.51 62.57 135.78 62.23 136.28 60.39 139.02 59.95 138.71 61.91 135.8 62.26 135.29 63.77 133.02 64.13 132.51 64.28 132.26 65.67 130.24 66 129.74 67.53 127.46 67.87 126.95 69.4 124.65 69.74 124.17 71.27 121.89 71.63 121.38 73.16 119.09 73.5 118.6 75.03 116.31 75.36 115.82 76.9 113.55 77.23 113.04 78.77 110.74 79.1 110.26 80.64 107.97 80.97 107.48 82.53 105.19 82.64 105 83.08 105.32"/><polygon class="cls-9" points="85.06 107.97 84.73 108.46 83.2 110.75 82.84 111.26 81.33 113.53 80.97 114.02 79.44 116.31 79.1 116.82 77.57 119.09 77.23 119.61 75.7 121.89 75.36 122.37 73.84 124.65 73.5 125.16 71.94 127.46 71.63 127.92 71.63 127.94 70.07 130.24 69.74 130.73 68.2 133.02 67.87 133.5 67.85 133.56 67.83 133.56 66.33 135.8 66 136.28 64.46 138.56 64.14 139.07 63.46 140.04 62.99 139.74 63.77 138.56 64.14 138.06 65.64 135.8 66 135.29 67.26 133.38 67.53 132.99 67.87 132.51 69.4 130.24 69.74 129.72 71.27 127.44 71.61 126.94 73.14 124.65 73.5 124.17 73.5 124.14 75.03 121.87 75.34 121.38 76.9 119.09 77.23 118.58 78.77 116.31 79.1 115.82 80.64 113.53 80.97 113.02 82.51 110.75 82.84 110.26 84.39 107.97 84.71 107.47 85.06 107.97"/><polygon class="cls-9" points="86.94 110.75 86.6 111.24 85.04 113.53 84.71 114.03 83.17 116.31 82.84 116.8 81.3 119.09 80.97 119.61 79.44 121.87 79.11 122.37 77.57 124.65 77.23 125.15 75.7 127.44 75.34 127.94 73.81 130.24 73.5 130.71 71.94 132.99 71.61 133.5 71.05 134.33 70.07 135.8 69.74 136.28 68.2 138.56 67.87 139.07 66.51 141.07 66.06 140.76 67.53 138.58 67.87 138.08 69.4 135.8 69.74 135.31 70.45 134.25 70.47 134.25 71.27 133.02 71.63 132.51 73.16 130.24 73.5 129.74 73.5 129.72 75.03 127.46 75.36 126.94 76.9 124.65 77.23 124.17 78.77 121.89 79.11 121.38 80.64 119.11 80.97 118.6 82.53 116.31 82.87 115.82 84.39 113.55 84.73 113.04 86.27 110.75 86.6 110.26 86.94 110.75"/><path class="cls-9" d="M90.63,110.83,89.16,113l-.35.53-.34.49-1.53,2.29-.34.49-1.54,2.27-.33.52L83.2,121.9l-.36.49-1.51,2.26-.36.51-1.53,2.3-.34.49-1.53,2.29-.34.49L75.7,133l-.34.48-.89,1.32-.63,1-.34.49-1.56,2.29-.31.49-1.56,2.29-.33.52-.16.21-.46-.3.28-.43.34-.51,1.53-2.29.34-.48,1.53-2.28.36-.51.36-.53L75,133l.31-.46v0l1.56-2.27.33-.52,1.54-2.28.33-.49,1.54-2.3.33-.48,1.54-2.27.33-.52,1.55-2.29.34-.49,1.54-2.27v0l.33-.49,1.54-2.29.33-.49.38-.58,1.22-1.81a3.33,3.33,0,0,0,.56.18"/><path class="cls-9" d="M93.52,112.08l-2.72,4-.12.22-.34.47-1.53,2.29-.34.52-1.53,2.26-.34.5-1.54,2.28-.35.51-1.51,2.28-.36.51-1.54,2.29-.33.47v0L79.44,133l-.34.52-.72,1-.81,1.25-.34.49-1.53,2.27-.36.51-1.53,2.29-.31.49-.88,1.26-.46-.31,1-1.47.33-.48L75,138.56l.33-.49,1.56-2.29.31-.49.43-.62h0L78.77,133l.33-.48,1.54-2.29.33-.5,1.54-2.28.33-.49v0l1.53-2.27.34-.48,1.56-2.3.33-.51,1.52-2.24v0l.35-.49L90,116.31l.33-.49.18-.27L93,111.82l.49.26"/><path class="cls-9" d="M96.17,113.73l-3.63,5.39-.13.21-.18.28-1.55,2.28-.34.5-1.53,2.29-.34.48-1.53,2.3-.34.49-1.54,2.29-.33.49L83.2,133l-.33.49,0,.05h0l-1.49,2.24-.36.49-1.53,2.29-.34.49-1.53,2.29-.34.52-1.53,2.26-.47-.32,1.67-2.46.33-.51,1.54-2.29.33-.48,1.54-2.28.33-.51,1-1.49h0l.53-.81.31-.46v0l1.55-2.27.34-.52,1.54-2.26.33-.52,1.54-2.29.33-.48L90,121.89l.33-.51,1.54-2.29.23-.36.09-.13,3.52-5.21c.14.11.29.23.45.34"/><path class="cls-9" d="M98.55,115.76l-4.14,6.13-.32.5-.23.33-1.32,2-.34.48-1.52,2.28-.34.51-1.53,2.29-.34.49-.6.88L86.94,133l-.34.51-1.54,2.3-.33.49-1.53,2.27-.36.51-3.49,5.21h-.67l3.83-5.72.33-.5,1.55-2.28.32-.49,1.55-2.3.34-.48.27-.42h0l1.26-1.85.33-.52L90,127.44l.33-.5,1.54-2.26.32-.51,1.41-2.08.13-.22.34-.49,4.07-6,.4.41"/><path class="cls-14" d="M108.16,143.94s-.29.11-.77.34H43.29l-.78-.34c0-13,3.34-21.09,7.29-26.07a2.89,2.89,0,0,1,.36-.44,22.93,22.93,0,0,1,1.79-2,3,3,0,0,0,.4-.4,17,17,0,0,1,2-1.61,2,2,0,0,1,.45-.32,22.24,22.24,0,0,1,2.2-1.35l.52-.25a24,24,0,0,1,2.27-1,.37.37,0,0,0,.15,0c.2,0,.37-.12.56-.16a.88.88,0,0,1,.15,0,13.87,13.87,0,0,1,1.42-.3h.16a3.67,3.67,0,0,0,.43-.09,1.92,1.92,0,0,0,.39-.18h.12s-.59,1-1.44,2.44a3.73,3.73,0,0,1-.31.54c-.4.76-.88,1.63-1.37,2.59a4.77,4.77,0,0,0-.29.55c-.32.57-.61,1.14-.91,1.75-.12.3-.28.58-.41.9s-.19.38-.28.58c-.27.56-.54,1.13-.76,1.68l0,.07c-.16.36-.31.69-.45,1s-.16.43-.25.64a18.23,18.23,0,0,0-.91,3.22,6,6,0,0,0-.12.85,3.32,3.32,0,0,0,.14,1.17,1.42,1.42,0,0,0,.34.52,1.17,1.17,0,0,0,.42.27l.58.21.94.41.41.21.52.22c.69.39,1.45.78,2.27,1.19l.53.27.91.42c.32.16.64.29,1,.45l.47.21a4.06,4.06,0,0,0,.52.22c.78.31,1.61.63,2.5.9a5.05,5.05,0,0,0,.55.18h0l.07,0,.84.25,1.72.42h0c.2,0,.38.07.59.09.42.09.85.16,1.28.22a5.6,5.6,0,0,0,.75.12c.25,0,.52.07.79.09l.63.07.8.06h.09l.9-.06.61-.07c.27,0,.52-.05.78-.09h0a6.5,6.5,0,0,0,.75-.12c.42-.06.85-.13,1.28-.22a4.55,4.55,0,0,0,.6-.12,15.61,15.61,0,0,0,1.73-.42h0a4.65,4.65,0,0,0,.83-.24H83q.27-.08.54-.18c.89-.27,1.72-.59,2.51-.9.17-.07.35-.16.53-.22A3,3,0,0,1,87,132h0l1-.48c.32-.13.62-.28.92-.42l.5-.27h0l2.31-1.17c.16-.06.27-.15.4-.2h0s0,0,.06,0l.9-.44h0c.36-.15.67-.28,1-.39a1.22,1.22,0,0,0,.43-.27,1,1,0,0,0,.31-.55,3.18,3.18,0,0,0,.08-1.51,5.14,5.14,0,0,0-.13-.82v0a17.86,17.86,0,0,0-.83-2.86c-.09-.21-.16-.41-.25-.64s-.31-.73-.47-1.12v0c-.23-.55-.48-1.08-.73-1.61-.08-.21-.2-.41-.28-.61s-.29-.6-.43-.9c-.29-.61-.59-1.18-.89-1.75a4.83,4.83,0,0,0-.3-.55c-.47-.93-1-1.8-1.37-2.57a6.12,6.12,0,0,1-.31-.56c-.85-1.48-1.44-2.44-1.44-2.44a2,2,0,0,0,.34.13,1.91,1.91,0,0,0,.71.14,11.78,11.78,0,0,1,1.62.35c.18.07.36.12.56.18a24.73,24.73,0,0,1,2.43,1,5.5,5.5,0,0,1,.48.28,22.71,22.71,0,0,1,2.23,1.32,4.07,4.07,0,0,0,.45.34,20,20,0,0,1,2,1.64l.42.4c.53.52,1.06,1.11,1.6,1.73a2.63,2.63,0,0,1,.36.45c4,4.94,7.45,13,7.45,26.24"/><path class="cls-3" d="M82.22,19.07c-4.13-.85-19.13-1.38-26.39,2.82S40.93,35.89,38.68,46,36.52,71,44.41,78.5s14.41,8.59,14.41,8.59-14.77-7.63-7.89-28.55c2.36-7.2,19.91-19,22.53-20.28s3.51-.89,5.76-3.76,3-15.43,3-15.43"/><path class="cls-15" d="M75.39,113.2c7.63,0,12-3.17,12-3.17a23.55,23.55,0,0,1-1.92-4.23,4.33,4.33,0,0,0-1.15-2.25s-2.7,2-9,1.87c-6.29.16-9-1.87-9-1.87a4.33,4.33,0,0,0-1.15,2.25A23.07,23.07,0,0,1,63.29,110s4.4,3.14,12,3.17h.07Z"/><path class="cls-3" d="M87,93.92a.79.79,0,1,1-.77-.8.77.77,0,0,1,.77.8"/><path class="cls-3" d="M67.7,19.07c4.13-.85,19.12-1.38,26.39,2.82S109,35.89,111.24,46s2.16,25-5.73,32.46S91.1,87.09,91.1,87.09,105.87,79.46,99,58.54c-2.37-7.2-19.91-19-22.53-20.28S73,37.37,70.7,34.5s-3-15.43-3-15.43"/><path class="cls-3" d="M58.31,39.11c-2,.26-9,2.37-11.71,5.45a19.53,19.53,0,0,0-4.11,13.81c.56,5,2.93,11.85,7.74,14.05s8,1.69,8,1.69-8-1.19-8.12-11.91c0-3.69,6.19-11.89,7.2-12.88s1.47-1,2.06-2.63-1-7.58-1-7.58"/><path class="cls-3" d="M88.07,36.7c2,.25,9,2.37,11.71,5.44A19.48,19.48,0,0,1,103.88,56c-.55,5-2.92,11.85-7.73,14s-8,1.7-8,1.7,8-1.2,8.11-11.91c0-3.69-6.18-11.89-7.19-12.88S87.61,46,87,44.27s1-7.57,1-7.57"/></g></g></svg>