<svg xmlns="http://www.w3.org/2000/svg" viewBox="0 0 145.36 145.95"><defs><style>.cls-1{fill:#8967ac;}.cls-2{fill:#e6e7e8;}.cls-3{fill:#e1bf9c;}.cls-4{fill:#f2d1ac;}.cls-5,.cls-7{fill:#c09a80;}.cls-5{opacity:0.7;}.cls-6{fill:#d3a789;}.cls-8{fill:#e0b89b;}.cls-9{fill:#191919;}.cls-10{fill:#0d0d0d;}.cls-11{fill:#1e1e1e;}.cls-12{fill:#9b9a9a;}.cls-13{fill:#550f0e;}</style></defs><title>Asset 196</title><g id="Layer_2" data-name="Layer 2"><g id="Layer_1-2" data-name="Layer 1"><rect class="cls-1" width="145.36" height="145.95"/><polygon class="cls-2" points="49.05 118.13 47.83 119.01 46.84 116.35 45.85 113.69 48.07 115.47 50.28 117.24 49.05 118.13"/><polygon class="cls-2" points="51.69 115.85 50.25 116.31 50.13 113.47 50 110.64 51.57 113.01 53.13 115.38 51.69 115.85"/><polygon class="cls-2" points="55.23 114.17 53.72 114.23 54.37 111.47 55.01 108.7 55.88 111.41 56.75 114.11 55.23 114.17"/><polygon class="cls-2" points="91.77 117.74 93 118.63 93.99 115.97 94.98 113.3 92.76 115.08 90.55 116.86 91.77 117.74"/><polygon class="cls-2" points="89.14 115.47 90.58 115.93 90.7 113.09 90.82 110.26 89.26 112.63 87.69 115 89.14 115.47"/><polygon class="cls-2" points="85.59 113.79 87.11 113.85 86.46 111.09 85.82 108.32 84.94 111.03 84.08 113.73 85.59 113.79"/><path class="cls-3" d="M70.58,89v57h-31l-.76-.33c0-30.56,19-32.84,19-32.84,1.41,0,2.43-1.35,3.21-3.54a20,20,0,0,0,.7-2.59,17.7,17.7,0,0,0,.32-1.78c.18-1.05.33-2.15.44-3.3.06-.7.13-1.39.2-2.11C63,96,63,92.16,63,88.55,63,88.55,67.22,89,70.58,89Z"/><path class="cls-4" d="M102.43,145.62s-.28.11-.74.33H70.58V89h.07c3.37,0,7.56-.42,7.56-.42,0,3.59.08,7.34.37,10.82.06.7.13,1.39.19,2.07.13,1.19.26,2.32.43,3.38v0c.07.47.16.91.25,1.34A15.38,15.38,0,0,0,81,110.82c.65,1.24,1.47,2,2.5,2C83.47,112.78,102.43,115.06,102.43,145.62Z"/><path class="cls-5" d="M79.21,104.82v0a10,10,0,0,1-8.58,4.67h0a10.82,10.82,0,0,1-8.54-4.65c.17-1,.32-2.15.43-3.3.07-.69.14-1.39.2-2.11a33.76,33.76,0,0,0,7.82,1h.09a31.65,31.65,0,0,0,8-1.11c.06.7.13,1.4.2,2.07C78.91,102.63,79,103.77,79.21,104.82Z"/><path class="cls-6" d="M70.68,23.62c-32.82,0-33,27.47-31.55,45.44-2.24-4.26-8.9-2.94-8.36,3.77.53,6.46,9.93,9.81,9.8,9.06,2.69,14.79,18.13,23.34,30.11,23.34l.25,0V23.62Z"/><path class="cls-7" d="M32.87,70a3.1,3.1,0,0,1,4.74-.9,2.7,2.7,0,0,1,.76,3c-.22.86-1.13.93-.91,2.24a2.35,2.35,0,0,0,1.31,1.9,3,3,0,0,1,1.11,1.21A3.22,3.22,0,0,1,40,79.27c-.25,1.06-1.8.22-2.83-.26a19.34,19.34,0,0,1-3.4-2.75C32.42,74.71,31.79,71.72,32.87,70Z"/><path class="cls-8" d="M70.84,23.62c32.82,0,33,27.47,31.54,45.44,2.25-4.26,8.91-2.94,8.36,3.77-.52,6.46-9.93,9.81-9.8,9.06-2.69,14.79-18.13,23.34-30.1,23.34l-.25,0V23.62Z"/><path class="cls-7" d="M108.65,70a3.1,3.1,0,0,0-4.74-.9,2.72,2.72,0,0,0-.77,3c.23.86,1.14.93.92,2.24a2.32,2.32,0,0,1-1.32,1.9,3.12,3.12,0,0,0-1.11,1.21,3.39,3.39,0,0,0-.14,1.85c.25,1.06,1.8.22,2.83-.26a18.92,18.92,0,0,0,3.39-2.75C109.09,74.71,109.73,71.72,108.65,70Z"/><path class="cls-3" d="M70.39,31.36c-10.79,0-18.7,3.13-23.48,9.33C40.23,49.33,40.49,62.53,43,72c.75,2.9,1.14,10.71,1.66,13.58,2.33,12.81,16.47,19.64,25.78,19.64l.25,0V31.37Z"/><path class="cls-4" d="M93.83,40.7c-4.75-6.15-12.56-9.28-23.19-9.33v73.84C81.28,105.1,94,97.62,96.17,85.59c.52-2.87.91-10.68,1.66-13.58C100.29,62.56,100.53,49.37,93.83,40.7Z"/><path class="cls-9" d="M102.43,145.62s-.28.11-.74.33H39.6l-.76-.33c0-30.75,19-33,19-33,1.41,0,2.43-1.36,3.21-3.56l9.56.76,10.39.83c.65,1.25,1.47,2,2.5,2C83.47,112.58,102.43,114.87,102.43,145.62Z"/><path class="cls-10" d="M81.77,111.37s-1.22-5.23-2.11-5.23-9.51,4-9.51,4l2.73,5.77Z"/><path class="cls-10" d="M58.76,111.37s1.22-5.23,2.11-5.23,9.51,4,9.51,4l-2.73,5.77Z"/><polygon class="cls-2" points="59.46 123.14 59.46 145.95 58.05 145.95 58.05 123.9 59.46 123.14"/><rect class="cls-2" x="76.65" y="125.41" width="14.87" height="1.3"/><rect class="cls-11" x="56.51" y="117.52" width="25.76" height="0.55" transform="translate(-47.34 46.63) rotate(-28.13)"/><rect class="cls-12" x="39.31" y="80.51" width="0.83" height="8.27"/><rect class="cls-12" x="37.13" y="82.92" width="5.19" height="0.83"/><path class="cls-2" d="M91.06,126.05c-.75,0-1.35,3.6-1.35,3.6a1.35,1.35,0,1,0,2.69,0S91.8,126.05,91.06,126.05Zm0,4.43a1,1,0,0,1-1-.95s.43-2.56,1-2.56,1,2.56,1,2.56A1,1,0,0,1,91.06,130.48Z"/><polygon class="cls-13" points="70.58 105.23 67.2 105.23 68.89 102.3 70.58 99.37 72.28 102.3 73.97 105.23 70.58 105.23"/></g></g></svg>