<svg xmlns="http://www.w3.org/2000/svg" xmlns:xlink="http://www.w3.org/1999/xlink" viewBox="0 0 145.36 146.23"><defs><style>.cls-1{fill:none;}.cls-2{fill:#f6f0d7;}.cls-3{fill:#e2bf9c;}.cls-4{fill:#f2d1ac;}.cls-5{clip-path:url(#clip-path);}.cls-6{fill:#c09a80;}.cls-7{fill:#d3a789;}.cls-8{fill:#e0b89b;}.cls-9{fill:#c7696e;}.cls-10{fill:#d87373;}.cls-11{fill:#84449a;}.cls-12{fill:#231f20;}</style><clipPath id="clip-path"><rect class="cls-1" x="67.89" y="98.78" width="17.49" height="10.33"/></clipPath></defs><title>Asset 144</title><g id="Layer_2" data-name="Layer 2"><g id="Layer_1-2" data-name="Layer 1"><rect class="cls-2" width="145.36" height="145.95"/><path class="cls-3" d="M76.6,88.16v58.07H45l-.77-.34a55.09,55.09,0,0,1,.42-7.29c2.72-24.22,18.9-26.17,18.9-26.17h.15c.14,0,.29-.05.42-.09,1.6-.44,2.68-2.8,3.41-6.16a1.06,1.06,0,0,0,.06-.28l.12-.58c.06-.31.11-.62.15-.95.18-1.06.34-2.2.45-3.37.06-.71.12-1.42.19-2.14.29-3.57.37-7.44.37-11.12,0,0,4.26.42,7.7.42"/><path class="cls-4" d="M109,145.9s-.28.11-.75.33H76.6V88.16h.06c3.42,0,7.71-.42,7.71-.42,0,3.65.07,7.48.37,11,.06.71.13,1.42.2,2.1.12,1.22.26,2.37.44,3.46h0c.07.5.16.94.23,1.38.68,3.25,1.65,5.65,3.07,6.44a2.69,2.69,0,0,0,.32.13,2,2,0,0,0,.71.14S109,114.75,109,145.9"/><g class="cls-5"><path class="cls-6" d="M85.38,104.33v0a10.25,10.25,0,0,1-8.75,4.76h0a11,11,0,0,1-8.69-4.74c.18-1.06.33-2.2.44-3.37.07-.71.13-1.42.2-2.14a35,35,0,0,0,8,1h.09a32.94,32.94,0,0,0,8.16-1.13c.06.71.12,1.42.19,2.09.13,1.23.27,2.38.45,3.46"/></g><path class="cls-7" d="M76.56,25.77C43.62,25.71,43.44,52.19,44.9,69.45c-2.27-4.06-8.95-2.55-8.4,3.94.53,6.21,10,9,9.84,8.34,2.69,14.07,18.22,21.88,30.22,23h.25V25.78h-.25"/><path class="cls-6" d="M38.16,70.65A3.26,3.26,0,0,1,43,69.77a2.56,2.56,0,0,1,.78,2.89c-.24.83-1.16.89-.94,2.16a2.28,2.28,0,0,0,1.35,1.85,2.88,2.88,0,0,1,1.12,1.17,3,3,0,0,1,.15,1.79c-.25,1-1.83.21-2.88-.25a19.66,19.66,0,0,1-3.46-2.67c-1.41-1.5-2.06-4.39-1-6.06"/><path class="cls-8" d="M76.73,25.77c32.94-.06,33.13,26.42,31.66,43.68,2.27-4.06,8.94-2.55,8.39,3.94-.52,6.21-10,9-9.83,8.34-2.69,14.07-18.22,21.88-30.22,23h-.26V25.78h.26"/><path class="cls-6" d="M115.37,70.65a3.26,3.26,0,0,0-4.83-.88,2.56,2.56,0,0,0-.78,2.89c.23.83,1.16.89.93,2.16a2.29,2.29,0,0,1-1.34,1.85,2.9,2.9,0,0,0-1.13,1.17,3.08,3.08,0,0,0-.14,1.79c.25,1,1.82.21,2.88-.25a19.3,19.3,0,0,0,3.46-2.67c1.4-1.5,2-4.39,1-6.06"/><path class="cls-3" d="M76.39,33.27c-11,0-19,3-23.93,9-6.8,8.36-6.54,21.14-4,30.31.76,2.8,1.16,10.36,1.69,13.13,2.37,12.41,16.78,19,26.27,19l.25,0V33.28h-.25"/><path class="cls-4" d="M100.26,42.3c-4.84-5.95-12.79-9-23.61-9v71.44c10.83-.11,23.78-7.34,26-19,.53-2.77.91-10.33,1.69-13.13,2.5-9.14,2.75-21.9-4.09-30.3"/><path class="cls-9" d="M82.18,93.53s-2.48,2.66-5.55,2.66-5.41-2.6-5.41-2.6a34.78,34.78,0,0,1,5.41-.41,44.29,44.29,0,0,1,5.55.35"/><path class="cls-10" d="M78.21,92.31a1.43,1.43,0,0,0-1.58,1.2,1.42,1.42,0,0,0-1.57-1.2,22.46,22.46,0,0,0-4,1.22s3,.32,3.9.32,1.64.34,1.65-.31c0,.65.64.4,1.51.4s4-.41,4-.41a22.31,22.31,0,0,0-4-1.22"/><path class="cls-11" d="M78.81,124.8v.37c0,6.16-.1,17.58-.11,21.06H50.79l-.61-7.31s-3.58-.23-5.5-.32c-.09,0-.27-.36-.45-1a3.34,3.34,0,0,1-.15-.57c-.93-3.51-2-12.36,2.1-18.82C47.55,116.12,52,115,52,115a16.15,16.15,0,0,1,7.55-2.29c2.81-.21,4-.24,4.74-.64a1.31,1.31,0,0,0,.44-.35,4.88,4.88,0,0,0,.66-1.07,26.92,26.92,0,0,0,1.37-3.76c.09-.28.16-.55.25-.79v0c.15-.46.28-.74.42-.74h.33l-.12.58a8.22,8.22,0,0,0,3.46,3.21c2.51,1.32,3.34,1.17,4.44,3.32.7,1.42,1,4.38,1.08,6.51,0,.48,0,.92,0,1.3s0,.44,0,.62,0,.26,0,.35,2,1.42,2.15,3.25a2,2,0,0,1,0,.34"/><path class="cls-11" d="M108.48,138.6c-1.92.08-5.51.32-5.51.32l-.6,7.31H74.47c0-2.95,0-11.59-.09-17.89v-.69c0-1,0-2,0-2.85,0-2,2.17-3.36,2.17-3.59a20.15,20.15,0,0,1,0-2.27c.09-2.13.38-5.09,1.09-6.51,1.08-2.15,1.93-2,4.43-3.32a8.17,8.17,0,0,0,3.45-3.21l-.12-.58h.34c.39,0,.89,3,2,5.33a5.29,5.29,0,0,0,.66,1.07,1.38,1.38,0,0,0,.42.35c.73.4,1.92.43,4.76.64a15.93,15.93,0,0,1,7.52,2.29s4.46,1.12,5.83,3.25c5.24,8.21,2.06,20.29,1.5,20.35"/><path class="cls-4" d="M75.6,119.15v.61l-.31-.06c-1.54-.24-8.32-2.78-11.13-7.63a1.14,1.14,0,0,0,.44-.35c2.41,4.24,8.32,6.88,10.45,7.37,0-2.06,0-4.6-.93-6.55-.35-.71-1.84-1.42-3.17-2.06a14.41,14.41,0,0,1-2.52-1.37,6.5,6.5,0,0,1-1.79-2.22c.09-.28.16-.55.25-.79a6,6,0,0,0,1.88,2.57A16.52,16.52,0,0,0,71.2,110c1.52.72,3,1.41,3.43,2.32,1,2.07,1,4.72,1,6.84"/><path class="cls-4" d="M50,137.41l0,.56-5.81-.33a4.62,4.62,0,0,1-.15-.57Z"/><path class="cls-4" d="M77.65,119.15v.61l.31-.06c1.55-.24,8.32-2.78,11.13-7.63a1.11,1.11,0,0,1-.43-.35c-2.43,4.24-8.33,6.88-10.45,7.37,0-2.06,0-4.6.93-6.55.35-.71,1.83-1.42,3.16-2.06a14.92,14.92,0,0,0,2.53-1.37,6.39,6.39,0,0,0,1.79-2.22c-.09-.28-.16-.55-.25-.79a6,6,0,0,1-1.88,2.57A16.68,16.68,0,0,1,82.05,110c-1.52.72-3,1.41-3.43,2.32-1,2.07-1,4.72-1,6.84"/><path class="cls-4" d="M103.18,137.41l0,.56,5.8-.33a2.59,2.59,0,0,0,.16-.57Z"/><path class="cls-4" d="M76.45,120.43a5.26,5.26,0,0,1-3.28-1.12l1.4-1.71a3.22,3.22,0,0,0,4.06-.19L80,119.16a5.72,5.72,0,0,1-3.53,1.27"/><path class="cls-4" d="M79.58,119.15c-1,.55-1.93,1.12-2.92,1.71-9.1,5.36-20.06,12.58-23.77,23.2a14.63,14.63,0,0,0-.6,2.17h-.55a18.92,18.92,0,0,1,.61-2.35c3.81-10.91,15.06-18.22,24.29-23.64.9-.54,1.81-1,2.67-1.55Z"/><path class="cls-12" d="M108.35,45.1C102.65,34.67,94.45,28.46,88.5,27a98.66,98.66,0,0,0-11.78-2c0-.1-.6-.27-1.52-.16-.69-.07-1.13,0-1.15.12a97,97,0,0,0-11.78,2c-6,1.49-14.15,7.7-19.86,18.13s-1,29.8,2,39,11.93,21.6,11.93,21.6-6.71-17.38-5-25.08c1.41-6.19,2.73-10.9,6.71-14.32,3.32-2.85,24.44-10.8,34.82.33l.13.14.46.68h0a36.75,36.75,0,0,1,6,13.21c1.74,7.7-5,25.08-5,25.08s9-12.41,11.92-21.6S114.06,55.53,108.35,45.1Z"/></g></g></svg>