<svg xmlns="http://www.w3.org/2000/svg" viewBox="0 0 145.36 145.95"><defs><style>.cls-1{fill:#5ea7af;}.cls-2{fill:#e1bf9c;}.cls-3{fill:#f2d1ac;}.cls-4,.cls-6{fill:#c09a80;}.cls-4{opacity:0.7;}.cls-5{fill:#d3a789;}.cls-7{fill:#e0b89b;}.cls-8{fill:#432612;}.cls-9{fill:#1b1a1b;}.cls-10{fill:#f9f9fa;}.cls-11{fill:#ad9962;}.cls-12{fill:#7c6c43;}.cls-13{fill:#666766;}.cls-13,.cls-14{opacity:0.5;}.cls-14{fill:#c9c9c9;}</style></defs><title>Asset 206</title><g id="Layer_2" data-name="Layer 2"><g id="Layer_1-2" data-name="Layer 1"><rect class="cls-1" width="145.36" height="145.95"/><path class="cls-2" d="M72.52,92.22v53.71H43.33l-.72-.31c0-28.81,17.87-31,17.87-31,1.78,0,2.93-2.29,3.69-5.77.12-.53.22-1.09.31-1.68.16-1,.3-2,.4-3.11.06-.65.12-1.31.19-2,.26-3.29.34-6.88.34-10.27C65.41,91.84,69.34,92.22,72.52,92.22Z"/><path class="cls-3" d="M102.53,145.62s-.26.1-.69.31H72.52V92.22h.06c3.17,0,7.13-.38,7.13-.38,0,3.37.08,6.91.34,10.19.06.66.13,1.31.19,2,.12,1.12.24,2.19.41,3.19v0c.06.45.14.86.22,1.27.76,3.71,1.95,6.2,3.79,6.2C84.66,114.66,102.53,116.81,102.53,145.62Z"/><path class="cls-4" d="M80.65,107.17v0a9.44,9.44,0,0,1-8.09,4.4h0a10.16,10.16,0,0,1-8-4.38c.16-1,.3-2,.4-3.11.06-.65.12-1.31.19-2a31.65,31.65,0,0,0,7.37,1h.08a30,30,0,0,0,7.53-1c.06.66.13,1.31.19,2C80.36,105.1,80.48,106.17,80.65,107.17Z"/><path class="cls-5" d="M72.6,30.64c-30.92,0-31.1,25.88-29.72,42.82-2.12-4-8.39-2.77-7.88,3.56.49,6.09,9.36,9.24,9.23,8.53,2.54,13.94,17.09,22,28.37,22h.24V30.64Z"/><path class="cls-6" d="M37,74.34a2.93,2.93,0,0,1,4.47-.85,2.55,2.55,0,0,1,.72,2.81c-.21.81-1.07.87-.86,2.11a2.19,2.19,0,0,0,1.24,1.79,2.83,2.83,0,0,1,1,1.14,3.1,3.1,0,0,1,.14,1.74c-.24,1-1.69.21-2.67-.23a19.39,19.39,0,0,1-3.2-2.6C36.55,78.78,36,76,37,74.34Z"/><path class="cls-7" d="M72.75,30.64c30.93,0,31.1,25.88,29.73,42.82,2.12-4,8.4-2.77,7.88,3.56-.49,6.09-9.36,9.24-9.24,8.53-2.53,13.94-17.08,22-28.37,22h-.23V30.64Z"/><path class="cls-6" d="M108.38,74.34a2.92,2.92,0,0,0-4.46-.85,2.55,2.55,0,0,0-.72,2.81c.21.81,1.07.87.86,2.11a2.19,2.19,0,0,1-1.24,1.79,2.76,2.76,0,0,0-1,1.14,3.1,3.1,0,0,0-.14,1.74c.24,1,1.69.21,2.67-.23a19.39,19.39,0,0,0,3.2-2.6C108.81,78.78,109.41,76,108.38,74.34Z"/><path class="cls-2" d="M72.33,37.93c-10.17,0-17.62,3-22.13,8.79-6.29,8.15-6.05,20.59-3.73,29.52C47.18,79,47.54,86.33,48,89c2.19,12.07,15.52,18.51,24.29,18.51h.24V37.94Z"/><path class="cls-3" d="M94.42,46.73C89.94,40.94,82.58,38,72.57,37.94v69.6c10-.11,22-7.16,24.06-18.5.49-2.71.85-10.07,1.56-12.8C100.51,67.34,100.74,54.91,94.42,46.73Z"/><path class="cls-8" d="M85.41,114.81a2,2,0,0,1-1.12-.66,23.46,23.46,0,0,0-2.1-2.84c-.07-.08-.14-.14-.19-.21l-.31,1.76-9.12,4.67-9-4.35-.44-2.08a1.5,1.5,0,0,1-.13.11c-1.21,1.39-3.29,3.69-3.27,3.6-3.38.78-17.12,5.53-17.12,30.81l.71.31h58.5l.7-.31C102.53,120.34,88.79,115.59,85.41,114.81Z"/><path class="cls-9" d="M49.06,77.06c-1.7,0-7.52-6.37-7.55-6.45l.92-.6c1.84,2.56,5.87,5.75,6.62,6a.34.34,0,0,0-.23,0,.27.27,0,0,0-.14.17l1.11,0a.82.82,0,0,1-.63.91Z"/><path class="cls-9" d="M96.22,77.06h-.11a.81.81,0,0,1-.62-.91l.74-.17a25.52,25.52,0,0,0,6.87-6l-.57,2.2C102.5,72.29,97.91,77.06,96.22,77.06Z"/><path class="cls-10" d="M83.76,112.39c-.44-1.14-1.51-2.2-1.9-3.11-.65-1.5-1.24-2.83-1.24-2.83a77.26,77.26,0,0,1-2.36,7.81s-6.94,3.33-5.86,3.56,6.24,6.74,7.72,8.46,1.23,3.32,1.62,1S84.94,115.43,83.76,112.39Z"/><path class="cls-10" d="M66.9,114.26a77.66,77.66,0,0,1-2.35-7.81s-.6,1.33-1.24,2.83c-.39.91-1.46,2-1.91,3.11-1.18,3,1.64,12.56,2,14.88s.14.73,1.61-1,6.27-8.22,7.36-8.46S66.9,114.26,66.9,114.26Z"/><path class="cls-11" d="M101.57,78.18c1.89-6.61,3.67-17.69,3.67-22.8s-1-12.11-3-15.27c-2.7-4.15-2.9-3-2.9-3S102,25.78,85.15,23.27a39.39,39.39,0,0,0-6.63-.2l2.31,2.33A47.42,47.42,0,0,0,60.2,24.19C51.67,25.51,45.84,29.71,41,36.55c-3.23,4.58-4.22,11.34-4.22,11.34L43,39.57a28.75,28.75,0,0,0-6.24,22.31C39.4,81.66,48.57,85.32,48.57,85.32s-6.31-11.85-2.14-19.53c7-12.89,19.47-13.28,19.47-13.28A17.74,17.74,0,0,0,51,66.09c-.21.86.58-3.46,5.89-5.5,3.66-1.41,8.83-.9,14.71-3.59C77,54.55,86.5,47.7,86.5,47.7s-12.62,4.7-16.17,7.77a21.91,21.91,0,0,0-7.26,13.25s3.67-5.92,12.65-9.3c4.93-1.86,13.8-5.1,13.8-5.1S83,53.9,78.3,57.84c-3.75,3.16-2.69,10-1.75,11.25,0,0-.31-5.18,11-8.41,6.49-1.87,7.53-5.55,7.53-5.55a20.43,20.43,0,0,0,.83,6c1,2.71,3.89,4.47,4.09,6.91.38,4.53-2.06,13-2.06,13Z"/><path class="cls-12" d="M86.13,47.84,84.85,49c-.4.37-.9.81-1.5,1.28s-1.27,1-2,1.56-1.6,1.14-2.54,1.7a31.9,31.9,0,0,1-3,1.65c-1,.55-2.18,1-3.32,1.51a37.31,37.31,0,0,1-3.56,1.23,22.15,22.15,0,0,1-3.68.88l-3.58.51A20.79,20.79,0,0,0,55.58,61a8.77,8.77,0,0,0-3.43,2.76,7.77,7.77,0,0,0-.86,1.48A7.06,7.06,0,0,1,52,63.64a8.89,8.89,0,0,1,3.33-3.12,20.91,20.91,0,0,1,6.17-2c1.15-.24,2.36-.39,3.56-.6A20.27,20.27,0,0,0,68.61,57c1.19-.34,2.33-.83,3.48-1.23s2.25-.89,3.29-1.41a59.06,59.06,0,0,0,5.57-3c.81-.46,1.49-1,2.14-1.38s1.18-.79,1.63-1.11Z"/><path class="cls-12" d="M84.4,55.25l-.82.73A12.48,12.48,0,0,1,81,57.44c-1.12.47-2.46,1-3.89,1.4s-2.94.92-4.39,1.51a20.58,20.58,0,0,0-2.13,1,16,16,0,0,0-1.94,1.14c-.62.38-1.13.87-1.67,1.27s-.93.92-1.35,1.33-.69.9-1,1.27A9.07,9.07,0,0,0,64,67.37l-.6.92.42-1c.16-.31.29-.73.54-1.15s.54-.91.87-1.42.81-1,1.28-1.52a14.14,14.14,0,0,1,1.67-1.47,13.58,13.58,0,0,1,2-1.27,22.09,22.09,0,0,1,2.2-1c3.05-1.2,6.21-1.77,8.47-2.5a16.28,16.28,0,0,0,2.64-1.07Z"/><path class="cls-12" d="M95.44,53.87a10.34,10.34,0,0,1-.54.93A10.79,10.79,0,0,1,93.06,57a13,13,0,0,1-3.42,2.24c-1.36.63-2.84,1.16-4.3,1.68a16.89,16.89,0,0,0-4,2,12.74,12.74,0,0,0-3,2.54,8.15,8.15,0,0,0-1.47,2.34,5.69,5.69,0,0,0-.35,1,5.39,5.39,0,0,1,.18-1.07A8,8,0,0,1,78,65.11a13.38,13.38,0,0,1,2.88-2.91A15.62,15.62,0,0,1,85,60c2.94-1.09,5.87-2,7.68-3.46a15.78,15.78,0,0,0,2.06-1.86Z"/><path class="cls-12" d="M56.8,34.87A31.37,31.37,0,0,0,53.88,37a26.41,26.41,0,0,0-2.58,2.49,17.68,17.68,0,0,0-3.76,5.86l-1.49-.69a3,3,0,0,1,1-1,5.31,5.31,0,0,1,1.06-.54,16,16,0,0,1,2.1-.68c1.37-.37,2.81-.62,4.06-.92l1.7-.42-.55,1.65a36.14,36.14,0,0,1-2.06,4.69c-.75,1.5-1.57,3-2.44,4.4l-1.51-1.28a33.08,33.08,0,0,1,5.13-3.37,29.57,29.57,0,0,1,5.62-2.39,22.84,22.84,0,0,1,6-1.1,15.53,15.53,0,0,1,6,.92,18.07,18.07,0,0,0-5.87,0,25.34,25.34,0,0,0-5.6,1.57,40.88,40.88,0,0,0-5.2,2.63c-.83.49-1.64,1-2.44,1.59s-1.6,1.13-2.3,1.71l-4.16,3.46,2.65-4.73a70.07,70.07,0,0,0,4.4-8.68l1.15,1.24c-1.46.31-2.78.49-4.11.81a15.23,15.23,0,0,0-1.88.55,5.07,5.07,0,0,0-.81.37,1.81,1.81,0,0,0-.47.36l-3.36,3.39L46,44.76a18.7,18.7,0,0,1,4.56-6A22.42,22.42,0,0,1,56.8,34.87Z"/><path class="cls-13" d="M66.86,70.51A10,10,0,0,0,62,67.13h0a10.19,10.19,0,0,0-2.93-.44,9.86,9.86,0,0,0-9.85,9.85,9.71,9.71,0,0,0,2.07,6A9.89,9.89,0,0,0,56.14,86h0a10.13,10.13,0,0,0,2.93.43,9.86,9.86,0,0,0,9.85-9.85A9.72,9.72,0,0,0,66.86,70.51Z"/><path class="cls-9" d="M59.08,66a10.51,10.51,0,1,0,10.51,10.5A10.51,10.51,0,0,0,59.08,66Zm0,20.35A10.13,10.13,0,0,1,56.16,86h0a9.89,9.89,0,0,1-4.83-3.4,9.71,9.71,0,0,1-2.07-6,9.86,9.86,0,0,1,9.85-9.85,10.19,10.19,0,0,1,2.93.44h0a10,10,0,0,1,4.82,3.38,9.72,9.72,0,0,1,2.08,6A9.86,9.86,0,0,1,59.09,86.39Z"/><path class="cls-13" d="M85.94,66.7a9.85,9.85,0,1,0,9.85,9.84A9.86,9.86,0,0,0,85.94,66.7Z"/><path class="cls-9" d="M85.94,66a10.51,10.51,0,1,0,10.51,10.5A10.5,10.5,0,0,0,85.94,66Zm0,20.35a9.85,9.85,0,1,1,9.85-9.85A9.86,9.86,0,0,1,85.94,86.39Z"/><path class="cls-9" d="M75.53,77.5a6.68,6.68,0,0,0-6-.2l-.45-1a7.83,7.83,0,0,1,7.06.29Z"/><path class="cls-14" d="M66.86,70.51,56.16,86h0a9.89,9.89,0,0,1-4.83-3.4L62,67.13h0A10,10,0,0,1,66.86,70.51Z"/><path class="cls-14" d="M93.72,70.51,83,86h0a9.89,9.89,0,0,1-4.83-3.4L88.87,67.13h0A10.09,10.09,0,0,1,93.72,70.51Z"/></g></g></svg>