<svg xmlns="http://www.w3.org/2000/svg" xmlns:xlink="http://www.w3.org/1999/xlink" viewBox="0 0 145.36 145.99"><defs><style>.cls-1{fill:none;}.cls-2{fill:#867096;}.cls-3{fill:#3a2817;}.cls-4{fill:#939598;}.cls-5{fill:#e2bf9c;}.cls-6{fill:#f2d1ac;}.cls-7{clip-path:url(#clip-path);}.cls-8{fill:#c09a80;}.cls-9{fill:#7f4c50;}.cls-10{fill:#fff;}.cls-11{fill:#ddd;}.cls-12{fill:#d3a789;}.cls-13{fill:#e0b89b;}.cls-14{fill:#bb9479;}</style><clipPath id="clip-path"><rect class="cls-1" x="67.74" y="98.54" width="17.49" height="10.34"/></clipPath></defs><title>Asset 157</title><g id="Layer_2" data-name="Layer 2"><g id="Layer_1-2" data-name="Layer 1"><rect class="cls-2" width="145.36" height="145.95"/><path class="cls-3" d="M111.68,89.59c-1.15-5.63-.45-3.59,1-8.73l-.51.29a44.11,44.11,0,0,0,3.37-17c0-23-17.23-41.6-38.49-41.6S38.58,41.19,38.58,64.17A44.36,44.36,0,0,0,41.87,81a1.15,1.15,0,0,1-.17-.11c1.45,5.14,2.16,3.1,1,8.73-1,4.87-3.93,6.15-3.93,6.15s4.55-1.86,5.64-3.12c.54-.61,2-2.31,2.38-2.82l0,0c-.25.56-.85,2.37,0,5.86,1.1,4.57,5.61,7.64,5.61,7.64s-2.71-3.63-2-7.6c0,0-.16,1.59,4.24,6s12.6,8.31,12.6,8.31,3.17,1.36,3.07-1.65c3.21.93,3.22-2.66,6.69-2.66s4.89,4.09,8.15,3.12c-.09,3.05,1.86,1.19,1.86,1.19s8.21-3.88,12.6-8.31,4.23-6,4.23-6c.75,4-2,7.6-2,7.6s4.51-3.07,5.6-7.64c1-4.26-.09-6-.1-6s1.88,2.24,2.52,3c1.1,1.26,5.64,3.12,5.64,3.12s-3-1.28-3.94-6.15"/><path class="cls-4" d="M69,104H64.48v-.21a.35.35,0,0,0-.7,0v2.33a.35.35,0,0,0,.7,0v-.21H69Z"/><path class="cls-4" d="M84.49,104H89v-.21a.35.35,0,0,1,.35-.35.35.35,0,0,1,.35.35v2.33a.35.35,0,0,1-.35.35.35.35,0,0,1-.35-.35v-.21H84.49Z"/><path class="cls-5" d="M76.43,87.93V146H44.87l-.78-.33c0-28.8,16.54-33,19-33.41l.3,0c1.93,0,3.17-2.49,4-6.25.14-.58.24-1.18.34-1.82.17-1,.32-2.19.44-3.36.06-.71.13-1.42.19-2.15.29-3.56.38-7.44.38-11.11,0,0,4.25.42,7.68.42"/><path class="cls-6" d="M108.88,145.66s-.28.11-.75.33H76.43V87.93h.07c3.43,0,7.7-.42,7.7-.42,0,3.65.09,7.48.38,11,.06.71.13,1.41.19,2.09.14,1.22.27,2.38.45,3.46v0c.07.49.16.93.24,1.37.82,4,2.11,6.72,4.1,6.72a8,8,0,0,1,.82.14s0,0,0,0c3.74.89,18.48,6.12,18.48,33.32"/><g class="cls-7"><path class="cls-8" d="M85.22,104.09v0a10.17,10.17,0,0,1-8.74,4.77h0a11,11,0,0,1-8.7-4.75c.18-1,.33-2.18.44-3.35.06-.71.13-1.42.2-2.15a34.38,34.38,0,0,0,8,1h.09a32.79,32.79,0,0,0,8.14-1.12c.07.71.14,1.42.21,2.1.12,1.22.25,2.37.43,3.45"/></g><path class="cls-9" d="M108.88,145.65s-.28.11-.75.34H44.87l-.78-.34c0-29.27,16.54-33.5,19-33.95,4,4.62,12.9,12.71,12.9,12.71s9.1-7.69,12.88-11.2a5.72,5.72,0,0,0,.56-.52c.42-.38.75-.7.93-.9h0a15.23,15.23,0,0,1,2.46.81c.18.07.35.16.55.25a20.86,20.86,0,0,1,3.81,2.27,4.75,4.75,0,0,1,.55.43c5.27,4.13,11.11,12.69,11.11,30.1"/><path class="cls-10" d="M88.75,107.34c.28.21,3.39,6.9,4,8.29s0,5.45,0,5.45-.41-2.18-1.67-2.76-3.87-.88-4.91-.37-6,4.36-6.87,5A5,5,0,0,0,77.46,125v21H75.31l.14-20.81,2.35-7.4,8.61-8.37s-.52-2.13-.6-2.42a7.94,7.94,0,0,1,2.94.35"/><path class="cls-10" d="M64,107.69c-.28.23-3.4,6.9-3.95,8.29s0,5.45,0,5.45.41-2.19,1.66-2.76,3.88-.88,4.91-.36,6,4.36,6.87,5,3.95,2.76,3.95,2.76l-3-8.3-8-8.06s.69-2.21.68-2.38a8.06,8.06,0,0,0-3,.35"/><path class="cls-11" d="M77,127.66a.59.59,0,0,1-.6.59.6.6,0,1,1,.6-.59"/><path class="cls-11" d="M77,131.6a.59.59,0,0,1-.6.59.6.6,0,1,1,.6-.59"/><path class="cls-11" d="M77,135.4a.6.6,0,1,1-.6-.59.6.6,0,0,1,.6.59"/><path class="cls-11" d="M77,139.19a.6.6,0,0,1-.6.6.61.61,0,0,1-.6-.6.6.6,0,0,1,.6-.6.6.6,0,0,1,.6.6"/><path class="cls-11" d="M77,142.83a.6.6,0,1,1-.6-.6.6.6,0,0,1,.6.6"/><path class="cls-12" d="M76.23,21.33c-33.44,0-33.62,28-32.14,46.32-2.29-4.35-9.08-3-8.52,3.84.53,6.59,10.12,10,10,9.22C48.3,95.8,64,104.5,76.23,104.5h.26V21.34h-.26"/><path class="cls-8" d="M37.71,68.6a3.17,3.17,0,0,1,4.83-.93,2.78,2.78,0,0,1,.78,3c-.23.88-1.16,1-.93,2.28a2.3,2.3,0,0,0,1.33,1.93,3.2,3.2,0,0,1,1.14,1.24A3.34,3.34,0,0,1,45,78.05c-.25,1.08-1.83.22-2.88-.26A19.73,19.73,0,0,1,38.66,75c-1.41-1.58-2.06-4.63-.95-6.38"/><path class="cls-13" d="M76.4,21.33c33.44,0,33.63,28,32.14,46.32,2.3-4.35,9.08-3,8.52,3.84-.53,6.59-10.12,10-10,9.22C104.33,95.8,88.6,104.5,76.4,104.5h-.26V21.34h.26"/><path class="cls-8" d="M114.93,68.6a3.17,3.17,0,0,0-4.83-.93,2.77,2.77,0,0,0-.79,3c.24.88,1.16,1,.94,2.28a2.31,2.31,0,0,1-1.35,1.93,2.77,2.77,0,0,0-1.27,3.13c.26,1.08,1.83.22,2.89-.26A19.67,19.67,0,0,0,114,75c1.41-1.58,2.06-4.63,1-6.38"/><path class="cls-5" d="M76.23,29.29c-11,0-19.05,3.19-23.94,9.5-6.8,8.81-6.54,22.27-4,31.92.76,3,1.15,10.91,1.69,13.83,2.37,13.06,16.79,20,26.28,20h.25V29.29h-.25"/><path class="cls-6" d="M100.11,38.81c-4.84-6.27-12.8-9.46-23.63-9.52v75.26c10.84-.11,23.79-7.74,26-20,.53-2.92.91-10.88,1.69-13.83,2.5-9.63,2.74-23.07-4.08-31.9"/><path class="cls-14" d="M44.82,44.17a67.53,67.53,0,0,0,19.33,3l1.24,8.24L68.72,55l-1.17-7.81a70.75,70.75,0,0,0,12-1.55l3,7.89,3.15-1.19L82.83,44.8a75.78,75.78,0,0,0,9.66-3.31l2.83,7.42,3.15-1.19-2.91-7.6A58.77,58.77,0,0,0,104.47,35l-2.42-3.26a54.43,54.43,0,0,1-8,4.52l-2-5.36-3.15,1.18L91,37.63a73.92,73.92,0,0,1-9.66,3.27l-2.09-5.44-3.14,1.18,1.92,5A66.31,66.31,0,0,1,66.93,43l-.88-5.9-3.34.48.82,5.46A62.56,62.56,0,0,1,46,40.31Z"/></g></g></svg>